{
  "accessors": [
    {
      "bufferView": 4,
      "byteOffset": 0,
      "componentType": 5123,
      "normalized": false,
      "count": 11808,
      "type": "SCALAR"
    },
    {
      "bufferView": 0,
      "byteOffset": 0,
      "componentType": 5126,
      "normalized": false,
      "count": 11808,
      "type": "VEC3",
      "max": [
        1.336914,
        0.950195,
        0.825684
      ],
      "min": [
        -1.336914,
        -0.974609,
        -0.800781
      ]
    },
    {
      "bufferView": 1,
      "byteOffset": 0,
      "componentType": 5126,
      "normalized": false,
      "count": 11808,
      "type": "VEC3",
      "max": [
        0.996339,
        0.999958,
        0.999929
      ],
      "min": [
        -0.996339,
        -0.98594,
        -0.999994
      ]
    },
    {
      "bufferView": 2,
      "byteOffset": 0,
      "componentType": 5126,
      "normalized": false,
      "count": 11808,
      "type": "VEC4",
      "max": [
        0.99857,
        0.999996,
        0.999487,
        1.0
      ],
      "min": [
        -0.999233,
        -0.999453,
        -0.999812,
        1.0
      ]
    },
    {
      "bufferView": 3,
      "byteOffset": 0,
      "componentType": 5126,
      "normalized": false,
      "count": 11808,
      "type": "VEC2",
      "max": [
        0.999884,
        0.884359
      ],
      "min": [
        0.000116,
        0.000116
      ]
    }
  ],
  "asset": {
    "generator": "GDS lod baker 1",
    "version": "2.0"
  },
  "bufferViews": [
    {
      "buffer": 0,
      "byteOffset": 0,
      "byteLength": 141696,
      "target": 34962
    },
    {
      "buffer": 0,
      "byteOffset": 141696,
      "byteLength": 141696,
      "target": 34962
    },
    {
      "buffer": 0,
      "byteOffset": 283392,
      "byteLength": 188928,
      "target": 34962
    },
    {
      "buffer": 0,
      "byteOffset": 472320,
      "byteLength": 94464,
      "target": 34962
    },
    {
      "buffer": 0,
      "byteOffset": 566784,
      "byteLength": 23616,
      "target": 34963
    }
  ],
  "buffers": [
    {
      "uri": "SuzanneLOD.bin",
      "byteLength": 590400
    }
  ],
  "images": [
    {
      "uri": "Suzanne_BaseColor.png"
    },
    {
      "uri": "Suzanne_MetallicRoughness.png"
    }
  ],
  "materials": [
    {
      "pbrMetallicRoughness": {
        "baseColorFactor": [
          1.0,
          1.0,
          1.0,
          1.0
        ],
        "metallicFactor": 1.0,
        "roughnessFactor": 1.0,
        "baseColorTexture": {
          "index": 0,
          "texCoord": 0
        },
        "metallicRoughnessTexture": {
          "index": 1,
          "texCoord": 0
        }
      },
      "emissiveFactor": [
        0.0,
        0.0,
        0.0
      ],
      "alphaMode": "OPAQUE",
      "doubleSided": false,
      "name": "Suzanne"
    }
  ],
  "meshes": [
    {
      "primitives": [
        {
          "attributes": {
            "POSITION": 1,
            "NORMAL": 2,
            "TANGENT": 3,
            "TEXCOORD_0": 4
          },
          "indices": 0,
          "mode": 4,
          "material": 0
        }
      ],
      "name": "Suzanne"
    }
  ],
  "nodes": [
    {
      "mesh": 0,
      "name": "Suzanne"
    }
  ],
  "samplers": [
    {
      "wrapS": 10497,
      "wrapT": 10497
    }
  ],
  "scene": 0,
  "scenes": [
    {
      "nodes": [
        0
      ]
    }
  ],
  "textures": [
    {
      "sampler": 0,
      "source": 0
    },
    {
      "sampler": 0,
      "source": 1
    }
  ]
}