{
  "accessors": [
    {
      "bufferView": 4,
      "byteOffset": 0,
      "componentType": 5123,
      "normalized": false,
      "count": 5952,
      "type": "SCALAR"
    },
    {
      "bufferView": 0,
      "byteOffset": 0,
      "componentType": 5126,
      "normalized": false,
      "count": 1087,
      "type": "VEC3",
      "max": [
        0.4000000059604645,
        0.4000000059604645,
        0.4000000059604645
      ],
      "min": [
        -0.4000000059604645,
        -0.4000000059604645,
        -0.4000000059604645
      ]
    },
    {
      "bufferView": 0,
      "byteOffset": 12,
      "componentType": 5126,
      "normalized": false,
      "count": 1087,
      "type": "VEC3"
    },
    {
      "bufferView": 0,
      "byteOffset": 24,
      "componentType": 5126,
      "normalized": false,
      "count": 1087,
      "type": "VEC2"
    },
    {
      "bufferView": 0,
      "byteOffset": 32,
      "componentType": 5126,
      "normalized": false,
      "count": 1087,
      "type": "VEC4"
    },
    {
      "bufferView": 1,
      "byteOffset": 0,
      "componentType": 5126,
      "normalized": false,
      "count": 48,
      "type": "VEC3",
      "max": [
        3.285834550857544,
        6.1872053146362305,
        0.02000073716044426
      ],
      "min": [
        -4.170140743255615,
        -0.9872717261314392,
        -0.020000357180833817
      ]
    },
    {
      "bufferView": 2,
      "byteOffset": 0,
      "componentType": 5126,
      "normalized": false,
      "count": 48,
      "type": "VEC3"
    },
    {
      "bufferView": 3,
      "byteOffset": 0,
      "componentType": 5126,
      "normalized": false,
      "count": 48,
      "type": "VEC2"
    },
    {
      "bufferView": 5,
      "byteOffset": 0,
      "componentType": 5123,
      "normalized": false,
      "count": 72,
      "type": "SCALAR"
    },
    {
      "bufferView": 4,
      "byteOffset": 11904,
      "componentType": 5123,
      "normalized": false,
      "count": 2976,
      "type": "SCALAR"
    },
    {
      "bufferView": 4,
      "byteOffset": 17856,
      "componentType": 5123,
      "normalized": false,
      "count": 1488,
      "type": "SCALAR"
    },
    {
      "bufferView": 5,
      "byteOffset": 144,
      "componentType": 5123,
      "normalized": false,
      "count": 24,
      "type": "SCALAR"
    }
  ],
  "asset": {
    "generator": "GDS lod baker 1",
    "copyright": "CC0. To the extent possible, all rights to this asset have been waived. Model and Textures by Emmett Lalish and Ed Mackey.",
    "version": "2.0"
  },
  "bufferViews": [
    {
      "buffer": 0,
      "byteOffset": 0,
      "byteLength": 52176,
      "byteStride": 48,
      "target": 34962
    },
    {
      "buffer": 0,
      "byteOffset": 52176,
      "byteLength": 576,
      "target": 34962
    },
    {
      "buffer": 0,
      "byteOffset": 52752,
      "byteLength": 576,
      "target": 34962
    },
    {
      "buffer": 0,
      "byteOffset": 53328,
      "byteLength": 384,
      "target": 34962
    },
    {
      "buffer": 0,
      "byteOffset": 53712,
      "byteLength": 20832,
      "target": 34963
    },
    {
      "buffer": 0,
      "byteOffset": 74544,
      "byteLength": 192,
      "target": 34963
    }
  ],
  "buffers": [
    {
      "uri": "AnisotropyStrengthTestLOD.bin",
      "byteLength": 74736
    }
  ],
  "extensionsUsed": [
    "KHR_materials_anisotropy",
    "NG2_mesh_lod"
  ],
  "images": [
    {
      "uri": "AnisotropySpheresLabels.png",
      "name": "AnisotropySpheresLabels"
    }
  ],
  "materials": [
    {
      "extensions": {
        "KHR_materials_anisotropy": {
          "anisotropyStrength": 0
        }
      },
      "pbrMetallicRoughness": {
        "baseColorFactor": [
          1.0,
          1.0,
          1.0,
          1.0
        ],
        "metallicFactor": 1.0,
        "roughnessFactor": 0.0
      },
      "emissiveFactor": [
        0.0,
        0.0,
        0.0
      ],
      "alphaMode": "OPAQUE",
      "doubleSided": false
    },
    {
      "extensions": {
        "KHR_materials_anisotropy": {
          "anisotropyStrength": 0.16666666666666666
        }
      },
      "pbrMetallicRoughness": {
        "baseColorFactor": [
          1.0,
          1.0,
          1.0,
          1.0
        ],
        "metallicFactor": 1.0,
        "roughnessFactor": 0.0
      },
      "emissiveFactor": [
        0.0,
        0.0,
        0.0
      ],
      "alphaMode": "OPAQUE",
      "doubleSided": false
    },
    {
      "extensions": {
        "KHR_materials_anisotropy": {
          "anisotropyStrength": 0.3333333333333333
        }
      },
      "pbrMetallicRoughness": {
        "baseColorFactor": [
          1.0,
          1.0,
          1.0,
          1.0
        ],
        "metallicFactor": 1.0,
        "roughnessFactor": 0.0
      },
      "emissiveFactor": [
        0.0,
        0.0,
        0.0
      ],
      "alphaMode": "OPAQUE",
      "doubleSided": false
    },
    {
      "extensions": {
        "KHR_materials_anisotropy": {
          "anisotropyStrength": 0.5
        }
      },
      "pbrMetallicRoughness": {
        "baseColorFactor": [
          1.0,
          1.0,
          1.0,
          1.0
        ],
        "metallicFactor": 1.0,
        "roughnessFactor": 0.0
      },
      "emissiveFactor": [
        0.0,
        0.0,
        0.0
      ],
      "alphaMode": "OPAQUE",
      "doubleSided": false
    },
    {
      "extensions": {
        "KHR_materials_anisotropy": {
          "anisotropyStrength": 0.6666666666666666
        }
      },
      "pbrMetallicRoughness": {
        "baseColorFactor": [
          1.0,
          1.0,
          1.0,
          1.0
        ],
        "metallicFactor": 1.0,
        "roughnessFactor": 0.0
      },
      "emissiveFactor": [
        0.0,
        0.0,
        0.0
      ],
      "alphaMode": "OPAQUE",
      "doubleSided": false
    },
    {
      "extensions": {
        "KHR_materials_anisotropy": {
          "anisotropyStrength": 0.8333333333333334
        }
      },
      "pbrMetallicRoughness": {
        "baseColorFactor": [
          1.0,
          1.0,
          1.0,
          1.0
        ],
        "metallicFactor": 1.0,
        "roughnessFactor": 0.0
      },
      "emissiveFactor": [
        0.0,
        0.0,
        0.0
      ],
      "alphaMode": "OPAQUE",
      "doubleSided": false
    },
    {
      "extensions": {
        "KHR_materials_anisotropy": {
          "anisotropyStrength": 1
        }
      },
      "pbrMetallicRoughness": {
        "baseColorFactor": [
          1.0,
          1.0,
          1.0,
          1.0
        ],
        "metallicFactor": 1.0,
        "roughnessFactor": 0.0
      },
      "emissiveFactor": [
        0.0,
        0.0,
        0.0
      ],
      "alphaMode": "OPAQUE",
      "doubleSided": false
    },
    {
      "extensions": {
        "KHR_materials_anisotropy": {
          "anisotropyStrength": 0
        }
      },
      "pbrMetallicRoughness": {
        "baseColorFactor": [
          1.0,
          1.0,
          1.0,
          1.0
        ],
        "metallicFactor": 1.0,
        "roughnessFactor": 0.16666666666666666
      },
      "emissiveFactor": [
        0.0,
        0.0,
        0.0
      ],
      "alphaMode": "OPAQUE",
      "doubleSided": false
    },
    {
      "extensions": {
        "KHR_materials_anisotropy": {
          "anisotropyStrength": 0.16666666666666666
        }
      },
      "pbrMetallicRoughness": {
        "baseColorFactor": [
          1.0,
          1.0,
          1.0,
          1.0
        ],
        "metallicFactor": 1.0,
        "roughnessFactor": 0.16666666666666666
      },
      "emissiveFactor": [
        0.0,
        0.0,
        0.0
      ],
      "alphaMode": "OPAQUE",
      "doubleSided": false
    },
    {
      "extensions": {
        "KHR_materials_anisotropy": {
          "anisotropyStrength": 0.3333333333333333
        }
      },
      "pbrMetallicRoughness": {
        "baseColorFactor": [
          1.0,
          1.0,
          1.0,
          1.0
        ],
        "metallicFactor": 1.0,
        "roughnessFactor": 0.16666666666666666
      },
      "emissiveFactor": [
        0.0,
        0.0,
        0.0
      ],
      "alphaMode": "OPAQUE",
      "doubleSided": false
    },
    {
      "extensions": {
        "KHR_materials_anisotropy": {
          "anisotropyStrength": 0.5
        }
      },
      "pbrMetallicRoughness": {
        "baseColorFactor": [
          1.0,
          1.0,
          1.0,
          1.0
        ],
        "metallicFactor": 1.0,
        "roughnessFactor": 0.16666666666666666
      },
      "emissiveFactor": [
        0.0,
        0.0,
        0.0
      ],
      "alphaMode": "OPAQUE",
      "doubleSided": false
    },
    {
      "extensions": {
        "KHR_materials_anisotropy": {
          "anisotropyStrength": 0.6666666666666666
        }
      },
      "pbrMetallicRoughness": {
        "baseColorFactor": [
          1.0,
          1.0,
          1.0,
          1.0
        ],
        "metallicFactor": 1.0,
        "roughnessFactor": 0.16666666666666666
      },
      "emissiveFactor": [
        0.0,
        0.0,
        0.0
      ],
      "alphaMode": "OPAQUE",
      "doubleSided": false
    },
    {
      "extensions": {
        "KHR_materials_anisotropy": {
          "anisotropyStrength": 0.8333333333333334
        }
      },
      "pbrMetallicRoughness": {
        "baseColorFactor": [
          1.0,
          1.0,
          1.0,
          1.0
        ],
        "metallicFactor": 1.0,
        "roughnessFactor": 0.16666666666666666
      },
      "emissiveFactor": [
        0.0,
        0.0,
        0.0
      ],
      "alphaMode": "OPAQUE",
      "doubleSided": false
    },
    {
      "extensions": {
        "KHR_materials_anisotropy": {
          "anisotropyStrength": 1
        }
      },
      "pbrMetallicRoughness": {
        "baseColorFactor": [
          1.0,
          1.0,
          1.0,
          1.0
        ],
        "metallicFactor": 1.0,
        "roughnessFactor": 0.16666666666666666
      },
      "emissiveFactor": [
        0.0,
        0.0,
        0.0
      ],
      "alphaMode": "OPAQUE",
      "doubleSided": false
    },
    {
      "extensions": {
        "KHR_materials_anisotropy": {
          "anisotropyStrength": 0
        }
      },
      "pbrMetallicRoughness": {
        "baseColorFactor": [
          1.0,
          1.0,
          1.0,
          1.0
        ],
        "metallicFactor": 1.0,
        "roughnessFactor": 0.3333333333333333
      },
      "emissiveFactor": [
        0.0,
        0.0,
        0.0
      ],
      "alphaMode": "OPAQUE",
      "doubleSided": false
    },
    {
      "extensions": {
        "KHR_materials_anisotropy": {
          "anisotropyStrength": 0.16666666666666666
        }
      },
      "pbrMetallicRoughness": {
        "baseColorFactor": [
          1.0,
          1.0,
          1.0,
          1.0
        ],
        "metallicFactor": 1.0,
        "roughnessFactor": 0.3333333333333333
      },
      "emissiveFactor": [
        0.0,
        0.0,
        0.0
      ],
      "alphaMode": "OPAQUE",
      "doubleSided": false
    },
    {
      "extensions": {
        "KHR_materials_anisotropy": {
          "anisotropyStrength": 0.3333333333333333
        }
      },
      "pbrMetallicRoughness": {
        "baseColorFactor": [
          1.0,
          1.0,
          1.0,
          1.0
        ],
        "metallicFactor": 1.0,
        "roughnessFactor": 0.3333333333333333
      },
      "emissiveFactor": [
        0.0,
        0.0,
        0.0
      ],
      "alphaMode": "OPAQUE",
      "doubleSided": false
    },
    {
      "extensions": {
        "KHR_materials_anisotropy": {
          "anisotropyStrength": 0.5
        }
      },
      "pbrMetallicRoughness": {
        "baseColorFactor": [
          1.0,
          1.0,
          1.0,
          1.0
        ],
        "metallicFactor": 1.0,
        "roughnessFactor": 0.3333333333333333
      },
      "emissiveFactor": [
        0.0,
        0.0,
        0.0
      ],
      "alphaMode": "OPAQUE",
      "doubleSided": false
    },
    {
      "extensions": {
        "KHR_materials_anisotropy": {
          "anisotropyStrength": 0.6666666666666666
        }
      },
      "pbrMetallicRoughness": {
        "baseColorFactor": [
          1.0,
          1.0,
          1.0,
          1.0
        ],
        "metallicFactor": 1.0,
        "roughnessFactor": 0.3333333333333333
      },
      "emissiveFactor": [
        0.0,
        0.0,
        0.0
      ],
      "alphaMode": "OPAQUE",
      "doubleSided": false
    },
    {
      "extensions": {
        "KHR_materials_anisotropy": {
          "anisotropyStrength": 0.8333333333333334
        }
      },
      "pbrMetallicRoughness": {
        "baseColorFactor": [
          1.0,
          1.0,
          1.0,
          1.0
        ],
        "metallicFactor": 1.0,
        "roughnessFactor": 0.3333333333333333
      },
      "emissiveFactor": [
        0.0,
        0.0,
        0.0
      ],
      "alphaMode": "OPAQUE",
      "doubleSided": false
    },
    {
      "extensions": {
        "KHR_materials_anisotropy": {
          "anisotropyStrength": 1
        }
      },
      "pbrMetallicRoughness": {
        "baseColorFactor": [
          1.0,
          1.0,
          1.0,
          1.0
        ],
        "metallicFactor": 1.0,
        "roughnessFactor": 0.3333333333333333
      },
      "emissiveFactor": [
        0.0,
        0.0,
        0.0
      ],
      "alphaMode": "OPAQUE",
      "doubleSided": false
    },
    {
      "extensions": {
        "KHR_materials_anisotropy": {
          "anisotropyStrength": 0
        }
      },
      "pbrMetallicRoughness": {
        "baseColorFactor": [
          1.0,
          1.0,
          1.0,
          1.0
        ],
        "metallicFactor": 1.0,
        "roughnessFactor": 0.5
      },
      "emissiveFactor": [
        0.0,
        0.0,
        0.0
      ],
      "alphaMode": "OPAQUE",
      "doubleSided": false
    },
    {
      "extensions": {
        "KHR_materials_anisotropy": {
          "anisotropyStrength": 0.16666666666666666
        }
      },
      "pbrMetallicRoughness": {
        "baseColorFactor": [
          1.0,
          1.0,
          1.0,
          1.0
        ],
        "metallicFactor": 1.0,
        "roughnessFactor": 0.5
      },
      "emissiveFactor": [
        0.0,
        0.0,
        0.0
      ],
      "alphaMode": "OPAQUE",
      "doubleSided": false
    },
    {
      "extensions": {
        "KHR_materials_anisotropy": {
          "anisotropyStrength": 0.3333333333333333
        }
      },
      "pbrMetallicRoughness": {
        "baseColorFactor": [
          1.0,
          1.0,
          1.0,
          1.0
        ],
        "metallicFactor": 1.0,
        "roughnessFactor": 0.5
      },
      "emissiveFactor": [
        0.0,
        0.0,
        0.0
      ],
      "alphaMode": "OPAQUE",
      "doubleSided": false
    },
    {
      "extensions": {
        "KHR_materials_anisotropy": {
          "anisotropyStrength": 0.5
        }
      },
      "pbrMetallicRoughness": {
        "baseColorFactor": [
          1.0,
          1.0,
          1.0,
          1.0
        ],
        "metallicFactor": 1.0,
        "roughnessFactor": 0.5
      },
      "emissiveFactor": [
        0.0,
        0.0,
        0.0
      ],
      "alphaMode": "OPAQUE",
      "doubleSided": false
    },
    {
      "extensions": {
        "KHR_materials_anisotropy": {
          "anisotropyStrength": 0.6666666666666666
        }
      },
      "pbrMetallicRoughness": {
        "baseColorFactor": [
          1.0,
          1.0,
          1.0,
          1.0
        ],
        "metallicFactor": 1.0,
        "roughnessFactor": 0.5
      },
      "emissiveFactor": [
        0.0,
        0.0,
        0.0
      ],
      "alphaMode": "OPAQUE",
      "doubleSided": false
    },
    {
      "extensions": {
        "KHR_materials_anisotropy": {
          "anisotropyStrength": 0.8333333333333334
        }
      },
      "pbrMetallicRoughness": {
        "baseColorFactor": [
          1.0,
          1.0,
          1.0,
          1.0
        ],
        "metallicFactor": 1.0,
        "roughnessFactor": 0.5
      },
      "emissiveFactor": [
        0.0,
        0.0,
        0.0
      ],
      "alphaMode": "OPAQUE",
      "doubleSided": false
    },
    {
      "extensions": {
        "KHR_materials_anisotropy": {
          "anisotropyStrength": 1
        }
      },
      "pbrMetallicRoughness": {
        "baseColorFactor": [
          1.0,
          1.0,
          1.0,
          1.0
        ],
        "metallicFactor": 1.0,
        "roughnessFactor": 0.5
      },
      "emissiveFactor": [
        0.0,
        0.0,
        0.0
      ],
      "alphaMode": "OPAQUE",
      "doubleSided": false
    },
    {
      "extensions": {
        "KHR_materials_anisotropy": {
          "anisotropyStrength": 0
        }
      },
      "pbrMetallicRoughness": {
        "baseColorFactor": [
          1.0,
          1.0,
          1.0,
          1.0
        ],
        "metallicFactor": 1.0,
        "roughnessFactor": 0.6666666666666666
      },
      "emissiveFactor": [
        0.0,
        0.0,
        0.0
      ],
      "alphaMode": "OPAQUE",
      "doubleSided": false
    },
    {
      "extensions": {
        "KHR_materials_anisotropy": {
          "anisotropyStrength": 0.16666666666666666
        }
      },
      "pbrMetallicRoughness": {
        "baseColorFactor": [
          1.0,
          1.0,
          1.0,
          1.0
        ],
        "metallicFactor": 1.0,
        "roughnessFactor": 0.6666666666666666
      },
      "emissiveFactor": [
        0.0,
        0.0,
        0.0
      ],
      "alphaMode": "OPAQUE",
      "doubleSided": false
    },
    {
      "extensions": {
        "KHR_materials_anisotropy": {
          "anisotropyStrength": 0.3333333333333333
        }
      },
      "pbrMetallicRoughness": {
        "baseColorFactor": [
          1.0,
          1.0,
          1.0,
          1.0
        ],
        "metallicFactor": 1.0,
        "roughnessFactor": 0.6666666666666666
      },
      "emissiveFactor": [
        0.0,
        0.0,
        0.0
      ],
      "alphaMode": "OPAQUE",
      "doubleSided": false
    },
    {
      "extensions": {
        "KHR_materials_anisotropy": {
          "anisotropyStrength": 0.5
        }
      },
      "pbrMetallicRoughness": {
        "baseColorFactor": [
          1.0,
          1.0,
          1.0,
          1.0
        ],
        "metallicFactor": 1.0,
        "roughnessFactor": 0.6666666666666666
      },
      "emissiveFactor": [
        0.0,
        0.0,
        0.0
      ],
      "alphaMode": "OPAQUE",
      "doubleSided": false
    },
    {
      "extensions": {
        "KHR_materials_anisotropy": {
          "anisotropyStrength": 0.6666666666666666
        }
      },
      "pbrMetallicRoughness": {
        "baseColorFactor": [
          1.0,
          1.0,
          1.0,
          1.0
        ],
        "metallicFactor": 1.0,
        "roughnessFactor": 0.6666666666666666
      },
      "emissiveFactor": [
        0.0,
        0.0,
        0.0
      ],
      "alphaMode": "OPAQUE",
      "doubleSided": false
    },
    {
      "extensions": {
        "KHR_materials_anisotropy": {
          "anisotropyStrength": 0.8333333333333334
        }
      },
      "pbrMetallicRoughness": {
        "baseColorFactor": [
          1.0,
          1.0,
          1.0,
          1.0
        ],
        "metallicFactor": 1.0,
        "roughnessFactor": 0.6666666666666666
      },
      "emissiveFactor": [
        0.0,
        0.0,
        0.0
      ],
      "alphaMode": "OPAQUE",
      "doubleSided": false
    },
    {
      "extensions": {
        "KHR_materials_anisotropy": {
          "anisotropyStrength": 1
        }
      },
      "pbrMetallicRoughness": {
        "baseColorFactor": [
          1.0,
          1.0,
          1.0,
          1.0
        ],
        "metallicFactor": 1.0,
        "roughnessFactor": 0.6666666666666666
      },
      "emissiveFactor": [
        0.0,
        0.0,
        0.0
      ],
      "alphaMode": "OPAQUE",
      "doubleSided": false
    },
    {
      "extensions": {
        "KHR_materials_anisotropy": {
          "anisotropyStrength": 0
        }
      },
      "pbrMetallicRoughness": {
        "baseColorFactor": [
          1.0,
          1.0,
          1.0,
          1.0
        ],
        "metallicFactor": 1.0,
        "roughnessFactor": 0.8333333333333334
      },
      "emissiveFactor": [
        0.0,
        0.0,
        0.0
      ],
      "alphaMode": "OPAQUE",
      "doubleSided": false
    },
    {
      "extensions": {
        "KHR_materials_anisotropy": {
          "anisotropyStrength": 0.16666666666666666
        }
      },
      "pbrMetallicRoughness": {
        "baseColorFactor": [
          1.0,
          1.0,
          1.0,
          1.0
        ],
        "metallicFactor": 1.0,
        "roughnessFactor": 0.8333333333333334
      },
      "emissiveFactor": [
        0.0,
        0.0,
        0.0
      ],
      "alphaMode": "OPAQUE",
      "doubleSided": false
    },
    {
      "extensions": {
        "KHR_materials_anisotropy": {
          "anisotropyStrength": 0.3333333333333333
        }
      },
      "pbrMetallicRoughness": {
        "baseColorFactor": [
          1.0,
          1.0,
          1.0,
          1.0
        ],
        "metallicFactor": 1.0,
        "roughnessFactor": 0.8333333333333334
      },
      "emissiveFactor": [
        0.0,
        0.0,
        0.0
      ],
      "alphaMode": "OPAQUE",
      "doubleSided": false
    },
    {
      "extensions": {
        "KHR_materials_anisotropy": {
          "anisotropyStrength": 0.5
        }
      },
      "pbrMetallicRoughness": {
        "baseColorFactor": [
          1.0,
          1.0,
          1.0,
          1.0
        ],
        "metallicFactor": 1.0,
        "roughnessFactor": 0.8333333333333334
      },
      "emissiveFactor": [
        0.0,
        0.0,
        0.0
      ],
      "alphaMode": "OPAQUE",
      "doubleSided": false
    },
    {
      "extensions": {
        "KHR_materials_anisotropy": {
          "anisotropyStrength": 0.6666666666666666
        }
      },
      "pbrMetallicRoughness": {
        "baseColorFactor": [
          1.0,
          1.0,
          1.0,
          1.0
        ],
        "metallicFactor": 1.0,
        "roughnessFactor": 0.8333333333333334
      },
      "emissiveFactor": [
        0.0,
        0.0,
        0.0
      ],
      "alphaMode": "OPAQUE",
      "doubleSided": false
    },
    {
      "extensions": {
        "KHR_materials_anisotropy": {
          "anisotropyStrength": 0.8333333333333334
        }
      },
      "pbrMetallicRoughness": {
        "baseColorFactor": [
          1.0,
          1.0,
          1.0,
          1.0
        ],
        "metallicFactor": 1.0,
        "roughnessFactor": 0.8333333333333334
      },
      "emissiveFactor": [
        0.0,
        0.0,
        0.0
      ],
      "alphaMode": "OPAQUE",
      "doubleSided": false
    },
    {
      "extensions": {
        "KHR_materials_anisotropy": {
          "anisotropyStrength": 1
        }
      },
      "pbrMetallicRoughness": {
        "baseColorFactor": [
          1.0,
          1.0,
          1.0,
          1.0
        ],
        "metallicFactor": 1.0,
        "roughnessFactor": 0.8333333333333334
      },
      "emissiveFactor": [
        0.0,
        0.0,
        0.0
      ],
      "alphaMode": "OPAQUE",
      "doubleSided": false
    },
    {
      "extensions": {
        "KHR_materials_anisotropy": {
          "anisotropyStrength": 0
        }
      },
      "emissiveFactor": [
        0.0,
        0.0,
        0.0
      ],
      "alphaMode": "OPAQUE",
      "doubleSided": false
    },
    {
      "extensions": {
        "KHR_materials_anisotropy": {
          "anisotropyStrength": 0.16666666666666666
        }
      },
      "emissiveFactor": [
        0.0,
        0.0,
        0.0
      ],
      "alphaMode": "OPAQUE",
      "doubleSided": false
    },
    {
      "extensions": {
        "KHR_materials_anisotropy": {
          "anisotropyStrength": 0.3333333333333333
        }
      },
      "emissiveFactor": [
        0.0,
        0.0,
        0.0
      ],
      "alphaMode": "OPAQUE",
      "doubleSided": false
    },
    {
      "extensions": {
        "KHR_materials_anisotropy": {
          "anisotropyStrength": 0.5
        }
      },
      "emissiveFactor": [
        0.0,
        0.0,
        0.0
      ],
      "alphaMode": "OPAQUE",
      "doubleSided": false
    },
    {
      "extensions": {
        "KHR_materials_anisotropy": {
          "anisotropyStrength": 0.6666666666666666
        }
      },
      "emissiveFactor": [
        0.0,
        0.0,
        0.0
      ],
      "alphaMode": "OPAQUE",
      "doubleSided": false
    },
    {
      "extensions": {
        "KHR_materials_anisotropy": {
          "anisotropyStrength": 0.8333333333333334
        }
      },
      "emissiveFactor": [
        0.0,
        0.0,
        0.0
      ],
      "alphaMode": "OPAQUE",
      "doubleSided": false
    },
    {
      "extensions": {
        "KHR_materials_anisotropy": {
          "anisotropyStrength": 1
        }
      },
      "emissiveFactor": [
        0.0,
        0.0,
        0.0
      ],
      "alphaMode": "OPAQUE",
      "doubleSided": false
    },
    {
      "pbrMetallicRoughness": {
        "baseColorFactor": [
          1.0,
          1.0,
          1.0,
          1.0
        ],
        "metallicFactor": 0.0,
        "roughnessFactor": 0.8,
        "baseColorTexture": {
          "index": 0,
          "texCoord": 0
        }
      },
      "emissiveFactor": [
        0.0,
        0.0,
        0.0
      ],
      "alphaMode": "OPAQUE",
      "doubleSided": false,
      "name": "Label Mat"
    }
  ],
  "meshes": [
    {
      "primitives": [
        {
          "extensions": {
            "NG2_mesh_lod": {
              "levels": [
                {
                  "indices": 9,
                  "error": 0.003249
                },
                {
                  "indices": 10,
                  "error": 0.010045
                }
              ]
            }
          },
          "attributes": {
            "POSITION": 1,
            "NORMAL": 2,
            "TANGENT": 4,
            "TEXCOORD_0": 3
          },
          "indices": 0,
          "mode": 4,
          "material": 0
        }
      ]
    },
    {
      "primitives": [
        {
          "extensions": {
            "NG2_mesh_lod": {
              "levels": [
                {
                  "indices": 9,
                  "error": 0.003249
                },
                {
                  "indices": 10,
                  "error": 0.010045
                }
              ]
            }
          },
          "attributes": {
            "POSITION": 1,
            "NORMAL": 2,
            "TANGENT": 4,
            "TEXCOORD_0": 3
          },
          "indices": 0,
          "mode": 4,
          "material": 1
        }
      ]
    },
    {
      "primitives": [
        {
          "extensions": {
            "NG2_mesh_lod": {
              "levels": [
                {
                  "indices": 9,
                  "error": 0.003249
                },
                {
                  "indices": 10,
                  "error": 0.010045
                }
              ]
            }
          },
          "attributes": {
            "POSITION": 1,
            "NORMAL": 2,
            "TANGENT": 4,
            "TEXCOORD_0": 3
          },
          "indices": 0,
          "mode": 4,
          "material": 2
        }
      ]
    },
    {
      "primitives": [
        {
          "extensions": {
            "NG2_mesh_lod": {
              "levels": [
                {
                  "indices": 9,
                  "error": 0.003249
                },
                {
                  "indices": 10,
                  "error": 0.010045
                }
              ]
            }
          },
          "attributes": {
            "POSITION": 1,
            "NORMAL": 2,
            "TANGENT": 4,
            "TEXCOORD_0": 3
          },
          "indices": 0,
          "mode": 4,
          "material": 3
        }
      ]
    },
    {
      "primitives": [
        {
          "extensions": {
            "NG2_mesh_lod": {
              "levels": [
                {
                  "indices": 9,
                  "error": 0.003249
                },
                {
                  "indices": 10,
                  "error": 0.010045
                }
              ]
            }
          },
          "attributes": {
            "POSITION": 1,
            "NORMAL": 2,
            "TANGENT": 4,
            "TEXCOORD_0": 3
          },
          "indices": 0,
          "mode": 4,
          "material": 4
        }
      ]
    },
    {
      "primitives": [
        {
          "extensions": {
            "NG2_mesh_lod": {
              "levels": [
                {
                  "indices": 9,
                  "error": 0.003249
                },
                {
                  "indices": 10,
                  "error": 0.010045
                }
              ]
            }
          },
          "attributes": {
            "POSITION": 1,
            "NORMAL": 2,
            "TANGENT": 4,
            "TEXCOORD_0": 3
          },
          "indices": 0,
          "mode": 4,
          "material": 5
        }
      ]
    },
    {
      "primitives": [
        {
          "extensions": {
            "NG2_mesh_lod": {
              "levels": [
                {
                  "indices": 9,
                  "error": 0.003249
                },
                {
                  "indices": 10,
                  "error": 0.010045
                }
              ]
            }
          },
          "attributes": {
            "POSITION": 1,
            "NORMAL": 2,
            "TANGENT": 4,
            "TEXCOORD_0": 3
          },
          "indices": 0,
          "mode": 4,
          "material": 6
        }
      ]
    },
    {
      "primitives": [
        {
          "extensions": {
            "NG2_mesh_lod": {
              "levels": [
                {
                  "indices": 9,
                  "error": 0.003249
                },
                {
                  "indices": 10,
                  "error": 0.010045
                }
              ]
            }
          },
          "attributes": {
            "POSITION": 1,
            "NORMAL": 2,
            "TANGENT": 4,
            "TEXCOORD_0": 3
          },
          "indices": 0,
          "mode": 4,
          "material": 7
        }
      ]
    },
    {
      "primitives": [
        {
          "extensions": {
            "NG2_mesh_lod": {
              "levels": [
                {
                  "indices": 9,
                  "error": 0.003249
                },
                {
                  "indices": 10,
                  "error": 0.010045
                }
              ]
            }
          },
          "attributes": {
            "POSITION": 1,
            "NORMAL": 2,
            "TANGENT": 4,
            "TEXCOORD_0": 3
          },
          "indices": 0,
          "mode": 4,
          "material": 8
        }
      ]
    },
    {
      "primitives": [
        {
          "extensions": {
            "NG2_mesh_lod": {
              "levels": [
                {
                  "indices": 9,
                  "error": 0.003249
                },
                {
                  "indices": 10,
                  "error": 0.010045
                }
              ]
            }
          },
          "attributes": {
            "POSITION": 1,
            "NORMAL": 2,
            "TANGENT": 4,
            "TEXCOORD_0": 3
          },
          "indices": 0,
          "mode": 4,
          "material": 9
        }
      ]
    },
    {
      "primitives": [
        {
          "extensions": {
            "NG2_mesh_lod": {
              "levels": [
                {
                  "indices": 9,
                  "error": 0.003249
                },
                {
                  "indices": 10,
                  "error": 0.010045
                }
              ]
            }
          },
          "attributes": {
            "POSITION": 1,
            "NORMAL": 2,
            "TANGENT": 4,
            "TEXCOORD_0": 3
          },
          "indices": 0,
          "mode": 4,
          "material": 10
        }
      ]
    },
    {
      "primitives": [
        {
          "extensions": {
            "NG2_mesh_lod": {
              "levels": [
                {
                  "indices": 9,
                  "error": 0.003249
                },
                {
                  "indices": 10,
                  "error": 0.010045
                }
              ]
            }
          },
          "attributes": {
            "POSITION": 1,
            "NORMAL": 2,
            "TANGENT": 4,
            "TEXCOORD_0": 3
          },
          "indices": 0,
          "mode": 4,
          "material": 11
        }
      ]
    },
    {
      "primitives": [
        {
          "extensions": {
            "NG2_mesh_lod": {
              "levels": [
                {
                  "indices": 9,
                  "error": 0.003249
                },
                {
                  "indices": 10,
                  "error": 0.010045
                }
              ]
            }
          },
          "attributes": {
            "POSITION": 1,
            "NORMAL": 2,
            "TANGENT": 4,
            "TEXCOORD_0": 3
          },
          "indices": 0,
          "mode": 4,
          "material": 12
        }
      ]
    },
    {
      "primitives": [
        {
          "extensions": {
            "NG2_mesh_lod": {
              "levels": [
                {
                  "indices": 9,
                  "error": 0.003249
                },
                {
                  "indices": 10,
                  "error": 0.010045
                }
              ]
            }
          },
          "attributes": {
            "POSITION": 1,
            "NORMAL": 2,
            "TANGENT": 4,
            "TEXCOORD_0": 3
          },
          "indices": 0,
          "mode": 4,
          "material": 13
        }
      ]
    },
    {
      "primitives": [
        {
          "extensions": {
            "NG2_mesh_lod": {
              "levels": [
                {
                  "indices": 9,
                  "error": 0.003249
                },
                {
                  "indices": 10,
                  "error": 0.010045
                }
              ]
            }
          },
          "attributes": {
            "POSITION": 1,
            "NORMAL": 2,
            "TANGENT": 4,
            "TEXCOORD_0": 3
          },
          "indices": 0,
          "mode": 4,
          "material": 14
        }
      ]
    },
    {
      "primitives": [
        {
          "extensions": {
            "NG2_mesh_lod": {
              "levels": [
                {
                  "indices": 9,
                  "error": 0.003249
                },
                {
                  "indices": 10,
                  "error": 0.010045
                }
              ]
            }
          },
          "attributes": {
            "POSITION": 1,
            "NORMAL": 2,
            "TANGENT": 4,
            "TEXCOORD_0": 3
          },
          "indices": 0,
          "mode": 4,
          "material": 15
        }
      ]
    },
    {
      "primitives": [
        {
          "extensions": {
            "NG2_mesh_lod": {
              "levels": [
                {
                  "indices": 9,
                  "error": 0.003249
                },
                {
                  "indices": 10,
                  "error": 0.010045
                }
              ]
            }
          },
          "attributes": {
            "POSITION": 1,
            "NORMAL": 2,
            "TANGENT": 4,
            "TEXCOORD_0": 3
          },
          "indices": 0,
          "mode": 4,
          "material": 16
        }
      ]
    },
    {
      "primitives": [
        {
          "extensions": {
            "NG2_mesh_lod": {
              "levels": [
                {
                  "indices": 9,
                  "error": 0.003249
                },
                {
                  "indices": 10,
                  "error": 0.010045
                }
              ]
            }
          },
          "attributes": {
            "POSITION": 1,
            "NORMAL": 2,
            "TANGENT": 4,
            "TEXCOORD_0": 3
          },
          "indices": 0,
          "mode": 4,
          "material": 17
        }
      ]
    },
    {
      "primitives": [
        {
          "extensions": {
            "NG2_mesh_lod": {
              "levels": [
                {
                  "indices": 9,
                  "error": 0.003249
                },
                {
                  "indices": 10,
                  "error": 0.010045
                }
              ]
            }
          },
          "attributes": {
            "POSITION": 1,
            "NORMAL": 2,
            "TANGENT": 4,
            "TEXCOORD_0": 3
          },
          "indices": 0,
          "mode": 4,
          "material": 18
        }
      ]
    },
    {
      "primitives": [
        {
          "extensions": {
            "NG2_mesh_lod": {
              "levels": [
                {
                  "indices": 9,
                  "error": 0.003249
                },
                {
                  "indices": 10,
                  "error": 0.010045
                }
              ]
            }
          },
          "attributes": {
            "POSITION": 1,
            "NORMAL": 2,
            "TANGENT": 4,
            "TEXCOORD_0": 3
          },
          "indices": 0,
          "mode": 4,
          "material": 19
        }
      ]
    },
    {
      "primitives": [
        {
          "extensions": {
            "NG2_mesh_lod": {
              "levels": [
                {
                  "indices": 9,
                  "error": 0.003249
                },
                {
                  "indices": 10,
                  "error": 0.010045
                }
              ]
            }
          },
          "attributes": {
            "POSITION": 1,
            "NORMAL": 2,
            "TANGENT": 4,
            "TEXCOORD_0": 3
          },
          "indices": 0,
          "mode": 4,
          "material": 20
        }
      ]
    },
    {
      "primitives": [
        {
          "extensions": {
            "NG2_mesh_lod": {
              "levels": [
                {
                  "indices": 9,
                  "error": 0.003249
                },
                {
                  "indices": 10,
                  "error": 0.010045
                }
              ]
            }
          },
          "attributes": {
            "POSITION": 1,
            "NORMAL": 2,
            "TANGENT": 4,
            "TEXCOORD_0": 3
          },
          "indices": 0,
          "mode": 4,
          "material": 21
        }
      ]
    },
    {
      "primitives": [
        {
          "extensions": {
            "NG2_mesh_lod": {
              "levels": [
                {
                  "indices": 9,
                  "error": 0.003249
                },
                {
                  "indices": 10,
                  "error": 0.010045
                }
              ]
            }
          },
          "attributes": {
            "POSITION": 1,
            "NORMAL": 2,
            "TANGENT": 4,
            "TEXCOORD_0": 3
          },
          "indices": 0,
          "mode": 4,
          "material": 22
        }
      ]
    },
    {
      "primitives": [
        {
          "extensions": {
            "NG2_mesh_lod": {
              "levels": [
                {
                  "indices": 9,
                  "error": 0.003249
                },
                {
                  "indices": 10,
                  "error": 0.010045
                }
              ]
            }
          },
          "attributes": {
            "POSITION": 1,
            "NORMAL": 2,
            "TANGENT": 4,
            "TEXCOORD_0": 3
          },
          "indices": 0,
          "mode": 4,
          "material": 23
        }
      ]
    },
    {
      "primitives": [
        {
          "extensions": {
            "NG2_mesh_lod": {
              "levels": [
                {
                  "indices": 9,
                  "error": 0.003249
                },
                {
                  "indices": 10,
                  "error": 0.010045
                }
              ]
            }
          },
          "attributes": {
            "POSITION": 1,
            "NORMAL": 2,
            "TANGENT": 4,
            "TEXCOORD_0": 3
          },
          "indices": 0,
          "mode": 4,
          "material": 24
        }
      ]
    },
    {
      "primitives": [
        {
          "extensions": {
            "NG2_mesh_lod": {
              "levels": [
                {
                  "indices": 9,
                  "error": 0.003249
                },
                {
                  "indices": 10,
                  "error": 0.010045
                }
              ]
            }
          },
          "attributes": {
            "POSITION": 1,
            "NORMAL": 2,
            "TANGENT": 4,
            "TEXCOORD_0": 3
          },
          "indices": 0,
          "mode": 4,
          "material": 25
        }
      ]
    },
    {
      "primitives": [
        {
          "extensions": {
            "NG2_mesh_lod": {
              "levels": [
                {
                  "indices": 9,
                  "error": 0.003249
                },
                {
                  "indices": 10,
                  "error": 0.010045
                }
              ]
            }
          },
          "attributes": {
            "POSITION": 1,
            "NORMAL": 2,
            "TANGENT": 4,
            "TEXCOORD_0": 3
          },
          "indices": 0,
          "mode": 4,
          "material": 26
        }
      ]
    },
    {
      "primitives": [
        {
          "extensions": {
            "NG2_mesh_lod": {
              "levels": [
                {
                  "indices": 9,
                  "error": 0.003249
                },
                {
                  "indices": 10,
                  "error": 0.010045
                }
              ]
            }
          },
          "attributes": {
            "POSITION": 1,
            "NORMAL": 2,
            "TANGENT": 4,
            "TEXCOORD_0": 3
          },
          "indices": 0,
          "mode": 4,
          "material": 27
        }
      ]
    },
    {
      "primitives": [
        {
          "extensions": {
            "NG2_mesh_lod": {
              "levels": [
                {
                  "indices": 9,
                  "error": 0.003249
                },
                {
                  "indices": 10,
                  "error": 0.010045
                }
              ]
            }
          },
          "attributes": {
            "POSITION": 1,
            "NORMAL": 2,
            "TANGENT": 4,
            "TEXCOORD_0": 3
          },
          "indices": 0,
          "mode": 4,
          "material": 28
        }
      ]
    },
    {
      "primitives": [
        {
          "extensions": {
            "NG2_mesh_lod": {
              "levels": [
                {
                  "indices": 9,
                  "error": 0.003249
                },
                {
                  "indices": 10,
                  "error": 0.010045
                }
              ]
            }
          },
          "attributes": {
            "POSITION": 1,
            "NORMAL": 2,
            "TANGENT": 4,
            "TEXCOORD_0": 3
          },
          "indices": 0,
          "mode": 4,
          "material": 29
        }
      ]
    },
    {
      "primitives": [
        {
          "extensions": {
            "NG2_mesh_lod": {
              "levels": [
                {
                  "indices": 9,
                  "error": 0.003249
                },
                {
                  "indices": 10,
                  "error": 0.010045
                }
              ]
            }
          },
          "attributes": {
            "POSITION": 1,
            "NORMAL": 2,
            "TANGENT": 4,
            "TEXCOORD_0": 3
          },
          "indices": 0,
          "mode": 4,
          "material": 30
        }
      ]
    },
    {
      "primitives": [
        {
          "extensions": {
            "NG2_mesh_lod": {
              "levels": [
                {
                  "indices": 9,
                  "error": 0.003249
                },
                {
                  "indices": 10,
                  "error": 0.010045
                }
              ]
            }
          },
          "attributes": {
            "POSITION": 1,
            "NORMAL": 2,
            "TANGENT": 4,
            "TEXCOORD_0": 3
          },
          "indices": 0,
          "mode": 4,
          "material": 31
        }
      ]
    },
    {
      "primitives": [
        {
          "extensions": {
            "NG2_mesh_lod": {
              "levels": [
                {
                  "indices": 9,
                  "error": 0.003249
                },
                {
                  "indices": 10,
                  "error": 0.010045
                }
              ]
            }
          },
          "attributes": {
            "POSITION": 1,
            "NORMAL": 2,
            "TANGENT": 4,
            "TEXCOORD_0": 3
          },
          "indices": 0,
          "mode": 4,
          "material": 32
        }
      ]
    },
    {
      "primitives": [
        {
          "extensions": {
            "NG2_mesh_lod": {
              "levels": [
                {
                  "indices": 9,
                  "error": 0.003249
                },
                {
                  "indices": 10,
                  "error": 0.010045
                }
              ]
            }
          },
          "attributes": {
            "POSITION": 1,
            "NORMAL": 2,
            "TANGENT": 4,
            "TEXCOORD_0": 3
          },
          "indices": 0,
          "mode": 4,
          "material": 33
        }
      ]
    },
    {
      "primitives": [
        {
          "extensions": {
            "NG2_mesh_lod": {
              "levels": [
                {
                  "indices": 9,
                  "error": 0.003249
                },
                {
                  "indices": 10,
                  "error": 0.010045
                }
              ]
            }
          },
          "attributes": {
            "POSITION": 1,
            "NORMAL": 2,
            "TANGENT": 4,
            "TEXCOORD_0": 3
          },
          "indices": 0,
          "mode": 4,
          "material": 34
        }
      ]
    },
    {
      "primitives": [
        {
          "extensions": {
            "NG2_mesh_lod": {
              "levels": [
                {
                  "indices": 9,
                  "error": 0.003249
                },
                {
                  "indices": 10,
                  "error": 0.010045
                }
              ]
            }
          },
          "attributes": {
            "POSITION": 1,
            "NORMAL": 2,
            "TANGENT": 4,
            "TEXCOORD_0": 3
          },
          "indices": 0,
          "mode": 4,
          "material": 35
        }
      ]
    },
    {
      "primitives": [
        {
          "extensions": {
            "NG2_mesh_lod": {
              "levels": [
                {
                  "indices": 9,
                  "error": 0.003249
                },
                {
                  "indices": 10,
                  "error": 0.010045
                }
              ]
            }
          },
          "attributes": {
            "POSITION": 1,
            "NORMAL": 2,
            "TANGENT": 4,
            "TEXCOORD_0": 3
          },
          "indices": 0,
          "mode": 4,
          "material": 36
        }
      ]
    },
    {
      "primitives": [
        {
          "extensions": {
            "NG2_mesh_lod": {
              "levels": [
                {
                  "indices": 9,
                  "error": 0.003249
                },
                {
                  "indices": 10,
                  "error": 0.010045
                }
              ]
            }
          },
          "attributes": {
            "POSITION": 1,
            "NORMAL": 2,
            "TANGENT": 4,
            "TEXCOORD_0": 3
          },
          "indices": 0,
          "mode": 4,
          "material": 37
        }
      ]
    },
    {
      "primitives": [
        {
          "extensions": {
            "NG2_mesh_lod": {
              "levels": [
                {
                  "indices": 9,
                  "error": 0.003249
                },
                {
                  "indices": 10,
                  "error": 0.010045
                }
              ]
            }
          },
          "attributes": {
            "POSITION": 1,
            "NORMAL": 2,
            "TANGENT": 4,
            "TEXCOORD_0": 3
          },
          "indices": 0,
          "mode": 4,
          "material": 38
        }
      ]
    },
    {
      "primitives": [
        {
          "extensions": {
            "NG2_mesh_lod": {
              "levels": [
                {
                  "indices": 9,
                  "error": 0.003249
                },
                {
                  "indices": 10,
                  "error": 0.010045
                }
              ]
            }
          },
          "attributes": {
            "POSITION": 1,
            "NORMAL": 2,
            "TANGENT": 4,
            "TEXCOORD_0": 3
          },
          "indices": 0,
          "mode": 4,
          "material": 39
        }
      ]
    },
    {
      "primitives": [
        {
          "extensions": {
            "NG2_mesh_lod": {
              "levels": [
                {
                  "indices": 9,
                  "error": 0.003249
                },
                {
                  "indices": 10,
                  "error": 0.010045
                }
              ]
            }
          },
          "attributes": {
            "POSITION": 1,
            "NORMAL": 2,
            "TANGENT": 4,
            "TEXCOORD_0": 3
          },
          "indices": 0,
          "mode": 4,
          "material": 40
        }
      ]
    },
    {
      "primitives": [
        {
          "extensions": {
            "NG2_mesh_lod": {
              "levels": [
                {
                  "indices": 9,
                  "error": 0.003249
                },
                {
                  "indices": 10,
                  "error": 0.010045
                }
              ]
            }
          },
          "attributes": {
            "POSITION": 1,
            "NORMAL": 2,
            "TANGENT": 4,
            "TEXCOORD_0": 3
          },
          "indices": 0,
          "mode": 4,
          "material": 41
        }
      ]
    },
    {
      "primitives": [
        {
          "extensions": {
            "NG2_mesh_lod": {
              "levels": [
                {
                  "indices": 9,
                  "error": 0.003249
                },
                {
                  "indices": 10,
                  "error": 0.010045
                }
              ]
            }
          },
          "attributes": {
            "POSITION": 1,
            "NORMAL": 2,
            "TANGENT": 4,
            "TEXCOORD_0": 3
          },
          "indices": 0,
          "mode": 4,
          "material": 42
        }
      ]
    },
    {
      "primitives": [
        {
          "extensions": {
            "NG2_mesh_lod": {
              "levels": [
                {
                  "indices": 9,
                  "error": 0.003249
                },
                {
                  "indices": 10,
                  "error": 0.010045
                }
              ]
            }
          },
          "attributes": {
            "POSITION": 1,
            "NORMAL": 2,
            "TANGENT": 4,
            "TEXCOORD_0": 3
          },
          "indices": 0,
          "mode": 4,
          "material": 43
        }
      ]
    },
    {
      "primitives": [
        {
          "extensions": {
            "NG2_mesh_lod": {
              "levels": [
                {
                  "indices": 9,
                  "error": 0.003249
                },
                {
                  "indices": 10,
                  "error": 0.010045
                }
              ]
            }
          },
          "attributes": {
            "POSITION": 1,
            "NORMAL": 2,
            "TANGENT": 4,
            "TEXCOORD_0": 3
          },
          "indices": 0,
          "mode": 4,
          "material": 44
        }
      ]
    },
    {
      "primitives": [
        {
          "extensions": {
            "NG2_mesh_lod": {
              "levels": [
                {
                  "indices": 9,
                  "error": 0.003249
                },
                {
                  "indices": 10,
                  "error": 0.010045
                }
              ]
            }
          },
          "attributes": {
            "POSITION": 1,
            "NORMAL": 2,
            "TANGENT": 4,
            "TEXCOORD_0": 3
          },
          "indices": 0,
          "mode": 4,
          "material": 45
        }
      ]
    },
    {
      "primitives": [
        {
          "extensions": {
            "NG2_mesh_lod": {
              "levels": [
                {
                  "indices": 9,
                  "error": 0.003249
                },
                {
                  "indices": 10,
                  "error": 0.010045
                }
              ]
            }
          },
          "attributes": {
            "POSITION": 1,
            "NORMAL": 2,
            "TANGENT": 4,
            "TEXCOORD_0": 3
          },
          "indices": 0,
          "mode": 4,
          "material": 46
        }
      ]
    },
    {
      "primitives": [
        {
          "extensions": {
            "NG2_mesh_lod": {
              "levels": [
                {
                  "indices": 9,
                  "error": 0.003249
                },
                {
                  "indices": 10,
                  "error": 0.010045
                }
              ]
            }
          },
          "attributes": {
            "POSITION": 1,
            "NORMAL": 2,
            "TANGENT": 4,
            "TEXCOORD_0": 3
          },
          "indices": 0,
          "mode": 4,
          "material": 47
        }
      ]
    },
    {
      "primitives": [
        {
          "extensions": {
            "NG2_mesh_lod": {
              "levels": [
                {
                  "indices": 9,
                  "error": 0.003249
                },
                {
                  "indices": 10,
                  "error": 0.010045
                }
              ]
            }
          },
          "attributes": {
            "POSITION": 1,
            "NORMAL": 2,
            "TANGENT": 4,
            "TEXCOORD_0": 3
          },
          "indices": 0,
          "mode": 4,
          "material": 48
        }
      ]
    },
    {
      "primitives": [
        {
          "extensions": {
            "NG2_mesh_lod": {
              "levels": [
                {
                  "indices": 11,
                  "error": 0.341683
                }
              ]
            }
          },
          "attributes": {
            "POSITION": 5,
            "NORMAL": 6,
            "TEXCOORD_0": 7
          },
          "indices": 8,
          "mode": 4,
          "material": 49
        }
      ],
      "name": "Label Mesh"
    }
  ],
  "nodes": [
    {
      "mesh": 0,
      "translation": [
        -3.0,
        0.0,
        0.0
      ]
    },
    {
      "mesh": 1,
      "translation": [
        -3.0,
        1.0,
        0.0
      ]
    },
    {
      "mesh": 2,
      "translation": [
        -3.0,
        2.0,
        0.0
      ]
    },
    {
      "mesh": 3,
      "translation": [
        -3.0,
        3.0,
        0.0
      ]
    },
    {
      "mesh": 4,
      "translation": [
        -3.0,
        4.0,
        0.0
      ]
    },
    {
      "mesh": 5,
      "translation": [
        -3.0,
        5.0,
        0.0
      ]
    },
    {
      "mesh": 6,
      "translation": [
        -3.0,
        6.0,
        0.0
      ]
    },
    {
      "mesh": 7,
      "translation": [
        -2.0,
        0.0,
        0.0
      ]
    },
    {
      "mesh": 8,
      "translation": [
        -2.0,
        1.0,
        0.0
      ]
    },
    {
      "mesh": 9,
      "translation": [
        -2.0,
        2.0,
        0.0
      ]
    },
    {
      "mesh": 10,
      "translation": [
        -2.0,
        3.0,
        0.0
      ]
    },
    {
      "mesh": 11,
      "translation": [
        -2.0,
        4.0,
        0.0
      ]
    },
    {
      "mesh": 12,
      "translation": [
        -2.0,
        5.0,
        0.0
      ]
    },
    {
      "mesh": 13,
      "translation": [
        -2.0,
        6.0,
        0.0
      ]
    },
    {
      "mesh": 14,
      "translation": [
        -1.0,
        0.0,
        0.0
      ]
    },
    {
      "mesh": 15,
      "translation": [
        -1.0,
        1.0,
        0.0
      ]
    },
    {
      "mesh": 16,
      "translation": [
        -1.0,
        2.0,
        0.0
      ]
    },
    {
      "mesh": 17,
      "translation": [
        -1.0,
        3.0,
        0.0
      ]
    },
    {
      "mesh": 18,
      "translation": [
        -1.0,
        4.0,
        0.0
      ]
    },
    {
      "mesh": 19,
      "translation": [
        -1.0,
        5.0,
        0.0
      ]
    },
    {
      "mesh": 20,
      "translation": [
        -1.0,
        6.0,
        0.0
      ]
    },
    {
      "mesh": 21
    },
    {
      "mesh": 22,
      "translation": [
        0.0,
        1.0,
        0.0
      ]
    },
    {
      "mesh": 23,
      "translation": [
        0.0,
        2.0,
        0.0
      ]
    },
    {
      "mesh": 24,
      "translation": [
        0.0,
        3.0,
        0.0
      ]
    },
    {
      "mesh": 25,
      "translation": [
        0.0,
        4.0,
        0.0
      ]
    },
    {
      "mesh": 26,
      "translation": [
        0.0,
        5.0,
        0.0
      ]
    },
    {
      "mesh": 27,
      "translation": [
        0.0,
        6.0,
        0.0
      ]
    },
    {
      "mesh": 28,
      "translation": [
        1.0,
        0.0,
        0.0
      ]
    },
    {
      "mesh": 29,
      "translation": [
        1.0,
        1.0,
        0.0
      ]
    },
    {
      "mesh": 30,
      "translation": [
        1.0,
        2.0,
        0.0
      ]
    },
    {
      "mesh": 31,
      "translation": [
        1.0,
        3.0,
        0.0
      ]
    },
    {
      "mesh": 32,
      "translation": [
        1.0,
        4.0,
        0.0
      ]
    },
    {
      "mesh": 33,
      "translation": [
        1.0,
        5.0,
        0.0
      ]
    },
    {
      "mesh": 34,
      "translation": [
        1.0,
        6.0,
        0.0
      ]
    },
    {
      "mesh": 35,
      "translation": [
        2.0,
        0.0,
        0.0
      ]
    },
    {
      "mesh": 36,
      "translation": [
        2.0,
        1.0,
        0.0
      ]
    },
    {
      "mesh": 37,
      "translation": [
        2.0,
        2.0,
        0.0
      ]
    },
    {
      "mesh": 38,
      "translation": [
        2.0,
        3.0,
        0.0
      ]
    },
    {
      "mesh": 39,
      "translation": [
        2.0,
        4.0,
        0.0
      ]
    },
    {
      "mesh": 40,
      "translation": [
        2.0,
        5.0,
        0.0
      ]
    },
    {
      "mesh": 41,
      "translation": [
        2.0,
        6.0,
        0.0
      ]
    },
    {
      "mesh": 42,
      "translation": [
        3.0,
        0.0,
        0.0
      ]
    },
    {
      "mesh": 43,
      "translation": [
        3.0,
        1.0,
        0.0
      ]
    },
    {
      "mesh": 44,
      "translation": [
        3.0,
        2.0,
        0.0
      ]
    },
    {
      "mesh": 45,
      "translation": [
        3.0,
        3.0,
        0.0
      ]
    },
    {
      "mesh": 46,
      "translation": [
        3.0,
        4.0,
        0.0
      ]
    },
    {
      "mesh": 47,
      "translation": [
        3.0,
        5.0,
        0.0
      ]
    },
    {
      "mesh": 48,
      "translation": [
        3.0,
        6.0,
        0.0
      ]
    },
    {
      "mesh": 49,
      "name": "Labels"
    },
    {
      "children": [
        0,
        1,
        2,
        3,
        4,
        5,
        6,
        7,
        8,
        9,
        10,
        11,
        12,
        13,
        14,
        15,
        16,
        17,
        18,
        19,
        20,
        21,
        22,
        23,
        24,
        25,
        26,
        27,
        28,
        29,
        30,
        31,
        32,
        33,
        34,
        35,
        36,
        37,
        38,
        39,
        40,
        41,
        42,
        43,
        44,
        45,
        46,
        47,
        48,
        49
      ]
    }
  ],
  "samplers": [
    {
      "magFilter": 9729,
      "minFilter": 9987,
      "wrapS": 10497,
      "wrapT": 10497
    }
  ],
  "scene": 0,
  "scenes": [
    {
      "nodes": [
        50
      ]
    }
  ],
  "textures": [
    {
      "sampler": 0,
      "source": 0
    }
  ]
}