{
  "extensions": {
    "KHR_lights_punctual": {
      "lights": [
        {
          "color": [
            1.0,
            1.0,
            1.0
          ],
          "intensity": 1.0,
          "name": "DirectLight",
          "type": "directional"
        }
      ]
    }
  },
  "accessors": [
    {
      "bufferView": 79,
      "byteOffset": 0,
      "componentType": 5125,
      "normalized": false,
      "count": 6,
      "type": "SCALAR"
    },
    {
      "bufferView": 0,
      "byteOffset": 0,
      "componentType": 5126,
      "normalized": false,
      "count": 4,
      "type": "VEC3",
      "max": [
        0.5,
        0.5,
        0.0
      ],
      "min": [
        -0.5,
        -0.5,
        0.0
      ]
    },
    {
      "bufferView": 1,
      "byteOffset": 0,
      "componentType": 5126,
      "normalized": false,
      "count": 4,
      "type": "VEC3"
    },
    {
      "bufferView": 80,
      "byteOffset": 0,
      "componentType": 5125,
      "normalized": false,
      "count": 1965,
      "type": "SCALAR"
    },
    {
      "bufferView": 2,
      "byteOffset": 0,
      "componentType": 5126,
      "normalized": false,
      "count": 721,
      "type": "VEC3",
      "max": [
        2.4705770015716553,
        0.09780000150203705,
        0.0
      ],
      "min": [
        -2.4705772399902344,
        -0.1518000066280365,
        0.0
      ]
    },
    {
      "bufferView": 3,
      "byteOffset": 0,
      "componentType": 5126,
      "normalized": false,
      "count": 721,
      "type": "VEC3"
    },
    {
      "bufferView": 81,
      "byteOffset": 0,
      "componentType": 5125,
      "normalized": false,
      "count": 5580,
      "type": "SCALAR"
    },
    {
      "bufferView": 4,
      "byteOffset": 0,
      "componentType": 5126,
      "normalized": false,
      "count": 2052,
      "type": "VEC3",
      "max": [
        0.0,
        0.09780000150203705,
        0.0
      ],
      "min": [
        -2.1453003883361816,
        -3.6466498374938965,
        0.0
      ]
    },
    {
      "bufferView": 5,
      "byteOffset": 0,
      "componentType": 5126,
      "normalized": false,
      "count": 2052,
      "type": "VEC3"
    },
    {
      "bufferView": 82,
      "byteOffset": 0,
      "componentType": 5125,
      "normalized": false,
      "count": 6,
      "type": "SCALAR"
    },
    {
      "bufferView": 6,
      "byteOffset": 0,
      "componentType": 5126,
      "normalized": false,
      "count": 4,
      "type": "VEC3",
      "max": [
        0.5,
        0.5,
        0.0
      ],
      "min": [
        -0.5,
        -0.5,
        0.0
      ]
    },
    {
      "bufferView": 7,
      "byteOffset": 0,
      "componentType": 5126,
      "normalized": false,
      "count": 4,
      "type": "VEC3"
    },
    {
      "bufferView": 83,
      "byteOffset": 0,
      "componentType": 5125,
      "normalized": false,
      "count": 6,
      "type": "SCALAR"
    },
    {
      "bufferView": 8,
      "byteOffset": 0,
      "componentType": 5126,
      "normalized": false,
      "count": 4,
      "type": "VEC3",
      "max": [
        0.5,
        0.5,
        0.0
      ],
      "min": [
        -0.5,
        -0.5,
        0.0
      ]
    },
    {
      "bufferView": 9,
      "byteOffset": 0,
      "componentType": 5126,
      "normalized": false,
      "count": 4,
      "type": "VEC3"
    },
    {
      "bufferView": 84,
      "byteOffset": 0,
      "componentType": 5125,
      "normalized": false,
      "count": 6,
      "type": "SCALAR"
    },
    {
      "bufferView": 10,
      "byteOffset": 0,
      "componentType": 5126,
      "normalized": false,
      "count": 4,
      "type": "VEC3",
      "max": [
        0.5,
        0.5,
        0.0
      ],
      "min": [
        -0.5,
        -0.5,
        0.0
      ]
    },
    {
      "bufferView": 11,
      "byteOffset": 0,
      "componentType": 5126,
      "normalized": false,
      "count": 4,
      "type": "VEC3"
    },
    {
      "bufferView": 85,
      "byteOffset": 0,
      "componentType": 5125,
      "normalized": false,
      "count": 6,
      "type": "SCALAR"
    },
    {
      "bufferView": 12,
      "byteOffset": 0,
      "componentType": 5126,
      "normalized": false,
      "count": 4,
      "type": "VEC3",
      "max": [
        0.5,
        0.5,
        0.0
      ],
      "min": [
        -0.5,
        -0.5,
        0.0
      ]
    },
    {
      "bufferView": 13,
      "byteOffset": 0,
      "componentType": 5126,
      "normalized": false,
      "count": 4,
      "type": "VEC3"
    },
    {
      "bufferView": 86,
      "byteOffset": 0,
      "componentType": 5125,
      "normalized": false,
      "count": 6,
      "type": "SCALAR"
    },
    {
      "bufferView": 14,
      "byteOffset": 0,
      "componentType": 5126,
      "normalized": false,
      "count": 4,
      "type": "VEC3",
      "max": [
        0.5,
        0.5,
        0.0
      ],
      "min": [
        -0.5,
        -0.5,
        0.0
      ]
    },
    {
      "bufferView": 15,
      "byteOffset": 0,
      "componentType": 5126,
      "normalized": false,
      "count": 4,
      "type": "VEC3"
    },
    {
      "bufferView": 87,
      "byteOffset": 0,
      "componentType": 5125,
      "normalized": false,
      "count": 6,
      "type": "SCALAR"
    },
    {
      "bufferView": 16,
      "byteOffset": 0,
      "componentType": 5126,
      "normalized": false,
      "count": 4,
      "type": "VEC3",
      "max": [
        0.5,
        0.5,
        0.0
      ],
      "min": [
        -0.5,
        -0.5,
        0.0
      ]
    },
    {
      "bufferView": 17,
      "byteOffset": 0,
      "componentType": 5126,
      "normalized": false,
      "count": 4,
      "type": "VEC3"
    },
    {
      "bufferView": 88,
      "byteOffset": 0,
      "componentType": 5125,
      "normalized": false,
      "count": 6,
      "type": "SCALAR"
    },
    {
      "bufferView": 18,
      "byteOffset": 0,
      "componentType": 5126,
      "normalized": false,
      "count": 4,
      "type": "VEC3",
      "max": [
        0.5,
        0.5,
        0.0
      ],
      "min": [
        -0.5,
        -0.5,
        0.0
      ]
    },
    {
      "bufferView": 19,
      "byteOffset": 0,
      "componentType": 5126,
      "normalized": false,
      "count": 4,
      "type": "VEC3"
    },
    {
      "bufferView": 89,
      "byteOffset": 0,
      "componentType": 5125,
      "normalized": false,
      "count": 6,
      "type": "SCALAR"
    },
    {
      "bufferView": 20,
      "byteOffset": 0,
      "componentType": 5126,
      "normalized": false,
      "count": 4,
      "type": "VEC3",
      "max": [
        0.5,
        0.5,
        0.0
      ],
      "min": [
        -0.5,
        -0.5,
        0.0
      ]
    },
    {
      "bufferView": 21,
      "byteOffset": 0,
      "componentType": 5126,
      "normalized": false,
      "count": 4,
      "type": "VEC3"
    },
    {
      "bufferView": 90,
      "byteOffset": 0,
      "componentType": 5125,
      "normalized": false,
      "count": 6,
      "type": "SCALAR"
    },
    {
      "bufferView": 22,
      "byteOffset": 0,
      "componentType": 5126,
      "normalized": false,
      "count": 4,
      "type": "VEC3",
      "max": [
        0.5,
        0.5,
        0.0
      ],
      "min": [
        -0.5,
        -0.5,
        0.0
      ]
    },
    {
      "bufferView": 23,
      "byteOffset": 0,
      "componentType": 5126,
      "normalized": false,
      "count": 4,
      "type": "VEC3"
    },
    {
      "bufferView": 91,
      "byteOffset": 0,
      "componentType": 5125,
      "normalized": false,
      "count": 6,
      "type": "SCALAR"
    },
    {
      "bufferView": 24,
      "byteOffset": 0,
      "componentType": 5126,
      "normalized": false,
      "count": 4,
      "type": "VEC3",
      "max": [
        0.5,
        0.5,
        0.0
      ],
      "min": [
        -0.5,
        -0.5,
        0.0
      ]
    },
    {
      "bufferView": 25,
      "byteOffset": 0,
      "componentType": 5126,
      "normalized": false,
      "count": 4,
      "type": "VEC3"
    },
    {
      "bufferView": 26,
      "byteOffset": 0,
      "componentType": 5126,
      "normalized": false,
      "count": 4,
      "type": "VEC2",
      "max": [
        1.0,
        1.0
      ],
      "min": [
        0.0,
        0.0
      ]
    },
    {
      "bufferView": 92,
      "byteOffset": 0,
      "componentType": 5125,
      "normalized": false,
      "count": 6,
      "type": "SCALAR"
    },
    {
      "bufferView": 27,
      "byteOffset": 0,
      "componentType": 5126,
      "normalized": false,
      "count": 4,
      "type": "VEC3",
      "max": [
        0.5,
        0.5,
        0.0
      ],
      "min": [
        -0.5,
        -0.5,
        0.0
      ]
    },
    {
      "bufferView": 28,
      "byteOffset": 0,
      "componentType": 5126,
      "normalized": false,
      "count": 4,
      "type": "VEC3"
    },
    {
      "bufferView": 29,
      "byteOffset": 0,
      "componentType": 5126,
      "normalized": false,
      "count": 4,
      "type": "VEC2",
      "max": [
        1.0,
        1.0
      ],
      "min": [
        0.0,
        0.0
      ]
    },
    {
      "bufferView": 93,
      "byteOffset": 0,
      "componentType": 5125,
      "normalized": false,
      "count": 6,
      "type": "SCALAR"
    },
    {
      "bufferView": 30,
      "byteOffset": 0,
      "componentType": 5126,
      "normalized": false,
      "count": 4,
      "type": "VEC3",
      "max": [
        0.5,
        0.5,
        0.0
      ],
      "min": [
        -0.5,
        -0.5,
        0.0
      ]
    },
    {
      "bufferView": 31,
      "byteOffset": 0,
      "componentType": 5126,
      "normalized": false,
      "count": 4,
      "type": "VEC3"
    },
    {
      "bufferView": 32,
      "byteOffset": 0,
      "componentType": 5126,
      "normalized": false,
      "count": 4,
      "type": "VEC2",
      "max": [
        1.0,
        1.0
      ],
      "min": [
        0.0,
        0.0
      ]
    },
    {
      "bufferView": 94,
      "byteOffset": 0,
      "componentType": 5125,
      "normalized": false,
      "count": 6,
      "type": "SCALAR"
    },
    {
      "bufferView": 33,
      "byteOffset": 0,
      "componentType": 5126,
      "normalized": false,
      "count": 4,
      "type": "VEC3",
      "max": [
        0.5,
        0.5,
        0.0
      ],
      "min": [
        -0.5,
        -0.5,
        0.0
      ]
    },
    {
      "bufferView": 34,
      "byteOffset": 0,
      "componentType": 5126,
      "normalized": false,
      "count": 4,
      "type": "VEC3"
    },
    {
      "bufferView": 35,
      "byteOffset": 0,
      "componentType": 5126,
      "normalized": false,
      "count": 4,
      "type": "VEC2",
      "max": [
        1.0,
        1.0
      ],
      "min": [
        0.0,
        0.0
      ]
    },
    {
      "bufferView": 95,
      "byteOffset": 0,
      "componentType": 5125,
      "normalized": false,
      "count": 6,
      "type": "SCALAR"
    },
    {
      "bufferView": 36,
      "byteOffset": 0,
      "componentType": 5126,
      "normalized": false,
      "count": 4,
      "type": "VEC3",
      "max": [
        0.5,
        0.5,
        0.0
      ],
      "min": [
        -0.5,
        -0.5,
        0.0
      ]
    },
    {
      "bufferView": 37,
      "byteOffset": 0,
      "componentType": 5126,
      "normalized": false,
      "count": 4,
      "type": "VEC3"
    },
    {
      "bufferView": 38,
      "byteOffset": 0,
      "componentType": 5126,
      "normalized": false,
      "count": 4,
      "type": "VEC2",
      "max": [
        1.0,
        1.0
      ],
      "min": [
        0.0,
        0.0
      ]
    },
    {
      "bufferView": 96,
      "byteOffset": 0,
      "componentType": 5125,
      "normalized": false,
      "count": 6,
      "type": "SCALAR"
    },
    {
      "bufferView": 39,
      "byteOffset": 0,
      "componentType": 5126,
      "normalized": false,
      "count": 4,
      "type": "VEC3",
      "max": [
        0.5,
        0.5,
        0.0
      ],
      "min": [
        -0.5,
        -0.5,
        0.0
      ]
    },
    {
      "bufferView": 40,
      "byteOffset": 0,
      "componentType": 5126,
      "normalized": false,
      "count": 4,
      "type": "VEC3"
    },
    {
      "bufferView": 41,
      "byteOffset": 0,
      "componentType": 5126,
      "normalized": false,
      "count": 4,
      "type": "VEC2",
      "max": [
        1.0,
        1.0
      ],
      "min": [
        0.0,
        0.0
      ]
    },
    {
      "bufferView": 97,
      "byteOffset": 0,
      "componentType": 5125,
      "normalized": false,
      "count": 6,
      "type": "SCALAR"
    },
    {
      "bufferView": 42,
      "byteOffset": 0,
      "componentType": 5126,
      "normalized": false,
      "count": 4,
      "type": "VEC3",
      "max": [
        0.5,
        0.5,
        0.0
      ],
      "min": [
        -0.5,
        -0.5,
        0.0
      ]
    },
    {
      "bufferView": 43,
      "byteOffset": 0,
      "componentType": 5126,
      "normalized": false,
      "count": 4,
      "type": "VEC3"
    },
    {
      "bufferView": 44,
      "byteOffset": 0,
      "componentType": 5126,
      "normalized": false,
      "count": 4,
      "type": "VEC2",
      "max": [
        1.0,
        1.0
      ],
      "min": [
        0.0,
        0.0
      ]
    },
    {
      "bufferView": 98,
      "byteOffset": 0,
      "componentType": 5125,
      "normalized": false,
      "count": 6,
      "type": "SCALAR"
    },
    {
      "bufferView": 45,
      "byteOffset": 0,
      "componentType": 5126,
      "normalized": false,
      "count": 4,
      "type": "VEC3",
      "max": [
        0.5,
        0.5,
        0.0
      ],
      "min": [
        -0.5,
        -0.5,
        0.0
      ]
    },
    {
      "bufferView": 46,
      "byteOffset": 0,
      "componentType": 5126,
      "normalized": false,
      "count": 4,
      "type": "VEC3"
    },
    {
      "bufferView": 47,
      "byteOffset": 0,
      "componentType": 5126,
      "normalized": false,
      "count": 4,
      "type": "VEC2",
      "max": [
        1.0,
        1.0
      ],
      "min": [
        0.0,
        0.0
      ]
    },
    {
      "bufferView": 99,
      "byteOffset": 0,
      "componentType": 5125,
      "normalized": false,
      "count": 6,
      "type": "SCALAR"
    },
    {
      "bufferView": 48,
      "byteOffset": 0,
      "componentType": 5126,
      "normalized": false,
      "count": 4,
      "type": "VEC3",
      "max": [
        0.5,
        0.5,
        0.0
      ],
      "min": [
        -0.5,
        -0.5,
        0.0
      ]
    },
    {
      "bufferView": 49,
      "byteOffset": 0,
      "componentType": 5126,
      "normalized": false,
      "count": 4,
      "type": "VEC3"
    },
    {
      "bufferView": 50,
      "byteOffset": 0,
      "componentType": 5126,
      "normalized": false,
      "count": 4,
      "type": "VEC2",
      "max": [
        1.0,
        1.0
      ],
      "min": [
        0.0,
        0.0
      ]
    },
    {
      "bufferView": 100,
      "byteOffset": 0,
      "componentType": 5125,
      "normalized": false,
      "count": 6,
      "type": "SCALAR"
    },
    {
      "bufferView": 51,
      "byteOffset": 0,
      "componentType": 5126,
      "normalized": false,
      "count": 4,
      "type": "VEC3",
      "max": [
        0.5,
        0.5,
        0.0
      ],
      "min": [
        -0.5,
        -0.5,
        0.0
      ]
    },
    {
      "bufferView": 52,
      "byteOffset": 0,
      "componentType": 5126,
      "normalized": false,
      "count": 4,
      "type": "VEC3"
    },
    {
      "bufferView": 53,
      "byteOffset": 0,
      "componentType": 5126,
      "normalized": false,
      "count": 4,
      "type": "VEC2",
      "max": [
        1.0,
        1.0
      ],
      "min": [
        0.0,
        0.0
      ]
    },
    {
      "bufferView": 101,
      "byteOffset": 0,
      "componentType": 5125,
      "normalized": false,
      "count": 6,
      "type": "SCALAR"
    },
    {
      "bufferView": 54,
      "byteOffset": 0,
      "componentType": 5126,
      "normalized": false,
      "count": 4,
      "type": "VEC3",
      "max": [
        0.19999997317790985,
        0.19999997317790985,
        0.0
      ],
      "min": [
        -0.19999997317790985,
        -0.19999997317790985,
        0.0
      ]
    },
    {
      "bufferView": 55,
      "byteOffset": 0,
      "componentType": 5126,
      "normalized": false,
      "count": 4,
      "type": "VEC3"
    },
    {
      "bufferView": 56,
      "byteOffset": 0,
      "componentType": 5126,
      "normalized": false,
      "count": 4,
      "type": "VEC2",
      "max": [
        1.0,
        1.0
      ],
      "min": [
        0.0,
        0.0
      ]
    },
    {
      "bufferView": 102,
      "byteOffset": 0,
      "componentType": 5125,
      "normalized": false,
      "count": 6,
      "type": "SCALAR"
    },
    {
      "bufferView": 57,
      "byteOffset": 0,
      "componentType": 5126,
      "normalized": false,
      "count": 4,
      "type": "VEC3",
      "max": [
        0.19999997317790985,
        0.19999997317790985,
        0.0
      ],
      "min": [
        -0.19999997317790985,
        -0.19999997317790985,
        0.0
      ]
    },
    {
      "bufferView": 58,
      "byteOffset": 0,
      "componentType": 5126,
      "normalized": false,
      "count": 4,
      "type": "VEC3"
    },
    {
      "bufferView": 59,
      "byteOffset": 0,
      "componentType": 5126,
      "normalized": false,
      "count": 4,
      "type": "VEC2",
      "max": [
        1.0,
        1.0
      ],
      "min": [
        0.0,
        0.0
      ]
    },
    {
      "bufferView": 103,
      "byteOffset": 0,
      "componentType": 5125,
      "normalized": false,
      "count": 6,
      "type": "SCALAR"
    },
    {
      "bufferView": 60,
      "byteOffset": 0,
      "componentType": 5126,
      "normalized": false,
      "count": 4,
      "type": "VEC3",
      "max": [
        0.19999997317790985,
        0.19999997317790985,
        0.0
      ],
      "min": [
        -0.19999997317790985,
        -0.19999997317790985,
        0.0
      ]
    },
    {
      "bufferView": 61,
      "byteOffset": 0,
      "componentType": 5126,
      "normalized": false,
      "count": 4,
      "type": "VEC3"
    },
    {
      "bufferView": 62,
      "byteOffset": 0,
      "componentType": 5126,
      "normalized": false,
      "count": 4,
      "type": "VEC2",
      "max": [
        1.0,
        1.0
      ],
      "min": [
        0.0,
        0.0
      ]
    },
    {
      "bufferView": 104,
      "byteOffset": 0,
      "componentType": 5125,
      "normalized": false,
      "count": 6,
      "type": "SCALAR"
    },
    {
      "bufferView": 63,
      "byteOffset": 0,
      "componentType": 5126,
      "normalized": false,
      "count": 4,
      "type": "VEC3",
      "max": [
        0.19999997317790985,
        0.19999997317790985,
        0.0
      ],
      "min": [
        -0.19999997317790985,
        -0.19999997317790985,
        0.0
      ]
    },
    {
      "bufferView": 64,
      "byteOffset": 0,
      "componentType": 5126,
      "normalized": false,
      "count": 4,
      "type": "VEC3"
    },
    {
      "bufferView": 105,
      "byteOffset": 0,
      "componentType": 5125,
      "normalized": false,
      "count": 6,
      "type": "SCALAR"
    },
    {
      "bufferView": 65,
      "byteOffset": 0,
      "componentType": 5126,
      "normalized": false,
      "count": 4,
      "type": "VEC3",
      "max": [
        0.19999997317790985,
        0.19999997317790985,
        0.0
      ],
      "min": [
        -0.19999997317790985,
        -0.19999997317790985,
        0.0
      ]
    },
    {
      "bufferView": 66,
      "byteOffset": 0,
      "componentType": 5126,
      "normalized": false,
      "count": 4,
      "type": "VEC3"
    },
    {
      "bufferView": 106,
      "byteOffset": 0,
      "componentType": 5125,
      "normalized": false,
      "count": 24,
      "type": "SCALAR"
    },
    {
      "bufferView": 67,
      "byteOffset": 0,
      "componentType": 5126,
      "normalized": false,
      "count": 16,
      "type": "VEC3",
      "max": [
        2.9084620475769043,
        0.125,
        5.960464477539062e-07
      ],
      "min": [
        -2.9084620475769043,
        -3.7749834060668945,
        0.0
      ]
    },
    {
      "bufferView": 68,
      "byteOffset": 0,
      "componentType": 5126,
      "normalized": false,
      "count": 16,
      "type": "VEC3"
    },
    {
      "bufferView": 107,
      "byteOffset": 0,
      "componentType": 5125,
      "normalized": false,
      "count": 7149,
      "type": "SCALAR"
    },
    {
      "bufferView": 69,
      "byteOffset": 0,
      "componentType": 5126,
      "normalized": false,
      "count": 2593,
      "type": "VEC3",
      "max": [
        0.47372499108314514,
        0.032600000500679016,
        0.0
      ],
      "min": [
        -0.47372499108314514,
        -3.645549774169922,
        0.0
      ]
    },
    {
      "bufferView": 70,
      "byteOffset": 0,
      "componentType": 5126,
      "normalized": false,
      "count": 2593,
      "type": "VEC3"
    },
    {
      "bufferView": 108,
      "byteOffset": 0,
      "componentType": 5125,
      "normalized": false,
      "count": 6,
      "type": "SCALAR"
    },
    {
      "bufferView": 71,
      "byteOffset": 0,
      "componentType": 5126,
      "normalized": false,
      "count": 4,
      "type": "VEC3",
      "max": [
        0.19999997317790985,
        0.19999997317790985,
        0.0
      ],
      "min": [
        -0.19999997317790985,
        -0.19999997317790985,
        0.0
      ]
    },
    {
      "bufferView": 72,
      "byteOffset": 0,
      "componentType": 5126,
      "normalized": false,
      "count": 4,
      "type": "VEC3"
    },
    {
      "bufferView": 109,
      "byteOffset": 0,
      "componentType": 5125,
      "normalized": false,
      "count": 6,
      "type": "SCALAR"
    },
    {
      "bufferView": 73,
      "byteOffset": 0,
      "componentType": 5126,
      "normalized": false,
      "count": 4,
      "type": "VEC3",
      "max": [
        0.19999997317790985,
        0.19999997317790985,
        0.0
      ],
      "min": [
        -0.19999997317790985,
        -0.19999997317790985,
        0.0
      ]
    },
    {
      "bufferView": 74,
      "byteOffset": 0,
      "componentType": 5126,
      "normalized": false,
      "count": 4,
      "type": "VEC3"
    },
    {
      "bufferView": 110,
      "byteOffset": 0,
      "componentType": 5125,
      "normalized": false,
      "count": 6,
      "type": "SCALAR"
    },
    {
      "bufferView": 75,
      "byteOffset": 0,
      "componentType": 5126,
      "normalized": false,
      "count": 4,
      "type": "VEC3",
      "max": [
        0.19999997317790985,
        0.19999997317790985,
        0.0
      ],
      "min": [
        -0.19999997317790985,
        -0.19999997317790985,
        0.0
      ]
    },
    {
      "bufferView": 76,
      "byteOffset": 0,
      "componentType": 5126,
      "normalized": false,
      "count": 4,
      "type": "VEC3"
    },
    {
      "bufferView": 111,
      "byteOffset": 0,
      "componentType": 5125,
      "normalized": false,
      "count": 54,
      "type": "SCALAR"
    },
    {
      "bufferView": 77,
      "byteOffset": 0,
      "componentType": 5126,
      "normalized": false,
      "count": 36,
      "type": "VEC3",
      "max": [
        2.9084620475769043,
        1.017883062362671,
        0.49001821875572205
      ],
      "min": [
        -5.358610153198242,
        -4.055624961853027,
        0.4900173842906952
      ]
    },
    {
      "bufferView": 78,
      "byteOffset": 0,
      "componentType": 5126,
      "normalized": false,
      "count": 36,
      "type": "VEC3"
    },
    {
      "bufferView": 80,
      "byteOffset": 7860,
      "componentType": 5125,
      "normalized": false,
      "count": 834,
      "type": "SCALAR"
    },
    {
      "bufferView": 80,
      "byteOffset": 11196,
      "componentType": 5125,
      "normalized": false,
      "count": 246,
      "type": "SCALAR"
    },
    {
      "bufferView": 81,
      "byteOffset": 22320,
      "componentType": 5125,
      "normalized": false,
      "count": 984,
      "type": "SCALAR"
    },
    {
      "bufferView": 107,
      "byteOffset": 28596,
      "componentType": 5125,
      "normalized": false,
      "count": 2277,
      "type": "SCALAR"
    },
    {
      "bufferView": 107,
      "byteOffset": 37704,
      "componentType": 5125,
      "normalized": false,
      "count": 1224,
      "type": "SCALAR"
    }
  ],
  "asset": {
    "generator": "GDS lod baker 1",
    "copyright": "\u00a9 2015, Khronos Group, Khronos logo. \u00a9 2017, Khronos Group, glTF logo. Asset is CC BY 4.0 International, created by Eric Chadwick of Darmstadt Graphics Group GmbH, 2025.",
    "version": "2.0"
  },
  "bufferViews": [
    {
      "buffer": 0,
      "byteOffset": 0,
      "byteLength": 48,
      "target": 34962
    },
    {
      "buffer": 0,
      "byteOffset": 48,
      "byteLength": 48,
      "target": 34962
    },
    {
      "buffer": 0,
      "byteOffset": 96,
      "byteLength": 8652,
      "target": 34962
    },
    {
      "buffer": 0,
      "byteOffset": 8748,
      "byteLength": 8652,
      "target": 34962
    },
    {
      "buffer": 0,
      "byteOffset": 17400,
      "byteLength": 24624,
      "target": 34962
    },
    {
      "buffer": 0,
      "byteOffset": 42024,
      "byteLength": 24624,
      "target": 34962
    },
    {
      "buffer": 0,
      "byteOffset": 66648,
      "byteLength": 48,
      "target": 34962
    },
    {
      "buffer": 0,
      "byteOffset": 66696,
      "byteLength": 48,
      "target": 34962
    },
    {
      "buffer": 0,
      "byteOffset": 66744,
      "byteLength": 48,
      "target": 34962
    },
    {
      "buffer": 0,
      "byteOffset": 66792,
      "byteLength": 48,
      "target": 34962
    },
    {
      "buffer": 0,
      "byteOffset": 66840,
      "byteLength": 48,
      "target": 34962
    },
    {
      "buffer": 0,
      "byteOffset": 66888,
      "byteLength": 48,
      "target": 34962
    },
    {
      "buffer": 0,
      "byteOffset": 66936,
      "byteLength": 48,
      "target": 34962
    },
    {
      "buffer": 0,
      "byteOffset": 66984,
      "byteLength": 48,
      "target": 34962
    },
    {
      "buffer": 0,
      "byteOffset": 67032,
      "byteLength": 48,
      "target": 34962
    },
    {
      "buffer": 0,
      "byteOffset": 67080,
      "byteLength": 48,
      "target": 34962
    },
    {
      "buffer": 0,
      "byteOffset": 67128,
      "byteLength": 48,
      "target": 34962
    },
    {
      "buffer": 0,
      "byteOffset": 67176,
      "byteLength": 48,
      "target": 34962
    },
    {
      "buffer": 0,
      "byteOffset": 67224,
      "byteLength": 48,
      "target": 34962
    },
    {
      "buffer": 0,
      "byteOffset": 67272,
      "byteLength": 48,
      "target": 34962
    },
    {
      "buffer": 0,
      "byteOffset": 67320,
      "byteLength": 48,
      "target": 34962
    },
    {
      "buffer": 0,
      "byteOffset": 67368,
      "byteLength": 48,
      "target": 34962
    },
    {
      "buffer": 0,
      "byteOffset": 67416,
      "byteLength": 48,
      "target": 34962
    },
    {
      "buffer": 0,
      "byteOffset": 67464,
      "byteLength": 48,
      "target": 34962
    },
    {
      "buffer": 0,
      "byteOffset": 67512,
      "byteLength": 48,
      "target": 34962
    },
    {
      "buffer": 0,
      "byteOffset": 67560,
      "byteLength": 48,
      "target": 34962
    },
    {
      "buffer": 0,
      "byteOffset": 67608,
      "byteLength": 32,
      "target": 34962
    },
    {
      "buffer": 0,
      "byteOffset": 67640,
      "byteLength": 48,
      "target": 34962
    },
    {
      "buffer": 0,
      "byteOffset": 67688,
      "byteLength": 48,
      "target": 34962
    },
    {
      "buffer": 0,
      "byteOffset": 67736,
      "byteLength": 32,
      "target": 34962
    },
    {
      "buffer": 0,
      "byteOffset": 67768,
      "byteLength": 48,
      "target": 34962
    },
    {
      "buffer": 0,
      "byteOffset": 67816,
      "byteLength": 48,
      "target": 34962
    },
    {
      "buffer": 0,
      "byteOffset": 67864,
      "byteLength": 32,
      "target": 34962
    },
    {
      "buffer": 0,
      "byteOffset": 67896,
      "byteLength": 48,
      "target": 34962
    },
    {
      "buffer": 0,
      "byteOffset": 67944,
      "byteLength": 48,
      "target": 34962
    },
    {
      "buffer": 0,
      "byteOffset": 67992,
      "byteLength": 32,
      "target": 34962
    },
    {
      "buffer": 0,
      "byteOffset": 68024,
      "byteLength": 48,
      "target": 34962
    },
    {
      "buffer": 0,
      "byteOffset": 68072,
      "byteLength": 48,
      "target": 34962
    },
    {
      "buffer": 0,
      "byteOffset": 68120,
      "byteLength": 32,
      "target": 34962
    },
    {
      "buffer": 0,
      "byteOffset": 68152,
      "byteLength": 48,
      "target": 34962
    },
    {
      "buffer": 0,
      "byteOffset": 68200,
      "byteLength": 48,
      "target": 34962
    },
    {
      "buffer": 0,
      "byteOffset": 68248,
      "byteLength": 32,
      "target": 34962
    },
    {
      "buffer": 0,
      "byteOffset": 68280,
      "byteLength": 48,
      "target": 34962
    },
    {
      "buffer": 0,
      "byteOffset": 68328,
      "byteLength": 48,
      "target": 34962
    },
    {
      "buffer": 0,
      "byteOffset": 68376,
      "byteLength": 32,
      "target": 34962
    },
    {
      "buffer": 0,
      "byteOffset": 68408,
      "byteLength": 48,
      "target": 34962
    },
    {
      "buffer": 0,
      "byteOffset": 68456,
      "byteLength": 48,
      "target": 34962
    },
    {
      "buffer": 0,
      "byteOffset": 68504,
      "byteLength": 32,
      "target": 34962
    },
    {
      "buffer": 0,
      "byteOffset": 68536,
      "byteLength": 48,
      "target": 34962
    },
    {
      "buffer": 0,
      "byteOffset": 68584,
      "byteLength": 48,
      "target": 34962
    },
    {
      "buffer": 0,
      "byteOffset": 68632,
      "byteLength": 32,
      "target": 34962
    },
    {
      "buffer": 0,
      "byteOffset": 68664,
      "byteLength": 48,
      "target": 34962
    },
    {
      "buffer": 0,
      "byteOffset": 68712,
      "byteLength": 48,
      "target": 34962
    },
    {
      "buffer": 0,
      "byteOffset": 68760,
      "byteLength": 32,
      "target": 34962
    },
    {
      "buffer": 0,
      "byteOffset": 68792,
      "byteLength": 48,
      "target": 34962
    },
    {
      "buffer": 0,
      "byteOffset": 68840,
      "byteLength": 48,
      "target": 34962
    },
    {
      "buffer": 0,
      "byteOffset": 68888,
      "byteLength": 32,
      "target": 34962
    },
    {
      "buffer": 0,
      "byteOffset": 68920,
      "byteLength": 48,
      "target": 34962
    },
    {
      "buffer": 0,
      "byteOffset": 68968,
      "byteLength": 48,
      "target": 34962
    },
    {
      "buffer": 0,
      "byteOffset": 69016,
      "byteLength": 32,
      "target": 34962
    },
    {
      "buffer": 0,
      "byteOffset": 69048,
      "byteLength": 48,
      "target": 34962
    },
    {
      "buffer": 0,
      "byteOffset": 69096,
      "byteLength": 48,
      "target": 34962
    },
    {
      "buffer": 0,
      "byteOffset": 69144,
      "byteLength": 32,
      "target": 34962
    },
    {
      "buffer": 0,
      "byteOffset": 69176,
      "byteLength": 48,
      "target": 34962
    },
    {
      "buffer": 0,
      "byteOffset": 69224,
      "byteLength": 48,
      "target": 34962
    },
    {
      "buffer": 0,
      "byteOffset": 69272,
      "byteLength": 48,
      "target": 34962
    },
    {
      "buffer": 0,
      "byteOffset": 69320,
      "byteLength": 48,
      "target": 34962
    },
    {
      "buffer": 0,
      "byteOffset": 69368,
      "byteLength": 192,
      "target": 34962
    },
    {
      "buffer": 0,
      "byteOffset": 69560,
      "byteLength": 192,
      "target": 34962
    },
    {
      "buffer": 0,
      "byteOffset": 69752,
      "byteLength": 31116,
      "target": 34962
    },
    {
      "buffer": 0,
      "byteOffset": 100868,
      "byteLength": 31116,
      "target": 34962
    },
    {
      "buffer": 0,
      "byteOffset": 131984,
      "byteLength": 48,
      "target": 34962
    },
    {
      "buffer": 0,
      "byteOffset": 132032,
      "byteLength": 48,
      "target": 34962
    },
    {
      "buffer": 0,
      "byteOffset": 132080,
      "byteLength": 48,
      "target": 34962
    },
    {
      "buffer": 0,
      "byteOffset": 132128,
      "byteLength": 48,
      "target": 34962
    },
    {
      "buffer": 0,
      "byteOffset": 132176,
      "byteLength": 48,
      "target": 34962
    },
    {
      "buffer": 0,
      "byteOffset": 132224,
      "byteLength": 48,
      "target": 34962
    },
    {
      "buffer": 0,
      "byteOffset": 132272,
      "byteLength": 432,
      "target": 34962
    },
    {
      "buffer": 0,
      "byteOffset": 132704,
      "byteLength": 432,
      "target": 34962
    },
    {
      "buffer": 0,
      "byteOffset": 133136,
      "byteLength": 24,
      "target": 34963
    },
    {
      "buffer": 0,
      "byteOffset": 133160,
      "byteLength": 12180,
      "target": 34963
    },
    {
      "buffer": 0,
      "byteOffset": 145340,
      "byteLength": 26256,
      "target": 34963
    },
    {
      "buffer": 0,
      "byteOffset": 171596,
      "byteLength": 24,
      "target": 34963
    },
    {
      "buffer": 0,
      "byteOffset": 171620,
      "byteLength": 24,
      "target": 34963
    },
    {
      "buffer": 0,
      "byteOffset": 171644,
      "byteLength": 24,
      "target": 34963
    },
    {
      "buffer": 0,
      "byteOffset": 171668,
      "byteLength": 24,
      "target": 34963
    },
    {
      "buffer": 0,
      "byteOffset": 171692,
      "byteLength": 24,
      "target": 34963
    },
    {
      "buffer": 0,
      "byteOffset": 171716,
      "byteLength": 24,
      "target": 34963
    },
    {
      "buffer": 0,
      "byteOffset": 171740,
      "byteLength": 24,
      "target": 34963
    },
    {
      "buffer": 0,
      "byteOffset": 171764,
      "byteLength": 24,
      "target": 34963
    },
    {
      "buffer": 0,
      "byteOffset": 171788,
      "byteLength": 24,
      "target": 34963
    },
    {
      "buffer": 0,
      "byteOffset": 171812,
      "byteLength": 24,
      "target": 34963
    },
    {
      "buffer": 0,
      "byteOffset": 171836,
      "byteLength": 24,
      "target": 34963
    },
    {
      "buffer": 0,
      "byteOffset": 171860,
      "byteLength": 24,
      "target": 34963
    },
    {
      "buffer": 0,
      "byteOffset": 171884,
      "byteLength": 24,
      "target": 34963
    },
    {
      "buffer": 0,
      "byteOffset": 171908,
      "byteLength": 24,
      "target": 34963
    },
    {
      "buffer": 0,
      "byteOffset": 171932,
      "byteLength": 24,
      "target": 34963
    },
    {
      "buffer": 0,
      "byteOffset": 171956,
      "byteLength": 24,
      "target": 34963
    },
    {
      "buffer": 0,
      "byteOffset": 171980,
      "byteLength": 24,
      "target": 34963
    },
    {
      "buffer": 0,
      "byteOffset": 172004,
      "byteLength": 24,
      "target": 34963
    },
    {
      "buffer": 0,
      "byteOffset": 172028,
      "byteLength": 24,
      "target": 34963
    },
    {
      "buffer": 0,
      "byteOffset": 172052,
      "byteLength": 24,
      "target": 34963
    },
    {
      "buffer": 0,
      "byteOffset": 172076,
      "byteLength": 24,
      "target": 34963
    },
    {
      "buffer": 0,
      "byteOffset": 172100,
      "byteLength": 24,
      "target": 34963
    },
    {
      "buffer": 0,
      "byteOffset": 172124,
      "byteLength": 24,
      "target": 34963
    },
    {
      "buffer": 0,
      "byteOffset": 172148,
      "byteLength": 24,
      "target": 34963
    },
    {
      "buffer": 0,
      "byteOffset": 172172,
      "byteLength": 96,
      "target": 34963
    },
    {
      "buffer": 0,
      "byteOffset": 172268,
      "byteLength": 42600,
      "target": 34963
    },
    {
      "buffer": 0,
      "byteOffset": 214868,
      "byteLength": 24,
      "target": 34963
    },
    {
      "buffer": 0,
      "byteOffset": 214892,
      "byteLength": 24,
      "target": 34963
    },
    {
      "buffer": 0,
      "byteOffset": 214916,
      "byteLength": 24,
      "target": 34963
    },
    {
      "buffer": 0,
      "byteOffset": 214940,
      "byteLength": 216,
      "target": 34963
    }
  ],
  "buffers": [
    {
      "uri": "DiffuseTransmissionTestLOD.bin",
      "byteLength": 215156
    }
  ],
  "extensionsUsed": [
    "KHR_materials_diffuse_transmission",
    "KHR_materials_unlit",
    "KHR_lights_punctual",
    "NG2_mesh_lod"
  ],
  "extensionsRequired": [
    "KHR_materials_unlit",
    "KHR_lights_punctual"
  ],
  "images": [
    {
      "uri": "DiffuseTransmissionTexture.png"
    },
    {
      "uri": "glTF-Green.png"
    },
    {
      "uri": "Khronos-Red.png"
    }
  ],
  "materials": [
    {
      "extensions": {
        "KHR_materials_diffuse_transmission": {
          "diffuseTransmissionColorFactor": [
            1.0,
            1.0,
            1.0
          ]
        }
      },
      "pbrMetallicRoughness": {
        "baseColorFactor": [
          0.0,
          0.25,
          0.25,
          1.0
        ],
        "metallicFactor": 0.0,
        "roughnessFactor": 0.5
      },
      "emissiveFactor": [
        0.0,
        0.0,
        0.0
      ],
      "alphaMode": "OPAQUE",
      "doubleSided": true,
      "name": "Factor 0.0"
    },
    {
      "extensions": {
        "KHR_materials_diffuse_transmission": {
          "diffuseTransmissionColorFactor": [
            1.0,
            1.0,
            1.0
          ],
          "diffuseTransmissionFactor": 0.25
        }
      },
      "pbrMetallicRoughness": {
        "baseColorFactor": [
          0.0,
          0.25,
          0.25,
          1.0
        ],
        "metallicFactor": 0.0,
        "roughnessFactor": 0.5
      },
      "emissiveFactor": [
        0.0,
        0.0,
        0.0
      ],
      "alphaMode": "OPAQUE",
      "doubleSided": true,
      "name": "Factor 0.25"
    },
    {
      "extensions": {
        "KHR_materials_diffuse_transmission": {
          "diffuseTransmissionColorFactor": [
            1.0,
            1.0,
            1.0
          ],
          "diffuseTransmissionFactor": 0.5
        }
      },
      "pbrMetallicRoughness": {
        "baseColorFactor": [
          0.0,
          0.25,
          0.25,
          1.0
        ],
        "metallicFactor": 0.0,
        "roughnessFactor": 0.5
      },
      "emissiveFactor": [
        0.0,
        0.0,
        0.0
      ],
      "alphaMode": "OPAQUE",
      "doubleSided": true,
      "name": "Factor 0.5"
    },
    {
      "extensions": {
        "KHR_materials_diffuse_transmission": {
          "diffuseTransmissionColorFactor": [
            1.0,
            1.0,
            1.0
          ],
          "diffuseTransmissionFactor": 0.75
        }
      },
      "pbrMetallicRoughness": {
        "baseColorFactor": [
          0.0,
          0.25,
          0.25,
          1.0
        ],
        "metallicFactor": 0.0,
        "roughnessFactor": 0.5
      },
      "emissiveFactor": [
        0.0,
        0.0,
        0.0
      ],
      "alphaMode": "OPAQUE",
      "doubleSided": true,
      "name": "Factor 0.75"
    },
    {
      "extensions": {
        "KHR_materials_diffuse_transmission": {
          "diffuseTransmissionColorFactor": [
            1.0,
            1.0,
            1.0
          ],
          "diffuseTransmissionFactor": 1.0
        }
      },
      "pbrMetallicRoughness": {
        "baseColorFactor": [
          0.0,
          0.25,
          0.25,
          1.0
        ],
        "metallicFactor": 0.0,
        "roughnessFactor": 0.5
      },
      "emissiveFactor": [
        0.0,
        0.0,
        0.0
      ],
      "alphaMode": "OPAQUE",
      "doubleSided": true,
      "name": "Factor 1.0"
    },
    {
      "extensions": {
        "KHR_materials_diffuse_transmission": {
          "diffuseTransmissionColorFactor": [
            1.0,
            0.0,
            0.0
          ]
        }
      },
      "pbrMetallicRoughness": {
        "baseColorFactor": [
          0.0,
          0.25,
          0.25,
          1.0
        ],
        "metallicFactor": 0.0,
        "roughnessFactor": 0.5
      },
      "emissiveFactor": [
        0.0,
        0.0,
        0.0
      ],
      "alphaMode": "OPAQUE",
      "doubleSided": true,
      "name": "ColorFactor 0.0"
    },
    {
      "extensions": {
        "KHR_materials_diffuse_transmission": {
          "diffuseTransmissionColorFactor": [
            1.0,
            0.0,
            0.0
          ],
          "diffuseTransmissionFactor": 0.25
        }
      },
      "pbrMetallicRoughness": {
        "baseColorFactor": [
          0.0,
          0.25,
          0.25,
          1.0
        ],
        "metallicFactor": 0.0,
        "roughnessFactor": 0.5
      },
      "emissiveFactor": [
        0.0,
        0.0,
        0.0
      ],
      "alphaMode": "OPAQUE",
      "doubleSided": true,
      "name": "ColorFactor 0.25"
    },
    {
      "extensions": {
        "KHR_materials_diffuse_transmission": {
          "diffuseTransmissionColorFactor": [
            1.0,
            0.0,
            0.0
          ],
          "diffuseTransmissionFactor": 0.5
        }
      },
      "pbrMetallicRoughness": {
        "baseColorFactor": [
          0.0,
          0.25,
          0.25,
          1.0
        ],
        "metallicFactor": 0.0,
        "roughnessFactor": 0.5
      },
      "emissiveFactor": [
        0.0,
        0.0,
        0.0
      ],
      "alphaMode": "OPAQUE",
      "doubleSided": true,
      "name": "ColorFactor 0.5"
    },
    {
      "extensions": {
        "KHR_materials_diffuse_transmission": {
          "diffuseTransmissionColorFactor": [
            1.0,
            0.0,
            0.0
          ],
          "diffuseTransmissionFactor": 0.75
        }
      },
      "pbrMetallicRoughness": {
        "baseColorFactor": [
          0.0,
          0.25,
          0.25,
          1.0
        ],
        "metallicFactor": 0.0,
        "roughnessFactor": 0.5
      },
      "emissiveFactor": [
        0.0,
        0.0,
        0.0
      ],
      "alphaMode": "OPAQUE",
      "doubleSided": true,
      "name": "ColorFactor 0.75"
    },
    {
      "extensions": {
        "KHR_materials_diffuse_transmission": {
          "diffuseTransmissionColorFactor": [
            1.0,
            0.0,
            0.0
          ],
          "diffuseTransmissionFactor": 1.0
        }
      },
      "pbrMetallicRoughness": {
        "baseColorFactor": [
          0.0,
          0.25,
          0.25,
          1.0
        ],
        "metallicFactor": 0.0,
        "roughnessFactor": 0.5
      },
      "emissiveFactor": [
        0.0,
        0.0,
        0.0
      ],
      "alphaMode": "OPAQUE",
      "doubleSided": true,
      "name": "ColorFactor 1.0"
    },
    {
      "extensions": {
        "KHR_materials_diffuse_transmission": {
          "diffuseTransmissionColorFactor": [
            1.0,
            1.0,
            1.0
          ],
          "diffuseTransmissionTexture": {
            "index": 0
          }
        }
      },
      "pbrMetallicRoughness": {
        "baseColorFactor": [
          0.0,
          0.25,
          0.25,
          1.0
        ],
        "metallicFactor": 0.0,
        "roughnessFactor": 0.5
      },
      "emissiveFactor": [
        0.0,
        0.0,
        0.0
      ],
      "alphaMode": "OPAQUE",
      "doubleSided": true,
      "name": "Texture 0.0"
    },
    {
      "extensions": {
        "KHR_materials_diffuse_transmission": {
          "diffuseTransmissionColorFactor": [
            1.0,
            1.0,
            1.0
          ],
          "diffuseTransmissionFactor": 0.25,
          "diffuseTransmissionTexture": {
            "index": 0
          }
        }
      },
      "pbrMetallicRoughness": {
        "baseColorFactor": [
          0.0,
          0.25,
          0.25,
          1.0
        ],
        "metallicFactor": 0.0,
        "roughnessFactor": 0.5
      },
      "emissiveFactor": [
        0.0,
        0.0,
        0.0
      ],
      "alphaMode": "OPAQUE",
      "doubleSided": true,
      "name": "Texture 0.25"
    },
    {
      "extensions": {
        "KHR_materials_diffuse_transmission": {
          "diffuseTransmissionColorFactor": [
            1.0,
            1.0,
            1.0
          ],
          "diffuseTransmissionFactor": 0.5,
          "diffuseTransmissionTexture": {
            "index": 0
          }
        }
      },
      "pbrMetallicRoughness": {
        "baseColorFactor": [
          0.0,
          0.25,
          0.25,
          1.0
        ],
        "metallicFactor": 0.0,
        "roughnessFactor": 0.5
      },
      "emissiveFactor": [
        0.0,
        0.0,
        0.0
      ],
      "alphaMode": "OPAQUE",
      "doubleSided": true,
      "name": "Texture 0.5"
    },
    {
      "extensions": {
        "KHR_materials_diffuse_transmission": {
          "diffuseTransmissionColorFactor": [
            1.0,
            1.0,
            1.0
          ],
          "diffuseTransmissionFactor": 0.75,
          "diffuseTransmissionTexture": {
            "index": 0
          }
        }
      },
      "pbrMetallicRoughness": {
        "baseColorFactor": [
          0.0,
          0.25,
          0.25,
          1.0
        ],
        "metallicFactor": 0.0,
        "roughnessFactor": 0.5
      },
      "emissiveFactor": [
        0.0,
        0.0,
        0.0
      ],
      "alphaMode": "OPAQUE",
      "doubleSided": true,
      "name": "Texture 0.75"
    },
    {
      "extensions": {
        "KHR_materials_diffuse_transmission": {
          "diffuseTransmissionColorFactor": [
            1.0,
            1.0,
            1.0
          ],
          "diffuseTransmissionFactor": 1.0,
          "diffuseTransmissionTexture": {
            "index": 0
          }
        }
      },
      "pbrMetallicRoughness": {
        "baseColorFactor": [
          0.0,
          0.25,
          0.25,
          1.0
        ],
        "metallicFactor": 0.0,
        "roughnessFactor": 0.5
      },
      "emissiveFactor": [
        0.0,
        0.0,
        0.0
      ],
      "alphaMode": "OPAQUE",
      "doubleSided": true,
      "name": "Texture 1.0"
    },
    {
      "extensions": {
        "KHR_materials_diffuse_transmission": {
          "diffuseTransmissionColorFactor": [
            1.0,
            1.0,
            1.0
          ],
          "diffuseTransmissionColorTexture": {
            "index": 2
          },
          "diffuseTransmissionFactor": 1.0
        }
      },
      "pbrMetallicRoughness": {
        "baseColorFactor": [
          1.0,
          1.0,
          1.0,
          1.0
        ],
        "metallicFactor": 0.0,
        "roughnessFactor": 0.5,
        "baseColorTexture": {
          "index": 1,
          "texCoord": 0
        }
      },
      "emissiveFactor": [
        0.0,
        0.0,
        0.0
      ],
      "alphaMode": "OPAQUE",
      "doubleSided": true,
      "name": "ColorTexture 1.0"
    },
    {
      "extensions": {
        "KHR_materials_diffuse_transmission": {
          "diffuseTransmissionColorFactor": [
            1.0,
            1.0,
            1.0
          ],
          "diffuseTransmissionColorTexture": {
            "index": 2
          },
          "diffuseTransmissionFactor": 0.75
        }
      },
      "pbrMetallicRoughness": {
        "baseColorFactor": [
          1.0,
          1.0,
          1.0,
          1.0
        ],
        "metallicFactor": 0.0,
        "roughnessFactor": 0.5,
        "baseColorTexture": {
          "index": 1,
          "texCoord": 0
        }
      },
      "emissiveFactor": [
        0.0,
        0.0,
        0.0
      ],
      "alphaMode": "OPAQUE",
      "doubleSided": true,
      "name": "ColorTexture 0.75"
    },
    {
      "extensions": {
        "KHR_materials_diffuse_transmission": {
          "diffuseTransmissionColorFactor": [
            1.0,
            1.0,
            1.0
          ],
          "diffuseTransmissionColorTexture": {
            "index": 2
          },
          "diffuseTransmissionFactor": 0.5
        }
      },
      "pbrMetallicRoughness": {
        "baseColorFactor": [
          1.0,
          1.0,
          1.0,
          1.0
        ],
        "metallicFactor": 0.0,
        "roughnessFactor": 0.5,
        "baseColorTexture": {
          "index": 1,
          "texCoord": 0
        }
      },
      "emissiveFactor": [
        0.0,
        0.0,
        0.0
      ],
      "alphaMode": "OPAQUE",
      "doubleSided": true,
      "name": "ColorTexture 0.5"
    },
    {
      "extensions": {
        "KHR_materials_diffuse_transmission": {
          "diffuseTransmissionColorFactor": [
            1.0,
            1.0,
            1.0
          ],
          "diffuseTransmissionColorTexture": {
            "index": 2
          },
          "diffuseTransmissionFactor": 0.25
        }
      },
      "pbrMetallicRoughness": {
        "baseColorFactor": [
          1.0,
          1.0,
          1.0,
          1.0
        ],
        "metallicFactor": 0.0,
        "roughnessFactor": 0.5,
        "baseColorTexture": {
          "index": 1,
          "texCoord": 0
        }
      },
      "emissiveFactor": [
        0.0,
        0.0,
        0.0
      ],
      "alphaMode": "OPAQUE",
      "doubleSided": true,
      "name": "ColorTexture 0.25"
    },
    {
      "extensions": {
        "KHR_materials_diffuse_transmission": {
          "diffuseTransmissionColorFactor": [
            1.0,
            1.0,
            1.0
          ],
          "diffuseTransmissionColorTexture": {
            "index": 2
          }
        }
      },
      "pbrMetallicRoughness": {
        "baseColorFactor": [
          1.0,
          1.0,
          1.0,
          1.0
        ],
        "metallicFactor": 0.0,
        "roughnessFactor": 0.5,
        "baseColorTexture": {
          "index": 1,
          "texCoord": 0
        }
      },
      "emissiveFactor": [
        0.0,
        0.0,
        0.0
      ],
      "alphaMode": "OPAQUE",
      "doubleSided": true,
      "name": "ColorTexture 0.0"
    },
    {
      "extensions": {
        "KHR_materials_unlit": {}
      },
      "pbrMetallicRoughness": {
        "baseColorFactor": [
          1.0,
          1.0,
          1.0,
          1.0
        ],
        "metallicFactor": 0.0,
        "roughnessFactor": 0.5,
        "baseColorTexture": {
          "index": 0,
          "texCoord": 0
        }
      },
      "emissiveFactor": [
        0.0,
        0.0,
        0.0
      ],
      "alphaMode": "OPAQUE",
      "doubleSided": true,
      "name": "TextureUnlit"
    },
    {
      "extensions": {
        "KHR_materials_unlit": {}
      },
      "pbrMetallicRoughness": {
        "baseColorFactor": [
          1.0,
          0.0,
          0.0,
          1.0
        ],
        "metallicFactor": 0.0,
        "roughnessFactor": 0.5
      },
      "emissiveFactor": [
        0.0,
        0.0,
        0.0
      ],
      "alphaMode": "OPAQUE",
      "doubleSided": true,
      "name": "ColorFactorUnlit"
    },
    {
      "extensions": {
        "KHR_materials_unlit": {}
      },
      "pbrMetallicRoughness": {
        "baseColorFactor": [
          1.0,
          1.0,
          1.0,
          1.0
        ],
        "metallicFactor": 0.0,
        "roughnessFactor": 0.5
      },
      "emissiveFactor": [
        0.0,
        0.0,
        0.0
      ],
      "alphaMode": "OPAQUE",
      "doubleSided": true,
      "name": "FactorUnlit"
    },
    {
      "extensions": {
        "KHR_materials_unlit": {}
      },
      "pbrMetallicRoughness": {
        "baseColorFactor": [
          1.0,
          1.0,
          1.0,
          1.0
        ],
        "metallicFactor": 0.0,
        "roughnessFactor": 0.5,
        "baseColorTexture": {
          "index": 1,
          "texCoord": 0
        }
      },
      "emissiveFactor": [
        0.0,
        0.0,
        0.0
      ],
      "alphaMode": "OPAQUE",
      "doubleSided": true,
      "name": "baseColorTextureUnlit"
    },
    {
      "extensions": {
        "KHR_materials_unlit": {}
      },
      "pbrMetallicRoughness": {
        "baseColorFactor": [
          1.0,
          1.0,
          1.0,
          1.0
        ],
        "metallicFactor": 0.0,
        "roughnessFactor": 0.5,
        "baseColorTexture": {
          "index": 2,
          "texCoord": 0
        }
      },
      "emissiveFactor": [
        0.0,
        0.0,
        0.0
      ],
      "alphaMode": "OPAQUE",
      "doubleSided": true,
      "name": "ColorTextureUnlit"
    },
    {
      "pbrMetallicRoughness": {
        "baseColorFactor": [
          0.2195197343826294,
          0.0,
          0.21204441785812378,
          1.0
        ],
        "metallicFactor": 0.0,
        "roughnessFactor": 1.0
      },
      "emissiveFactor": [
        0.0,
        0.0,
        0.0
      ],
      "alphaMode": "OPAQUE",
      "doubleSided": true,
      "name": "Behind"
    },
    {
      "extensions": {
        "KHR_materials_unlit": {}
      },
      "pbrMetallicRoughness": {
        "baseColorFactor": [
          0.0,
          0.0,
          0.0,
          1.0
        ],
        "metallicFactor": 0.0,
        "roughnessFactor": 1.0
      },
      "emissiveFactor": [
        0.0,
        0.0,
        0.0
      ],
      "alphaMode": "OPAQUE",
      "doubleSided": true,
      "name": "Text"
    },
    {
      "extensions": {
        "KHR_materials_unlit": {}
      },
      "pbrMetallicRoughness": {
        "baseColorFactor": [
          0.0,
          0.25,
          0.25,
          1.0
        ],
        "metallicFactor": 0.0,
        "roughnessFactor": 0.5
      },
      "emissiveFactor": [
        0.0,
        0.0,
        0.0
      ],
      "alphaMode": "OPAQUE",
      "doubleSided": true,
      "name": "baseColor"
    },
    {
      "extensions": {
        "KHR_materials_unlit": {}
      },
      "pbrMetallicRoughness": {
        "baseColorFactor": [
          1.0,
          1.0,
          1.0,
          0.25
        ],
        "metallicFactor": 0.0,
        "roughnessFactor": 0.5
      },
      "emissiveFactor": [
        0.0,
        0.0,
        0.0
      ],
      "alphaMode": "BLEND",
      "doubleSided": true,
      "name": "textbehind"
    }
  ],
  "meshes": [
    {
      "primitives": [
        {
          "attributes": {
            "POSITION": 1,
            "NORMAL": 2
          },
          "indices": 0,
          "mode": 4,
          "material": 0
        }
      ],
      "name": "Plane001"
    },
    {
      "primitives": [
        {
          "extensions": {
            "NG2_mesh_lod": {
              "levels": [
                {
                  "indices": 112,
                  "error": 0.049164
                },
                {
                  "indices": 113,
                  "error": 0.06474
                }
              ]
            }
          },
          "attributes": {
            "POSITION": 4,
            "NORMAL": 5
          },
          "indices": 3,
          "mode": 4,
          "material": 26
        }
      ],
      "name": "TextTop"
    },
    {
      "primitives": [
        {
          "extensions": {
            "NG2_mesh_lod": {
              "levels": [
                {
                  "indices": 114,
                  "error": 0.06474
                }
              ]
            }
          },
          "attributes": {
            "POSITION": 7,
            "NORMAL": 8
          },
          "indices": 6,
          "mode": 4,
          "material": 26
        }
      ],
      "name": "TextSide"
    },
    {
      "primitives": [
        {
          "attributes": {
            "POSITION": 10,
            "NORMAL": 11
          },
          "indices": 9,
          "mode": 4,
          "material": 1
        }
      ],
      "name": "Plane002"
    },
    {
      "primitives": [
        {
          "attributes": {
            "POSITION": 13,
            "NORMAL": 14
          },
          "indices": 12,
          "mode": 4,
          "material": 2
        }
      ],
      "name": "Plane003"
    },
    {
      "primitives": [
        {
          "attributes": {
            "POSITION": 16,
            "NORMAL": 17
          },
          "indices": 15,
          "mode": 4,
          "material": 3
        }
      ],
      "name": "Plane004"
    },
    {
      "primitives": [
        {
          "attributes": {
            "POSITION": 19,
            "NORMAL": 20
          },
          "indices": 18,
          "mode": 4,
          "material": 4
        }
      ],
      "name": "Plane005"
    },
    {
      "primitives": [
        {
          "attributes": {
            "POSITION": 22,
            "NORMAL": 23
          },
          "indices": 21,
          "mode": 4,
          "material": 5
        }
      ],
      "name": "Plane006"
    },
    {
      "primitives": [
        {
          "attributes": {
            "POSITION": 25,
            "NORMAL": 26
          },
          "indices": 24,
          "mode": 4,
          "material": 6
        }
      ],
      "name": "Plane007"
    },
    {
      "primitives": [
        {
          "attributes": {
            "POSITION": 28,
            "NORMAL": 29
          },
          "indices": 27,
          "mode": 4,
          "material": 7
        }
      ],
      "name": "Plane008"
    },
    {
      "primitives": [
        {
          "attributes": {
            "POSITION": 31,
            "NORMAL": 32
          },
          "indices": 30,
          "mode": 4,
          "material": 8
        }
      ],
      "name": "Plane009"
    },
    {
      "primitives": [
        {
          "attributes": {
            "POSITION": 34,
            "NORMAL": 35
          },
          "indices": 33,
          "mode": 4,
          "material": 9
        }
      ],
      "name": "Plane010"
    },
    {
      "primitives": [
        {
          "attributes": {
            "POSITION": 37,
            "NORMAL": 38,
            "TEXCOORD_0": 39
          },
          "indices": 36,
          "mode": 4,
          "material": 10
        }
      ],
      "name": "Plane011"
    },
    {
      "primitives": [
        {
          "attributes": {
            "POSITION": 41,
            "NORMAL": 42,
            "TEXCOORD_0": 43
          },
          "indices": 40,
          "mode": 4,
          "material": 11
        }
      ],
      "name": "Plane012"
    },
    {
      "primitives": [
        {
          "attributes": {
            "POSITION": 45,
            "NORMAL": 46,
            "TEXCOORD_0": 47
          },
          "indices": 44,
          "mode": 4,
          "material": 12
        }
      ],
      "name": "Plane013"
    },
    {
      "primitives": [
        {
          "attributes": {
            "POSITION": 49,
            "NORMAL": 50,
            "TEXCOORD_0": 51
          },
          "indices": 48,
          "mode": 4,
          "material": 13
        }
      ],
      "name": "Plane014"
    },
    {
      "primitives": [
        {
          "attributes": {
            "POSITION": 53,
            "NORMAL": 54,
            "TEXCOORD_0": 55
          },
          "indices": 52,
          "mode": 4,
          "material": 14
        }
      ],
      "name": "Plane015"
    },
    {
      "primitives": [
        {
          "attributes": {
            "POSITION": 57,
            "NORMAL": 58,
            "TEXCOORD_0": 59
          },
          "indices": 56,
          "mode": 4,
          "material": 19
        }
      ],
      "name": "Plane016"
    },
    {
      "primitives": [
        {
          "attributes": {
            "POSITION": 61,
            "NORMAL": 62,
            "TEXCOORD_0": 63
          },
          "indices": 60,
          "mode": 4,
          "material": 18
        }
      ],
      "name": "Plane017"
    },
    {
      "primitives": [
        {
          "attributes": {
            "POSITION": 65,
            "NORMAL": 66,
            "TEXCOORD_0": 67
          },
          "indices": 64,
          "mode": 4,
          "material": 17
        }
      ],
      "name": "Plane018"
    },
    {
      "primitives": [
        {
          "attributes": {
            "POSITION": 69,
            "NORMAL": 70,
            "TEXCOORD_0": 71
          },
          "indices": 68,
          "mode": 4,
          "material": 16
        }
      ],
      "name": "Plane019"
    },
    {
      "primitives": [
        {
          "attributes": {
            "POSITION": 73,
            "NORMAL": 74,
            "TEXCOORD_0": 75
          },
          "indices": 72,
          "mode": 4,
          "material": 15
        }
      ],
      "name": "Plane020"
    },
    {
      "primitives": [
        {
          "attributes": {
            "POSITION": 77,
            "NORMAL": 78,
            "TEXCOORD_0": 79
          },
          "indices": 76,
          "mode": 4,
          "material": 20
        }
      ],
      "name": "Plane021"
    },
    {
      "primitives": [
        {
          "attributes": {
            "POSITION": 81,
            "NORMAL": 82,
            "TEXCOORD_0": 83
          },
          "indices": 80,
          "mode": 4,
          "material": 24
        }
      ],
      "name": "Plane022"
    },
    {
      "primitives": [
        {
          "attributes": {
            "POSITION": 85,
            "NORMAL": 86,
            "TEXCOORD_0": 87
          },
          "indices": 84,
          "mode": 4,
          "material": 23
        }
      ],
      "name": "Plane023"
    },
    {
      "primitives": [
        {
          "attributes": {
            "POSITION": 89,
            "NORMAL": 90
          },
          "indices": 88,
          "mode": 4,
          "material": 21
        }
      ],
      "name": "Plane024"
    },
    {
      "primitives": [
        {
          "attributes": {
            "POSITION": 92,
            "NORMAL": 93
          },
          "indices": 91,
          "mode": 4,
          "material": 22
        }
      ],
      "name": "Plane025"
    },
    {
      "primitives": [
        {
          "attributes": {
            "POSITION": 95,
            "NORMAL": 96
          },
          "indices": 94,
          "mode": 4,
          "material": 25
        }
      ],
      "name": "BehindPlanes"
    },
    {
      "primitives": [
        {
          "extensions": {
            "NG2_mesh_lod": {
              "levels": [
                {
                  "indices": 115,
                  "error": 0.017831
                },
                {
                  "indices": 116,
                  "error": 0.02158
                }
              ]
            }
          },
          "attributes": {
            "POSITION": 98,
            "NORMAL": 99
          },
          "indices": 97,
          "mode": 4,
          "material": 26
        }
      ],
      "name": "TextIngredients"
    },
    {
      "primitives": [
        {
          "attributes": {
            "POSITION": 101,
            "NORMAL": 102
          },
          "indices": 100,
          "mode": 4,
          "material": 27
        }
      ],
      "name": "Plane026"
    },
    {
      "primitives": [
        {
          "attributes": {
            "POSITION": 104,
            "NORMAL": 105
          },
          "indices": 103,
          "mode": 4,
          "material": 27
        }
      ],
      "name": "Plane027"
    },
    {
      "primitives": [
        {
          "attributes": {
            "POSITION": 107,
            "NORMAL": 108
          },
          "indices": 106,
          "mode": 4,
          "material": 27
        }
      ],
      "name": "Plane028"
    },
    {
      "primitives": [
        {
          "attributes": {
            "POSITION": 110,
            "NORMAL": 111
          },
          "indices": 109,
          "mode": 4,
          "material": 28
        }
      ],
      "name": "TextBehind"
    }
  ],
  "nodes": [
    {
      "mesh": 0,
      "matrix": [
        1.0,
        0.0,
        0.0,
        0.0,
        0.0,
        1.0,
        4.371138828673793e-08,
        0.0,
        0.0,
        -4.371138828673793e-08,
        1.0,
        0.0,
        0.0,
        0.0,
        0.0,
        1.0
      ],
      "name": "Plane001"
    },
    {
      "mesh": 1,
      "matrix": [
        1.0,
        0.0,
        0.0,
        0.0,
        0.0,
        1.0,
        1.6292068494294654e-07,
        0.0,
        0.0,
        -1.6292068494294654e-07,
        1.0,
        0.0,
        2.4003283977508545,
        0.8563483953475952,
        3.2747291101031806e-08,
        1.0
      ],
      "name": "TextTop"
    },
    {
      "mesh": 2,
      "matrix": [
        1.0,
        0.0,
        0.0,
        0.0,
        0.0,
        1.0,
        1.6292068494294654e-07,
        0.0,
        0.0,
        -1.6292068494294654e-07,
        1.0,
        0.0,
        -0.7469620704650879,
        0.22121655941009521,
        3.2747291101031806e-08,
        1.0
      ],
      "name": "TextSide"
    },
    {
      "mesh": 3,
      "matrix": [
        1.0,
        0.0,
        0.0,
        0.0,
        0.0,
        1.0,
        4.371138828673793e-08,
        0.0,
        0.0,
        -4.371138828673793e-08,
        1.0,
        0.0,
        1.204230546951294,
        0.0,
        0.0,
        1.0
      ],
      "name": "Plane002"
    },
    {
      "mesh": 4,
      "matrix": [
        1.0,
        0.0,
        0.0,
        0.0,
        0.0,
        1.0,
        4.371138828673793e-08,
        0.0,
        0.0,
        -4.371138828673793e-08,
        1.0,
        0.0,
        2.408461093902588,
        0.0,
        0.0,
        1.0
      ],
      "name": "Plane003"
    },
    {
      "mesh": 5,
      "matrix": [
        1.0,
        0.0,
        0.0,
        0.0,
        0.0,
        1.0,
        4.371138828673793e-08,
        0.0,
        0.0,
        -4.371138828673793e-08,
        1.0,
        0.0,
        3.612691640853882,
        0.0,
        0.0,
        1.0
      ],
      "name": "Plane004"
    },
    {
      "mesh": 6,
      "matrix": [
        1.0,
        0.0,
        0.0,
        0.0,
        0.0,
        1.0,
        4.371138828673793e-08,
        0.0,
        0.0,
        -4.371138828673793e-08,
        1.0,
        0.0,
        4.816922187805176,
        0.0,
        0.0,
        1.0
      ],
      "name": "Plane005"
    },
    {
      "mesh": 7,
      "matrix": [
        1.0,
        0.0,
        0.0,
        0.0,
        0.0,
        1.0,
        4.371138828673793e-08,
        0.0,
        0.0,
        -4.371138828673793e-08,
        1.0,
        0.0,
        0.0,
        -1.2142739295959473,
        -5.3077599204698345e-08,
        1.0
      ],
      "name": "Plane006"
    },
    {
      "mesh": 8,
      "matrix": [
        1.0,
        0.0,
        0.0,
        0.0,
        0.0,
        1.0,
        4.371138828673793e-08,
        0.0,
        0.0,
        -4.371138828673793e-08,
        1.0,
        0.0,
        1.204230546951294,
        -1.2142739295959473,
        -5.3077599204698345e-08,
        1.0
      ],
      "name": "Plane007"
    },
    {
      "mesh": 9,
      "matrix": [
        1.0,
        0.0,
        0.0,
        0.0,
        0.0,
        1.0,
        4.371138828673793e-08,
        0.0,
        0.0,
        -4.371138828673793e-08,
        1.0,
        0.0,
        2.408461093902588,
        -1.2142739295959473,
        -5.3077599204698345e-08,
        1.0
      ],
      "name": "Plane008"
    },
    {
      "mesh": 10,
      "matrix": [
        1.0,
        0.0,
        0.0,
        0.0,
        0.0,
        1.0,
        4.371138828673793e-08,
        0.0,
        0.0,
        -4.371138828673793e-08,
        1.0,
        0.0,
        3.612691640853882,
        -1.2142739295959473,
        -5.3077599204698345e-08,
        1.0
      ],
      "name": "Plane009"
    },
    {
      "mesh": 11,
      "matrix": [
        1.0,
        0.0,
        0.0,
        0.0,
        0.0,
        1.0,
        4.371138828673793e-08,
        0.0,
        0.0,
        -4.371138828673793e-08,
        1.0,
        0.0,
        4.816922187805176,
        -1.2142739295959473,
        -5.3077599204698345e-08,
        1.0
      ],
      "name": "Plane010"
    },
    {
      "mesh": 12,
      "matrix": [
        1.0,
        0.0,
        0.0,
        0.0,
        0.0,
        1.0,
        4.371138828673793e-08,
        0.0,
        0.0,
        -4.371138828673793e-08,
        1.0,
        0.0,
        0.0,
        -2.4285478591918945,
        -1.0615519840939669e-07,
        1.0
      ],
      "name": "Plane011"
    },
    {
      "mesh": 13,
      "matrix": [
        1.0,
        0.0,
        0.0,
        0.0,
        0.0,
        1.0,
        4.371138828673793e-08,
        0.0,
        0.0,
        -4.371138828673793e-08,
        1.0,
        0.0,
        1.204230546951294,
        -2.4285478591918945,
        -1.0615519840939669e-07,
        1.0
      ],
      "name": "Plane012"
    },
    {
      "mesh": 14,
      "matrix": [
        1.0,
        0.0,
        0.0,
        0.0,
        0.0,
        1.0,
        4.371138828673793e-08,
        0.0,
        0.0,
        -4.371138828673793e-08,
        1.0,
        0.0,
        2.408461093902588,
        -2.4285478591918945,
        -1.0615519840939669e-07,
        1.0
      ],
      "name": "Plane013"
    },
    {
      "mesh": 15,
      "matrix": [
        1.0,
        0.0,
        0.0,
        0.0,
        0.0,
        1.0,
        4.371138828673793e-08,
        0.0,
        0.0,
        -4.371138828673793e-08,
        1.0,
        0.0,
        3.612691640853882,
        -2.4285478591918945,
        -1.0615519840939669e-07,
        1.0
      ],
      "name": "Plane014"
    },
    {
      "mesh": 16,
      "matrix": [
        1.0,
        0.0,
        0.0,
        0.0,
        0.0,
        1.0,
        4.371138828673793e-08,
        0.0,
        0.0,
        -4.371138828673793e-08,
        1.0,
        0.0,
        4.816922187805176,
        -2.4285478591918945,
        -1.0615519840939669e-07,
        1.0
      ],
      "name": "Plane015"
    },
    {
      "mesh": 17,
      "matrix": [
        1.0,
        0.0,
        0.0,
        0.0,
        0.0,
        1.0,
        4.371138828673793e-08,
        0.0,
        0.0,
        -4.371138828673793e-08,
        1.0,
        0.0,
        0.0,
        -3.6499834060668945,
        -1.0615519840939669e-07,
        1.0
      ],
      "name": "Plane016"
    },
    {
      "mesh": 18,
      "matrix": [
        1.0,
        0.0,
        0.0,
        0.0,
        0.0,
        1.0,
        4.371138828673793e-08,
        0.0,
        0.0,
        -4.371138828673793e-08,
        1.0,
        0.0,
        1.204230546951294,
        -3.6499834060668945,
        -1.0615519840939669e-07,
        1.0
      ],
      "name": "Plane017"
    },
    {
      "mesh": 19,
      "matrix": [
        1.0,
        0.0,
        0.0,
        0.0,
        0.0,
        1.0,
        4.371138828673793e-08,
        0.0,
        0.0,
        -4.371138828673793e-08,
        1.0,
        0.0,
        2.408461093902588,
        -3.6499834060668945,
        -1.0615519840939669e-07,
        1.0
      ],
      "name": "Plane018"
    },
    {
      "mesh": 20,
      "matrix": [
        1.0,
        0.0,
        0.0,
        0.0,
        0.0,
        1.0,
        4.371138828673793e-08,
        0.0,
        0.0,
        -4.371138828673793e-08,
        1.0,
        0.0,
        3.612691640853882,
        -3.6499834060668945,
        -1.0615519840939669e-07,
        1.0
      ],
      "name": "Plane019"
    },
    {
      "mesh": 21,
      "matrix": [
        1.0,
        0.0,
        0.0,
        0.0,
        0.0,
        1.0,
        4.371138828673793e-08,
        0.0,
        0.0,
        -4.371138828673793e-08,
        1.0,
        0.0,
        4.816922187805176,
        -3.6499834060668945,
        -1.0615519840939669e-07,
        1.0
      ],
      "name": "Plane020"
    },
    {
      "mesh": 22,
      "matrix": [
        1.0,
        0.0,
        0.0,
        0.0,
        0.0,
        1.0,
        4.371138828673793e-08,
        0.0,
        0.0,
        -4.371138828673793e-08,
        1.0,
        0.0,
        -0.9469620585441589,
        -2.5241410732269287,
        -9.304177694957616e-08,
        1.0
      ],
      "name": "Plane021"
    },
    {
      "mesh": 23,
      "matrix": [
        1.0,
        0.0,
        0.0,
        0.0,
        0.0,
        1.0,
        4.371138828673793e-08,
        0.0,
        0.0,
        -4.371138828673793e-08,
        1.0,
        0.0,
        -0.9469620585441589,
        -3.7455766201019287,
        -9.304028480983106e-08,
        1.0
      ],
      "name": "Plane022"
    },
    {
      "mesh": 24,
      "matrix": [
        1.0,
        0.0,
        0.0,
        0.0,
        0.0,
        1.0,
        4.371138828673793e-08,
        0.0,
        0.0,
        -4.371138828673793e-08,
        1.0,
        0.0,
        -1.4653472900390625,
        -3.7455766201019287,
        -9.304028480983106e-08,
        1.0
      ],
      "name": "Plane023"
    },
    {
      "mesh": 25,
      "matrix": [
        1.0,
        0.0,
        0.0,
        0.0,
        0.0,
        1.0,
        4.371138828673793e-08,
        0.0,
        0.0,
        -4.371138828673793e-08,
        1.0,
        0.0,
        -0.9469620585441589,
        -1.309867262840271,
        -3.9964177744877816e-08,
        1.0
      ],
      "name": "Plane024"
    },
    {
      "mesh": 26,
      "matrix": [
        1.0,
        0.0,
        0.0,
        0.0,
        0.0,
        1.0,
        4.371138828673793e-08,
        0.0,
        0.0,
        -4.371138828673793e-08,
        1.0,
        0.0,
        -0.9469620585441589,
        -0.09559327363967896,
        1.3113421459820529e-08,
        1.0
      ],
      "name": "Plane025"
    },
    {
      "mesh": 27,
      "matrix": [
        1.0,
        0.0,
        0.0,
        0.0,
        0.0,
        1.0,
        1.6292068494294654e-07,
        0.0,
        0.0,
        -1.6292068494294654e-07,
        1.0,
        0.0,
        2.408461093902588,
        0.0,
        -0.5,
        1.0
      ],
      "name": "BehindPlanes"
    },
    {
      "extensions": {
        "KHR_lights_punctual": {
          "light": 0
        }
      },
      "matrix": [
        1.0,
        0.0,
        0.0,
        0.0,
        0.0,
        -1.0,
        4.371138828673793e-08,
        0.0,
        0.0,
        -4.371138828673793e-08,
        -1.0,
        0.0,
        0.0,
        0.0,
        0.0,
        1.0
      ],
      "name": "DirectLight"
    },
    {
      "mesh": 28,
      "matrix": [
        1.0,
        0.0,
        0.0,
        0.0,
        0.0,
        1.0,
        1.6292068494294654e-07,
        0.0,
        0.0,
        -1.6292068494294654e-07,
        1.0,
        0.0,
        -1.1865673065185547,
        -0.36966466903686523,
        3.2747291101031806e-08,
        1.0
      ],
      "name": "TextIngredients"
    },
    {
      "mesh": 29,
      "matrix": [
        1.0,
        0.0,
        0.0,
        0.0,
        0.0,
        1.0,
        4.371138828673793e-08,
        0.0,
        0.0,
        -4.371138828673793e-08,
        1.0,
        0.0,
        -1.4653472900390625,
        -2.5241410732269287,
        -9.304177694957616e-08,
        1.0
      ],
      "name": "Plane026"
    },
    {
      "mesh": 30,
      "matrix": [
        1.0,
        0.0,
        0.0,
        0.0,
        0.0,
        1.0,
        4.371138828673793e-08,
        0.0,
        0.0,
        -4.371138828673793e-08,
        1.0,
        0.0,
        -1.4653472900390625,
        -1.309867262840271,
        -3.9964177744877816e-08,
        1.0
      ],
      "name": "Plane027"
    },
    {
      "mesh": 31,
      "matrix": [
        1.0,
        0.0,
        0.0,
        0.0,
        0.0,
        1.0,
        4.371138828673793e-08,
        0.0,
        0.0,
        -4.371138828673793e-08,
        1.0,
        0.0,
        -1.4653472900390625,
        -0.09559327363967896,
        1.3113421459820529e-08,
        1.0
      ],
      "name": "Plane028"
    },
    {
      "mesh": 32,
      "matrix": [
        1.0,
        0.0,
        0.0,
        0.0,
        0.0,
        1.0,
        1.6292068494294654e-07,
        0.0,
        0.0,
        -1.6292068494294654e-07,
        1.0,
        0.0,
        2.408461093902588,
        0.0,
        -0.5,
        1.0
      ],
      "name": "TextBehind"
    }
  ],
  "samplers": [
    {
      "wrapS": 10497,
      "wrapT": 10497
    },
    {
      "wrapS": 10497,
      "wrapT": 10497
    },
    {
      "wrapS": 10497,
      "wrapT": 10497
    }
  ],
  "scene": 0,
  "scenes": [
    {
      "nodes": [
        0,
        1,
        2,
        3,
        4,
        5,
        6,
        7,
        8,
        9,
        10,
        11,
        12,
        13,
        14,
        15,
        16,
        17,
        18,
        19,
        20,
        21,
        22,
        23,
        24,
        25,
        26,
        27,
        28,
        29,
        30,
        31,
        32,
        33
      ]
    }
  ],
  "textures": [
    {
      "sampler": 0,
      "source": 0
    },
    {
      "sampler": 1,
      "source": 1
    },
    {
      "sampler": 2,
      "source": 2
    }
  ]
}