{
  "extensions": {
    "KHR_materials_variants": {
      "variants": [
        {
          "name": "Mango Velvet"
        },
        {
          "name": "Peacock Velvet"
        }
      ]
    }
  },
  "accessors": [
    {
      "bufferView": 2,
      "byteOffset": 0,
      "componentType": 5123,
      "normalized": false,
      "count": 78528,
      "type": "SCALAR",
      "name": "accessorIndices"
    },
    {
      "bufferView": 0,
      "byteOffset": 0,
      "componentType": 5126,
      "normalized": false,
      "count": 14350,
      "type": "VEC3",
      "max": [
        0.412535578,
        0.6861773,
        0.293540359
      ],
      "min": [
        -0.4140224,
        0.226573884,
        -0.2767251
      ],
      "name": "accessorPositions"
    },
    {
      "bufferView": 0,
      "byteOffset": 172200,
      "componentType": 5126,
      "normalized": false,
      "count": 14350,
      "type": "VEC3",
      "name": "accessorNormals"
    },
    {
      "bufferView": 1,
      "byteOffset": 0,
      "componentType": 5126,
      "normalized": false,
      "count": 14350,
      "type": "VEC2",
      "name": "accessorUVs"
    },
    {
      "bufferView": 1,
      "byteOffset": 114800,
      "componentType": 5126,
      "normalized": false,
      "count": 14350,
      "type": "VEC2",
      "name": "accessorUV2s"
    },
    {
      "bufferView": 3,
      "byteOffset": 0,
      "componentType": 5123,
      "normalized": false,
      "count": 29376,
      "type": "SCALAR",
      "name": "accessorIndices"
    },
    {
      "bufferView": 0,
      "byteOffset": 344400,
      "componentType": 5126,
      "normalized": false,
      "count": 5508,
      "type": "VEC3",
      "max": [
        0.390372425,
        0.640484333,
        0.2655284
      ],
      "min": [
        -0.39169845,
        0.005148451,
        -0.275435269
      ],
      "name": "accessorPositions"
    },
    {
      "bufferView": 0,
      "byteOffset": 410496,
      "componentType": 5126,
      "normalized": false,
      "count": 5508,
      "type": "VEC3",
      "name": "accessorNormals"
    },
    {
      "bufferView": 1,
      "byteOffset": 229600,
      "componentType": 5126,
      "normalized": false,
      "count": 5508,
      "type": "VEC2",
      "name": "accessorUVs"
    },
    {
      "bufferView": 1,
      "byteOffset": 273664,
      "componentType": 5126,
      "normalized": false,
      "count": 5508,
      "type": "VEC2",
      "name": "accessorUV2s"
    },
    {
      "bufferView": 4,
      "byteOffset": 0,
      "componentType": 5123,
      "normalized": false,
      "count": 11520,
      "type": "SCALAR",
      "name": "accessorIndices"
    },
    {
      "bufferView": 0,
      "byteOffset": 476592,
      "componentType": 5126,
      "normalized": false,
      "count": 2520,
      "type": "VEC3",
      "max": [
        0.3399512,
        0.501481354,
        0.220822945
      ],
      "min": [
        -0.3399512,
        -6.977785e-05,
        -0.239334568
      ],
      "name": "accessorPositions"
    },
    {
      "bufferView": 0,
      "byteOffset": 506832,
      "componentType": 5126,
      "normalized": false,
      "count": 2520,
      "type": "VEC3",
      "name": "accessorNormals"
    },
    {
      "bufferView": 1,
      "byteOffset": 317728,
      "componentType": 5126,
      "normalized": false,
      "count": 2520,
      "type": "VEC2",
      "name": "accessorUVs"
    },
    {
      "bufferView": 1,
      "byteOffset": 337888,
      "componentType": 5126,
      "normalized": false,
      "count": 2520,
      "type": "VEC2",
      "name": "accessorUV2s"
    },
    {
      "bufferView": 5,
      "byteOffset": 0,
      "componentType": 5123,
      "normalized": false,
      "count": 384,
      "type": "SCALAR",
      "name": "accessorIndices"
    },
    {
      "bufferView": 0,
      "byteOffset": 537072,
      "componentType": 5126,
      "normalized": false,
      "count": 81,
      "type": "VEC3",
      "max": [
        0.136181846,
        0.0100558968,
        0.0467727147
      ],
      "min": [
        -0.135885492,
        0.005801852,
        -0.110709868
      ],
      "name": "accessorPositions"
    },
    {
      "bufferView": 0,
      "byteOffset": 538044,
      "componentType": 5126,
      "normalized": false,
      "count": 81,
      "type": "VEC3",
      "name": "accessorNormals"
    },
    {
      "bufferView": 1,
      "byteOffset": 358048,
      "componentType": 5126,
      "normalized": false,
      "count": 81,
      "type": "VEC2",
      "name": "accessorUVs"
    },
    {
      "bufferView": 1,
      "byteOffset": 358696,
      "componentType": 5126,
      "normalized": false,
      "count": 81,
      "type": "VEC2",
      "name": "accessorUV2s"
    },
    {
      "bufferView": 2,
      "byteOffset": 157056,
      "componentType": 5123,
      "normalized": false,
      "count": 39264,
      "type": "SCALAR"
    },
    {
      "bufferView": 2,
      "byteOffset": 235584,
      "componentType": 5123,
      "normalized": false,
      "count": 19632,
      "type": "SCALAR"
    },
    {
      "bufferView": 3,
      "byteOffset": 58752,
      "componentType": 5123,
      "normalized": false,
      "count": 14688,
      "type": "SCALAR"
    },
    {
      "bufferView": 3,
      "byteOffset": 88128,
      "componentType": 5123,
      "normalized": false,
      "count": 7344,
      "type": "SCALAR"
    },
    {
      "bufferView": 4,
      "byteOffset": 23040,
      "componentType": 5123,
      "normalized": false,
      "count": 5760,
      "type": "SCALAR"
    },
    {
      "bufferView": 4,
      "byteOffset": 34560,
      "componentType": 5123,
      "normalized": false,
      "count": 2880,
      "type": "SCALAR"
    },
    {
      "bufferView": 5,
      "byteOffset": 768,
      "componentType": 5123,
      "normalized": false,
      "count": 192,
      "type": "SCALAR"
    },
    {
      "bufferView": 5,
      "byteOffset": 1152,
      "componentType": 5123,
      "normalized": false,
      "count": 96,
      "type": "SCALAR"
    }
  ],
  "asset": {
    "generator": "GDS lod baker 1",
    "version": "2.0"
  },
  "bufferViews": [
    {
      "buffer": 0,
      "byteOffset": 0,
      "byteLength": 539016,
      "byteStride": 12,
      "target": 34962,
      "name": "bufferViewFloatVec3"
    },
    {
      "buffer": 0,
      "byteOffset": 539016,
      "byteLength": 359344,
      "byteStride": 8,
      "target": 34962,
      "name": "bufferViewFloatVec2"
    },
    {
      "buffer": 0,
      "byteOffset": 898360,
      "byteLength": 274848,
      "target": 34963
    },
    {
      "buffer": 0,
      "byteOffset": 1173208,
      "byteLength": 102816,
      "target": 34963
    },
    {
      "buffer": 0,
      "byteOffset": 1276024,
      "byteLength": 40320,
      "target": 34963
    },
    {
      "buffer": 0,
      "byteOffset": 1316344,
      "byteLength": 1344,
      "target": 34963
    }
  ],
  "buffers": [
    {
      "uri": "SheenChairLOD.bin",
      "byteLength": 1317688
    }
  ],
  "extensionsUsed": [
    "KHR_texture_transform",
    "KHR_materials_sheen",
    "KHR_materials_variants",
    "NG2_mesh_lod"
  ],
  "extensionsRequired": [
    "KHR_texture_transform"
  ],
  "images": [
    {
      "uri": "./chair_fabric_normal.png"
    },
    {
      "uri": "./chair_occlusion.png"
    },
    {
      "uri": "./chair_fabric_albedo.png"
    },
    {
      "uri": "./chair_wood_albedo.png"
    },
    {
      "uri": "./chair_woodbrown_roughnessmetallic.png"
    },
    {
      "uri": "./chair_label.png"
    },
    {
      "uri": "./chair_woodblack_roughnessmetallic.png"
    }
  ],
  "materials": [
    {
      "extensions": {
        "KHR_materials_sheen": {
          "sheenColorFactor": [
            1.0,
            0.329,
            0.1
          ],
          "sheenRoughnessFactor": 0.8
        }
      },
      "pbrMetallicRoughness": {
        "baseColorFactor": [
          0.883,
          0.035,
          0.0,
          1.0
        ],
        "metallicFactor": 0.0,
        "roughnessFactor": 0.8,
        "baseColorTexture": {
          "extensions": {
            "KHR_texture_transform": {
              "offset": [
                -3.0,
                3.0
              ],
              "scale": [
                7.0,
                7.0
              ],
              "texCoord": 0
            }
          },
          "index": 2,
          "texCoord": 0
        }
      },
      "normalTexture": {
        "extensions": {
          "KHR_texture_transform": {
            "offset": [
              -0.5,
              0.5
            ],
            "scale": [
              2.0,
              2.0
            ],
            "texCoord": 0
          }
        },
        "index": 0,
        "scale": 0.6
      },
      "occlusionTexture": {
        "extensions": {
          "KHR_texture_transform": {
            "texCoord": 1
          }
        },
        "index": 1,
        "texCoord": 1,
        "strength": 1.0
      },
      "emissiveFactor": [
        0.0,
        0.0,
        0.0
      ],
      "alphaMode": "OPAQUE",
      "doubleSided": false,
      "name": "fabric Mystere Mango Velvet"
    },
    {
      "pbrMetallicRoughness": {
        "baseColorFactor": [
          0.14,
          0.07,
          0.01,
          1.0
        ],
        "metallicFactor": 1.0,
        "roughnessFactor": 1.0,
        "baseColorTexture": {
          "extensions": {
            "KHR_texture_transform": {
              "offset": [
                -0.8635584,
                1.12502563
              ],
              "rotation": 0.08726647,
              "scale": [
                3.0,
                3.0
              ],
              "texCoord": 0
            }
          },
          "index": 3,
          "texCoord": 0
        },
        "metallicRoughnessTexture": {
          "extensions": {
            "KHR_texture_transform": {
              "offset": [
                -0.8635584,
                1.12502563
              ],
              "rotation": 0.08726647,
              "scale": [
                3.0,
                3.0
              ],
              "texCoord": 0
            }
          },
          "index": 4,
          "texCoord": 0
        }
      },
      "occlusionTexture": {
        "extensions": {
          "KHR_texture_transform": {
            "texCoord": 1
          }
        },
        "index": 1,
        "texCoord": 1,
        "strength": 1.0
      },
      "emissiveFactor": [
        0.0,
        0.0,
        0.0
      ],
      "alphaMode": "OPAQUE",
      "doubleSided": false,
      "name": "wood Brown"
    },
    {
      "pbrMetallicRoughness": {
        "baseColorFactor": [
          0.28,
          0.26,
          0.23,
          1.0
        ],
        "metallicFactor": 1.0,
        "roughnessFactor": 0.3
      },
      "occlusionTexture": {
        "extensions": {
          "KHR_texture_transform": {
            "texCoord": 1
          }
        },
        "index": 1,
        "texCoord": 1,
        "strength": 1.0
      },
      "emissiveFactor": [
        0.0,
        0.0,
        0.0
      ],
      "alphaMode": "OPAQUE",
      "doubleSided": false,
      "name": "metal"
    },
    {
      "pbrMetallicRoughness": {
        "baseColorFactor": [
          1.0,
          1.0,
          1.0,
          1.0
        ],
        "metallicFactor": 0.0,
        "roughnessFactor": 1.0,
        "baseColorTexture": {
          "extensions": {
            "KHR_texture_transform": {
              "texCoord": 0
            }
          },
          "index": 5,
          "texCoord": 0
        }
      },
      "occlusionTexture": {
        "extensions": {
          "KHR_texture_transform": {
            "texCoord": 1
          }
        },
        "index": 1,
        "texCoord": 1,
        "strength": 1.0
      },
      "emissiveFactor": [
        0.0,
        0.0,
        0.0
      ],
      "alphaMode": "OPAQUE",
      "doubleSided": false,
      "name": "label"
    },
    {
      "extensions": {
        "KHR_materials_sheen": {
          "sheenColorFactor": [
            0.013,
            0.284,
            0.298
          ],
          "sheenRoughnessFactor": 0.8
        }
      },
      "pbrMetallicRoughness": {
        "baseColorFactor": [
          0.0,
          0.094,
          0.099,
          1.0
        ],
        "metallicFactor": 1.0,
        "roughnessFactor": 0.8,
        "baseColorTexture": {
          "extensions": {
            "KHR_texture_transform": {
              "offset": [
                -3.0,
                3.0
              ],
              "scale": [
                7.0,
                7.0
              ],
              "texCoord": 0
            }
          },
          "index": 2,
          "texCoord": 0
        }
      },
      "normalTexture": {
        "extensions": {
          "KHR_texture_transform": {
            "offset": [
              -0.5,
              0.5
            ],
            "scale": [
              2.0,
              2.0
            ],
            "texCoord": 0
          }
        },
        "index": 0,
        "scale": 0.6
      },
      "occlusionTexture": {
        "extensions": {
          "KHR_texture_transform": {
            "texCoord": 1
          }
        },
        "index": 1,
        "texCoord": 1,
        "strength": 1.0
      },
      "emissiveFactor": [
        0.0,
        0.0,
        0.0
      ],
      "alphaMode": "OPAQUE",
      "doubleSided": false,
      "name": "fabric Mystere Peacock Velvet"
    },
    {
      "pbrMetallicRoughness": {
        "baseColorFactor": [
          0.036,
          0.036,
          0.036,
          1.0
        ],
        "metallicFactor": 1.0,
        "roughnessFactor": 1.0,
        "baseColorTexture": {
          "extensions": {
            "KHR_texture_transform": {
              "offset": [
                -0.8635584,
                1.12502563
              ],
              "rotation": 0.08726647,
              "scale": [
                3.0,
                3.0
              ],
              "texCoord": 0
            }
          },
          "index": 3,
          "texCoord": 0
        },
        "metallicRoughnessTexture": {
          "extensions": {
            "KHR_texture_transform": {
              "offset": [
                -0.8635584,
                1.12502563
              ],
              "rotation": 0.08726647,
              "scale": [
                3.0,
                3.0
              ],
              "texCoord": 0
            }
          },
          "index": 6,
          "texCoord": 0
        }
      },
      "occlusionTexture": {
        "extensions": {
          "KHR_texture_transform": {
            "texCoord": 1
          }
        },
        "index": 1,
        "texCoord": 1,
        "strength": 1.0
      },
      "emissiveFactor": [
        0.0,
        0.0,
        0.0
      ],
      "alphaMode": "OPAQUE",
      "doubleSided": false,
      "name": "wood Black"
    }
  ],
  "meshes": [
    {
      "primitives": [
        {
          "extensions": {
            "KHR_materials_variants": {
              "mappings": [
                {
                  "material": 0,
                  "variants": [
                    0
                  ]
                },
                {
                  "material": 4,
                  "variants": [
                    1
                  ]
                }
              ]
            },
            "NG2_mesh_lod": {
              "levels": [
                {
                  "indices": 20,
                  "error": 0.000684
                },
                {
                  "indices": 21,
                  "error": 0.00171
                }
              ]
            }
          },
          "attributes": {
            "POSITION": 1,
            "NORMAL": 2,
            "TEXCOORD_0": 3,
            "TEXCOORD_1": 4
          },
          "indices": 0,
          "mode": 4,
          "material": 0
        }
      ],
      "name": "SheenChair_fabric"
    },
    {
      "primitives": [
        {
          "extensions": {
            "KHR_materials_variants": {
              "mappings": [
                {
                  "material": 1,
                  "variants": [
                    0
                  ]
                },
                {
                  "material": 5,
                  "variants": [
                    1
                  ]
                }
              ]
            },
            "NG2_mesh_lod": {
              "levels": [
                {
                  "indices": 22,
                  "error": 0.000531
                },
                {
                  "indices": 23,
                  "error": 0.001821
                }
              ]
            }
          },
          "attributes": {
            "POSITION": 6,
            "NORMAL": 7,
            "TEXCOORD_0": 8,
            "TEXCOORD_1": 9
          },
          "indices": 5,
          "mode": 4,
          "material": 1
        }
      ],
      "name": "SheenChair_wood"
    },
    {
      "primitives": [
        {
          "extensions": {
            "NG2_mesh_lod": {
              "levels": [
                {
                  "indices": 24,
                  "error": 0.000332
                },
                {
                  "indices": 25,
                  "error": 0.000891
                }
              ]
            }
          },
          "attributes": {
            "POSITION": 11,
            "NORMAL": 12,
            "TEXCOORD_0": 13,
            "TEXCOORD_1": 14
          },
          "indices": 10,
          "mode": 4,
          "material": 2
        }
      ],
      "name": "SheenChair_metal"
    },
    {
      "primitives": [
        {
          "extensions": {
            "NG2_mesh_lod": {
              "levels": [
                {
                  "indices": 26,
                  "error": 0.000189
                },
                {
                  "indices": 27,
                  "error": 0.00183
                }
              ]
            }
          },
          "attributes": {
            "POSITION": 16,
            "NORMAL": 17,
            "TEXCOORD_0": 18,
            "TEXCOORD_1": 19
          },
          "indices": 15,
          "mode": 4,
          "material": 3
        }
      ],
      "name": "SheenChair_label"
    }
  ],
  "nodes": [
    {
      "mesh": 0,
      "name": "SheenChair_fabric"
    },
    {
      "mesh": 1,
      "name": "SheenChair_wood"
    },
    {
      "mesh": 2,
      "name": "SheenChair_metal"
    },
    {
      "mesh": 3,
      "rotation": [
        -0.0436193831,
        0.0,
        0.0,
        0.999048233
      ],
      "translation": [
        -0.0006629925,
        0.23622,
        0.0596007444
      ],
      "name": "SheenChair_label"
    }
  ],
  "samplers": [
    {
      "magFilter": 9729,
      "minFilter": 9987,
      "wrapS": 10497,
      "wrapT": 10497
    }
  ],
  "scene": 0,
  "scenes": [
    {
      "nodes": [
        0,
        1,
        2,
        3
      ]
    }
  ],
  "textures": [
    {
      "sampler": 0,
      "source": 0,
      "name": "chair_fabric_normal.png"
    },
    {
      "sampler": 0,
      "source": 1,
      "name": "chair_occlusion.png"
    },
    {
      "sampler": 0,
      "source": 2,
      "name": "chair_fabric_albedo.png"
    },
    {
      "sampler": 0,
      "source": 3,
      "name": "chair_wood_albedo.png"
    },
    {
      "sampler": 0,
      "source": 4,
      "name": "chair_woodbrown_roughnessmetallic.png"
    },
    {
      "sampler": 0,
      "source": 5,
      "name": "chair_label.png"
    },
    {
      "sampler": 0,
      "source": 6,
      "name": "chair_woodblack_roughnessmetallic.png"
    }
  ]
}