{
  "accessors": [
    {
      "bufferView": 0,
      "byteOffset": 0,
      "componentType": 5126,
      "normalized": false,
      "count": 24,
      "type": "VEC3",
      "max": [
        2.0,
        0.0,
        0.5
      ],
      "min": [
        -2.0,
        -0.10000002384185791,
        -0.5
      ]
    },
    {
      "bufferView": 1,
      "byteOffset": 0,
      "componentType": 5126,
      "normalized": false,
      "count": 24,
      "type": "VEC3"
    },
    {
      "bufferView": 2,
      "byteOffset": 0,
      "componentType": 5126,
      "normalized": false,
      "count": 24,
      "type": "VEC2"
    },
    {
      "bufferView": 3,
      "byteOffset": 0,
      "componentType": 5126,
      "normalized": false,
      "count": 24,
      "type": "VEC2"
    },
    {
      "bufferView": 46,
      "byteOffset": 0,
      "componentType": 5123,
      "normalized": false,
      "count": 36,
      "type": "SCALAR"
    },
    {
      "bufferView": 4,
      "byteOffset": 0,
      "componentType": 5126,
      "normalized": false,
      "count": 24,
      "type": "VEC3",
      "max": [
        0.0,
        0.0,
        0.0
      ],
      "min": [
        0.0,
        0.0,
        0.0
      ]
    },
    {
      "bufferView": 5,
      "byteOffset": 0,
      "componentType": 5126,
      "normalized": false,
      "count": 24,
      "type": "VEC3"
    },
    {
      "bufferView": 6,
      "byteOffset": 0,
      "componentType": 5126,
      "normalized": false,
      "count": 24,
      "type": "VEC3",
      "max": [
        0.0,
        0.0,
        0.0
      ],
      "min": [
        0.0,
        0.0,
        0.0
      ]
    },
    {
      "bufferView": 7,
      "byteOffset": 0,
      "componentType": 5126,
      "normalized": false,
      "count": 24,
      "type": "VEC3"
    },
    {
      "bufferView": 8,
      "byteOffset": 0,
      "componentType": 5126,
      "normalized": false,
      "count": 24,
      "type": "VEC3",
      "max": [
        0.0,
        0.0,
        0.0
      ],
      "min": [
        0.0,
        0.0,
        0.0
      ]
    },
    {
      "bufferView": 9,
      "byteOffset": 0,
      "componentType": 5126,
      "normalized": false,
      "count": 24,
      "type": "VEC3"
    },
    {
      "bufferView": 10,
      "byteOffset": 0,
      "componentType": 5126,
      "normalized": false,
      "count": 24,
      "type": "VEC3",
      "max": [
        0.0,
        0.0,
        0.0
      ],
      "min": [
        0.0,
        0.0,
        0.0
      ]
    },
    {
      "bufferView": 11,
      "byteOffset": 0,
      "componentType": 5126,
      "normalized": false,
      "count": 24,
      "type": "VEC3"
    },
    {
      "bufferView": 12,
      "byteOffset": 0,
      "componentType": 5126,
      "normalized": false,
      "count": 24,
      "type": "VEC3",
      "max": [
        0.0,
        0.0,
        0.0
      ],
      "min": [
        0.0,
        0.0,
        0.0
      ]
    },
    {
      "bufferView": 13,
      "byteOffset": 0,
      "componentType": 5126,
      "normalized": false,
      "count": 24,
      "type": "VEC3"
    },
    {
      "bufferView": 14,
      "byteOffset": 0,
      "componentType": 5126,
      "normalized": false,
      "count": 24,
      "type": "VEC3",
      "max": [
        0.0,
        0.0,
        0.0
      ],
      "min": [
        0.0,
        0.0,
        0.0
      ]
    },
    {
      "bufferView": 15,
      "byteOffset": 0,
      "componentType": 5126,
      "normalized": false,
      "count": 24,
      "type": "VEC3"
    },
    {
      "bufferView": 16,
      "byteOffset": 0,
      "componentType": 5126,
      "normalized": false,
      "count": 24,
      "type": "VEC3",
      "max": [
        0.0,
        0.0,
        0.0
      ],
      "min": [
        0.0,
        0.0,
        0.0
      ]
    },
    {
      "bufferView": 17,
      "byteOffset": 0,
      "componentType": 5126,
      "normalized": false,
      "count": 24,
      "type": "VEC3"
    },
    {
      "bufferView": 18,
      "byteOffset": 0,
      "componentType": 5126,
      "normalized": false,
      "count": 24,
      "type": "VEC3",
      "max": [
        0.0,
        0.0,
        0.0
      ],
      "min": [
        0.0,
        0.0,
        0.0
      ]
    },
    {
      "bufferView": 19,
      "byteOffset": 0,
      "componentType": 5126,
      "normalized": false,
      "count": 24,
      "type": "VEC3"
    },
    {
      "bufferView": 20,
      "byteOffset": 0,
      "componentType": 5126,
      "normalized": false,
      "count": 1504,
      "type": "VEC3",
      "max": [
        1.875,
        0.5,
        0.25
      ],
      "min": [
        -1.875,
        0.0,
        -0.25
      ]
    },
    {
      "bufferView": 21,
      "byteOffset": 0,
      "componentType": 5126,
      "normalized": false,
      "count": 1504,
      "type": "VEC3"
    },
    {
      "bufferView": 22,
      "byteOffset": 0,
      "componentType": 5126,
      "normalized": false,
      "count": 1504,
      "type": "VEC2"
    },
    {
      "bufferView": 23,
      "byteOffset": 0,
      "componentType": 5126,
      "normalized": false,
      "count": 1504,
      "type": "VEC2"
    },
    {
      "bufferView": 47,
      "byteOffset": 0,
      "componentType": 5123,
      "normalized": false,
      "count": 7200,
      "type": "SCALAR"
    },
    {
      "bufferView": 24,
      "byteOffset": 0,
      "componentType": 5126,
      "normalized": false,
      "count": 1504,
      "type": "VEC3",
      "max": [
        0.04999995231628418,
        1.0,
        0.0
      ],
      "min": [
        -0.04999995231628418,
        0.0,
        0.0
      ]
    },
    {
      "bufferView": 25,
      "byteOffset": 0,
      "componentType": 5126,
      "normalized": false,
      "count": 1504,
      "type": "VEC3"
    },
    {
      "bufferView": 26,
      "byteOffset": 0,
      "componentType": 5126,
      "normalized": false,
      "count": 1504,
      "type": "VEC3",
      "max": [
        0.04999995231628418,
        1.0,
        0.0
      ],
      "min": [
        -0.04999995231628418,
        0.0,
        0.0
      ]
    },
    {
      "bufferView": 27,
      "byteOffset": 0,
      "componentType": 5126,
      "normalized": false,
      "count": 1504,
      "type": "VEC3"
    },
    {
      "bufferView": 28,
      "byteOffset": 0,
      "componentType": 5126,
      "normalized": false,
      "count": 1504,
      "type": "VEC3",
      "max": [
        0.050000011920928955,
        1.0,
        0.0
      ],
      "min": [
        -0.050000011920928955,
        0.0,
        0.0
      ]
    },
    {
      "bufferView": 29,
      "byteOffset": 0,
      "componentType": 5126,
      "normalized": false,
      "count": 1504,
      "type": "VEC3"
    },
    {
      "bufferView": 30,
      "byteOffset": 0,
      "componentType": 5126,
      "normalized": false,
      "count": 1504,
      "type": "VEC3",
      "max": [
        0.050000011920928955,
        1.0,
        0.0
      ],
      "min": [
        -0.04999999701976776,
        0.0,
        0.0
      ]
    },
    {
      "bufferView": 31,
      "byteOffset": 0,
      "componentType": 5126,
      "normalized": false,
      "count": 1504,
      "type": "VEC3"
    },
    {
      "bufferView": 32,
      "byteOffset": 0,
      "componentType": 5126,
      "normalized": false,
      "count": 1504,
      "type": "VEC3",
      "max": [
        0.04999999701976776,
        1.0,
        0.0
      ],
      "min": [
        -0.050000011920928955,
        0.0,
        0.0
      ]
    },
    {
      "bufferView": 33,
      "byteOffset": 0,
      "componentType": 5126,
      "normalized": false,
      "count": 1504,
      "type": "VEC3"
    },
    {
      "bufferView": 34,
      "byteOffset": 0,
      "componentType": 5126,
      "normalized": false,
      "count": 1504,
      "type": "VEC3",
      "max": [
        0.050000011920928955,
        1.0,
        0.0
      ],
      "min": [
        -0.050000011920928955,
        0.0,
        0.0
      ]
    },
    {
      "bufferView": 35,
      "byteOffset": 0,
      "componentType": 5126,
      "normalized": false,
      "count": 1504,
      "type": "VEC3"
    },
    {
      "bufferView": 36,
      "byteOffset": 0,
      "componentType": 5126,
      "normalized": false,
      "count": 1504,
      "type": "VEC3",
      "max": [
        0.04999995231628418,
        1.0,
        0.0
      ],
      "min": [
        -0.04999995231628418,
        0.0,
        0.0
      ]
    },
    {
      "bufferView": 37,
      "byteOffset": 0,
      "componentType": 5126,
      "normalized": false,
      "count": 1504,
      "type": "VEC3"
    },
    {
      "bufferView": 38,
      "byteOffset": 0,
      "componentType": 5126,
      "normalized": false,
      "count": 1504,
      "type": "VEC3",
      "max": [
        0.04999995231628418,
        1.0,
        0.0
      ],
      "min": [
        -0.04999995231628418,
        0.0,
        0.0
      ]
    },
    {
      "bufferView": 39,
      "byteOffset": 0,
      "componentType": 5126,
      "normalized": false,
      "count": 1504,
      "type": "VEC3"
    },
    {
      "bufferView": 40,
      "byteOffset": 0,
      "componentType": 5126,
      "normalized": false,
      "count": 281,
      "type": "SCALAR",
      "max": [
        9.366666666666667
      ],
      "min": [
        0.03333333333333333
      ]
    },
    {
      "bufferView": 41,
      "byteOffset": 0,
      "componentType": 5126,
      "normalized": false,
      "count": 2248,
      "type": "SCALAR"
    },
    {
      "bufferView": 42,
      "byteOffset": 0,
      "componentType": 5126,
      "normalized": false,
      "count": 59,
      "type": "SCALAR",
      "max": [
        1.9666666666666666
      ],
      "min": [
        0.03333333333333333
      ]
    },
    {
      "bufferView": 43,
      "byteOffset": 0,
      "componentType": 5126,
      "normalized": false,
      "count": 472,
      "type": "SCALAR"
    },
    {
      "bufferView": 44,
      "byteOffset": 0,
      "componentType": 5126,
      "normalized": false,
      "count": 191,
      "type": "SCALAR",
      "max": [
        6.366666666666666
      ],
      "min": [
        0.03333333333333333
      ]
    },
    {
      "bufferView": 45,
      "byteOffset": 0,
      "componentType": 5126,
      "normalized": false,
      "count": 1528,
      "type": "SCALAR"
    },
    {
      "bufferView": 47,
      "byteOffset": 14400,
      "componentType": 5123,
      "normalized": false,
      "count": 3600,
      "type": "SCALAR"
    },
    {
      "bufferView": 47,
      "byteOffset": 21600,
      "componentType": 5123,
      "normalized": false,
      "count": 1800,
      "type": "SCALAR"
    }
  ],
  "animations": [
    {
      "name": "Individuals",
      "channels": [
        {
          "sampler": 0,
          "target": {
            "node": 0,
            "path": "weights"
          }
        }
      ],
      "samplers": [
        {
          "input": 42,
          "interpolation": "LINEAR",
          "output": 43
        }
      ]
    },
    {
      "name": "TheWave",
      "channels": [
        {
          "sampler": 0,
          "target": {
            "node": 0,
            "path": "weights"
          }
        }
      ],
      "samplers": [
        {
          "input": 44,
          "interpolation": "LINEAR",
          "output": 45
        }
      ]
    },
    {
      "name": "Pulse",
      "channels": [
        {
          "sampler": 0,
          "target": {
            "node": 0,
            "path": "weights"
          }
        }
      ],
      "samplers": [
        {
          "input": 46,
          "interpolation": "LINEAR",
          "output": 47
        }
      ]
    }
  ],
  "asset": {
    "generator": "GDS lod baker 1",
    "copyright": "CC-BY 4.0 Copyright 2021 Analytical Graphics, Inc. Model and Textures by Ed Mackey.",
    "version": "2.0"
  },
  "bufferViews": [
    {
      "buffer": 0,
      "byteOffset": 0,
      "byteLength": 288
    },
    {
      "buffer": 0,
      "byteOffset": 288,
      "byteLength": 288
    },
    {
      "buffer": 0,
      "byteOffset": 576,
      "byteLength": 192
    },
    {
      "buffer": 0,
      "byteOffset": 768,
      "byteLength": 192
    },
    {
      "buffer": 0,
      "byteOffset": 960,
      "byteLength": 288
    },
    {
      "buffer": 0,
      "byteOffset": 1248,
      "byteLength": 288
    },
    {
      "buffer": 0,
      "byteOffset": 1536,
      "byteLength": 288
    },
    {
      "buffer": 0,
      "byteOffset": 1824,
      "byteLength": 288
    },
    {
      "buffer": 0,
      "byteOffset": 2112,
      "byteLength": 288
    },
    {
      "buffer": 0,
      "byteOffset": 2400,
      "byteLength": 288
    },
    {
      "buffer": 0,
      "byteOffset": 2688,
      "byteLength": 288
    },
    {
      "buffer": 0,
      "byteOffset": 2976,
      "byteLength": 288
    },
    {
      "buffer": 0,
      "byteOffset": 3264,
      "byteLength": 288
    },
    {
      "buffer": 0,
      "byteOffset": 3552,
      "byteLength": 288
    },
    {
      "buffer": 0,
      "byteOffset": 3840,
      "byteLength": 288
    },
    {
      "buffer": 0,
      "byteOffset": 4128,
      "byteLength": 288
    },
    {
      "buffer": 0,
      "byteOffset": 4416,
      "byteLength": 288
    },
    {
      "buffer": 0,
      "byteOffset": 4704,
      "byteLength": 288
    },
    {
      "buffer": 0,
      "byteOffset": 4992,
      "byteLength": 288
    },
    {
      "buffer": 0,
      "byteOffset": 5280,
      "byteLength": 288
    },
    {
      "buffer": 0,
      "byteOffset": 5568,
      "byteLength": 18048
    },
    {
      "buffer": 0,
      "byteOffset": 23616,
      "byteLength": 18048
    },
    {
      "buffer": 0,
      "byteOffset": 41664,
      "byteLength": 12032
    },
    {
      "buffer": 0,
      "byteOffset": 53696,
      "byteLength": 12032
    },
    {
      "buffer": 0,
      "byteOffset": 65728,
      "byteLength": 18048
    },
    {
      "buffer": 0,
      "byteOffset": 83776,
      "byteLength": 18048
    },
    {
      "buffer": 0,
      "byteOffset": 101824,
      "byteLength": 18048
    },
    {
      "buffer": 0,
      "byteOffset": 119872,
      "byteLength": 18048
    },
    {
      "buffer": 0,
      "byteOffset": 137920,
      "byteLength": 18048
    },
    {
      "buffer": 0,
      "byteOffset": 155968,
      "byteLength": 18048
    },
    {
      "buffer": 0,
      "byteOffset": 174016,
      "byteLength": 18048
    },
    {
      "buffer": 0,
      "byteOffset": 192064,
      "byteLength": 18048
    },
    {
      "buffer": 0,
      "byteOffset": 210112,
      "byteLength": 18048
    },
    {
      "buffer": 0,
      "byteOffset": 228160,
      "byteLength": 18048
    },
    {
      "buffer": 0,
      "byteOffset": 246208,
      "byteLength": 18048
    },
    {
      "buffer": 0,
      "byteOffset": 264256,
      "byteLength": 18048
    },
    {
      "buffer": 0,
      "byteOffset": 282304,
      "byteLength": 18048
    },
    {
      "buffer": 0,
      "byteOffset": 300352,
      "byteLength": 18048
    },
    {
      "buffer": 0,
      "byteOffset": 318400,
      "byteLength": 18048
    },
    {
      "buffer": 0,
      "byteOffset": 336448,
      "byteLength": 18048
    },
    {
      "buffer": 0,
      "byteOffset": 354496,
      "byteLength": 1124
    },
    {
      "buffer": 0,
      "byteOffset": 355620,
      "byteLength": 8992
    },
    {
      "buffer": 0,
      "byteOffset": 364612,
      "byteLength": 236
    },
    {
      "buffer": 0,
      "byteOffset": 364848,
      "byteLength": 1888
    },
    {
      "buffer": 0,
      "byteOffset": 366736,
      "byteLength": 764
    },
    {
      "buffer": 0,
      "byteOffset": 367500,
      "byteLength": 6112
    },
    {
      "buffer": 0,
      "byteOffset": 373612,
      "byteLength": 72,
      "target": 34963
    },
    {
      "buffer": 0,
      "byteOffset": 373684,
      "byteLength": 25200,
      "target": 34963
    }
  ],
  "buffers": [
    {
      "uri": "MorphStressTestLOD.bin",
      "byteLength": 398884
    }
  ],
  "extensionsUsed": [
    "NG2_mesh_lod"
  ],
  "images": [
    {
      "uri": "Base_AO.png",
      "mimeType": "image/png",
      "name": "Base_AO"
    },
    {
      "uri": "TinyGrid.png",
      "mimeType": "image/png",
      "name": "TinyGrid"
    },
    {
      "uri": "ColorSwatches.png",
      "mimeType": "image/png",
      "name": "ColorSwatches"
    }
  ],
  "materials": [
    {
      "pbrMetallicRoughness": {
        "baseColorFactor": [
          1.0,
          1.0,
          1.0,
          1.0
        ],
        "metallicFactor": 0.0,
        "roughnessFactor": 0.4000000059604645,
        "baseColorTexture": {
          "index": 1,
          "texCoord": 0
        }
      },
      "occlusionTexture": {
        "index": 0,
        "texCoord": 1,
        "strength": 1.0
      },
      "emissiveFactor": [
        0.0,
        0.0,
        0.0
      ],
      "alphaMode": "OPAQUE",
      "doubleSided": true,
      "name": "Base"
    },
    {
      "pbrMetallicRoughness": {
        "baseColorFactor": [
          1.0,
          1.0,
          1.0,
          1.0
        ],
        "metallicFactor": 0.0,
        "roughnessFactor": 0.5,
        "baseColorTexture": {
          "index": 2,
          "texCoord": 0
        }
      },
      "emissiveFactor": [
        0.0,
        0.0,
        0.0
      ],
      "alphaMode": "OPAQUE",
      "doubleSided": true,
      "name": "TestMaterial"
    }
  ],
  "meshes": [
    {
      "extras": {
        "targetNames": [
          "Key 1",
          "Key 2",
          "Key 3",
          "Key 4",
          "Key 5",
          "Key 6",
          "Key 7",
          "Key 8"
        ]
      },
      "primitives": [
        {
          "attributes": {
            "POSITION": 0,
            "NORMAL": 1,
            "TEXCOORD_0": 2,
            "TEXCOORD_1": 3
          },
          "indices": 4,
          "mode": 4,
          "material": 0,
          "targets": [
            {
              "POSITION": 5,
              "NORMAL": 6
            },
            {
              "POSITION": 7,
              "NORMAL": 8
            },
            {
              "POSITION": 9,
              "NORMAL": 10
            },
            {
              "POSITION": 11,
              "NORMAL": 12
            },
            {
              "POSITION": 13,
              "NORMAL": 14
            },
            {
              "POSITION": 15,
              "NORMAL": 16
            },
            {
              "POSITION": 17,
              "NORMAL": 18
            },
            {
              "POSITION": 19,
              "NORMAL": 20
            }
          ]
        },
        {
          "extensions": {
            "NG2_mesh_lod": {
              "levels": [
                {
                  "indices": 48,
                  "error": 0.007087
                },
                {
                  "indices": 49,
                  "error": 0.024522
                }
              ]
            }
          },
          "attributes": {
            "POSITION": 21,
            "NORMAL": 22,
            "TEXCOORD_0": 23,
            "TEXCOORD_1": 24
          },
          "indices": 25,
          "mode": 4,
          "material": 1,
          "targets": [
            {
              "POSITION": 26,
              "NORMAL": 27
            },
            {
              "POSITION": 28,
              "NORMAL": 29
            },
            {
              "POSITION": 30,
              "NORMAL": 31
            },
            {
              "POSITION": 32,
              "NORMAL": 33
            },
            {
              "POSITION": 34,
              "NORMAL": 35
            },
            {
              "POSITION": 36,
              "NORMAL": 37
            },
            {
              "POSITION": 38,
              "NORMAL": 39
            },
            {
              "POSITION": 40,
              "NORMAL": 41
            }
          ]
        }
      ],
      "weights": [
        0.0,
        0.0,
        0.0,
        0.0,
        0.0,
        0.0,
        0.0,
        0.0
      ],
      "name": "Cube"
    }
  ],
  "nodes": [
    {
      "mesh": 0,
      "name": "Main"
    }
  ],
  "samplers": [
    {
      "magFilter": 9729,
      "minFilter": 9987,
      "wrapS": 10497,
      "wrapT": 10497
    }
  ],
  "scene": 0,
  "scenes": [
    {
      "name": "Scene",
      "nodes": [
        0
      ]
    }
  ],
  "textures": [
    {
      "sampler": 0,
      "source": 0
    },
    {
      "sampler": 0,
      "source": 1
    },
    {
      "sampler": 0,
      "source": 2
    }
  ]
}