{
  "accessors": [
    {
      "bufferView": 26,
      "byteOffset": 0,
      "componentType": 5121,
      "normalized": false,
      "count": 78,
      "type": "SCALAR"
    },
    {
      "bufferView": 0,
      "byteOffset": 0,
      "componentType": 5126,
      "normalized": false,
      "count": 52,
      "type": "VEC3",
      "max": [
        -0.6740907430648804,
        3.9529545307159424,
        5.33065128326416
      ],
      "min": [
        -1.3648574352264404,
        2.9005930423736572,
        4.66934871673584
      ]
    },
    {
      "bufferView": 1,
      "byteOffset": 0,
      "componentType": 5126,
      "normalized": false,
      "count": 52,
      "type": "VEC3",
      "max": [
        0.994742751121521,
        0.9659255146980286,
        1.0
      ],
      "min": [
        -0.8102691173553467,
        -0.5860580801963806,
        -1.0
      ]
    },
    {
      "bufferView": 27,
      "byteOffset": 0,
      "componentType": 5121,
      "normalized": false,
      "count": 114,
      "type": "SCALAR"
    },
    {
      "bufferView": 2,
      "byteOffset": 0,
      "componentType": 5126,
      "normalized": false,
      "count": 74,
      "type": "VEC3",
      "max": [
        0.7157971262931824,
        3.0,
        0.33065110445022583
      ],
      "min": [
        -0.7157971262931824,
        -1.0,
        -0.33065110445022583
      ]
    },
    {
      "bufferView": 3,
      "byteOffset": 0,
      "componentType": 5126,
      "normalized": false,
      "count": 74,
      "type": "VEC3",
      "max": [
        1.0,
        0.374779611825943,
        1.0
      ],
      "min": [
        -1.0,
        -1.0,
        -1.0
      ]
    },
    {
      "bufferView": 28,
      "byteOffset": 0,
      "componentType": 5121,
      "normalized": false,
      "count": 114,
      "type": "SCALAR"
    },
    {
      "bufferView": 4,
      "byteOffset": 0,
      "componentType": 5126,
      "normalized": false,
      "count": 78,
      "type": "VEC3",
      "max": [
        0.7157971262931824,
        0.33065134286880493,
        3.0
      ],
      "min": [
        -0.7157971262931824,
        -0.3306511640548706,
        -1.0
      ]
    },
    {
      "bufferView": 5,
      "byteOffset": 0,
      "componentType": 5126,
      "normalized": false,
      "count": 78,
      "type": "VEC3",
      "max": [
        1.0,
        1.0,
        0.374779611825943
      ],
      "min": [
        -1.0,
        -1.0,
        -1.0
      ]
    },
    {
      "bufferView": 29,
      "byteOffset": 0,
      "componentType": 5121,
      "normalized": false,
      "count": 114,
      "type": "SCALAR"
    },
    {
      "bufferView": 6,
      "byteOffset": 0,
      "componentType": 5126,
      "normalized": false,
      "count": 78,
      "type": "VEC3",
      "max": [
        0.7157971262931824,
        0.33065131306648254,
        1.0
      ],
      "min": [
        -0.7157971262931824,
        -0.330651193857193,
        -3.0
      ]
    },
    {
      "bufferView": 7,
      "byteOffset": 0,
      "componentType": 5126,
      "normalized": false,
      "count": 78,
      "type": "VEC3",
      "max": [
        1.0,
        1.0,
        1.0
      ],
      "min": [
        -1.0,
        -1.0,
        -0.374779611825943
      ]
    },
    {
      "bufferView": 30,
      "byteOffset": 0,
      "componentType": 5123,
      "normalized": false,
      "count": 420,
      "type": "SCALAR"
    },
    {
      "bufferView": 8,
      "byteOffset": 0,
      "componentType": 5126,
      "normalized": false,
      "count": 272,
      "type": "VEC3",
      "max": [
        5.000002384185791,
        5.0,
        5.000002861022949
      ],
      "min": [
        -5.000001907348633,
        -5.0,
        -5.000001907348633
      ]
    },
    {
      "bufferView": 9,
      "byteOffset": 0,
      "componentType": 5126,
      "normalized": false,
      "count": 272,
      "type": "VEC3",
      "max": [
        1.0,
        1.0,
        1.0
      ],
      "min": [
        -1.0,
        -1.0,
        -1.0
      ]
    },
    {
      "bufferView": 31,
      "byteOffset": 0,
      "componentType": 5121,
      "normalized": false,
      "count": 78,
      "type": "SCALAR"
    },
    {
      "bufferView": 10,
      "byteOffset": 0,
      "componentType": 5126,
      "normalized": false,
      "count": 50,
      "type": "VEC3",
      "max": [
        -0.46912679076194763,
        -4.66934871673584,
        3.9916374683380127
      ],
      "min": [
        -1.1686336994171143,
        -5.330650806427002,
        2.93727445602417
      ]
    },
    {
      "bufferView": 11,
      "byteOffset": 0,
      "componentType": 5126,
      "normalized": false,
      "count": 50,
      "type": "VEC3",
      "max": [
        0.9880198836326599,
        1.0,
        0.9781473875045776
      ],
      "min": [
        -0.8398305773735046,
        -1.0,
        -0.542848527431488
      ]
    },
    {
      "bufferView": 32,
      "byteOffset": 0,
      "componentType": 5121,
      "normalized": false,
      "count": 114,
      "type": "SCALAR"
    },
    {
      "bufferView": 12,
      "byteOffset": 0,
      "componentType": 5126,
      "normalized": false,
      "count": 78,
      "type": "VEC3",
      "max": [
        0.3306511640548706,
        3.0,
        0.7157971262931824
      ],
      "min": [
        -0.3306511640548706,
        -1.0,
        -0.7157971262931824
      ]
    },
    {
      "bufferView": 13,
      "byteOffset": 0,
      "componentType": 5126,
      "normalized": false,
      "count": 78,
      "type": "VEC3",
      "max": [
        1.0,
        0.374779611825943,
        1.0
      ],
      "min": [
        -1.0,
        -1.0,
        -1.0
      ]
    },
    {
      "bufferView": 33,
      "byteOffset": 0,
      "componentType": 5121,
      "normalized": false,
      "count": 78,
      "type": "SCALAR"
    },
    {
      "bufferView": 14,
      "byteOffset": 0,
      "componentType": 5126,
      "normalized": false,
      "count": 54,
      "type": "VEC3",
      "max": [
        -4.66934871673584,
        4.039160251617432,
        0.6999828815460205
      ],
      "min": [
        -5.33065128326416,
        2.991360902786255,
        -0.012430161237716675
      ]
    },
    {
      "bufferView": 15,
      "byteOffset": 0,
      "componentType": 5126,
      "normalized": false,
      "count": 54,
      "type": "VEC3",
      "max": [
        1.0,
        0.9961948394775391,
        0.8997273445129395
      ],
      "min": [
        -1.0,
        -0.4364525079727173,
        -0.9618476033210754
      ]
    },
    {
      "bufferView": 34,
      "byteOffset": 0,
      "componentType": 5121,
      "normalized": false,
      "count": 114,
      "type": "SCALAR"
    },
    {
      "bufferView": 16,
      "byteOffset": 0,
      "componentType": 5126,
      "normalized": false,
      "count": 78,
      "type": "VEC3",
      "max": [
        0.3306511640548706,
        3.0,
        0.7157971262931824
      ],
      "min": [
        -0.3306511640548706,
        -1.0,
        -0.7157971262931824
      ]
    },
    {
      "bufferView": 17,
      "byteOffset": 0,
      "componentType": 5126,
      "normalized": false,
      "count": 78,
      "type": "VEC3",
      "max": [
        1.0,
        0.374779611825943,
        1.0
      ],
      "min": [
        -1.0,
        -1.0,
        -1.0
      ]
    },
    {
      "bufferView": 35,
      "byteOffset": 0,
      "componentType": 5121,
      "normalized": false,
      "count": 78,
      "type": "SCALAR"
    },
    {
      "bufferView": 18,
      "byteOffset": 0,
      "componentType": 5126,
      "normalized": false,
      "count": 52,
      "type": "VEC3",
      "max": [
        3.864471435546875,
        5.33065128326416,
        -1.0113166570663452
      ],
      "min": [
        2.8218495845794678,
        4.669349193572998,
        -1.6833229064941406
      ]
    },
    {
      "bufferView": 19,
      "byteOffset": 0,
      "componentType": 5126,
      "normalized": false,
      "count": 52,
      "type": "VEC3",
      "max": [
        0.9749377965927124,
        1.0,
        0.9998826384544373
      ],
      "min": [
        -0.654447615146637,
        -1.0,
        -0.7971041202545166
      ]
    },
    {
      "bufferView": 36,
      "byteOffset": 0,
      "componentType": 5121,
      "normalized": false,
      "count": 78,
      "type": "SCALAR"
    },
    {
      "bufferView": 20,
      "byteOffset": 0,
      "componentType": 5126,
      "normalized": false,
      "count": 50,
      "type": "VEC3",
      "max": [
        1.4936277866363525,
        3.9211390018463135,
        -4.66934871673584
      ],
      "min": [
        0.8097413778305054,
        2.8717148303985596,
        -5.33065128326416
      ]
    },
    {
      "bufferView": 21,
      "byteOffset": 0,
      "componentType": 5126,
      "normalized": false,
      "count": 50,
      "type": "VEC3",
      "max": [
        0.7893224954605103,
        0.9619584083557129,
        1.0
      ],
      "min": [
        -0.9977105855941772,
        -0.6139788627624512,
        -1.0
      ]
    },
    {
      "bufferView": 37,
      "byteOffset": 0,
      "componentType": 5121,
      "normalized": false,
      "count": 114,
      "type": "SCALAR"
    },
    {
      "bufferView": 22,
      "byteOffset": 0,
      "componentType": 5126,
      "normalized": false,
      "count": 78,
      "type": "VEC3",
      "max": [
        0.7157971858978271,
        3.0,
        0.3306512236595154
      ],
      "min": [
        -0.7157971858978271,
        -1.0,
        -0.330651193857193
      ]
    },
    {
      "bufferView": 23,
      "byteOffset": 0,
      "componentType": 5126,
      "normalized": false,
      "count": 78,
      "type": "VEC3",
      "max": [
        1.0,
        0.374779611825943,
        1.0
      ],
      "min": [
        -1.0,
        -1.0,
        -1.0
      ]
    },
    {
      "bufferView": 38,
      "byteOffset": 0,
      "componentType": 5121,
      "normalized": false,
      "count": 78,
      "type": "SCALAR"
    },
    {
      "bufferView": 24,
      "byteOffset": 0,
      "componentType": 5126,
      "normalized": false,
      "count": 54,
      "type": "VEC3",
      "max": [
        5.33065128326416,
        3.432579517364502,
        -1.7226401567459106
      ],
      "min": [
        4.66934871673584,
        2.4595587253570557,
        -2.553251266479492
      ]
    },
    {
      "bufferView": 25,
      "byteOffset": 0,
      "componentType": 5126,
      "normalized": false,
      "count": 54,
      "type": "VEC3",
      "max": [
        1.0,
        0.9992989301681519,
        0.9697774052619934
      ],
      "min": [
        -1.0,
        -0.8278425335884094,
        -0.9262295961380005
      ]
    }
  ],
  "asset": {
    "generator": "GDS lod baker 1",
    "copyright": "Copyright 2018 Analytical Graphics, Inc., CC-BY 4.0 https://creativecommons.org/licenses/by/4.0/ - Mesh and textures by Ed Mackey.",
    "version": "2.0"
  },
  "bufferViews": [
    {
      "buffer": 0,
      "byteOffset": 0,
      "byteLength": 624,
      "target": 34962
    },
    {
      "buffer": 0,
      "byteOffset": 624,
      "byteLength": 624,
      "target": 34962
    },
    {
      "buffer": 0,
      "byteOffset": 1248,
      "byteLength": 888,
      "target": 34962
    },
    {
      "buffer": 0,
      "byteOffset": 2136,
      "byteLength": 888,
      "target": 34962
    },
    {
      "buffer": 0,
      "byteOffset": 3024,
      "byteLength": 936,
      "target": 34962
    },
    {
      "buffer": 0,
      "byteOffset": 3960,
      "byteLength": 936,
      "target": 34962
    },
    {
      "buffer": 0,
      "byteOffset": 4896,
      "byteLength": 936,
      "target": 34962
    },
    {
      "buffer": 0,
      "byteOffset": 5832,
      "byteLength": 936,
      "target": 34962
    },
    {
      "buffer": 0,
      "byteOffset": 6768,
      "byteLength": 3264,
      "target": 34962
    },
    {
      "buffer": 0,
      "byteOffset": 10032,
      "byteLength": 3264,
      "target": 34962
    },
    {
      "buffer": 0,
      "byteOffset": 13296,
      "byteLength": 600,
      "target": 34962
    },
    {
      "buffer": 0,
      "byteOffset": 13896,
      "byteLength": 600,
      "target": 34962
    },
    {
      "buffer": 0,
      "byteOffset": 14496,
      "byteLength": 936,
      "target": 34962
    },
    {
      "buffer": 0,
      "byteOffset": 15432,
      "byteLength": 936,
      "target": 34962
    },
    {
      "buffer": 0,
      "byteOffset": 16368,
      "byteLength": 648,
      "target": 34962
    },
    {
      "buffer": 0,
      "byteOffset": 17016,
      "byteLength": 648,
      "target": 34962
    },
    {
      "buffer": 0,
      "byteOffset": 17664,
      "byteLength": 936,
      "target": 34962
    },
    {
      "buffer": 0,
      "byteOffset": 18600,
      "byteLength": 936,
      "target": 34962
    },
    {
      "buffer": 0,
      "byteOffset": 19536,
      "byteLength": 624,
      "target": 34962
    },
    {
      "buffer": 0,
      "byteOffset": 20160,
      "byteLength": 624,
      "target": 34962
    },
    {
      "buffer": 0,
      "byteOffset": 20784,
      "byteLength": 600,
      "target": 34962
    },
    {
      "buffer": 0,
      "byteOffset": 21384,
      "byteLength": 600,
      "target": 34962
    },
    {
      "buffer": 0,
      "byteOffset": 21984,
      "byteLength": 936,
      "target": 34962
    },
    {
      "buffer": 0,
      "byteOffset": 22920,
      "byteLength": 936,
      "target": 34962
    },
    {
      "buffer": 0,
      "byteOffset": 23856,
      "byteLength": 648,
      "target": 34962
    },
    {
      "buffer": 0,
      "byteOffset": 24504,
      "byteLength": 648,
      "target": 34962
    },
    {
      "buffer": 0,
      "byteOffset": 25152,
      "byteLength": 78,
      "target": 34963
    },
    {
      "buffer": 0,
      "byteOffset": 25232,
      "byteLength": 114,
      "target": 34963
    },
    {
      "buffer": 0,
      "byteOffset": 25348,
      "byteLength": 114,
      "target": 34963
    },
    {
      "buffer": 0,
      "byteOffset": 25464,
      "byteLength": 114,
      "target": 34963
    },
    {
      "buffer": 0,
      "byteOffset": 25580,
      "byteLength": 840,
      "target": 34963
    },
    {
      "buffer": 0,
      "byteOffset": 26420,
      "byteLength": 78,
      "target": 34963
    },
    {
      "buffer": 0,
      "byteOffset": 26500,
      "byteLength": 114,
      "target": 34963
    },
    {
      "buffer": 0,
      "byteOffset": 26616,
      "byteLength": 78,
      "target": 34963
    },
    {
      "buffer": 0,
      "byteOffset": 26696,
      "byteLength": 114,
      "target": 34963
    },
    {
      "buffer": 0,
      "byteOffset": 26812,
      "byteLength": 78,
      "target": 34963
    },
    {
      "buffer": 0,
      "byteOffset": 26892,
      "byteLength": 78,
      "target": 34963
    },
    {
      "buffer": 0,
      "byteOffset": 26972,
      "byteLength": 114,
      "target": 34963
    },
    {
      "buffer": 0,
      "byteOffset": 27088,
      "byteLength": 78,
      "target": 34963
    }
  ],
  "buffers": [
    {
      "uri": "OrientationTestLOD.bin",
      "byteLength": 27166
    }
  ],
  "materials": [
    {
      "pbrMetallicRoughness": {
        "baseColorFactor": [
          0.3401939868927002,
          0.6781029105186462,
          1.0,
          1.0
        ],
        "metallicFactor": 1.0,
        "roughnessFactor": 0.5
      },
      "emissiveFactor": [
        0.0,
        0.0,
        0.0
      ],
      "alphaMode": "OPAQUE",
      "doubleSided": false,
      "name": "BaseMaterial"
    },
    {
      "pbrMetallicRoughness": {
        "baseColorFactor": [
          0.800000011920929,
          0.0,
          0.0,
          1.0
        ],
        "metallicFactor": 0.4000000059604645,
        "roughnessFactor": 0.20000000298023224
      },
      "emissiveFactor": [
        0.0,
        0.0,
        0.0
      ],
      "alphaMode": "OPAQUE",
      "doubleSided": false,
      "name": "MatX1"
    },
    {
      "pbrMetallicRoughness": {
        "baseColorFactor": [
          0.0,
          0.800000011920929,
          0.800000011920929,
          1.0
        ],
        "metallicFactor": 0.4000000059604645,
        "roughnessFactor": 0.20000000298023224
      },
      "emissiveFactor": [
        0.0,
        0.0,
        0.0
      ],
      "alphaMode": "OPAQUE",
      "doubleSided": false,
      "name": "MatX2"
    },
    {
      "pbrMetallicRoughness": {
        "baseColorFactor": [
          0.0,
          0.800000011920929,
          0.0,
          1.0
        ],
        "metallicFactor": 0.4000000059604645,
        "roughnessFactor": 0.20000000298023224
      },
      "emissiveFactor": [
        0.0,
        0.0,
        0.0
      ],
      "alphaMode": "OPAQUE",
      "doubleSided": false,
      "name": "MatY1"
    },
    {
      "pbrMetallicRoughness": {
        "baseColorFactor": [
          0.800000011920929,
          0.0,
          0.800000011920929,
          1.0
        ],
        "metallicFactor": 0.4000000059604645,
        "roughnessFactor": 0.20000000298023224
      },
      "emissiveFactor": [
        0.0,
        0.0,
        0.0
      ],
      "alphaMode": "OPAQUE",
      "doubleSided": false,
      "name": "MatY2"
    },
    {
      "pbrMetallicRoughness": {
        "baseColorFactor": [
          0.0,
          0.0,
          0.800000011920929,
          1.0
        ],
        "metallicFactor": 0.4000000059604645,
        "roughnessFactor": 0.20000000298023224
      },
      "emissiveFactor": [
        0.0,
        0.0,
        0.0
      ],
      "alphaMode": "OPAQUE",
      "doubleSided": false,
      "name": "MatZ1"
    },
    {
      "pbrMetallicRoughness": {
        "baseColorFactor": [
          0.800000011920929,
          0.800000011920929,
          0.0,
          1.0
        ],
        "metallicFactor": 0.4000000059604645,
        "roughnessFactor": 0.20000000298023224
      },
      "emissiveFactor": [
        0.0,
        0.0,
        0.0
      ],
      "alphaMode": "OPAQUE",
      "doubleSided": false,
      "name": "MatZ2"
    }
  ],
  "meshes": [
    {
      "primitives": [
        {
          "attributes": {
            "POSITION": 1,
            "NORMAL": 2
          },
          "indices": 0,
          "mode": 4,
          "material": 5
        }
      ],
      "name": "TargetMeshZ1"
    },
    {
      "primitives": [
        {
          "attributes": {
            "POSITION": 4,
            "NORMAL": 5
          },
          "indices": 3,
          "mode": 4,
          "material": 5
        }
      ],
      "name": "ArrowMeshZ1"
    },
    {
      "primitives": [
        {
          "attributes": {
            "POSITION": 7,
            "NORMAL": 8
          },
          "indices": 6,
          "mode": 4,
          "material": 4
        }
      ],
      "name": "ArrowMeshY2"
    },
    {
      "primitives": [
        {
          "attributes": {
            "POSITION": 10,
            "NORMAL": 11
          },
          "indices": 9,
          "mode": 4,
          "material": 3
        }
      ],
      "name": "ArrowMeshY1"
    },
    {
      "primitives": [
        {
          "attributes": {
            "POSITION": 13,
            "NORMAL": 14
          },
          "indices": 12,
          "mode": 4,
          "material": 0
        }
      ],
      "name": "BaseCubeMesh"
    },
    {
      "primitives": [
        {
          "attributes": {
            "POSITION": 16,
            "NORMAL": 17
          },
          "indices": 15,
          "mode": 4,
          "material": 4
        }
      ],
      "name": "TargetMeshY2"
    },
    {
      "primitives": [
        {
          "attributes": {
            "POSITION": 19,
            "NORMAL": 20
          },
          "indices": 18,
          "mode": 4,
          "material": 1
        }
      ],
      "name": "ArrowMeshX1"
    },
    {
      "primitives": [
        {
          "attributes": {
            "POSITION": 22,
            "NORMAL": 23
          },
          "indices": 21,
          "mode": 4,
          "material": 2
        }
      ],
      "name": "TargetMeshX2"
    },
    {
      "primitives": [
        {
          "attributes": {
            "POSITION": 25,
            "NORMAL": 26
          },
          "indices": 24,
          "mode": 4,
          "material": 2
        }
      ],
      "name": "ArrowMeshX2"
    },
    {
      "primitives": [
        {
          "attributes": {
            "POSITION": 28,
            "NORMAL": 29
          },
          "indices": 27,
          "mode": 4,
          "material": 3
        }
      ],
      "name": "TargetMeshY1"
    },
    {
      "primitives": [
        {
          "attributes": {
            "POSITION": 31,
            "NORMAL": 32
          },
          "indices": 30,
          "mode": 4,
          "material": 6
        }
      ],
      "name": "TargetMeshZ2"
    },
    {
      "primitives": [
        {
          "attributes": {
            "POSITION": 34,
            "NORMAL": 35
          },
          "indices": 33,
          "mode": 4,
          "material": 6
        }
      ],
      "name": "ArrowMeshZ2"
    },
    {
      "primitives": [
        {
          "attributes": {
            "POSITION": 37,
            "NORMAL": 38
          },
          "indices": 36,
          "mode": 4,
          "material": 1
        }
      ],
      "name": "TargetMeshX1"
    }
  ],
  "nodes": [
    {
      "mesh": 6,
      "rotation": [
        -0.30070576071739197,
        0.0,
        -0.0,
        0.9537169933319092
      ],
      "translation": [
        5.0,
        0.0,
        -0.0
      ],
      "scale": [
        1.0,
        0.9999999403953552,
        0.9999999403953552
      ],
      "name": "ArrowX1"
    },
    {
      "mesh": 8,
      "matrix": [
        1.0000000221841605,
        0.0,
        0.0,
        0.0,
        0.0,
        0.9961947216654676,
        0.08715572783347625,
        0.0,
        0.0,
        -0.08715572783347625,
        0.9961947216654676,
        0.0,
        -5.0,
        0.0,
        0.0,
        1.0
      ],
      "name": "ArrowX2"
    },
    {
      "mesh": 3,
      "rotation": [
        0.0,
        -0.5735764503479004,
        -0.0,
        0.8191520571708679
      ],
      "translation": [
        0.0,
        5.0,
        -0.0
      ],
      "name": "ArrowY1"
    },
    {
      "mesh": 2,
      "matrix": [
        0.9781476413655263,
        0.0,
        0.20791169731909154,
        0.0,
        0.0,
        1.000000041095523,
        0.0,
        0.0,
        -0.20791169731909154,
        0.0,
        0.9781476413655263,
        0.0,
        0.0,
        -5.0,
        0.0,
        1.0
      ],
      "name": "ArrowY2"
    },
    {
      "mesh": 1,
      "rotation": [
        0.0,
        0.0,
        0.13052621483802795,
        0.9914449453353882
      ],
      "translation": [
        0.0,
        0.0,
        5.0
      ],
      "scale": [
        0.9999999403953552,
        0.9999999403953552,
        1.0
      ],
      "name": "ArrowZ1"
    },
    {
      "mesh": 11,
      "matrix": [
        0.9563047863767122,
        -0.2923716890963366,
        0.0,
        0.0,
        0.2923716890963366,
        0.9563047863767122,
        0.0,
        0.0,
        0.0,
        0.0,
        1.0000000245160268,
        0.0,
        0.0,
        0.0,
        -5.0,
        1.0
      ],
      "name": "ArrowZ2"
    },
    {
      "mesh": 4,
      "name": "BaseCube"
    },
    {
      "mesh": 12,
      "name": "TargetX1"
    },
    {
      "mesh": 7,
      "name": "TargetX2"
    },
    {
      "mesh": 9,
      "name": "TargetY1"
    },
    {
      "mesh": 5,
      "name": "TargetY2"
    },
    {
      "mesh": 0,
      "name": "TargetZ1"
    },
    {
      "mesh": 10,
      "name": "TargetZ2"
    }
  ],
  "scene": 0,
  "scenes": [
    {
      "name": "Scene",
      "nodes": [
        5,
        12,
        10,
        3,
        1,
        8,
        11,
        4,
        7,
        0,
        9,
        2,
        6
      ]
    }
  ]
}