{
  "accessors": [
    {
      "bufferView": 0,
      "byteOffset": 0,
      "componentType": 5126,
      "normalized": false,
      "count": 24,
      "type": "VEC3",
      "max": [
        0.5,
        0.5,
        1.0
      ],
      "min": [
        -0.5,
        -0.5,
        0.0
      ]
    },
    {
      "bufferView": 1,
      "byteOffset": 0,
      "componentType": 5126,
      "normalized": false,
      "count": 24,
      "type": "VEC3"
    },
    {
      "bufferView": 29,
      "byteOffset": 0,
      "componentType": 5123,
      "normalized": false,
      "count": 36,
      "type": "SCALAR"
    },
    {
      "bufferView": 2,
      "byteOffset": 0,
      "componentType": 5126,
      "normalized": false,
      "count": 24,
      "type": "VEC3",
      "max": [
        0.75,
        0.75,
        1.5
      ],
      "min": [
        -0.75,
        -0.75,
        0.0
      ]
    },
    {
      "bufferView": 3,
      "byteOffset": 0,
      "componentType": 5126,
      "normalized": false,
      "count": 24,
      "type": "VEC3"
    },
    {
      "bufferView": 4,
      "byteOffset": 0,
      "componentType": 5126,
      "normalized": false,
      "count": 24,
      "type": "VEC3",
      "max": [
        1.0,
        1.0,
        2.0
      ],
      "min": [
        -1.0,
        -1.0,
        0.0
      ]
    },
    {
      "bufferView": 5,
      "byteOffset": 0,
      "componentType": 5126,
      "normalized": false,
      "count": 24,
      "type": "VEC3"
    },
    {
      "bufferView": 6,
      "byteOffset": 0,
      "componentType": 5126,
      "normalized": false,
      "count": 24,
      "type": "VEC3",
      "max": [
        0.25,
        0.25,
        0.5
      ],
      "min": [
        -0.25,
        -0.25,
        0.0
      ]
    },
    {
      "bufferView": 7,
      "byteOffset": 0,
      "componentType": 5126,
      "normalized": false,
      "count": 24,
      "type": "VEC3"
    },
    {
      "bufferView": 8,
      "byteOffset": 0,
      "componentType": 5126,
      "normalized": false,
      "count": 24,
      "type": "VEC3",
      "max": [
        0.125,
        0.125,
        0.25
      ],
      "min": [
        -0.125,
        -0.125,
        0.0
      ]
    },
    {
      "bufferView": 9,
      "byteOffset": 0,
      "componentType": 5126,
      "normalized": false,
      "count": 24,
      "type": "VEC3"
    },
    {
      "bufferView": 10,
      "byteOffset": 0,
      "componentType": 5126,
      "normalized": false,
      "count": 80,
      "type": "VEC3",
      "max": [
        6.449306488037109,
        8.25642204284668,
        1.0009736683969095e-07
      ],
      "min": [
        -9.396474838256836,
        -6.307738780975342,
        -0.02500029094517231
      ]
    },
    {
      "bufferView": 11,
      "byteOffset": 0,
      "componentType": 5126,
      "normalized": false,
      "count": 80,
      "type": "VEC3"
    },
    {
      "bufferView": 12,
      "byteOffset": 0,
      "componentType": 5126,
      "normalized": false,
      "count": 80,
      "type": "VEC2"
    },
    {
      "bufferView": 30,
      "byteOffset": 0,
      "componentType": 5123,
      "normalized": false,
      "count": 120,
      "type": "SCALAR"
    },
    {
      "bufferView": 13,
      "byteOffset": 0,
      "componentType": 5126,
      "normalized": false,
      "count": 120,
      "type": "VEC3",
      "max": [
        10.5,
        1.0,
        2.0
      ],
      "min": [
        -0.125,
        -1.0,
        0.0
      ]
    },
    {
      "bufferView": 14,
      "byteOffset": 0,
      "componentType": 5126,
      "normalized": false,
      "count": 120,
      "type": "VEC3"
    },
    {
      "bufferView": 15,
      "byteOffset": 0,
      "componentType": 5126,
      "normalized": false,
      "count": 120,
      "type": "VEC2"
    },
    {
      "bufferView": 31,
      "byteOffset": 0,
      "componentType": 5123,
      "normalized": false,
      "count": 180,
      "type": "SCALAR"
    },
    {
      "bufferView": 16,
      "byteOffset": 0,
      "componentType": 5126,
      "normalized": false,
      "count": 4,
      "type": "VEC3",
      "max": [
        10.0,
        10.0,
        0.0
      ],
      "min": [
        -10.0,
        -10.0,
        0.0
      ]
    },
    {
      "bufferView": 17,
      "byteOffset": 0,
      "componentType": 5126,
      "normalized": false,
      "count": 4,
      "type": "VEC3"
    },
    {
      "bufferView": 18,
      "byteOffset": 0,
      "componentType": 5126,
      "normalized": false,
      "count": 4,
      "type": "VEC2"
    },
    {
      "bufferView": 32,
      "byteOffset": 0,
      "componentType": 5123,
      "normalized": false,
      "count": 6,
      "type": "SCALAR"
    },
    {
      "bufferView": 19,
      "byteOffset": 0,
      "componentType": 5126,
      "normalized": false,
      "count": 4,
      "type": "VEC3",
      "max": [
        0.5,
        0.5,
        0.0
      ],
      "min": [
        -0.5,
        -0.5,
        0.0
      ]
    },
    {
      "bufferView": 20,
      "byteOffset": 0,
      "componentType": 5126,
      "normalized": false,
      "count": 4,
      "type": "VEC3"
    },
    {
      "bufferView": 33,
      "byteOffset": 0,
      "componentType": 5123,
      "normalized": false,
      "count": 6,
      "type": "SCALAR"
    },
    {
      "bufferView": 21,
      "byteOffset": 0,
      "componentType": 5126,
      "normalized": false,
      "count": 4,
      "type": "VEC3",
      "max": [
        0.75,
        0.75,
        0.0
      ],
      "min": [
        -0.75,
        -0.75,
        0.0
      ]
    },
    {
      "bufferView": 22,
      "byteOffset": 0,
      "componentType": 5126,
      "normalized": false,
      "count": 4,
      "type": "VEC3"
    },
    {
      "bufferView": 23,
      "byteOffset": 0,
      "componentType": 5126,
      "normalized": false,
      "count": 4,
      "type": "VEC3",
      "max": [
        1.0,
        1.0,
        0.0
      ],
      "min": [
        -1.0,
        -1.0,
        0.0
      ]
    },
    {
      "bufferView": 24,
      "byteOffset": 0,
      "componentType": 5126,
      "normalized": false,
      "count": 4,
      "type": "VEC3"
    },
    {
      "bufferView": 25,
      "byteOffset": 0,
      "componentType": 5126,
      "normalized": false,
      "count": 4,
      "type": "VEC3",
      "max": [
        0.25,
        0.25,
        0.0
      ],
      "min": [
        -0.25,
        -0.25,
        0.0
      ]
    },
    {
      "bufferView": 26,
      "byteOffset": 0,
      "componentType": 5126,
      "normalized": false,
      "count": 4,
      "type": "VEC3"
    },
    {
      "bufferView": 27,
      "byteOffset": 0,
      "componentType": 5126,
      "normalized": false,
      "count": 4,
      "type": "VEC3",
      "max": [
        0.125,
        0.125,
        0.0
      ],
      "min": [
        -0.125,
        -0.125,
        0.0
      ]
    },
    {
      "bufferView": 28,
      "byteOffset": 0,
      "componentType": 5126,
      "normalized": false,
      "count": 4,
      "type": "VEC3"
    },
    {
      "bufferView": 30,
      "byteOffset": 240,
      "componentType": 5123,
      "normalized": false,
      "count": 60,
      "type": "SCALAR"
    },
    {
      "bufferView": 31,
      "byteOffset": 360,
      "componentType": 5123,
      "normalized": false,
      "count": 108,
      "type": "SCALAR"
    }
  ],
  "asset": {
    "generator": "GDS lod baker 1",
    "copyright": "CC-BY 4.0 Copyright 2021 Analytical Graphics, Inc. Model and Textures by Ed Mackey.",
    "version": "2.0"
  },
  "bufferViews": [
    {
      "buffer": 0,
      "byteOffset": 0,
      "byteLength": 288
    },
    {
      "buffer": 0,
      "byteOffset": 288,
      "byteLength": 288
    },
    {
      "buffer": 0,
      "byteOffset": 576,
      "byteLength": 288
    },
    {
      "buffer": 0,
      "byteOffset": 864,
      "byteLength": 288
    },
    {
      "buffer": 0,
      "byteOffset": 1152,
      "byteLength": 288
    },
    {
      "buffer": 0,
      "byteOffset": 1440,
      "byteLength": 288
    },
    {
      "buffer": 0,
      "byteOffset": 1728,
      "byteLength": 288
    },
    {
      "buffer": 0,
      "byteOffset": 2016,
      "byteLength": 288
    },
    {
      "buffer": 0,
      "byteOffset": 2304,
      "byteLength": 288
    },
    {
      "buffer": 0,
      "byteOffset": 2592,
      "byteLength": 288
    },
    {
      "buffer": 0,
      "byteOffset": 2880,
      "byteLength": 960
    },
    {
      "buffer": 0,
      "byteOffset": 3840,
      "byteLength": 960
    },
    {
      "buffer": 0,
      "byteOffset": 4800,
      "byteLength": 640
    },
    {
      "buffer": 0,
      "byteOffset": 5440,
      "byteLength": 1440
    },
    {
      "buffer": 0,
      "byteOffset": 6880,
      "byteLength": 1440
    },
    {
      "buffer": 0,
      "byteOffset": 8320,
      "byteLength": 960
    },
    {
      "buffer": 0,
      "byteOffset": 9280,
      "byteLength": 48
    },
    {
      "buffer": 0,
      "byteOffset": 9328,
      "byteLength": 48
    },
    {
      "buffer": 0,
      "byteOffset": 9376,
      "byteLength": 32
    },
    {
      "buffer": 0,
      "byteOffset": 9408,
      "byteLength": 48
    },
    {
      "buffer": 0,
      "byteOffset": 9456,
      "byteLength": 48
    },
    {
      "buffer": 0,
      "byteOffset": 9504,
      "byteLength": 48
    },
    {
      "buffer": 0,
      "byteOffset": 9552,
      "byteLength": 48
    },
    {
      "buffer": 0,
      "byteOffset": 9600,
      "byteLength": 48
    },
    {
      "buffer": 0,
      "byteOffset": 9648,
      "byteLength": 48
    },
    {
      "buffer": 0,
      "byteOffset": 9696,
      "byteLength": 48
    },
    {
      "buffer": 0,
      "byteOffset": 9744,
      "byteLength": 48
    },
    {
      "buffer": 0,
      "byteOffset": 9792,
      "byteLength": 48
    },
    {
      "buffer": 0,
      "byteOffset": 9840,
      "byteLength": 48
    },
    {
      "buffer": 0,
      "byteOffset": 9888,
      "byteLength": 72,
      "target": 34963
    },
    {
      "buffer": 0,
      "byteOffset": 9960,
      "byteLength": 360,
      "target": 34963
    },
    {
      "buffer": 0,
      "byteOffset": 10320,
      "byteLength": 576,
      "target": 34963
    },
    {
      "buffer": 0,
      "byteOffset": 10896,
      "byteLength": 12,
      "target": 34963
    },
    {
      "buffer": 0,
      "byteOffset": 10908,
      "byteLength": 12,
      "target": 34963
    }
  ],
  "buffers": [
    {
      "uri": "AttenuationTestLOD.bin",
      "byteLength": 10920
    }
  ],
  "extensionsUsed": [
    "KHR_materials_transmission",
    "KHR_materials_volume",
    "NG2_mesh_lod"
  ],
  "images": [
    {
      "uri": "AttenuationLabels.png",
      "mimeType": "image/png",
      "name": "AttenuationLabels"
    },
    {
      "uri": "ThicknessTexture.png",
      "mimeType": "image/png",
      "name": "ThicknessTexture"
    },
    {
      "uri": "PlainGrid.png",
      "mimeType": "image/png",
      "name": "PlainGrid"
    }
  ],
  "materials": [
    {
      "extensions": {
        "KHR_materials_transmission": {
          "transmissionFactor": 1
        },
        "KHR_materials_volume": {
          "attenuationColor": [
            0.1,
            0.5,
            0.9
          ],
          "attenuationDistance": 1,
          "thicknessFactor": 1
        }
      },
      "pbrMetallicRoughness": {
        "baseColorFactor": [
          1.0,
          1.0,
          1.0,
          1.0
        ],
        "metallicFactor": 0.0,
        "roughnessFactor": 0.0
      },
      "emissiveFactor": [
        0.0,
        0.0,
        0.0
      ],
      "alphaMode": "OPAQUE",
      "doubleSided": false,
      "name": "R2_and_R4_ThicknessFac_1.0"
    },
    {
      "extensions": {
        "KHR_materials_transmission": {
          "transmissionFactor": 1
        },
        "KHR_materials_volume": {
          "attenuationColor": [
            0.1,
            0.5,
            0.9
          ],
          "attenuationDistance": 1,
          "thicknessFactor": 1.5
        }
      },
      "pbrMetallicRoughness": {
        "baseColorFactor": [
          1.0,
          1.0,
          1.0,
          1.0
        ],
        "metallicFactor": 0.0,
        "roughnessFactor": 0.0
      },
      "emissiveFactor": [
        0.0,
        0.0,
        0.0
      ],
      "alphaMode": "OPAQUE",
      "doubleSided": false,
      "name": "R2_ThicknessFac_1.5"
    },
    {
      "extensions": {
        "KHR_materials_transmission": {
          "transmissionFactor": 1
        },
        "KHR_materials_volume": {
          "attenuationColor": [
            0.1,
            0.5,
            0.9
          ],
          "attenuationDistance": 1,
          "thicknessFactor": 2
        }
      },
      "pbrMetallicRoughness": {
        "baseColorFactor": [
          1.0,
          1.0,
          1.0,
          1.0
        ],
        "metallicFactor": 0.0,
        "roughnessFactor": 0.0
      },
      "emissiveFactor": [
        0.0,
        0.0,
        0.0
      ],
      "alphaMode": "OPAQUE",
      "doubleSided": false,
      "name": "R2_ThicknessFac_2.0"
    },
    {
      "extensions": {
        "KHR_materials_transmission": {
          "transmissionFactor": 1
        },
        "KHR_materials_volume": {
          "attenuationColor": [
            0.1,
            0.5,
            0.9
          ],
          "attenuationDistance": 1,
          "thicknessFactor": 0.5
        }
      },
      "pbrMetallicRoughness": {
        "baseColorFactor": [
          1.0,
          1.0,
          1.0,
          1.0
        ],
        "metallicFactor": 0.0,
        "roughnessFactor": 0.0
      },
      "emissiveFactor": [
        0.0,
        0.0,
        0.0
      ],
      "alphaMode": "OPAQUE",
      "doubleSided": false,
      "name": "R2_ThicknessFac_0.50"
    },
    {
      "extensions": {
        "KHR_materials_transmission": {
          "transmissionFactor": 1
        },
        "KHR_materials_volume": {
          "attenuationColor": [
            0.1,
            0.5,
            0.9
          ],
          "attenuationDistance": 1,
          "thicknessFactor": 0.25
        }
      },
      "pbrMetallicRoughness": {
        "baseColorFactor": [
          1.0,
          1.0,
          1.0,
          1.0
        ],
        "metallicFactor": 0.0,
        "roughnessFactor": 0.0
      },
      "emissiveFactor": [
        0.0,
        0.0,
        0.0
      ],
      "alphaMode": "OPAQUE",
      "doubleSided": false,
      "name": "R2_ThicknessFac_0.25"
    },
    {
      "pbrMetallicRoughness": {
        "baseColorFactor": [
          1.0,
          1.0,
          1.0,
          1.0
        ],
        "metallicFactor": 0.0,
        "roughnessFactor": 0.8,
        "baseColorTexture": {
          "index": 0,
          "texCoord": 0
        }
      },
      "emissiveFactor": [
        0.0,
        0.0,
        0.0
      ],
      "alphaMode": "OPAQUE",
      "doubleSided": false,
      "name": "LabelMaterial"
    },
    {
      "extensions": {
        "KHR_materials_transmission": {
          "transmissionFactor": 1
        },
        "KHR_materials_volume": {
          "attenuationColor": [
            0.1,
            0.5,
            0.9
          ],
          "attenuationDistance": 1,
          "thicknessFactor": 2,
          "thicknessTexture": {
            "index": 1
          }
        }
      },
      "pbrMetallicRoughness": {
        "baseColorFactor": [
          1.0,
          1.0,
          1.0,
          1.0
        ],
        "metallicFactor": 0.0,
        "roughnessFactor": 0.0
      },
      "emissiveFactor": [
        0.0,
        0.0,
        0.0
      ],
      "alphaMode": "OPAQUE",
      "doubleSided": false,
      "name": "R3_ThicknessTex_Mat"
    },
    {
      "extensions": {
        "KHR_materials_transmission": {
          "transmissionFactor": 1
        },
        "KHR_materials_volume": {
          "attenuationColor": [
            0.1,
            0.5,
            0.9
          ],
          "attenuationDistance": 1,
          "thicknessFactor": 1
        }
      },
      "pbrMetallicRoughness": {
        "baseColorFactor": [
          1.0,
          1.0,
          1.0,
          1.0
        ],
        "metallicFactor": 0.0,
        "roughnessFactor": 0.0
      },
      "emissiveFactor": [
        0.0,
        0.0,
        0.0
      ],
      "alphaMode": "OPAQUE",
      "doubleSided": false,
      "name": "R5_Attenuation_1.0"
    },
    {
      "extensions": {
        "KHR_materials_transmission": {
          "transmissionFactor": 1
        },
        "KHR_materials_volume": {
          "attenuationColor": [
            0.1,
            0.5,
            0.9
          ],
          "attenuationDistance": 0.6666666667,
          "thicknessFactor": 1
        }
      },
      "pbrMetallicRoughness": {
        "baseColorFactor": [
          1.0,
          1.0,
          1.0,
          1.0
        ],
        "metallicFactor": 0.0,
        "roughnessFactor": 0.0
      },
      "emissiveFactor": [
        0.0,
        0.0,
        0.0
      ],
      "alphaMode": "OPAQUE",
      "doubleSided": false,
      "name": "R5_Attenuation_1.5"
    },
    {
      "extensions": {
        "KHR_materials_transmission": {
          "transmissionFactor": 1
        },
        "KHR_materials_volume": {
          "attenuationColor": [
            0.1,
            0.5,
            0.9
          ],
          "attenuationDistance": 0.5,
          "thicknessFactor": 1
        }
      },
      "pbrMetallicRoughness": {
        "baseColorFactor": [
          1.0,
          1.0,
          1.0,
          1.0
        ],
        "metallicFactor": 0.0,
        "roughnessFactor": 0.0
      },
      "emissiveFactor": [
        0.0,
        0.0,
        0.0
      ],
      "alphaMode": "OPAQUE",
      "doubleSided": false,
      "name": "R5_Attenuation_2.0"
    },
    {
      "extensions": {
        "KHR_materials_transmission": {
          "transmissionFactor": 1
        },
        "KHR_materials_volume": {
          "attenuationColor": [
            0.1,
            0.5,
            0.9
          ],
          "attenuationDistance": 2,
          "thicknessFactor": 1
        }
      },
      "pbrMetallicRoughness": {
        "baseColorFactor": [
          1.0,
          1.0,
          1.0,
          1.0
        ],
        "metallicFactor": 0.0,
        "roughnessFactor": 0.0
      },
      "emissiveFactor": [
        0.0,
        0.0,
        0.0
      ],
      "alphaMode": "OPAQUE",
      "doubleSided": false,
      "name": "R5_Attenuation_0.50"
    },
    {
      "extensions": {
        "KHR_materials_transmission": {
          "transmissionFactor": 1
        },
        "KHR_materials_volume": {
          "attenuationColor": [
            0.1,
            0.5,
            0.9
          ],
          "attenuationDistance": 4,
          "thicknessFactor": 1
        }
      },
      "pbrMetallicRoughness": {
        "baseColorFactor": [
          1.0,
          1.0,
          1.0,
          1.0
        ],
        "metallicFactor": 0.0,
        "roughnessFactor": 0.0
      },
      "emissiveFactor": [
        0.0,
        0.0,
        0.0
      ],
      "alphaMode": "OPAQUE",
      "doubleSided": false,
      "name": "R5_Attenuation_0.25"
    },
    {
      "pbrMetallicRoughness": {
        "baseColorFactor": [
          1.0,
          1.0,
          1.0,
          1.0
        ],
        "metallicFactor": 0.0,
        "roughnessFactor": 0.5,
        "baseColorTexture": {
          "index": 2,
          "texCoord": 0
        }
      },
      "emissiveFactor": [
        0.0,
        0.0,
        0.0
      ],
      "alphaMode": "OPAQUE",
      "doubleSided": false,
      "name": "FlatBackdrop"
    },
    {
      "extensions": {
        "KHR_materials_transmission": {
          "transmissionFactor": 1
        }
      },
      "pbrMetallicRoughness": {
        "baseColorFactor": [
          0.1,
          0.5,
          0.9,
          1.0
        ],
        "metallicFactor": 0.0,
        "roughnessFactor": 0.0
      },
      "emissiveFactor": [
        0.0,
        0.0,
        0.0
      ],
      "alphaMode": "OPAQUE",
      "doubleSided": true,
      "name": "R1_Sample_1.0"
    },
    {
      "extensions": {
        "KHR_materials_transmission": {
          "transmissionFactor": 1
        }
      },
      "pbrMetallicRoughness": {
        "baseColorFactor": [
          0.0316227766,
          0.3535533906,
          0.8538149682,
          1.0
        ],
        "metallicFactor": 0.0,
        "roughnessFactor": 0.0
      },
      "emissiveFactor": [
        0.0,
        0.0,
        0.0
      ],
      "alphaMode": "OPAQUE",
      "doubleSided": true,
      "name": "R1_Sample_1.5"
    },
    {
      "extensions": {
        "KHR_materials_transmission": {
          "transmissionFactor": 1
        }
      },
      "pbrMetallicRoughness": {
        "baseColorFactor": [
          0.01,
          0.25,
          0.81,
          1.0
        ],
        "metallicFactor": 0.0,
        "roughnessFactor": 0.0
      },
      "emissiveFactor": [
        0.0,
        0.0,
        0.0
      ],
      "alphaMode": "OPAQUE",
      "doubleSided": true,
      "name": "R1_Sample_2.0"
    },
    {
      "extensions": {
        "KHR_materials_transmission": {
          "transmissionFactor": 1
        }
      },
      "pbrMetallicRoughness": {
        "baseColorFactor": [
          0.316227766,
          0.7071067812,
          0.9486832981,
          1.0
        ],
        "metallicFactor": 0.0,
        "roughnessFactor": 0.0
      },
      "emissiveFactor": [
        0.0,
        0.0,
        0.0
      ],
      "alphaMode": "OPAQUE",
      "doubleSided": true,
      "name": "R1_Sample_0.50"
    },
    {
      "extensions": {
        "KHR_materials_transmission": {
          "transmissionFactor": 1
        }
      },
      "pbrMetallicRoughness": {
        "baseColorFactor": [
          0.5623413252,
          0.8408964153,
          0.9740037464,
          1.0
        ],
        "metallicFactor": 0.0,
        "roughnessFactor": 0.0
      },
      "emissiveFactor": [
        0.0,
        0.0,
        0.0
      ],
      "alphaMode": "OPAQUE",
      "doubleSided": true,
      "name": "R1_Sample_0.25"
    }
  ],
  "meshes": [
    {
      "primitives": [
        {
          "attributes": {
            "POSITION": 0,
            "NORMAL": 1
          },
          "indices": 2,
          "mode": 4,
          "material": 0
        }
      ],
      "name": "Block_1.0"
    },
    {
      "primitives": [
        {
          "attributes": {
            "POSITION": 3,
            "NORMAL": 4
          },
          "indices": 2,
          "mode": 4,
          "material": 1
        }
      ],
      "name": "Block_1.5"
    },
    {
      "primitives": [
        {
          "attributes": {
            "POSITION": 5,
            "NORMAL": 6
          },
          "indices": 2,
          "mode": 4,
          "material": 2
        }
      ],
      "name": "Block_2.0"
    },
    {
      "primitives": [
        {
          "attributes": {
            "POSITION": 7,
            "NORMAL": 8
          },
          "indices": 2,
          "mode": 4,
          "material": 3
        }
      ],
      "name": "Block_0.50"
    },
    {
      "primitives": [
        {
          "attributes": {
            "POSITION": 9,
            "NORMAL": 10
          },
          "indices": 2,
          "mode": 4,
          "material": 4
        }
      ],
      "name": "Block_0.25"
    },
    {
      "primitives": [
        {
          "extensions": {
            "NG2_mesh_lod": {
              "levels": [
                {
                  "indices": 34,
                  "error": 0.621728
                }
              ]
            }
          },
          "attributes": {
            "POSITION": 11,
            "NORMAL": 12,
            "TEXCOORD_0": 13
          },
          "indices": 14,
          "mode": 4,
          "material": 5
        }
      ],
      "name": "Labels"
    },
    {
      "primitives": [
        {
          "extensions": {
            "NG2_mesh_lod": {
              "levels": [
                {
                  "indices": 35,
                  "error": 0.433013
                }
              ]
            }
          },
          "attributes": {
            "POSITION": 15,
            "NORMAL": 16,
            "TEXCOORD_0": 17
          },
          "indices": 18,
          "mode": 4,
          "material": 6
        }
      ],
      "name": "Block_Row"
    },
    {
      "primitives": [
        {
          "attributes": {
            "POSITION": 0,
            "NORMAL": 1
          },
          "indices": 2,
          "mode": 4,
          "material": 7
        }
      ],
      "name": "Block_1.0"
    },
    {
      "primitives": [
        {
          "attributes": {
            "POSITION": 0,
            "NORMAL": 1
          },
          "indices": 2,
          "mode": 4,
          "material": 8
        }
      ],
      "name": "Block_1.0"
    },
    {
      "primitives": [
        {
          "attributes": {
            "POSITION": 0,
            "NORMAL": 1
          },
          "indices": 2,
          "mode": 4,
          "material": 9
        }
      ],
      "name": "Block_1.0"
    },
    {
      "primitives": [
        {
          "attributes": {
            "POSITION": 0,
            "NORMAL": 1
          },
          "indices": 2,
          "mode": 4,
          "material": 10
        }
      ],
      "name": "Block_1.0"
    },
    {
      "primitives": [
        {
          "attributes": {
            "POSITION": 0,
            "NORMAL": 1
          },
          "indices": 2,
          "mode": 4,
          "material": 11
        }
      ],
      "name": "Block_1.0"
    },
    {
      "primitives": [
        {
          "attributes": {
            "POSITION": 19,
            "NORMAL": 20,
            "TEXCOORD_0": 21
          },
          "indices": 22,
          "mode": 4,
          "material": 12
        }
      ],
      "name": "Plane"
    },
    {
      "primitives": [
        {
          "attributes": {
            "POSITION": 23,
            "NORMAL": 24
          },
          "indices": 25,
          "mode": 4,
          "material": 13
        }
      ],
      "name": "Quad_1.0"
    },
    {
      "primitives": [
        {
          "attributes": {
            "POSITION": 26,
            "NORMAL": 27
          },
          "indices": 25,
          "mode": 4,
          "material": 14
        }
      ],
      "name": "Quad_1.5"
    },
    {
      "primitives": [
        {
          "attributes": {
            "POSITION": 28,
            "NORMAL": 29
          },
          "indices": 25,
          "mode": 4,
          "material": 15
        }
      ],
      "name": "Quad_2.0"
    },
    {
      "primitives": [
        {
          "attributes": {
            "POSITION": 30,
            "NORMAL": 31
          },
          "indices": 25,
          "mode": 4,
          "material": 16
        }
      ],
      "name": "Quad_0.5"
    },
    {
      "primitives": [
        {
          "attributes": {
            "POSITION": 32,
            "NORMAL": 33
          },
          "indices": 25,
          "mode": 4,
          "material": 17
        }
      ],
      "name": "Quad_0.25"
    }
  ],
  "nodes": [
    {
      "mesh": 0,
      "translation": [
        0.0,
        3.0,
        0.0
      ],
      "name": "R2_Block_1.0"
    },
    {
      "mesh": 1,
      "translation": [
        2.5,
        3.0,
        0.0
      ],
      "name": "R2_Block_1.5"
    },
    {
      "mesh": 2,
      "translation": [
        6.0,
        3.0,
        0.0
      ],
      "name": "R2_Block_2.0"
    },
    {
      "mesh": 3,
      "translation": [
        -2.0,
        3.0,
        0.0
      ],
      "name": "R2_Block_0.50"
    },
    {
      "mesh": 4,
      "translation": [
        -3.5,
        3.0,
        0.0
      ],
      "name": "R2_Block_0.25"
    },
    {
      "mesh": 5,
      "name": "Labels"
    },
    {
      "mesh": 0,
      "translation": [
        0.0,
        -3.0,
        0.0
      ],
      "name": "R4_Block_1.0"
    },
    {
      "mesh": 0,
      "translation": [
        2.5,
        -3.0,
        0.0
      ],
      "scale": [
        1.5,
        1.5,
        1.5
      ],
      "name": "R4_Block_1.5"
    },
    {
      "mesh": 0,
      "translation": [
        6.0,
        -3.0,
        0.0
      ],
      "scale": [
        2.0,
        2.0,
        2.0
      ],
      "name": "R4_Block_2.0"
    },
    {
      "mesh": 0,
      "translation": [
        -2.0,
        -3.0,
        0.0
      ],
      "scale": [
        0.5,
        0.5,
        0.5
      ],
      "name": "R4_Block_0.50"
    },
    {
      "mesh": 0,
      "translation": [
        -3.5,
        -3.0,
        0.0
      ],
      "scale": [
        0.25,
        0.25,
        0.25
      ],
      "name": "R4_Block_0.25"
    },
    {
      "mesh": 6,
      "translation": [
        -3.5,
        0.0,
        0.0
      ],
      "name": "R3_Block_Row"
    },
    {
      "mesh": 7,
      "translation": [
        0.0,
        -6.0,
        0.0
      ],
      "name": "R5_Block_1.0"
    },
    {
      "mesh": 8,
      "translation": [
        2.5,
        -6.0,
        0.0
      ],
      "name": "R5_Block_1.5"
    },
    {
      "mesh": 9,
      "translation": [
        6.0,
        -6.0,
        0.0
      ],
      "name": "R5_Block_2.0"
    },
    {
      "mesh": 10,
      "translation": [
        -2.0,
        -6.0,
        0.0
      ],
      "name": "R5_Block_0.50"
    },
    {
      "mesh": 11,
      "translation": [
        -3.5,
        -6.0,
        0.0
      ],
      "name": "R5_Block_0.25"
    },
    {
      "mesh": 12,
      "translation": [
        0.0,
        0.0,
        -2.0
      ],
      "name": "MeterGrid"
    },
    {
      "mesh": 13,
      "translation": [
        0.0,
        6.0,
        0.0
      ],
      "name": "R1_Sample_1.0"
    },
    {
      "mesh": 14,
      "translation": [
        2.5,
        6.0,
        0.0
      ],
      "name": "R1_Sample_1.5"
    },
    {
      "mesh": 15,
      "translation": [
        6.0,
        6.0,
        0.0
      ],
      "name": "R1_Sample_2.0"
    },
    {
      "mesh": 16,
      "translation": [
        -2.0,
        6.0,
        0.0
      ],
      "name": "R1_Sample_0.50"
    },
    {
      "mesh": 17,
      "translation": [
        -3.5,
        6.0,
        0.0
      ],
      "name": "R1_Sample_0.25"
    }
  ],
  "samplers": [
    {
      "magFilter": 9729,
      "minFilter": 9987,
      "wrapS": 10497,
      "wrapT": 10497
    }
  ],
  "scene": 0,
  "scenes": [
    {
      "name": "Scene",
      "nodes": [
        0,
        1,
        2,
        3,
        4,
        5,
        6,
        7,
        8,
        9,
        10,
        11,
        12,
        13,
        14,
        15,
        16,
        17,
        18,
        19,
        20,
        21,
        22
      ]
    }
  ],
  "textures": [
    {
      "sampler": 0,
      "source": 0
    },
    {
      "sampler": 0,
      "source": 1
    },
    {
      "sampler": 0,
      "source": 2
    }
  ]
}