{
  "accessors": [
    {
      "bufferView": 9,
      "byteOffset": 0,
      "componentType": 5123,
      "normalized": false,
      "count": 3840,
      "type": "SCALAR"
    },
    {
      "bufferView": 0,
      "byteOffset": 0,
      "componentType": 5126,
      "normalized": false,
      "count": 673,
      "type": "VEC3",
      "max": [
        0.5,
        0.5,
        0.5
      ],
      "min": [
        -0.5,
        -0.5,
        -0.5
      ]
    },
    {
      "bufferView": 1,
      "byteOffset": 0,
      "componentType": 5126,
      "normalized": false,
      "count": 673,
      "type": "VEC2",
      "max": [
        0.9999999403953552,
        1.0
      ],
      "min": [
        -0.15000003576278687,
        0.0
      ]
    },
    {
      "bufferView": 2,
      "byteOffset": 0,
      "componentType": 5126,
      "normalized": false,
      "count": 673,
      "type": "VEC3",
      "max": [
        0.9999998211860657,
        1.0,
        1.0
      ],
      "min": [
        -0.9999998211860657,
        -1.0,
        -1.0
      ]
    },
    {
      "bufferView": 10,
      "byteOffset": 0,
      "componentType": 5123,
      "normalized": false,
      "count": 3840,
      "type": "SCALAR"
    },
    {
      "bufferView": 3,
      "byteOffset": 0,
      "componentType": 5126,
      "normalized": false,
      "count": 673,
      "type": "VEC3",
      "max": [
        0.5,
        0.5,
        0.5
      ],
      "min": [
        -0.5,
        -0.5,
        -0.5
      ]
    },
    {
      "bufferView": 4,
      "byteOffset": 0,
      "componentType": 5126,
      "normalized": false,
      "count": 673,
      "type": "VEC2",
      "max": [
        0.9999999403953552,
        1.0
      ],
      "min": [
        -0.15000003576278687,
        0.0
      ]
    },
    {
      "bufferView": 5,
      "byteOffset": 0,
      "componentType": 5126,
      "normalized": false,
      "count": 673,
      "type": "VEC3",
      "max": [
        0.9999998211860657,
        1.0,
        1.0
      ],
      "min": [
        -0.9999998211860657,
        -1.0,
        -1.0
      ]
    },
    {
      "bufferView": 11,
      "byteOffset": 0,
      "componentType": 5123,
      "normalized": false,
      "count": 6,
      "type": "SCALAR"
    },
    {
      "bufferView": 6,
      "byteOffset": 0,
      "componentType": 5126,
      "normalized": false,
      "count": 4,
      "type": "VEC3",
      "max": [
        1.5,
        0.75,
        0.0
      ],
      "min": [
        -1.5,
        -0.75,
        0.0
      ]
    },
    {
      "bufferView": 7,
      "byteOffset": 0,
      "componentType": 5126,
      "normalized": false,
      "count": 4,
      "type": "VEC2",
      "max": [
        8.0,
        1.0
      ],
      "min": [
        0.0,
        -3.0
      ]
    },
    {
      "bufferView": 8,
      "byteOffset": 0,
      "componentType": 5126,
      "normalized": false,
      "count": 4,
      "type": "VEC3",
      "max": [
        0.0,
        0.0,
        1.0
      ],
      "min": [
        0.0,
        0.0,
        1.0
      ]
    },
    {
      "bufferView": 9,
      "byteOffset": 7680,
      "componentType": 5123,
      "normalized": false,
      "count": 1920,
      "type": "SCALAR"
    },
    {
      "bufferView": 9,
      "byteOffset": 11520,
      "componentType": 5123,
      "normalized": false,
      "count": 960,
      "type": "SCALAR"
    },
    {
      "bufferView": 10,
      "byteOffset": 7680,
      "componentType": 5123,
      "normalized": false,
      "count": 1920,
      "type": "SCALAR"
    },
    {
      "bufferView": 10,
      "byteOffset": 11520,
      "componentType": 5123,
      "normalized": false,
      "count": 960,
      "type": "SCALAR"
    }
  ],
  "asset": {
    "generator": "GDS lod baker 1",
    "copyright": "Asset CC0, created by Eric Chadwick and DGG. glTF logo \u00a9 2017, Khronos Group.",
    "version": "2.0"
  },
  "bufferViews": [
    {
      "buffer": 0,
      "byteOffset": 0,
      "byteLength": 8076,
      "byteStride": 12,
      "target": 34962
    },
    {
      "buffer": 0,
      "byteOffset": 8076,
      "byteLength": 5384,
      "byteStride": 8,
      "target": 34962
    },
    {
      "buffer": 0,
      "byteOffset": 13460,
      "byteLength": 8076,
      "byteStride": 12,
      "target": 34962
    },
    {
      "buffer": 0,
      "byteOffset": 21536,
      "byteLength": 8076,
      "byteStride": 12,
      "target": 34962
    },
    {
      "buffer": 0,
      "byteOffset": 29612,
      "byteLength": 5384,
      "byteStride": 8,
      "target": 34962
    },
    {
      "buffer": 0,
      "byteOffset": 34996,
      "byteLength": 8076,
      "byteStride": 12,
      "target": 34962
    },
    {
      "buffer": 0,
      "byteOffset": 43072,
      "byteLength": 48,
      "byteStride": 12,
      "target": 34962
    },
    {
      "buffer": 0,
      "byteOffset": 43120,
      "byteLength": 32,
      "byteStride": 8,
      "target": 34962
    },
    {
      "buffer": 0,
      "byteOffset": 43152,
      "byteLength": 48,
      "byteStride": 12,
      "target": 34962
    },
    {
      "buffer": 0,
      "byteOffset": 43200,
      "byteLength": 13440,
      "target": 34963
    },
    {
      "buffer": 0,
      "byteOffset": 56640,
      "byteLength": 13440,
      "target": 34963
    },
    {
      "buffer": 0,
      "byteOffset": 70080,
      "byteLength": 12,
      "target": 34963
    }
  ],
  "buffers": [
    {
      "uri": "CompareIorLOD.bin",
      "byteLength": 70092
    }
  ],
  "extensionsUsed": [
    "KHR_materials_transmission",
    "KHR_materials_volume",
    "KHR_materials_ior",
    "NG2_mesh_lod"
  ],
  "images": [
    {
      "uri": "Compare_Ior_img0.jpg"
    },
    {
      "uri": "Compare_Ior_img1.jpg"
    },
    {
      "uri": "Compare_Ior_img2.jpg"
    },
    {
      "uri": "Compare_Ior_img3.jpg"
    }
  ],
  "materials": [
    {
      "extensions": {
        "KHR_materials_transmission": {
          "transmissionFactor": 1,
          "transmissionTexture": {
            "index": 3
          }
        }
      },
      "pbrMetallicRoughness": {
        "baseColorFactor": [
          1.0,
          1.0,
          1.0,
          1.0
        ],
        "metallicFactor": 0.0,
        "roughnessFactor": 0.69999,
        "baseColorTexture": {
          "index": 1,
          "texCoord": 0
        },
        "metallicRoughnessTexture": {
          "index": 2,
          "texCoord": 0
        }
      },
      "emissiveFactor": [
        0.0,
        0.0,
        0.0
      ],
      "alphaMode": "MASK",
      "doubleSided": false,
      "name": "glTF Logo Transmission"
    },
    {
      "extensions": {
        "KHR_materials_ior": {
          "ior": 2.42
        },
        "KHR_materials_transmission": {
          "transmissionFactor": 1,
          "transmissionTexture": {
            "index": 3
          }
        },
        "KHR_materials_volume": {
          "attenuationDistance": 1,
          "thicknessFactor": 1
        }
      },
      "pbrMetallicRoughness": {
        "baseColorFactor": [
          1.0,
          1.0,
          1.0,
          1.0
        ],
        "metallicFactor": 0.0,
        "roughnessFactor": 0.69999,
        "baseColorTexture": {
          "index": 1,
          "texCoord": 0
        },
        "metallicRoughnessTexture": {
          "index": 2,
          "texCoord": 0
        }
      },
      "emissiveFactor": [
        0.0,
        0.0,
        0.0
      ],
      "alphaMode": "MASK",
      "doubleSided": false,
      "name": "glTF Logo Transmission IOR"
    },
    {
      "pbrMetallicRoughness": {
        "baseColorFactor": [
          1.0,
          1.0,
          1.0,
          1.0
        ],
        "metallicFactor": 0.0,
        "roughnessFactor": 0.0,
        "baseColorTexture": {
          "index": 0,
          "texCoord": 0
        }
      },
      "emissiveFactor": [
        0.0,
        0.0,
        0.0
      ],
      "alphaMode": "OPAQUE",
      "doubleSided": false,
      "name": "checker"
    }
  ],
  "meshes": [
    {
      "primitives": [
        {
          "extensions": {
            "NG2_mesh_lod": {
              "levels": [
                {
                  "indices": 12,
                  "error": 0.007558
                },
                {
                  "indices": 13,
                  "error": 0.013508
                }
              ]
            }
          },
          "attributes": {
            "POSITION": 1,
            "NORMAL": 3,
            "TEXCOORD_0": 2
          },
          "indices": 0,
          "mode": 4,
          "material": 0
        }
      ],
      "name": "GeoSphere001"
    },
    {
      "primitives": [
        {
          "extensions": {
            "NG2_mesh_lod": {
              "levels": [
                {
                  "indices": 14,
                  "error": 0.007558
                },
                {
                  "indices": 15,
                  "error": 0.013508
                }
              ]
            }
          },
          "attributes": {
            "POSITION": 5,
            "NORMAL": 7,
            "TEXCOORD_0": 6
          },
          "indices": 4,
          "mode": 4,
          "material": 1
        }
      ],
      "name": "GeoSphere002"
    },
    {
      "primitives": [
        {
          "attributes": {
            "POSITION": 9,
            "NORMAL": 11,
            "TEXCOORD_0": 10
          },
          "indices": 8,
          "mode": 4,
          "material": 2
        }
      ],
      "name": "Checker"
    }
  ],
  "nodes": [
    {
      "mesh": 0,
      "rotation": [
        0.7071067690849304,
        0.0,
        0.0,
        -0.7071067690849304
      ],
      "translation": [
        -0.550000011920929,
        0.0,
        0.0
      ],
      "name": "GeoSphere001"
    },
    {
      "mesh": 1,
      "rotation": [
        0.7071067690849304,
        0.0,
        0.0,
        -0.7071067690849304
      ],
      "translation": [
        0.550000011920929,
        0.0,
        0.0
      ],
      "name": "GeoSphere002"
    },
    {
      "mesh": 2,
      "rotation": [
        -8.146034247147328e-08,
        0.0,
        0.0,
        -1.0
      ],
      "translation": [
        0.0,
        0.0,
        -1.0
      ],
      "name": "Checker"
    }
  ],
  "scene": 0,
  "scenes": [
    {
      "nodes": [
        0,
        1,
        2
      ]
    }
  ],
  "textures": [
    {
      "source": 0
    },
    {
      "source": 1
    },
    {
      "source": 2
    },
    {
      "source": 3
    }
  ]
}