{
  "accessors": [
    {
      "bufferView": 0,
      "byteOffset": 0,
      "componentType": 5126,
      "normalized": false,
      "count": 1370,
      "type": "VEC3",
      "max": [
        1.0,
        1.0,
        0.9999999403953552
      ],
      "min": [
        -1.0,
        -1.0,
        -1.0
      ]
    },
    {
      "bufferView": 1,
      "byteOffset": 0,
      "componentType": 5126,
      "normalized": false,
      "count": 1370,
      "type": "VEC3",
      "max": [
        3.1424999237060547,
        1.0800001621246338,
        3.1424999237060547
      ],
      "min": [
        -3.1424999237060547,
        0.0,
        -3.1424999237060547
      ]
    },
    {
      "bufferView": 2,
      "byteOffset": 0,
      "componentType": 5126,
      "normalized": false,
      "count": 1370,
      "type": "VEC2",
      "max": [
        0.4788788855075836,
        0.9999997615814209
      ],
      "min": [
        0.0,
        0.13088107109069824
      ]
    },
    {
      "bufferView": 3,
      "byteOffset": 0,
      "componentType": 5126,
      "normalized": false,
      "count": 1370,
      "type": "VEC4",
      "max": [
        0.879151463508606,
        0.9999262094497681,
        0.705284059047699,
        -1.0
      ],
      "min": [
        -0.9999253153800964,
        -0.9999262094497681,
        -0.9947656989097595,
        -1.0
      ]
    },
    {
      "bufferView": 16,
      "byteOffset": 0,
      "componentType": 5123,
      "normalized": false,
      "count": 7776,
      "type": "SCALAR"
    },
    {
      "bufferView": 4,
      "byteOffset": 0,
      "componentType": 5126,
      "normalized": false,
      "count": 3343,
      "type": "VEC3",
      "max": [
        0.9999500513076782,
        0.9999014139175415,
        0.9999500513076782
      ],
      "min": [
        -0.9999381899833679,
        -0.999993085861206,
        -0.9999380707740784
      ]
    },
    {
      "bufferView": 5,
      "byteOffset": 0,
      "componentType": 5126,
      "normalized": false,
      "count": 3343,
      "type": "VEC3",
      "max": [
        2.695894718170166,
        7.142886638641357,
        2.6958086490631104
      ],
      "min": [
        -2.6925480365753174,
        1.7548558712005615,
        -2.692633628845215
      ]
    },
    {
      "bufferView": 6,
      "byteOffset": 0,
      "componentType": 5126,
      "normalized": false,
      "count": 3343,
      "type": "VEC2",
      "max": [
        1.0,
        1.0
      ],
      "min": [
        0.3684975802898407,
        0.026162266731262207
      ]
    },
    {
      "bufferView": 7,
      "byteOffset": 0,
      "componentType": 5126,
      "normalized": false,
      "count": 3343,
      "type": "VEC4",
      "max": [
        0.9999979138374329,
        0.7071139216423035,
        0.9999999403953552,
        -1.0
      ],
      "min": [
        -1.0,
        -0.7149921655654907,
        -0.999998927116394,
        -1.0
      ]
    },
    {
      "bufferView": 17,
      "byteOffset": 0,
      "componentType": 5123,
      "normalized": false,
      "count": 18432,
      "type": "SCALAR"
    },
    {
      "bufferView": 8,
      "byteOffset": 0,
      "componentType": 5126,
      "normalized": false,
      "count": 12069,
      "type": "VEC3",
      "max": [
        1.0,
        1.0,
        1.0
      ],
      "min": [
        -1.0,
        -1.0,
        -1.0
      ]
    },
    {
      "bufferView": 9,
      "byteOffset": 0,
      "componentType": 5126,
      "normalized": false,
      "count": 12069,
      "type": "VEC3",
      "max": [
        4.461443901062012,
        8.204633712768555,
        4.4614434242248535
      ],
      "min": [
        -4.462121963500977,
        0.38515323400497437,
        -4.462122440338135
      ]
    },
    {
      "bufferView": 10,
      "byteOffset": 0,
      "componentType": 5126,
      "normalized": false,
      "count": 12069,
      "type": "VEC2",
      "max": [
        0.9996399283409119,
        1.0
      ],
      "min": [
        0.0,
        0.003414750099182129
      ]
    },
    {
      "bufferView": 11,
      "byteOffset": 0,
      "componentType": 5126,
      "normalized": false,
      "count": 12069,
      "type": "VEC4",
      "max": [
        1.0,
        0.9999656677246094,
        1.0,
        -1.0
      ],
      "min": [
        -1.0,
        -0.9999897480010986,
        -0.9999999403953552,
        -1.0
      ]
    },
    {
      "bufferView": 18,
      "byteOffset": 0,
      "componentType": 5123,
      "normalized": false,
      "count": 69276,
      "type": "SCALAR"
    },
    {
      "bufferView": 12,
      "byteOffset": 0,
      "componentType": 5126,
      "normalized": false,
      "count": 660,
      "type": "VEC3",
      "max": [
        0.9824094176292419,
        0.9824073314666748,
        0.9824076294898987
      ],
      "min": [
        -0.9826815724372864,
        -0.9826751947402954,
        -0.9826745986938477
      ]
    },
    {
      "bufferView": 13,
      "byteOffset": 0,
      "componentType": 5126,
      "normalized": false,
      "count": 660,
      "type": "VEC3",
      "max": [
        3.6077330112457275,
        8.05561637878418,
        3.612475872039795
      ],
      "min": [
        -0.4878491461277008,
        5.0547027587890625,
        -0.5115311145782471
      ]
    },
    {
      "bufferView": 14,
      "byteOffset": 0,
      "componentType": 5126,
      "normalized": false,
      "count": 660,
      "type": "VEC2",
      "max": [
        0.9992879033088684,
        0.9838582873344421
      ],
      "min": [
        -0.02289259433746338,
        7.510185241699219e-05
      ]
    },
    {
      "bufferView": 15,
      "byteOffset": 0,
      "componentType": 5126,
      "normalized": false,
      "count": 660,
      "type": "VEC4",
      "max": [
        1.0,
        0.9468715190887451,
        1.0,
        -1.0
      ],
      "min": [
        -1.0,
        -0.9338201880455017,
        -1.0,
        -1.0
      ]
    },
    {
      "bufferView": 19,
      "byteOffset": 0,
      "componentType": 5123,
      "normalized": false,
      "count": 3504,
      "type": "SCALAR"
    },
    {
      "bufferView": 16,
      "byteOffset": 15552,
      "componentType": 5123,
      "normalized": false,
      "count": 3888,
      "type": "SCALAR"
    },
    {
      "bufferView": 16,
      "byteOffset": 23328,
      "componentType": 5123,
      "normalized": false,
      "count": 1944,
      "type": "SCALAR"
    },
    {
      "bufferView": 17,
      "byteOffset": 36864,
      "componentType": 5123,
      "normalized": false,
      "count": 9216,
      "type": "SCALAR"
    },
    {
      "bufferView": 17,
      "byteOffset": 55296,
      "componentType": 5123,
      "normalized": false,
      "count": 4608,
      "type": "SCALAR"
    },
    {
      "bufferView": 18,
      "byteOffset": 138552,
      "componentType": 5123,
      "normalized": false,
      "count": 34638,
      "type": "SCALAR"
    },
    {
      "bufferView": 18,
      "byteOffset": 207828,
      "componentType": 5123,
      "normalized": false,
      "count": 17316,
      "type": "SCALAR"
    },
    {
      "bufferView": 19,
      "byteOffset": 7008,
      "componentType": 5123,
      "normalized": false,
      "count": 1752,
      "type": "SCALAR"
    },
    {
      "bufferView": 19,
      "byteOffset": 10512,
      "componentType": 5123,
      "normalized": false,
      "count": 876,
      "type": "SCALAR"
    }
  ],
  "asset": {
    "generator": "GDS lod baker 1",
    "copyright": "CCBY 4.0, geometry and textures: Chris Rydalch; original specification and validation: Andr\u00e9 Mazzone; original scene, inspiration and consultation: Thomas Anagnostou; glTF conversion: Eric Chadwick",
    "version": "2.0"
  },
  "bufferViews": [
    {
      "buffer": 0,
      "byteOffset": 0,
      "byteLength": 16440,
      "byteStride": 12,
      "target": 34962
    },
    {
      "buffer": 0,
      "byteOffset": 16440,
      "byteLength": 16440,
      "byteStride": 12,
      "target": 34962
    },
    {
      "buffer": 0,
      "byteOffset": 32880,
      "byteLength": 10960,
      "byteStride": 8,
      "target": 34962
    },
    {
      "buffer": 0,
      "byteOffset": 43840,
      "byteLength": 21920,
      "byteStride": 16,
      "target": 34962
    },
    {
      "buffer": 0,
      "byteOffset": 65760,
      "byteLength": 40116,
      "byteStride": 12,
      "target": 34962
    },
    {
      "buffer": 0,
      "byteOffset": 105876,
      "byteLength": 40116,
      "byteStride": 12,
      "target": 34962
    },
    {
      "buffer": 0,
      "byteOffset": 145992,
      "byteLength": 26744,
      "byteStride": 8,
      "target": 34962
    },
    {
      "buffer": 0,
      "byteOffset": 172736,
      "byteLength": 53488,
      "byteStride": 16,
      "target": 34962
    },
    {
      "buffer": 0,
      "byteOffset": 226224,
      "byteLength": 144828,
      "byteStride": 12,
      "target": 34962
    },
    {
      "buffer": 0,
      "byteOffset": 371052,
      "byteLength": 144828,
      "byteStride": 12,
      "target": 34962
    },
    {
      "buffer": 0,
      "byteOffset": 515880,
      "byteLength": 96552,
      "byteStride": 8,
      "target": 34962
    },
    {
      "buffer": 0,
      "byteOffset": 612432,
      "byteLength": 193104,
      "byteStride": 16,
      "target": 34962
    },
    {
      "buffer": 0,
      "byteOffset": 805536,
      "byteLength": 7920,
      "byteStride": 12,
      "target": 34962
    },
    {
      "buffer": 0,
      "byteOffset": 813456,
      "byteLength": 7920,
      "byteStride": 12,
      "target": 34962
    },
    {
      "buffer": 0,
      "byteOffset": 821376,
      "byteLength": 5280,
      "byteStride": 8,
      "target": 34962
    },
    {
      "buffer": 0,
      "byteOffset": 826656,
      "byteLength": 10560,
      "byteStride": 16,
      "target": 34962
    },
    {
      "buffer": 0,
      "byteOffset": 837216,
      "byteLength": 27216,
      "target": 34963
    },
    {
      "buffer": 0,
      "byteOffset": 864432,
      "byteLength": 64512,
      "target": 34963
    },
    {
      "buffer": 0,
      "byteOffset": 928944,
      "byteLength": 242460,
      "target": 34963
    },
    {
      "buffer": 0,
      "byteOffset": 1171404,
      "byteLength": 12264,
      "target": 34963
    }
  ],
  "buffers": [
    {
      "uri": "USDShaderBallForGltfLOD.bin",
      "byteLength": 1183668
    }
  ],
  "extensionsUsed": [
    "KHR_materials_transmission",
    "KHR_materials_volume",
    "NG2_mesh_lod"
  ],
  "images": [
    {
      "uri": "core_ao.png",
      "mimeType": "image/png",
      "name": "core_ao.png"
    },
    {
      "uri": "material_ao.png",
      "mimeType": "image/png",
      "name": "material_ao.png"
    },
    {
      "uri": "material_thick.png",
      "mimeType": "image/png",
      "name": "material_thick.png"
    },
    {
      "uri": "sss_bars.png",
      "mimeType": "image/png",
      "name": "sss_bars.png"
    }
  ],
  "materials": [
    {
      "pbrMetallicRoughness": {
        "baseColorFactor": [
          0.18,
          0.18,
          0.18,
          1.0
        ],
        "metallicFactor": 0.0,
        "roughnessFactor": 1.0
      },
      "occlusionTexture": {
        "index": 0,
        "texCoord": 0,
        "strength": 0.5
      },
      "emissiveFactor": [
        0.0,
        0.0,
        0.0
      ],
      "alphaMode": "OPAQUE",
      "doubleSided": false,
      "name": "core"
    },
    {
      "extensions": {
        "KHR_materials_transmission": {
          "transmissionFactor": 1
        },
        "KHR_materials_volume": {
          "thicknessFactor": 8.9,
          "thicknessTexture": {
            "index": 2,
            "texCoord": 0
          },
          "attenuationDistance": 0.01,
          "attenuationColor": [
            0.9734452903978066,
            0.9911020971136257,
            0.982250550332711
          ]
        }
      },
      "pbrMetallicRoughness": {
        "baseColorFactor": [
          1.0,
          1.0,
          1.0,
          1.0
        ],
        "metallicFactor": 0.0,
        "roughnessFactor": 0.0
      },
      "occlusionTexture": {
        "index": 1,
        "texCoord": 0,
        "strength": 0.5
      },
      "emissiveFactor": [
        0.0,
        0.0,
        0.0
      ],
      "alphaMode": "OPAQUE",
      "doubleSided": false,
      "name": "material_surface"
    },
    {
      "pbrMetallicRoughness": {
        "baseColorFactor": [
          1.0,
          1.0,
          1.0,
          1.0
        ],
        "metallicFactor": 0.0,
        "roughnessFactor": 1.0,
        "baseColorTexture": {
          "index": 3,
          "texCoord": 0
        }
      },
      "emissiveFactor": [
        0.0,
        0.0,
        0.0
      ],
      "alphaMode": "OPAQUE",
      "doubleSided": false,
      "name": "sss_bars"
    }
  ],
  "meshes": [
    {
      "primitives": [
        {
          "extensions": {
            "NG2_mesh_lod": {
              "levels": [
                {
                  "indices": 20,
                  "error": 0.016441
                },
                {
                  "indices": 21,
                  "error": 0.050314
                }
              ]
            }
          },
          "attributes": {
            "POSITION": 1,
            "NORMAL": 0,
            "TANGENT": 3,
            "TEXCOORD_0": 2
          },
          "indices": 4,
          "mode": 4,
          "material": 0
        }
      ]
    },
    {
      "primitives": [
        {
          "extensions": {
            "NG2_mesh_lod": {
              "levels": [
                {
                  "indices": 22,
                  "error": 0.007568
                },
                {
                  "indices": 23,
                  "error": 0.015765
                }
              ]
            }
          },
          "attributes": {
            "POSITION": 6,
            "NORMAL": 5,
            "TANGENT": 8,
            "TEXCOORD_0": 7
          },
          "indices": 9,
          "mode": 4,
          "material": 0
        }
      ]
    },
    {
      "primitives": [
        {
          "extensions": {
            "NG2_mesh_lod": {
              "levels": [
                {
                  "indices": 24,
                  "error": 0.012116
                },
                {
                  "indices": 25,
                  "error": 0.025339
                }
              ]
            }
          },
          "attributes": {
            "POSITION": 11,
            "NORMAL": 10,
            "TANGENT": 13,
            "TEXCOORD_0": 12
          },
          "indices": 14,
          "mode": 4,
          "material": 1
        }
      ]
    },
    {
      "primitives": [
        {
          "extensions": {
            "NG2_mesh_lod": {
              "levels": [
                {
                  "indices": 26,
                  "error": 0.015555
                },
                {
                  "indices": 27,
                  "error": 0.049486
                }
              ]
            }
          },
          "attributes": {
            "POSITION": 16,
            "NORMAL": 15,
            "TANGENT": 18,
            "TEXCOORD_0": 17
          },
          "indices": 19,
          "mode": 4,
          "material": 2
        }
      ]
    }
  ],
  "nodes": [
    {
      "mesh": 0,
      "matrix": [
        0.009999999776482582,
        0.0,
        0.0,
        0.0,
        0.0,
        0.009999999776482582,
        1.6292067694934076e-09,
        0.0,
        0.0,
        -1.6292067694934076e-09,
        0.009999999776482582,
        0.0,
        0.0,
        0.0,
        0.0,
        1.0
      ],
      "name": "base"
    },
    {
      "mesh": 1,
      "matrix": [
        0.009999999776482582,
        0.0,
        0.0,
        0.0,
        0.0,
        0.009999999776482582,
        1.6292067694934076e-09,
        0.0,
        0.0,
        -1.6292067694934076e-09,
        0.009999999776482582,
        0.0,
        0.0,
        0.0,
        0.0,
        1.0
      ],
      "name": "core"
    },
    {
      "mesh": 2,
      "matrix": [
        0.009999999776482582,
        0.0,
        0.0,
        0.0,
        0.0,
        0.009999999776482582,
        1.6292067694934076e-09,
        0.0,
        0.0,
        -1.6292067694934076e-09,
        0.009999999776482582,
        0.0,
        0.0,
        0.0,
        0.0,
        1.0
      ],
      "name": "material_surface"
    },
    {
      "mesh": 3,
      "matrix": [
        0.009999999776482582,
        0.0,
        0.0,
        0.0,
        0.0,
        0.009999999776482582,
        1.6292067694934076e-09,
        0.0,
        0.0,
        -1.6292067694934076e-09,
        0.009999999776482582,
        0.0,
        0.0,
        0.0,
        0.0,
        1.0
      ],
      "name": "sss_bars"
    }
  ],
  "samplers": [
    {
      "magFilter": 9729,
      "minFilter": 9987,
      "wrapS": 10497,
      "wrapT": 10497
    },
    {
      "magFilter": 9729,
      "minFilter": 9987,
      "wrapS": 33071,
      "wrapT": 33071
    },
    {
      "magFilter": 9729,
      "minFilter": 9987,
      "wrapS": 33071,
      "wrapT": 33071
    },
    {
      "magFilter": 9729,
      "minFilter": 9987,
      "wrapS": 33071,
      "wrapT": 33071
    }
  ],
  "scene": 0,
  "scenes": [
    {
      "name": "USDShaderBallForGltf",
      "nodes": [
        0,
        1,
        2,
        3
      ]
    }
  ],
  "textures": [
    {
      "sampler": 0,
      "source": 0,
      "name": "core_ao.png"
    },
    {
      "sampler": 1,
      "source": 1,
      "name": "material_ao.png"
    },
    {
      "sampler": 2,
      "source": 2,
      "name": "material_thick.png"
    },
    {
      "sampler": 3,
      "source": 3,
      "name": "sss_bars.png"
    }
  ]
}