{
  "accessors": [
    {
      "bufferView": 1,
      "byteOffset": 0,
      "componentType": 5123,
      "normalized": false,
      "count": 7,
      "type": "SCALAR",
      "name": "indices for POINTS"
    },
    {
      "bufferView": 2,
      "byteOffset": 0,
      "componentType": 5123,
      "normalized": false,
      "count": 12,
      "type": "SCALAR",
      "name": "indices for LINES"
    },
    {
      "bufferView": 3,
      "byteOffset": 0,
      "componentType": 5123,
      "normalized": false,
      "count": 7,
      "type": "SCALAR",
      "name": "indices for LINE_LOOP"
    },
    {
      "bufferView": 4,
      "byteOffset": 0,
      "componentType": 5123,
      "normalized": false,
      "count": 7,
      "type": "SCALAR",
      "name": "indices for LINE_STRIP"
    },
    {
      "bufferView": 5,
      "byteOffset": 0,
      "componentType": 5123,
      "normalized": false,
      "count": 18,
      "type": "SCALAR",
      "name": "indices for TRIANGLES"
    },
    {
      "bufferView": 6,
      "byteOffset": 0,
      "componentType": 5123,
      "normalized": false,
      "count": 6,
      "type": "SCALAR",
      "name": "indices for TRIANGLE_STRIP"
    },
    {
      "bufferView": 7,
      "byteOffset": 0,
      "componentType": 5123,
      "normalized": false,
      "count": 8,
      "type": "SCALAR",
      "name": "indices for TRIANGLE_FAN"
    },
    {
      "bufferView": 0,
      "byteOffset": 0,
      "componentType": 5126,
      "normalized": false,
      "count": 7,
      "type": "VEC3",
      "max": [
        0.866,
        1.0,
        0.0
      ],
      "min": [
        -0.866,
        -1.0,
        0.0
      ],
      "name": "positions"
    },
    {
      "bufferView": 5,
      "byteOffset": 36,
      "componentType": 5123,
      "normalized": false,
      "count": 12,
      "type": "SCALAR"
    }
  ],
  "asset": {
    "generator": "GDS lod baker 1",
    "version": "2.0"
  },
  "bufferViews": [
    {
      "buffer": 0,
      "byteOffset": 0,
      "byteLength": 84,
      "target": 34962
    },
    {
      "buffer": 0,
      "byteOffset": 84,
      "byteLength": 14,
      "target": 34963
    },
    {
      "buffer": 0,
      "byteOffset": 100,
      "byteLength": 24,
      "target": 34963
    },
    {
      "buffer": 0,
      "byteOffset": 124,
      "byteLength": 14,
      "target": 34963
    },
    {
      "buffer": 0,
      "byteOffset": 140,
      "byteLength": 14,
      "target": 34963
    },
    {
      "buffer": 0,
      "byteOffset": 156,
      "byteLength": 60,
      "target": 34963
    },
    {
      "buffer": 0,
      "byteOffset": 216,
      "byteLength": 12,
      "target": 34963
    },
    {
      "buffer": 0,
      "byteOffset": 228,
      "byteLength": 16,
      "target": 34963
    }
  ],
  "buffers": [
    {
      "uri": "MeshPrimitiveModesLOD.bin",
      "byteLength": 244
    }
  ],
  "extensionsUsed": [
    "NG2_mesh_lod"
  ],
  "meshes": [
    {
      "primitives": [
        {
          "attributes": {
            "POSITION": 7
          },
          "indices": 0,
          "mode": 0
        }
      ],
      "name": "mesh with POINTS"
    },
    {
      "primitives": [
        {
          "attributes": {
            "POSITION": 7
          },
          "indices": 1,
          "mode": 1
        }
      ],
      "name": "mesh with LINES"
    },
    {
      "primitives": [
        {
          "attributes": {
            "POSITION": 7
          },
          "indices": 2,
          "mode": 2
        }
      ],
      "name": "mesh with LINE_LOOP"
    },
    {
      "primitives": [
        {
          "attributes": {
            "POSITION": 7
          },
          "indices": 3,
          "mode": 3
        }
      ],
      "name": "mesh with LINE_STRIP"
    },
    {
      "primitives": [
        {
          "extensions": {
            "NG2_mesh_lod": {
              "levels": [
                {
                  "indices": 8,
                  "error": 0.000316
                }
              ]
            }
          },
          "attributes": {
            "POSITION": 7
          },
          "indices": 4,
          "mode": 4
        }
      ],
      "name": "mesh with TRIANGLES"
    },
    {
      "primitives": [
        {
          "attributes": {
            "POSITION": 7
          },
          "indices": 5,
          "mode": 5
        }
      ],
      "name": "mesh with GL_TRIANGLE_STRIP"
    },
    {
      "primitives": [
        {
          "attributes": {
            "POSITION": 7
          },
          "indices": 6,
          "mode": 6
        }
      ],
      "name": "mesh with GL_TRIANGLE_FAN"
    }
  ],
  "nodes": [
    {
      "mesh": 0,
      "translation": [
        0.0,
        3.0,
        0.0
      ]
    },
    {
      "mesh": 1,
      "translation": [
        -2.0,
        0.0,
        0.0
      ]
    },
    {
      "mesh": 2,
      "translation": [
        0.0,
        0.0,
        0.0
      ]
    },
    {
      "mesh": 3,
      "translation": [
        2.0,
        0.0,
        0.0
      ]
    },
    {
      "mesh": 4,
      "translation": [
        -2.0,
        -3.0,
        0.0
      ]
    },
    {
      "mesh": 5,
      "translation": [
        0.0,
        -3.0,
        0.0
      ]
    },
    {
      "mesh": 6,
      "translation": [
        2.0,
        -3.0,
        0.0
      ]
    }
  ],
  "scene": 0,
  "scenes": [
    {
      "nodes": [
        0,
        1,
        2,
        3,
        4,
        5,
        6
      ]
    }
  ]
}