{
  "accessors": [
    {
      "bufferView": 0,
      "byteOffset": 0,
      "componentType": 5126,
      "normalized": false,
      "count": 11505,
      "type": "VEC2"
    },
    {
      "bufferView": 1,
      "byteOffset": 0,
      "componentType": 5126,
      "normalized": false,
      "count": 11505,
      "type": "VEC3"
    },
    {
      "bufferView": 2,
      "byteOffset": 0,
      "componentType": 5126,
      "normalized": false,
      "count": 11505,
      "type": "VEC4"
    },
    {
      "bufferView": 3,
      "byteOffset": 0,
      "componentType": 5126,
      "normalized": false,
      "count": 11505,
      "type": "VEC3",
      "max": [
        0.019474864,
        0.05784153,
        0.019474864
      ],
      "min": [
        -0.0194748752,
        0.0,
        -0.0194748677
      ]
    },
    {
      "bufferView": 4,
      "byteOffset": 0,
      "componentType": 5123,
      "normalized": false,
      "count": 54972,
      "type": "SCALAR"
    },
    {
      "bufferView": 4,
      "byteOffset": 109944,
      "componentType": 5123,
      "normalized": false,
      "count": 27486,
      "type": "SCALAR"
    },
    {
      "bufferView": 4,
      "byteOffset": 164916,
      "componentType": 5123,
      "normalized": false,
      "count": 13740,
      "type": "SCALAR"
    }
  ],
  "asset": {
    "generator": "GDS lod baker 1",
    "version": "2.0"
  },
  "bufferViews": [
    {
      "buffer": 0,
      "byteOffset": 0,
      "byteLength": 92040
    },
    {
      "buffer": 0,
      "byteOffset": 92040,
      "byteLength": 138060
    },
    {
      "buffer": 0,
      "byteOffset": 230100,
      "byteLength": 184080
    },
    {
      "buffer": 0,
      "byteOffset": 414180,
      "byteLength": 138060
    },
    {
      "buffer": 0,
      "byteOffset": 552240,
      "byteLength": 192396,
      "target": 34963
    }
  ],
  "buffers": [
    {
      "uri": "CorsetLOD.bin",
      "byteLength": 744636
    }
  ],
  "extensionsUsed": [
    "NG2_mesh_lod"
  ],
  "images": [
    {
      "uri": "Corset_baseColor.png"
    },
    {
      "uri": "Corset_occlusionRoughnessMetallic.png"
    },
    {
      "uri": "Corset_normal.png"
    }
  ],
  "materials": [
    {
      "pbrMetallicRoughness": {
        "baseColorFactor": [
          1.0,
          1.0,
          1.0,
          1.0
        ],
        "metallicFactor": 1.0,
        "roughnessFactor": 1.0,
        "baseColorTexture": {
          "index": 0,
          "texCoord": 0
        },
        "metallicRoughnessTexture": {
          "index": 1,
          "texCoord": 0
        }
      },
      "normalTexture": {
        "index": 2,
        "scale": 1.0
      },
      "occlusionTexture": {
        "index": 1,
        "strength": 1.0
      },
      "emissiveFactor": [
        0.0,
        0.0,
        0.0
      ],
      "alphaMode": "OPAQUE",
      "doubleSided": false,
      "name": "Corset_O"
    }
  ],
  "meshes": [
    {
      "primitives": [
        {
          "extensions": {
            "NG2_mesh_lod": {
              "levels": [
                {
                  "indices": 5,
                  "error": 9.1e-05
                },
                {
                  "indices": 6,
                  "error": 0.000337
                }
              ]
            }
          },
          "attributes": {
            "POSITION": 3,
            "NORMAL": 1,
            "TANGENT": 2,
            "TEXCOORD_0": 0
          },
          "indices": 4,
          "mode": 4,
          "material": 0
        }
      ],
      "name": "pCube49"
    }
  ],
  "nodes": [
    {
      "mesh": 0,
      "rotation": [
        0.0,
        1.0,
        0.0,
        0.0
      ],
      "name": "Corset"
    }
  ],
  "scene": 0,
  "scenes": [
    {
      "nodes": [
        0
      ]
    }
  ],
  "textures": [
    {
      "source": 0
    },
    {
      "source": 1
    },
    {
      "source": 2
    }
  ]
}