{
  "extensions": {
    "KHR_lights_punctual": {
      "lights": [
        {
          "color": [
            1,
            1,
            1
          ],
          "intensity": 1.0,
          "range": 1.125,
          "type": "point",
          "name": "Light White"
        },
        {
          "color": [
            1,
            0,
            0
          ],
          "intensity": 1.0,
          "range": 1.125,
          "type": "point",
          "name": "Light Red"
        },
        {
          "color": [
            0,
            0,
            1
          ],
          "intensity": 1.0,
          "range": 1.125,
          "type": "point",
          "name": "Light Blue"
        },
        {
          "color": [
            0,
            1,
            0
          ],
          "intensity": 1.0,
          "range": 1.125,
          "type": "point",
          "name": "Light Green"
        },
        {
          "color": [
            0.5,
            0.5,
            0.5
          ],
          "intensity": 1.0,
          "range": 1.125,
          "type": "point",
          "name": "Light Gray"
        },
        {
          "color": [
            0,
            0,
            1
          ],
          "intensity": 1.0,
          "range": 1.125,
          "type": "point",
          "name": "Light RGB - B"
        },
        {
          "color": [
            0,
            1,
            0
          ],
          "intensity": 1.0,
          "range": 1.125,
          "type": "point",
          "name": "Light RGB - G"
        },
        {
          "color": [
            1,
            0,
            0
          ],
          "intensity": 1.0,
          "range": 1.125,
          "type": "point",
          "name": "Light RGB - R"
        }
      ]
    }
  },
  "accessors": [
    {
      "bufferView": 0,
      "byteOffset": 0,
      "componentType": 5126,
      "normalized": false,
      "count": 24,
      "type": "VEC3",
      "max": [
        1.0,
        1.0,
        0.01000000536441803
      ],
      "min": [
        -1.0,
        -1.0,
        -0.01000000536441803
      ]
    },
    {
      "bufferView": 1,
      "byteOffset": 0,
      "componentType": 5126,
      "normalized": false,
      "count": 24,
      "type": "VEC3"
    },
    {
      "bufferView": 7,
      "byteOffset": 0,
      "componentType": 5123,
      "normalized": false,
      "count": 36,
      "type": "SCALAR"
    },
    {
      "bufferView": 2,
      "byteOffset": 0,
      "componentType": 5126,
      "normalized": false,
      "count": 248,
      "type": "VEC3",
      "max": [
        1.0508430004119873,
        1.0508430004119873,
        0.04675546661019325
      ],
      "min": [
        -1.050843358039856,
        -1.0508430004119873,
        -0.01667710579931736
      ]
    },
    {
      "bufferView": 3,
      "byteOffset": 0,
      "componentType": 5126,
      "normalized": false,
      "count": 248,
      "type": "VEC3"
    },
    {
      "bufferView": 8,
      "byteOffset": 0,
      "componentType": 5123,
      "normalized": false,
      "count": 768,
      "type": "SCALAR"
    },
    {
      "bufferView": 4,
      "byteOffset": 0,
      "componentType": 5126,
      "normalized": false,
      "count": 24,
      "type": "VEC3",
      "max": [
        2.606239080429077,
        0.9107398390769958,
        0.0
      ],
      "min": [
        -3.115797281265259,
        -1.8662872314453125,
        0.0
      ]
    },
    {
      "bufferView": 5,
      "byteOffset": 0,
      "componentType": 5126,
      "normalized": false,
      "count": 24,
      "type": "VEC3"
    },
    {
      "bufferView": 6,
      "byteOffset": 0,
      "componentType": 5126,
      "normalized": false,
      "count": 24,
      "type": "VEC2"
    },
    {
      "bufferView": 9,
      "byteOffset": 0,
      "componentType": 5123,
      "normalized": false,
      "count": 36,
      "type": "SCALAR"
    },
    {
      "bufferView": 8,
      "byteOffset": 1536,
      "componentType": 5123,
      "normalized": false,
      "count": 384,
      "type": "SCALAR"
    },
    {
      "bufferView": 8,
      "byteOffset": 2304,
      "componentType": 5123,
      "normalized": false,
      "count": 264,
      "type": "SCALAR"
    }
  ],
  "asset": {
    "generator": "GDS lod baker 1",
    "copyright": "CC0: This work has been marked as dedicated to the public domain. Model and texture by Ed Mackey.",
    "version": "2.0"
  },
  "bufferViews": [
    {
      "buffer": 0,
      "byteOffset": 0,
      "byteLength": 288,
      "target": 34962
    },
    {
      "buffer": 0,
      "byteOffset": 288,
      "byteLength": 288,
      "target": 34962
    },
    {
      "buffer": 0,
      "byteOffset": 576,
      "byteLength": 2976,
      "target": 34962
    },
    {
      "buffer": 0,
      "byteOffset": 3552,
      "byteLength": 2976,
      "target": 34962
    },
    {
      "buffer": 0,
      "byteOffset": 6528,
      "byteLength": 288,
      "target": 34962
    },
    {
      "buffer": 0,
      "byteOffset": 6816,
      "byteLength": 288,
      "target": 34962
    },
    {
      "buffer": 0,
      "byteOffset": 7104,
      "byteLength": 192,
      "target": 34962
    },
    {
      "buffer": 0,
      "byteOffset": 7296,
      "byteLength": 72,
      "target": 34963
    },
    {
      "buffer": 0,
      "byteOffset": 7368,
      "byteLength": 2832,
      "target": 34963
    },
    {
      "buffer": 0,
      "byteOffset": 10200,
      "byteLength": 72,
      "target": 34963
    }
  ],
  "buffers": [
    {
      "uri": "PointLightIntensityTestLOD.bin",
      "byteLength": 10272
    }
  ],
  "extensionsUsed": [
    "KHR_lights_punctual",
    "KHR_materials_unlit",
    "NG2_mesh_lod"
  ],
  "images": [
    {
      "uri": "LampColorNames.png",
      "mimeType": "image/png",
      "name": "LampColorNames"
    }
  ],
  "materials": [
    {
      "pbrMetallicRoughness": {
        "baseColorFactor": [
          0.800000011920929,
          0.800000011920929,
          0.800000011920929,
          1.0
        ],
        "metallicFactor": 0.0,
        "roughnessFactor": 0.5
      },
      "emissiveFactor": [
        0.0,
        0.0,
        0.0
      ],
      "alphaMode": "OPAQUE",
      "doubleSided": true,
      "name": "Test Surface Material"
    },
    {
      "pbrMetallicRoughness": {
        "baseColorFactor": [
          0.09947684407234192,
          0.02381850965321064,
          0.005595927592366934,
          1.0
        ],
        "metallicFactor": 0.0,
        "roughnessFactor": 0.5
      },
      "emissiveFactor": [
        0.0,
        0.0,
        0.0
      ],
      "alphaMode": "OPAQUE",
      "doubleSided": true,
      "name": "Frame Material"
    },
    {
      "extensions": {
        "KHR_materials_unlit": {}
      },
      "pbrMetallicRoughness": {
        "baseColorFactor": [
          1.0,
          1.0,
          1.0,
          1.0
        ],
        "metallicFactor": 0.0,
        "roughnessFactor": 1.0,
        "baseColorTexture": {
          "index": 0,
          "texCoord": 0
        }
      },
      "emissiveFactor": [
        0.0,
        0.0,
        0.0
      ],
      "alphaMode": "OPAQUE",
      "doubleSided": false,
      "name": "Label Mat"
    }
  ],
  "meshes": [
    {
      "primitives": [
        {
          "attributes": {
            "POSITION": 0,
            "NORMAL": 1
          },
          "indices": 2,
          "mode": 4,
          "material": 0
        },
        {
          "extensions": {
            "NG2_mesh_lod": {
              "levels": [
                {
                  "indices": 10,
                  "error": 0.006164
                },
                {
                  "indices": 11,
                  "error": 0.073647
                }
              ]
            }
          },
          "attributes": {
            "POSITION": 3,
            "NORMAL": 4
          },
          "indices": 5,
          "mode": 4,
          "material": 1
        }
      ],
      "name": "Test Surface Mesh"
    },
    {
      "primitives": [
        {
          "attributes": {
            "POSITION": 6,
            "NORMAL": 7,
            "TEXCOORD_0": 8
          },
          "indices": 9,
          "mode": 4,
          "material": 2
        }
      ],
      "name": "Label Mesh"
    }
  ],
  "nodes": [
    {
      "extensions": {
        "KHR_lights_punctual": {
          "light": 0
        }
      },
      "rotation": [
        -0.7071068286895752,
        0.0,
        0.0,
        0.7071068286895752
      ],
      "translation": [
        0.0,
        0.0,
        0.20000000298023224
      ],
      "name": "Light 4 - White"
    },
    {
      "mesh": 0,
      "translation": [
        0.0,
        -2.5,
        0.0
      ],
      "children": [
        0
      ],
      "name": "Test 4 - White"
    },
    {
      "mesh": 1,
      "translation": [
        0.0,
        -2.0,
        0.0
      ],
      "name": "Labels"
    },
    {
      "extensions": {
        "KHR_lights_punctual": {
          "light": 1
        }
      },
      "rotation": [
        -0.7071068286895752,
        0.0,
        0.0,
        0.7071068286895752
      ],
      "translation": [
        0.0,
        0.0,
        0.20000000298023224
      ],
      "name": "Light 1 - Red"
    },
    {
      "mesh": 0,
      "translation": [
        -2.25,
        0.0,
        0.0
      ],
      "children": [
        3
      ],
      "name": "Test 1 - Red"
    },
    {
      "extensions": {
        "KHR_lights_punctual": {
          "light": 2
        }
      },
      "rotation": [
        -0.7071068286895752,
        0.0,
        0.0,
        0.7071068286895752
      ],
      "translation": [
        0.0,
        0.0,
        0.20000000298023224
      ],
      "name": "Light 3 - Blue"
    },
    {
      "mesh": 0,
      "translation": [
        2.25,
        0.0,
        0.0
      ],
      "children": [
        5
      ],
      "name": "Test 3 - Blue"
    },
    {
      "extensions": {
        "KHR_lights_punctual": {
          "light": 3
        }
      },
      "rotation": [
        -0.7071068286895752,
        0.0,
        0.0,
        0.7071068286895752
      ],
      "translation": [
        0.0,
        0.0,
        0.20000000298023224
      ],
      "name": "Light 2 - Green"
    },
    {
      "mesh": 0,
      "children": [
        7
      ],
      "name": "Test 2 - Green"
    },
    {
      "extensions": {
        "KHR_lights_punctual": {
          "light": 4
        }
      },
      "rotation": [
        -0.7071068286895752,
        0.0,
        0.0,
        0.7071068286895752
      ],
      "translation": [
        0.0,
        0.0,
        0.20000000298023224
      ],
      "name": "Light 5 - Gray"
    },
    {
      "mesh": 0,
      "translation": [
        2.25,
        -2.5,
        0.0
      ],
      "children": [
        9
      ],
      "name": "Test 5 - Gray"
    },
    {
      "extensions": {
        "KHR_lights_punctual": {
          "light": 5
        }
      },
      "rotation": [
        -0.7071068286895752,
        0.0,
        0.0,
        0.7071068286895752
      ],
      "translation": [
        0.0,
        0.0,
        0.20000000298023224
      ],
      "name": "Light 6 B"
    },
    {
      "extensions": {
        "KHR_lights_punctual": {
          "light": 6
        }
      },
      "rotation": [
        -0.7071068286895752,
        0.0,
        0.0,
        0.7071068286895752
      ],
      "translation": [
        0.0,
        0.0,
        0.20000000298023224
      ],
      "name": "Light 6 G"
    },
    {
      "extensions": {
        "KHR_lights_punctual": {
          "light": 7
        }
      },
      "rotation": [
        -0.7071068286895752,
        0.0,
        0.0,
        0.7071068286895752
      ],
      "translation": [
        0.0,
        0.0,
        0.20000000298023224
      ],
      "name": "Light 6 R"
    },
    {
      "mesh": 0,
      "translation": [
        -2.25,
        -2.5,
        0.0
      ],
      "children": [
        11,
        12,
        13
      ],
      "name": "Test 6 - RGB"
    }
  ],
  "samplers": [
    {
      "magFilter": 9729,
      "minFilter": 9987,
      "wrapS": 10497,
      "wrapT": 10497
    }
  ],
  "scene": 0,
  "scenes": [
    {
      "name": "Scene",
      "nodes": [
        1,
        2,
        4,
        6,
        8,
        10,
        14
      ]
    }
  ],
  "textures": [
    {
      "sampler": 0,
      "source": 0
    }
  ]
}