{
  "extensions": {
    "KHR_lights_punctual": {
      "lights": [
        {
          "color": [
            1.0,
            0.0,
            0.0
          ],
          "intensity": 5.0,
          "range": 5.0,
          "spot": {
            "innerConeAngle": 0.65,
            "outerConeAngle": 0.8
          },
          "type": "spot"
        },
        {
          "color": [
            0.0,
            1.0,
            0.0
          ],
          "intensity": 5.0,
          "range": 5.0,
          "spot": {
            "innerConeAngle": 0.65,
            "outerConeAngle": 0.8
          },
          "type": "spot"
        },
        {
          "color": [
            0.0,
            0.125,
            1.0
          ],
          "intensity": 6.0,
          "range": 5.0,
          "spot": {
            "innerConeAngle": 0.65,
            "outerConeAngle": 0.8
          },
          "type": "spot"
        }
      ]
    }
  },
  "accessors": [
    {
      "bufferView": 0,
      "byteOffset": 0,
      "componentType": 5126,
      "normalized": false,
      "count": 4,
      "type": "VEC3",
      "max": [
        3.0,
        1.5,
        0.0
      ],
      "min": [
        -3.0,
        -1.5,
        0.0
      ]
    },
    {
      "bufferView": 1,
      "byteOffset": 0,
      "componentType": 5126,
      "normalized": false,
      "count": 4,
      "type": "VEC3",
      "max": [
        -1.5259254723787308e-05,
        -1.5259254723787308e-05,
        1.0
      ],
      "min": [
        -1.5259254723787308e-05,
        -1.5259254723787308e-05,
        1.0
      ]
    },
    {
      "bufferView": 4,
      "byteOffset": 0,
      "componentType": 5121,
      "normalized": false,
      "count": 6,
      "type": "SCALAR"
    },
    {
      "bufferView": 2,
      "byteOffset": 0,
      "componentType": 5126,
      "normalized": false,
      "count": 11,
      "type": "SCALAR",
      "max": [
        5.0
      ],
      "min": [
        0.0
      ]
    },
    {
      "bufferView": 3,
      "byteOffset": 0,
      "componentType": 5121,
      "normalized": false,
      "count": 11,
      "type": "SCALAR",
      "max": [
        1.0
      ],
      "min": [
        0.0
      ]
    }
  ],
  "animations": [
    {
      "name": "BlinkingBlueLight",
      "channels": [
        {
          "sampler": 0,
          "target": {
            "extensions": {
              "KHR_animation_pointer": {
                "pointer": "/nodes/5/extensions/KHR_node_visibility/visible"
              }
            },
            "path": "pointer"
          }
        }
      ],
      "samplers": [
        {
          "input": 3,
          "interpolation": "STEP",
          "output": 4
        }
      ]
    }
  ],
  "asset": {
    "generator": "GDS lod baker 1",
    "copyright": "2025 The Khronos Group",
    "version": "2.0"
  },
  "bufferViews": [
    {
      "buffer": 0,
      "byteOffset": 0,
      "byteLength": 48,
      "byteStride": 12,
      "target": 34962
    },
    {
      "buffer": 0,
      "byteOffset": 48,
      "byteLength": 48,
      "byteStride": 12,
      "target": 34962
    },
    {
      "buffer": 0,
      "byteOffset": 96,
      "byteLength": 44
    },
    {
      "buffer": 0,
      "byteOffset": 140,
      "byteLength": 11
    },
    {
      "buffer": 0,
      "byteOffset": 152,
      "byteLength": 6,
      "target": 34963
    }
  ],
  "buffers": [
    {
      "uri": "LightVisibilityLOD.bin",
      "byteLength": 158
    }
  ],
  "extensionsUsed": [
    "KHR_animation_pointer",
    "KHR_lights_punctual",
    "KHR_node_visibility"
  ],
  "extensionsRequired": [
    "KHR_lights_punctual",
    "KHR_node_visibility"
  ],
  "meshes": [
    {
      "primitives": [
        {
          "attributes": {
            "POSITION": 0,
            "NORMAL": 1
          },
          "indices": 2,
          "mode": 4
        }
      ]
    }
  ],
  "nodes": [
    {
      "children": [
        1,
        4,
        5,
        6
      ],
      "name": "LightVisibility"
    },
    {
      "extensions": {
        "KHR_lights_punctual": {
          "light": 0
        },
        "KHR_node_visibility": {
          "visible": false
        }
      },
      "translation": [
        -1.5,
        0.0,
        1.0
      ],
      "children": [
        2
      ],
      "name": "InvisibleLight"
    },
    {
      "extensions": {
        "KHR_lights_punctual": {
          "light": 0
        }
      },
      "children": [
        3
      ],
      "name": "ChildOfInvisibleShouldBeInvisible"
    },
    {
      "extensions": {
        "KHR_lights_punctual": {
          "light": 0
        }
      },
      "name": "DescendantOfInvisibleShouldBeInvisible"
    },
    {
      "extensions": {
        "KHR_lights_punctual": {
          "light": 1
        }
      },
      "translation": [
        0.0,
        0.0,
        1.0
      ],
      "name": "VisibleLight"
    },
    {
      "extensions": {
        "KHR_lights_punctual": {
          "light": 2
        },
        "KHR_node_visibility": {
          "visible": true
        }
      },
      "translation": [
        1.5,
        0.0,
        1.0
      ],
      "name": "AnimatedVisibility"
    },
    {
      "mesh": 0,
      "name": "QuadMeshNode"
    }
  ],
  "scene": 0,
  "scenes": [
    {
      "nodes": [
        0
      ]
    }
  ]
}