{
  "accessors": [
    {
      "bufferView": 0,
      "byteOffset": 0,
      "componentType": 5126,
      "normalized": false,
      "count": 162,
      "type": "VEC3",
      "max": [
        0.00800000037997961,
        0.00400000112131238,
        0.006533777341246605
      ],
      "min": [
        -0.00800000037997961,
        -0.0074775926768779755,
        -0.006533777341246605
      ]
    },
    {
      "bufferView": 1,
      "byteOffset": 0,
      "componentType": 5126,
      "normalized": false,
      "count": 162,
      "type": "VEC3"
    },
    {
      "bufferView": 8,
      "byteOffset": 0,
      "componentType": 5123,
      "normalized": false,
      "count": 960,
      "type": "SCALAR"
    },
    {
      "bufferView": 2,
      "byteOffset": 0,
      "componentType": 5126,
      "normalized": false,
      "count": 62640,
      "type": "VEC3",
      "max": [
        0.9367440342903137,
        0.9221298694610596,
        1.3796980381011963
      ],
      "min": [
        -0.8658662438392639,
        -0.09841562807559967,
        -0.5093139410018921
      ]
    },
    {
      "bufferView": 3,
      "byteOffset": 0,
      "componentType": 5126,
      "normalized": false,
      "count": 62640,
      "type": "VEC3"
    },
    {
      "bufferView": 4,
      "byteOffset": 0,
      "componentType": 5126,
      "normalized": false,
      "count": 62640,
      "type": "VEC2"
    },
    {
      "bufferView": 9,
      "byteOffset": 0,
      "componentType": 5123,
      "normalized": false,
      "count": 131337,
      "type": "SCALAR"
    },
    {
      "bufferView": 5,
      "byteOffset": 0,
      "componentType": 5126,
      "normalized": false,
      "count": 96,
      "type": "VEC3",
      "max": [
        0.575060248374939,
        0.6456959247589111,
        7.563436099644605e-08
      ],
      "min": [
        -1.2287383079528809,
        -0.3347471058368683,
        -0.0010000774636864662
      ]
    },
    {
      "bufferView": 6,
      "byteOffset": 0,
      "componentType": 5126,
      "normalized": false,
      "count": 96,
      "type": "VEC3"
    },
    {
      "bufferView": 7,
      "byteOffset": 0,
      "componentType": 5126,
      "normalized": false,
      "count": 96,
      "type": "VEC2"
    },
    {
      "bufferView": 10,
      "byteOffset": 0,
      "componentType": 5123,
      "normalized": false,
      "count": 144,
      "type": "SCALAR"
    },
    {
      "bufferView": 8,
      "byteOffset": 1920,
      "componentType": 5123,
      "normalized": false,
      "count": 480,
      "type": "SCALAR"
    },
    {
      "bufferView": 8,
      "byteOffset": 2880,
      "componentType": 5123,
      "normalized": false,
      "count": 240,
      "type": "SCALAR"
    },
    {
      "bufferView": 9,
      "byteOffset": 262674,
      "componentType": 5123,
      "normalized": false,
      "count": 65667,
      "type": "SCALAR"
    },
    {
      "bufferView": 10,
      "byteOffset": 288,
      "componentType": 5123,
      "normalized": false,
      "count": 108,
      "type": "SCALAR"
    }
  ],
  "asset": {
    "generator": "GDS lod baker 1",
    "copyright": "CC-BY 4.0 Copyright 2023 Analytical Graphics, Inc. Model by Ed Mackey.  Cloth backdrop CC0 by Adobe Inc.",
    "version": "2.0"
  },
  "bufferViews": [
    {
      "buffer": 0,
      "byteOffset": 0,
      "byteLength": 1944,
      "target": 34962
    },
    {
      "buffer": 0,
      "byteOffset": 1944,
      "byteLength": 1944,
      "target": 34962
    },
    {
      "buffer": 0,
      "byteOffset": 3888,
      "byteLength": 751680,
      "target": 34962
    },
    {
      "buffer": 0,
      "byteOffset": 755568,
      "byteLength": 751680,
      "target": 34962
    },
    {
      "buffer": 0,
      "byteOffset": 1507248,
      "byteLength": 501120,
      "target": 34962
    },
    {
      "buffer": 0,
      "byteOffset": 2008368,
      "byteLength": 1152,
      "target": 34962
    },
    {
      "buffer": 0,
      "byteOffset": 2009520,
      "byteLength": 1152,
      "target": 34962
    },
    {
      "buffer": 0,
      "byteOffset": 2010672,
      "byteLength": 768,
      "target": 34962
    },
    {
      "buffer": 0,
      "byteOffset": 2011440,
      "byteLength": 3360,
      "target": 34963
    },
    {
      "buffer": 0,
      "byteOffset": 2014800,
      "byteLength": 394008,
      "target": 34963
    },
    {
      "buffer": 0,
      "byteOffset": 2408808,
      "byteLength": 504,
      "target": 34963
    }
  ],
  "buffers": [
    {
      "uri": "DispersionTestLOD.bin",
      "byteLength": 2409312
    }
  ],
  "extensionsUsed": [
    "KHR_materials_transmission",
    "KHR_materials_volume",
    "KHR_materials_ior",
    "KHR_materials_dispersion",
    "NG2_mesh_lod"
  ],
  "images": [
    {
      "uri": "CheckerWithLines.png",
      "mimeType": "image/png",
      "name": "CheckerWithLines"
    },
    {
      "uri": "Dispersion_Labels2.png",
      "mimeType": "image/png",
      "name": "Dispersion_Labels2"
    }
  ],
  "materials": [
    {
      "extensions": {
        "KHR_materials_transmission": {
          "transmissionFactor": 1
        },
        "KHR_materials_volume": {
          "thicknessFactor": 0.018478000536561012
        },
        "KHR_materials_ior": {
          "ior": 1
        },
        "KHR_materials_dispersion": {
          "dispersion": 0
        }
      },
      "pbrMetallicRoughness": {
        "baseColorFactor": [
          0.8500000238418579,
          0.8500000238418579,
          0.8500000238418579,
          1.0
        ],
        "metallicFactor": 0.0,
        "roughnessFactor": 0.0
      },
      "emissiveFactor": [
        0.0,
        0.0,
        0.0
      ],
      "alphaMode": "OPAQUE",
      "doubleSided": false,
      "name": "Mat_IOR_1.0_D1"
    },
    {
      "pbrMetallicRoughness": {
        "baseColorFactor": [
          1.0,
          1.0,
          1.0,
          1.0
        ],
        "metallicFactor": 0.0,
        "roughnessFactor": 0.4934999942779541,
        "baseColorTexture": {
          "index": 0,
          "texCoord": 0
        }
      },
      "emissiveFactor": [
        0.0,
        0.0,
        0.0
      ],
      "alphaMode": "OPAQUE",
      "doubleSided": false,
      "name": "Cloth Backdrop"
    },
    {
      "pbrMetallicRoughness": {
        "baseColorFactor": [
          1.0,
          1.0,
          1.0,
          1.0
        ],
        "metallicFactor": 0.0,
        "roughnessFactor": 0.800000011920929,
        "baseColorTexture": {
          "index": 1,
          "texCoord": 0
        }
      },
      "emissiveFactor": [
        0.0,
        0.0,
        0.0
      ],
      "alphaMode": "OPAQUE",
      "doubleSided": false,
      "name": "LabelMat"
    },
    {
      "extensions": {
        "KHR_materials_transmission": {
          "transmissionFactor": 1
        },
        "KHR_materials_volume": {
          "thicknessFactor": 0.018478000536561012
        },
        "KHR_materials_ior": {
          "ior": 1
        },
        "KHR_materials_dispersion": {
          "dispersion": 0.5
        }
      },
      "pbrMetallicRoughness": {
        "baseColorFactor": [
          0.8468725681304932,
          0.8468727469444275,
          0.8468734622001648,
          1.0
        ],
        "metallicFactor": 0.0,
        "roughnessFactor": 0.0
      },
      "emissiveFactor": [
        0.0,
        0.0,
        0.0
      ],
      "alphaMode": "OPAQUE",
      "doubleSided": false,
      "name": "Mat_IOR_1.0_D2"
    },
    {
      "extensions": {
        "KHR_materials_transmission": {
          "transmissionFactor": 1
        },
        "KHR_materials_volume": {
          "thicknessFactor": 0.018478000536561012
        },
        "KHR_materials_ior": {
          "ior": 1
        },
        "KHR_materials_dispersion": {
          "dispersion": 1.0
        }
      },
      "pbrMetallicRoughness": {
        "baseColorFactor": [
          0.8468725681304932,
          0.8468727469444275,
          0.8468734622001648,
          1.0
        ],
        "metallicFactor": 0.0,
        "roughnessFactor": 0.0
      },
      "emissiveFactor": [
        0.0,
        0.0,
        0.0
      ],
      "alphaMode": "OPAQUE",
      "doubleSided": false,
      "name": "Mat_IOR_1.0_D3"
    },
    {
      "extensions": {
        "KHR_materials_transmission": {
          "transmissionFactor": 1
        },
        "KHR_materials_volume": {
          "thicknessFactor": 0.018478000536561012
        },
        "KHR_materials_ior": {
          "ior": 1
        },
        "KHR_materials_dispersion": {
          "dispersion": 2.0
        }
      },
      "pbrMetallicRoughness": {
        "baseColorFactor": [
          0.8468725681304932,
          0.8468727469444275,
          0.8468734622001648,
          1.0
        ],
        "metallicFactor": 0.0,
        "roughnessFactor": 0.0
      },
      "emissiveFactor": [
        0.0,
        0.0,
        0.0
      ],
      "alphaMode": "OPAQUE",
      "doubleSided": false,
      "name": "Mat_IOR_1.0_D4"
    },
    {
      "extensions": {
        "KHR_materials_transmission": {
          "transmissionFactor": 1
        },
        "KHR_materials_volume": {
          "thicknessFactor": 0.018478000536561012
        },
        "KHR_materials_ior": {
          "ior": 1
        },
        "KHR_materials_dispersion": {
          "dispersion": 5.0
        }
      },
      "pbrMetallicRoughness": {
        "baseColorFactor": [
          0.8468725681304932,
          0.8468727469444275,
          0.8468734622001648,
          1.0
        ],
        "metallicFactor": 0.0,
        "roughnessFactor": 0.0
      },
      "emissiveFactor": [
        0.0,
        0.0,
        0.0
      ],
      "alphaMode": "OPAQUE",
      "doubleSided": false,
      "name": "Mat_IOR_1.0_D5"
    },
    {
      "extensions": {
        "KHR_materials_transmission": {
          "transmissionFactor": 1
        },
        "KHR_materials_volume": {
          "thicknessFactor": 0.018478000536561012
        },
        "KHR_materials_ior": {
          "ior": 1.3300000429153442
        },
        "KHR_materials_dispersion": {
          "dispersion": 0
        }
      },
      "pbrMetallicRoughness": {
        "baseColorFactor": [
          0.8468725681304932,
          0.8468727469444275,
          0.8468734622001648,
          1.0
        ],
        "metallicFactor": 0.0,
        "roughnessFactor": 0.0
      },
      "emissiveFactor": [
        0.0,
        0.0,
        0.0
      ],
      "alphaMode": "OPAQUE",
      "doubleSided": false,
      "name": "Mat_IOR_1.33_D1"
    },
    {
      "extensions": {
        "KHR_materials_transmission": {
          "transmissionFactor": 1
        },
        "KHR_materials_volume": {
          "thicknessFactor": 0.018478000536561012
        },
        "KHR_materials_ior": {
          "ior": 1.3300000429153442
        },
        "KHR_materials_dispersion": {
          "dispersion": 0.5
        }
      },
      "pbrMetallicRoughness": {
        "baseColorFactor": [
          0.8468725681304932,
          0.8468727469444275,
          0.8468734622001648,
          1.0
        ],
        "metallicFactor": 0.0,
        "roughnessFactor": 0.0
      },
      "emissiveFactor": [
        0.0,
        0.0,
        0.0
      ],
      "alphaMode": "OPAQUE",
      "doubleSided": false,
      "name": "Mat_IOR_1.33_D2"
    },
    {
      "extensions": {
        "KHR_materials_transmission": {
          "transmissionFactor": 1
        },
        "KHR_materials_volume": {
          "thicknessFactor": 0.018478000536561012
        },
        "KHR_materials_ior": {
          "ior": 1.3300000429153442
        },
        "KHR_materials_dispersion": {
          "dispersion": 1.0
        }
      },
      "pbrMetallicRoughness": {
        "baseColorFactor": [
          0.8468725681304932,
          0.8468727469444275,
          0.8468734622001648,
          1.0
        ],
        "metallicFactor": 0.0,
        "roughnessFactor": 0.0
      },
      "emissiveFactor": [
        0.0,
        0.0,
        0.0
      ],
      "alphaMode": "OPAQUE",
      "doubleSided": false,
      "name": "Mat_IOR_1.33_D3"
    },
    {
      "extensions": {
        "KHR_materials_transmission": {
          "transmissionFactor": 1
        },
        "KHR_materials_volume": {
          "thicknessFactor": 0.018478000536561012
        },
        "KHR_materials_ior": {
          "ior": 1.3300000429153442
        },
        "KHR_materials_dispersion": {
          "dispersion": 2.0
        }
      },
      "pbrMetallicRoughness": {
        "baseColorFactor": [
          0.8468725681304932,
          0.8468727469444275,
          0.8468734622001648,
          1.0
        ],
        "metallicFactor": 0.0,
        "roughnessFactor": 0.0
      },
      "emissiveFactor": [
        0.0,
        0.0,
        0.0
      ],
      "alphaMode": "OPAQUE",
      "doubleSided": false,
      "name": "Mat_IOR_1.33_D4"
    },
    {
      "extensions": {
        "KHR_materials_transmission": {
          "transmissionFactor": 1
        },
        "KHR_materials_volume": {
          "thicknessFactor": 0.018478000536561012
        },
        "KHR_materials_ior": {
          "ior": 1.3300000429153442
        },
        "KHR_materials_dispersion": {
          "dispersion": 5.0
        }
      },
      "pbrMetallicRoughness": {
        "baseColorFactor": [
          0.8468725681304932,
          0.8468727469444275,
          0.8468734622001648,
          1.0
        ],
        "metallicFactor": 0.0,
        "roughnessFactor": 0.0
      },
      "emissiveFactor": [
        0.0,
        0.0,
        0.0
      ],
      "alphaMode": "OPAQUE",
      "doubleSided": false,
      "name": "Mat_IOR_1.33_D5"
    },
    {
      "extensions": {
        "KHR_materials_transmission": {
          "transmissionFactor": 1
        },
        "KHR_materials_volume": {
          "thicknessFactor": 0.018478000536561012
        },
        "KHR_materials_dispersion": {
          "dispersion": 0
        }
      },
      "pbrMetallicRoughness": {
        "baseColorFactor": [
          0.8468725681304932,
          0.8468727469444275,
          0.8468734622001648,
          1.0
        ],
        "metallicFactor": 0.0,
        "roughnessFactor": 0.0
      },
      "emissiveFactor": [
        0.0,
        0.0,
        0.0
      ],
      "alphaMode": "OPAQUE",
      "doubleSided": false,
      "name": "Mat_IOR_1.50_D1"
    },
    {
      "extensions": {
        "KHR_materials_transmission": {
          "transmissionFactor": 1
        },
        "KHR_materials_volume": {
          "thicknessFactor": 0.018478000536561012
        },
        "KHR_materials_dispersion": {
          "dispersion": 0.5
        }
      },
      "pbrMetallicRoughness": {
        "baseColorFactor": [
          0.8468725681304932,
          0.8468727469444275,
          0.8468734622001648,
          1.0
        ],
        "metallicFactor": 0.0,
        "roughnessFactor": 0.0
      },
      "emissiveFactor": [
        0.0,
        0.0,
        0.0
      ],
      "alphaMode": "OPAQUE",
      "doubleSided": false,
      "name": "Mat_IOR_1.50_D2"
    },
    {
      "extensions": {
        "KHR_materials_transmission": {
          "transmissionFactor": 1
        },
        "KHR_materials_volume": {
          "thicknessFactor": 0.018478000536561012
        },
        "KHR_materials_dispersion": {
          "dispersion": 1.0
        }
      },
      "pbrMetallicRoughness": {
        "baseColorFactor": [
          0.8468725681304932,
          0.8468727469444275,
          0.8468734622001648,
          1.0
        ],
        "metallicFactor": 0.0,
        "roughnessFactor": 0.0
      },
      "emissiveFactor": [
        0.0,
        0.0,
        0.0
      ],
      "alphaMode": "OPAQUE",
      "doubleSided": false,
      "name": "Mat_IOR_1.50_D3"
    },
    {
      "extensions": {
        "KHR_materials_transmission": {
          "transmissionFactor": 1
        },
        "KHR_materials_volume": {
          "thicknessFactor": 0.018478000536561012
        },
        "KHR_materials_dispersion": {
          "dispersion": 2.0
        }
      },
      "pbrMetallicRoughness": {
        "baseColorFactor": [
          0.8468725681304932,
          0.8468727469444275,
          0.8468734622001648,
          1.0
        ],
        "metallicFactor": 0.0,
        "roughnessFactor": 0.0
      },
      "emissiveFactor": [
        0.0,
        0.0,
        0.0
      ],
      "alphaMode": "OPAQUE",
      "doubleSided": false,
      "name": "Mat_IOR_1.50_D4"
    },
    {
      "extensions": {
        "KHR_materials_transmission": {
          "transmissionFactor": 1
        },
        "KHR_materials_volume": {
          "thicknessFactor": 0.018478000536561012
        },
        "KHR_materials_dispersion": {
          "dispersion": 5.0
        }
      },
      "pbrMetallicRoughness": {
        "baseColorFactor": [
          0.8468725681304932,
          0.8468727469444275,
          0.8468734622001648,
          1.0
        ],
        "metallicFactor": 0.0,
        "roughnessFactor": 0.0
      },
      "emissiveFactor": [
        0.0,
        0.0,
        0.0
      ],
      "alphaMode": "OPAQUE",
      "doubleSided": false,
      "name": "Mat_IOR_1.50_D5"
    },
    {
      "extensions": {
        "KHR_materials_transmission": {
          "transmissionFactor": 1
        },
        "KHR_materials_volume": {
          "thicknessFactor": 0.018478000536561012
        },
        "KHR_materials_ior": {
          "ior": 1.7599999904632568
        },
        "KHR_materials_dispersion": {
          "dispersion": 0
        }
      },
      "pbrMetallicRoughness": {
        "baseColorFactor": [
          0.8468725681304932,
          0.8468727469444275,
          0.8468734622001648,
          1.0
        ],
        "metallicFactor": 0.0,
        "roughnessFactor": 0.0
      },
      "emissiveFactor": [
        0.0,
        0.0,
        0.0
      ],
      "alphaMode": "OPAQUE",
      "doubleSided": false,
      "name": "Mat_IOR_1.76_D1"
    },
    {
      "extensions": {
        "KHR_materials_transmission": {
          "transmissionFactor": 1
        },
        "KHR_materials_volume": {
          "thicknessFactor": 0.018478000536561012
        },
        "KHR_materials_ior": {
          "ior": 1.7599999904632568
        },
        "KHR_materials_dispersion": {
          "dispersion": 0.5
        }
      },
      "pbrMetallicRoughness": {
        "baseColorFactor": [
          0.8468725681304932,
          0.8468727469444275,
          0.8468734622001648,
          1.0
        ],
        "metallicFactor": 0.0,
        "roughnessFactor": 0.0
      },
      "emissiveFactor": [
        0.0,
        0.0,
        0.0
      ],
      "alphaMode": "OPAQUE",
      "doubleSided": false,
      "name": "Mat_IOR_1.76_D2"
    },
    {
      "extensions": {
        "KHR_materials_transmission": {
          "transmissionFactor": 1
        },
        "KHR_materials_volume": {
          "thicknessFactor": 0.018478000536561012
        },
        "KHR_materials_ior": {
          "ior": 1.7599999904632568
        },
        "KHR_materials_dispersion": {
          "dispersion": 1.0
        }
      },
      "pbrMetallicRoughness": {
        "baseColorFactor": [
          0.8468725681304932,
          0.8468727469444275,
          0.8468734622001648,
          1.0
        ],
        "metallicFactor": 0.0,
        "roughnessFactor": 0.0
      },
      "emissiveFactor": [
        0.0,
        0.0,
        0.0
      ],
      "alphaMode": "OPAQUE",
      "doubleSided": false,
      "name": "Mat_IOR_1.76_D3"
    },
    {
      "extensions": {
        "KHR_materials_transmission": {
          "transmissionFactor": 1
        },
        "KHR_materials_volume": {
          "thicknessFactor": 0.018478000536561012
        },
        "KHR_materials_ior": {
          "ior": 1.7599999904632568
        },
        "KHR_materials_dispersion": {
          "dispersion": 2.0
        }
      },
      "pbrMetallicRoughness": {
        "baseColorFactor": [
          0.8468725681304932,
          0.8468727469444275,
          0.8468734622001648,
          1.0
        ],
        "metallicFactor": 0.0,
        "roughnessFactor": 0.0
      },
      "emissiveFactor": [
        0.0,
        0.0,
        0.0
      ],
      "alphaMode": "OPAQUE",
      "doubleSided": false,
      "name": "Mat_IOR_1.76_D4"
    },
    {
      "extensions": {
        "KHR_materials_transmission": {
          "transmissionFactor": 1
        },
        "KHR_materials_volume": {
          "thicknessFactor": 0.018478000536561012
        },
        "KHR_materials_ior": {
          "ior": 1.7599999904632568
        },
        "KHR_materials_dispersion": {
          "dispersion": 5.0
        }
      },
      "pbrMetallicRoughness": {
        "baseColorFactor": [
          0.8468725681304932,
          0.8468727469444275,
          0.8468734622001648,
          1.0
        ],
        "metallicFactor": 0.0,
        "roughnessFactor": 0.0
      },
      "emissiveFactor": [
        0.0,
        0.0,
        0.0
      ],
      "alphaMode": "OPAQUE",
      "doubleSided": false,
      "name": "Mat_IOR_1.76_D5"
    },
    {
      "extensions": {
        "KHR_materials_transmission": {
          "transmissionFactor": 1
        },
        "KHR_materials_volume": {
          "thicknessFactor": 0.018478000536561012
        },
        "KHR_materials_ior": {
          "ior": 2.4200000762939453
        },
        "KHR_materials_dispersion": {
          "dispersion": 0
        }
      },
      "pbrMetallicRoughness": {
        "baseColorFactor": [
          0.8468725681304932,
          0.8468727469444275,
          0.8468734622001648,
          1.0
        ],
        "metallicFactor": 0.0,
        "roughnessFactor": 0.0
      },
      "emissiveFactor": [
        0.0,
        0.0,
        0.0
      ],
      "alphaMode": "OPAQUE",
      "doubleSided": false,
      "name": "Mat_IOR_2.42_D1"
    },
    {
      "extensions": {
        "KHR_materials_transmission": {
          "transmissionFactor": 1
        },
        "KHR_materials_volume": {
          "thicknessFactor": 0.018478000536561012
        },
        "KHR_materials_ior": {
          "ior": 2.4200000762939453
        },
        "KHR_materials_dispersion": {
          "dispersion": 0.5
        }
      },
      "pbrMetallicRoughness": {
        "baseColorFactor": [
          0.8468725681304932,
          0.8468727469444275,
          0.8468734622001648,
          1.0
        ],
        "metallicFactor": 0.0,
        "roughnessFactor": 0.0
      },
      "emissiveFactor": [
        0.0,
        0.0,
        0.0
      ],
      "alphaMode": "OPAQUE",
      "doubleSided": false,
      "name": "Mat_IOR_2.42_D2"
    },
    {
      "extensions": {
        "KHR_materials_transmission": {
          "transmissionFactor": 1
        },
        "KHR_materials_volume": {
          "thicknessFactor": 0.018478000536561012
        },
        "KHR_materials_ior": {
          "ior": 2.4200000762939453
        },
        "KHR_materials_dispersion": {
          "dispersion": 1.0
        }
      },
      "pbrMetallicRoughness": {
        "baseColorFactor": [
          0.8468725681304932,
          0.8468727469444275,
          0.8468734622001648,
          1.0
        ],
        "metallicFactor": 0.0,
        "roughnessFactor": 0.0
      },
      "emissiveFactor": [
        0.0,
        0.0,
        0.0
      ],
      "alphaMode": "OPAQUE",
      "doubleSided": false,
      "name": "Mat_IOR_2.42_D3"
    },
    {
      "extensions": {
        "KHR_materials_transmission": {
          "transmissionFactor": 1
        },
        "KHR_materials_volume": {
          "thicknessFactor": 0.018478000536561012
        },
        "KHR_materials_ior": {
          "ior": 2.4200000762939453
        },
        "KHR_materials_dispersion": {
          "dispersion": 2.0
        }
      },
      "pbrMetallicRoughness": {
        "baseColorFactor": [
          0.8468725681304932,
          0.8468727469444275,
          0.8468734622001648,
          1.0
        ],
        "metallicFactor": 0.0,
        "roughnessFactor": 0.0
      },
      "emissiveFactor": [
        0.0,
        0.0,
        0.0
      ],
      "alphaMode": "OPAQUE",
      "doubleSided": false,
      "name": "Mat_IOR_2.42_D4"
    },
    {
      "extensions": {
        "KHR_materials_transmission": {
          "transmissionFactor": 1
        },
        "KHR_materials_volume": {
          "thicknessFactor": 0.018478000536561012
        },
        "KHR_materials_ior": {
          "ior": 2.4200000762939453
        },
        "KHR_materials_dispersion": {
          "dispersion": 5.0
        }
      },
      "pbrMetallicRoughness": {
        "baseColorFactor": [
          0.8468725681304932,
          0.8468727469444275,
          0.8468734622001648,
          1.0
        ],
        "metallicFactor": 0.0,
        "roughnessFactor": 0.0
      },
      "emissiveFactor": [
        0.0,
        0.0,
        0.0
      ],
      "alphaMode": "OPAQUE",
      "doubleSided": false,
      "name": "Mat_IOR_2.42_D5"
    }
  ],
  "meshes": [
    {
      "primitives": [
        {
          "extensions": {
            "NG2_mesh_lod": {
              "levels": [
                {
                  "indices": 11,
                  "error": 0.00013
                },
                {
                  "indices": 12,
                  "error": 0.00033
                }
              ]
            }
          },
          "attributes": {
            "POSITION": 0,
            "NORMAL": 1
          },
          "indices": 2,
          "mode": 4,
          "material": 0
        }
      ],
      "name": "Prism"
    },
    {
      "primitives": [
        {
          "extensions": {
            "NG2_mesh_lod": {
              "levels": [
                {
                  "indices": 13,
                  "error": 0.002766
                }
              ]
            }
          },
          "attributes": {
            "POSITION": 3,
            "NORMAL": 4,
            "TEXCOORD_0": 5
          },
          "indices": 6,
          "mode": 4,
          "material": 1
        }
      ],
      "name": "Cloth Backdrop"
    },
    {
      "primitives": [
        {
          "extensions": {
            "NG2_mesh_lod": {
              "levels": [
                {
                  "indices": 14,
                  "error": 0.08618
                }
              ]
            }
          },
          "attributes": {
            "POSITION": 7,
            "NORMAL": 8,
            "TEXCOORD_0": 9
          },
          "indices": 10,
          "mode": 4,
          "material": 2
        }
      ],
      "name": "IOR Labels"
    },
    {
      "primitives": [
        {
          "extensions": {
            "NG2_mesh_lod": {
              "levels": [
                {
                  "indices": 11,
                  "error": 0.00013
                },
                {
                  "indices": 12,
                  "error": 0.00033
                }
              ]
            }
          },
          "attributes": {
            "POSITION": 0,
            "NORMAL": 1
          },
          "indices": 2,
          "mode": 4,
          "material": 3
        }
      ],
      "name": "Prism"
    },
    {
      "primitives": [
        {
          "extensions": {
            "NG2_mesh_lod": {
              "levels": [
                {
                  "indices": 11,
                  "error": 0.00013
                },
                {
                  "indices": 12,
                  "error": 0.00033
                }
              ]
            }
          },
          "attributes": {
            "POSITION": 0,
            "NORMAL": 1
          },
          "indices": 2,
          "mode": 4,
          "material": 4
        }
      ],
      "name": "Prism"
    },
    {
      "primitives": [
        {
          "extensions": {
            "NG2_mesh_lod": {
              "levels": [
                {
                  "indices": 11,
                  "error": 0.00013
                },
                {
                  "indices": 12,
                  "error": 0.00033
                }
              ]
            }
          },
          "attributes": {
            "POSITION": 0,
            "NORMAL": 1
          },
          "indices": 2,
          "mode": 4,
          "material": 5
        }
      ],
      "name": "Prism"
    },
    {
      "primitives": [
        {
          "extensions": {
            "NG2_mesh_lod": {
              "levels": [
                {
                  "indices": 11,
                  "error": 0.00013
                },
                {
                  "indices": 12,
                  "error": 0.00033
                }
              ]
            }
          },
          "attributes": {
            "POSITION": 0,
            "NORMAL": 1
          },
          "indices": 2,
          "mode": 4,
          "material": 6
        }
      ],
      "name": "Prism"
    },
    {
      "primitives": [
        {
          "extensions": {
            "NG2_mesh_lod": {
              "levels": [
                {
                  "indices": 11,
                  "error": 0.00013
                },
                {
                  "indices": 12,
                  "error": 0.00033
                }
              ]
            }
          },
          "attributes": {
            "POSITION": 0,
            "NORMAL": 1
          },
          "indices": 2,
          "mode": 4,
          "material": 7
        }
      ],
      "name": "Prism"
    },
    {
      "primitives": [
        {
          "extensions": {
            "NG2_mesh_lod": {
              "levels": [
                {
                  "indices": 11,
                  "error": 0.00013
                },
                {
                  "indices": 12,
                  "error": 0.00033
                }
              ]
            }
          },
          "attributes": {
            "POSITION": 0,
            "NORMAL": 1
          },
          "indices": 2,
          "mode": 4,
          "material": 8
        }
      ],
      "name": "Prism"
    },
    {
      "primitives": [
        {
          "extensions": {
            "NG2_mesh_lod": {
              "levels": [
                {
                  "indices": 11,
                  "error": 0.00013
                },
                {
                  "indices": 12,
                  "error": 0.00033
                }
              ]
            }
          },
          "attributes": {
            "POSITION": 0,
            "NORMAL": 1
          },
          "indices": 2,
          "mode": 4,
          "material": 9
        }
      ],
      "name": "Prism"
    },
    {
      "primitives": [
        {
          "extensions": {
            "NG2_mesh_lod": {
              "levels": [
                {
                  "indices": 11,
                  "error": 0.00013
                },
                {
                  "indices": 12,
                  "error": 0.00033
                }
              ]
            }
          },
          "attributes": {
            "POSITION": 0,
            "NORMAL": 1
          },
          "indices": 2,
          "mode": 4,
          "material": 10
        }
      ],
      "name": "Prism"
    },
    {
      "primitives": [
        {
          "extensions": {
            "NG2_mesh_lod": {
              "levels": [
                {
                  "indices": 11,
                  "error": 0.00013
                },
                {
                  "indices": 12,
                  "error": 0.00033
                }
              ]
            }
          },
          "attributes": {
            "POSITION": 0,
            "NORMAL": 1
          },
          "indices": 2,
          "mode": 4,
          "material": 11
        }
      ],
      "name": "Prism"
    },
    {
      "primitives": [
        {
          "extensions": {
            "NG2_mesh_lod": {
              "levels": [
                {
                  "indices": 11,
                  "error": 0.00013
                },
                {
                  "indices": 12,
                  "error": 0.00033
                }
              ]
            }
          },
          "attributes": {
            "POSITION": 0,
            "NORMAL": 1
          },
          "indices": 2,
          "mode": 4,
          "material": 12
        }
      ],
      "name": "Prism"
    },
    {
      "primitives": [
        {
          "extensions": {
            "NG2_mesh_lod": {
              "levels": [
                {
                  "indices": 11,
                  "error": 0.00013
                },
                {
                  "indices": 12,
                  "error": 0.00033
                }
              ]
            }
          },
          "attributes": {
            "POSITION": 0,
            "NORMAL": 1
          },
          "indices": 2,
          "mode": 4,
          "material": 13
        }
      ],
      "name": "Prism"
    },
    {
      "primitives": [
        {
          "extensions": {
            "NG2_mesh_lod": {
              "levels": [
                {
                  "indices": 11,
                  "error": 0.00013
                },
                {
                  "indices": 12,
                  "error": 0.00033
                }
              ]
            }
          },
          "attributes": {
            "POSITION": 0,
            "NORMAL": 1
          },
          "indices": 2,
          "mode": 4,
          "material": 14
        }
      ],
      "name": "Prism"
    },
    {
      "primitives": [
        {
          "extensions": {
            "NG2_mesh_lod": {
              "levels": [
                {
                  "indices": 11,
                  "error": 0.00013
                },
                {
                  "indices": 12,
                  "error": 0.00033
                }
              ]
            }
          },
          "attributes": {
            "POSITION": 0,
            "NORMAL": 1
          },
          "indices": 2,
          "mode": 4,
          "material": 15
        }
      ],
      "name": "Prism"
    },
    {
      "primitives": [
        {
          "extensions": {
            "NG2_mesh_lod": {
              "levels": [
                {
                  "indices": 11,
                  "error": 0.00013
                },
                {
                  "indices": 12,
                  "error": 0.00033
                }
              ]
            }
          },
          "attributes": {
            "POSITION": 0,
            "NORMAL": 1
          },
          "indices": 2,
          "mode": 4,
          "material": 16
        }
      ],
      "name": "Prism"
    },
    {
      "primitives": [
        {
          "extensions": {
            "NG2_mesh_lod": {
              "levels": [
                {
                  "indices": 11,
                  "error": 0.00013
                },
                {
                  "indices": 12,
                  "error": 0.00033
                }
              ]
            }
          },
          "attributes": {
            "POSITION": 0,
            "NORMAL": 1
          },
          "indices": 2,
          "mode": 4,
          "material": 17
        }
      ],
      "name": "Prism"
    },
    {
      "primitives": [
        {
          "extensions": {
            "NG2_mesh_lod": {
              "levels": [
                {
                  "indices": 11,
                  "error": 0.00013
                },
                {
                  "indices": 12,
                  "error": 0.00033
                }
              ]
            }
          },
          "attributes": {
            "POSITION": 0,
            "NORMAL": 1
          },
          "indices": 2,
          "mode": 4,
          "material": 18
        }
      ],
      "name": "Prism"
    },
    {
      "primitives": [
        {
          "extensions": {
            "NG2_mesh_lod": {
              "levels": [
                {
                  "indices": 11,
                  "error": 0.00013
                },
                {
                  "indices": 12,
                  "error": 0.00033
                }
              ]
            }
          },
          "attributes": {
            "POSITION": 0,
            "NORMAL": 1
          },
          "indices": 2,
          "mode": 4,
          "material": 19
        }
      ],
      "name": "Prism"
    },
    {
      "primitives": [
        {
          "extensions": {
            "NG2_mesh_lod": {
              "levels": [
                {
                  "indices": 11,
                  "error": 0.00013
                },
                {
                  "indices": 12,
                  "error": 0.00033
                }
              ]
            }
          },
          "attributes": {
            "POSITION": 0,
            "NORMAL": 1
          },
          "indices": 2,
          "mode": 4,
          "material": 20
        }
      ],
      "name": "Prism"
    },
    {
      "primitives": [
        {
          "extensions": {
            "NG2_mesh_lod": {
              "levels": [
                {
                  "indices": 11,
                  "error": 0.00013
                },
                {
                  "indices": 12,
                  "error": 0.00033
                }
              ]
            }
          },
          "attributes": {
            "POSITION": 0,
            "NORMAL": 1
          },
          "indices": 2,
          "mode": 4,
          "material": 21
        }
      ],
      "name": "Prism"
    },
    {
      "primitives": [
        {
          "extensions": {
            "NG2_mesh_lod": {
              "levels": [
                {
                  "indices": 11,
                  "error": 0.00013
                },
                {
                  "indices": 12,
                  "error": 0.00033
                }
              ]
            }
          },
          "attributes": {
            "POSITION": 0,
            "NORMAL": 1
          },
          "indices": 2,
          "mode": 4,
          "material": 22
        }
      ],
      "name": "Prism"
    },
    {
      "primitives": [
        {
          "extensions": {
            "NG2_mesh_lod": {
              "levels": [
                {
                  "indices": 11,
                  "error": 0.00013
                },
                {
                  "indices": 12,
                  "error": 0.00033
                }
              ]
            }
          },
          "attributes": {
            "POSITION": 0,
            "NORMAL": 1
          },
          "indices": 2,
          "mode": 4,
          "material": 23
        }
      ],
      "name": "Prism"
    },
    {
      "primitives": [
        {
          "extensions": {
            "NG2_mesh_lod": {
              "levels": [
                {
                  "indices": 11,
                  "error": 0.00013
                },
                {
                  "indices": 12,
                  "error": 0.00033
                }
              ]
            }
          },
          "attributes": {
            "POSITION": 0,
            "NORMAL": 1
          },
          "indices": 2,
          "mode": 4,
          "material": 24
        }
      ],
      "name": "Prism"
    },
    {
      "primitives": [
        {
          "extensions": {
            "NG2_mesh_lod": {
              "levels": [
                {
                  "indices": 11,
                  "error": 0.00013
                },
                {
                  "indices": 12,
                  "error": 0.00033
                }
              ]
            }
          },
          "attributes": {
            "POSITION": 0,
            "NORMAL": 1
          },
          "indices": 2,
          "mode": 4,
          "material": 25
        }
      ],
      "name": "Prism"
    },
    {
      "primitives": [
        {
          "extensions": {
            "NG2_mesh_lod": {
              "levels": [
                {
                  "indices": 11,
                  "error": 0.00013
                },
                {
                  "indices": 12,
                  "error": 0.00033
                }
              ]
            }
          },
          "attributes": {
            "POSITION": 0,
            "NORMAL": 1
          },
          "indices": 2,
          "mode": 4,
          "material": 26
        }
      ],
      "name": "Prism"
    }
  ],
  "nodes": [
    {
      "mesh": 0,
      "translation": [
        -0.05000000074505806,
        -0.029999999329447746,
        0.0
      ],
      "name": "Prism_IOR1.0_D1"
    },
    {
      "mesh": 1,
      "translation": [
        0.0,
        -0.03732438385486603,
        0.0
      ],
      "scale": [
        0.10000000894069672,
        0.10000002384185791,
        0.10000002384185791
      ],
      "name": "Cloth Backdrop"
    },
    {
      "mesh": 2,
      "scale": [
        0.10000002384185791,
        0.10000002384185791,
        0.10000002384185791
      ],
      "name": "IOR Labels"
    },
    {
      "mesh": 3,
      "translation": [
        -0.02500000037252903,
        -0.029999999329447746,
        0.0
      ],
      "name": "Prism_IOR1.0_D2"
    },
    {
      "mesh": 4,
      "translation": [
        0.0,
        -0.029999999329447746,
        0.0
      ],
      "name": "Prism_IOR1.0_D3"
    },
    {
      "mesh": 5,
      "translation": [
        0.02500000037252903,
        -0.029999999329447746,
        0.0
      ],
      "name": "Prism_IOR1.0_D4"
    },
    {
      "mesh": 6,
      "translation": [
        0.05000000074505806,
        -0.029999999329447746,
        0.0
      ],
      "name": "Prism_IOR1.0_D5"
    },
    {
      "mesh": 7,
      "translation": [
        -0.05000000074505806,
        -0.014999999664723873,
        0.0
      ],
      "name": "Prism_IOR1.33_D1"
    },
    {
      "mesh": 8,
      "translation": [
        -0.02500000037252903,
        -0.014999999664723873,
        0.0
      ],
      "name": "Prism_IOR1.33_D2"
    },
    {
      "mesh": 9,
      "translation": [
        0.0,
        -0.014999999664723873,
        0.0
      ],
      "name": "Prism_IOR1.33_D3"
    },
    {
      "mesh": 10,
      "translation": [
        0.02500000037252903,
        -0.014999999664723873,
        0.0
      ],
      "name": "Prism_IOR1.33_D4"
    },
    {
      "mesh": 11,
      "translation": [
        0.05000000074505806,
        -0.014999999664723873,
        0.0
      ],
      "name": "Prism_IOR1.33_D5"
    },
    {
      "mesh": 12,
      "translation": [
        -0.05000000074505806,
        0.0,
        0.0
      ],
      "name": "Prism_IOR1.50_D1"
    },
    {
      "mesh": 13,
      "translation": [
        -0.02500000037252903,
        0.0,
        0.0
      ],
      "name": "Prism_IOR1.50_D2"
    },
    {
      "mesh": 14,
      "name": "Prism_IOR1.50_D3"
    },
    {
      "mesh": 15,
      "translation": [
        0.02500000037252903,
        0.0,
        0.0
      ],
      "name": "Prism_IOR1.50_D4"
    },
    {
      "mesh": 16,
      "translation": [
        0.05000000074505806,
        0.0,
        0.0
      ],
      "name": "Prism_IOR1.50_D5"
    },
    {
      "mesh": 17,
      "translation": [
        -0.05000000074505806,
        0.014999999664723873,
        0.0
      ],
      "name": "Prism_IOR1.76_D1"
    },
    {
      "mesh": 18,
      "translation": [
        -0.02500000037252903,
        0.014999999664723873,
        0.0
      ],
      "name": "Prism_IOR1.76_D2"
    },
    {
      "mesh": 19,
      "translation": [
        0.0,
        0.014999999664723873,
        0.0
      ],
      "name": "Prism_IOR1.76_D3"
    },
    {
      "mesh": 20,
      "translation": [
        0.02500000037252903,
        0.014999999664723873,
        0.0
      ],
      "name": "Prism_IOR1.76_D4"
    },
    {
      "mesh": 21,
      "translation": [
        0.05000000074505806,
        0.014999999664723873,
        0.0
      ],
      "name": "Prism_IOR1.76_D5"
    },
    {
      "mesh": 22,
      "translation": [
        -0.05000000074505806,
        0.029999999329447746,
        0.0
      ],
      "name": "Prism_IOR2.42_D1"
    },
    {
      "mesh": 23,
      "translation": [
        -0.02500000037252903,
        0.029999999329447746,
        0.0
      ],
      "name": "Prism_IOR2.42_D2"
    },
    {
      "mesh": 24,
      "translation": [
        0.0,
        0.029999999329447746,
        0.0
      ],
      "name": "Prism_IOR2.42_D3"
    },
    {
      "mesh": 25,
      "translation": [
        0.02500000037252903,
        0.029999999329447746,
        0.0
      ],
      "name": "Prism_IOR2.42_D4"
    },
    {
      "mesh": 26,
      "translation": [
        0.05000000074505806,
        0.029999999329447746,
        0.0
      ],
      "name": "Prism_IOR2.42_D5"
    }
  ],
  "samplers": [
    {
      "magFilter": 9729,
      "minFilter": 9987,
      "wrapS": 10497,
      "wrapT": 10497
    }
  ],
  "scene": 0,
  "scenes": [
    {
      "name": "Scene",
      "nodes": [
        0,
        1,
        2,
        3,
        4,
        5,
        6,
        7,
        8,
        9,
        10,
        11,
        12,
        13,
        14,
        15,
        16,
        17,
        18,
        19,
        20,
        21,
        22,
        23,
        24,
        25,
        26
      ]
    }
  ],
  "textures": [
    {
      "sampler": 0,
      "source": 0
    },
    {
      "sampler": 0,
      "source": 1
    }
  ]
}