{
  "accessors": [
    {
      "bufferView": 4,
      "byteOffset": 0,
      "componentType": 5125,
      "normalized": false,
      "count": 70074,
      "type": "SCALAR"
    },
    {
      "bufferView": 0,
      "byteOffset": 0,
      "componentType": 5126,
      "normalized": false,
      "count": 70074,
      "type": "VEC3",
      "max": [
        1.1511525,
        1.4587184,
        1.2511277
      ],
      "min": [
        -1.1511525,
        -1.4587183,
        -1.2511287
      ]
    },
    {
      "bufferView": 1,
      "byteOffset": 0,
      "componentType": 5126,
      "normalized": false,
      "count": 70074,
      "type": "VEC3",
      "max": [
        0.99993396,
        0.9998779,
        0.9999757
      ],
      "min": [
        -0.99993396,
        -0.9999633,
        -0.9999864
      ]
    },
    {
      "bufferView": 2,
      "byteOffset": 0,
      "componentType": 5126,
      "normalized": false,
      "count": 70074,
      "type": "VEC4",
      "max": [
        0.9999959,
        1.0,
        0.9999942,
        1.0
      ],
      "min": [
        -0.99999845,
        -0.99996936,
        -0.9999994,
        1.0
      ]
    },
    {
      "bufferView": 3,
      "byteOffset": 0,
      "componentType": 5126,
      "normalized": false,
      "count": 70074,
      "type": "VEC2",
      "max": [
        0.995369,
        0.990894
      ],
      "min": [
        0.003625,
        0.0064439773
      ]
    }
  ],
  "asset": {
    "generator": "GDS lod baker 1",
    "version": "2.0"
  },
  "bufferViews": [
    {
      "buffer": 0,
      "byteOffset": 0,
      "byteLength": 840888,
      "target": 34962
    },
    {
      "buffer": 0,
      "byteOffset": 840888,
      "byteLength": 840888,
      "target": 34962
    },
    {
      "buffer": 0,
      "byteOffset": 1681776,
      "byteLength": 1121184,
      "target": 34962
    },
    {
      "buffer": 0,
      "byteOffset": 2802960,
      "byteLength": 560592,
      "target": 34962
    },
    {
      "buffer": 0,
      "byteOffset": 3363552,
      "byteLength": 280296,
      "target": 34963
    }
  ],
  "buffers": [
    {
      "uri": "SciFiHelmetLOD.bin",
      "byteLength": 3643848
    }
  ],
  "images": [
    {
      "uri": "SciFiHelmet_BaseColor.png"
    },
    {
      "uri": "SciFiHelmet_MetallicRoughness.png"
    },
    {
      "uri": "SciFiHelmet_Normal.png"
    },
    {
      "uri": "SciFiHelmet_AmbientOcclusion.png"
    }
  ],
  "materials": [
    {
      "pbrMetallicRoughness": {
        "baseColorFactor": [
          1.0,
          1.0,
          1.0,
          1.0
        ],
        "metallicFactor": 1.0,
        "roughnessFactor": 1.0,
        "baseColorTexture": {
          "index": 0,
          "texCoord": 0
        },
        "metallicRoughnessTexture": {
          "index": 1,
          "texCoord": 0
        }
      },
      "normalTexture": {
        "index": 2,
        "scale": 1.0
      },
      "occlusionTexture": {
        "index": 3,
        "strength": 1.0
      },
      "emissiveFactor": [
        0.0,
        0.0,
        0.0
      ],
      "alphaMode": "OPAQUE",
      "doubleSided": false,
      "name": "SciFiHelmet"
    }
  ],
  "meshes": [
    {
      "primitives": [
        {
          "attributes": {
            "POSITION": 1,
            "NORMAL": 2,
            "TANGENT": 3,
            "TEXCOORD_0": 4
          },
          "indices": 0,
          "mode": 4,
          "material": 0
        }
      ],
      "name": "SciFiHelmet"
    }
  ],
  "nodes": [
    {
      "rotation": [
        0.483536,
        0.336872,
        -0.208704,
        0.780483
      ],
      "translation": [
        7.481132,
        5.343665,
        6.50764
      ],
      "name": "Camera"
    },
    {
      "mesh": 0,
      "name": "SciFiHelmet"
    }
  ],
  "samplers": [
    {
      "wrapS": 10497,
      "wrapT": 10497
    }
  ],
  "scene": 0,
  "scenes": [
    {
      "nodes": [
        0,
        1
      ]
    }
  ],
  "textures": [
    {
      "sampler": 0,
      "source": 0
    },
    {
      "sampler": 0,
      "source": 1
    },
    {
      "sampler": 0,
      "source": 2
    },
    {
      "sampler": 0,
      "source": 3
    }
  ]
}