{
  "accessors": [
    {
      "bufferView": 5,
      "byteOffset": 0,
      "componentType": 5123,
      "normalized": false,
      "count": 6144,
      "type": "SCALAR",
      "name": "accessorIndices"
    },
    {
      "bufferView": 0,
      "byteOffset": 0,
      "componentType": 5126,
      "normalized": false,
      "count": 1090,
      "type": "VEC3",
      "max": [
        0.229711309,
        0.0405250341,
        0.2297113
      ],
      "min": [
        -0.229711309,
        0.0009741892,
        -0.229711309
      ],
      "name": "accessorPositions"
    },
    {
      "bufferView": 0,
      "byteOffset": 13080,
      "componentType": 5126,
      "normalized": false,
      "count": 1090,
      "type": "VEC3",
      "name": "accessorNormals"
    },
    {
      "bufferView": 1,
      "byteOffset": 0,
      "componentType": 5126,
      "normalized": false,
      "count": 1090,
      "type": "VEC4",
      "name": "accessorColors"
    },
    {
      "bufferView": 2,
      "byteOffset": 0,
      "componentType": 5126,
      "normalized": false,
      "count": 1090,
      "type": "VEC2",
      "name": "accessorUVs"
    },
    {
      "bufferView": 6,
      "byteOffset": 0,
      "componentType": 5123,
      "normalized": false,
      "count": 51840,
      "type": "SCALAR",
      "name": "accessorIndices"
    },
    {
      "bufferView": 0,
      "byteOffset": 26160,
      "componentType": 5126,
      "normalized": false,
      "count": 10992,
      "type": "VEC3",
      "max": [
        0.145761117,
        0.08063666,
        0.154951826
      ],
      "min": [
        -0.149238825,
        0.00325667183,
        -0.157389134
      ],
      "name": "accessorPositions"
    },
    {
      "bufferView": 0,
      "byteOffset": 158064,
      "componentType": 5126,
      "normalized": false,
      "count": 10992,
      "type": "VEC3",
      "name": "accessorNormals"
    },
    {
      "bufferView": 1,
      "byteOffset": 17440,
      "componentType": 5126,
      "normalized": false,
      "count": 10992,
      "type": "VEC4",
      "name": "accessorColors"
    },
    {
      "bufferView": 2,
      "byteOffset": 8720,
      "componentType": 5126,
      "normalized": false,
      "count": 10992,
      "type": "VEC2",
      "name": "accessorUVs"
    },
    {
      "bufferView": 7,
      "byteOffset": 0,
      "componentType": 5123,
      "normalized": false,
      "count": 10752,
      "type": "SCALAR",
      "name": "accessorIndices"
    },
    {
      "bufferView": 0,
      "byteOffset": 289968,
      "componentType": 5126,
      "normalized": false,
      "count": 1857,
      "type": "VEC3",
      "max": [
        0.178074539,
        0.238563627,
        0.178035244
      ],
      "min": [
        -0.178035259,
        0.0312417466,
        -0.178074539
      ],
      "name": "accessorPositions"
    },
    {
      "bufferView": 0,
      "byteOffset": 312252,
      "componentType": 5126,
      "normalized": false,
      "count": 1857,
      "type": "VEC3",
      "name": "accessorNormals"
    },
    {
      "bufferView": 2,
      "byteOffset": 96656,
      "componentType": 5126,
      "normalized": false,
      "count": 1857,
      "type": "VEC2",
      "name": "accessorUVs"
    },
    {
      "bufferView": 8,
      "byteOffset": 0,
      "componentType": 5123,
      "normalized": false,
      "count": 4608,
      "type": "SCALAR",
      "name": "accessorIndices"
    },
    {
      "bufferView": 0,
      "byteOffset": 334536,
      "componentType": 5126,
      "normalized": false,
      "count": 924,
      "type": "VEC3",
      "max": [
        0.2283677,
        0.03799545,
        0.228367746
      ],
      "min": [
        -0.2283677,
        -2.581076e-05,
        -0.228367716
      ],
      "name": "accessorPositions"
    },
    {
      "bufferView": 0,
      "byteOffset": 345624,
      "componentType": 5126,
      "normalized": false,
      "count": 924,
      "type": "VEC3",
      "name": "accessorNormals"
    },
    {
      "bufferView": 1,
      "byteOffset": 193312,
      "componentType": 5126,
      "normalized": false,
      "count": 924,
      "type": "VEC4",
      "name": "accessorColors"
    },
    {
      "bufferView": 2,
      "byteOffset": 111512,
      "componentType": 5126,
      "normalized": false,
      "count": 924,
      "type": "VEC2",
      "name": "accessorUVs"
    },
    {
      "bufferView": 3,
      "byteOffset": 0,
      "componentType": 5126,
      "normalized": false,
      "count": 14,
      "type": "SCALAR",
      "max": [
        6.66666651
      ],
      "min": [
        0.0
      ],
      "name": "accessorAnimationInput"
    },
    {
      "bufferView": 4,
      "byteOffset": 0,
      "componentType": 5126,
      "normalized": false,
      "count": 14,
      "type": "VEC4",
      "name": "accessorAnimationRotations"
    },
    {
      "bufferView": 5,
      "byteOffset": 12288,
      "componentType": 5123,
      "normalized": false,
      "count": 3072,
      "type": "SCALAR"
    },
    {
      "bufferView": 5,
      "byteOffset": 18432,
      "componentType": 5123,
      "normalized": false,
      "count": 1536,
      "type": "SCALAR"
    },
    {
      "bufferView": 6,
      "byteOffset": 103680,
      "componentType": 5123,
      "normalized": false,
      "count": 25920,
      "type": "SCALAR"
    },
    {
      "bufferView": 6,
      "byteOffset": 155520,
      "componentType": 5123,
      "normalized": false,
      "count": 12960,
      "type": "SCALAR"
    },
    {
      "bufferView": 7,
      "byteOffset": 21504,
      "componentType": 5123,
      "normalized": false,
      "count": 5376,
      "type": "SCALAR"
    },
    {
      "bufferView": 7,
      "byteOffset": 32256,
      "componentType": 5123,
      "normalized": false,
      "count": 2688,
      "type": "SCALAR"
    },
    {
      "bufferView": 8,
      "byteOffset": 9216,
      "componentType": 5123,
      "normalized": false,
      "count": 2304,
      "type": "SCALAR"
    },
    {
      "bufferView": 8,
      "byteOffset": 13824,
      "componentType": 5123,
      "normalized": false,
      "count": 1152,
      "type": "SCALAR"
    }
  ],
  "animations": [
    {
      "name": "glassCover rotation",
      "channels": [
        {
          "sampler": 0,
          "target": {
            "node": 2,
            "path": "rotation"
          }
        }
      ],
      "samplers": [
        {
          "input": 19,
          "interpolation": "LINEAR",
          "output": 20
        }
      ]
    }
  ],
  "asset": {
    "generator": "GDS lod baker 1",
    "copyright": "Copyright 2021 Wayfair LLC. CC BY 4.0 International https://creativecommons.org/licenses/by/4.0/",
    "version": "2.0"
  },
  "bufferViews": [
    {
      "buffer": 0,
      "byteOffset": 0,
      "byteLength": 356712,
      "byteStride": 12,
      "target": 34962,
      "name": "bufferViewFloatVec3"
    },
    {
      "buffer": 0,
      "byteOffset": 356712,
      "byteLength": 208096,
      "byteStride": 16,
      "target": 34962,
      "name": "bufferViewFloatVec4"
    },
    {
      "buffer": 0,
      "byteOffset": 564808,
      "byteLength": 118904,
      "byteStride": 8,
      "target": 34962,
      "name": "bufferViewFloatVec2"
    },
    {
      "buffer": 0,
      "byteOffset": 683712,
      "byteLength": 56,
      "name": "bufferViewAnimationFloatScalar"
    },
    {
      "buffer": 0,
      "byteOffset": 683768,
      "byteLength": 224,
      "name": "bufferViewAnimationFloatVec4"
    },
    {
      "buffer": 0,
      "byteOffset": 683992,
      "byteLength": 21504,
      "target": 34963
    },
    {
      "buffer": 0,
      "byteOffset": 705496,
      "byteLength": 181440,
      "target": 34963
    },
    {
      "buffer": 0,
      "byteOffset": 886936,
      "byteLength": 37632,
      "target": 34963
    },
    {
      "buffer": 0,
      "byteOffset": 924568,
      "byteLength": 16128,
      "target": 34963
    }
  ],
  "buffers": [
    {
      "uri": "IridescentDishWithOlivesLOD.bin",
      "byteLength": 940696
    }
  ],
  "cameras": [
    {
      "perspective": {
        "yfov": 0.457822353,
        "zfar": 10000.0,
        "znear": 0.1
      },
      "type": "perspective",
      "name": "Camera001"
    }
  ],
  "extensionsUsed": [
    "KHR_materials_ior",
    "KHR_materials_iridescence",
    "KHR_materials_transmission",
    "KHR_materials_volume",
    "NG2_mesh_lod"
  ],
  "images": [
    {
      "uri": "glassdish_irid.png"
    },
    {
      "uri": "olives_nrm.png"
    },
    {
      "uri": "olives_orm.png"
    },
    {
      "uri": "olives_col.png"
    },
    {
      "uri": "glasscover_nrm.png"
    },
    {
      "uri": "glasscover_thick.png"
    },
    {
      "uri": "glasscover_irid.png"
    },
    {
      "uri": "goldleaf_nrm.png"
    },
    {
      "uri": "goldleaf_orm.png"
    },
    {
      "uri": "goldleaf_col.png"
    },
    {
      "uri": "glasscover_orm.png"
    }
  ],
  "materials": [
    {
      "extensions": {
        "KHR_materials_transmission": {
          "transmissionFactor": 1
        },
        "KHR_materials_iridescence": {
          "iridescenceFactor": 1,
          "iridescenceTexture": {
            "index": 0
          },
          "iridescenceThicknessMaximum": 550,
          "iridescenceThicknessMinimum": 500,
          "iridescenceThicknessTexture": {
            "index": 0
          }
        },
        "KHR_materials_volume": {
          "thicknessFactor": 0.01
        }
      },
      "pbrMetallicRoughness": {
        "baseColorFactor": [
          1.0,
          1.0,
          1.0,
          1.0
        ],
        "metallicFactor": 0.0,
        "roughnessFactor": 0.07
      },
      "occlusionTexture": {
        "index": 8,
        "strength": 1.0
      },
      "emissiveFactor": [
        0.0,
        0.0,
        0.0
      ],
      "alphaMode": "OPAQUE",
      "doubleSided": false,
      "name": "glassDish"
    },
    {
      "pbrMetallicRoughness": {
        "baseColorFactor": [
          1.0,
          1.0,
          1.0,
          1.0
        ],
        "metallicFactor": 1.0,
        "roughnessFactor": 1.0,
        "baseColorTexture": {
          "index": 3,
          "texCoord": 0
        },
        "metallicRoughnessTexture": {
          "index": 2,
          "texCoord": 0
        }
      },
      "normalTexture": {
        "index": 1,
        "scale": 1.0
      },
      "occlusionTexture": {
        "index": 2,
        "strength": 1.0
      },
      "emissiveFactor": [
        0.0,
        0.0,
        0.0
      ],
      "alphaMode": "OPAQUE",
      "doubleSided": false,
      "name": "olives"
    },
    {
      "extensions": {
        "KHR_materials_ior": {
          "ior": 1.5
        },
        "KHR_materials_iridescence": {
          "iridescenceFactor": 1,
          "iridescenceTexture": {
            "index": 6
          },
          "iridescenceThicknessMaximum": 550,
          "iridescenceThicknessMinimum": 500,
          "iridescenceThicknessTexture": {
            "index": 6
          }
        },
        "KHR_materials_transmission": {
          "transmissionFactor": 1
        },
        "KHR_materials_volume": {
          "thicknessFactor": 0.1,
          "thicknessTexture": {
            "index": 5
          }
        }
      },
      "pbrMetallicRoughness": {
        "baseColorFactor": [
          1.0,
          1.0,
          1.0,
          1.0
        ],
        "metallicFactor": 1.0,
        "roughnessFactor": 1.0,
        "metallicRoughnessTexture": {
          "index": 10,
          "texCoord": 0
        }
      },
      "normalTexture": {
        "index": 4,
        "scale": 2.0
      },
      "emissiveFactor": [
        0.0,
        0.0,
        0.0
      ],
      "alphaMode": "OPAQUE",
      "doubleSided": false,
      "name": "glassCover"
    },
    {
      "pbrMetallicRoughness": {
        "baseColorFactor": [
          1.0,
          1.0,
          1.0,
          1.0
        ],
        "metallicFactor": 1.0,
        "roughnessFactor": 1.0,
        "baseColorTexture": {
          "index": 9,
          "texCoord": 0
        },
        "metallicRoughnessTexture": {
          "index": 8,
          "texCoord": 0
        }
      },
      "normalTexture": {
        "index": 7,
        "scale": 1.0
      },
      "occlusionTexture": {
        "index": 8,
        "strength": 1.0
      },
      "emissiveFactor": [
        0.0,
        0.0,
        0.0
      ],
      "alphaMode": "MASK",
      "doubleSided": false,
      "name": "goldLeaf"
    }
  ],
  "meshes": [
    {
      "primitives": [
        {
          "extensions": {
            "NG2_mesh_lod": {
              "levels": [
                {
                  "indices": 21,
                  "error": 0.002866
                },
                {
                  "indices": 22,
                  "error": 0.008333
                }
              ]
            }
          },
          "attributes": {
            "POSITION": 1,
            "NORMAL": 2,
            "TEXCOORD_0": 4,
            "COLOR_0": 3
          },
          "indices": 0,
          "mode": 4,
          "material": 0
        }
      ],
      "name": "glassDish"
    },
    {
      "primitives": [
        {
          "extensions": {
            "NG2_mesh_lod": {
              "levels": [
                {
                  "indices": 23,
                  "error": 0.00211
                },
                {
                  "indices": 24,
                  "error": 0.013338
                }
              ]
            }
          },
          "attributes": {
            "POSITION": 6,
            "NORMAL": 7,
            "TEXCOORD_0": 9,
            "COLOR_0": 8
          },
          "indices": 5,
          "mode": 4,
          "material": 1
        }
      ],
      "name": "olives"
    },
    {
      "primitives": [
        {
          "extensions": {
            "NG2_mesh_lod": {
              "levels": [
                {
                  "indices": 25,
                  "error": 0.000793
                },
                {
                  "indices": 26,
                  "error": 0.002199
                }
              ]
            }
          },
          "attributes": {
            "POSITION": 11,
            "NORMAL": 12,
            "TEXCOORD_0": 13
          },
          "indices": 10,
          "mode": 4,
          "material": 2
        }
      ],
      "name": "glassCover"
    },
    {
      "primitives": [
        {
          "extensions": {
            "NG2_mesh_lod": {
              "levels": [
                {
                  "indices": 27,
                  "error": 0.001144
                },
                {
                  "indices": 28,
                  "error": 0.007305
                }
              ]
            }
          },
          "attributes": {
            "POSITION": 15,
            "NORMAL": 16,
            "TEXCOORD_0": 18,
            "COLOR_0": 17
          },
          "indices": 14,
          "mode": 4,
          "material": 3
        }
      ],
      "name": "goldLeaf"
    }
  ],
  "nodes": [
    {
      "mesh": 0,
      "rotation": [
        0.0,
        0.7660445,
        0.0,
        0.642787635
      ],
      "children": [
        1
      ],
      "name": "glassDish"
    },
    {
      "mesh": 1,
      "name": "olives"
    },
    {
      "rotation": [
        -0.0986936241,
        -0.63016665,
        0.7001854,
        -0.320764631
      ],
      "translation": [
        -0.142956257,
        0.027819138,
        -0.100098975
      ],
      "scale": [
        1.0,
        1.0,
        0.99999994
      ],
      "children": [
        3
      ],
      "name": "glassCover_animation"
    },
    {
      "mesh": 2,
      "rotation": [
        -0.6532815,
        -0.270597965,
        0.270598024,
        0.6532815
      ],
      "translation": [
        -0.174517319,
        3.3170604e-08,
        0.0312397238
      ],
      "scale": [
        1.0,
        1.0,
        1.00000012
      ],
      "name": "glassCover"
    },
    {
      "mesh": 3,
      "rotation": [
        0.0,
        0.7660445,
        0.0,
        0.642787635
      ],
      "name": "goldLeaf"
    },
    {
      "rotation": [
        -0.162,
        0.688,
        0.162,
        0.688
      ],
      "translation": [
        0.8,
        0.5,
        0.0
      ],
      "camera": 0,
      "name": "Camera001"
    }
  ],
  "samplers": [
    {
      "magFilter": 9729,
      "minFilter": 9987,
      "wrapS": 10497,
      "wrapT": 10497
    }
  ],
  "scene": 0,
  "scenes": [
    {
      "nodes": [
        0,
        2,
        4,
        5
      ]
    }
  ],
  "textures": [
    {
      "sampler": 0,
      "source": 0,
      "name": "glassdish_irid.png"
    },
    {
      "sampler": 0,
      "source": 1,
      "name": "olives_nrm.png"
    },
    {
      "sampler": 0,
      "source": 2,
      "name": "olives_orm.png"
    },
    {
      "sampler": 0,
      "source": 3,
      "name": "olives_col.png"
    },
    {
      "sampler": 0,
      "source": 4,
      "name": "glasscover_nrm.png"
    },
    {
      "sampler": 0,
      "source": 5,
      "name": "glasscover_thick.png"
    },
    {
      "sampler": 0,
      "source": 6,
      "name": "glasscover_irid.png"
    },
    {
      "sampler": 0,
      "source": 7,
      "name": "goldleaf_nrm.png"
    },
    {
      "sampler": 0,
      "source": 8,
      "name": "goldleaf_orm.png"
    },
    {
      "sampler": 0,
      "source": 9,
      "name": "goldleaf_col.png"
    },
    {
      "sampler": 0,
      "source": 10,
      "name": "glasscover_orm.png"
    }
  ]
}