{
  "accessors": [
    {
      "bufferView": 5,
      "byteOffset": 0,
      "componentType": 5121,
      "normalized": false,
      "count": 36,
      "type": "SCALAR"
    },
    {
      "bufferView": 0,
      "byteOffset": 0,
      "componentType": 5126,
      "normalized": false,
      "count": 24,
      "type": "VEC3",
      "max": [
        1.0000004768371582,
        1.0,
        1.0000005960464478
      ],
      "min": [
        -1.0000003576278687,
        -1.0,
        -1.0000003576278687
      ]
    },
    {
      "bufferView": 1,
      "byteOffset": 0,
      "componentType": 5126,
      "normalized": false,
      "count": 24,
      "type": "VEC3",
      "max": [
        1.0,
        1.0,
        1.0
      ],
      "min": [
        -1.0,
        -1.0,
        -1.0
      ]
    },
    {
      "bufferView": 2,
      "byteOffset": 0,
      "componentType": 5126,
      "normalized": false,
      "count": 24,
      "type": "VEC4",
      "max": [
        1.0,
        6.661325971652322e-16,
        1.0,
        1.0
      ],
      "min": [
        -1.0,
        -2.9802322387695312e-08,
        -1.0,
        1.0
      ]
    },
    {
      "bufferView": 3,
      "byteOffset": 0,
      "componentType": 5126,
      "normalized": false,
      "count": 24,
      "type": "VEC2",
      "max": [
        0.7499566674232483,
        0.9999134124518605
      ],
      "min": [
        8.658754813950509e-05,
        8.660554885864258e-05
      ]
    },
    {
      "bufferView": 4,
      "byteOffset": 0,
      "componentType": 5126,
      "normalized": false,
      "count": 24,
      "type": "VEC2",
      "max": [
        0.25,
        0.25
      ],
      "min": [
        0.0,
        0.0
      ]
    }
  ],
  "asset": {
    "generator": "GDS lod baker 1",
    "copyright": "hiloteam",
    "version": "2.0"
  },
  "bufferViews": [
    {
      "buffer": 0,
      "byteOffset": 0,
      "byteLength": 288,
      "target": 34962
    },
    {
      "buffer": 0,
      "byteOffset": 288,
      "byteLength": 288,
      "target": 34962
    },
    {
      "buffer": 0,
      "byteOffset": 576,
      "byteLength": 384,
      "target": 34962
    },
    {
      "buffer": 0,
      "byteOffset": 960,
      "byteLength": 192,
      "target": 34962
    },
    {
      "buffer": 0,
      "byteOffset": 1152,
      "byteLength": 192,
      "target": 34962
    },
    {
      "buffer": 0,
      "byteOffset": 1344,
      "byteLength": 36,
      "target": 34963
    }
  ],
  "buffers": [
    {
      "uri": "MultiUVTestLOD.bin",
      "byteLength": 1380
    }
  ],
  "cameras": [
    {
      "perspective": {
        "aspectRatio": 1.7777777777777777,
        "yfov": 0.5033799372418416,
        "zfar": 100.0,
        "znear": 0.10000000149011612
      },
      "type": "perspective",
      "name": "Camera"
    }
  ],
  "images": [
    {
      "uri": "uv0.png"
    },
    {
      "uri": "uv1.png"
    }
  ],
  "materials": [
    {
      "pbrMetallicRoughness": {
        "baseColorFactor": [
          1.0,
          1.0,
          1.0,
          1.0
        ],
        "metallicFactor": 1.0,
        "roughnessFactor": 1.0,
        "baseColorTexture": {
          "index": 0,
          "texCoord": 0
        }
      },
      "emissiveFactor": [
        1.0,
        1.0,
        1.0
      ],
      "emissiveTexture": {
        "index": 1,
        "texCoord": 1
      },
      "alphaMode": "OPAQUE",
      "doubleSided": false,
      "name": "Material"
    }
  ],
  "meshes": [
    {
      "primitives": [
        {
          "attributes": {
            "POSITION": 1,
            "NORMAL": 2,
            "TANGENT": 3,
            "TEXCOORD_0": 4,
            "TEXCOORD_1": 5
          },
          "indices": 0,
          "mode": 4,
          "material": 0
        }
      ],
      "name": "Cube"
    }
  ],
  "nodes": [
    {
      "rotation": [
        -0.7071067690849304,
        -0.0,
        0.0,
        0.7071067690849304
      ],
      "camera": 0,
      "name": "Correction_Camera"
    },
    {
      "rotation": [
        0.483536034822464,
        0.33687159419059753,
        -0.20870360732078552,
        0.7804827094078064
      ],
      "translation": [
        7.481131553649902,
        5.34366512298584,
        6.5076398849487305
      ],
      "children": [
        0
      ],
      "name": "Camera"
    },
    {
      "mesh": 0,
      "name": "Cube"
    }
  ],
  "samplers": [
    {
      "wrapS": 10497,
      "wrapT": 10497
    }
  ],
  "scene": 0,
  "scenes": [
    {
      "name": "Scene",
      "nodes": [
        2,
        1
      ]
    }
  ],
  "textures": [
    {
      "sampler": 0,
      "source": 0
    },
    {
      "sampler": 0,
      "source": 1
    }
  ]
}