{
  "accessors": [
    {
      "bufferView": 0,
      "byteOffset": 0,
      "componentType": 5126,
      "normalized": false,
      "count": 715,
      "type": "VEC3",
      "max": [
        0.9999999403953552,
        0.4713967442512512,
        0.9999998211860657
      ],
      "min": [
        -0.9999998211860657,
        -0.4713967442512512,
        -0.9999998211860657
      ]
    },
    {
      "bufferView": 1,
      "byteOffset": 0,
      "componentType": 5126,
      "normalized": false,
      "count": 715,
      "type": "VEC3"
    },
    {
      "bufferView": 2,
      "byteOffset": 0,
      "componentType": 5126,
      "normalized": false,
      "count": 715,
      "type": "VEC4"
    },
    {
      "bufferView": 3,
      "byteOffset": 0,
      "componentType": 5126,
      "normalized": false,
      "count": 715,
      "type": "VEC2"
    },
    {
      "bufferView": 24,
      "byteOffset": 0,
      "componentType": 5123,
      "normalized": false,
      "count": 3840,
      "type": "SCALAR"
    },
    {
      "bufferView": 4,
      "byteOffset": 0,
      "componentType": 5126,
      "normalized": false,
      "count": 715,
      "type": "VEC3",
      "max": [
        0.9999999403953552,
        0.4713967442512512,
        0.9999998211860657
      ],
      "min": [
        -0.9999998211860657,
        -0.4713967442512512,
        -0.9999998211860657
      ]
    },
    {
      "bufferView": 5,
      "byteOffset": 0,
      "componentType": 5126,
      "normalized": false,
      "count": 715,
      "type": "VEC3"
    },
    {
      "bufferView": 6,
      "byteOffset": 0,
      "componentType": 5126,
      "normalized": false,
      "count": 715,
      "type": "VEC4"
    },
    {
      "bufferView": 7,
      "byteOffset": 0,
      "componentType": 5126,
      "normalized": false,
      "count": 715,
      "type": "VEC2"
    },
    {
      "bufferView": 25,
      "byteOffset": 0,
      "componentType": 5123,
      "normalized": false,
      "count": 3840,
      "type": "SCALAR"
    },
    {
      "bufferView": 8,
      "byteOffset": 0,
      "componentType": 5126,
      "normalized": false,
      "count": 715,
      "type": "VEC3",
      "max": [
        0.9999999403953552,
        0.4713967442512512,
        0.9999998211860657
      ],
      "min": [
        -0.9999998211860657,
        -0.4713967442512512,
        -0.9999998211860657
      ]
    },
    {
      "bufferView": 9,
      "byteOffset": 0,
      "componentType": 5126,
      "normalized": false,
      "count": 715,
      "type": "VEC3"
    },
    {
      "bufferView": 10,
      "byteOffset": 0,
      "componentType": 5126,
      "normalized": false,
      "count": 715,
      "type": "VEC4"
    },
    {
      "bufferView": 11,
      "byteOffset": 0,
      "componentType": 5126,
      "normalized": false,
      "count": 715,
      "type": "VEC2"
    },
    {
      "bufferView": 12,
      "byteOffset": 0,
      "componentType": 5126,
      "normalized": false,
      "count": 715,
      "type": "VEC3",
      "max": [
        0.9999999403953552,
        0.4713967442512512,
        0.9999998211860657
      ],
      "min": [
        -0.9999998211860657,
        -0.4713967442512512,
        -0.9999998211860657
      ]
    },
    {
      "bufferView": 13,
      "byteOffset": 0,
      "componentType": 5126,
      "normalized": false,
      "count": 715,
      "type": "VEC3"
    },
    {
      "bufferView": 14,
      "byteOffset": 0,
      "componentType": 5126,
      "normalized": false,
      "count": 715,
      "type": "VEC4"
    },
    {
      "bufferView": 15,
      "byteOffset": 0,
      "componentType": 5126,
      "normalized": false,
      "count": 715,
      "type": "VEC2"
    },
    {
      "bufferView": 16,
      "byteOffset": 0,
      "componentType": 5126,
      "normalized": false,
      "count": 715,
      "type": "VEC3",
      "max": [
        0.9999999403953552,
        0.4713967442512512,
        0.9999998211860657
      ],
      "min": [
        -0.9999998211860657,
        -0.4713967442512512,
        -0.9999998211860657
      ]
    },
    {
      "bufferView": 17,
      "byteOffset": 0,
      "componentType": 5126,
      "normalized": false,
      "count": 715,
      "type": "VEC3"
    },
    {
      "bufferView": 18,
      "byteOffset": 0,
      "componentType": 5126,
      "normalized": false,
      "count": 715,
      "type": "VEC4"
    },
    {
      "bufferView": 19,
      "byteOffset": 0,
      "componentType": 5126,
      "normalized": false,
      "count": 715,
      "type": "VEC2"
    },
    {
      "bufferView": 20,
      "byteOffset": 0,
      "componentType": 5126,
      "normalized": false,
      "count": 2224,
      "type": "VEC3",
      "max": [
        6.675312519073486,
        2.0999999046325684,
        0.010000485926866531
      ],
      "min": [
        -5.556020736694336,
        -3.536370038986206,
        -0.010000593028962612
      ]
    },
    {
      "bufferView": 21,
      "byteOffset": 0,
      "componentType": 5126,
      "normalized": false,
      "count": 2224,
      "type": "VEC3"
    },
    {
      "bufferView": 22,
      "byteOffset": 0,
      "componentType": 5126,
      "normalized": false,
      "count": 2224,
      "type": "VEC4"
    },
    {
      "bufferView": 23,
      "byteOffset": 0,
      "componentType": 5126,
      "normalized": false,
      "count": 2224,
      "type": "VEC2"
    },
    {
      "bufferView": 26,
      "byteOffset": 0,
      "componentType": 5123,
      "normalized": false,
      "count": 3228,
      "type": "SCALAR"
    },
    {
      "bufferView": 24,
      "byteOffset": 7680,
      "componentType": 5123,
      "normalized": false,
      "count": 1920,
      "type": "SCALAR"
    },
    {
      "bufferView": 24,
      "byteOffset": 11520,
      "componentType": 5123,
      "normalized": false,
      "count": 960,
      "type": "SCALAR"
    },
    {
      "bufferView": 25,
      "byteOffset": 7680,
      "componentType": 5123,
      "normalized": false,
      "count": 1920,
      "type": "SCALAR"
    },
    {
      "bufferView": 25,
      "byteOffset": 11520,
      "componentType": 5123,
      "normalized": false,
      "count": 960,
      "type": "SCALAR"
    },
    {
      "bufferView": 26,
      "byteOffset": 6456,
      "componentType": 5123,
      "normalized": false,
      "count": 2004,
      "type": "SCALAR"
    }
  ],
  "asset": {
    "generator": "GDS lod baker 1",
    "copyright": "CC-BY 4.0 Copyright 2023 Analytical Graphics, Inc. Model and Textures by Ed Mackey.",
    "version": "2.0"
  },
  "bufferViews": [
    {
      "buffer": 0,
      "byteOffset": 0,
      "byteLength": 8580,
      "target": 34962
    },
    {
      "buffer": 0,
      "byteOffset": 8580,
      "byteLength": 8580,
      "target": 34962
    },
    {
      "buffer": 0,
      "byteOffset": 17160,
      "byteLength": 11440,
      "target": 34962
    },
    {
      "buffer": 0,
      "byteOffset": 28600,
      "byteLength": 5720,
      "target": 34962
    },
    {
      "buffer": 0,
      "byteOffset": 34320,
      "byteLength": 8580,
      "target": 34962
    },
    {
      "buffer": 0,
      "byteOffset": 42900,
      "byteLength": 8580,
      "target": 34962
    },
    {
      "buffer": 0,
      "byteOffset": 51480,
      "byteLength": 11440,
      "target": 34962
    },
    {
      "buffer": 0,
      "byteOffset": 62920,
      "byteLength": 5720,
      "target": 34962
    },
    {
      "buffer": 0,
      "byteOffset": 68640,
      "byteLength": 8580,
      "target": 34962
    },
    {
      "buffer": 0,
      "byteOffset": 77220,
      "byteLength": 8580,
      "target": 34962
    },
    {
      "buffer": 0,
      "byteOffset": 85800,
      "byteLength": 11440,
      "target": 34962
    },
    {
      "buffer": 0,
      "byteOffset": 97240,
      "byteLength": 5720,
      "target": 34962
    },
    {
      "buffer": 0,
      "byteOffset": 102960,
      "byteLength": 8580,
      "target": 34962
    },
    {
      "buffer": 0,
      "byteOffset": 111540,
      "byteLength": 8580,
      "target": 34962
    },
    {
      "buffer": 0,
      "byteOffset": 120120,
      "byteLength": 11440,
      "target": 34962
    },
    {
      "buffer": 0,
      "byteOffset": 131560,
      "byteLength": 5720,
      "target": 34962
    },
    {
      "buffer": 0,
      "byteOffset": 137280,
      "byteLength": 8580,
      "target": 34962
    },
    {
      "buffer": 0,
      "byteOffset": 145860,
      "byteLength": 8580,
      "target": 34962
    },
    {
      "buffer": 0,
      "byteOffset": 154440,
      "byteLength": 11440,
      "target": 34962
    },
    {
      "buffer": 0,
      "byteOffset": 165880,
      "byteLength": 5720,
      "target": 34962
    },
    {
      "buffer": 0,
      "byteOffset": 171600,
      "byteLength": 26688,
      "target": 34962
    },
    {
      "buffer": 0,
      "byteOffset": 198288,
      "byteLength": 26688,
      "target": 34962
    },
    {
      "buffer": 0,
      "byteOffset": 224976,
      "byteLength": 35584,
      "target": 34962
    },
    {
      "buffer": 0,
      "byteOffset": 260560,
      "byteLength": 17792,
      "target": 34962
    },
    {
      "buffer": 0,
      "byteOffset": 278352,
      "byteLength": 13440,
      "target": 34963
    },
    {
      "buffer": 0,
      "byteOffset": 291792,
      "byteLength": 13440,
      "target": 34963
    },
    {
      "buffer": 0,
      "byteOffset": 305232,
      "byteLength": 10464,
      "target": 34963
    }
  ],
  "buffers": [
    {
      "uri": "AnisotropyRotationTestLOD.bin",
      "byteLength": 315696
    }
  ],
  "extensionsUsed": [
    "KHR_materials_anisotropy",
    "NG2_mesh_lod"
  ],
  "images": [
    {
      "uri": "GridWithMarkers.png",
      "mimeType": "image/png",
      "name": "GridWithMarkers"
    },
    {
      "uri": "GridWithMarkers_30deg.png",
      "mimeType": "image/png",
      "name": "GridWithMarkers_30deg"
    },
    {
      "uri": "AnisoRotation30_Linear.png",
      "mimeType": "image/png",
      "name": "AnisoRotation30_Linear"
    },
    {
      "uri": "AnisoRotation10_Linear.png",
      "mimeType": "image/png",
      "name": "AnisoRotation10_Linear"
    },
    {
      "uri": "Heights_1d_Normals_v2.png",
      "mimeType": "image/png",
      "name": "Heights_1d_Normals_v2"
    },
    {
      "uri": "AnisoDonutLabels.png",
      "mimeType": "image/png",
      "name": "AnisoDonutLabels"
    }
  ],
  "materials": [
    {
      "extensions": {
        "KHR_materials_anisotropy": {
          "anisotropyStrength": 0.5
        }
      },
      "pbrMetallicRoughness": {
        "baseColorFactor": [
          1.0,
          1.0,
          1.0,
          1.0
        ],
        "metallicFactor": 1.0,
        "roughnessFactor": 0.10000000149011612,
        "baseColorTexture": {
          "index": 0,
          "texCoord": 0
        }
      },
      "emissiveFactor": [
        0.0,
        0.0,
        0.0
      ],
      "alphaMode": "OPAQUE",
      "doubleSided": true,
      "name": "Aniso Tangents"
    },
    {
      "extensions": {
        "KHR_materials_anisotropy": {
          "anisotropyStrength": 0.5,
          "anisotropyRotation": 0.523598775598
        }
      },
      "pbrMetallicRoughness": {
        "baseColorFactor": [
          1.0,
          1.0,
          1.0,
          1.0
        ],
        "metallicFactor": 1.0,
        "roughnessFactor": 0.10000000149011612,
        "baseColorTexture": {
          "index": 1,
          "texCoord": 0
        }
      },
      "emissiveFactor": [
        0.0,
        0.0,
        0.0
      ],
      "alphaMode": "OPAQUE",
      "doubleSided": true,
      "name": "Aniso Tan + Rotation"
    },
    {
      "extensions": {
        "KHR_materials_anisotropy": {
          "anisotropyStrength": 0.5,
          "anisotropyTexture": {
            "index": 2
          }
        }
      },
      "pbrMetallicRoughness": {
        "baseColorFactor": [
          1.0,
          1.0,
          1.0,
          1.0
        ],
        "metallicFactor": 1.0,
        "roughnessFactor": 0.10000000149011612,
        "baseColorTexture": {
          "index": 1,
          "texCoord": 0
        }
      },
      "emissiveFactor": [
        0.0,
        0.0,
        0.0
      ],
      "alphaMode": "OPAQUE",
      "doubleSided": true,
      "name": "Aniso Tan + Texture"
    },
    {
      "extensions": {
        "KHR_materials_anisotropy": {
          "anisotropyStrength": 0.5,
          "anisotropyRotation": 0.349065850398866,
          "anisotropyTexture": {
            "index": 3
          }
        }
      },
      "pbrMetallicRoughness": {
        "baseColorFactor": [
          1.0,
          1.0,
          1.0,
          1.0
        ],
        "metallicFactor": 1.0,
        "roughnessFactor": 0.10000000149011612,
        "baseColorTexture": {
          "index": 1,
          "texCoord": 0
        }
      },
      "emissiveFactor": [
        0.0,
        0.0,
        0.0
      ],
      "alphaMode": "OPAQUE",
      "doubleSided": true,
      "name": "Aniso Tan + Rotation + Texture"
    },
    {
      "pbrMetallicRoughness": {
        "baseColorFactor": [
          1.0,
          1.0,
          1.0,
          1.0
        ],
        "metallicFactor": 1.0,
        "roughnessFactor": 0.10000000149011612,
        "baseColorTexture": {
          "index": 5,
          "texCoord": 0
        }
      },
      "normalTexture": {
        "index": 4,
        "scale": 1.0
      },
      "emissiveFactor": [
        0.0,
        0.0,
        0.0
      ],
      "alphaMode": "OPAQUE",
      "doubleSided": true,
      "name": "Simulation via normal"
    },
    {
      "pbrMetallicRoughness": {
        "baseColorFactor": [
          1.0,
          1.0,
          1.0,
          1.0
        ],
        "metallicFactor": 0.0,
        "roughnessFactor": 0.8999999761581421,
        "baseColorTexture": {
          "index": 6,
          "texCoord": 0
        }
      },
      "emissiveFactor": [
        0.0,
        0.0,
        0.0
      ],
      "alphaMode": "OPAQUE",
      "doubleSided": false,
      "name": "Label Mat"
    }
  ],
  "meshes": [
    {
      "primitives": [
        {
          "extensions": {
            "NG2_mesh_lod": {
              "levels": [
                {
                  "indices": 27,
                  "error": 0.008898
                },
                {
                  "indices": 28,
                  "error": 0.018716
                }
              ]
            }
          },
          "attributes": {
            "POSITION": 0,
            "NORMAL": 1,
            "TANGENT": 2,
            "TEXCOORD_0": 3
          },
          "indices": 4,
          "mode": 4,
          "material": 0
        }
      ],
      "name": "Aniso Mesh Tangents Only"
    },
    {
      "primitives": [
        {
          "extensions": {
            "NG2_mesh_lod": {
              "levels": [
                {
                  "indices": 29,
                  "error": 0.008898
                },
                {
                  "indices": 30,
                  "error": 0.018715
                }
              ]
            }
          },
          "attributes": {
            "POSITION": 5,
            "NORMAL": 6,
            "TANGENT": 7,
            "TEXCOORD_0": 8
          },
          "indices": 9,
          "mode": 4,
          "material": 1
        }
      ],
      "name": "Aniso Mesh Tan + Rotation"
    },
    {
      "primitives": [
        {
          "extensions": {
            "NG2_mesh_lod": {
              "levels": [
                {
                  "indices": 29,
                  "error": 0.008898
                },
                {
                  "indices": 30,
                  "error": 0.018715
                }
              ]
            }
          },
          "attributes": {
            "POSITION": 10,
            "NORMAL": 11,
            "TANGENT": 12,
            "TEXCOORD_0": 13
          },
          "indices": 9,
          "mode": 4,
          "material": 2
        }
      ],
      "name": "Aniso Mesh Tan + Texture"
    },
    {
      "primitives": [
        {
          "extensions": {
            "NG2_mesh_lod": {
              "levels": [
                {
                  "indices": 29,
                  "error": 0.008898
                },
                {
                  "indices": 30,
                  "error": 0.018715
                }
              ]
            }
          },
          "attributes": {
            "POSITION": 14,
            "NORMAL": 15,
            "TANGENT": 16,
            "TEXCOORD_0": 17
          },
          "indices": 9,
          "mode": 4,
          "material": 3
        }
      ],
      "name": "Aniso Mesh Tan + Rotation + Texture"
    },
    {
      "primitives": [
        {
          "extensions": {
            "NG2_mesh_lod": {
              "levels": [
                {
                  "indices": 27,
                  "error": 0.008898
                },
                {
                  "indices": 28,
                  "error": 0.018716
                }
              ]
            }
          },
          "attributes": {
            "POSITION": 18,
            "NORMAL": 19,
            "TANGENT": 20,
            "TEXCOORD_0": 21
          },
          "indices": 4,
          "mode": 4,
          "material": 4
        }
      ],
      "name": "Non-aniso Mesh"
    },
    {
      "primitives": [
        {
          "extensions": {
            "NG2_mesh_lod": {
              "levels": [
                {
                  "indices": 31,
                  "error": 0.281788
                }
              ]
            }
          },
          "attributes": {
            "POSITION": 22,
            "NORMAL": 23,
            "TANGENT": 24,
            "TEXCOORD_0": 25
          },
          "indices": 26,
          "mode": 4,
          "material": 5
        }
      ],
      "name": "Label Mesh"
    }
  ],
  "nodes": [
    {
      "mesh": 0,
      "translation": [
        -1.5,
        -2.0,
        0.0
      ],
      "name": "Band 1L"
    },
    {
      "mesh": 1,
      "translation": [
        -1.5,
        -1.0,
        0.0
      ],
      "name": "Band 2L"
    },
    {
      "mesh": 2,
      "translation": [
        -1.5,
        1.0,
        0.0
      ],
      "name": "Band 4L"
    },
    {
      "mesh": 0,
      "translation": [
        -1.5,
        2.0,
        0.0
      ],
      "name": "Band 5L"
    },
    {
      "mesh": 0,
      "translation": [
        1.5,
        -2.0,
        0.0
      ],
      "name": "Band 1R"
    },
    {
      "mesh": 3,
      "translation": [
        1.5,
        -1.0,
        0.0
      ],
      "name": "Band 2R"
    },
    {
      "mesh": 4,
      "translation": [
        1.5,
        1.0,
        0.0
      ],
      "name": "Band 4R"
    },
    {
      "mesh": 0,
      "translation": [
        1.5,
        2.0,
        0.0
      ],
      "name": "Band 5R"
    },
    {
      "mesh": 0,
      "translation": [
        -1.5,
        0.0,
        0.0
      ],
      "name": "Band 3L"
    },
    {
      "mesh": 0,
      "translation": [
        1.5,
        0.0,
        0.0
      ],
      "name": "Band 3R"
    },
    {
      "mesh": 5,
      "name": "Labels"
    }
  ],
  "samplers": [
    {
      "magFilter": 9729,
      "minFilter": 9987,
      "wrapS": 10497,
      "wrapT": 10497
    }
  ],
  "scene": 0,
  "scenes": [
    {
      "name": "Scene",
      "nodes": [
        0,
        1,
        2,
        3,
        4,
        5,
        6,
        7,
        8,
        9,
        10
      ]
    }
  ],
  "textures": [
    {
      "sampler": 0,
      "source": 0
    },
    {
      "sampler": 0,
      "source": 1
    },
    {
      "sampler": 0,
      "source": 2
    },
    {
      "sampler": 0,
      "source": 3
    },
    {
      "sampler": 0,
      "source": 4
    },
    {
      "sampler": 0,
      "source": 0
    },
    {
      "sampler": 0,
      "source": 5
    }
  ]
}