{
  "accessors": [
    {
      "bufferView": 0,
      "byteOffset": 0,
      "componentType": 5126,
      "normalized": false,
      "count": 4,
      "type": "VEC3",
      "max": [
        0.5,
        0.5,
        0.0
      ],
      "min": [
        -0.5,
        -0.5,
        0.0
      ],
      "name": "Positions"
    },
    {
      "bufferView": 1,
      "byteOffset": 0,
      "componentType": 5126,
      "normalized": false,
      "count": 4,
      "type": "VEC2",
      "name": "UV0"
    },
    {
      "bufferView": 2,
      "byteOffset": 0,
      "componentType": 5126,
      "normalized": false,
      "count": 4,
      "type": "VEC2",
      "name": "UV1"
    },
    {
      "bufferView": 3,
      "byteOffset": 0,
      "componentType": 5125,
      "normalized": false,
      "count": 6,
      "type": "SCALAR",
      "name": "Indices"
    }
  ],
  "asset": {
    "generator": "GDS lod baker 1",
    "version": "2.0"
  },
  "bufferViews": [
    {
      "buffer": 0,
      "byteOffset": 0,
      "byteLength": 48,
      "name": "Positions"
    },
    {
      "buffer": 0,
      "byteOffset": 48,
      "byteLength": 32,
      "name": "UV0"
    },
    {
      "buffer": 0,
      "byteOffset": 80,
      "byteLength": 32,
      "name": "UV1"
    },
    {
      "buffer": 0,
      "byteOffset": 112,
      "byteLength": 24,
      "target": 34963
    }
  ],
  "buffers": [
    {
      "uri": "TextureTransformTestLOD.bin",
      "byteLength": 136
    }
  ],
  "extensionsUsed": [
    "KHR_texture_transform"
  ],
  "images": [
    {
      "uri": "UV.png"
    },
    {
      "uri": "Arrow.png"
    },
    {
      "uri": "Correct.png"
    },
    {
      "uri": "NotSupported.png"
    },
    {
      "uri": "Error.png"
    }
  ],
  "materials": [
    {
      "pbrMetallicRoughness": {
        "baseColorFactor": [
          1.0,
          1.0,
          1.0,
          1.0
        ],
        "metallicFactor": 0.0,
        "roughnessFactor": 1.0,
        "baseColorTexture": {
          "extensions": {
            "KHR_texture_transform": {
              "offset": [
                0.5,
                0.0
              ]
            }
          },
          "index": 0,
          "texCoord": 0
        }
      },
      "emissiveFactor": [
        0.0,
        0.0,
        0.0
      ],
      "alphaMode": "OPAQUE",
      "doubleSided": false,
      "name": "Offset U"
    },
    {
      "pbrMetallicRoughness": {
        "baseColorFactor": [
          1.0,
          1.0,
          1.0,
          1.0
        ],
        "metallicFactor": 0.0,
        "roughnessFactor": 1.0,
        "baseColorTexture": {
          "extensions": {
            "KHR_texture_transform": {
              "offset": [
                0.0,
                0.5
              ]
            }
          },
          "index": 0,
          "texCoord": 0
        }
      },
      "emissiveFactor": [
        0.0,
        0.0,
        0.0
      ],
      "alphaMode": "OPAQUE",
      "doubleSided": false,
      "name": "Offset V"
    },
    {
      "pbrMetallicRoughness": {
        "baseColorFactor": [
          1.0,
          1.0,
          1.0,
          1.0
        ],
        "metallicFactor": 0.0,
        "roughnessFactor": 1.0,
        "baseColorTexture": {
          "extensions": {
            "KHR_texture_transform": {
              "offset": [
                0.5,
                0.5
              ]
            }
          },
          "index": 0,
          "texCoord": 0
        }
      },
      "emissiveFactor": [
        0.0,
        0.0,
        0.0
      ],
      "alphaMode": "OPAQUE",
      "doubleSided": false,
      "name": "Offset UV"
    },
    {
      "pbrMetallicRoughness": {
        "baseColorFactor": [
          1.0,
          1.0,
          1.0,
          1.0
        ],
        "metallicFactor": 0.0,
        "roughnessFactor": 1.0,
        "baseColorTexture": {
          "extensions": {
            "KHR_texture_transform": {
              "rotation": 0.39269908169872414
            }
          },
          "index": 1,
          "texCoord": 0
        }
      },
      "emissiveFactor": [
        0.0,
        0.0,
        0.0
      ],
      "alphaMode": "OPAQUE",
      "doubleSided": false,
      "name": "Rotation"
    },
    {
      "pbrMetallicRoughness": {
        "baseColorFactor": [
          1.0,
          1.0,
          1.0,
          1.0
        ],
        "metallicFactor": 0.0,
        "roughnessFactor": 1.0,
        "baseColorTexture": {
          "extensions": {
            "KHR_texture_transform": {
              "scale": [
                1.5,
                1.5
              ]
            }
          },
          "index": 1,
          "texCoord": 0
        }
      },
      "emissiveFactor": [
        0.0,
        0.0,
        0.0
      ],
      "alphaMode": "OPAQUE",
      "doubleSided": false,
      "name": "Scale"
    },
    {
      "pbrMetallicRoughness": {
        "baseColorFactor": [
          1.0,
          1.0,
          1.0,
          1.0
        ],
        "metallicFactor": 0.0,
        "roughnessFactor": 1.0,
        "baseColorTexture": {
          "extensions": {
            "KHR_texture_transform": {
              "offset": [
                -0.2,
                -0.1
              ],
              "rotation": 0.3,
              "scale": [
                1.5,
                1.5
              ]
            }
          },
          "index": 1,
          "texCoord": 0
        }
      },
      "emissiveFactor": [
        0.0,
        0.0,
        0.0
      ],
      "alphaMode": "OPAQUE",
      "doubleSided": false,
      "name": "All"
    },
    {
      "pbrMetallicRoughness": {
        "baseColorFactor": [
          1.0,
          1.0,
          1.0,
          1.0
        ],
        "metallicFactor": 0.0,
        "roughnessFactor": 1.0,
        "baseColorTexture": {
          "index": 2,
          "texCoord": 0
        }
      },
      "emissiveFactor": [
        0.0,
        0.0,
        0.0
      ],
      "alphaMode": "OPAQUE",
      "doubleSided": false,
      "name": "Correct"
    },
    {
      "pbrMetallicRoughness": {
        "baseColorFactor": [
          1.0,
          1.0,
          1.0,
          1.0
        ],
        "metallicFactor": 0.0,
        "roughnessFactor": 1.0,
        "baseColorTexture": {
          "index": 3,
          "texCoord": 0
        }
      },
      "emissiveFactor": [
        0.0,
        0.0,
        0.0
      ],
      "alphaMode": "OPAQUE",
      "doubleSided": false,
      "name": "NotSupported"
    },
    {
      "pbrMetallicRoughness": {
        "baseColorFactor": [
          1.0,
          1.0,
          1.0,
          1.0
        ],
        "metallicFactor": 0.0,
        "roughnessFactor": 1.0,
        "baseColorTexture": {
          "index": 4,
          "texCoord": 0
        }
      },
      "emissiveFactor": [
        0.0,
        0.0,
        0.0
      ],
      "alphaMode": "OPAQUE",
      "doubleSided": false,
      "name": "Error"
    }
  ],
  "meshes": [
    {
      "primitives": [
        {
          "attributes": {
            "POSITION": 0,
            "TEXCOORD_0": 2
          },
          "indices": 3,
          "mode": 4,
          "material": 0
        }
      ],
      "name": "Offset U"
    },
    {
      "primitives": [
        {
          "attributes": {
            "POSITION": 0,
            "TEXCOORD_0": 2
          },
          "indices": 3,
          "mode": 4,
          "material": 1
        }
      ],
      "name": "Offset V"
    },
    {
      "primitives": [
        {
          "attributes": {
            "POSITION": 0,
            "TEXCOORD_0": 2
          },
          "indices": 3,
          "mode": 4,
          "material": 2
        }
      ],
      "name": "Offset UV"
    },
    {
      "primitives": [
        {
          "attributes": {
            "POSITION": 0,
            "TEXCOORD_0": 1
          },
          "indices": 3,
          "mode": 4,
          "material": 3
        }
      ],
      "name": "Rotation"
    },
    {
      "primitives": [
        {
          "attributes": {
            "POSITION": 0,
            "TEXCOORD_0": 1
          },
          "indices": 3,
          "mode": 4,
          "material": 4
        }
      ],
      "name": "Scale"
    },
    {
      "primitives": [
        {
          "attributes": {
            "POSITION": 0,
            "TEXCOORD_0": 1
          },
          "indices": 3,
          "mode": 4,
          "material": 5
        }
      ],
      "name": "All"
    },
    {
      "primitives": [
        {
          "attributes": {
            "POSITION": 0,
            "TEXCOORD_0": 1
          },
          "indices": 3,
          "mode": 4,
          "material": 6
        }
      ],
      "name": "Correct Marker"
    },
    {
      "primitives": [
        {
          "attributes": {
            "POSITION": 0,
            "TEXCOORD_0": 1
          },
          "indices": 3,
          "mode": 4,
          "material": 7
        }
      ],
      "name": "Not Supported Marker"
    },
    {
      "primitives": [
        {
          "attributes": {
            "POSITION": 0,
            "TEXCOORD_0": 1
          },
          "indices": 3,
          "mode": 4,
          "material": 8
        }
      ],
      "name": "Error Marker"
    }
  ],
  "nodes": [
    {
      "mesh": 0,
      "translation": [
        -1.1,
        0.55,
        0.0
      ],
      "name": "Offset U"
    },
    {
      "mesh": 1,
      "translation": [
        0.0,
        0.55,
        0.0
      ],
      "name": "Offset V"
    },
    {
      "mesh": 2,
      "translation": [
        1.1,
        0.55,
        0.0
      ],
      "name": "Offset UV"
    },
    {
      "mesh": 3,
      "translation": [
        -1.1,
        -0.55,
        0.0
      ],
      "children": [
        4,
        5,
        6
      ],
      "name": "Rotation"
    },
    {
      "mesh": 6,
      "translation": [
        -0.07904822439840126,
        -0.5162674857624154,
        0.01
      ],
      "scale": [
        0.15,
        0.15,
        0.15
      ],
      "name": "Rotation - Correct"
    },
    {
      "mesh": 7,
      "translation": [
        0.2778174593052023,
        -0.2778174593052023,
        0.01
      ],
      "scale": [
        0.15,
        0.15,
        0.15
      ],
      "name": "Rotation - Not Supported"
    },
    {
      "mesh": 8,
      "translation": [
        0.5162674857624154,
        0.07904822439840126,
        0.01
      ],
      "scale": [
        0.15,
        0.15,
        0.15
      ],
      "name": "Rotation - Error"
    },
    {
      "mesh": 4,
      "translation": [
        0.0,
        -0.55,
        0.0
      ],
      "children": [
        8,
        9
      ],
      "name": "Scale"
    },
    {
      "mesh": 6,
      "translation": [
        0.018544972870134853,
        -0.018544972870134853,
        0.01
      ],
      "scale": [
        0.1,
        0.1,
        0.1
      ],
      "name": "Scale - Correct"
    },
    {
      "mesh": 7,
      "translation": [
        0.2778174593052023,
        -0.2778174593052023,
        0.01
      ],
      "scale": [
        0.15,
        0.15,
        0.15
      ],
      "name": "Scale - Not Supported"
    },
    {
      "mesh": 5,
      "translation": [
        1.1,
        -0.55,
        0.0
      ],
      "children": [
        11
      ],
      "name": "All"
    },
    {
      "mesh": 6,
      "translation": [
        -0.07,
        -0.25,
        0.01
      ],
      "scale": [
        0.1,
        0.1,
        0.1
      ],
      "name": "All - Correct"
    }
  ],
  "samplers": [
    {
      "magFilter": 9729,
      "minFilter": 9729,
      "wrapS": 33071,
      "wrapT": 33071
    }
  ],
  "scene": 0,
  "scenes": [
    {
      "nodes": [
        0,
        1,
        2,
        3,
        7,
        10
      ]
    }
  ],
  "textures": [
    {
      "sampler": 0,
      "source": 0
    },
    {
      "sampler": 0,
      "source": 1
    },
    {
      "source": 2
    },
    {
      "source": 3
    },
    {
      "source": 4
    }
  ]
}