{
  "extensions": {
    "KHR_lights_punctual": {
      "lights": [
        {
          "color": [
            1.0,
            1.0,
            1.0
          ],
          "type": "directional",
          "intensity": 2.0
        }
      ]
    }
  },
  "accessors": [
    {
      "bufferView": 0,
      "byteOffset": 0,
      "componentType": 5126,
      "normalized": false,
      "count": 3321,
      "type": "VEC3",
      "max": [
        1.325934886932373,
        0.9392361640930176,
        0.8223199844360352
      ],
      "min": [
        -1.325934886932373,
        -0.9704862236976624,
        -0.7782661318778992
      ]
    },
    {
      "bufferView": 1,
      "byteOffset": 0,
      "componentType": 5126,
      "normalized": false,
      "count": 3321,
      "type": "VEC3"
    },
    {
      "bufferView": 2,
      "byteOffset": 0,
      "componentType": 5126,
      "normalized": false,
      "count": 3321,
      "type": "VEC2"
    },
    {
      "bufferView": 3,
      "byteOffset": 0,
      "componentType": 5123,
      "normalized": false,
      "count": 11808,
      "type": "SCALAR"
    },
    {
      "bufferView": 3,
      "byteOffset": 23616,
      "componentType": 5123,
      "normalized": false,
      "count": 5904,
      "type": "SCALAR"
    },
    {
      "bufferView": 3,
      "byteOffset": 35424,
      "componentType": 5123,
      "normalized": false,
      "count": 2952,
      "type": "SCALAR"
    }
  ],
  "asset": {
    "generator": "GDS lod baker 1",
    "version": "2.0"
  },
  "bufferViews": [
    {
      "buffer": 0,
      "byteOffset": 0,
      "byteLength": 39852
    },
    {
      "buffer": 0,
      "byteOffset": 39852,
      "byteLength": 39852
    },
    {
      "buffer": 0,
      "byteOffset": 79704,
      "byteLength": 26568
    },
    {
      "buffer": 0,
      "byteOffset": 106272,
      "byteLength": 41328,
      "target": 34963
    }
  ],
  "buffers": [
    {
      "uri": "IridescenceSuzanneLOD.bin",
      "byteLength": 147600
    }
  ],
  "extensionsUsed": [
    "KHR_lights_punctual",
    "KHR_materials_ior",
    "KHR_materials_transmission",
    "KHR_materials_volume",
    "KHR_materials_iridescence",
    "NG2_mesh_lod"
  ],
  "images": [
    {
      "uri": "noise.png"
    }
  ],
  "materials": [
    {
      "extensions": {
        "KHR_materials_ior": {
          "ior": 2.0
        },
        "KHR_materials_transmission": {
          "transmissionFactor": 0.0
        },
        "KHR_materials_volume": {
          "thicknessFactor": 2.0
        },
        "KHR_materials_iridescence": {
          "iridescenceFactor": 1,
          "iridescenceIor": 1.33,
          "iridescenceThicknessMaximum": 400
        }
      },
      "pbrMetallicRoughness": {
        "baseColorFactor": [
          0.4,
          0.4,
          0.4,
          1.0
        ],
        "metallicFactor": 0.0,
        "roughnessFactor": 0.1
      },
      "emissiveFactor": [
        0.0,
        0.0,
        0.0
      ],
      "alphaMode": "OPAQUE",
      "doubleSided": false,
      "name": "Material"
    },
    {
      "extensions": {
        "KHR_materials_transmission": {
          "transmissionFactor": 0.0
        },
        "KHR_materials_volume": {
          "thicknessFactor": 2.0
        },
        "KHR_materials_iridescence": {
          "iridescenceFactor": 1,
          "iridescenceIor": 1.33,
          "iridescenceThicknessMaximum": 400
        }
      },
      "pbrMetallicRoughness": {
        "baseColorFactor": [
          0.4,
          0.4,
          0.4,
          1.0
        ],
        "metallicFactor": 1.0,
        "roughnessFactor": 0.1
      },
      "emissiveFactor": [
        0.0,
        0.0,
        0.0
      ],
      "alphaMode": "OPAQUE",
      "doubleSided": false,
      "name": "Material"
    },
    {
      "extensions": {
        "KHR_materials_ior": {
          "ior": 1.5
        },
        "KHR_materials_transmission": {
          "transmissionFactor": 1.0
        },
        "KHR_materials_volume": {
          "thicknessFactor": 2.0
        },
        "KHR_materials_iridescence": {
          "iridescenceFactor": 1,
          "iridescenceIor": 1.8,
          "iridescenceThicknessMinimum": 200,
          "iridescenceThicknessMaximum": 600,
          "iridescenceThicknessTexture": {
            "index": 0
          }
        }
      },
      "pbrMetallicRoughness": {
        "baseColorFactor": [
          1.0,
          1.0,
          1.0,
          1.0
        ],
        "metallicFactor": 0.0,
        "roughnessFactor": 0.1
      },
      "emissiveFactor": [
        0.0,
        0.0,
        0.0
      ],
      "alphaMode": "OPAQUE",
      "doubleSided": false,
      "name": "Material"
    }
  ],
  "meshes": [
    {
      "primitives": [
        {
          "extensions": {
            "NG2_mesh_lod": {
              "levels": [
                {
                  "indices": 4,
                  "error": 0.017141
                },
                {
                  "indices": 5,
                  "error": 0.04512
                }
              ]
            }
          },
          "attributes": {
            "POSITION": 0,
            "NORMAL": 1,
            "TEXCOORD_0": 2
          },
          "indices": 3,
          "mode": 4,
          "material": 0
        }
      ],
      "name": "Suzanne1"
    },
    {
      "primitives": [
        {
          "extensions": {
            "NG2_mesh_lod": {
              "levels": [
                {
                  "indices": 4,
                  "error": 0.017141
                },
                {
                  "indices": 5,
                  "error": 0.04512
                }
              ]
            }
          },
          "attributes": {
            "POSITION": 0,
            "NORMAL": 1,
            "TEXCOORD_0": 2
          },
          "indices": 3,
          "mode": 4,
          "material": 1
        }
      ],
      "name": "Suzanne2"
    },
    {
      "primitives": [
        {
          "extensions": {
            "NG2_mesh_lod": {
              "levels": [
                {
                  "indices": 4,
                  "error": 0.017141
                },
                {
                  "indices": 5,
                  "error": 0.04512
                }
              ]
            }
          },
          "attributes": {
            "POSITION": 0,
            "NORMAL": 1,
            "TEXCOORD_0": 2
          },
          "indices": 3,
          "mode": 4,
          "material": 2
        }
      ],
      "name": "Suzanne3"
    }
  ],
  "nodes": [
    {
      "mesh": 0,
      "translation": [
        -3.0,
        0.0,
        0.0
      ],
      "name": "Suzanne1"
    },
    {
      "mesh": 1,
      "translation": [
        0.0,
        0.0,
        0.0
      ],
      "name": "Suzanne2"
    },
    {
      "mesh": 2,
      "translation": [
        3.0,
        0.0,
        0.0
      ],
      "name": "Suzanne3"
    },
    {
      "extensions": {
        "KHR_lights_punctual": {
          "light": 0
        }
      },
      "translation": [
        5.0,
        5.0,
        5.0
      ],
      "name": "Light"
    }
  ],
  "samplers": [
    {
      "wrapS": 10497,
      "wrapT": 10497
    }
  ],
  "scene": 0,
  "scenes": [
    {
      "name": "Scene",
      "nodes": [
        0,
        1,
        2,
        3
      ]
    }
  ],
  "textures": [
    {
      "sampler": 0,
      "source": 0
    }
  ]
}