{
  "accessors": [
    {
      "bufferView": 10,
      "byteOffset": 0,
      "componentType": 5123,
      "normalized": false,
      "count": 6180,
      "type": "SCALAR"
    },
    {
      "bufferView": 11,
      "byteOffset": 0,
      "componentType": 5123,
      "normalized": false,
      "count": 12,
      "type": "SCALAR"
    },
    {
      "bufferView": 12,
      "byteOffset": 0,
      "componentType": 5123,
      "normalized": false,
      "count": 12,
      "type": "SCALAR"
    },
    {
      "bufferView": 0,
      "byteOffset": 0,
      "componentType": 5126,
      "normalized": false,
      "count": 1113,
      "type": "VEC3",
      "max": [
        1.0,
        1.0,
        1.0499999523162842
      ],
      "min": [
        -1.0,
        -1.0,
        -0.06000000983476639
      ]
    },
    {
      "bufferView": 0,
      "byteOffset": 12,
      "componentType": 5126,
      "normalized": false,
      "count": 1113,
      "type": "VEC3"
    },
    {
      "bufferView": 0,
      "byteOffset": 24,
      "componentType": 5126,
      "normalized": false,
      "count": 1113,
      "type": "VEC2"
    },
    {
      "bufferView": 0,
      "byteOffset": 32,
      "componentType": 5126,
      "normalized": false,
      "count": 1113,
      "type": "VEC4"
    },
    {
      "bufferView": 1,
      "byteOffset": 0,
      "componentType": 5126,
      "normalized": false,
      "count": 8,
      "type": "VEC3",
      "max": [
        1.0280373096466064,
        0.23501670360565186,
        3.8289083903464416e-08
      ],
      "min": [
        -0.968224287033081,
        -0.2350165843963623,
        -0.010000125505030155
      ]
    },
    {
      "bufferView": 1,
      "byteOffset": 12,
      "componentType": 5126,
      "normalized": false,
      "count": 8,
      "type": "VEC3"
    },
    {
      "bufferView": 1,
      "byteOffset": 24,
      "componentType": 5126,
      "normalized": false,
      "count": 8,
      "type": "VEC2"
    },
    {
      "bufferView": 1,
      "byteOffset": 32,
      "componentType": 5126,
      "normalized": false,
      "count": 8,
      "type": "VEC4"
    },
    {
      "bufferView": 2,
      "byteOffset": 0,
      "componentType": 5126,
      "normalized": false,
      "count": 8,
      "type": "VEC3",
      "max": [
        2.0,
        0.23026323318481445,
        3.751463495405005e-08
      ],
      "min": [
        -2.0,
        -0.23026317358016968,
        -0.010000579059123993
      ]
    },
    {
      "bufferView": 2,
      "byteOffset": 12,
      "componentType": 5126,
      "normalized": false,
      "count": 8,
      "type": "VEC3"
    },
    {
      "bufferView": 2,
      "byteOffset": 24,
      "componentType": 5126,
      "normalized": false,
      "count": 8,
      "type": "VEC2"
    },
    {
      "bufferView": 2,
      "byteOffset": 32,
      "componentType": 5126,
      "normalized": false,
      "count": 8,
      "type": "VEC4"
    },
    {
      "bufferView": 3,
      "byteOffset": 0,
      "componentType": 5126,
      "normalized": false,
      "count": 8,
      "type": "VEC3",
      "max": [
        2.0,
        0.2302631139755249,
        3.7514624295909016e-08
      ],
      "min": [
        -2.0,
        -0.23026323318481445,
        -0.010000428184866905
      ]
    },
    {
      "bufferView": 3,
      "byteOffset": 12,
      "componentType": 5126,
      "normalized": false,
      "count": 8,
      "type": "VEC3"
    },
    {
      "bufferView": 3,
      "byteOffset": 24,
      "componentType": 5126,
      "normalized": false,
      "count": 8,
      "type": "VEC2"
    },
    {
      "bufferView": 3,
      "byteOffset": 32,
      "componentType": 5126,
      "normalized": false,
      "count": 8,
      "type": "VEC4"
    },
    {
      "bufferView": 4,
      "byteOffset": 0,
      "componentType": 5126,
      "normalized": false,
      "count": 8,
      "type": "VEC3",
      "max": [
        2.0,
        0.22039484977722168,
        3.590687924770464e-08
      ],
      "min": [
        -2.0,
        -0.22039473056793213,
        -0.010000280104577541
      ]
    },
    {
      "bufferView": 4,
      "byteOffset": 12,
      "componentType": 5126,
      "normalized": false,
      "count": 8,
      "type": "VEC3"
    },
    {
      "bufferView": 4,
      "byteOffset": 24,
      "componentType": 5126,
      "normalized": false,
      "count": 8,
      "type": "VEC2"
    },
    {
      "bufferView": 4,
      "byteOffset": 32,
      "componentType": 5126,
      "normalized": false,
      "count": 8,
      "type": "VEC4"
    },
    {
      "bufferView": 5,
      "byteOffset": 0,
      "componentType": 5126,
      "normalized": false,
      "count": 8,
      "type": "VEC3",
      "max": [
        2.0,
        0.21764808893203735,
        3.545937588000925e-08
      ],
      "min": [
        -2.0,
        -0.21764802932739258,
        -0.010000137612223625
      ]
    },
    {
      "bufferView": 5,
      "byteOffset": 12,
      "componentType": 5126,
      "normalized": false,
      "count": 8,
      "type": "VEC3"
    },
    {
      "bufferView": 5,
      "byteOffset": 24,
      "componentType": 5126,
      "normalized": false,
      "count": 8,
      "type": "VEC2"
    },
    {
      "bufferView": 5,
      "byteOffset": 32,
      "componentType": 5126,
      "normalized": false,
      "count": 8,
      "type": "VEC4"
    },
    {
      "bufferView": 6,
      "byteOffset": 0,
      "componentType": 5126,
      "normalized": false,
      "count": 8,
      "type": "VEC3",
      "max": [
        2.0,
        0.20775499939918518,
        3.3847587843638394e-08
      ],
      "min": [
        -2.0,
        -0.20775499939918518,
        -0.009999996051192284
      ]
    },
    {
      "bufferView": 6,
      "byteOffset": 12,
      "componentType": 5126,
      "normalized": false,
      "count": 8,
      "type": "VEC3"
    },
    {
      "bufferView": 6,
      "byteOffset": 24,
      "componentType": 5126,
      "normalized": false,
      "count": 8,
      "type": "VEC2"
    },
    {
      "bufferView": 6,
      "byteOffset": 32,
      "componentType": 5126,
      "normalized": false,
      "count": 8,
      "type": "VEC4"
    },
    {
      "bufferView": 7,
      "byteOffset": 0,
      "componentType": 5126,
      "normalized": false,
      "count": 8,
      "type": "VEC3",
      "max": [
        2.0,
        0.22341907024383545,
        3.6399587344249085e-08
      ],
      "min": [
        -2.0,
        -0.22341907024383545,
        -0.009999859146773815
      ]
    },
    {
      "bufferView": 7,
      "byteOffset": 12,
      "componentType": 5126,
      "normalized": false,
      "count": 8,
      "type": "VEC3"
    },
    {
      "bufferView": 7,
      "byteOffset": 24,
      "componentType": 5126,
      "normalized": false,
      "count": 8,
      "type": "VEC2"
    },
    {
      "bufferView": 7,
      "byteOffset": 32,
      "componentType": 5126,
      "normalized": false,
      "count": 8,
      "type": "VEC4"
    },
    {
      "bufferView": 8,
      "byteOffset": 0,
      "componentType": 5126,
      "normalized": false,
      "count": 8,
      "type": "VEC3",
      "max": [
        0.9169960618019104,
        0.22670458257198334,
        3.69348676088066e-08
      ],
      "min": [
        -0.9199233651161194,
        -0.22670456767082214,
        -0.010000176727771759
      ]
    },
    {
      "bufferView": 8,
      "byteOffset": 12,
      "componentType": 5126,
      "normalized": false,
      "count": 8,
      "type": "VEC3"
    },
    {
      "bufferView": 8,
      "byteOffset": 24,
      "componentType": 5126,
      "normalized": false,
      "count": 8,
      "type": "VEC2"
    },
    {
      "bufferView": 8,
      "byteOffset": 32,
      "componentType": 5126,
      "normalized": false,
      "count": 8,
      "type": "VEC4"
    },
    {
      "bufferView": 9,
      "byteOffset": 0,
      "componentType": 5126,
      "normalized": false,
      "count": 8,
      "type": "VEC3",
      "max": [
        0.8968609571456909,
        0.20853587985038757,
        3.397480696776256e-08
      ],
      "min": [
        -0.9147982001304626,
        -0.2085357904434204,
        -0.010000113397836685
      ]
    },
    {
      "bufferView": 9,
      "byteOffset": 12,
      "componentType": 5126,
      "normalized": false,
      "count": 8,
      "type": "VEC3"
    },
    {
      "bufferView": 9,
      "byteOffset": 24,
      "componentType": 5126,
      "normalized": false,
      "count": 8,
      "type": "VEC2"
    },
    {
      "bufferView": 9,
      "byteOffset": 32,
      "componentType": 5126,
      "normalized": false,
      "count": 8,
      "type": "VEC4"
    },
    {
      "bufferView": 10,
      "byteOffset": 12360,
      "componentType": 5123,
      "normalized": false,
      "count": 3090,
      "type": "SCALAR"
    },
    {
      "bufferView": 10,
      "byteOffset": 18540,
      "componentType": 5123,
      "normalized": false,
      "count": 1542,
      "type": "SCALAR"
    }
  ],
  "asset": {
    "generator": "GDS lod baker 1",
    "copyright": "Copyright 2020 Analytical Graphics, Inc, CC-BY 4.0 https://creativecommons.org/licenses/by/4.0/ - Model and textures by Ed Mackey.",
    "version": "2.0"
  },
  "bufferViews": [
    {
      "buffer": 0,
      "byteOffset": 0,
      "byteLength": 53424,
      "byteStride": 48,
      "target": 34962
    },
    {
      "buffer": 0,
      "byteOffset": 53424,
      "byteLength": 384,
      "byteStride": 48,
      "target": 34962
    },
    {
      "buffer": 0,
      "byteOffset": 53808,
      "byteLength": 384,
      "byteStride": 48,
      "target": 34962
    },
    {
      "buffer": 0,
      "byteOffset": 54192,
      "byteLength": 384,
      "byteStride": 48,
      "target": 34962
    },
    {
      "buffer": 0,
      "byteOffset": 54576,
      "byteLength": 384,
      "byteStride": 48,
      "target": 34962
    },
    {
      "buffer": 0,
      "byteOffset": 54960,
      "byteLength": 384,
      "byteStride": 48,
      "target": 34962
    },
    {
      "buffer": 0,
      "byteOffset": 55344,
      "byteLength": 384,
      "byteStride": 48,
      "target": 34962
    },
    {
      "buffer": 0,
      "byteOffset": 55728,
      "byteLength": 384,
      "byteStride": 48,
      "target": 34962
    },
    {
      "buffer": 0,
      "byteOffset": 56112,
      "byteLength": 384,
      "byteStride": 48,
      "target": 34962
    },
    {
      "buffer": 0,
      "byteOffset": 56496,
      "byteLength": 384,
      "byteStride": 48,
      "target": 34962
    },
    {
      "buffer": 0,
      "byteOffset": 56880,
      "byteLength": 21624,
      "target": 34963
    },
    {
      "buffer": 0,
      "byteOffset": 78504,
      "byteLength": 24,
      "target": 34963
    },
    {
      "buffer": 0,
      "byteOffset": 78528,
      "byteLength": 24,
      "target": 34963
    }
  ],
  "buffers": [
    {
      "uri": "ClearCoatTestLOD.bin",
      "byteLength": 78552
    }
  ],
  "extensionsUsed": [
    "KHR_materials_clearcoat",
    "NG2_mesh_lod"
  ],
  "images": [
    {
      "uri": "PartialCoating.png",
      "mimeType": "image/png",
      "name": "PartialCoating"
    },
    {
      "uri": "PartialCoating_Alpha.png",
      "mimeType": "image/png",
      "name": "PartialCoating_Alpha"
    },
    {
      "uri": "RoughnessStripes.png",
      "mimeType": "image/png",
      "name": "RoughnessStripes"
    },
    {
      "uri": "RibsNormal.png",
      "mimeType": "image/png",
      "name": "RibsNormal"
    },
    {
      "uri": "PlasticWrap_normals.jpg",
      "mimeType": "image/jpeg",
      "name": "PlasticWrap_normals"
    },
    {
      "uri": "ClearCoatLabels.png",
      "mimeType": "image/png",
      "name": "ClearCoatLabels"
    }
  ],
  "materials": [
    {
      "pbrMetallicRoughness": {
        "baseColorFactor": [
          0.5,
          0.019999999552965164,
          0.009999999776482582,
          1.0
        ],
        "metallicFactor": 0.0,
        "roughnessFactor": 0.4399999976158142
      },
      "emissiveFactor": [
        0.0,
        0.0,
        0.0
      ],
      "alphaMode": "OPAQUE",
      "doubleSided": false,
      "name": "Simple_Base"
    },
    {
      "extensions": {
        "KHR_materials_clearcoat": {
          "clearcoatFactor": 1,
          "clearcoatRoughnessFactor": 0.03
        }
      },
      "pbrMetallicRoughness": {
        "baseColorFactor": [
          0.5,
          0.019999999552965164,
          0.009999999776482582,
          1.0
        ],
        "metallicFactor": 0.0,
        "roughnessFactor": 0.4399999976158142
      },
      "emissiveFactor": [
        0.0,
        0.0,
        0.0
      ],
      "alphaMode": "OPAQUE",
      "doubleSided": false,
      "name": "Simple_Coated"
    },
    {
      "pbrMetallicRoughness": {
        "baseColorFactor": [
          0.0,
          0.0,
          0.0,
          1.0
        ],
        "metallicFactor": 0.0,
        "roughnessFactor": 0.029999999329447746
      },
      "emissiveFactor": [
        0.0,
        0.0,
        0.0
      ],
      "alphaMode": "OPAQUE",
      "doubleSided": false,
      "name": "Simple_Coating"
    },
    {
      "pbrMetallicRoughness": {
        "baseColorFactor": [
          0.012983020395040512,
          0.022173883393406868,
          0.10946174710988998,
          1.0
        ],
        "metallicFactor": 0.0,
        "roughnessFactor": 0.4399999976158142
      },
      "emissiveFactor": [
        0.0,
        0.0,
        0.0
      ],
      "alphaMode": "OPAQUE",
      "doubleSided": false,
      "name": "Partial_Base"
    },
    {
      "extensions": {
        "KHR_materials_clearcoat": {
          "clearcoatFactor": 1,
          "clearcoatRoughnessFactor": 0.03,
          "clearcoatTexture": {
            "index": 5
          }
        }
      },
      "pbrMetallicRoughness": {
        "baseColorFactor": [
          0.012983020395040512,
          0.022173883393406868,
          0.10946174710988998,
          1.0
        ],
        "metallicFactor": 0.0,
        "roughnessFactor": 0.4399999976158142
      },
      "emissiveFactor": [
        0.0,
        0.0,
        0.0
      ],
      "alphaMode": "OPAQUE",
      "doubleSided": false,
      "name": "Partial_Coated"
    },
    {
      "pbrMetallicRoughness": {
        "baseColorFactor": [
          1.0,
          1.0,
          1.0,
          1.0
        ],
        "metallicFactor": 0.0,
        "roughnessFactor": 0.029999999329447746,
        "baseColorTexture": {
          "index": 0,
          "texCoord": 0
        }
      },
      "emissiveFactor": [
        0.0,
        0.0,
        0.0
      ],
      "alphaMode": "BLEND",
      "doubleSided": false,
      "name": "Partial_Coating"
    },
    {
      "pbrMetallicRoughness": {
        "baseColorFactor": [
          0.012983020395040512,
          0.022173883393406868,
          0.10946174710988998,
          1.0
        ],
        "metallicFactor": 0.0,
        "roughnessFactor": 0.6000000238418579
      },
      "emissiveFactor": [
        0.0,
        0.0,
        0.0
      ],
      "alphaMode": "OPAQUE",
      "doubleSided": false,
      "name": "RoughVariations_Base"
    },
    {
      "extensions": {
        "KHR_materials_clearcoat": {
          "clearcoatFactor": 1,
          "clearcoatRoughnessFactor": 1,
          "clearcoatRoughnessTexture": {
            "index": 1
          }
        }
      },
      "pbrMetallicRoughness": {
        "baseColorFactor": [
          0.012983020395040512,
          0.022173883393406868,
          0.10946174710988998,
          1.0
        ],
        "metallicFactor": 0.0,
        "roughnessFactor": 0.6000000238418579
      },
      "emissiveFactor": [
        0.0,
        0.0,
        0.0
      ],
      "alphaMode": "OPAQUE",
      "doubleSided": false,
      "name": "RoughVariations_Coated"
    },
    {
      "pbrMetallicRoughness": {
        "baseColorFactor": [
          0.0,
          0.0,
          0.0,
          1.0
        ],
        "metallicFactor": 0.0,
        "roughnessFactor": 1.0,
        "metallicRoughnessTexture": {
          "index": 1,
          "texCoord": 0
        }
      },
      "emissiveFactor": [
        0.0,
        0.0,
        0.0
      ],
      "alphaMode": "OPAQUE",
      "doubleSided": false,
      "name": "RoughVariations_Coating"
    },
    {
      "pbrMetallicRoughness": {
        "baseColorFactor": [
          0.012983020395040512,
          0.022173883393406868,
          0.10946174710988998,
          1.0
        ],
        "metallicFactor": 0.0,
        "roughnessFactor": 0.4399999976158142
      },
      "normalTexture": {
        "index": 2,
        "scale": 1.0
      },
      "emissiveFactor": [
        0.0,
        0.0,
        0.0
      ],
      "alphaMode": "OPAQUE",
      "doubleSided": false,
      "name": "BaseNorm_Base"
    },
    {
      "extensions": {
        "KHR_materials_clearcoat": {
          "clearcoatFactor": 1,
          "clearcoatRoughnessFactor": 0.03
        }
      },
      "pbrMetallicRoughness": {
        "baseColorFactor": [
          0.012848637998104095,
          0.021861059591174126,
          0.11068868637084961,
          1.0
        ],
        "metallicFactor": 0.0,
        "roughnessFactor": 0.4399999976158142
      },
      "normalTexture": {
        "index": 2,
        "scale": 1.0
      },
      "emissiveFactor": [
        0.0,
        0.0,
        0.0
      ],
      "alphaMode": "OPAQUE",
      "doubleSided": false,
      "name": "BaseNorm_Coated"
    },
    {
      "pbrMetallicRoughness": {
        "baseColorFactor": [
          0.0,
          0.0,
          0.0,
          1.0
        ],
        "metallicFactor": 0.0,
        "roughnessFactor": 0.029999999329447746
      },
      "emissiveFactor": [
        0.0,
        0.0,
        0.0
      ],
      "alphaMode": "OPAQUE",
      "doubleSided": false,
      "name": "BaseNorm_Coating"
    },
    {
      "pbrMetallicRoughness": {
        "baseColorFactor": [
          0.012983020395040512,
          0.022173883393406868,
          0.10946174710988998,
          1.0
        ],
        "metallicFactor": 0.0,
        "roughnessFactor": 0.4399999976158142
      },
      "emissiveFactor": [
        0.0,
        0.0,
        0.0
      ],
      "alphaMode": "OPAQUE",
      "doubleSided": false,
      "name": "CoatNorm_Base"
    },
    {
      "extensions": {
        "KHR_materials_clearcoat": {
          "clearcoatFactor": 1,
          "clearcoatRoughnessFactor": 0.03,
          "clearcoatNormalTexture": {
            "index": 3
          }
        }
      },
      "pbrMetallicRoughness": {
        "baseColorFactor": [
          0.012983020395040512,
          0.022173883393406868,
          0.10946174710988998,
          1.0
        ],
        "metallicFactor": 0.0,
        "roughnessFactor": 0.4399999976158142
      },
      "emissiveFactor": [
        0.0,
        0.0,
        0.0
      ],
      "alphaMode": "OPAQUE",
      "doubleSided": false,
      "name": "CoatNorm_Coated"
    },
    {
      "pbrMetallicRoughness": {
        "baseColorFactor": [
          0.0,
          0.0,
          0.0,
          1.0
        ],
        "metallicFactor": 0.0,
        "roughnessFactor": 0.029999999329447746
      },
      "normalTexture": {
        "index": 3,
        "scale": 1.0
      },
      "emissiveFactor": [
        0.0,
        0.0,
        0.0
      ],
      "alphaMode": "OPAQUE",
      "doubleSided": false,
      "name": "CoatNorm_Coating"
    },
    {
      "pbrMetallicRoughness": {
        "baseColorFactor": [
          0.012983020395040512,
          0.022173883393406868,
          0.10946174710988998,
          1.0
        ],
        "metallicFactor": 0.0,
        "roughnessFactor": 0.4399999976158142
      },
      "normalTexture": {
        "index": 2,
        "scale": 1.0
      },
      "emissiveFactor": [
        0.0,
        0.0,
        0.0
      ],
      "alphaMode": "OPAQUE",
      "doubleSided": false,
      "name": "SharedNorm_Base"
    },
    {
      "extensions": {
        "KHR_materials_clearcoat": {
          "clearcoatFactor": 1,
          "clearcoatRoughnessFactor": 0.03,
          "clearcoatNormalTexture": {
            "index": 2
          }
        }
      },
      "pbrMetallicRoughness": {
        "baseColorFactor": [
          0.012983020395040512,
          0.022173883393406868,
          0.10946174710988998,
          1.0
        ],
        "metallicFactor": 0.0,
        "roughnessFactor": 0.4399999976158142
      },
      "normalTexture": {
        "index": 2,
        "scale": 1.0
      },
      "emissiveFactor": [
        0.0,
        0.0,
        0.0
      ],
      "alphaMode": "OPAQUE",
      "doubleSided": false,
      "name": "SharedNorm_Coated"
    },
    {
      "pbrMetallicRoughness": {
        "baseColorFactor": [
          0.0,
          0.0,
          0.0,
          1.0
        ],
        "metallicFactor": 0.0,
        "roughnessFactor": 0.029999999329447746
      },
      "normalTexture": {
        "index": 2,
        "scale": 1.0
      },
      "emissiveFactor": [
        0.0,
        0.0,
        0.0
      ],
      "alphaMode": "OPAQUE",
      "doubleSided": false,
      "name": "SharedNorm_Coating"
    },
    {
      "pbrMetallicRoughness": {
        "baseColorFactor": [
          0.0,
          0.0,
          0.0,
          1.0
        ],
        "metallicFactor": 0.0,
        "roughnessFactor": 0.8999999761581421
      },
      "emissiveFactor": [
        1.0,
        1.0,
        1.0
      ],
      "emissiveTexture": {
        "index": 4,
        "texCoord": 0
      },
      "alphaMode": "OPAQUE",
      "doubleSided": false,
      "name": "LabelMaterial"
    }
  ],
  "meshes": [
    {
      "primitives": [
        {
          "extensions": {
            "NG2_mesh_lod": {
              "levels": [
                {
                  "indices": 43,
                  "error": 0.005679
                },
                {
                  "indices": 44,
                  "error": 0.011319
                }
              ]
            }
          },
          "attributes": {
            "POSITION": 3,
            "NORMAL": 4,
            "TANGENT": 6,
            "TEXCOORD_0": 5
          },
          "indices": 0,
          "mode": 4,
          "material": 0
        }
      ],
      "name": "ClearCoatSampleMesh"
    },
    {
      "primitives": [
        {
          "extensions": {
            "NG2_mesh_lod": {
              "levels": [
                {
                  "indices": 43,
                  "error": 0.005679
                },
                {
                  "indices": 44,
                  "error": 0.011319
                }
              ]
            }
          },
          "attributes": {
            "POSITION": 3,
            "NORMAL": 4,
            "TANGENT": 6,
            "TEXCOORD_0": 5
          },
          "indices": 0,
          "mode": 4,
          "material": 1
        }
      ],
      "name": "ClearCoatSampleMesh"
    },
    {
      "primitives": [
        {
          "extensions": {
            "NG2_mesh_lod": {
              "levels": [
                {
                  "indices": 43,
                  "error": 0.005679
                },
                {
                  "indices": 44,
                  "error": 0.011319
                }
              ]
            }
          },
          "attributes": {
            "POSITION": 3,
            "NORMAL": 4,
            "TANGENT": 6,
            "TEXCOORD_0": 5
          },
          "indices": 0,
          "mode": 4,
          "material": 2
        }
      ],
      "name": "ClearCoatSampleMesh"
    },
    {
      "primitives": [
        {
          "extensions": {
            "NG2_mesh_lod": {
              "levels": [
                {
                  "indices": 43,
                  "error": 0.005679
                },
                {
                  "indices": 44,
                  "error": 0.011319
                }
              ]
            }
          },
          "attributes": {
            "POSITION": 3,
            "NORMAL": 4,
            "TANGENT": 6,
            "TEXCOORD_0": 5
          },
          "indices": 0,
          "mode": 4,
          "material": 3
        }
      ],
      "name": "ClearCoatSampleMesh"
    },
    {
      "primitives": [
        {
          "extensions": {
            "NG2_mesh_lod": {
              "levels": [
                {
                  "indices": 43,
                  "error": 0.005679
                },
                {
                  "indices": 44,
                  "error": 0.011319
                }
              ]
            }
          },
          "attributes": {
            "POSITION": 3,
            "NORMAL": 4,
            "TANGENT": 6,
            "TEXCOORD_0": 5
          },
          "indices": 0,
          "mode": 4,
          "material": 4
        }
      ],
      "name": "ClearCoatSampleMesh"
    },
    {
      "primitives": [
        {
          "extensions": {
            "NG2_mesh_lod": {
              "levels": [
                {
                  "indices": 43,
                  "error": 0.005679
                },
                {
                  "indices": 44,
                  "error": 0.011319
                }
              ]
            }
          },
          "attributes": {
            "POSITION": 3,
            "NORMAL": 4,
            "TANGENT": 6,
            "TEXCOORD_0": 5
          },
          "indices": 0,
          "mode": 4,
          "material": 5
        }
      ],
      "name": "ClearCoatSampleMesh"
    },
    {
      "primitives": [
        {
          "extensions": {
            "NG2_mesh_lod": {
              "levels": [
                {
                  "indices": 43,
                  "error": 0.005679
                },
                {
                  "indices": 44,
                  "error": 0.011319
                }
              ]
            }
          },
          "attributes": {
            "POSITION": 3,
            "NORMAL": 4,
            "TANGENT": 6,
            "TEXCOORD_0": 5
          },
          "indices": 0,
          "mode": 4,
          "material": 6
        }
      ],
      "name": "ClearCoatSampleMesh"
    },
    {
      "primitives": [
        {
          "extensions": {
            "NG2_mesh_lod": {
              "levels": [
                {
                  "indices": 43,
                  "error": 0.005679
                },
                {
                  "indices": 44,
                  "error": 0.011319
                }
              ]
            }
          },
          "attributes": {
            "POSITION": 3,
            "NORMAL": 4,
            "TANGENT": 6,
            "TEXCOORD_0": 5
          },
          "indices": 0,
          "mode": 4,
          "material": 7
        }
      ],
      "name": "ClearCoatSampleMesh"
    },
    {
      "primitives": [
        {
          "extensions": {
            "NG2_mesh_lod": {
              "levels": [
                {
                  "indices": 43,
                  "error": 0.005679
                },
                {
                  "indices": 44,
                  "error": 0.011319
                }
              ]
            }
          },
          "attributes": {
            "POSITION": 3,
            "NORMAL": 4,
            "TANGENT": 6,
            "TEXCOORD_0": 5
          },
          "indices": 0,
          "mode": 4,
          "material": 8
        }
      ],
      "name": "ClearCoatSampleMesh"
    },
    {
      "primitives": [
        {
          "extensions": {
            "NG2_mesh_lod": {
              "levels": [
                {
                  "indices": 43,
                  "error": 0.005679
                },
                {
                  "indices": 44,
                  "error": 0.011319
                }
              ]
            }
          },
          "attributes": {
            "POSITION": 3,
            "NORMAL": 4,
            "TANGENT": 6,
            "TEXCOORD_0": 5
          },
          "indices": 0,
          "mode": 4,
          "material": 9
        }
      ],
      "name": "ClearCoatSampleMesh"
    },
    {
      "primitives": [
        {
          "extensions": {
            "NG2_mesh_lod": {
              "levels": [
                {
                  "indices": 43,
                  "error": 0.005679
                },
                {
                  "indices": 44,
                  "error": 0.011319
                }
              ]
            }
          },
          "attributes": {
            "POSITION": 3,
            "NORMAL": 4,
            "TANGENT": 6,
            "TEXCOORD_0": 5
          },
          "indices": 0,
          "mode": 4,
          "material": 10
        }
      ],
      "name": "ClearCoatSampleMesh"
    },
    {
      "primitives": [
        {
          "extensions": {
            "NG2_mesh_lod": {
              "levels": [
                {
                  "indices": 43,
                  "error": 0.005679
                },
                {
                  "indices": 44,
                  "error": 0.011319
                }
              ]
            }
          },
          "attributes": {
            "POSITION": 3,
            "NORMAL": 4,
            "TANGENT": 6,
            "TEXCOORD_0": 5
          },
          "indices": 0,
          "mode": 4,
          "material": 11
        }
      ],
      "name": "ClearCoatSampleMesh"
    },
    {
      "primitives": [
        {
          "extensions": {
            "NG2_mesh_lod": {
              "levels": [
                {
                  "indices": 43,
                  "error": 0.005679
                },
                {
                  "indices": 44,
                  "error": 0.011319
                }
              ]
            }
          },
          "attributes": {
            "POSITION": 3,
            "NORMAL": 4,
            "TANGENT": 6,
            "TEXCOORD_0": 5
          },
          "indices": 0,
          "mode": 4,
          "material": 12
        }
      ],
      "name": "ClearCoatSampleMesh"
    },
    {
      "primitives": [
        {
          "extensions": {
            "NG2_mesh_lod": {
              "levels": [
                {
                  "indices": 43,
                  "error": 0.005679
                },
                {
                  "indices": 44,
                  "error": 0.011319
                }
              ]
            }
          },
          "attributes": {
            "POSITION": 3,
            "NORMAL": 4,
            "TANGENT": 6,
            "TEXCOORD_0": 5
          },
          "indices": 0,
          "mode": 4,
          "material": 13
        }
      ],
      "name": "ClearCoatSampleMesh"
    },
    {
      "primitives": [
        {
          "extensions": {
            "NG2_mesh_lod": {
              "levels": [
                {
                  "indices": 43,
                  "error": 0.005679
                },
                {
                  "indices": 44,
                  "error": 0.011319
                }
              ]
            }
          },
          "attributes": {
            "POSITION": 3,
            "NORMAL": 4,
            "TANGENT": 6,
            "TEXCOORD_0": 5
          },
          "indices": 0,
          "mode": 4,
          "material": 14
        }
      ],
      "name": "ClearCoatSampleMesh"
    },
    {
      "primitives": [
        {
          "extensions": {
            "NG2_mesh_lod": {
              "levels": [
                {
                  "indices": 43,
                  "error": 0.005679
                },
                {
                  "indices": 44,
                  "error": 0.011319
                }
              ]
            }
          },
          "attributes": {
            "POSITION": 3,
            "NORMAL": 4,
            "TANGENT": 6,
            "TEXCOORD_0": 5
          },
          "indices": 0,
          "mode": 4,
          "material": 15
        }
      ],
      "name": "ClearCoatSampleMesh"
    },
    {
      "primitives": [
        {
          "extensions": {
            "NG2_mesh_lod": {
              "levels": [
                {
                  "indices": 43,
                  "error": 0.005679
                },
                {
                  "indices": 44,
                  "error": 0.011319
                }
              ]
            }
          },
          "attributes": {
            "POSITION": 3,
            "NORMAL": 4,
            "TANGENT": 6,
            "TEXCOORD_0": 5
          },
          "indices": 0,
          "mode": 4,
          "material": 16
        }
      ],
      "name": "ClearCoatSampleMesh"
    },
    {
      "primitives": [
        {
          "extensions": {
            "NG2_mesh_lod": {
              "levels": [
                {
                  "indices": 43,
                  "error": 0.005679
                },
                {
                  "indices": 44,
                  "error": 0.011319
                }
              ]
            }
          },
          "attributes": {
            "POSITION": 3,
            "NORMAL": 4,
            "TANGENT": 6,
            "TEXCOORD_0": 5
          },
          "indices": 0,
          "mode": 4,
          "material": 17
        }
      ],
      "name": "ClearCoatSampleMesh"
    },
    {
      "primitives": [
        {
          "attributes": {
            "POSITION": 7,
            "NORMAL": 8,
            "TANGENT": 10,
            "TEXCOORD_0": 9
          },
          "indices": 1,
          "mode": 4,
          "material": 18
        }
      ],
      "name": "Labels_Mesh"
    },
    {
      "primitives": [
        {
          "attributes": {
            "POSITION": 11,
            "NORMAL": 12,
            "TANGENT": 14,
            "TEXCOORD_0": 13
          },
          "indices": 1,
          "mode": 4,
          "material": 18
        }
      ],
      "name": "Labels_Mesh.001"
    },
    {
      "primitives": [
        {
          "attributes": {
            "POSITION": 15,
            "NORMAL": 16,
            "TANGENT": 18,
            "TEXCOORD_0": 17
          },
          "indices": 2,
          "mode": 4,
          "material": 18
        }
      ],
      "name": "Labels_Mesh.002"
    },
    {
      "primitives": [
        {
          "attributes": {
            "POSITION": 19,
            "NORMAL": 20,
            "TANGENT": 22,
            "TEXCOORD_0": 21
          },
          "indices": 2,
          "mode": 4,
          "material": 18
        }
      ],
      "name": "Labels_Mesh.003"
    },
    {
      "primitives": [
        {
          "attributes": {
            "POSITION": 23,
            "NORMAL": 24,
            "TANGENT": 26,
            "TEXCOORD_0": 25
          },
          "indices": 2,
          "mode": 4,
          "material": 18
        }
      ],
      "name": "Labels_Mesh.004"
    },
    {
      "primitives": [
        {
          "attributes": {
            "POSITION": 27,
            "NORMAL": 28,
            "TANGENT": 30,
            "TEXCOORD_0": 29
          },
          "indices": 2,
          "mode": 4,
          "material": 18
        }
      ],
      "name": "Labels_Mesh.005"
    },
    {
      "primitives": [
        {
          "attributes": {
            "POSITION": 31,
            "NORMAL": 32,
            "TANGENT": 34,
            "TEXCOORD_0": 33
          },
          "indices": 2,
          "mode": 4,
          "material": 18
        }
      ],
      "name": "Labels_Mesh.006"
    },
    {
      "primitives": [
        {
          "attributes": {
            "POSITION": 35,
            "NORMAL": 36,
            "TANGENT": 38,
            "TEXCOORD_0": 37
          },
          "indices": 2,
          "mode": 4,
          "material": 18
        }
      ],
      "name": "Labels_Mesh.007"
    },
    {
      "primitives": [
        {
          "attributes": {
            "POSITION": 39,
            "NORMAL": 40,
            "TANGENT": 42,
            "TEXCOORD_0": 41
          },
          "indices": 1,
          "mode": 4,
          "material": 18
        }
      ],
      "name": "Labels_Mesh.008"
    }
  ],
  "nodes": [
    {
      "mesh": 0,
      "translation": [
        -2.0999999046325684,
        0.0,
        0.0
      ],
      "name": "BaseLayerSample"
    },
    {
      "mesh": 1,
      "name": "ClearCoatSample"
    },
    {
      "mesh": 2,
      "translation": [
        2.0999999046325684,
        0.0,
        0.0
      ],
      "name": "CoatOnlySample"
    },
    {
      "translation": [
        0.0,
        5.25,
        0.0
      ],
      "children": [
        0,
        1,
        2
      ],
      "name": "R0_SimpleCoatTest"
    },
    {
      "mesh": 3,
      "translation": [
        -2.0999999046325684,
        0.0,
        0.0
      ],
      "name": "R1_BaseLayerSample"
    },
    {
      "mesh": 4,
      "name": "R1_ClearCoatSample"
    },
    {
      "mesh": 5,
      "translation": [
        2.0999999046325684,
        0.0,
        0.0
      ],
      "name": "R1_CoatOnlySample"
    },
    {
      "translation": [
        0.0,
        3.1500000953674316,
        0.0
      ],
      "children": [
        4,
        5,
        6
      ],
      "name": "R1_PartialCoatTest"
    },
    {
      "mesh": 6,
      "translation": [
        -2.0999999046325684,
        0.0,
        0.0
      ],
      "name": "R2_BaseLayerSample"
    },
    {
      "mesh": 7,
      "name": "R2_ClearCoatSample"
    },
    {
      "mesh": 8,
      "translation": [
        2.0999999046325684,
        0.0,
        0.0
      ],
      "name": "R2_CoatOnlySample"
    },
    {
      "translation": [
        0.0,
        1.0499999523162842,
        0.0
      ],
      "children": [
        8,
        9,
        10
      ],
      "name": "R2_RoughnessVariations"
    },
    {
      "mesh": 9,
      "translation": [
        -2.0999999046325684,
        0.0,
        0.0
      ],
      "name": "R3_BaseLayerSample"
    },
    {
      "mesh": 10,
      "name": "R3_ClearCoatSample"
    },
    {
      "mesh": 11,
      "translation": [
        2.0999999046325684,
        0.0,
        0.0
      ],
      "name": "R3_CoatOnlySample"
    },
    {
      "translation": [
        0.0,
        -1.0499999523162842,
        0.0
      ],
      "children": [
        12,
        13,
        14
      ],
      "name": "R3_BaseNormals"
    },
    {
      "mesh": 12,
      "translation": [
        -2.0999999046325684,
        0.0,
        0.0
      ],
      "name": "R4_BaseLayerSample"
    },
    {
      "mesh": 13,
      "name": "R4_ClearCoatSample"
    },
    {
      "mesh": 14,
      "translation": [
        2.0999999046325684,
        0.0,
        0.0
      ],
      "name": "R4_CoatOnlySample"
    },
    {
      "translation": [
        0.0,
        -5.25,
        0.0
      ],
      "children": [
        16,
        17,
        18
      ],
      "name": "R4_CoatNormals"
    },
    {
      "mesh": 15,
      "translation": [
        -2.0999999046325684,
        0.0,
        0.0
      ],
      "name": "R5_BaseLayerSample"
    },
    {
      "mesh": 16,
      "name": "R5_ClearCoatSample"
    },
    {
      "mesh": 17,
      "translation": [
        2.0999999046325684,
        0.0,
        0.0
      ],
      "name": "R5_CoatOnlySample"
    },
    {
      "translation": [
        0.0,
        -3.1500000953674316,
        0.0
      ],
      "children": [
        20,
        21,
        22
      ],
      "name": "R5_SharedNormals"
    },
    {
      "mesh": 18,
      "translation": [
        2.0712804794311523,
        6.619500160217285,
        0.0
      ],
      "name": "X2_Label_CoatingOnly"
    },
    {
      "mesh": 19,
      "translation": [
        -5.3578033447265625,
        5.25,
        0.0
      ],
      "name": "Y0_Label_SimpleCoating"
    },
    {
      "mesh": 20,
      "translation": [
        -5.3578033447265625,
        3.1673200130462646,
        0.0
      ],
      "name": "Y1_Label_PartialCoating"
    },
    {
      "mesh": 21,
      "translation": [
        -5.3578033447265625,
        1.1383899450302124,
        0.0
      ],
      "name": "Y2_Label_Roughness"
    },
    {
      "mesh": 22,
      "translation": [
        -5.3578033447265625,
        -1.099429965019226,
        0.0
      ],
      "name": "Y3_Label_BaseNormals"
    },
    {
      "mesh": 23,
      "translation": [
        -5.3578033447265625,
        -5.252500057220459,
        0.0
      ],
      "name": "Y4_Label_CoatNormals"
    },
    {
      "mesh": 24,
      "translation": [
        -5.3578033447265625,
        -3.1963000297546387,
        0.0
      ],
      "name": "Y5_Label_SharedNormals"
    },
    {
      "mesh": 25,
      "translation": [
        -2.087031602859497,
        6.616230010986328,
        0.0
      ],
      "name": "X0_Label_BaseLayer"
    },
    {
      "mesh": 26,
      "translation": [
        0.0,
        6.614150047302246,
        0.0
      ],
      "name": "X1_Label_Coated"
    }
  ],
  "samplers": [
    {
      "wrapS": 10497,
      "wrapT": 10497
    }
  ],
  "scene": 0,
  "scenes": [
    {
      "name": "Scene",
      "nodes": [
        3,
        7,
        11,
        15,
        19,
        23,
        24,
        25,
        26,
        27,
        28,
        29,
        30,
        31,
        32
      ]
    }
  ],
  "textures": [
    {
      "sampler": 0,
      "source": 1
    },
    {
      "sampler": 0,
      "source": 2
    },
    {
      "sampler": 0,
      "source": 3
    },
    {
      "sampler": 0,
      "source": 4
    },
    {
      "sampler": 0,
      "source": 5
    },
    {
      "sampler": 0,
      "source": 0
    }
  ]
}