{
  "accessors": [
    {
      "bufferView": 2,
      "byteOffset": 0,
      "componentType": 5123,
      "normalized": false,
      "count": 9216,
      "type": "SCALAR",
      "name": "accessorIndices"
    },
    {
      "bufferView": 0,
      "byteOffset": 0,
      "componentType": 5126,
      "normalized": false,
      "count": 1728,
      "type": "VEC3",
      "max": [
        0.5000792,
        0.4901544,
        0.5000792
      ],
      "min": [
        -0.5000792,
        -0.490154475,
        -0.5000792
      ],
      "name": "accessorPositions"
    },
    {
      "bufferView": 0,
      "byteOffset": 20736,
      "componentType": 5126,
      "normalized": false,
      "count": 1728,
      "type": "VEC3",
      "name": "accessorNormals"
    },
    {
      "bufferView": 1,
      "byteOffset": 0,
      "componentType": 5126,
      "normalized": false,
      "count": 1728,
      "type": "VEC2",
      "name": "accessorUVs"
    },
    {
      "bufferView": 2,
      "byteOffset": 18432,
      "componentType": 5123,
      "normalized": false,
      "count": 4608,
      "type": "SCALAR"
    },
    {
      "bufferView": 2,
      "byteOffset": 27648,
      "componentType": 5123,
      "normalized": false,
      "count": 2304,
      "type": "SCALAR"
    }
  ],
  "asset": {
    "generator": "GDS lod baker 1",
    "copyright": "CC0, No Rights Reserved. Model and texture created by Eric Chadwick",
    "version": "2.0"
  },
  "bufferViews": [
    {
      "buffer": 0,
      "byteOffset": 0,
      "byteLength": 41472,
      "byteStride": 12,
      "target": 34962,
      "name": "bufferViewFloatVec3"
    },
    {
      "buffer": 0,
      "byteOffset": 41472,
      "byteLength": 13824,
      "byteStride": 8,
      "target": 34962,
      "name": "bufferViewFloatVec2"
    },
    {
      "buffer": 0,
      "byteOffset": 55296,
      "byteLength": 32256,
      "target": 34963
    }
  ],
  "buffers": [
    {
      "uri": "ClearCoatCarPaintLOD.bin",
      "byteLength": 87552
    }
  ],
  "extensionsUsed": [
    "KHR_texture_transform",
    "KHR_materials_clearcoat",
    "NG2_mesh_lod"
  ],
  "extensionsRequired": [
    "KHR_texture_transform",
    "KHR_materials_clearcoat"
  ],
  "images": [
    {
      "uri": "ClearCoatCarPaint_Normal.png"
    }
  ],
  "materials": [
    {
      "extensions": {
        "KHR_materials_clearcoat": {
          "clearcoatFactor": 1,
          "clearcoatRoughnessFactor": 0
        }
      },
      "pbrMetallicRoughness": {
        "baseColorFactor": [
          0.7,
          0.0,
          0.0,
          1.0
        ],
        "metallicFactor": 0.3,
        "roughnessFactor": 0.4
      },
      "normalTexture": {
        "extensions": {
          "KHR_texture_transform": {
            "scale": [
              3,
              3
            ]
          }
        },
        "index": 0,
        "scale": 0.2
      },
      "emissiveFactor": [
        0.0,
        0.0,
        0.0
      ],
      "alphaMode": "OPAQUE",
      "doubleSided": false,
      "name": "Clear Coat Car Paint"
    }
  ],
  "meshes": [
    {
      "primitives": [
        {
          "extensions": {
            "NG2_mesh_lod": {
              "levels": [
                {
                  "indices": 4,
                  "error": 0.003235
                },
                {
                  "indices": 5,
                  "error": 0.005509
                }
              ]
            }
          },
          "attributes": {
            "POSITION": 1,
            "NORMAL": 2,
            "TEXCOORD_0": 3
          },
          "indices": 0,
          "mode": 4,
          "material": 0
        }
      ],
      "name": "Sphere"
    }
  ],
  "nodes": [
    {
      "mesh": 0,
      "translation": [
        0.0,
        0.5,
        0.0
      ],
      "name": "Sphere"
    }
  ],
  "samplers": [
    {
      "magFilter": 9729,
      "minFilter": 9987,
      "wrapS": 10497,
      "wrapT": 10497
    }
  ],
  "scene": 0,
  "scenes": [
    {
      "nodes": [
        0
      ]
    }
  ],
  "textures": [
    {
      "sampler": 0,
      "source": 0,
      "name": "ClearCoatCarPaint_Normal.png"
    }
  ]
}