{
  "accessors": [
    {
      "bufferView": 0,
      "byteOffset": 0,
      "componentType": 5126,
      "normalized": false,
      "count": 24,
      "type": "VEC3",
      "max": [
        0.5,
        0.5,
        0.5
      ],
      "min": [
        -0.5,
        -0.5,
        -0.5
      ]
    },
    {
      "bufferView": 1,
      "byteOffset": 0,
      "componentType": 5126,
      "normalized": false,
      "count": 24,
      "type": "VEC3",
      "max": [
        1.0,
        1.0,
        1.0
      ],
      "min": [
        -1.0,
        -1.0,
        -1.0
      ]
    },
    {
      "bufferView": 4,
      "byteOffset": 0,
      "componentType": 5121,
      "normalized": false,
      "count": 36,
      "type": "SCALAR"
    },
    {
      "bufferView": 2,
      "byteOffset": 0,
      "componentType": 5126,
      "normalized": false,
      "count": 11,
      "type": "SCALAR",
      "max": [
        5.0
      ],
      "min": [
        0.0
      ]
    },
    {
      "bufferView": 3,
      "byteOffset": 0,
      "componentType": 5121,
      "normalized": false,
      "count": 11,
      "type": "SCALAR",
      "max": [
        1.0
      ],
      "min": [
        0.0
      ]
    }
  ],
  "animations": [
    {
      "name": "BlinkingBlueCube",
      "channels": [
        {
          "sampler": 0,
          "target": {
            "extensions": {
              "KHR_animation_pointer": {
                "pointer": "/nodes/5/extensions/KHR_node_visibility/visible"
              }
            },
            "path": "pointer"
          }
        }
      ],
      "samplers": [
        {
          "input": 3,
          "interpolation": "STEP",
          "output": 4
        }
      ]
    }
  ],
  "asset": {
    "generator": "GDS lod baker 1",
    "copyright": "2025 The Khronos Group",
    "version": "2.0"
  },
  "bufferViews": [
    {
      "buffer": 0,
      "byteOffset": 0,
      "byteLength": 288,
      "byteStride": 12,
      "target": 34962
    },
    {
      "buffer": 0,
      "byteOffset": 288,
      "byteLength": 288,
      "byteStride": 12,
      "target": 34962
    },
    {
      "buffer": 0,
      "byteOffset": 576,
      "byteLength": 44
    },
    {
      "buffer": 0,
      "byteOffset": 620,
      "byteLength": 11
    },
    {
      "buffer": 0,
      "byteOffset": 632,
      "byteLength": 36,
      "target": 34963
    }
  ],
  "buffers": [
    {
      "uri": "CubeVisibilityLOD.bin",
      "byteLength": 668
    }
  ],
  "extensionsUsed": [
    "KHR_animation_pointer",
    "KHR_node_visibility"
  ],
  "extensionsRequired": [
    "KHR_node_visibility"
  ],
  "materials": [
    {
      "pbrMetallicRoughness": {
        "baseColorFactor": [
          0.855,
          0.0,
          0.0,
          1.0
        ],
        "metallicFactor": 0.0,
        "roughnessFactor": 1.0
      },
      "emissiveFactor": [
        0.0,
        0.0,
        0.0
      ],
      "alphaMode": "OPAQUE",
      "doubleSided": false
    },
    {
      "pbrMetallicRoughness": {
        "baseColorFactor": [
          0.0,
          0.855,
          0.0,
          1.0
        ],
        "metallicFactor": 0.0,
        "roughnessFactor": 1.0
      },
      "emissiveFactor": [
        0.0,
        0.0,
        0.0
      ],
      "alphaMode": "OPAQUE",
      "doubleSided": false
    },
    {
      "pbrMetallicRoughness": {
        "baseColorFactor": [
          0.0,
          0.0,
          0.855,
          1.0
        ],
        "metallicFactor": 0.0,
        "roughnessFactor": 1.0
      },
      "emissiveFactor": [
        0.0,
        0.0,
        0.0
      ],
      "alphaMode": "OPAQUE",
      "doubleSided": false
    }
  ],
  "meshes": [
    {
      "primitives": [
        {
          "attributes": {
            "POSITION": 0,
            "NORMAL": 1
          },
          "indices": 2,
          "mode": 4,
          "material": 0
        }
      ]
    },
    {
      "primitives": [
        {
          "attributes": {
            "POSITION": 0,
            "NORMAL": 1
          },
          "indices": 2,
          "mode": 4,
          "material": 1
        }
      ]
    },
    {
      "primitives": [
        {
          "attributes": {
            "POSITION": 0,
            "NORMAL": 1
          },
          "indices": 2,
          "mode": 4,
          "material": 2
        }
      ]
    }
  ],
  "nodes": [
    {
      "children": [
        1,
        4,
        5
      ],
      "name": "CubeVisibility"
    },
    {
      "extensions": {
        "KHR_node_visibility": {
          "visible": false
        }
      },
      "mesh": 0,
      "translation": [
        -1.5,
        0.0,
        0.0
      ],
      "children": [
        2
      ],
      "name": "InvisibleCube"
    },
    {
      "mesh": 0,
      "translation": [
        0.0,
        1.5,
        0.0
      ],
      "children": [
        3
      ],
      "name": "ChildOfInvisibleShouldBeInvisible"
    },
    {
      "mesh": 0,
      "translation": [
        0.0,
        1.5,
        0.0
      ],
      "name": "DescendantOfInvisibleShouldBeInvisible"
    },
    {
      "mesh": 1,
      "name": "VisibleCube"
    },
    {
      "extensions": {
        "KHR_node_visibility": {
          "visible": true
        }
      },
      "mesh": 2,
      "translation": [
        1.5,
        0.0,
        0.0
      ],
      "name": "AnimatedVisibility"
    }
  ],
  "scene": 0,
  "scenes": [
    {
      "nodes": [
        0
      ]
    }
  ]
}