{
  "accessors": [
    {
      "bufferView": 4,
      "byteOffset": 0,
      "componentType": 5123,
      "normalized": false,
      "count": 24,
      "type": "SCALAR"
    },
    {
      "bufferView": 0,
      "byteOffset": 0,
      "componentType": 5126,
      "normalized": false,
      "count": 10,
      "type": "VEC3",
      "max": [
        0.5,
        2.0,
        0.0
      ],
      "min": [
        -0.5,
        0.0,
        0.0
      ]
    },
    {
      "bufferView": 1,
      "byteOffset": 0,
      "componentType": 5123,
      "normalized": false,
      "count": 10,
      "type": "VEC4"
    },
    {
      "bufferView": 1,
      "byteOffset": 160,
      "componentType": 5126,
      "normalized": false,
      "count": 10,
      "type": "VEC4"
    },
    {
      "bufferView": 2,
      "byteOffset": 0,
      "componentType": 5126,
      "normalized": false,
      "count": 2,
      "type": "MAT4"
    },
    {
      "bufferView": 3,
      "byteOffset": 0,
      "componentType": 5126,
      "normalized": false,
      "count": 12,
      "type": "SCALAR",
      "max": [
        5.5
      ],
      "min": [
        0.0
      ]
    },
    {
      "bufferView": 3,
      "byteOffset": 48,
      "componentType": 5126,
      "normalized": false,
      "count": 12,
      "type": "VEC4",
      "max": [
        0.0,
        0.0,
        0.707,
        1.0
      ],
      "min": [
        0.0,
        0.0,
        -0.707,
        0.707
      ]
    }
  ],
  "animations": [
    {
      "channels": [
        {
          "sampler": 0,
          "target": {
            "node": 2,
            "path": "rotation"
          }
        }
      ],
      "samplers": [
        {
          "input": 5,
          "interpolation": "LINEAR",
          "output": 6
        }
      ]
    }
  ],
  "asset": {
    "generator": "GDS lod baker 1",
    "version": "2.0"
  },
  "bufferViews": [
    {
      "buffer": 0,
      "byteOffset": 0,
      "byteLength": 120,
      "target": 34962
    },
    {
      "buffer": 0,
      "byteOffset": 120,
      "byteLength": 320,
      "byteStride": 16
    },
    {
      "buffer": 0,
      "byteOffset": 440,
      "byteLength": 128
    },
    {
      "buffer": 0,
      "byteOffset": 568,
      "byteLength": 240
    },
    {
      "buffer": 0,
      "byteOffset": 808,
      "byteLength": 48,
      "target": 34963
    }
  ],
  "buffers": [
    {
      "uri": "SimpleSkinLOD.bin",
      "byteLength": 856
    }
  ],
  "meshes": [
    {
      "primitives": [
        {
          "attributes": {
            "POSITION": 1,
            "JOINTS_0": 2,
            "WEIGHTS_0": 3
          },
          "indices": 0,
          "mode": 4
        }
      ]
    }
  ],
  "nodes": [
    {
      "mesh": 0,
      "skin": 0
    },
    {
      "children": [
        2
      ]
    },
    {
      "rotation": [
        0.0,
        0.0,
        0.0,
        1.0
      ],
      "translation": [
        0.0,
        1.0,
        0.0
      ]
    }
  ],
  "scene": 0,
  "scenes": [
    {
      "nodes": [
        0,
        1
      ]
    }
  ],
  "skins": [
    {
      "inverseBindMatrices": 4,
      "joints": [
        1,
        2
      ]
    }
  ]
}