{
  "accessors": [
    {
      "bufferView": 13,
      "byteOffset": 0,
      "componentType": 5125,
      "normalized": false,
      "count": 38733,
      "type": "SCALAR"
    },
    {
      "bufferView": 0,
      "byteOffset": 0,
      "componentType": 5126,
      "normalized": false,
      "count": 38733,
      "type": "VEC3",
      "max": [
        0.033210985362529755,
        0.032759882509708405,
        0.04838255047798157
      ],
      "min": [
        -0.032759882509708405,
        -0.032759882509708405,
        0.039156123995780945
      ]
    },
    {
      "bufferView": 1,
      "byteOffset": 0,
      "componentType": 5126,
      "normalized": false,
      "count": 38733,
      "type": "VEC3"
    },
    {
      "bufferView": 2,
      "byteOffset": 0,
      "componentType": 5126,
      "normalized": false,
      "count": 38733,
      "type": "VEC2",
      "max": [
        0.9877474308013916,
        0.9878398180007935
      ],
      "min": [
        0.005124503746628761,
        0.007686734199523926
      ]
    },
    {
      "bufferView": 14,
      "byteOffset": 0,
      "componentType": 5125,
      "normalized": false,
      "count": 15936,
      "type": "SCALAR"
    },
    {
      "bufferView": 3,
      "byteOffset": 0,
      "componentType": 5126,
      "normalized": false,
      "count": 15936,
      "type": "VEC3",
      "max": [
        0.03999999910593033,
        0.03999999910593033,
        0.04996875301003456
      ],
      "min": [
        -0.03999999910593033,
        -0.03999999910593033,
        0.0007160003297030926
      ]
    },
    {
      "bufferView": 4,
      "byteOffset": 0,
      "componentType": 5126,
      "normalized": false,
      "count": 15936,
      "type": "VEC3"
    },
    {
      "bufferView": 5,
      "byteOffset": 0,
      "componentType": 5126,
      "normalized": false,
      "count": 15936,
      "type": "VEC2",
      "max": [
        1.000026822090149,
        1.0
      ],
      "min": [
        8.627646651905278e-17,
        0.009061932563781738
      ]
    },
    {
      "bufferView": 15,
      "byteOffset": 0,
      "componentType": 5125,
      "normalized": false,
      "count": 264,
      "type": "SCALAR"
    },
    {
      "bufferView": 6,
      "byteOffset": 0,
      "componentType": 5126,
      "normalized": false,
      "count": 264,
      "type": "VEC3",
      "max": [
        0.029315194115042686,
        0.028869828209280968,
        0.0504639595746994
      ],
      "min": [
        -0.029315190389752388,
        -0.028869828209280968,
        0.04758200794458389
      ]
    },
    {
      "bufferView": 7,
      "byteOffset": 0,
      "componentType": 5126,
      "normalized": false,
      "count": 264,
      "type": "VEC3"
    },
    {
      "bufferView": 8,
      "byteOffset": 0,
      "componentType": 5126,
      "normalized": false,
      "count": 264,
      "type": "VEC2",
      "max": [
        0.5,
        0.49999988079071045
      ],
      "min": [
        -0.4999999701976776,
        -0.5
      ]
    },
    {
      "bufferView": 9,
      "byteOffset": 0,
      "componentType": 5126,
      "normalized": false,
      "count": 3,
      "type": "SCALAR",
      "max": [
        4.0
      ],
      "min": [
        0.0
      ]
    },
    {
      "bufferView": 10,
      "byteOffset": 0,
      "componentType": 5126,
      "normalized": false,
      "count": 3,
      "type": "SCALAR",
      "max": [
        6.2831854820251465
      ],
      "min": [
        0.0
      ]
    },
    {
      "bufferView": 11,
      "byteOffset": 0,
      "componentType": 5126,
      "normalized": false,
      "count": 2,
      "type": "SCALAR",
      "max": [
        4.0
      ],
      "min": [
        0.0
      ]
    },
    {
      "bufferView": 12,
      "byteOffset": 0,
      "componentType": 5126,
      "normalized": false,
      "count": 2,
      "type": "SCALAR",
      "max": [
        6.2831854820251465
      ],
      "min": [
        0.0
      ]
    }
  ],
  "animations": [
    {
      "channels": [
        {
          "sampler": 0,
          "target": {
            "extensions": {
              "KHR_animation_pointer": {
                "pointer": "/materials/2/normalTexture/extensions/KHR_texture_transform/rotation"
              }
            },
            "path": "pointer"
          }
        },
        {
          "sampler": 1,
          "target": {
            "extensions": {
              "KHR_animation_pointer": {
                "pointer": "/materials/2/extensions/KHR_materials_volume/thicknessTexture/extensions/KHR_texture_transform/rotation"
              }
            },
            "path": "pointer"
          }
        }
      ],
      "samplers": [
        {
          "input": 12,
          "interpolation": "LINEAR",
          "output": 13
        },
        {
          "input": 14,
          "interpolation": "LINEAR",
          "output": 15
        }
      ]
    }
  ],
  "asset": {
    "generator": "GDS lod baker 1",
    "copyright": "Asset \u00a9 2024 Darmstadt Graphics Group GmbH, CC BY 4.0 International, created by Eric Chadwick. Khronos logo \u00a9 2015, Khronos Group. glTF logo \u00a9 2017, Khronos Group. DGG logo \u00a9 2020, Darmstadt Graphics Group GmbH.",
    "version": "2.0"
  },
  "bufferViews": [
    {
      "buffer": 0,
      "byteOffset": 0,
      "byteLength": 464796,
      "target": 34962
    },
    {
      "buffer": 0,
      "byteOffset": 464796,
      "byteLength": 464796,
      "target": 34962
    },
    {
      "buffer": 0,
      "byteOffset": 929592,
      "byteLength": 309864,
      "target": 34962
    },
    {
      "buffer": 0,
      "byteOffset": 1239456,
      "byteLength": 191232,
      "target": 34962
    },
    {
      "buffer": 0,
      "byteOffset": 1430688,
      "byteLength": 191232,
      "target": 34962
    },
    {
      "buffer": 0,
      "byteOffset": 1621920,
      "byteLength": 127488,
      "target": 34962
    },
    {
      "buffer": 0,
      "byteOffset": 1749408,
      "byteLength": 3168,
      "target": 34962
    },
    {
      "buffer": 0,
      "byteOffset": 1752576,
      "byteLength": 3168,
      "target": 34962
    },
    {
      "buffer": 0,
      "byteOffset": 1755744,
      "byteLength": 2112,
      "target": 34962
    },
    {
      "buffer": 0,
      "byteOffset": 1757856,
      "byteLength": 12
    },
    {
      "buffer": 0,
      "byteOffset": 1757868,
      "byteLength": 12
    },
    {
      "buffer": 0,
      "byteOffset": 1757880,
      "byteLength": 8
    },
    {
      "buffer": 0,
      "byteOffset": 1757888,
      "byteLength": 8
    },
    {
      "buffer": 0,
      "byteOffset": 1757896,
      "byteLength": 154932,
      "target": 34963
    },
    {
      "buffer": 0,
      "byteOffset": 1912828,
      "byteLength": 63744,
      "target": 34963
    },
    {
      "buffer": 0,
      "byteOffset": 1976572,
      "byteLength": 1056,
      "target": 34963
    }
  ],
  "buffers": [
    {
      "uri": "PotOfCoalsAnimationPointerLOD.bin",
      "byteLength": 1977628
    }
  ],
  "extensionsUsed": [
    "KHR_animation_pointer",
    "KHR_materials_clearcoat",
    "KHR_materials_specular",
    "KHR_materials_transmission",
    "KHR_materials_volume",
    "KHR_texture_transform"
  ],
  "extensionsRequired": [
    "KHR_materials_specular",
    "KHR_materials_transmission",
    "KHR_materials_volume",
    "KHR_texture_transform"
  ],
  "images": [
    {
      "uri": "HotCoals_basecolor.jpg"
    },
    {
      "uri": "HotCoals_normal.jpg"
    },
    {
      "uri": "HotCoals_emissive.jpg"
    },
    {
      "uri": "HotCoals_occlusion.jpg"
    },
    {
      "uri": "CopperPot_basecolor.jpg"
    },
    {
      "uri": "CopperPot_normal.png"
    },
    {
      "uri": "CopperPot_orm.jpg"
    },
    {
      "uri": "CopperPot_clearcoat.jpg"
    },
    {
      "uri": "Heatdome_normal.jpg"
    },
    {
      "uri": "Heatdome_thickness.jpg"
    }
  ],
  "materials": [
    {
      "pbrMetallicRoughness": {
        "baseColorFactor": [
          1.0,
          1.0,
          1.0,
          1.0
        ],
        "metallicFactor": 0.0,
        "roughnessFactor": 0.89999,
        "baseColorTexture": {
          "index": 0,
          "texCoord": 0
        }
      },
      "normalTexture": {
        "index": 1,
        "scale": 1.0
      },
      "occlusionTexture": {
        "index": 3,
        "strength": 1.0
      },
      "emissiveFactor": [
        1.0,
        1.0,
        1.0
      ],
      "emissiveTexture": {
        "index": 2,
        "texCoord": 0
      },
      "alphaMode": "OPAQUE",
      "doubleSided": false,
      "name": "HotCoals"
    },
    {
      "extensions": {
        "KHR_materials_clearcoat": {
          "clearcoatFactor": 1.0,
          "clearcoatTexture": {
            "index": 7
          }
        }
      },
      "pbrMetallicRoughness": {
        "baseColorFactor": [
          1.0,
          1.0,
          1.0,
          1.0
        ],
        "metallicFactor": 1.0,
        "roughnessFactor": 1.0,
        "baseColorTexture": {
          "index": 4,
          "texCoord": 0
        },
        "metallicRoughnessTexture": {
          "index": 6,
          "texCoord": 0
        }
      },
      "normalTexture": {
        "index": 5,
        "scale": 1.0
      },
      "occlusionTexture": {
        "index": 6,
        "strength": 1.0
      },
      "emissiveFactor": [
        0.0,
        0.0,
        0.0
      ],
      "alphaMode": "OPAQUE",
      "doubleSided": false,
      "name": "CopperPot"
    },
    {
      "extensions": {
        "KHR_materials_specular": {
          "specularColorFactor": [
            0.0,
            0.0,
            0.0
          ],
          "specularFactor": 0.0
        },
        "KHR_materials_transmission": {
          "transmissionFactor": 1.0
        },
        "KHR_materials_volume": {
          "thicknessFactor": 0.01999,
          "thicknessTexture": {
            "extensions": {
              "KHR_texture_transform": {
                "rotation": 6.2831854820251465
              }
            },
            "index": 9
          }
        }
      },
      "pbrMetallicRoughness": {
        "baseColorFactor": [
          1.0,
          1.0,
          1.0,
          1.0
        ],
        "metallicFactor": 0.0,
        "roughnessFactor": 0.0
      },
      "normalTexture": {
        "extensions": {
          "KHR_texture_transform": {
            "rotation": 0.0
          }
        },
        "index": 8,
        "scale": 1.5
      },
      "emissiveFactor": [
        0.0,
        0.0,
        0.0
      ],
      "alphaMode": "OPAQUE",
      "doubleSided": false,
      "name": "HeatDome"
    }
  ],
  "meshes": [
    {
      "primitives": [
        {
          "attributes": {
            "POSITION": 1,
            "NORMAL": 2,
            "TEXCOORD_0": 3
          },
          "indices": 0,
          "mode": 4,
          "material": 0
        }
      ],
      "name": "HotCoals"
    },
    {
      "primitives": [
        {
          "attributes": {
            "POSITION": 5,
            "NORMAL": 6,
            "TEXCOORD_0": 7
          },
          "indices": 4,
          "mode": 4,
          "material": 1
        }
      ],
      "name": "CopperPot"
    },
    {
      "primitives": [
        {
          "attributes": {
            "POSITION": 9,
            "NORMAL": 10,
            "TEXCOORD_0": 11
          },
          "indices": 8,
          "mode": 4,
          "material": 2
        }
      ],
      "name": "HeatDome"
    }
  ],
  "nodes": [
    {
      "mesh": 0,
      "matrix": [
        1.0,
        0.0,
        0.0,
        0.0,
        0.0,
        0.0,
        -1.0,
        0.0,
        0.0,
        1.0,
        0.0,
        0.0,
        0.0,
        0.0,
        0.0,
        1.0
      ],
      "name": "HotCoals"
    },
    {
      "mesh": 1,
      "matrix": [
        1.0,
        0.0,
        0.0,
        0.0,
        0.0,
        0.0,
        -1.0,
        0.0,
        0.0,
        1.0,
        0.0,
        0.0,
        0.0,
        0.0,
        0.0,
        1.0
      ],
      "name": "CopperPot"
    },
    {
      "mesh": 2,
      "matrix": [
        -1.0,
        0.0,
        8.742277657347586e-08,
        0.0,
        8.742277657347586e-08,
        0.0,
        1.0,
        0.0,
        0.0,
        1.0,
        0.0,
        0.0,
        0.0,
        0.0,
        0.0,
        1.0
      ],
      "name": "HeatDome"
    }
  ],
  "samplers": [
    {
      "wrapS": 10497,
      "wrapT": 10497
    }
  ],
  "scene": 0,
  "scenes": [
    {
      "nodes": [
        0,
        1,
        2
      ]
    }
  ],
  "textures": [
    {
      "sampler": 0,
      "source": 0
    },
    {
      "sampler": 0,
      "source": 1
    },
    {
      "sampler": 0,
      "source": 2
    },
    {
      "sampler": 0,
      "source": 3
    },
    {
      "sampler": 0,
      "source": 4
    },
    {
      "sampler": 0,
      "source": 5
    },
    {
      "sampler": 0,
      "source": 6
    },
    {
      "sampler": 0,
      "source": 7
    },
    {
      "sampler": 0,
      "source": 8
    },
    {
      "sampler": 0,
      "source": 9
    }
  ]
}