{
  "extensions": {
    "KHR_xmp": {
      "@context": {
        "dc": "http://purl.org/dc/elements/1.1/"
      },
      "packets": [
        {
          "dc:date": "2019-10-25T15:25:01.695-07:00",
          "dc:title": "ASM_transparency_labels.dn",
          "xmp:CreatorTool": "Adobe Dimension"
        }
      ]
    }
  },
  "accessors": [
    {
      "bufferView": 0,
      "byteOffset": 0,
      "componentType": 5126,
      "normalized": false,
      "count": 22202,
      "type": "VEC3",
      "max": [
        0.9809443354606628,
        1.0221298933029175,
        1.4283748865127563
      ],
      "min": [
        -0.8216659426689148,
        0.0015843699220567942,
        -0.46063709259033203
      ]
    },
    {
      "bufferView": 1,
      "byteOffset": 0,
      "componentType": 5126,
      "normalized": false,
      "count": 22202,
      "type": "VEC3"
    },
    {
      "bufferView": 2,
      "byteOffset": 0,
      "componentType": 5126,
      "normalized": false,
      "count": 22202,
      "type": "VEC2"
    },
    {
      "bufferView": 21,
      "byteOffset": 0,
      "componentType": 5125,
      "normalized": false,
      "count": 131337,
      "type": "SCALAR"
    },
    {
      "bufferView": 3,
      "byteOffset": 0,
      "componentType": 5126,
      "normalized": false,
      "count": 3719,
      "type": "VEC3",
      "max": [
        0.09999999403953552,
        0.19999998807907104,
        0.10000000894069672
      ],
      "min": [
        -0.1000000387430191,
        0.0,
        -0.1000000536441803
      ]
    },
    {
      "bufferView": 4,
      "byteOffset": 0,
      "componentType": 5126,
      "normalized": false,
      "count": 3719,
      "type": "VEC3"
    },
    {
      "bufferView": 5,
      "byteOffset": 0,
      "componentType": 5126,
      "normalized": false,
      "count": 3719,
      "type": "VEC2"
    },
    {
      "bufferView": 22,
      "byteOffset": 0,
      "componentType": 5125,
      "normalized": false,
      "count": 21240,
      "type": "SCALAR"
    },
    {
      "bufferView": 6,
      "byteOffset": 0,
      "componentType": 5126,
      "normalized": false,
      "count": 8,
      "type": "VEC3",
      "max": [
        0.8968609571456909,
        0.20853587985038757,
        3.397480696776256e-08
      ],
      "min": [
        -0.9147982001304626,
        -0.20853577554225922,
        -0.010000113397836685
      ]
    },
    {
      "bufferView": 7,
      "byteOffset": 0,
      "componentType": 5126,
      "normalized": false,
      "count": 8,
      "type": "VEC3"
    },
    {
      "bufferView": 8,
      "byteOffset": 0,
      "componentType": 5126,
      "normalized": false,
      "count": 8,
      "type": "VEC2"
    },
    {
      "bufferView": 23,
      "byteOffset": 0,
      "componentType": 5125,
      "normalized": false,
      "count": 12,
      "type": "SCALAR"
    },
    {
      "bufferView": 9,
      "byteOffset": 0,
      "componentType": 5126,
      "normalized": false,
      "count": 8,
      "type": "VEC3",
      "max": [
        2.0,
        0.21764808893203735,
        3.545937232729557e-08
      ],
      "min": [
        -2.0,
        -0.21764802932739258,
        -0.01000013668090105
      ]
    },
    {
      "bufferView": 10,
      "byteOffset": 0,
      "componentType": 5126,
      "normalized": false,
      "count": 8,
      "type": "VEC3"
    },
    {
      "bufferView": 11,
      "byteOffset": 0,
      "componentType": 5126,
      "normalized": false,
      "count": 8,
      "type": "VEC2"
    },
    {
      "bufferView": 24,
      "byteOffset": 0,
      "componentType": 5125,
      "normalized": false,
      "count": 12,
      "type": "SCALAR"
    },
    {
      "bufferView": 12,
      "byteOffset": 0,
      "componentType": 5126,
      "normalized": false,
      "count": 8,
      "type": "VEC3",
      "max": [
        1.0280373096466064,
        0.23501670360565186,
        3.8289083903464416e-08
      ],
      "min": [
        -0.9682242274284363,
        -0.2350165843963623,
        -0.01000012457370758
      ]
    },
    {
      "bufferView": 13,
      "byteOffset": 0,
      "componentType": 5126,
      "normalized": false,
      "count": 8,
      "type": "VEC3"
    },
    {
      "bufferView": 14,
      "byteOffset": 0,
      "componentType": 5126,
      "normalized": false,
      "count": 8,
      "type": "VEC2"
    },
    {
      "bufferView": 15,
      "byteOffset": 0,
      "componentType": 5126,
      "normalized": false,
      "count": 8,
      "type": "VEC3",
      "max": [
        2.0,
        0.23026323318481445,
        3.751463495405005e-08
      ],
      "min": [
        -2.0,
        -0.23026317358016968,
        -0.010000579059123993
      ]
    },
    {
      "bufferView": 16,
      "byteOffset": 0,
      "componentType": 5126,
      "normalized": false,
      "count": 8,
      "type": "VEC3"
    },
    {
      "bufferView": 17,
      "byteOffset": 0,
      "componentType": 5126,
      "normalized": false,
      "count": 8,
      "type": "VEC2"
    },
    {
      "bufferView": 18,
      "byteOffset": 0,
      "componentType": 5126,
      "normalized": false,
      "count": 8,
      "type": "VEC3",
      "max": [
        2.0,
        0.22341907024383545,
        3.6399587344249085e-08
      ],
      "min": [
        -2.0,
        -0.22341907024383545,
        -0.009999859146773815
      ]
    },
    {
      "bufferView": 19,
      "byteOffset": 0,
      "componentType": 5126,
      "normalized": false,
      "count": 8,
      "type": "VEC3"
    },
    {
      "bufferView": 20,
      "byteOffset": 0,
      "componentType": 5126,
      "normalized": false,
      "count": 8,
      "type": "VEC2"
    },
    {
      "bufferView": 21,
      "byteOffset": 525348,
      "componentType": 5125,
      "normalized": false,
      "count": 65667,
      "type": "SCALAR"
    },
    {
      "bufferView": 21,
      "byteOffset": 788016,
      "componentType": 5125,
      "normalized": false,
      "count": 32829,
      "type": "SCALAR"
    },
    {
      "bufferView": 22,
      "byteOffset": 84960,
      "componentType": 5125,
      "normalized": false,
      "count": 10620,
      "type": "SCALAR"
    },
    {
      "bufferView": 22,
      "byteOffset": 127440,
      "componentType": 5125,
      "normalized": false,
      "count": 5310,
      "type": "SCALAR"
    }
  ],
  "asset": {
    "extensions": {
      "KHR_xmp": {
        "packet": 0
      }
    },
    "generator": "GDS lod baker 1",
    "copyright": "2020 (c) Adobe Inc.",
    "version": "2.0"
  },
  "bufferViews": [
    {
      "buffer": 0,
      "byteOffset": 0,
      "byteLength": 266424,
      "target": 34962
    },
    {
      "buffer": 0,
      "byteOffset": 266424,
      "byteLength": 266424,
      "target": 34962
    },
    {
      "buffer": 0,
      "byteOffset": 532848,
      "byteLength": 177616,
      "target": 34962
    },
    {
      "buffer": 0,
      "byteOffset": 710464,
      "byteLength": 44628,
      "target": 34962
    },
    {
      "buffer": 0,
      "byteOffset": 755092,
      "byteLength": 44628,
      "target": 34962
    },
    {
      "buffer": 0,
      "byteOffset": 799720,
      "byteLength": 29752,
      "target": 34962
    },
    {
      "buffer": 0,
      "byteOffset": 829472,
      "byteLength": 96,
      "target": 34962
    },
    {
      "buffer": 0,
      "byteOffset": 829568,
      "byteLength": 96,
      "target": 34962
    },
    {
      "buffer": 0,
      "byteOffset": 829664,
      "byteLength": 64,
      "target": 34962
    },
    {
      "buffer": 0,
      "byteOffset": 829728,
      "byteLength": 96,
      "target": 34962
    },
    {
      "buffer": 0,
      "byteOffset": 829824,
      "byteLength": 96,
      "target": 34962
    },
    {
      "buffer": 0,
      "byteOffset": 829920,
      "byteLength": 64,
      "target": 34962
    },
    {
      "buffer": 0,
      "byteOffset": 829984,
      "byteLength": 96,
      "target": 34962
    },
    {
      "buffer": 0,
      "byteOffset": 830080,
      "byteLength": 96,
      "target": 34962
    },
    {
      "buffer": 0,
      "byteOffset": 830176,
      "byteLength": 64,
      "target": 34962
    },
    {
      "buffer": 0,
      "byteOffset": 830240,
      "byteLength": 96,
      "target": 34962
    },
    {
      "buffer": 0,
      "byteOffset": 830336,
      "byteLength": 96,
      "target": 34962
    },
    {
      "buffer": 0,
      "byteOffset": 830432,
      "byteLength": 64,
      "target": 34962
    },
    {
      "buffer": 0,
      "byteOffset": 830496,
      "byteLength": 96,
      "target": 34962
    },
    {
      "buffer": 0,
      "byteOffset": 830592,
      "byteLength": 96,
      "target": 34962
    },
    {
      "buffer": 0,
      "byteOffset": 830688,
      "byteLength": 64,
      "target": 34962
    },
    {
      "buffer": 0,
      "byteOffset": 830752,
      "byteLength": 919332,
      "target": 34963
    },
    {
      "buffer": 0,
      "byteOffset": 1750084,
      "byteLength": 148680,
      "target": 34963
    },
    {
      "buffer": 0,
      "byteOffset": 1898764,
      "byteLength": 48,
      "target": 34963
    },
    {
      "buffer": 0,
      "byteOffset": 1898812,
      "byteLength": 48,
      "target": 34963
    }
  ],
  "buffers": [
    {
      "uri": "TransmissionTestLOD.bin",
      "byteLength": 1898860
    }
  ],
  "cameras": [
    {
      "perspective": {
        "aspectRatio": 1.3333333730697632,
        "yfov": 0.6024156808853149,
        "zfar": 3.0837855339050293,
        "znear": 5.606882768915966e-05
      },
      "type": "perspective",
      "name": "render_camera"
    }
  ],
  "extensionsUsed": [
    "KHR_materials_transmission",
    "KHR_xmp",
    "NG2_mesh_lod"
  ],
  "images": [
    {
      "uri": "TransmissionTest_images/texture28577.png",
      "mimeType": "image/png",
      "name": "texture28577"
    },
    {
      "uri": "TransmissionTest_images/texture14184.png",
      "mimeType": "image/png",
      "name": "texture14184"
    },
    {
      "uri": "TransmissionTest_images/texture214190.png",
      "mimeType": "image/png",
      "name": "texture214190"
    },
    {
      "uri": "TransmissionTest_images/texture4086.png",
      "mimeType": "image/png",
      "name": "texture4086"
    },
    {
      "uri": "TransmissionTest_images/texture177328.png",
      "mimeType": "image/png",
      "name": "texture177328"
    },
    {
      "uri": "TransmissionTest_images/texture6807.png",
      "mimeType": "image/png",
      "name": "texture6807"
    },
    {
      "uri": "TransmissionTest_images/texture175763.png",
      "mimeType": "image/png",
      "name": "texture175763"
    },
    {
      "uri": "TransmissionTest_images/texture10487.png",
      "mimeType": "image/png",
      "name": "texture10487"
    },
    {
      "uri": "TransmissionTest_images/texture15366.png",
      "mimeType": "image/png",
      "name": "texture15366"
    }
  ],
  "materials": [
    {
      "pbrMetallicRoughness": {
        "baseColorFactor": [
          1.0,
          1.0,
          1.0,
          1.0
        ],
        "metallicFactor": 0.0,
        "roughnessFactor": 0.4934999942779541,
        "baseColorTexture": {
          "index": 0,
          "texCoord": 0
        }
      },
      "emissiveFactor": [
        0.0,
        0.0,
        0.0
      ],
      "alphaMode": "OPAQUE",
      "doubleSided": false,
      "name": "Cloth Backdrop"
    },
    {
      "extensions": {
        "KHR_materials_transmission": {
          "transmissionFactor": 1,
          "transmissionTexture": {
            "index": 1
          }
        }
      },
      "pbrMetallicRoughness": {
        "baseColorFactor": [
          0.9559729695320129,
          0.17788879573345184,
          0.09530720859766006,
          1.0
        ],
        "metallicFactor": 0.0,
        "roughnessFactor": 0.0
      },
      "emissiveFactor": [
        0.0,
        0.0,
        0.0
      ],
      "alphaMode": "OPAQUE",
      "doubleSided": true,
      "name": "RedTransTexture"
    },
    {
      "extensions": {
        "KHR_materials_transmission": {
          "transmissionFactor": 1
        }
      },
      "pbrMetallicRoughness": {
        "baseColorFactor": [
          0.8468738198280334,
          0.8713662624359131,
          0.09305903315544128,
          1.0
        ],
        "metallicFactor": 0.0,
        "roughnessFactor": 0.0
      },
      "emissiveFactor": [
        0.0,
        0.0,
        0.0
      ],
      "alphaMode": "OPAQUE",
      "doubleSided": true,
      "name": "YellowTrans"
    },
    {
      "extensions": {
        "KHR_materials_transmission": {
          "transmissionFactor": 1,
          "transmissionTexture": {
            "index": 1
          }
        }
      },
      "pbrMetallicRoughness": {
        "baseColorFactor": [
          0.08650036156177521,
          0.46207714080810547,
          0.8468738198280334,
          1.0
        ],
        "metallicFactor": 0.0,
        "roughnessFactor": 0.0,
        "baseColorTexture": {
          "index": 2,
          "texCoord": 0
        }
      },
      "emissiveFactor": [
        0.0,
        0.0,
        0.0
      ],
      "alphaMode": "MASK",
      "doubleSided": true,
      "name": "BlueTransWithMask"
    },
    {
      "extensions": {
        "KHR_materials_transmission": {
          "transmissionFactor": 1
        }
      },
      "pbrMetallicRoughness": {
        "baseColorFactor": [
          0.1499594897031784,
          0.83077073097229,
          0.19120188057422638,
          1.0
        ],
        "metallicFactor": 0.0,
        "roughnessFactor": 0.0,
        "baseColorTexture": {
          "index": 3,
          "texCoord": 0
        }
      },
      "emissiveFactor": [
        0.0,
        0.0,
        0.0
      ],
      "alphaMode": "MASK",
      "doubleSided": true,
      "name": "GreenMask"
    },
    {
      "extensions": {
        "KHR_materials_transmission": {
          "transmissionFactor": 1,
          "transmissionTexture": {
            "index": 1
          }
        }
      },
      "pbrMetallicRoughness": {
        "baseColorFactor": [
          0.9559729695320129,
          0.17788879573345184,
          0.09530720859766006,
          1.0
        ],
        "metallicFactor": 0.0,
        "roughnessFactor": 1.0,
        "metallicRoughnessTexture": {
          "index": 4,
          "texCoord": 0
        }
      },
      "emissiveFactor": [
        0.0,
        0.0,
        0.0
      ],
      "alphaMode": "OPAQUE",
      "doubleSided": true,
      "name": "RedTransTextureRough"
    },
    {
      "extensions": {
        "KHR_materials_transmission": {
          "transmissionFactor": 1
        }
      },
      "pbrMetallicRoughness": {
        "baseColorFactor": [
          0.8468738198280334,
          0.8713662624359131,
          0.09305903315544128,
          1.0
        ],
        "metallicFactor": 0.0,
        "roughnessFactor": 1.0,
        "metallicRoughnessTexture": {
          "index": 5,
          "texCoord": 0
        }
      },
      "emissiveFactor": [
        0.0,
        0.0,
        0.0
      ],
      "alphaMode": "OPAQUE",
      "doubleSided": true,
      "name": "YellowTransRough"
    },
    {
      "extensions": {
        "KHR_materials_transmission": {
          "transmissionFactor": 1,
          "transmissionTexture": {
            "index": 1
          }
        }
      },
      "pbrMetallicRoughness": {
        "baseColorFactor": [
          0.08650036156177521,
          0.46207714080810547,
          0.8468738198280334,
          1.0
        ],
        "metallicFactor": 0.0,
        "roughnessFactor": 1.0,
        "baseColorTexture": {
          "index": 2,
          "texCoord": 0
        },
        "metallicRoughnessTexture": {
          "index": 4,
          "texCoord": 0
        }
      },
      "emissiveFactor": [
        0.0,
        0.0,
        0.0
      ],
      "alphaMode": "MASK",
      "doubleSided": true,
      "name": "BlueTransWithMask"
    },
    {
      "extensions": {
        "KHR_materials_transmission": {
          "transmissionFactor": 1
        }
      },
      "pbrMetallicRoughness": {
        "baseColorFactor": [
          0.1499594897031784,
          0.83077073097229,
          0.19120188057422638,
          1.0
        ],
        "metallicFactor": 0.0,
        "roughnessFactor": 0.3199999928474426,
        "baseColorTexture": {
          "index": 3,
          "texCoord": 0
        }
      },
      "emissiveFactor": [
        0.0,
        0.0,
        0.0
      ],
      "alphaMode": "MASK",
      "doubleSided": true,
      "name": "GreenMaskRough"
    },
    {
      "extensions": {
        "KHR_materials_transmission": {
          "transmissionFactor": 1,
          "transmissionTexture": {
            "index": 1
          }
        }
      },
      "pbrMetallicRoughness": {
        "baseColorFactor": [
          0.9559729695320129,
          0.17788879573345184,
          0.09530720859766006,
          1.0
        ],
        "metallicFactor": 1.0,
        "roughnessFactor": 0.0,
        "metallicRoughnessTexture": {
          "index": 6,
          "texCoord": 0
        }
      },
      "emissiveFactor": [
        0.0,
        0.0,
        0.0
      ],
      "alphaMode": "OPAQUE",
      "doubleSided": true,
      "name": "RedTransTextureMetal"
    },
    {
      "extensions": {
        "KHR_materials_transmission": {
          "transmissionFactor": 1
        }
      },
      "pbrMetallicRoughness": {
        "baseColorFactor": [
          0.8468738198280334,
          0.8713662624359131,
          0.09305903315544128,
          1.0
        ],
        "metallicFactor": 1.0,
        "roughnessFactor": 0.0,
        "metallicRoughnessTexture": {
          "index": 7,
          "texCoord": 0
        }
      },
      "emissiveFactor": [
        0.0,
        0.0,
        0.0
      ],
      "alphaMode": "OPAQUE",
      "doubleSided": true,
      "name": "YellowTransMetal"
    },
    {
      "extensions": {
        "KHR_materials_transmission": {
          "transmissionFactor": 1
        }
      },
      "pbrMetallicRoughness": {
        "baseColorFactor": [
          0.1499594897031784,
          0.83077073097229,
          0.19120188057422638,
          1.0
        ],
        "metallicFactor": 1.0,
        "roughnessFactor": 0.0,
        "baseColorTexture": {
          "index": 3,
          "texCoord": 0
        },
        "metallicRoughnessTexture": {
          "index": 6,
          "texCoord": 0
        }
      },
      "emissiveFactor": [
        0.0,
        0.0,
        0.0
      ],
      "alphaMode": "MASK",
      "doubleSided": true,
      "name": "GreenMaskMetal"
    },
    {
      "extensions": {
        "KHR_materials_transmission": {
          "transmissionFactor": 1,
          "transmissionTexture": {
            "index": 1
          }
        }
      },
      "pbrMetallicRoughness": {
        "baseColorFactor": [
          0.08650036156177521,
          0.46207714080810547,
          0.8468738198280334,
          1.0
        ],
        "metallicFactor": 1.0,
        "roughnessFactor": 0.0,
        "baseColorTexture": {
          "index": 2,
          "texCoord": 0
        },
        "metallicRoughnessTexture": {
          "index": 6,
          "texCoord": 0
        }
      },
      "emissiveFactor": [
        0.0,
        0.0,
        0.0
      ],
      "alphaMode": "MASK",
      "doubleSided": true,
      "name": "BlueTransWithMask"
    },
    {
      "pbrMetallicRoughness": {
        "baseColorFactor": [
          0.0,
          0.0,
          0.0,
          1.0
        ],
        "metallicFactor": 0.0,
        "roughnessFactor": 0.8999999761581421
      },
      "emissiveFactor": [
        1.0,
        1.0,
        1.0
      ],
      "emissiveTexture": {
        "index": 8,
        "texCoord": 0
      },
      "alphaMode": "OPAQUE",
      "doubleSided": false,
      "name": "LabelMaterial"
    }
  ],
  "meshes": [
    {
      "primitives": [
        {
          "extensions": {
            "NG2_mesh_lod": {
              "levels": [
                {
                  "indices": 25,
                  "error": 8.8e-05
                },
                {
                  "indices": 26,
                  "error": 0.000515
                }
              ]
            }
          },
          "attributes": {
            "POSITION": 0,
            "NORMAL": 1,
            "TEXCOORD_0": 2
          },
          "indices": 3,
          "mode": 4,
          "material": 0
        }
      ],
      "name": "Cloth Backdrop 01"
    },
    {
      "primitives": [
        {
          "extensions": {
            "NG2_mesh_lod": {
              "levels": [
                {
                  "indices": 27,
                  "error": 0.000217
                },
                {
                  "indices": 28,
                  "error": 0.000552
                }
              ]
            }
          },
          "attributes": {
            "POSITION": 4,
            "NORMAL": 5,
            "TEXCOORD_0": 6
          },
          "indices": 7,
          "mode": 4,
          "material": 1
        }
      ],
      "name": "Sphere"
    },
    {
      "primitives": [
        {
          "extensions": {
            "NG2_mesh_lod": {
              "levels": [
                {
                  "indices": 27,
                  "error": 0.000217
                },
                {
                  "indices": 28,
                  "error": 0.000552
                }
              ]
            }
          },
          "attributes": {
            "POSITION": 4,
            "NORMAL": 5,
            "TEXCOORD_0": 6
          },
          "indices": 7,
          "mode": 4,
          "material": 2
        }
      ],
      "name": "Sphere"
    },
    {
      "primitives": [
        {
          "extensions": {
            "NG2_mesh_lod": {
              "levels": [
                {
                  "indices": 27,
                  "error": 0.000217
                },
                {
                  "indices": 28,
                  "error": 0.000552
                }
              ]
            }
          },
          "attributes": {
            "POSITION": 4,
            "NORMAL": 5,
            "TEXCOORD_0": 6
          },
          "indices": 7,
          "mode": 4,
          "material": 3
        }
      ],
      "name": "Sphere"
    },
    {
      "primitives": [
        {
          "extensions": {
            "NG2_mesh_lod": {
              "levels": [
                {
                  "indices": 27,
                  "error": 0.000217
                },
                {
                  "indices": 28,
                  "error": 0.000552
                }
              ]
            }
          },
          "attributes": {
            "POSITION": 4,
            "NORMAL": 5,
            "TEXCOORD_0": 6
          },
          "indices": 7,
          "mode": 4,
          "material": 4
        }
      ],
      "name": "Sphere"
    },
    {
      "primitives": [
        {
          "extensions": {
            "NG2_mesh_lod": {
              "levels": [
                {
                  "indices": 27,
                  "error": 0.000217
                },
                {
                  "indices": 28,
                  "error": 0.000552
                }
              ]
            }
          },
          "attributes": {
            "POSITION": 4,
            "NORMAL": 5,
            "TEXCOORD_0": 6
          },
          "indices": 7,
          "mode": 4,
          "material": 5
        }
      ],
      "name": "Sphere"
    },
    {
      "primitives": [
        {
          "extensions": {
            "NG2_mesh_lod": {
              "levels": [
                {
                  "indices": 27,
                  "error": 0.000217
                },
                {
                  "indices": 28,
                  "error": 0.000552
                }
              ]
            }
          },
          "attributes": {
            "POSITION": 4,
            "NORMAL": 5,
            "TEXCOORD_0": 6
          },
          "indices": 7,
          "mode": 4,
          "material": 6
        }
      ],
      "name": "Sphere"
    },
    {
      "primitives": [
        {
          "extensions": {
            "NG2_mesh_lod": {
              "levels": [
                {
                  "indices": 27,
                  "error": 0.000217
                },
                {
                  "indices": 28,
                  "error": 0.000552
                }
              ]
            }
          },
          "attributes": {
            "POSITION": 4,
            "NORMAL": 5,
            "TEXCOORD_0": 6
          },
          "indices": 7,
          "mode": 4,
          "material": 7
        }
      ],
      "name": "Sphere"
    },
    {
      "primitives": [
        {
          "extensions": {
            "NG2_mesh_lod": {
              "levels": [
                {
                  "indices": 27,
                  "error": 0.000217
                },
                {
                  "indices": 28,
                  "error": 0.000552
                }
              ]
            }
          },
          "attributes": {
            "POSITION": 4,
            "NORMAL": 5,
            "TEXCOORD_0": 6
          },
          "indices": 7,
          "mode": 4,
          "material": 8
        }
      ],
      "name": "Sphere"
    },
    {
      "primitives": [
        {
          "extensions": {
            "NG2_mesh_lod": {
              "levels": [
                {
                  "indices": 27,
                  "error": 0.000217
                },
                {
                  "indices": 28,
                  "error": 0.000552
                }
              ]
            }
          },
          "attributes": {
            "POSITION": 4,
            "NORMAL": 5,
            "TEXCOORD_0": 6
          },
          "indices": 7,
          "mode": 4,
          "material": 9
        }
      ],
      "name": "Sphere"
    },
    {
      "primitives": [
        {
          "extensions": {
            "NG2_mesh_lod": {
              "levels": [
                {
                  "indices": 27,
                  "error": 0.000217
                },
                {
                  "indices": 28,
                  "error": 0.000552
                }
              ]
            }
          },
          "attributes": {
            "POSITION": 4,
            "NORMAL": 5,
            "TEXCOORD_0": 6
          },
          "indices": 7,
          "mode": 4,
          "material": 10
        }
      ],
      "name": "Sphere"
    },
    {
      "primitives": [
        {
          "extensions": {
            "NG2_mesh_lod": {
              "levels": [
                {
                  "indices": 27,
                  "error": 0.000217
                },
                {
                  "indices": 28,
                  "error": 0.000552
                }
              ]
            }
          },
          "attributes": {
            "POSITION": 4,
            "NORMAL": 5,
            "TEXCOORD_0": 6
          },
          "indices": 7,
          "mode": 4,
          "material": 11
        }
      ],
      "name": "Sphere"
    },
    {
      "primitives": [
        {
          "extensions": {
            "NG2_mesh_lod": {
              "levels": [
                {
                  "indices": 27,
                  "error": 0.000217
                },
                {
                  "indices": 28,
                  "error": 0.000552
                }
              ]
            }
          },
          "attributes": {
            "POSITION": 4,
            "NORMAL": 5,
            "TEXCOORD_0": 6
          },
          "indices": 7,
          "mode": 4,
          "material": 12
        }
      ],
      "name": "Sphere"
    },
    {
      "primitives": [
        {
          "attributes": {
            "POSITION": 8,
            "NORMAL": 9,
            "TEXCOORD_0": 10
          },
          "indices": 11,
          "mode": 4,
          "material": 13
        }
      ],
      "name": "X1_Label_Coated"
    },
    {
      "primitives": [
        {
          "attributes": {
            "POSITION": 12,
            "NORMAL": 13,
            "TEXCOORD_0": 14
          },
          "indices": 15,
          "mode": 4,
          "material": 13
        }
      ],
      "name": "Y3_Label_BaseNormals"
    },
    {
      "primitives": [
        {
          "attributes": {
            "POSITION": 8,
            "NORMAL": 9,
            "TEXCOORD_0": 10
          },
          "indices": 11,
          "mode": 4,
          "material": 13
        }
      ],
      "name": "X1_Label_Coated"
    },
    {
      "primitives": [
        {
          "attributes": {
            "POSITION": 12,
            "NORMAL": 13,
            "TEXCOORD_0": 14
          },
          "indices": 15,
          "mode": 4,
          "material": 13
        }
      ],
      "name": "Y3_Label_BaseNormals"
    },
    {
      "primitives": [
        {
          "attributes": {
            "POSITION": 16,
            "NORMAL": 17,
            "TEXCOORD_0": 18
          },
          "indices": 11,
          "mode": 4,
          "material": 13
        }
      ],
      "name": "X2_Label_CoatingOnly"
    },
    {
      "primitives": [
        {
          "attributes": {
            "POSITION": 16,
            "NORMAL": 17,
            "TEXCOORD_0": 18
          },
          "indices": 11,
          "mode": 4,
          "material": 13
        }
      ],
      "name": "X2_Label_CoatingOnly"
    },
    {
      "primitives": [
        {
          "attributes": {
            "POSITION": 19,
            "NORMAL": 20,
            "TEXCOORD_0": 21
          },
          "indices": 11,
          "mode": 4,
          "material": 13
        }
      ],
      "name": "Y0_Label_SimpleCoating"
    },
    {
      "primitives": [
        {
          "attributes": {
            "POSITION": 22,
            "NORMAL": 23,
            "TEXCOORD_0": 24
          },
          "indices": 15,
          "mode": 4,
          "material": 13
        }
      ],
      "name": "Y5_Label_SharedNormals"
    },
    {
      "primitives": [
        {
          "attributes": {
            "POSITION": 16,
            "NORMAL": 17,
            "TEXCOORD_0": 18
          },
          "indices": 11,
          "mode": 4,
          "material": 13
        }
      ],
      "name": "X2_Label_CoatingOnly"
    }
  ],
  "nodes": [
    {
      "rotation": [
        -0.07035518437623978,
        0.01940322108566761,
        0.0013688141480088234,
        0.9973323345184326
      ],
      "translation": [
        -0.07675539702177048,
        0.3394200801849365,
        1.802846074104309
      ],
      "scale": [
        1.0,
        1.0000001192092896,
        0.9999999403953552
      ],
      "camera": 0,
      "name": "render_camera_n3d"
    },
    {
      "mesh": 0,
      "translation": [
        -0.15470129251480103,
        -0.4015843868255615,
        -0.06036872789263725
      ],
      "name": "Cloth Backdrop 01"
    },
    {
      "mesh": 1,
      "rotation": [
        0.0,
        0.9996573328971863,
        0.0,
        0.026176994666457176
      ],
      "translation": [
        0.10135379433631897,
        0.1326718032360077,
        0.01683981902897358
      ],
      "name": "RedTransTexture"
    },
    {
      "mesh": 2,
      "rotation": [
        0.0,
        0.9996573328971863,
        0.0,
        0.026176994666457176
      ],
      "translation": [
        -0.36709079146385193,
        0.1261221021413803,
        -0.01051957905292511
      ],
      "name": "YellowTrans"
    },
    {
      "mesh": 3,
      "rotation": [
        0.0,
        0.9996573328971863,
        0.0,
        0.026176994666457176
      ],
      "translation": [
        0.33557596802711487,
        0.13594670593738556,
        0.030519530177116394
      ],
      "name": "BlueTransWithMask"
    },
    {
      "mesh": 4,
      "rotation": [
        0.0,
        0.9996573328971863,
        0.0,
        0.026176994666457176
      ],
      "translation": [
        -0.13286849856376648,
        0.12939700484275818,
        0.003160127904266119
      ],
      "name": "GreenMask"
    },
    {
      "mesh": 5,
      "rotation": [
        0.0,
        0.9996573328971863,
        0.0,
        0.026176994666457176
      ],
      "translation": [
        0.10135379433631897,
        -0.09345020353794098,
        0.01683981902897358
      ],
      "name": "RedTransTextureRough"
    },
    {
      "mesh": 6,
      "rotation": [
        0.0,
        0.9996573328971863,
        0.0,
        0.026176994666457176
      ],
      "translation": [
        -0.36709079146385193,
        -0.09999999403953552,
        -0.01051957905292511
      ],
      "name": "YellowTransRough"
    },
    {
      "mesh": 7,
      "rotation": [
        0.0,
        0.9996573328971863,
        0.0,
        0.026176994666457176
      ],
      "translation": [
        0.33557596802711487,
        -0.09017530083656311,
        0.030519530177116394
      ],
      "name": "BlueTransWithMask"
    },
    {
      "mesh": 8,
      "rotation": [
        0.0,
        0.9996573328971863,
        0.0,
        0.026176994666457176
      ],
      "translation": [
        -0.13286849856376648,
        -0.09672509878873825,
        0.003160127904266119
      ],
      "name": "GreenMaskRough"
    },
    {
      "mesh": 9,
      "rotation": [
        0.0,
        0.9996573328971863,
        0.0,
        0.026176994666457176
      ],
      "translation": [
        0.10135379433631897,
        -0.32746508717536926,
        0.01683981902897358
      ],
      "name": "RedTransTextureMetal"
    },
    {
      "mesh": 10,
      "rotation": [
        0.0,
        0.9996573328971863,
        0.0,
        0.026176994666457176
      ],
      "translation": [
        -0.36709079146385193,
        -0.334014892578125,
        -0.01051957905292511
      ],
      "name": "YellowTransMetal"
    },
    {
      "mesh": 11,
      "rotation": [
        0.0,
        0.9996573328971863,
        0.0,
        0.026176994666457176
      ],
      "translation": [
        -0.13286849856376648,
        -0.3307400047779083,
        0.003160127904266119
      ],
      "name": "GreenMaskMetal"
    },
    {
      "mesh": 12,
      "rotation": [
        0.0,
        0.9996573328971863,
        0.0,
        0.026176994666457176
      ],
      "translation": [
        0.33557596802711487,
        -0.3241901993751526,
        0.030519530177116394
      ],
      "name": "BlueTransWithMask"
    },
    {
      "children": [
        15,
        16,
        17,
        18,
        19,
        20
      ],
      "name": "Column Labels"
    },
    {
      "mesh": 13,
      "rotation": [
        -9.458513522986323e-05,
        -4.074816573051976e-08,
        3.576850940589793e-05,
        1.0
      ],
      "translation": [
        -0.15605439245700836,
        0.4127219021320343,
        -0.03671092912554741
      ],
      "scale": [
        0.08348584175109863,
        0.1557399034500122,
        0.1557399034500122
      ],
      "name": "X1_Label_WithOpacity"
    },
    {
      "mesh": 14,
      "rotation": [
        -9.458522981731221e-05,
        -5.835058658476555e-08,
        3.573128196876496e-05,
        1.0
      ],
      "translation": [
        0.362414687871933,
        0.4796152114868164,
        -0.03672285005450249
      ],
      "scale": [
        0.06954946368932724,
        0.1557399034500122,
        0.1557399034500122
      ],
      "name": "Y3_Label_TransmissionTexture"
    },
    {
      "mesh": 15,
      "rotation": [
        -9.458513522986323e-05,
        -4.47990515795027e-08,
        3.5770794056588784e-05,
        1.0
      ],
      "translation": [
        0.36164841055870056,
        0.4127587676048279,
        -0.03671097755432129
      ],
      "scale": [
        0.07980477809906006,
        0.1557399034500122,
        0.1557399034500122
      ],
      "name": "X1_Label_WithOpacity"
    },
    {
      "mesh": 16,
      "rotation": [
        -9.458520071348175e-05,
        -6.512453154527975e-08,
        3.57320714101661e-05,
        1.0
      ],
      "translation": [
        0.10603449493646622,
        0.4796152114868164,
        -0.03672285005450249
      ],
      "scale": [
        0.06535045057535172,
        0.1557399034500122,
        0.1557399034500122
      ],
      "name": "Y3_Label_TransmissionTexture"
    },
    {
      "mesh": 17,
      "rotation": [
        -9.458516433369368e-05,
        -2.7568585636572607e-08,
        3.5779212339548394e-05,
        1.0
      ],
      "translation": [
        -0.3994385004043579,
        0.47961509227752686,
        -0.03672334924340248
      ],
      "scale": [
        0.09822454303503036,
        0.1557399034500122,
        0.1557399034500122
      ],
      "name": "X2_Label_Transmission"
    },
    {
      "mesh": 18,
      "rotation": [
        -9.458513522986323e-05,
        -2.909321139554777e-08,
        3.578040923457593e-05,
        1.0
      ],
      "translation": [
        -0.16186389327049255,
        0.4796149730682373,
        -0.03672334924340248
      ],
      "scale": [
        0.09625838696956635,
        0.1557399034500122,
        0.1557399034500122
      ],
      "name": "X2_Label_Transmission"
    },
    {
      "rotation": [
        -9.458513522986323e-05,
        -1.497378067892574e-14,
        3.578418181859888e-05,
        1.0
      ],
      "translation": [
        -2.265920877456665,
        1.0377169847488403,
        -0.036828286945819855
      ],
      "scale": [
        0.1557399034500122,
        0.1557399034500122,
        0.1557399034500122
      ],
      "children": [
        22,
        23,
        24
      ],
      "name": "Row Labels"
    },
    {
      "mesh": 19,
      "rotation": [
        -2.1582695700073096e-11,
        -3.345704513435521e-08,
        -3.844720097845311e-08,
        1.0
      ],
      "translation": [
        10.043020248413086,
        -8.2355375289917,
        -7.152556463552173e-06
      ],
      "scale": [
        0.5845792293548584,
        1.0,
        1.0
      ],
      "name": "Y0_Label_MetallicTransmission"
    },
    {
      "mesh": 20,
      "rotation": [
        -1.4305411022430548e-11,
        -4.159385724733511e-08,
        -4.7792596546969435e-08,
        1.0
      ],
      "translation": [
        10.137709617614746,
        -6.663864612579346,
        -2.937316821771674e-06
      ],
      "scale": [
        0.530937910079956,
        1.0,
        1.0
      ],
      "name": "Y5_Label_RoughTransmission"
    },
    {
      "mesh": 21,
      "rotation": [
        -2.8860731512980742e-11,
        -1.6422601945009774e-08,
        -1.886485456736864e-08,
        1.0
      ],
      "translation": [
        10.396340370178223,
        -5.149285316467285,
        -5.7220458984375e-06
      ],
      "scale": [
        0.741389811038971,
        1.0,
        1.0
      ],
      "name": "X2_Label_Transmission"
    }
  ],
  "samplers": [
    {
      "wrapS": 10497,
      "wrapT": 10497
    },
    {
      "wrapS": 10497,
      "wrapT": 10497
    },
    {
      "wrapS": 10497,
      "wrapT": 10497
    },
    {
      "wrapS": 10497,
      "wrapT": 10497
    },
    {
      "wrapS": 10497,
      "wrapT": 10497
    },
    {
      "wrapS": 10497,
      "wrapT": 10497
    },
    {
      "wrapS": 10497,
      "wrapT": 10497
    },
    {
      "wrapS": 10497,
      "wrapT": 10497
    },
    {
      "wrapS": 10497,
      "wrapT": 10497
    }
  ],
  "scene": 0,
  "scenes": [
    {
      "name": "scene",
      "nodes": [
        0,
        1,
        2,
        3,
        4,
        5,
        6,
        7,
        8,
        9,
        10,
        11,
        12,
        13,
        14,
        21
      ]
    }
  ],
  "textures": [
    {
      "sampler": 0,
      "source": 0,
      "name": "texture28577"
    },
    {
      "sampler": 1,
      "source": 1,
      "name": "texture14184"
    },
    {
      "sampler": 2,
      "source": 2,
      "name": "texture214190"
    },
    {
      "sampler": 3,
      "source": 3,
      "name": "texture4086"
    },
    {
      "sampler": 4,
      "source": 4,
      "name": "texture177328"
    },
    {
      "sampler": 5,
      "source": 5,
      "name": "texture6807"
    },
    {
      "sampler": 6,
      "source": 6,
      "name": "texture175763"
    },
    {
      "sampler": 7,
      "source": 7,
      "name": "texture10487"
    },
    {
      "sampler": 8,
      "source": 8,
      "name": "texture15366"
    }
  ]
}