{
  "extensions": {
    "KHR_xmp_json_ld": {
      "packets": [
        {
          "@context": {
            "dc": "http://purl.org/dc/elements/1.1/"
          },
          "dc:date": "2025-02-10T21:00:11.896Z",
          "dc:title": "Skattering Skull",
          "dc:creator": "Vladimir Petkovic",
          "xmp:CreatorTool": "Adobe Substance 3D Stager"
        }
      ]
    }
  },
  "accessors": [
    {
      "bufferView": 0,
      "byteOffset": 0,
      "componentType": 5126,
      "normalized": false,
      "count": 97880,
      "type": "VEC3",
      "max": [
        0.32152682542800903,
        0.149470716714859,
        0.1745789349079132
      ],
      "min": [
        0.11736665666103363,
        -0.10330912470817566,
        -0.1647975742816925
      ]
    },
    {
      "bufferView": 1,
      "byteOffset": 0,
      "componentType": 5126,
      "normalized": false,
      "count": 97880,
      "type": "VEC3"
    },
    {
      "bufferView": 2,
      "byteOffset": 0,
      "componentType": 5126,
      "normalized": false,
      "count": 97880,
      "type": "VEC4"
    },
    {
      "bufferView": 3,
      "byteOffset": 0,
      "componentType": 5126,
      "normalized": false,
      "count": 97880,
      "type": "VEC2"
    },
    {
      "bufferView": 4,
      "byteOffset": 0,
      "componentType": 5125,
      "normalized": false,
      "count": 566613,
      "type": "SCALAR"
    },
    {
      "bufferView": 4,
      "byteOffset": 2266452,
      "componentType": 5125,
      "normalized": false,
      "count": 283305,
      "type": "SCALAR"
    },
    {
      "bufferView": 4,
      "byteOffset": 3399672,
      "componentType": 5125,
      "normalized": false,
      "count": 141651,
      "type": "SCALAR"
    }
  ],
  "asset": {
    "extensions": {
      "KHR_xmp_json_ld": {
        "packet": 0
      }
    },
    "generator": "GDS lod baker 1",
    "copyright": "2025 (c) Adobe Inc., model by Vladimir Petkovic, CC0 1.0 Universal",
    "version": "2.0"
  },
  "bufferViews": [
    {
      "buffer": 0,
      "byteOffset": 0,
      "byteLength": 1174560,
      "target": 34962
    },
    {
      "buffer": 0,
      "byteOffset": 1174560,
      "byteLength": 1174560,
      "target": 34962
    },
    {
      "buffer": 0,
      "byteOffset": 2349120,
      "byteLength": 1566080,
      "target": 34962
    },
    {
      "buffer": 0,
      "byteOffset": 3915200,
      "byteLength": 783040,
      "target": 34962
    },
    {
      "buffer": 0,
      "byteOffset": 4698240,
      "byteLength": 3966276,
      "target": 34963
    }
  ],
  "buffers": [
    {
      "uri": "ScatteringSkullLOD.bin",
      "byteLength": 8664516
    }
  ],
  "extensionsUsed": [
    "KHR_xmp_json_ld",
    "KHR_materials_diffuse_transmission",
    "KHR_materials_volume",
    "KHR_materials_dispersion",
    "KHR_materials_volume_scatter",
    "KHR_materials_ior",
    "NG2_mesh_lod"
  ],
  "images": [
    {
      "uri": "ScatteringSkull_images/aoThickness.png",
      "mimeType": "image/png",
      "name": "AO-thickness"
    }
  ],
  "materials": [
    {
      "extensions": {
        "KHR_materials_diffuse_transmission": {
          "diffuseTransmissionFactor": 1
        },
        "KHR_materials_dispersion": {
          "dispersion": 0.5699999928474426
        },
        "KHR_materials_volume": {
          "attenuationColor": [
            0.3678794503211975,
            0.4857314527034759,
            0.3964099884033203
          ],
          "attenuationDistance": 0.016891848295927048,
          "thicknessFactor": 1,
          "thicknessTexture": {
            "index": 0
          }
        },
        "KHR_materials_volume_scatter": {
          "multiscatterColorFactor": [
            0.16827136278152466,
            0.5271198749542236,
            0.5906253457069397
          ]
        },
        "KHR_materials_ior": {
          "ior": 1.3799999952316284
        }
      },
      "pbrMetallicRoughness": {
        "baseColorFactor": [
          1.0,
          1.0,
          1.0,
          1.0
        ],
        "metallicFactor": 0.0,
        "roughnessFactor": 0.5299999713897705
      },
      "occlusionTexture": {
        "index": 0,
        "strength": 1.0
      },
      "emissiveFactor": [
        0.0,
        0.0,
        0.0
      ],
      "alphaMode": "OPAQUE",
      "doubleSided": false,
      "name": "subsurface_material"
    }
  ],
  "meshes": [
    {
      "primitives": [
        {
          "extensions": {
            "NG2_mesh_lod": {
              "levels": [
                {
                  "indices": 5,
                  "error": 8.3e-05
                },
                {
                  "indices": 6,
                  "error": 0.000203
                }
              ]
            }
          },
          "attributes": {
            "POSITION": 0,
            "NORMAL": 1,
            "TANGENT": 2,
            "TEXCOORD_0": 3
          },
          "indices": 4,
          "mode": 4,
          "material": 0
        }
      ],
      "name": "Group54598_n3d2"
    }
  ],
  "nodes": [
    {
      "mesh": 0,
      "translation": [
        -0.2194467931985855,
        0.10330919921398163,
        -0.004890651907771826
      ],
      "name": "Skull"
    }
  ],
  "samplers": [
    {
      "wrapS": 10497,
      "wrapT": 10497
    }
  ],
  "scene": 0,
  "scenes": [
    {
      "name": "scene",
      "nodes": [
        0
      ]
    }
  ],
  "textures": [
    {
      "sampler": 0,
      "source": 0,
      "name": "aoThicknessTexture"
    }
  ]
}