{
  "accessors": [
    {
      "bufferView": 4,
      "byteOffset": 0,
      "componentType": 5123,
      "normalized": false,
      "count": 15720,
      "type": "SCALAR"
    },
    {
      "bufferView": 0,
      "byteOffset": 0,
      "componentType": 5126,
      "normalized": false,
      "count": 2770,
      "type": "VEC3",
      "max": [
        1.4138822555541992,
        1.0467524528503418,
        0.08050008118152618
      ],
      "min": [
        -1.4246257543563843,
        -1.2000000476837158,
        -0.009999947622418404
      ]
    },
    {
      "bufferView": 1,
      "byteOffset": 0,
      "componentType": 5126,
      "normalized": false,
      "count": 2770,
      "type": "VEC3",
      "max": [
        0.9247413277626038,
        0.9247413277626038,
        1.0
      ],
      "min": [
        -0.9247413277626038,
        -0.9247413277626038,
        -1.0
      ]
    },
    {
      "bufferView": 2,
      "byteOffset": 0,
      "componentType": 5126,
      "normalized": false,
      "count": 2770,
      "type": "VEC4",
      "max": [
        1.0,
        0.8718903064727783,
        0.9247627258300781,
        1.0
      ],
      "min": [
        -1.0,
        -0.8827678561210632,
        -0.9247735142707825,
        -1.0
      ]
    },
    {
      "bufferView": 3,
      "byteOffset": 0,
      "componentType": 5126,
      "normalized": false,
      "count": 2770,
      "type": "VEC2",
      "max": [
        0.9821357727050781,
        0.9877346605062485
      ],
      "min": [
        0.1472877860069275,
        0.03816509246826172
      ]
    },
    {
      "bufferView": 4,
      "byteOffset": 31440,
      "componentType": 5123,
      "normalized": false,
      "count": 7860,
      "type": "SCALAR"
    },
    {
      "bufferView": 4,
      "byteOffset": 47160,
      "componentType": 5123,
      "normalized": false,
      "count": 3930,
      "type": "SCALAR"
    }
  ],
  "asset": {
    "generator": "GDS lod baker 1",
    "copyright": "Copyright 2017-2018 Analytical Graphics, Inc., CC-BY 4.0 https://creativecommons.org/licenses/by/4.0/ - Mesh and textures by Ed Mackey.",
    "version": "2.0"
  },
  "bufferViews": [
    {
      "buffer": 0,
      "byteOffset": 0,
      "byteLength": 33240,
      "target": 34962
    },
    {
      "buffer": 0,
      "byteOffset": 33240,
      "byteLength": 33240,
      "target": 34962
    },
    {
      "buffer": 0,
      "byteOffset": 66480,
      "byteLength": 44320,
      "target": 34962
    },
    {
      "buffer": 0,
      "byteOffset": 110800,
      "byteLength": 22160,
      "target": 34962
    },
    {
      "buffer": 0,
      "byteOffset": 132960,
      "byteLength": 55020,
      "target": 34963
    }
  ],
  "buffers": [
    {
      "uri": "NormalTangentMirrorTestLOD.bin",
      "byteLength": 187980
    }
  ],
  "extensionsUsed": [
    "NG2_mesh_lod"
  ],
  "images": [
    {
      "uri": "NormalTangentMirrorTest_OcclusionRoughnessMetallic.png"
    },
    {
      "uri": "NormalTangentMirrorTest_Normal.png"
    },
    {
      "uri": "NormalTangentMirrorTest_BaseColor.png"
    }
  ],
  "materials": [
    {
      "pbrMetallicRoughness": {
        "baseColorFactor": [
          1.0,
          1.0,
          1.0,
          1.0
        ],
        "metallicFactor": 1.0,
        "roughnessFactor": 1.0,
        "baseColorTexture": {
          "index": 2,
          "texCoord": 0
        },
        "metallicRoughnessTexture": {
          "index": 0,
          "texCoord": 0
        }
      },
      "normalTexture": {
        "index": 1,
        "scale": 1.0
      },
      "occlusionTexture": {
        "index": 0,
        "strength": 1.0
      },
      "emissiveFactor": [
        0.0,
        0.0,
        0.0
      ],
      "alphaMode": "OPAQUE",
      "doubleSided": true,
      "name": "Material"
    }
  ],
  "meshes": [
    {
      "primitives": [
        {
          "extensions": {
            "NG2_mesh_lod": {
              "levels": [
                {
                  "indices": 5,
                  "error": 0.003089
                },
                {
                  "indices": 6,
                  "error": 0.0065
                }
              ]
            }
          },
          "attributes": {
            "POSITION": 1,
            "NORMAL": 2,
            "TANGENT": 3,
            "TEXCOORD_0": 4
          },
          "indices": 0,
          "mode": 4,
          "material": 0
        }
      ],
      "name": "NormalTangentTest_low"
    }
  ],
  "nodes": [
    {
      "mesh": 0,
      "name": "NormalTangentTest_low"
    }
  ],
  "samplers": [
    {
      "wrapS": 10497,
      "wrapT": 10497
    }
  ],
  "scene": 0,
  "scenes": [
    {
      "name": "Scene",
      "nodes": [
        0
      ]
    }
  ],
  "textures": [
    {
      "sampler": 0,
      "source": 0
    },
    {
      "sampler": 0,
      "source": 1
    },
    {
      "sampler": 0,
      "source": 2
    }
  ]
}