{
  "accessors": [
    {
      "bufferView": 0,
      "byteOffset": 0,
      "componentType": 5126,
      "normalized": false,
      "count": 2549,
      "type": "VEC2"
    },
    {
      "bufferView": 1,
      "byteOffset": 0,
      "componentType": 5126,
      "normalized": false,
      "count": 2549,
      "type": "VEC3"
    },
    {
      "bufferView": 2,
      "byteOffset": 0,
      "componentType": 5126,
      "normalized": false,
      "count": 2549,
      "type": "VEC4"
    },
    {
      "bufferView": 3,
      "byteOffset": 0,
      "componentType": 5126,
      "normalized": false,
      "count": 2549,
      "type": "VEC3",
      "max": [
        0.05445001,
        0.130220339,
        0.0544500239
      ],
      "min": [
        -0.05445001,
        -0.130220339,
        -0.0544500239
      ]
    },
    {
      "bufferView": 10,
      "byteOffset": 0,
      "componentType": 5123,
      "normalized": false,
      "count": 13530,
      "type": "SCALAR"
    },
    {
      "bufferView": 11,
      "byteOffset": 0,
      "componentType": 5121,
      "normalized": false,
      "count": 12,
      "type": "SCALAR",
      "name": "First label accessor, index 5"
    },
    {
      "bufferView": 4,
      "byteOffset": 0,
      "componentType": 5126,
      "normalized": false,
      "count": 8,
      "type": "VEC3",
      "max": [
        0.07500011473894119,
        0.009645418263971806,
        0.001000528922304511
      ],
      "min": [
        -0.07500011473894119,
        -0.009645414538681507,
        -0.0010005402145907283
      ]
    },
    {
      "bufferView": 5,
      "byteOffset": 0,
      "componentType": 5126,
      "normalized": false,
      "count": 8,
      "type": "VEC3",
      "max": [
        5.216573754296405e-06,
        -5.404175226431107e-06,
        1.0
      ],
      "min": [
        -5.066010089649353e-06,
        -5.40417659067316e-06,
        -1.0
      ]
    },
    {
      "bufferView": 6,
      "byteOffset": 0,
      "componentType": 5126,
      "normalized": false,
      "count": 8,
      "type": "VEC2",
      "max": [
        0.9999998807907104,
        0.5
      ],
      "min": [
        0.0,
        0.0
      ]
    },
    {
      "bufferView": 12,
      "byteOffset": 0,
      "componentType": 5121,
      "normalized": false,
      "count": 12,
      "type": "SCALAR"
    },
    {
      "bufferView": 7,
      "byteOffset": 0,
      "componentType": 5126,
      "normalized": false,
      "count": 8,
      "type": "VEC3",
      "max": [
        0.07500021904706955,
        0.009641403332352638,
        0.0010003353236243129
      ],
      "min": [
        -0.07500021904706955,
        -0.00964139774441719,
        -0.0010003463830798864
      ]
    },
    {
      "bufferView": 8,
      "byteOffset": 0,
      "componentType": 5126,
      "normalized": false,
      "count": 8,
      "type": "VEC3",
      "max": [
        2.633700660226168e-06,
        -5.412433893070556e-06,
        1.0
      ],
      "min": [
        -2.4831367682054406e-06,
        -5.412434802565258e-06,
        -1.0
      ]
    },
    {
      "bufferView": 9,
      "byteOffset": 0,
      "componentType": 5126,
      "normalized": false,
      "count": 8,
      "type": "VEC2",
      "max": [
        1.0,
        1.0
      ],
      "min": [
        8.206588120174274e-08,
        0.5
      ]
    },
    {
      "bufferView": 10,
      "byteOffset": 27060,
      "componentType": 5123,
      "normalized": false,
      "count": 6762,
      "type": "SCALAR"
    },
    {
      "bufferView": 10,
      "byteOffset": 40584,
      "componentType": 5123,
      "normalized": false,
      "count": 3378,
      "type": "SCALAR"
    }
  ],
  "asset": {
    "generator": "GDS lod baker 1",
    "version": "2.0"
  },
  "bufferViews": [
    {
      "buffer": 0,
      "byteOffset": 0,
      "byteLength": 20392
    },
    {
      "buffer": 0,
      "byteOffset": 20392,
      "byteLength": 30588
    },
    {
      "buffer": 0,
      "byteOffset": 50980,
      "byteLength": 40784
    },
    {
      "buffer": 0,
      "byteOffset": 91764,
      "byteLength": 30588
    },
    {
      "buffer": 0,
      "byteOffset": 122352,
      "byteLength": 96,
      "target": 34962
    },
    {
      "buffer": 0,
      "byteOffset": 122448,
      "byteLength": 96,
      "target": 34962
    },
    {
      "buffer": 0,
      "byteOffset": 122544,
      "byteLength": 64,
      "target": 34962
    },
    {
      "buffer": 0,
      "byteOffset": 122608,
      "byteLength": 96,
      "target": 34962
    },
    {
      "buffer": 0,
      "byteOffset": 122704,
      "byteLength": 96,
      "target": 34962
    },
    {
      "buffer": 0,
      "byteOffset": 122800,
      "byteLength": 64,
      "target": 34962
    },
    {
      "buffer": 0,
      "byteOffset": 122864,
      "byteLength": 47340,
      "target": 34963
    },
    {
      "buffer": 0,
      "byteOffset": 170204,
      "byteLength": 12,
      "target": 34963
    },
    {
      "buffer": 0,
      "byteOffset": 170216,
      "byteLength": 12,
      "target": 34963
    }
  ],
  "buffers": [
    {
      "uri": "SpecGlossVsMetalRoughLOD.bin",
      "byteLength": 170228
    }
  ],
  "extensionsUsed": [
    "KHR_materials_pbrSpecularGlossiness",
    "NG2_mesh_lod"
  ],
  "extensionsRequired": [
    "KHR_materials_pbrSpecularGlossiness"
  ],
  "images": [
    {
      "uri": "WaterBottle_baseColor.png"
    },
    {
      "uri": "WaterBottle_roughnessMetallic.png"
    },
    {
      "uri": "WaterBottle_normal.png"
    },
    {
      "uri": "WaterBottle_emissive.png"
    },
    {
      "uri": "WaterBottle_occlusion.png"
    },
    {
      "uri": "WaterBottle_diffuse.png"
    },
    {
      "uri": "WaterBottle_specularGlossiness.png"
    },
    {
      "uri": "SpecGlossVsMetalRough.png"
    }
  ],
  "materials": [
    {
      "extensions": {
        "KHR_materials_pbrSpecularGlossiness": {
          "diffuseTexture": {
            "index": 5
          },
          "specularGlossinessTexture": {
            "index": 6
          }
        }
      },
      "normalTexture": {
        "index": 2,
        "scale": 1.0
      },
      "occlusionTexture": {
        "index": 4,
        "strength": 1.0
      },
      "emissiveFactor": [
        1.0,
        1.0,
        1.0
      ],
      "emissiveTexture": {
        "index": 3,
        "texCoord": 0
      },
      "alphaMode": "OPAQUE",
      "doubleSided": false,
      "name": "BottleMat_SpecGloss"
    },
    {
      "pbrMetallicRoughness": {
        "baseColorFactor": [
          1.0,
          1.0,
          1.0,
          1.0
        ],
        "metallicFactor": 1.0,
        "roughnessFactor": 1.0,
        "baseColorTexture": {
          "index": 0,
          "texCoord": 0
        },
        "metallicRoughnessTexture": {
          "index": 1,
          "texCoord": 0
        }
      },
      "normalTexture": {
        "index": 2,
        "scale": 1.0
      },
      "occlusionTexture": {
        "index": 4,
        "strength": 1.0
      },
      "emissiveFactor": [
        1.0,
        1.0,
        1.0
      ],
      "emissiveTexture": {
        "index": 3,
        "texCoord": 0
      },
      "alphaMode": "OPAQUE",
      "doubleSided": false,
      "name": "BottleMat_MR"
    },
    {
      "pbrMetallicRoughness": {
        "baseColorFactor": [
          1.0,
          1.0,
          1.0,
          1.0
        ],
        "metallicFactor": 0.0,
        "roughnessFactor": 1.0,
        "baseColorTexture": {
          "index": 7,
          "texCoord": 0
        }
      },
      "emissiveFactor": [
        0.0,
        0.0,
        0.0
      ],
      "alphaMode": "OPAQUE",
      "doubleSided": false,
      "name": "Label Material MetalRough"
    },
    {
      "extensions": {
        "KHR_materials_pbrSpecularGlossiness": {
          "diffuseTexture": {
            "index": 7
          },
          "specularFactor": [
            0.0,
            0.0,
            0.0
          ],
          "glossinessFactor": 0.0
        }
      },
      "emissiveFactor": [
        0.0,
        0.0,
        0.0
      ],
      "alphaMode": "OPAQUE",
      "doubleSided": false,
      "name": "Label Material SpecGloss"
    }
  ],
  "meshes": [
    {
      "primitives": [
        {
          "extensions": {
            "NG2_mesh_lod": {
              "levels": [
                {
                  "indices": 13,
                  "error": 0.000581
                },
                {
                  "indices": 14,
                  "error": 0.001833
                }
              ]
            }
          },
          "attributes": {
            "POSITION": 3,
            "NORMAL": 1,
            "TANGENT": 2,
            "TEXCOORD_0": 0
          },
          "indices": 4,
          "mode": 4,
          "material": 0
        }
      ],
      "name": "WaterBottle_SpecGloss"
    },
    {
      "primitives": [
        {
          "extensions": {
            "NG2_mesh_lod": {
              "levels": [
                {
                  "indices": 13,
                  "error": 0.000581
                },
                {
                  "indices": 14,
                  "error": 0.001833
                }
              ]
            }
          },
          "attributes": {
            "POSITION": 3,
            "NORMAL": 1,
            "TANGENT": 2,
            "TEXCOORD_0": 0
          },
          "indices": 4,
          "mode": 4,
          "material": 1
        }
      ],
      "name": "WaterBottle_MR"
    },
    {
      "primitives": [
        {
          "attributes": {
            "POSITION": 6,
            "NORMAL": 7,
            "TEXCOORD_0": 8
          },
          "indices": 5,
          "mode": 4,
          "material": 2
        }
      ],
      "name": "LabelMR_Mesh"
    },
    {
      "primitives": [
        {
          "attributes": {
            "POSITION": 10,
            "NORMAL": 11,
            "TEXCOORD_0": 12
          },
          "indices": 9,
          "mode": 4,
          "material": 3
        }
      ],
      "name": "LabelSpecGloss_Mesh"
    }
  ],
  "nodes": [
    {
      "mesh": 0,
      "rotation": [
        0.0,
        1.0,
        0.0,
        0.0
      ],
      "translation": [
        0.08,
        0.0,
        0.0
      ],
      "name": "WaterBottle_SpecGloss"
    },
    {
      "mesh": 1,
      "rotation": [
        0.0,
        1.0,
        0.0,
        0.0
      ],
      "translation": [
        -0.08,
        0.0,
        0.0
      ],
      "name": "WaterBottle_MR"
    },
    {
      "mesh": 2,
      "translation": [
        -0.08,
        0.18,
        0.0
      ],
      "name": "MetalRoughLabel"
    },
    {
      "mesh": 3,
      "translation": [
        0.08,
        0.18,
        0.0
      ],
      "name": "SpecGlossLabel"
    }
  ],
  "scene": 0,
  "scenes": [
    {
      "nodes": [
        0,
        1,
        2,
        3
      ]
    }
  ],
  "textures": [
    {
      "source": 0
    },
    {
      "source": 1
    },
    {
      "source": 2
    },
    {
      "source": 3
    },
    {
      "source": 4
    },
    {
      "source": 5
    },
    {
      "source": 6
    },
    {
      "source": 7
    }
  ]
}