{
  "accessors": [
    {
      "bufferView": 2,
      "byteOffset": 0,
      "componentType": 5123,
      "normalized": false,
      "count": 2208,
      "type": "SCALAR",
      "name": "accessorIndices"
    },
    {
      "bufferView": 0,
      "byteOffset": 0,
      "componentType": 5126,
      "normalized": false,
      "count": 776,
      "type": "VEC3",
      "max": [
        0.255940437,
        0.506541431,
        0.0196742862
      ],
      "min": [
        -0.25205946,
        0.000151759145,
        -0.0184137151
      ],
      "name": "accessorPositions"
    },
    {
      "bufferView": 0,
      "byteOffset": 9312,
      "componentType": 5126,
      "normalized": false,
      "count": 776,
      "type": "VEC3",
      "name": "accessorNormals"
    },
    {
      "bufferView": 1,
      "byteOffset": 0,
      "componentType": 5126,
      "normalized": false,
      "count": 776,
      "type": "VEC2",
      "name": "accessorUVs"
    },
    {
      "bufferView": 3,
      "byteOffset": 0,
      "componentType": 5123,
      "normalized": false,
      "count": 6,
      "type": "SCALAR",
      "name": "accessorIndices"
    },
    {
      "bufferView": 0,
      "byteOffset": 18624,
      "componentType": 5126,
      "normalized": false,
      "count": 4,
      "type": "VEC3",
      "max": [
        0.2221247,
        0.4732467,
        0.0006317319
      ],
      "min": [
        -0.218243673,
        0.0334649868,
        0.0006317319
      ],
      "name": "accessorPositions"
    },
    {
      "bufferView": 0,
      "byteOffset": 18672,
      "componentType": 5126,
      "normalized": false,
      "count": 4,
      "type": "VEC3",
      "name": "accessorNormals"
    },
    {
      "bufferView": 1,
      "byteOffset": 6208,
      "componentType": 5126,
      "normalized": false,
      "count": 4,
      "type": "VEC2",
      "name": "accessorUVs"
    },
    {
      "bufferView": 4,
      "byteOffset": 0,
      "componentType": 5123,
      "normalized": false,
      "count": 747,
      "type": "SCALAR",
      "name": "accessorIndices"
    },
    {
      "bufferView": 0,
      "byteOffset": 18720,
      "componentType": 5126,
      "normalized": false,
      "count": 204,
      "type": "VEC3",
      "max": [
        0.02858464,
        0.5166226,
        0.0159997828
      ],
      "min": [
        -0.0222872924,
        0.5065515,
        -0.0038979766
      ],
      "name": "accessorPositions"
    },
    {
      "bufferView": 0,
      "byteOffset": 21168,
      "componentType": 5126,
      "normalized": false,
      "count": 204,
      "type": "VEC3",
      "name": "accessorNormals"
    },
    {
      "bufferView": 1,
      "byteOffset": 6240,
      "componentType": 5126,
      "normalized": false,
      "count": 204,
      "type": "VEC2",
      "name": "accessorUVs"
    },
    {
      "bufferView": 2,
      "byteOffset": 4416,
      "componentType": 5123,
      "normalized": false,
      "count": 1284,
      "type": "SCALAR"
    },
    {
      "bufferView": 2,
      "byteOffset": 6984,
      "componentType": 5123,
      "normalized": false,
      "count": 840,
      "type": "SCALAR"
    },
    {
      "bufferView": 4,
      "byteOffset": 1494,
      "componentType": 5123,
      "normalized": false,
      "count": 321,
      "type": "SCALAR"
    }
  ],
  "asset": {
    "generator": "GDS lod baker 1",
    "copyright": "CCBY 4.0, model by Eric Chadwick",
    "version": "2.0"
  },
  "bufferViews": [
    {
      "buffer": 0,
      "byteOffset": 0,
      "byteLength": 23616,
      "byteStride": 12,
      "target": 34962,
      "name": "bufferViewFloatVec3"
    },
    {
      "buffer": 0,
      "byteOffset": 23616,
      "byteLength": 7872,
      "byteStride": 8,
      "target": 34962,
      "name": "bufferViewFloatVec2"
    },
    {
      "buffer": 0,
      "byteOffset": 31488,
      "byteLength": 8664,
      "target": 34963
    },
    {
      "buffer": 0,
      "byteOffset": 40152,
      "byteLength": 12,
      "target": 34963
    },
    {
      "buffer": 0,
      "byteOffset": 40164,
      "byteLength": 2136,
      "target": 34963
    }
  ],
  "buffers": [
    {
      "uri": "GlassBrokenWindowLOD.bin",
      "byteLength": 42300
    }
  ],
  "extensionsUsed": [
    "KHR_materials_transmission",
    "NG2_mesh_lod"
  ],
  "images": [
    {
      "uri": "WindowGlass_Normal.png"
    },
    {
      "uri": "WindowGlass_ColorAlpha.png"
    },
    {
      "uri": "WindowGlass_OcclusionRoughMetal.jpg"
    },
    {
      "uri": "WindowFrame_Occlusion.jpg"
    },
    {
      "uri": "WindowClasp_Occlusion.jpg"
    }
  ],
  "materials": [
    {
      "pbrMetallicRoughness": {
        "baseColorFactor": [
          0.86,
          0.86,
          0.86,
          1.0
        ],
        "metallicFactor": 0.0,
        "roughnessFactor": 0.5
      },
      "occlusionTexture": {
        "index": 3,
        "strength": 1.0
      },
      "emissiveFactor": [
        0.0,
        0.0,
        0.0
      ],
      "alphaMode": "OPAQUE",
      "doubleSided": false,
      "name": "WindowFrame"
    },
    {
      "extensions": {
        "KHR_materials_transmission": {
          "transmissionFactor": 1
        }
      },
      "pbrMetallicRoughness": {
        "baseColorFactor": [
          0.6,
          0.85,
          1.0,
          1.0
        ],
        "metallicFactor": 1.0,
        "roughnessFactor": 0.05,
        "baseColorTexture": {
          "index": 1,
          "texCoord": 0
        },
        "metallicRoughnessTexture": {
          "index": 2,
          "texCoord": 0
        }
      },
      "normalTexture": {
        "index": 0,
        "scale": 1.0
      },
      "emissiveFactor": [
        0.0,
        0.0,
        0.0
      ],
      "alphaMode": "MASK",
      "doubleSided": true,
      "name": "WindowGlass"
    },
    {
      "pbrMetallicRoughness": {
        "baseColorFactor": [
          0.18,
          0.14,
          0.09,
          1.0
        ],
        "metallicFactor": 1.0,
        "roughnessFactor": 0.5
      },
      "occlusionTexture": {
        "index": 4,
        "strength": 1.0
      },
      "emissiveFactor": [
        0.0,
        0.0,
        0.0
      ],
      "alphaMode": "OPAQUE",
      "doubleSided": false,
      "name": "WindowClasp"
    }
  ],
  "meshes": [
    {
      "primitives": [
        {
          "extensions": {
            "NG2_mesh_lod": {
              "levels": [
                {
                  "indices": 12,
                  "error": 0.005059
                },
                {
                  "indices": 13,
                  "error": 0.024008
                }
              ]
            }
          },
          "attributes": {
            "POSITION": 1,
            "NORMAL": 2,
            "TEXCOORD_0": 3
          },
          "indices": 0,
          "mode": 4,
          "material": 0
        }
      ],
      "name": "WindowFrame"
    },
    {
      "primitives": [
        {
          "attributes": {
            "POSITION": 5,
            "NORMAL": 6,
            "TEXCOORD_0": 7
          },
          "indices": 4,
          "mode": 4,
          "material": 1
        }
      ],
      "name": "WindowsGlass"
    },
    {
      "primitives": [
        {
          "extensions": {
            "NG2_mesh_lod": {
              "levels": [
                {
                  "indices": 14,
                  "error": 0.002389
                }
              ]
            }
          },
          "attributes": {
            "POSITION": 9,
            "NORMAL": 10,
            "TEXCOORD_0": 11
          },
          "indices": 8,
          "mode": 4,
          "material": 2
        }
      ],
      "name": "WindowClasp"
    }
  ],
  "nodes": [
    {
      "mesh": 0,
      "name": "WindowFrame"
    },
    {
      "mesh": 1,
      "name": "WindowsGlass"
    },
    {
      "mesh": 2,
      "name": "WindowClasp"
    }
  ],
  "samplers": [
    {
      "magFilter": 9729,
      "minFilter": 9987,
      "wrapS": 10497,
      "wrapT": 10497
    }
  ],
  "scene": 0,
  "scenes": [
    {
      "nodes": [
        0,
        1,
        2
      ]
    }
  ],
  "textures": [
    {
      "sampler": 0,
      "source": 0,
      "name": "WindowGlass_Normal.png"
    },
    {
      "sampler": 0,
      "source": 1,
      "name": "WindowGlass_ColorAlpha.png"
    },
    {
      "sampler": 0,
      "source": 2,
      "name": "WindowGlass_OcclusionRoughMetal.jpg"
    },
    {
      "sampler": 0,
      "source": 3,
      "name": "WindowFrame_Occlusion.jpg"
    },
    {
      "sampler": 0,
      "source": 4,
      "name": "WindowClasp_Occlusion.jpg"
    }
  ]
}