{
  "accessors": [
    {
      "bufferView": 2,
      "byteOffset": 0,
      "componentType": 5123,
      "normalized": false,
      "count": 23322,
      "type": "SCALAR"
    },
    {
      "bufferView": 0,
      "byteOffset": 0,
      "componentType": 5126,
      "normalized": false,
      "count": 3983,
      "type": "VEC3",
      "max": [
        0.9247629046440125,
        0.9247735142707824,
        1.0
      ],
      "min": [
        -0.9247629046440125,
        -0.9247629046440125,
        -1.0
      ]
    },
    {
      "bufferView": 0,
      "byteOffset": 47796,
      "componentType": 5126,
      "normalized": false,
      "count": 3983,
      "type": "VEC3",
      "max": [
        1.1100000143051147,
        0.9500001072883606,
        0.08049999922513962
      ],
      "min": [
        -1.1100000143051147,
        -1.200000047683716,
        -0.009999989531934261
      ]
    },
    {
      "bufferView": 1,
      "byteOffset": 0,
      "componentType": 5126,
      "normalized": false,
      "count": 3983,
      "type": "VEC2",
      "max": [
        0.9821358323097228,
        0.9877346754074096
      ],
      "min": [
        0.0106734000146389,
        0.03816509246826172
      ]
    },
    {
      "bufferView": 2,
      "byteOffset": 46644,
      "componentType": 5123,
      "normalized": false,
      "count": 11658,
      "type": "SCALAR"
    },
    {
      "bufferView": 2,
      "byteOffset": 69960,
      "componentType": 5123,
      "normalized": false,
      "count": 5826,
      "type": "SCALAR"
    }
  ],
  "asset": {
    "generator": "GDS lod baker 1",
    "copyright": "Copyright 2017 Analytical Graphics, Inc., CC-BY 4.0 https://creativecommons.org/licenses/by/4.0/ - Mesh and textures by Ed Mackey, see: https://emackey.github.io/testing-pbr/normal-tangent-readme.html",
    "version": "2.0"
  },
  "bufferViews": [
    {
      "buffer": 0,
      "byteOffset": 0,
      "byteLength": 95592,
      "byteStride": 12,
      "target": 34962
    },
    {
      "buffer": 0,
      "byteOffset": 95592,
      "byteLength": 31864,
      "byteStride": 8,
      "target": 34962
    },
    {
      "buffer": 0,
      "byteOffset": 127456,
      "byteLength": 81612,
      "target": 34963
    }
  ],
  "buffers": [
    {
      "uri": "NormalTangentTestLOD.bin",
      "byteLength": 209068
    }
  ],
  "extensionsUsed": [
    "NG2_mesh_lod"
  ],
  "images": [
    {
      "uri": "NormalTangentTest_BaseColor.png"
    },
    {
      "uri": "NormalTangentTest_OcclusionRoughnessMetallic.png"
    },
    {
      "uri": "NormalTangentTest_Normal.png"
    }
  ],
  "materials": [
    {
      "pbrMetallicRoughness": {
        "baseColorFactor": [
          1.0,
          1.0,
          1.0,
          1.0
        ],
        "metallicFactor": 1.0,
        "roughnessFactor": 1.0,
        "baseColorTexture": {
          "index": 0,
          "texCoord": 0
        },
        "metallicRoughnessTexture": {
          "index": 1,
          "texCoord": 0
        }
      },
      "normalTexture": {
        "index": 2,
        "scale": 1.0
      },
      "occlusionTexture": {
        "index": 1,
        "strength": 1.0
      },
      "emissiveFactor": [
        0.0,
        0.0,
        0.0
      ],
      "alphaMode": "OPAQUE",
      "doubleSided": true
    }
  ],
  "meshes": [
    {
      "primitives": [
        {
          "extensions": {
            "NG2_mesh_lod": {
              "levels": [
                {
                  "indices": 4,
                  "error": 0.002868
                },
                {
                  "indices": 5,
                  "error": 0.006313
                }
              ]
            }
          },
          "attributes": {
            "POSITION": 2,
            "NORMAL": 1,
            "TEXCOORD_0": 3
          },
          "indices": 0,
          "mode": 4,
          "material": 0
        }
      ],
      "name": "NormalTangentTest_low"
    }
  ],
  "nodes": [
    {
      "children": [
        1
      ]
    },
    {
      "mesh": 0
    }
  ],
  "samplers": [
    {
      "magFilter": 9729,
      "minFilter": 9986,
      "wrapS": 10497,
      "wrapT": 10497
    }
  ],
  "scene": 0,
  "scenes": [
    {
      "nodes": [
        0
      ]
    }
  ],
  "textures": [
    {
      "sampler": 0,
      "source": 0
    },
    {
      "sampler": 0,
      "source": 1
    },
    {
      "sampler": 0,
      "source": 2
    }
  ]
}