{
  "accessors": [
    {
      "bufferView": 14,
      "byteOffset": 0,
      "componentType": 5121,
      "normalized": false,
      "count": 6,
      "type": "SCALAR"
    },
    {
      "bufferView": 0,
      "byteOffset": 0,
      "componentType": 5126,
      "normalized": false,
      "count": 4,
      "type": "VEC3",
      "max": [
        1.2000000476837158,
        1.2000001668930054,
        -5.205485820169997e-08
      ],
      "min": [
        0.19999980926513672,
        0.20000004768371582,
        -1.5933926533762133e-07
      ]
    },
    {
      "bufferView": 1,
      "byteOffset": 0,
      "componentType": 5126,
      "normalized": false,
      "count": 4,
      "type": "VEC3",
      "max": [
        -2.1316282072803006e-14,
        1.0728441424134871e-07,
        1.0
      ],
      "min": [
        -2.1316282072803006e-14,
        1.0728441424134871e-07,
        1.0
      ]
    },
    {
      "bufferView": 2,
      "byteOffset": 0,
      "componentType": 5126,
      "normalized": false,
      "count": 4,
      "type": "VEC2",
      "max": [
        1.0,
        0.3999999761581421
      ],
      "min": [
        0.6000000238418579,
        0.0
      ],
      "name": "TopRight_TEXCOORD_0"
    },
    {
      "bufferView": 15,
      "byteOffset": 0,
      "componentType": 5121,
      "normalized": false,
      "count": 6,
      "type": "SCALAR"
    },
    {
      "bufferView": 3,
      "byteOffset": 0,
      "componentType": 5126,
      "normalized": false,
      "count": 4,
      "type": "VEC3",
      "max": [
        -0.20000006258487701,
        1.2000000476837158,
        1.2601539367551595e-07
      ],
      "min": [
        -1.2000001668930054,
        0.19999974966049194,
        -3.3740951721483725e-07
      ]
    },
    {
      "bufferView": 4,
      "byteOffset": 0,
      "componentType": 5126,
      "normalized": false,
      "count": 4,
      "type": "VEC3",
      "max": [
        1.7807019503379706e-07,
        2.853547016457014e-07,
        1.0
      ],
      "min": [
        1.7807019503379706e-07,
        2.853547016457014e-07,
        1.0
      ]
    },
    {
      "bufferView": 5,
      "byteOffset": 0,
      "componentType": 5126,
      "normalized": false,
      "count": 4,
      "type": "VEC2",
      "max": [
        0.3999999463558197,
        0.3999999761581421
      ],
      "min": [
        7.915305388905836e-08,
        0.0
      ],
      "name": "TopLeft_TEXCOORD_0"
    },
    {
      "bufferView": 16,
      "byteOffset": 0,
      "componentType": 5121,
      "normalized": false,
      "count": 6,
      "type": "SCALAR"
    },
    {
      "bufferView": 6,
      "byteOffset": 0,
      "componentType": 5126,
      "normalized": false,
      "count": 4,
      "type": "VEC3",
      "max": [
        1.2000001668930054,
        -0.1999996304512024,
        5.255118367131217e-07
      ],
      "min": [
        0.2000000923871994,
        -1.2000000476837158,
        6.20869826661874e-08
      ]
    },
    {
      "bufferView": 7,
      "byteOffset": 0,
      "componentType": 5126,
      "normalized": false,
      "count": 4,
      "type": "VEC3",
      "max": [
        -1.7807025187721592e-07,
        2.853545879588637e-07,
        1.0
      ],
      "min": [
        -1.7807025187721592e-07,
        2.853545879588637e-07,
        1.0
      ]
    },
    {
      "bufferView": 8,
      "byteOffset": 0,
      "componentType": 5126,
      "normalized": false,
      "count": 4,
      "type": "VEC2",
      "max": [
        0.9999998807907104,
        1.0
      ],
      "min": [
        0.6000000834465027,
        0.599999874830246
      ],
      "name": "BottomRight_TEXCOORD_0"
    },
    {
      "bufferView": 17,
      "byteOffset": 0,
      "componentType": 5121,
      "normalized": false,
      "count": 6,
      "type": "SCALAR"
    },
    {
      "bufferView": 9,
      "byteOffset": 0,
      "componentType": 5126,
      "normalized": false,
      "count": 4,
      "type": "VEC3",
      "max": [
        1.0000001192092896,
        1.0000001192092896,
        -0.052591003477573395
      ],
      "min": [
        -1.0000001192092896,
        -1.0000001192092896,
        -0.05259115248918533
      ]
    },
    {
      "bufferView": 10,
      "byteOffset": 0,
      "componentType": 5126,
      "normalized": false,
      "count": 4,
      "type": "VEC3",
      "max": [
        1.0658142730467397e-14,
        -7.450581307466564e-08,
        -1.0
      ],
      "min": [
        1.0658142730467397e-14,
        -7.450581307466564e-08,
        -1.0
      ]
    },
    {
      "bufferView": 18,
      "byteOffset": 0,
      "componentType": 5121,
      "normalized": false,
      "count": 6,
      "type": "SCALAR"
    },
    {
      "bufferView": 11,
      "byteOffset": 0,
      "componentType": 5126,
      "normalized": false,
      "count": 4,
      "type": "VEC3",
      "max": [
        -0.19999969005584717,
        -0.2000000774860382,
        5.255118367131217e-07
      ],
      "min": [
        -1.2000000476837158,
        -1.2000001668930054,
        6.208701108789683e-08
      ]
    },
    {
      "bufferView": 12,
      "byteOffset": 0,
      "componentType": 5126,
      "normalized": false,
      "count": 4,
      "type": "VEC3",
      "max": [
        -8.526512829121202e-14,
        4.6342486825778906e-07,
        1.0
      ],
      "min": [
        -8.526512829121202e-14,
        4.6342486825778906e-07,
        1.0
      ]
    },
    {
      "bufferView": 13,
      "byteOffset": 0,
      "componentType": 5126,
      "normalized": false,
      "count": 4,
      "type": "VEC2",
      "max": [
        0.40000009536743164,
        0.9999999208469248
      ],
      "min": [
        0.0,
        0.6000000536441803
      ],
      "name": "BottomLeft_TEXCOORD_0"
    }
  ],
  "asset": {
    "generator": "GDS lod baker 1",
    "copyright": "Copyright 2017-2018 Analytical Graphics, Inc., CC-BY 4.0 https://creativecommons.org/licenses/by/4.0/ - Mesh and textures by Ed Mackey.",
    "version": "2.0"
  },
  "bufferViews": [
    {
      "buffer": 0,
      "byteOffset": 0,
      "byteLength": 48,
      "target": 34962
    },
    {
      "buffer": 0,
      "byteOffset": 48,
      "byteLength": 48,
      "target": 34962
    },
    {
      "buffer": 0,
      "byteOffset": 96,
      "byteLength": 32,
      "target": 34962
    },
    {
      "buffer": 0,
      "byteOffset": 128,
      "byteLength": 48,
      "target": 34962
    },
    {
      "buffer": 0,
      "byteOffset": 176,
      "byteLength": 48,
      "target": 34962
    },
    {
      "buffer": 0,
      "byteOffset": 224,
      "byteLength": 32,
      "target": 34962
    },
    {
      "buffer": 0,
      "byteOffset": 256,
      "byteLength": 48,
      "target": 34962
    },
    {
      "buffer": 0,
      "byteOffset": 304,
      "byteLength": 48,
      "target": 34962
    },
    {
      "buffer": 0,
      "byteOffset": 352,
      "byteLength": 32,
      "target": 34962
    },
    {
      "buffer": 0,
      "byteOffset": 384,
      "byteLength": 48,
      "target": 34962
    },
    {
      "buffer": 0,
      "byteOffset": 432,
      "byteLength": 48,
      "target": 34962
    },
    {
      "buffer": 0,
      "byteOffset": 480,
      "byteLength": 48,
      "target": 34962
    },
    {
      "buffer": 0,
      "byteOffset": 528,
      "byteLength": 48,
      "target": 34962
    },
    {
      "buffer": 0,
      "byteOffset": 576,
      "byteLength": 32,
      "target": 34962
    },
    {
      "buffer": 0,
      "byteOffset": 608,
      "byteLength": 6,
      "target": 34963
    },
    {
      "buffer": 0,
      "byteOffset": 616,
      "byteLength": 6,
      "target": 34963
    },
    {
      "buffer": 0,
      "byteOffset": 624,
      "byteLength": 6,
      "target": 34963
    },
    {
      "buffer": 0,
      "byteOffset": 632,
      "byteLength": 6,
      "target": 34963
    },
    {
      "buffer": 0,
      "byteOffset": 640,
      "byteLength": 6,
      "target": 34963
    }
  ],
  "buffers": [
    {
      "uri": "TextureCoordinateTestLOD.bin",
      "byteLength": 646
    }
  ],
  "images": [
    {
      "uri": "TextureCoordinateTemplate.png"
    }
  ],
  "materials": [
    {
      "pbrMetallicRoughness": {
        "baseColorFactor": [
          0.16000001668930075,
          0.16000001668930075,
          0.16000001668930075,
          1.0
        ],
        "metallicFactor": 0.0,
        "roughnessFactor": 1.0
      },
      "emissiveFactor": [
        0.0,
        0.0,
        0.0
      ],
      "alphaMode": "OPAQUE",
      "doubleSided": true,
      "name": "BackPlaneMat"
    },
    {
      "pbrMetallicRoughness": {
        "baseColorFactor": [
          0.0,
          0.16000000476837162,
          0.800000011920929,
          1.0
        ],
        "metallicFactor": 0.0,
        "roughnessFactor": 1.0,
        "baseColorTexture": {
          "index": 0,
          "texCoord": 0
        }
      },
      "emissiveFactor": [
        0.0,
        0.0,
        0.0
      ],
      "alphaMode": "OPAQUE",
      "doubleSided": true,
      "name": "BottomLeftMat"
    },
    {
      "pbrMetallicRoughness": {
        "baseColorFactor": [
          0.0,
          0.800000011920929,
          0.0,
          1.0
        ],
        "metallicFactor": 0.0,
        "roughnessFactor": 1.0,
        "baseColorTexture": {
          "index": 0,
          "texCoord": 0
        }
      },
      "emissiveFactor": [
        0.0,
        0.0,
        0.0
      ],
      "alphaMode": "OPAQUE",
      "doubleSided": true,
      "name": "BottomRightMat"
    },
    {
      "pbrMetallicRoughness": {
        "baseColorFactor": [
          0.800000011920929,
          0.800000011920929,
          0.0,
          1.0
        ],
        "metallicFactor": 0.0,
        "roughnessFactor": 1.0,
        "baseColorTexture": {
          "index": 0,
          "texCoord": 0
        }
      },
      "emissiveFactor": [
        0.0,
        0.0,
        0.0
      ],
      "alphaMode": "OPAQUE",
      "doubleSided": true,
      "name": "TopLeftMat"
    },
    {
      "pbrMetallicRoughness": {
        "baseColorFactor": [
          0.800000011920929,
          0.08000000238418581,
          0.0,
          1.0
        ],
        "metallicFactor": 0.0,
        "roughnessFactor": 1.0,
        "baseColorTexture": {
          "index": 0,
          "texCoord": 0
        }
      },
      "emissiveFactor": [
        0.0,
        0.0,
        0.0
      ],
      "alphaMode": "OPAQUE",
      "doubleSided": true,
      "name": "TopRightMat"
    }
  ],
  "meshes": [
    {
      "primitives": [
        {
          "attributes": {
            "POSITION": 1,
            "NORMAL": 2,
            "TEXCOORD_0": 3
          },
          "indices": 0,
          "mode": 4,
          "material": 4
        }
      ],
      "name": "TopRightMesh"
    },
    {
      "primitives": [
        {
          "attributes": {
            "POSITION": 5,
            "NORMAL": 6,
            "TEXCOORD_0": 7
          },
          "indices": 4,
          "mode": 4,
          "material": 3
        }
      ],
      "name": "TopLeftMesh"
    },
    {
      "primitives": [
        {
          "attributes": {
            "POSITION": 9,
            "NORMAL": 10,
            "TEXCOORD_0": 11
          },
          "indices": 8,
          "mode": 4,
          "material": 2
        }
      ],
      "name": "BottomRightMesh"
    },
    {
      "primitives": [
        {
          "attributes": {
            "POSITION": 13,
            "NORMAL": 14
          },
          "indices": 12,
          "mode": 4,
          "material": 0
        }
      ],
      "name": "BackPlaneMesh"
    },
    {
      "primitives": [
        {
          "attributes": {
            "POSITION": 16,
            "NORMAL": 17,
            "TEXCOORD_0": 18
          },
          "indices": 15,
          "mode": 4,
          "material": 1
        }
      ],
      "name": "BottomLeftMesh"
    }
  ],
  "nodes": [
    {
      "mesh": 3,
      "name": "BackPlane"
    },
    {
      "mesh": 4,
      "name": "BottomLeftObj"
    },
    {
      "mesh": 2,
      "name": "BottomRightObj"
    },
    {
      "mesh": 1,
      "name": "TopLeftObj"
    },
    {
      "mesh": 0,
      "name": "TopRightObj"
    }
  ],
  "samplers": [
    {
      "wrapS": 10497,
      "wrapT": 10497
    }
  ],
  "scene": 0,
  "scenes": [
    {
      "name": "Scene",
      "nodes": [
        0,
        2,
        1,
        4,
        3
      ]
    }
  ],
  "textures": [
    {
      "sampler": 0,
      "source": 0
    }
  ]
}