{
  "accessors": [
    {
      "bufferView": 0,
      "byteOffset": 0,
      "componentType": 5126,
      "normalized": false,
      "count": 4,
      "type": "VEC3",
      "max": [
        0.5,
        0.5,
        0.0
      ],
      "min": [
        -0.5,
        -0.5,
        0.0
      ]
    },
    {
      "bufferView": 1,
      "byteOffset": 0,
      "componentType": 5126,
      "normalized": false,
      "count": 4,
      "type": "VEC3"
    },
    {
      "bufferView": 2,
      "byteOffset": 0,
      "componentType": 5126,
      "normalized": false,
      "count": 4,
      "type": "VEC2"
    },
    {
      "bufferView": 73,
      "byteOffset": 0,
      "componentType": 5123,
      "normalized": false,
      "count": 6,
      "type": "SCALAR"
    },
    {
      "bufferView": 3,
      "byteOffset": 0,
      "componentType": 5126,
      "normalized": false,
      "count": 24,
      "type": "VEC3",
      "max": [
        0.5,
        0.5,
        0.5
      ],
      "min": [
        -0.5,
        -0.5,
        -0.5
      ]
    },
    {
      "bufferView": 3,
      "byteOffset": 12,
      "componentType": 5120,
      "normalized": true,
      "count": 24,
      "type": "VEC3"
    },
    {
      "bufferView": 3,
      "byteOffset": 16,
      "componentType": 5121,
      "normalized": true,
      "count": 24,
      "type": "VEC4"
    },
    {
      "bufferView": 74,
      "byteOffset": 0,
      "componentType": 5123,
      "normalized": false,
      "count": 36,
      "type": "SCALAR"
    },
    {
      "bufferView": 4,
      "byteOffset": 0,
      "componentType": 5126,
      "normalized": false,
      "count": 24,
      "type": "VEC3",
      "max": [
        0.5,
        0.5,
        0.5
      ],
      "min": [
        -0.5,
        -0.5,
        -0.5
      ]
    },
    {
      "bufferView": 5,
      "byteOffset": 0,
      "componentType": 5120,
      "normalized": true,
      "count": 24,
      "type": "VEC3"
    },
    {
      "bufferView": 6,
      "byteOffset": 0,
      "componentType": 5121,
      "normalized": true,
      "count": 24,
      "type": "VEC4"
    },
    {
      "bufferView": 75,
      "byteOffset": 0,
      "componentType": 5123,
      "normalized": false,
      "count": 36,
      "type": "SCALAR"
    },
    {
      "bufferView": 7,
      "byteOffset": 0,
      "componentType": 5126,
      "normalized": false,
      "count": 24,
      "type": "VEC3",
      "max": [
        0.5,
        0.5,
        0.5
      ],
      "min": [
        -0.5,
        -0.5,
        -0.5
      ]
    },
    {
      "bufferView": 8,
      "byteOffset": 0,
      "componentType": 5122,
      "normalized": true,
      "count": 24,
      "type": "VEC3"
    },
    {
      "bufferView": 9,
      "byteOffset": 0,
      "componentType": 5123,
      "normalized": true,
      "count": 24,
      "type": "VEC4"
    },
    {
      "bufferView": 76,
      "byteOffset": 0,
      "componentType": 5123,
      "normalized": false,
      "count": 36,
      "type": "SCALAR"
    },
    {
      "bufferView": 10,
      "byteOffset": 0,
      "componentType": 5126,
      "normalized": false,
      "count": 24,
      "type": "VEC3",
      "max": [
        0.5,
        0.5,
        0.5
      ],
      "min": [
        -0.5,
        -0.5,
        -0.5
      ]
    },
    {
      "bufferView": 11,
      "byteOffset": 0,
      "componentType": 5120,
      "normalized": true,
      "count": 24,
      "type": "VEC3"
    },
    {
      "bufferView": 12,
      "byteOffset": 0,
      "componentType": 5121,
      "normalized": true,
      "count": 24,
      "type": "VEC4"
    },
    {
      "bufferView": 77,
      "byteOffset": 0,
      "componentType": 5125,
      "normalized": false,
      "count": 36,
      "type": "SCALAR"
    },
    {
      "bufferView": 13,
      "byteOffset": 0,
      "componentType": 5126,
      "normalized": false,
      "count": 24,
      "type": "VEC3",
      "max": [
        0.5,
        0.5,
        0.5
      ],
      "min": [
        -0.5,
        -0.5,
        -0.5
      ]
    },
    {
      "bufferView": 14,
      "byteOffset": 0,
      "componentType": 5126,
      "normalized": false,
      "count": 24,
      "type": "VEC3"
    },
    {
      "bufferView": 78,
      "byteOffset": 0,
      "componentType": 5123,
      "normalized": false,
      "count": 36,
      "type": "SCALAR"
    },
    {
      "bufferView": 15,
      "byteOffset": 0,
      "componentType": 5126,
      "normalized": false,
      "count": 3,
      "type": "SCALAR",
      "max": [
        2.0
      ],
      "min": [
        0.0
      ]
    },
    {
      "bufferView": 16,
      "byteOffset": 0,
      "componentType": 5122,
      "normalized": true,
      "count": 3,
      "type": "VEC4"
    },
    {
      "bufferView": 17,
      "byteOffset": 0,
      "componentType": 5126,
      "normalized": false,
      "count": 24,
      "type": "VEC3",
      "max": [
        0.5,
        0.5,
        0.5
      ],
      "min": [
        -0.5,
        -0.5,
        -0.5
      ]
    },
    {
      "bufferView": 17,
      "byteOffset": 12,
      "componentType": 5120,
      "normalized": true,
      "count": 24,
      "type": "VEC3"
    },
    {
      "bufferView": 17,
      "byteOffset": 16,
      "componentType": 5121,
      "normalized": true,
      "count": 24,
      "type": "VEC4"
    },
    {
      "bufferView": 79,
      "byteOffset": 0,
      "componentType": 5123,
      "normalized": false,
      "count": 36,
      "type": "SCALAR"
    },
    {
      "bufferView": 18,
      "byteOffset": 0,
      "componentType": 5126,
      "normalized": false,
      "count": 24,
      "type": "VEC3",
      "max": [
        0.5,
        0.5,
        0.5
      ],
      "min": [
        -0.5,
        -0.5,
        -0.5
      ]
    },
    {
      "bufferView": 19,
      "byteOffset": 0,
      "componentType": 5120,
      "normalized": true,
      "count": 24,
      "type": "VEC3"
    },
    {
      "bufferView": 20,
      "byteOffset": 0,
      "componentType": 5121,
      "normalized": true,
      "count": 24,
      "type": "VEC4"
    },
    {
      "bufferView": 80,
      "byteOffset": 0,
      "componentType": 5123,
      "normalized": false,
      "count": 36,
      "type": "SCALAR"
    },
    {
      "bufferView": 21,
      "byteOffset": 0,
      "componentType": 5126,
      "normalized": false,
      "count": 24,
      "type": "VEC3",
      "max": [
        0.5,
        0.5,
        0.5
      ],
      "min": [
        -0.5,
        -0.5,
        -0.5
      ]
    },
    {
      "bufferView": 22,
      "byteOffset": 0,
      "componentType": 5122,
      "normalized": true,
      "count": 24,
      "type": "VEC3"
    },
    {
      "bufferView": 23,
      "byteOffset": 0,
      "componentType": 5123,
      "normalized": true,
      "count": 24,
      "type": "VEC4"
    },
    {
      "bufferView": 81,
      "byteOffset": 0,
      "componentType": 5123,
      "normalized": false,
      "count": 36,
      "type": "SCALAR"
    },
    {
      "bufferView": 24,
      "byteOffset": 0,
      "componentType": 5126,
      "normalized": false,
      "count": 24,
      "type": "VEC3",
      "max": [
        0.5,
        0.5,
        0.5
      ],
      "min": [
        -0.5,
        -0.5,
        -0.5
      ]
    },
    {
      "bufferView": 25,
      "byteOffset": 0,
      "componentType": 5120,
      "normalized": true,
      "count": 24,
      "type": "VEC3"
    },
    {
      "bufferView": 26,
      "byteOffset": 0,
      "componentType": 5121,
      "normalized": true,
      "count": 24,
      "type": "VEC4"
    },
    {
      "bufferView": 82,
      "byteOffset": 0,
      "componentType": 5125,
      "normalized": false,
      "count": 36,
      "type": "SCALAR"
    },
    {
      "bufferView": 27,
      "byteOffset": 0,
      "componentType": 5126,
      "normalized": false,
      "count": 24,
      "type": "VEC3",
      "max": [
        0.5,
        0.5,
        0.5
      ],
      "min": [
        -0.5,
        -0.5,
        -0.5
      ]
    },
    {
      "bufferView": 28,
      "byteOffset": 0,
      "componentType": 5126,
      "normalized": false,
      "count": 24,
      "type": "VEC3"
    },
    {
      "bufferView": 83,
      "byteOffset": 0,
      "componentType": 5123,
      "normalized": false,
      "count": 36,
      "type": "SCALAR"
    },
    {
      "bufferView": 29,
      "byteOffset": 0,
      "componentType": 5126,
      "normalized": false,
      "count": 3,
      "type": "SCALAR",
      "max": [
        2.0
      ],
      "min": [
        0.0
      ]
    },
    {
      "bufferView": 30,
      "byteOffset": 0,
      "componentType": 5122,
      "normalized": true,
      "count": 3,
      "type": "VEC4"
    },
    {
      "bufferView": 31,
      "byteOffset": 0,
      "componentType": 5126,
      "normalized": false,
      "count": 24,
      "type": "VEC3",
      "max": [
        0.5,
        0.5,
        0.5
      ],
      "min": [
        -0.5,
        -0.5,
        -0.5
      ]
    },
    {
      "bufferView": 31,
      "byteOffset": 12,
      "componentType": 5120,
      "normalized": true,
      "count": 24,
      "type": "VEC3"
    },
    {
      "bufferView": 31,
      "byteOffset": 16,
      "componentType": 5121,
      "normalized": true,
      "count": 24,
      "type": "VEC4"
    },
    {
      "bufferView": 84,
      "byteOffset": 0,
      "componentType": 5123,
      "normalized": false,
      "count": 36,
      "type": "SCALAR"
    },
    {
      "bufferView": 32,
      "byteOffset": 0,
      "componentType": 5126,
      "normalized": false,
      "count": 24,
      "type": "VEC3",
      "max": [
        0.5,
        0.5,
        0.5
      ],
      "min": [
        -0.5,
        -0.5,
        -0.5
      ]
    },
    {
      "bufferView": 33,
      "byteOffset": 0,
      "componentType": 5120,
      "normalized": true,
      "count": 24,
      "type": "VEC3"
    },
    {
      "bufferView": 34,
      "byteOffset": 0,
      "componentType": 5121,
      "normalized": true,
      "count": 24,
      "type": "VEC4"
    },
    {
      "bufferView": 85,
      "byteOffset": 0,
      "componentType": 5123,
      "normalized": false,
      "count": 36,
      "type": "SCALAR"
    },
    {
      "bufferView": 35,
      "byteOffset": 0,
      "componentType": 5126,
      "normalized": false,
      "count": 24,
      "type": "VEC3",
      "max": [
        0.5,
        0.5,
        0.5
      ],
      "min": [
        -0.5,
        -0.5,
        -0.5
      ]
    },
    {
      "bufferView": 36,
      "byteOffset": 0,
      "componentType": 5122,
      "normalized": true,
      "count": 24,
      "type": "VEC3"
    },
    {
      "bufferView": 37,
      "byteOffset": 0,
      "componentType": 5123,
      "normalized": true,
      "count": 24,
      "type": "VEC4"
    },
    {
      "bufferView": 86,
      "byteOffset": 0,
      "componentType": 5123,
      "normalized": false,
      "count": 36,
      "type": "SCALAR"
    },
    {
      "bufferView": 38,
      "byteOffset": 0,
      "componentType": 5126,
      "normalized": false,
      "count": 24,
      "type": "VEC3",
      "max": [
        0.5,
        0.5,
        0.5
      ],
      "min": [
        -0.5,
        -0.5,
        -0.5
      ]
    },
    {
      "bufferView": 39,
      "byteOffset": 0,
      "componentType": 5120,
      "normalized": true,
      "count": 24,
      "type": "VEC3"
    },
    {
      "bufferView": 40,
      "byteOffset": 0,
      "componentType": 5121,
      "normalized": true,
      "count": 24,
      "type": "VEC4"
    },
    {
      "bufferView": 87,
      "byteOffset": 0,
      "componentType": 5125,
      "normalized": false,
      "count": 36,
      "type": "SCALAR"
    },
    {
      "bufferView": 41,
      "byteOffset": 0,
      "componentType": 5126,
      "normalized": false,
      "count": 24,
      "type": "VEC3",
      "max": [
        0.5,
        0.5,
        0.5
      ],
      "min": [
        -0.5,
        -0.5,
        -0.5
      ]
    },
    {
      "bufferView": 42,
      "byteOffset": 0,
      "componentType": 5126,
      "normalized": false,
      "count": 24,
      "type": "VEC3"
    },
    {
      "bufferView": 88,
      "byteOffset": 0,
      "componentType": 5123,
      "normalized": false,
      "count": 36,
      "type": "SCALAR"
    },
    {
      "bufferView": 43,
      "byteOffset": 0,
      "componentType": 5126,
      "normalized": false,
      "count": 3,
      "type": "SCALAR",
      "max": [
        2.0
      ],
      "min": [
        0.0
      ]
    },
    {
      "bufferView": 44,
      "byteOffset": 0,
      "componentType": 5122,
      "normalized": true,
      "count": 3,
      "type": "VEC4"
    },
    {
      "bufferView": 45,
      "byteOffset": 0,
      "componentType": 5126,
      "normalized": false,
      "count": 24,
      "type": "VEC3",
      "max": [
        0.5,
        0.5,
        0.5
      ],
      "min": [
        -0.5,
        -0.5,
        -0.5
      ]
    },
    {
      "bufferView": 45,
      "byteOffset": 12,
      "componentType": 5120,
      "normalized": true,
      "count": 24,
      "type": "VEC3"
    },
    {
      "bufferView": 45,
      "byteOffset": 16,
      "componentType": 5121,
      "normalized": true,
      "count": 24,
      "type": "VEC4"
    },
    {
      "bufferView": 89,
      "byteOffset": 0,
      "componentType": 5123,
      "normalized": false,
      "count": 36,
      "type": "SCALAR"
    },
    {
      "bufferView": 46,
      "byteOffset": 0,
      "componentType": 5126,
      "normalized": false,
      "count": 24,
      "type": "VEC3",
      "max": [
        0.5,
        0.5,
        0.5
      ],
      "min": [
        -0.5,
        -0.5,
        -0.5
      ]
    },
    {
      "bufferView": 47,
      "byteOffset": 0,
      "componentType": 5120,
      "normalized": true,
      "count": 24,
      "type": "VEC3"
    },
    {
      "bufferView": 48,
      "byteOffset": 0,
      "componentType": 5121,
      "normalized": true,
      "count": 24,
      "type": "VEC4"
    },
    {
      "bufferView": 90,
      "byteOffset": 0,
      "componentType": 5123,
      "normalized": false,
      "count": 36,
      "type": "SCALAR"
    },
    {
      "bufferView": 49,
      "byteOffset": 0,
      "componentType": 5126,
      "normalized": false,
      "count": 24,
      "type": "VEC3",
      "max": [
        0.5,
        0.5,
        0.5
      ],
      "min": [
        -0.5,
        -0.5,
        -0.5
      ]
    },
    {
      "bufferView": 50,
      "byteOffset": 0,
      "componentType": 5122,
      "normalized": true,
      "count": 24,
      "type": "VEC3"
    },
    {
      "bufferView": 51,
      "byteOffset": 0,
      "componentType": 5123,
      "normalized": true,
      "count": 24,
      "type": "VEC4"
    },
    {
      "bufferView": 91,
      "byteOffset": 0,
      "componentType": 5123,
      "normalized": false,
      "count": 36,
      "type": "SCALAR"
    },
    {
      "bufferView": 52,
      "byteOffset": 0,
      "componentType": 5126,
      "normalized": false,
      "count": 24,
      "type": "VEC3",
      "max": [
        0.5,
        0.5,
        0.5
      ],
      "min": [
        -0.5,
        -0.5,
        -0.5
      ]
    },
    {
      "bufferView": 53,
      "byteOffset": 0,
      "componentType": 5120,
      "normalized": true,
      "count": 24,
      "type": "VEC3"
    },
    {
      "bufferView": 54,
      "byteOffset": 0,
      "componentType": 5121,
      "normalized": true,
      "count": 24,
      "type": "VEC4"
    },
    {
      "bufferView": 92,
      "byteOffset": 0,
      "componentType": 5125,
      "normalized": false,
      "count": 36,
      "type": "SCALAR"
    },
    {
      "bufferView": 55,
      "byteOffset": 0,
      "componentType": 5126,
      "normalized": false,
      "count": 24,
      "type": "VEC3",
      "max": [
        0.5,
        0.5,
        0.5
      ],
      "min": [
        -0.5,
        -0.5,
        -0.5
      ]
    },
    {
      "bufferView": 56,
      "byteOffset": 0,
      "componentType": 5126,
      "normalized": false,
      "count": 24,
      "type": "VEC3"
    },
    {
      "bufferView": 93,
      "byteOffset": 0,
      "componentType": 5123,
      "normalized": false,
      "count": 36,
      "type": "SCALAR"
    },
    {
      "bufferView": 57,
      "byteOffset": 0,
      "componentType": 5126,
      "normalized": false,
      "count": 3,
      "type": "SCALAR",
      "max": [
        2.0
      ],
      "min": [
        0.0
      ]
    },
    {
      "bufferView": 58,
      "byteOffset": 0,
      "componentType": 5122,
      "normalized": true,
      "count": 3,
      "type": "VEC4"
    },
    {
      "bufferView": 59,
      "byteOffset": 0,
      "componentType": 5126,
      "normalized": false,
      "count": 24,
      "type": "VEC3",
      "max": [
        0.5,
        0.5,
        0.5
      ],
      "min": [
        -0.5,
        -0.5,
        -0.5
      ]
    },
    {
      "bufferView": 59,
      "byteOffset": 12,
      "componentType": 5120,
      "normalized": true,
      "count": 24,
      "type": "VEC3"
    },
    {
      "bufferView": 59,
      "byteOffset": 16,
      "componentType": 5121,
      "normalized": true,
      "count": 24,
      "type": "VEC4"
    },
    {
      "bufferView": 94,
      "byteOffset": 0,
      "componentType": 5123,
      "normalized": false,
      "count": 36,
      "type": "SCALAR"
    },
    {
      "bufferView": 60,
      "byteOffset": 0,
      "componentType": 5126,
      "normalized": false,
      "count": 24,
      "type": "VEC3",
      "max": [
        0.5,
        0.5,
        0.5
      ],
      "min": [
        -0.5,
        -0.5,
        -0.5
      ]
    },
    {
      "bufferView": 61,
      "byteOffset": 0,
      "componentType": 5120,
      "normalized": true,
      "count": 24,
      "type": "VEC3"
    },
    {
      "bufferView": 62,
      "byteOffset": 0,
      "componentType": 5121,
      "normalized": true,
      "count": 24,
      "type": "VEC4"
    },
    {
      "bufferView": 95,
      "byteOffset": 0,
      "componentType": 5123,
      "normalized": false,
      "count": 36,
      "type": "SCALAR"
    },
    {
      "bufferView": 63,
      "byteOffset": 0,
      "componentType": 5126,
      "normalized": false,
      "count": 24,
      "type": "VEC3",
      "max": [
        0.5,
        0.5,
        0.5
      ],
      "min": [
        -0.5,
        -0.5,
        -0.5
      ]
    },
    {
      "bufferView": 64,
      "byteOffset": 0,
      "componentType": 5122,
      "normalized": true,
      "count": 24,
      "type": "VEC3"
    },
    {
      "bufferView": 65,
      "byteOffset": 0,
      "componentType": 5123,
      "normalized": true,
      "count": 24,
      "type": "VEC4"
    },
    {
      "bufferView": 96,
      "byteOffset": 0,
      "componentType": 5123,
      "normalized": false,
      "count": 36,
      "type": "SCALAR"
    },
    {
      "bufferView": 66,
      "byteOffset": 0,
      "componentType": 5126,
      "normalized": false,
      "count": 24,
      "type": "VEC3",
      "max": [
        0.5,
        0.5,
        0.5
      ],
      "min": [
        -0.5,
        -0.5,
        -0.5
      ]
    },
    {
      "bufferView": 67,
      "byteOffset": 0,
      "componentType": 5120,
      "normalized": true,
      "count": 24,
      "type": "VEC3"
    },
    {
      "bufferView": 68,
      "byteOffset": 0,
      "componentType": 5121,
      "normalized": true,
      "count": 24,
      "type": "VEC4"
    },
    {
      "bufferView": 97,
      "byteOffset": 0,
      "componentType": 5125,
      "normalized": false,
      "count": 36,
      "type": "SCALAR"
    },
    {
      "bufferView": 69,
      "byteOffset": 0,
      "componentType": 5126,
      "normalized": false,
      "count": 24,
      "type": "VEC3",
      "max": [
        0.5,
        0.5,
        0.5
      ],
      "min": [
        -0.5,
        -0.5,
        -0.5
      ]
    },
    {
      "bufferView": 70,
      "byteOffset": 0,
      "componentType": 5126,
      "normalized": false,
      "count": 24,
      "type": "VEC3"
    },
    {
      "bufferView": 98,
      "byteOffset": 0,
      "componentType": 5123,
      "normalized": false,
      "count": 36,
      "type": "SCALAR"
    },
    {
      "bufferView": 71,
      "byteOffset": 0,
      "componentType": 5126,
      "normalized": false,
      "count": 3,
      "type": "SCALAR",
      "max": [
        2.0
      ],
      "min": [
        0.0
      ]
    },
    {
      "bufferView": 72,
      "byteOffset": 0,
      "componentType": 5122,
      "normalized": true,
      "count": 3,
      "type": "VEC4"
    }
  ],
  "animations": [
    {
      "name": "RotateCubes",
      "channels": [
        {
          "sampler": 0,
          "target": {
            "node": 14,
            "path": "rotation"
          }
        },
        {
          "sampler": 1,
          "target": {
            "node": 19,
            "path": "rotation"
          }
        },
        {
          "sampler": 2,
          "target": {
            "node": 24,
            "path": "rotation"
          }
        },
        {
          "sampler": 3,
          "target": {
            "node": 29,
            "path": "rotation"
          }
        },
        {
          "sampler": 4,
          "target": {
            "node": 34,
            "path": "rotation"
          }
        }
      ],
      "samplers": [
        {
          "input": 23,
          "interpolation": "LINEAR",
          "output": 24
        },
        {
          "input": 44,
          "interpolation": "LINEAR",
          "output": 45
        },
        {
          "input": 65,
          "interpolation": "LINEAR",
          "output": 66
        },
        {
          "input": 86,
          "interpolation": "LINEAR",
          "output": 87
        },
        {
          "input": 107,
          "interpolation": "LINEAR",
          "output": 108
        }
      ]
    }
  ],
  "asset": {
    "generator": "GDS lod baker 1",
    "version": "2.0"
  },
  "bufferViews": [
    {
      "buffer": 0,
      "byteOffset": 0,
      "byteLength": 48,
      "target": 34962
    },
    {
      "buffer": 0,
      "byteOffset": 48,
      "byteLength": 48,
      "target": 34962
    },
    {
      "buffer": 0,
      "byteOffset": 96,
      "byteLength": 32,
      "target": 34962
    },
    {
      "buffer": 0,
      "byteOffset": 128,
      "byteLength": 480,
      "byteStride": 20,
      "target": 34962
    },
    {
      "buffer": 0,
      "byteOffset": 608,
      "byteLength": 288,
      "target": 34962
    },
    {
      "buffer": 0,
      "byteOffset": 896,
      "byteLength": 96,
      "byteStride": 4,
      "target": 34962
    },
    {
      "buffer": 0,
      "byteOffset": 992,
      "byteLength": 96,
      "target": 34962
    },
    {
      "buffer": 0,
      "byteOffset": 1088,
      "byteLength": 288,
      "target": 34962
    },
    {
      "buffer": 0,
      "byteOffset": 1376,
      "byteLength": 192,
      "byteStride": 8,
      "target": 34962
    },
    {
      "buffer": 0,
      "byteOffset": 1568,
      "byteLength": 192,
      "target": 34962
    },
    {
      "buffer": 0,
      "byteOffset": 1760,
      "byteLength": 288,
      "target": 34962
    },
    {
      "buffer": 0,
      "byteOffset": 2048,
      "byteLength": 96,
      "byteStride": 4,
      "target": 34962
    },
    {
      "buffer": 0,
      "byteOffset": 2144,
      "byteLength": 96,
      "target": 34962
    },
    {
      "buffer": 0,
      "byteOffset": 2240,
      "byteLength": 288,
      "target": 34962
    },
    {
      "buffer": 0,
      "byteOffset": 2528,
      "byteLength": 288,
      "target": 34962
    },
    {
      "buffer": 0,
      "byteOffset": 2816,
      "byteLength": 12
    },
    {
      "buffer": 0,
      "byteOffset": 2828,
      "byteLength": 24
    },
    {
      "buffer": 0,
      "byteOffset": 2852,
      "byteLength": 480,
      "byteStride": 20,
      "target": 34962
    },
    {
      "buffer": 0,
      "byteOffset": 3332,
      "byteLength": 288,
      "target": 34962
    },
    {
      "buffer": 0,
      "byteOffset": 3620,
      "byteLength": 96,
      "byteStride": 4,
      "target": 34962
    },
    {
      "buffer": 0,
      "byteOffset": 3716,
      "byteLength": 96,
      "target": 34962
    },
    {
      "buffer": 0,
      "byteOffset": 3812,
      "byteLength": 288,
      "target": 34962
    },
    {
      "buffer": 0,
      "byteOffset": 4100,
      "byteLength": 192,
      "byteStride": 8,
      "target": 34962
    },
    {
      "buffer": 0,
      "byteOffset": 4292,
      "byteLength": 192,
      "target": 34962
    },
    {
      "buffer": 0,
      "byteOffset": 4484,
      "byteLength": 288,
      "target": 34962
    },
    {
      "buffer": 0,
      "byteOffset": 4772,
      "byteLength": 96,
      "byteStride": 4,
      "target": 34962
    },
    {
      "buffer": 0,
      "byteOffset": 4868,
      "byteLength": 96,
      "target": 34962
    },
    {
      "buffer": 0,
      "byteOffset": 4964,
      "byteLength": 288,
      "target": 34962
    },
    {
      "buffer": 0,
      "byteOffset": 5252,
      "byteLength": 288,
      "target": 34962
    },
    {
      "buffer": 0,
      "byteOffset": 5540,
      "byteLength": 12
    },
    {
      "buffer": 0,
      "byteOffset": 5552,
      "byteLength": 24
    },
    {
      "buffer": 0,
      "byteOffset": 5576,
      "byteLength": 480,
      "byteStride": 20,
      "target": 34962
    },
    {
      "buffer": 0,
      "byteOffset": 6056,
      "byteLength": 288,
      "target": 34962
    },
    {
      "buffer": 0,
      "byteOffset": 6344,
      "byteLength": 96,
      "byteStride": 4,
      "target": 34962
    },
    {
      "buffer": 0,
      "byteOffset": 6440,
      "byteLength": 96,
      "target": 34962
    },
    {
      "buffer": 0,
      "byteOffset": 6536,
      "byteLength": 288,
      "target": 34962
    },
    {
      "buffer": 0,
      "byteOffset": 6824,
      "byteLength": 192,
      "byteStride": 8,
      "target": 34962
    },
    {
      "buffer": 0,
      "byteOffset": 7016,
      "byteLength": 192,
      "target": 34962
    },
    {
      "buffer": 0,
      "byteOffset": 7208,
      "byteLength": 288,
      "target": 34962
    },
    {
      "buffer": 0,
      "byteOffset": 7496,
      "byteLength": 96,
      "byteStride": 4,
      "target": 34962
    },
    {
      "buffer": 0,
      "byteOffset": 7592,
      "byteLength": 96,
      "target": 34962
    },
    {
      "buffer": 0,
      "byteOffset": 7688,
      "byteLength": 288,
      "target": 34962
    },
    {
      "buffer": 0,
      "byteOffset": 7976,
      "byteLength": 288,
      "target": 34962
    },
    {
      "buffer": 0,
      "byteOffset": 8264,
      "byteLength": 12
    },
    {
      "buffer": 0,
      "byteOffset": 8276,
      "byteLength": 24
    },
    {
      "buffer": 0,
      "byteOffset": 8300,
      "byteLength": 480,
      "byteStride": 20,
      "target": 34962
    },
    {
      "buffer": 0,
      "byteOffset": 8780,
      "byteLength": 288,
      "target": 34962
    },
    {
      "buffer": 0,
      "byteOffset": 9068,
      "byteLength": 96,
      "byteStride": 4,
      "target": 34962
    },
    {
      "buffer": 0,
      "byteOffset": 9164,
      "byteLength": 96,
      "target": 34962
    },
    {
      "buffer": 0,
      "byteOffset": 9260,
      "byteLength": 288,
      "target": 34962
    },
    {
      "buffer": 0,
      "byteOffset": 9548,
      "byteLength": 192,
      "byteStride": 8,
      "target": 34962
    },
    {
      "buffer": 0,
      "byteOffset": 9740,
      "byteLength": 192,
      "target": 34962
    },
    {
      "buffer": 0,
      "byteOffset": 9932,
      "byteLength": 288,
      "target": 34962
    },
    {
      "buffer": 0,
      "byteOffset": 10220,
      "byteLength": 96,
      "byteStride": 4,
      "target": 34962
    },
    {
      "buffer": 0,
      "byteOffset": 10316,
      "byteLength": 96,
      "target": 34962
    },
    {
      "buffer": 0,
      "byteOffset": 10412,
      "byteLength": 288,
      "target": 34962
    },
    {
      "buffer": 0,
      "byteOffset": 10700,
      "byteLength": 288,
      "target": 34962
    },
    {
      "buffer": 0,
      "byteOffset": 10988,
      "byteLength": 12
    },
    {
      "buffer": 0,
      "byteOffset": 11000,
      "byteLength": 24
    },
    {
      "buffer": 0,
      "byteOffset": 11024,
      "byteLength": 480,
      "byteStride": 20,
      "target": 34962
    },
    {
      "buffer": 0,
      "byteOffset": 11504,
      "byteLength": 288,
      "target": 34962
    },
    {
      "buffer": 0,
      "byteOffset": 11792,
      "byteLength": 96,
      "byteStride": 4,
      "target": 34962
    },
    {
      "buffer": 0,
      "byteOffset": 11888,
      "byteLength": 96,
      "target": 34962
    },
    {
      "buffer": 0,
      "byteOffset": 11984,
      "byteLength": 288,
      "target": 34962
    },
    {
      "buffer": 0,
      "byteOffset": 12272,
      "byteLength": 192,
      "byteStride": 8,
      "target": 34962
    },
    {
      "buffer": 0,
      "byteOffset": 12464,
      "byteLength": 192,
      "target": 34962
    },
    {
      "buffer": 0,
      "byteOffset": 12656,
      "byteLength": 288,
      "target": 34962
    },
    {
      "buffer": 0,
      "byteOffset": 12944,
      "byteLength": 96,
      "byteStride": 4,
      "target": 34962
    },
    {
      "buffer": 0,
      "byteOffset": 13040,
      "byteLength": 96,
      "target": 34962
    },
    {
      "buffer": 0,
      "byteOffset": 13136,
      "byteLength": 288,
      "target": 34962
    },
    {
      "buffer": 0,
      "byteOffset": 13424,
      "byteLength": 288,
      "target": 34962
    },
    {
      "buffer": 0,
      "byteOffset": 13712,
      "byteLength": 12
    },
    {
      "buffer": 0,
      "byteOffset": 13724,
      "byteLength": 24
    },
    {
      "buffer": 0,
      "byteOffset": 13748,
      "byteLength": 12,
      "target": 34963
    },
    {
      "buffer": 0,
      "byteOffset": 13760,
      "byteLength": 72,
      "target": 34963
    },
    {
      "buffer": 0,
      "byteOffset": 13832,
      "byteLength": 72,
      "target": 34963
    },
    {
      "buffer": 0,
      "byteOffset": 13904,
      "byteLength": 72,
      "target": 34963
    },
    {
      "buffer": 0,
      "byteOffset": 13976,
      "byteLength": 144,
      "target": 34963
    },
    {
      "buffer": 0,
      "byteOffset": 14120,
      "byteLength": 72,
      "target": 34963
    },
    {
      "buffer": 0,
      "byteOffset": 14192,
      "byteLength": 72,
      "target": 34963
    },
    {
      "buffer": 0,
      "byteOffset": 14264,
      "byteLength": 72,
      "target": 34963
    },
    {
      "buffer": 0,
      "byteOffset": 14336,
      "byteLength": 72,
      "target": 34963
    },
    {
      "buffer": 0,
      "byteOffset": 14408,
      "byteLength": 144,
      "target": 34963
    },
    {
      "buffer": 0,
      "byteOffset": 14552,
      "byteLength": 72,
      "target": 34963
    },
    {
      "buffer": 0,
      "byteOffset": 14624,
      "byteLength": 72,
      "target": 34963
    },
    {
      "buffer": 0,
      "byteOffset": 14696,
      "byteLength": 72,
      "target": 34963
    },
    {
      "buffer": 0,
      "byteOffset": 14768,
      "byteLength": 72,
      "target": 34963
    },
    {
      "buffer": 0,
      "byteOffset": 14840,
      "byteLength": 144,
      "target": 34963
    },
    {
      "buffer": 0,
      "byteOffset": 14984,
      "byteLength": 72,
      "target": 34963
    },
    {
      "buffer": 0,
      "byteOffset": 15056,
      "byteLength": 72,
      "target": 34963
    },
    {
      "buffer": 0,
      "byteOffset": 15128,
      "byteLength": 72,
      "target": 34963
    },
    {
      "buffer": 0,
      "byteOffset": 15200,
      "byteLength": 72,
      "target": 34963
    },
    {
      "buffer": 0,
      "byteOffset": 15272,
      "byteLength": 144,
      "target": 34963
    },
    {
      "buffer": 0,
      "byteOffset": 15416,
      "byteLength": 72,
      "target": 34963
    },
    {
      "buffer": 0,
      "byteOffset": 15488,
      "byteLength": 72,
      "target": 34963
    },
    {
      "buffer": 0,
      "byteOffset": 15560,
      "byteLength": 72,
      "target": 34963
    },
    {
      "buffer": 0,
      "byteOffset": 15632,
      "byteLength": 72,
      "target": 34963
    },
    {
      "buffer": 0,
      "byteOffset": 15704,
      "byteLength": 144,
      "target": 34963
    },
    {
      "buffer": 0,
      "byteOffset": 15848,
      "byteLength": 72,
      "target": 34963
    }
  ],
  "buffers": [
    {
      "uri": "MeshoptCubeTestLOD.bin",
      "byteLength": 15920
    }
  ],
  "extensionsUsed": [
    "KHR_mesh_quantization",
    "KHR_meshopt_compression"
  ],
  "extensionsRequired": [
    "KHR_mesh_quantization"
  ],
  "images": [
    {
      "uri": "row0.png"
    },
    {
      "uri": "row1.png"
    },
    {
      "uri": "row2.png"
    },
    {
      "uri": "row3.png"
    },
    {
      "uri": "row4.png"
    },
    {
      "uri": "col0.png"
    },
    {
      "uri": "col1.png"
    },
    {
      "uri": "col2.png"
    },
    {
      "uri": "col3.png"
    },
    {
      "uri": "col4.png"
    }
  ],
  "materials": [
    {
      "pbrMetallicRoughness": {
        "baseColorFactor": [
          1.0,
          1.0,
          1.0,
          1.0
        ],
        "metallicFactor": 0.0,
        "roughnessFactor": 1.0,
        "baseColorTexture": {
          "index": 0,
          "texCoord": 0
        }
      },
      "emissiveFactor": [
        0.0,
        0.0,
        0.0
      ],
      "alphaMode": "MASK",
      "alphaCutoff": 0.001,
      "doubleSided": true,
      "name": "RowLabel_0_Mat"
    },
    {
      "pbrMetallicRoughness": {
        "baseColorFactor": [
          1.0,
          1.0,
          1.0,
          1.0
        ],
        "metallicFactor": 0.0,
        "roughnessFactor": 1.0,
        "baseColorTexture": {
          "index": 1,
          "texCoord": 0
        }
      },
      "emissiveFactor": [
        0.0,
        0.0,
        0.0
      ],
      "alphaMode": "MASK",
      "alphaCutoff": 0.001,
      "doubleSided": true,
      "name": "RowLabel_1_Mat"
    },
    {
      "pbrMetallicRoughness": {
        "baseColorFactor": [
          1.0,
          1.0,
          1.0,
          1.0
        ],
        "metallicFactor": 0.0,
        "roughnessFactor": 1.0,
        "baseColorTexture": {
          "index": 2,
          "texCoord": 0
        }
      },
      "emissiveFactor": [
        0.0,
        0.0,
        0.0
      ],
      "alphaMode": "MASK",
      "alphaCutoff": 0.001,
      "doubleSided": true,
      "name": "RowLabel_2_Mat"
    },
    {
      "pbrMetallicRoughness": {
        "baseColorFactor": [
          1.0,
          1.0,
          1.0,
          1.0
        ],
        "metallicFactor": 0.0,
        "roughnessFactor": 1.0,
        "baseColorTexture": {
          "index": 3,
          "texCoord": 0
        }
      },
      "emissiveFactor": [
        0.0,
        0.0,
        0.0
      ],
      "alphaMode": "MASK",
      "alphaCutoff": 0.001,
      "doubleSided": true,
      "name": "RowLabel_3_Mat"
    },
    {
      "pbrMetallicRoughness": {
        "baseColorFactor": [
          1.0,
          1.0,
          1.0,
          1.0
        ],
        "metallicFactor": 0.0,
        "roughnessFactor": 1.0,
        "baseColorTexture": {
          "index": 4,
          "texCoord": 0
        }
      },
      "emissiveFactor": [
        0.0,
        0.0,
        0.0
      ],
      "alphaMode": "MASK",
      "alphaCutoff": 0.001,
      "doubleSided": true,
      "name": "RowLabel_4_Mat"
    },
    {
      "pbrMetallicRoughness": {
        "baseColorFactor": [
          1.0,
          1.0,
          1.0,
          1.0
        ],
        "metallicFactor": 0.0,
        "roughnessFactor": 1.0,
        "baseColorTexture": {
          "index": 5,
          "texCoord": 0
        }
      },
      "emissiveFactor": [
        0.0,
        0.0,
        0.0
      ],
      "alphaMode": "MASK",
      "alphaCutoff": 0.001,
      "doubleSided": true,
      "name": "ColLabel_0_Mat"
    },
    {
      "pbrMetallicRoughness": {
        "baseColorFactor": [
          1.0,
          1.0,
          1.0,
          1.0
        ],
        "metallicFactor": 0.0,
        "roughnessFactor": 1.0,
        "baseColorTexture": {
          "index": 6,
          "texCoord": 0
        }
      },
      "emissiveFactor": [
        0.0,
        0.0,
        0.0
      ],
      "alphaMode": "MASK",
      "alphaCutoff": 0.001,
      "doubleSided": true,
      "name": "ColLabel_1_Mat"
    },
    {
      "pbrMetallicRoughness": {
        "baseColorFactor": [
          1.0,
          1.0,
          1.0,
          1.0
        ],
        "metallicFactor": 0.0,
        "roughnessFactor": 1.0,
        "baseColorTexture": {
          "index": 7,
          "texCoord": 0
        }
      },
      "emissiveFactor": [
        0.0,
        0.0,
        0.0
      ],
      "alphaMode": "MASK",
      "alphaCutoff": 0.001,
      "doubleSided": true,
      "name": "ColLabel_2_Mat"
    },
    {
      "pbrMetallicRoughness": {
        "baseColorFactor": [
          1.0,
          1.0,
          1.0,
          1.0
        ],
        "metallicFactor": 0.0,
        "roughnessFactor": 1.0,
        "baseColorTexture": {
          "index": 8,
          "texCoord": 0
        }
      },
      "emissiveFactor": [
        0.0,
        0.0,
        0.0
      ],
      "alphaMode": "MASK",
      "alphaCutoff": 0.001,
      "doubleSided": true,
      "name": "ColLabel_3_Mat"
    },
    {
      "pbrMetallicRoughness": {
        "baseColorFactor": [
          1.0,
          1.0,
          1.0,
          1.0
        ],
        "metallicFactor": 0.0,
        "roughnessFactor": 1.0,
        "baseColorTexture": {
          "index": 9,
          "texCoord": 0
        }
      },
      "emissiveFactor": [
        0.0,
        0.0,
        0.0
      ],
      "alphaMode": "MASK",
      "alphaCutoff": 0.001,
      "doubleSided": true,
      "name": "ColLabel_4_Mat"
    }
  ],
  "meshes": [
    {
      "primitives": [
        {
          "attributes": {
            "POSITION": 0,
            "NORMAL": 1,
            "TEXCOORD_0": 2
          },
          "indices": 3,
          "mode": 4,
          "material": 0
        }
      ],
      "name": "RowLabel_0_Mesh"
    },
    {
      "primitives": [
        {
          "attributes": {
            "POSITION": 0,
            "NORMAL": 1,
            "TEXCOORD_0": 2
          },
          "indices": 3,
          "mode": 4,
          "material": 1
        }
      ],
      "name": "RowLabel_1_Mesh"
    },
    {
      "primitives": [
        {
          "attributes": {
            "POSITION": 0,
            "NORMAL": 1,
            "TEXCOORD_0": 2
          },
          "indices": 3,
          "mode": 4,
          "material": 2
        }
      ],
      "name": "RowLabel_2_Mesh"
    },
    {
      "primitives": [
        {
          "attributes": {
            "POSITION": 0,
            "NORMAL": 1,
            "TEXCOORD_0": 2
          },
          "indices": 3,
          "mode": 4,
          "material": 3
        }
      ],
      "name": "RowLabel_3_Mesh"
    },
    {
      "primitives": [
        {
          "attributes": {
            "POSITION": 0,
            "NORMAL": 1,
            "TEXCOORD_0": 2
          },
          "indices": 3,
          "mode": 4,
          "material": 4
        }
      ],
      "name": "RowLabel_4_Mesh"
    },
    {
      "primitives": [
        {
          "attributes": {
            "POSITION": 0,
            "NORMAL": 1,
            "TEXCOORD_0": 2
          },
          "indices": 3,
          "mode": 4,
          "material": 5
        }
      ],
      "name": "ColLabel_0_Mesh"
    },
    {
      "primitives": [
        {
          "attributes": {
            "POSITION": 0,
            "NORMAL": 1,
            "TEXCOORD_0": 2
          },
          "indices": 3,
          "mode": 4,
          "material": 6
        }
      ],
      "name": "ColLabel_1_Mesh"
    },
    {
      "primitives": [
        {
          "attributes": {
            "POSITION": 0,
            "NORMAL": 1,
            "TEXCOORD_0": 2
          },
          "indices": 3,
          "mode": 4,
          "material": 7
        }
      ],
      "name": "ColLabel_2_Mesh"
    },
    {
      "primitives": [
        {
          "attributes": {
            "POSITION": 0,
            "NORMAL": 1,
            "TEXCOORD_0": 2
          },
          "indices": 3,
          "mode": 4,
          "material": 8
        }
      ],
      "name": "ColLabel_3_Mesh"
    },
    {
      "primitives": [
        {
          "attributes": {
            "POSITION": 0,
            "NORMAL": 1,
            "TEXCOORD_0": 2
          },
          "indices": 3,
          "mode": 4,
          "material": 9
        }
      ],
      "name": "ColLabel_4_Mesh"
    },
    {
      "primitives": [
        {
          "attributes": {
            "POSITION": 4,
            "NORMAL": 5,
            "COLOR_0": 6
          },
          "indices": 7,
          "mode": 4
        }
      ],
      "name": "Cube_0_interleaved_u8norm_u8color_u16index"
    },
    {
      "primitives": [
        {
          "attributes": {
            "POSITION": 8,
            "NORMAL": 9,
            "COLOR_0": 10
          },
          "indices": 11,
          "mode": 4
        }
      ],
      "name": "Cube_1_deinterleaved_u8norm_u8color_u16index"
    },
    {
      "primitives": [
        {
          "attributes": {
            "POSITION": 12,
            "NORMAL": 13,
            "COLOR_0": 14
          },
          "indices": 15,
          "mode": 4
        }
      ],
      "name": "Cube_2_deinterleaved_u16norm_u16color_u16index"
    },
    {
      "primitives": [
        {
          "attributes": {
            "POSITION": 16,
            "NORMAL": 17,
            "COLOR_0": 18
          },
          "indices": 19,
          "mode": 4
        }
      ],
      "name": "Cube_3_deinterleaved_u8norm_u8color_u32index"
    },
    {
      "primitives": [
        {
          "attributes": {
            "POSITION": 20,
            "NORMAL": 21
          },
          "indices": 22,
          "mode": 4
        }
      ],
      "name": "Cube_4_animated_rotation"
    },
    {
      "primitives": [
        {
          "attributes": {
            "POSITION": 25,
            "NORMAL": 26,
            "COLOR_0": 27
          },
          "indices": 28,
          "mode": 4
        }
      ],
      "name": "Cube_5_interleaved_u8norm_u8color_u16index_compressed_indices"
    },
    {
      "primitives": [
        {
          "attributes": {
            "POSITION": 29,
            "NORMAL": 30,
            "COLOR_0": 31
          },
          "indices": 32,
          "mode": 4
        }
      ],
      "name": "Cube_6_deinterleaved_u8norm_u8color_u16index_compressed_indices"
    },
    {
      "primitives": [
        {
          "attributes": {
            "POSITION": 33,
            "NORMAL": 34,
            "COLOR_0": 35
          },
          "indices": 36,
          "mode": 4
        }
      ],
      "name": "Cube_7_deinterleaved_u16norm_u16color_u16index_compressed_indices"
    },
    {
      "primitives": [
        {
          "attributes": {
            "POSITION": 37,
            "NORMAL": 38,
            "COLOR_0": 39
          },
          "indices": 40,
          "mode": 4
        }
      ],
      "name": "Cube_8_deinterleaved_u8norm_u8color_u32index_compressed_indices"
    },
    {
      "primitives": [
        {
          "attributes": {
            "POSITION": 41,
            "NORMAL": 42
          },
          "indices": 43,
          "mode": 4
        }
      ],
      "name": "Cube_9_animated_rotation_compressed_indices"
    },
    {
      "primitives": [
        {
          "attributes": {
            "POSITION": 46,
            "NORMAL": 47,
            "COLOR_0": 48
          },
          "indices": 49,
          "mode": 4
        }
      ],
      "name": "Cube_10_interleaved_u8norm_u8color_u16index_compressed_triangles"
    },
    {
      "primitives": [
        {
          "attributes": {
            "POSITION": 50,
            "NORMAL": 51,
            "COLOR_0": 52
          },
          "indices": 53,
          "mode": 4
        }
      ],
      "name": "Cube_11_deinterleaved_u8norm_u8color_u16index_compressed_triangles"
    },
    {
      "primitives": [
        {
          "attributes": {
            "POSITION": 54,
            "NORMAL": 55,
            "COLOR_0": 56
          },
          "indices": 57,
          "mode": 4
        }
      ],
      "name": "Cube_12_deinterleaved_u16norm_u16color_u16index_compressed_triangles"
    },
    {
      "primitives": [
        {
          "attributes": {
            "POSITION": 58,
            "NORMAL": 59,
            "COLOR_0": 60
          },
          "indices": 61,
          "mode": 4
        }
      ],
      "name": "Cube_13_deinterleaved_u8norm_u8color_u32index_compressed_triangles"
    },
    {
      "primitives": [
        {
          "attributes": {
            "POSITION": 62,
            "NORMAL": 63
          },
          "indices": 64,
          "mode": 4
        }
      ],
      "name": "Cube_14_animated_rotation_compressed_triangles"
    },
    {
      "primitives": [
        {
          "attributes": {
            "POSITION": 67,
            "NORMAL": 68,
            "COLOR_0": 69
          },
          "indices": 70,
          "mode": 4
        }
      ],
      "name": "Cube_15_interleaved_u8norm_u8color_u16index_compressed_filtered"
    },
    {
      "primitives": [
        {
          "attributes": {
            "POSITION": 71,
            "NORMAL": 72,
            "COLOR_0": 73
          },
          "indices": 74,
          "mode": 4
        }
      ],
      "name": "Cube_16_deinterleaved_u8norm_u8color_u16index_compressed_filtered"
    },
    {
      "primitives": [
        {
          "attributes": {
            "POSITION": 75,
            "NORMAL": 76,
            "COLOR_0": 77
          },
          "indices": 78,
          "mode": 4
        }
      ],
      "name": "Cube_17_deinterleaved_u16norm_u16color_u16index_compressed_filtered"
    },
    {
      "primitives": [
        {
          "attributes": {
            "POSITION": 79,
            "NORMAL": 80,
            "COLOR_0": 81
          },
          "indices": 82,
          "mode": 4
        }
      ],
      "name": "Cube_18_deinterleaved_u8norm_u8color_u32index_compressed_filtered"
    },
    {
      "primitives": [
        {
          "attributes": {
            "POSITION": 83,
            "NORMAL": 84
          },
          "indices": 85,
          "mode": 4
        }
      ],
      "name": "Cube_19_animated_rotation_compressed_filtered"
    },
    {
      "primitives": [
        {
          "attributes": {
            "POSITION": 88,
            "NORMAL": 89,
            "COLOR_0": 90
          },
          "indices": 91,
          "mode": 4
        }
      ],
      "name": "Cube_20_interleaved_u8norm_u8color_u16index_compressed_filtered_v1"
    },
    {
      "primitives": [
        {
          "attributes": {
            "POSITION": 92,
            "NORMAL": 93,
            "COLOR_0": 94
          },
          "indices": 95,
          "mode": 4
        }
      ],
      "name": "Cube_21_deinterleaved_u8norm_u8color_u16index_compressed_filtered_v1"
    },
    {
      "primitives": [
        {
          "attributes": {
            "POSITION": 96,
            "NORMAL": 97,
            "COLOR_0": 98
          },
          "indices": 99,
          "mode": 4
        }
      ],
      "name": "Cube_22_deinterleaved_u16norm_u16color_u16index_compressed_filtered_v1"
    },
    {
      "primitives": [
        {
          "attributes": {
            "POSITION": 100,
            "NORMAL": 101,
            "COLOR_0": 102
          },
          "indices": 103,
          "mode": 4
        }
      ],
      "name": "Cube_23_deinterleaved_u8norm_u8color_u32index_compressed_filtered_v1"
    },
    {
      "primitives": [
        {
          "attributes": {
            "POSITION": 104,
            "NORMAL": 105
          },
          "indices": 106,
          "mode": 4
        }
      ],
      "name": "Cube_24_animated_rotation_compressed_filtered_v1"
    }
  ],
  "nodes": [
    {
      "mesh": 0,
      "translation": [
        -4.5,
        16.0,
        0.0
      ],
      "scale": [
        3.2,
        1.6,
        1.0
      ],
      "name": "RowLabel_0"
    },
    {
      "mesh": 1,
      "translation": [
        -4.5,
        12.0,
        0.0
      ],
      "scale": [
        3.2,
        1.6,
        1.0
      ],
      "name": "RowLabel_1"
    },
    {
      "mesh": 2,
      "translation": [
        -4.5,
        8.0,
        0.0
      ],
      "scale": [
        3.2,
        1.6,
        1.0
      ],
      "name": "RowLabel_2"
    },
    {
      "mesh": 3,
      "translation": [
        -4.5,
        4.0,
        0.0
      ],
      "scale": [
        3.2,
        1.6,
        1.0
      ],
      "name": "RowLabel_3"
    },
    {
      "mesh": 4,
      "translation": [
        -4.5,
        0.0,
        0.0
      ],
      "scale": [
        3.2,
        1.6,
        1.0
      ],
      "name": "RowLabel_4"
    },
    {
      "mesh": 5,
      "translation": [
        0.0,
        19.0,
        0.0
      ],
      "scale": [
        3.2,
        1.6,
        1.0
      ],
      "name": "ColLabel_0"
    },
    {
      "mesh": 6,
      "translation": [
        4.0,
        19.0,
        0.0
      ],
      "scale": [
        3.2,
        1.6,
        1.0
      ],
      "name": "ColLabel_1"
    },
    {
      "mesh": 7,
      "translation": [
        8.0,
        19.0,
        0.0
      ],
      "scale": [
        3.2,
        1.6,
        1.0
      ],
      "name": "ColLabel_2"
    },
    {
      "mesh": 8,
      "translation": [
        12.0,
        19.0,
        0.0
      ],
      "scale": [
        3.2,
        1.6,
        1.0
      ],
      "name": "ColLabel_3"
    },
    {
      "mesh": 9,
      "translation": [
        16.0,
        19.0,
        0.0
      ],
      "scale": [
        3.2,
        1.6,
        1.0
      ],
      "name": "ColLabel_4"
    },
    {
      "mesh": 10,
      "translation": [
        0.0,
        16.0,
        0.0
      ],
      "name": "Cube_0_interleaved_u8norm_u8color_u16index"
    },
    {
      "mesh": 11,
      "translation": [
        4.0,
        16.0,
        0.0
      ],
      "name": "Cube_1_deinterleaved_u8norm_u8color_u16index"
    },
    {
      "mesh": 12,
      "translation": [
        8.0,
        16.0,
        0.0
      ],
      "name": "Cube_2_deinterleaved_u16norm_u16color_u16index"
    },
    {
      "mesh": 13,
      "translation": [
        12.0,
        16.0,
        0.0
      ],
      "name": "Cube_3_deinterleaved_u8norm_u8color_u32index"
    },
    {
      "mesh": 14,
      "translation": [
        16.0,
        16.0,
        0.0
      ],
      "name": "Cube_4_animated_rotation"
    },
    {
      "mesh": 15,
      "translation": [
        0.0,
        12.0,
        0.0
      ],
      "name": "Cube_5_interleaved_u8norm_u8color_u16index_compressed_indices"
    },
    {
      "mesh": 16,
      "translation": [
        4.0,
        12.0,
        0.0
      ],
      "name": "Cube_6_deinterleaved_u8norm_u8color_u16index_compressed_indices"
    },
    {
      "mesh": 17,
      "translation": [
        8.0,
        12.0,
        0.0
      ],
      "name": "Cube_7_deinterleaved_u16norm_u16color_u16index_compressed_indices"
    },
    {
      "mesh": 18,
      "translation": [
        12.0,
        12.0,
        0.0
      ],
      "name": "Cube_8_deinterleaved_u8norm_u8color_u32index_compressed_indices"
    },
    {
      "mesh": 19,
      "translation": [
        16.0,
        12.0,
        0.0
      ],
      "name": "Cube_9_animated_rotation_compressed_indices"
    },
    {
      "mesh": 20,
      "translation": [
        0.0,
        8.0,
        0.0
      ],
      "name": "Cube_10_interleaved_u8norm_u8color_u16index_compressed_triangles"
    },
    {
      "mesh": 21,
      "translation": [
        4.0,
        8.0,
        0.0
      ],
      "name": "Cube_11_deinterleaved_u8norm_u8color_u16index_compressed_triangles"
    },
    {
      "mesh": 22,
      "translation": [
        8.0,
        8.0,
        0.0
      ],
      "name": "Cube_12_deinterleaved_u16norm_u16color_u16index_compressed_triangles"
    },
    {
      "mesh": 23,
      "translation": [
        12.0,
        8.0,
        0.0
      ],
      "name": "Cube_13_deinterleaved_u8norm_u8color_u32index_compressed_triangles"
    },
    {
      "mesh": 24,
      "translation": [
        16.0,
        8.0,
        0.0
      ],
      "name": "Cube_14_animated_rotation_compressed_triangles"
    },
    {
      "mesh": 25,
      "translation": [
        0.0,
        4.0,
        0.0
      ],
      "name": "Cube_15_interleaved_u8norm_u8color_u16index_compressed_filtered"
    },
    {
      "mesh": 26,
      "translation": [
        4.0,
        4.0,
        0.0
      ],
      "name": "Cube_16_deinterleaved_u8norm_u8color_u16index_compressed_filtered"
    },
    {
      "mesh": 27,
      "translation": [
        8.0,
        4.0,
        0.0
      ],
      "name": "Cube_17_deinterleaved_u16norm_u16color_u16index_compressed_filtered"
    },
    {
      "mesh": 28,
      "translation": [
        12.0,
        4.0,
        0.0
      ],
      "name": "Cube_18_deinterleaved_u8norm_u8color_u32index_compressed_filtered"
    },
    {
      "mesh": 29,
      "translation": [
        16.0,
        4.0,
        0.0
      ],
      "name": "Cube_19_animated_rotation_compressed_filtered"
    },
    {
      "mesh": 30,
      "translation": [
        0.0,
        0.0,
        0.0
      ],
      "name": "Cube_20_interleaved_u8norm_u8color_u16index_compressed_filtered_v1"
    },
    {
      "mesh": 31,
      "translation": [
        4.0,
        0.0,
        0.0
      ],
      "name": "Cube_21_deinterleaved_u8norm_u8color_u16index_compressed_filtered_v1"
    },
    {
      "mesh": 32,
      "translation": [
        8.0,
        0.0,
        0.0
      ],
      "name": "Cube_22_deinterleaved_u16norm_u16color_u16index_compressed_filtered_v1"
    },
    {
      "mesh": 33,
      "translation": [
        12.0,
        0.0,
        0.0
      ],
      "name": "Cube_23_deinterleaved_u8norm_u8color_u32index_compressed_filtered_v1"
    },
    {
      "mesh": 34,
      "translation": [
        16.0,
        0.0,
        0.0
      ],
      "name": "Cube_24_animated_rotation_compressed_filtered_v1"
    }
  ],
  "samplers": [
    {
      "magFilter": 9729,
      "minFilter": 9729,
      "wrapS": 33071,
      "wrapT": 33071
    },
    {
      "magFilter": 9729,
      "minFilter": 9729,
      "wrapS": 33071,
      "wrapT": 33071
    },
    {
      "magFilter": 9729,
      "minFilter": 9729,
      "wrapS": 33071,
      "wrapT": 33071
    },
    {
      "magFilter": 9729,
      "minFilter": 9729,
      "wrapS": 33071,
      "wrapT": 33071
    },
    {
      "magFilter": 9729,
      "minFilter": 9729,
      "wrapS": 33071,
      "wrapT": 33071
    },
    {
      "magFilter": 9729,
      "minFilter": 9729,
      "wrapS": 33071,
      "wrapT": 33071
    },
    {
      "magFilter": 9729,
      "minFilter": 9729,
      "wrapS": 33071,
      "wrapT": 33071
    },
    {
      "magFilter": 9729,
      "minFilter": 9729,
      "wrapS": 33071,
      "wrapT": 33071
    },
    {
      "magFilter": 9729,
      "minFilter": 9729,
      "wrapS": 33071,
      "wrapT": 33071
    },
    {
      "magFilter": 9729,
      "minFilter": 9729,
      "wrapS": 33071,
      "wrapT": 33071
    }
  ],
  "scene": 0,
  "scenes": [
    {
      "nodes": [
        0,
        1,
        2,
        3,
        4,
        5,
        6,
        7,
        8,
        9,
        10,
        11,
        12,
        13,
        14,
        15,
        16,
        17,
        18,
        19,
        20,
        21,
        22,
        23,
        24,
        25,
        26,
        27,
        28,
        29,
        30,
        31,
        32,
        33,
        34
      ]
    }
  ],
  "textures": [
    {
      "sampler": 0,
      "source": 0
    },
    {
      "sampler": 1,
      "source": 1
    },
    {
      "sampler": 2,
      "source": 2
    },
    {
      "sampler": 3,
      "source": 3
    },
    {
      "sampler": 4,
      "source": 4
    },
    {
      "sampler": 5,
      "source": 5
    },
    {
      "sampler": 6,
      "source": 6
    },
    {
      "sampler": 7,
      "source": 7
    },
    {
      "sampler": 8,
      "source": 8
    },
    {
      "sampler": 9,
      "source": 9
    }
  ]
}