{
  "accessors": [
    {
      "bufferView": 0,
      "byteOffset": 0,
      "componentType": 5126,
      "normalized": false,
      "count": 56,
      "type": "VEC3",
      "max": [
        0.3195691704750061,
        0.37506479024887085,
        1.3717179392358503e-08
      ],
      "min": [
        -0.2473800927400589,
        -0.37187379598617554,
        -0.002000038046389818
      ]
    },
    {
      "bufferView": 1,
      "byteOffset": 0,
      "componentType": 5126,
      "normalized": false,
      "count": 56,
      "type": "VEC3"
    },
    {
      "bufferView": 2,
      "byteOffset": 0,
      "componentType": 5126,
      "normalized": false,
      "count": 56,
      "type": "VEC2"
    },
    {
      "bufferView": 8,
      "byteOffset": 0,
      "componentType": 5123,
      "normalized": false,
      "count": 84,
      "type": "SCALAR"
    },
    {
      "bufferView": 3,
      "byteOffset": 0,
      "componentType": 5126,
      "normalized": false,
      "count": 642,
      "type": "VEC3",
      "max": [
        0.05000000074505806,
        0.05000000074505806,
        0.05000000447034836
      ],
      "min": [
        -0.05000000447034836,
        -0.05000000074505806,
        -0.05000000447034836
      ]
    },
    {
      "bufferView": 4,
      "byteOffset": 0,
      "componentType": 5126,
      "normalized": false,
      "count": 642,
      "type": "VEC3"
    },
    {
      "bufferView": 9,
      "byteOffset": 0,
      "componentType": 5123,
      "normalized": false,
      "count": 3840,
      "type": "SCALAR"
    },
    {
      "bufferView": 5,
      "byteOffset": 0,
      "componentType": 5126,
      "normalized": false,
      "count": 3645,
      "type": "VEC3",
      "max": [
        0.05000000074505806,
        0.05000000074505806,
        0.05000000447034836
      ],
      "min": [
        -0.49000000953674316,
        -0.05000000074505806,
        -0.05000000447034836
      ]
    },
    {
      "bufferView": 6,
      "byteOffset": 0,
      "componentType": 5126,
      "normalized": false,
      "count": 3645,
      "type": "VEC3"
    },
    {
      "bufferView": 7,
      "byteOffset": 0,
      "componentType": 5126,
      "normalized": false,
      "count": 3645,
      "type": "VEC2"
    },
    {
      "bufferView": 10,
      "byteOffset": 0,
      "componentType": 5123,
      "normalized": false,
      "count": 19200,
      "type": "SCALAR"
    },
    {
      "bufferView": 9,
      "byteOffset": 7680,
      "componentType": 5123,
      "normalized": false,
      "count": 1920,
      "type": "SCALAR"
    },
    {
      "bufferView": 9,
      "byteOffset": 11520,
      "componentType": 5123,
      "normalized": false,
      "count": 960,
      "type": "SCALAR"
    },
    {
      "bufferView": 10,
      "byteOffset": 38400,
      "componentType": 5123,
      "normalized": false,
      "count": 9600,
      "type": "SCALAR"
    },
    {
      "bufferView": 10,
      "byteOffset": 57600,
      "componentType": 5123,
      "normalized": false,
      "count": 4800,
      "type": "SCALAR"
    }
  ],
  "asset": {
    "generator": "GDS lod baker 1",
    "copyright": "CC-BY 4.0 Copyright 2021 Analytical Graphics, Inc. Model and Textures by Ed Mackey.",
    "version": "2.0"
  },
  "bufferViews": [
    {
      "buffer": 0,
      "byteOffset": 0,
      "byteLength": 672
    },
    {
      "buffer": 0,
      "byteOffset": 672,
      "byteLength": 672
    },
    {
      "buffer": 0,
      "byteOffset": 1344,
      "byteLength": 448
    },
    {
      "buffer": 0,
      "byteOffset": 1792,
      "byteLength": 7704
    },
    {
      "buffer": 0,
      "byteOffset": 9496,
      "byteLength": 7704
    },
    {
      "buffer": 0,
      "byteOffset": 17200,
      "byteLength": 43740
    },
    {
      "buffer": 0,
      "byteOffset": 60940,
      "byteLength": 43740
    },
    {
      "buffer": 0,
      "byteOffset": 104680,
      "byteLength": 29160
    },
    {
      "buffer": 0,
      "byteOffset": 133840,
      "byteLength": 168,
      "target": 34963
    },
    {
      "buffer": 0,
      "byteOffset": 134008,
      "byteLength": 13440,
      "target": 34963
    },
    {
      "buffer": 0,
      "byteOffset": 147448,
      "byteLength": 67200,
      "target": 34963
    }
  ],
  "buffers": [
    {
      "uri": "SpecularTestLOD.bin",
      "byteLength": 214648
    }
  ],
  "extensionsUsed": [
    "KHR_materials_specular",
    "NG2_mesh_lod"
  ],
  "images": [
    {
      "uri": "LeftLabels.png",
      "mimeType": "image/png",
      "name": "LeftLabels"
    },
    {
      "uri": "specularTextureGrid.png",
      "mimeType": "image/png",
      "name": "specularTextureGrid"
    },
    {
      "uri": "WhiteGrid.png",
      "mimeType": "image/png",
      "name": "WhiteGrid"
    },
    {
      "uri": "YellowGrid.png",
      "mimeType": "image/png",
      "name": "YellowGrid"
    }
  ],
  "materials": [
    {
      "pbrMetallicRoughness": {
        "baseColorFactor": [
          1.0,
          1.0,
          1.0,
          1.0
        ],
        "metallicFactor": 0.0,
        "roughnessFactor": 0.8,
        "baseColorTexture": {
          "index": 0,
          "texCoord": 0
        }
      },
      "emissiveFactor": [
        0.0,
        0.0,
        0.0
      ],
      "alphaMode": "OPAQUE",
      "doubleSided": false,
      "name": "LabelMat"
    },
    {
      "extensions": {
        "KHR_materials_specular": {
          "specularFactor": 0
        }
      },
      "pbrMetallicRoughness": {
        "baseColorFactor": [
          0.0,
          0.0,
          0.0,
          1.0
        ],
        "metallicFactor": 0.0,
        "roughnessFactor": 0.0
      },
      "emissiveFactor": [
        0.0,
        0.0,
        0.0
      ],
      "alphaMode": "OPAQUE",
      "doubleSided": false,
      "name": "M1.1_specFac"
    },
    {
      "extensions": {
        "KHR_materials_specular": {
          "specularFactor": 0.051269
        }
      },
      "pbrMetallicRoughness": {
        "baseColorFactor": [
          0.0,
          0.0,
          0.0,
          1.0
        ],
        "metallicFactor": 0.0,
        "roughnessFactor": 0.0
      },
      "emissiveFactor": [
        0.0,
        0.0,
        0.0
      ],
      "alphaMode": "OPAQUE",
      "doubleSided": false,
      "name": "M1.2_specFac"
    },
    {
      "extensions": {
        "KHR_materials_specular": {
          "specularFactor": 0.212231
        }
      },
      "pbrMetallicRoughness": {
        "baseColorFactor": [
          0.0,
          0.0,
          0.0,
          1.0
        ],
        "metallicFactor": 0.0,
        "roughnessFactor": 0.0
      },
      "emissiveFactor": [
        0.0,
        0.0,
        0.0
      ],
      "alphaMode": "OPAQUE",
      "doubleSided": false,
      "name": "M1.3_specFac"
    },
    {
      "extensions": {
        "KHR_materials_specular": {
          "specularFactor": 0.520996
        }
      },
      "pbrMetallicRoughness": {
        "baseColorFactor": [
          0.0,
          0.0,
          0.0,
          1.0
        ],
        "metallicFactor": 0.0,
        "roughnessFactor": 0.0
      },
      "emissiveFactor": [
        0.0,
        0.0,
        0.0
      ],
      "alphaMode": "OPAQUE",
      "doubleSided": false,
      "name": "M1.4_specFac"
    },
    {
      "extensions": {
        "KHR_materials_specular": {
          "specularFactor": 1
        }
      },
      "pbrMetallicRoughness": {
        "baseColorFactor": [
          0.0,
          0.0,
          0.0,
          1.0
        ],
        "metallicFactor": 0.0,
        "roughnessFactor": 0.0
      },
      "emissiveFactor": [
        0.0,
        0.0,
        0.0
      ],
      "alphaMode": "OPAQUE",
      "doubleSided": false,
      "name": "M1.5_specFac"
    },
    {
      "extensions": {
        "KHR_materials_specular": {
          "specularTexture": {
            "index": 1
          }
        }
      },
      "pbrMetallicRoughness": {
        "baseColorFactor": [
          0.0,
          0.0,
          0.0,
          1.0
        ],
        "metallicFactor": 0.0,
        "roughnessFactor": 0.0
      },
      "emissiveFactor": [
        0.0,
        0.0,
        0.0
      ],
      "alphaMode": "OPAQUE",
      "doubleSided": false,
      "name": "M2_SpecTex"
    },
    {
      "extensions": {
        "KHR_materials_specular": {
          "specularColorFactor": [
            0,
            0,
            0
          ]
        }
      },
      "pbrMetallicRoughness": {
        "baseColorFactor": [
          0.0,
          0.0,
          0.0,
          1.0
        ],
        "metallicFactor": 0.0,
        "roughnessFactor": 0.0
      },
      "emissiveFactor": [
        0.0,
        0.0,
        0.0
      ],
      "alphaMode": "OPAQUE",
      "doubleSided": false,
      "name": "M3.1_whiteFac"
    },
    {
      "extensions": {
        "KHR_materials_specular": {
          "specularColorFactor": [
            0.051269,
            0.051269,
            0.051269
          ]
        }
      },
      "pbrMetallicRoughness": {
        "baseColorFactor": [
          0.0,
          0.0,
          0.0,
          1.0
        ],
        "metallicFactor": 0.0,
        "roughnessFactor": 0.0
      },
      "emissiveFactor": [
        0.0,
        0.0,
        0.0
      ],
      "alphaMode": "OPAQUE",
      "doubleSided": false,
      "name": "M3.2_whiteFac"
    },
    {
      "extensions": {
        "KHR_materials_specular": {
          "specularColorFactor": [
            0.212231,
            0.212231,
            0.212231
          ]
        }
      },
      "pbrMetallicRoughness": {
        "baseColorFactor": [
          0.0,
          0.0,
          0.0,
          1.0
        ],
        "metallicFactor": 0.0,
        "roughnessFactor": 0.0
      },
      "emissiveFactor": [
        0.0,
        0.0,
        0.0
      ],
      "alphaMode": "OPAQUE",
      "doubleSided": false,
      "name": "M3.3_whiteFac"
    },
    {
      "extensions": {
        "KHR_materials_specular": {
          "specularColorFactor": [
            0.520996,
            0.520996,
            0.520996
          ]
        }
      },
      "pbrMetallicRoughness": {
        "baseColorFactor": [
          0.0,
          0.0,
          0.0,
          1.0
        ],
        "metallicFactor": 0.0,
        "roughnessFactor": 0.0
      },
      "emissiveFactor": [
        0.0,
        0.0,
        0.0
      ],
      "alphaMode": "OPAQUE",
      "doubleSided": false,
      "name": "M3.4_whiteFac"
    },
    {
      "extensions": {
        "KHR_materials_specular": {
          "specularColorFactor": [
            1,
            1,
            1
          ]
        }
      },
      "pbrMetallicRoughness": {
        "baseColorFactor": [
          0.0,
          0.0,
          0.0,
          1.0
        ],
        "metallicFactor": 0.0,
        "roughnessFactor": 0.0
      },
      "emissiveFactor": [
        0.0,
        0.0,
        0.0
      ],
      "alphaMode": "OPAQUE",
      "doubleSided": false,
      "name": "M3.5_whiteFac"
    },
    {
      "extensions": {
        "KHR_materials_specular": {
          "specularColorTexture": {
            "index": 2
          }
        }
      },
      "pbrMetallicRoughness": {
        "baseColorFactor": [
          0.0,
          0.0,
          0.0,
          1.0
        ],
        "metallicFactor": 0.0,
        "roughnessFactor": 0.0
      },
      "emissiveFactor": [
        0.0,
        0.0,
        0.0
      ],
      "alphaMode": "OPAQUE",
      "doubleSided": false,
      "name": "M4_whiteTex"
    },
    {
      "extensions": {
        "KHR_materials_specular": {
          "specularColorFactor": [
            0,
            0,
            0
          ]
        }
      },
      "pbrMetallicRoughness": {
        "baseColorFactor": [
          0.0,
          0.0,
          0.0,
          1.0
        ],
        "metallicFactor": 0.0,
        "roughnessFactor": 0.0
      },
      "emissiveFactor": [
        0.0,
        0.0,
        0.0
      ],
      "alphaMode": "OPAQUE",
      "doubleSided": false,
      "name": "M5.1_yellowFac"
    },
    {
      "extensions": {
        "KHR_materials_specular": {
          "specularColorFactor": [
            0.051269,
            0.051269,
            0
          ]
        }
      },
      "pbrMetallicRoughness": {
        "baseColorFactor": [
          0.0,
          0.0,
          0.0,
          1.0
        ],
        "metallicFactor": 0.0,
        "roughnessFactor": 0.0
      },
      "emissiveFactor": [
        0.0,
        0.0,
        0.0
      ],
      "alphaMode": "OPAQUE",
      "doubleSided": false,
      "name": "M5.2_yellowFac"
    },
    {
      "extensions": {
        "KHR_materials_specular": {
          "specularColorFactor": [
            0.212231,
            0.212231,
            0
          ]
        }
      },
      "pbrMetallicRoughness": {
        "baseColorFactor": [
          0.0,
          0.0,
          0.0,
          1.0
        ],
        "metallicFactor": 0.0,
        "roughnessFactor": 0.0
      },
      "emissiveFactor": [
        0.0,
        0.0,
        0.0
      ],
      "alphaMode": "OPAQUE",
      "doubleSided": false,
      "name": "M5.3_yellowFac"
    },
    {
      "extensions": {
        "KHR_materials_specular": {
          "specularColorFactor": [
            0.520996,
            0.520996,
            0
          ]
        }
      },
      "pbrMetallicRoughness": {
        "baseColorFactor": [
          0.0,
          0.0,
          0.0,
          1.0
        ],
        "metallicFactor": 0.0,
        "roughnessFactor": 0.0
      },
      "emissiveFactor": [
        0.0,
        0.0,
        0.0
      ],
      "alphaMode": "OPAQUE",
      "doubleSided": false,
      "name": "M5.4_yellowFac"
    },
    {
      "extensions": {
        "KHR_materials_specular": {
          "specularColorFactor": [
            1,
            1,
            0
          ]
        }
      },
      "pbrMetallicRoughness": {
        "baseColorFactor": [
          0.0,
          0.0,
          0.0,
          1.0
        ],
        "metallicFactor": 0.0,
        "roughnessFactor": 0.0
      },
      "emissiveFactor": [
        0.0,
        0.0,
        0.0
      ],
      "alphaMode": "OPAQUE",
      "doubleSided": false,
      "name": "M5.5_yellowFac"
    },
    {
      "extensions": {
        "KHR_materials_specular": {
          "specularColorTexture": {
            "index": 3
          }
        }
      },
      "pbrMetallicRoughness": {
        "baseColorFactor": [
          0.0,
          0.0,
          0.0,
          1.0
        ],
        "metallicFactor": 0.0,
        "roughnessFactor": 0.0
      },
      "emissiveFactor": [
        0.0,
        0.0,
        0.0
      ],
      "alphaMode": "OPAQUE",
      "doubleSided": false,
      "name": "M6_yellowTex"
    },
    {
      "extensions": {
        "KHR_materials_specular": {
          "specularColorFactor": [
            0,
            0,
            0
          ]
        }
      },
      "pbrMetallicRoughness": {
        "baseColorFactor": [
          0.0,
          0.0,
          0.0,
          1.0
        ],
        "metallicFactor": 0.0,
        "roughnessFactor": 0.0
      },
      "emissiveFactor": [
        0.0,
        0.0,
        0.0
      ],
      "alphaMode": "OPAQUE",
      "doubleSided": false,
      "name": "M7.1_HDR"
    },
    {
      "extensions": {
        "KHR_materials_specular": {
          "specularColorFactor": [
            1.184,
            1.184,
            1.184
          ]
        }
      },
      "pbrMetallicRoughness": {
        "baseColorFactor": [
          0.0,
          0.0,
          0.0,
          1.0
        ],
        "metallicFactor": 0.0,
        "roughnessFactor": 0.0
      },
      "emissiveFactor": [
        0.0,
        0.0,
        0.0
      ],
      "alphaMode": "OPAQUE",
      "doubleSided": false,
      "name": "M7.2_HDR"
    },
    {
      "extensions": {
        "KHR_materials_specular": {
          "specularColorFactor": [
            5.441,
            5.441,
            5.441
          ]
        }
      },
      "pbrMetallicRoughness": {
        "baseColorFactor": [
          0.0,
          0.0,
          0.0,
          1.0
        ],
        "metallicFactor": 0.0,
        "roughnessFactor": 0.0
      },
      "emissiveFactor": [
        0.0,
        0.0,
        0.0
      ],
      "alphaMode": "OPAQUE",
      "doubleSided": false,
      "name": "M7.3_HDR"
    },
    {
      "extensions": {
        "KHR_materials_specular": {
          "specularColorFactor": [
            13.276,
            13.276,
            13.276
          ]
        }
      },
      "pbrMetallicRoughness": {
        "baseColorFactor": [
          0.0,
          0.0,
          0.0,
          1.0
        ],
        "metallicFactor": 0.0,
        "roughnessFactor": 0.0
      },
      "emissiveFactor": [
        0.0,
        0.0,
        0.0
      ],
      "alphaMode": "OPAQUE",
      "doubleSided": false,
      "name": "M7.4_HDR"
    },
    {
      "extensions": {
        "KHR_materials_specular": {
          "specularColorFactor": [
            25,
            25,
            25
          ]
        }
      },
      "pbrMetallicRoughness": {
        "baseColorFactor": [
          0.0,
          0.0,
          0.0,
          1.0
        ],
        "metallicFactor": 0.0,
        "roughnessFactor": 0.0
      },
      "emissiveFactor": [
        0.0,
        0.0,
        0.0
      ],
      "alphaMode": "OPAQUE",
      "doubleSided": false,
      "name": "M7.5_HDR"
    }
  ],
  "meshes": [
    {
      "primitives": [
        {
          "attributes": {
            "POSITION": 0,
            "NORMAL": 1,
            "TEXCOORD_0": 2
          },
          "indices": 3,
          "mode": 4,
          "material": 0
        }
      ],
      "name": "Labels"
    },
    {
      "primitives": [
        {
          "extensions": {
            "NG2_mesh_lod": {
              "levels": [
                {
                  "indices": 11,
                  "error": 0.000803
                },
                {
                  "indices": 12,
                  "error": 0.001324
                }
              ]
            }
          },
          "attributes": {
            "POSITION": 4,
            "NORMAL": 5
          },
          "indices": 6,
          "mode": 4,
          "material": 1
        }
      ],
      "name": "OneSample"
    },
    {
      "primitives": [
        {
          "extensions": {
            "NG2_mesh_lod": {
              "levels": [
                {
                  "indices": 11,
                  "error": 0.000803
                },
                {
                  "indices": 12,
                  "error": 0.001324
                }
              ]
            }
          },
          "attributes": {
            "POSITION": 4,
            "NORMAL": 5
          },
          "indices": 6,
          "mode": 4,
          "material": 2
        }
      ],
      "name": "OneSample"
    },
    {
      "primitives": [
        {
          "extensions": {
            "NG2_mesh_lod": {
              "levels": [
                {
                  "indices": 11,
                  "error": 0.000803
                },
                {
                  "indices": 12,
                  "error": 0.001324
                }
              ]
            }
          },
          "attributes": {
            "POSITION": 4,
            "NORMAL": 5
          },
          "indices": 6,
          "mode": 4,
          "material": 3
        }
      ],
      "name": "OneSample"
    },
    {
      "primitives": [
        {
          "extensions": {
            "NG2_mesh_lod": {
              "levels": [
                {
                  "indices": 11,
                  "error": 0.000803
                },
                {
                  "indices": 12,
                  "error": 0.001324
                }
              ]
            }
          },
          "attributes": {
            "POSITION": 4,
            "NORMAL": 5
          },
          "indices": 6,
          "mode": 4,
          "material": 4
        }
      ],
      "name": "OneSample"
    },
    {
      "primitives": [
        {
          "extensions": {
            "NG2_mesh_lod": {
              "levels": [
                {
                  "indices": 11,
                  "error": 0.000803
                },
                {
                  "indices": 12,
                  "error": 0.001324
                }
              ]
            }
          },
          "attributes": {
            "POSITION": 4,
            "NORMAL": 5
          },
          "indices": 6,
          "mode": 4,
          "material": 5
        }
      ],
      "name": "OneSample"
    },
    {
      "primitives": [
        {
          "extensions": {
            "NG2_mesh_lod": {
              "levels": [
                {
                  "indices": 13,
                  "error": 0.000791
                },
                {
                  "indices": 14,
                  "error": 0.001404
                }
              ]
            }
          },
          "attributes": {
            "POSITION": 7,
            "NORMAL": 8,
            "TEXCOORD_0": 9
          },
          "indices": 10,
          "mode": 4,
          "material": 6
        }
      ],
      "name": "FiveSamples"
    },
    {
      "primitives": [
        {
          "extensions": {
            "NG2_mesh_lod": {
              "levels": [
                {
                  "indices": 11,
                  "error": 0.000803
                },
                {
                  "indices": 12,
                  "error": 0.001324
                }
              ]
            }
          },
          "attributes": {
            "POSITION": 4,
            "NORMAL": 5
          },
          "indices": 6,
          "mode": 4,
          "material": 7
        }
      ],
      "name": "OneSample"
    },
    {
      "primitives": [
        {
          "extensions": {
            "NG2_mesh_lod": {
              "levels": [
                {
                  "indices": 11,
                  "error": 0.000803
                },
                {
                  "indices": 12,
                  "error": 0.001324
                }
              ]
            }
          },
          "attributes": {
            "POSITION": 4,
            "NORMAL": 5
          },
          "indices": 6,
          "mode": 4,
          "material": 8
        }
      ],
      "name": "OneSample"
    },
    {
      "primitives": [
        {
          "extensions": {
            "NG2_mesh_lod": {
              "levels": [
                {
                  "indices": 11,
                  "error": 0.000803
                },
                {
                  "indices": 12,
                  "error": 0.001324
                }
              ]
            }
          },
          "attributes": {
            "POSITION": 4,
            "NORMAL": 5
          },
          "indices": 6,
          "mode": 4,
          "material": 9
        }
      ],
      "name": "OneSample"
    },
    {
      "primitives": [
        {
          "extensions": {
            "NG2_mesh_lod": {
              "levels": [
                {
                  "indices": 11,
                  "error": 0.000803
                },
                {
                  "indices": 12,
                  "error": 0.001324
                }
              ]
            }
          },
          "attributes": {
            "POSITION": 4,
            "NORMAL": 5
          },
          "indices": 6,
          "mode": 4,
          "material": 10
        }
      ],
      "name": "OneSample"
    },
    {
      "primitives": [
        {
          "extensions": {
            "NG2_mesh_lod": {
              "levels": [
                {
                  "indices": 11,
                  "error": 0.000803
                },
                {
                  "indices": 12,
                  "error": 0.001324
                }
              ]
            }
          },
          "attributes": {
            "POSITION": 4,
            "NORMAL": 5
          },
          "indices": 6,
          "mode": 4,
          "material": 11
        }
      ],
      "name": "OneSample"
    },
    {
      "primitives": [
        {
          "extensions": {
            "NG2_mesh_lod": {
              "levels": [
                {
                  "indices": 13,
                  "error": 0.000791
                },
                {
                  "indices": 14,
                  "error": 0.001404
                }
              ]
            }
          },
          "attributes": {
            "POSITION": 7,
            "NORMAL": 8,
            "TEXCOORD_0": 9
          },
          "indices": 10,
          "mode": 4,
          "material": 12
        }
      ],
      "name": "FiveSamples"
    },
    {
      "primitives": [
        {
          "extensions": {
            "NG2_mesh_lod": {
              "levels": [
                {
                  "indices": 11,
                  "error": 0.000803
                },
                {
                  "indices": 12,
                  "error": 0.001324
                }
              ]
            }
          },
          "attributes": {
            "POSITION": 4,
            "NORMAL": 5
          },
          "indices": 6,
          "mode": 4,
          "material": 13
        }
      ],
      "name": "OneSample"
    },
    {
      "primitives": [
        {
          "extensions": {
            "NG2_mesh_lod": {
              "levels": [
                {
                  "indices": 11,
                  "error": 0.000803
                },
                {
                  "indices": 12,
                  "error": 0.001324
                }
              ]
            }
          },
          "attributes": {
            "POSITION": 4,
            "NORMAL": 5
          },
          "indices": 6,
          "mode": 4,
          "material": 14
        }
      ],
      "name": "OneSample"
    },
    {
      "primitives": [
        {
          "extensions": {
            "NG2_mesh_lod": {
              "levels": [
                {
                  "indices": 11,
                  "error": 0.000803
                },
                {
                  "indices": 12,
                  "error": 0.001324
                }
              ]
            }
          },
          "attributes": {
            "POSITION": 4,
            "NORMAL": 5
          },
          "indices": 6,
          "mode": 4,
          "material": 15
        }
      ],
      "name": "OneSample"
    },
    {
      "primitives": [
        {
          "extensions": {
            "NG2_mesh_lod": {
              "levels": [
                {
                  "indices": 11,
                  "error": 0.000803
                },
                {
                  "indices": 12,
                  "error": 0.001324
                }
              ]
            }
          },
          "attributes": {
            "POSITION": 4,
            "NORMAL": 5
          },
          "indices": 6,
          "mode": 4,
          "material": 16
        }
      ],
      "name": "OneSample"
    },
    {
      "primitives": [
        {
          "extensions": {
            "NG2_mesh_lod": {
              "levels": [
                {
                  "indices": 11,
                  "error": 0.000803
                },
                {
                  "indices": 12,
                  "error": 0.001324
                }
              ]
            }
          },
          "attributes": {
            "POSITION": 4,
            "NORMAL": 5
          },
          "indices": 6,
          "mode": 4,
          "material": 17
        }
      ],
      "name": "OneSample"
    },
    {
      "primitives": [
        {
          "extensions": {
            "NG2_mesh_lod": {
              "levels": [
                {
                  "indices": 13,
                  "error": 0.000791
                },
                {
                  "indices": 14,
                  "error": 0.001404
                }
              ]
            }
          },
          "attributes": {
            "POSITION": 7,
            "NORMAL": 8,
            "TEXCOORD_0": 9
          },
          "indices": 10,
          "mode": 4,
          "material": 18
        }
      ],
      "name": "FiveSamples"
    },
    {
      "primitives": [
        {
          "extensions": {
            "NG2_mesh_lod": {
              "levels": [
                {
                  "indices": 11,
                  "error": 0.000803
                },
                {
                  "indices": 12,
                  "error": 0.001324
                }
              ]
            }
          },
          "attributes": {
            "POSITION": 4,
            "NORMAL": 5
          },
          "indices": 6,
          "mode": 4,
          "material": 19
        }
      ],
      "name": "OneSample"
    },
    {
      "primitives": [
        {
          "extensions": {
            "NG2_mesh_lod": {
              "levels": [
                {
                  "indices": 11,
                  "error": 0.000803
                },
                {
                  "indices": 12,
                  "error": 0.001324
                }
              ]
            }
          },
          "attributes": {
            "POSITION": 4,
            "NORMAL": 5
          },
          "indices": 6,
          "mode": 4,
          "material": 20
        }
      ],
      "name": "OneSample"
    },
    {
      "primitives": [
        {
          "extensions": {
            "NG2_mesh_lod": {
              "levels": [
                {
                  "indices": 11,
                  "error": 0.000803
                },
                {
                  "indices": 12,
                  "error": 0.001324
                }
              ]
            }
          },
          "attributes": {
            "POSITION": 4,
            "NORMAL": 5
          },
          "indices": 6,
          "mode": 4,
          "material": 21
        }
      ],
      "name": "OneSample"
    },
    {
      "primitives": [
        {
          "extensions": {
            "NG2_mesh_lod": {
              "levels": [
                {
                  "indices": 11,
                  "error": 0.000803
                },
                {
                  "indices": 12,
                  "error": 0.001324
                }
              ]
            }
          },
          "attributes": {
            "POSITION": 4,
            "NORMAL": 5
          },
          "indices": 6,
          "mode": 4,
          "material": 22
        }
      ],
      "name": "OneSample"
    },
    {
      "primitives": [
        {
          "extensions": {
            "NG2_mesh_lod": {
              "levels": [
                {
                  "indices": 11,
                  "error": 0.000803
                },
                {
                  "indices": 12,
                  "error": 0.001324
                }
              ]
            }
          },
          "attributes": {
            "POSITION": 4,
            "NORMAL": 5
          },
          "indices": 6,
          "mode": 4,
          "material": 23
        }
      ],
      "name": "OneSample"
    }
  ],
  "nodes": [
    {
      "mesh": 0,
      "translation": [
        -0.5034662485122681,
        0.0,
        0.0
      ],
      "name": "Labels"
    },
    {
      "mesh": 1,
      "translation": [
        -0.4399999976158142,
        0.33000001311302185,
        0.0
      ],
      "name": "1.1_specularFactor"
    },
    {
      "mesh": 2,
      "translation": [
        -0.32999998331069946,
        0.33000001311302185,
        0.0
      ],
      "name": "1.2_specularFactor"
    },
    {
      "mesh": 3,
      "translation": [
        -0.2199999988079071,
        0.33000001311302185,
        0.0
      ],
      "name": "1.3_specularFactor"
    },
    {
      "mesh": 4,
      "translation": [
        -0.10999999940395355,
        0.33000001311302185,
        0.0
      ],
      "name": "1.4_specularFactor"
    },
    {
      "mesh": 5,
      "translation": [
        0.0,
        0.33000001311302185,
        0.0
      ],
      "name": "1.5_specularFactor"
    },
    {
      "mesh": 6,
      "translation": [
        0.0,
        0.2199999988079071,
        0.0
      ],
      "name": "2_specularTexture"
    },
    {
      "mesh": 7,
      "translation": [
        -0.4399999976158142,
        0.10999999940395355,
        0.0
      ],
      "name": "3.1_whiteColorFactor"
    },
    {
      "mesh": 8,
      "translation": [
        -0.32999998331069946,
        0.10999999940395355,
        0.0
      ],
      "name": "3.2_whiteColorFactor"
    },
    {
      "mesh": 9,
      "translation": [
        -0.2199999988079071,
        0.10999999940395355,
        0.0
      ],
      "name": "3.3_whiteColorFactor"
    },
    {
      "mesh": 10,
      "translation": [
        -0.10999999940395355,
        0.10999999940395355,
        0.0
      ],
      "name": "3.4_whiteColorFactor"
    },
    {
      "mesh": 11,
      "translation": [
        0.0,
        0.10999999940395355,
        0.0
      ],
      "name": "3.5_whiteColorFactor"
    },
    {
      "mesh": 12,
      "name": "4_whiteColorTexture"
    },
    {
      "mesh": 13,
      "translation": [
        -0.4399999976158142,
        -0.10999999940395355,
        0.0
      ],
      "name": "5.1_yellowColorFactor"
    },
    {
      "mesh": 14,
      "translation": [
        -0.32999998331069946,
        -0.10999999940395355,
        0.0
      ],
      "name": "5.2_yellowColorFactor"
    },
    {
      "mesh": 15,
      "translation": [
        -0.2199999988079071,
        -0.10999999940395355,
        0.0
      ],
      "name": "5.3_yellowColorFactor"
    },
    {
      "mesh": 16,
      "translation": [
        -0.10999999940395355,
        -0.10999999940395355,
        0.0
      ],
      "name": "5.4_yellowColorFactor"
    },
    {
      "mesh": 17,
      "translation": [
        0.0,
        -0.10999999940395355,
        0.0
      ],
      "name": "5.5_yellowColorFactor"
    },
    {
      "mesh": 18,
      "translation": [
        0.0,
        -0.2199999988079071,
        0.0
      ],
      "name": "6_yellowColorTexture"
    },
    {
      "mesh": 19,
      "translation": [
        -0.4399999976158142,
        -0.33000001311302185,
        0.0
      ],
      "name": "7.1_HDR_colorFactor"
    },
    {
      "mesh": 20,
      "translation": [
        -0.32999998331069946,
        -0.33000001311302185,
        0.0
      ],
      "name": "7.2_HDR_colorFactor"
    },
    {
      "mesh": 21,
      "translation": [
        -0.2199999988079071,
        -0.33000001311302185,
        0.0
      ],
      "name": "7.3_HDR_colorFactor"
    },
    {
      "mesh": 22,
      "translation": [
        -0.10999999940395355,
        -0.33000001311302185,
        0.0
      ],
      "name": "7.4_HDR_colorFactor"
    },
    {
      "mesh": 23,
      "translation": [
        0.0,
        -0.33000001311302185,
        0.0
      ],
      "name": "7.5_HDR_colorFactor"
    },
    {
      "translation": [
        0.32499998807907104,
        0.0,
        0.0
      ],
      "children": [
        1,
        2,
        3,
        4,
        5,
        6,
        7,
        8,
        9,
        10,
        11,
        12,
        13,
        14,
        15,
        16,
        17,
        18,
        19,
        20,
        21,
        22,
        23
      ],
      "name": "SampleRoot"
    }
  ],
  "samplers": [
    {
      "magFilter": 9729,
      "minFilter": 9987,
      "wrapS": 10497,
      "wrapT": 10497
    }
  ],
  "scene": 0,
  "scenes": [
    {
      "name": "Scene",
      "nodes": [
        0,
        24
      ]
    }
  ],
  "textures": [
    {
      "sampler": 0,
      "source": 0
    },
    {
      "sampler": 0,
      "source": 1
    },
    {
      "sampler": 0,
      "source": 2
    },
    {
      "sampler": 0,
      "source": 3
    }
  ]
}