{
  "accessors": [
    {
      "bufferView": 2,
      "byteOffset": 0,
      "componentType": 5123,
      "normalized": false,
      "count": 12,
      "type": "SCALAR"
    },
    {
      "bufferView": 0,
      "byteOffset": 2832,
      "componentType": 5126,
      "normalized": false,
      "count": 8,
      "type": "VEC3",
      "max": [
        0.0,
        -1.0,
        0.0
      ],
      "min": [
        0.0,
        -1.0,
        0.0
      ]
    },
    {
      "bufferView": 0,
      "byteOffset": 2928,
      "componentType": 5126,
      "normalized": false,
      "count": 8,
      "type": "VEC3",
      "max": [
        3.0507709980010986,
        -3.304859887975909e-07,
        -4.26484489440918
      ],
      "min": [
        0.004848240874707699,
        -3.304859887975909e-07,
        -5.164844989776611
      ]
    },
    {
      "bufferView": 1,
      "byteOffset": 1024,
      "componentType": 5126,
      "normalized": false,
      "count": 8,
      "type": "VEC2",
      "max": [
        0.7994980216026306,
        0.793022096157074
      ],
      "min": [
        0.5419195890426636,
        -0.7909209728240967
      ]
    },
    {
      "bufferView": 3,
      "byteOffset": 0,
      "componentType": 5123,
      "normalized": false,
      "count": 12,
      "type": "SCALAR"
    },
    {
      "bufferView": 0,
      "byteOffset": 2640,
      "componentType": 5126,
      "normalized": false,
      "count": 8,
      "type": "VEC3",
      "max": [
        0.0,
        -1.0,
        0.0
      ],
      "min": [
        0.0,
        -1.0,
        0.0
      ]
    },
    {
      "bufferView": 0,
      "byteOffset": 2736,
      "componentType": 5126,
      "normalized": false,
      "count": 8,
      "type": "VEC3",
      "max": [
        3.0507709980010986,
        -3.304859887975909e-07,
        -3.2278449535369877
      ],
      "min": [
        0.004848240874707699,
        -3.304859887975909e-07,
        -4.12784481048584
      ]
    },
    {
      "bufferView": 1,
      "byteOffset": 960,
      "componentType": 5126,
      "normalized": false,
      "count": 8,
      "type": "VEC2",
      "max": [
        1.7815489768981934,
        0.819451093673706
      ],
      "min": [
        0.21217460930347443,
        0.5533087849617004
      ]
    },
    {
      "bufferView": 4,
      "byteOffset": 0,
      "componentType": 5123,
      "normalized": false,
      "count": 12,
      "type": "SCALAR"
    },
    {
      "bufferView": 0,
      "byteOffset": 2448,
      "componentType": 5126,
      "normalized": false,
      "count": 8,
      "type": "VEC3",
      "max": [
        0.0,
        -1.0,
        0.0
      ],
      "min": [
        0.0,
        -1.0,
        0.0
      ]
    },
    {
      "bufferView": 0,
      "byteOffset": 2544,
      "componentType": 5126,
      "normalized": false,
      "count": 8,
      "type": "VEC3",
      "max": [
        3.0507709980010986,
        -3.304859887975909e-07,
        -2.190845012664795
      ],
      "min": [
        0.004848240874707699,
        -3.304859887975909e-07,
        -3.090845108032227
      ]
    },
    {
      "bufferView": 1,
      "byteOffset": 896,
      "componentType": 5126,
      "normalized": false,
      "count": 8,
      "type": "VEC2",
      "max": [
        0.7963976263999939,
        0.793022096157074
      ],
      "min": [
        0.5419195890426636,
        -0.4594249725341797
      ]
    },
    {
      "bufferView": 5,
      "byteOffset": 0,
      "componentType": 5123,
      "normalized": false,
      "count": 12,
      "type": "SCALAR"
    },
    {
      "bufferView": 0,
      "byteOffset": 2256,
      "componentType": 5126,
      "normalized": false,
      "count": 8,
      "type": "VEC3",
      "max": [
        0.0,
        -1.0,
        0.0
      ],
      "min": [
        0.0,
        -1.0,
        0.0
      ]
    },
    {
      "bufferView": 0,
      "byteOffset": 2352,
      "componentType": 5126,
      "normalized": false,
      "count": 8,
      "type": "VEC3",
      "max": [
        3.0507709980010986,
        -3.304859887975909e-07,
        -0.11963170021772385
      ],
      "min": [
        0.004848240874707699,
        -3.304859887975909e-07,
        -1.0196319818496704
      ]
    },
    {
      "bufferView": 1,
      "byteOffset": 832,
      "componentType": 5126,
      "normalized": false,
      "count": 8,
      "type": "VEC2",
      "max": [
        0.44050800800323486,
        0.019783616065979004
      ],
      "min": [
        0.223554402589798,
        -0.6115659475326538
      ]
    },
    {
      "bufferView": 6,
      "byteOffset": 0,
      "componentType": 5123,
      "normalized": false,
      "count": 12,
      "type": "SCALAR"
    },
    {
      "bufferView": 0,
      "byteOffset": 2064,
      "componentType": 5126,
      "normalized": false,
      "count": 8,
      "type": "VEC3",
      "max": [
        0.0,
        1.0,
        0.0
      ],
      "min": [
        0.0,
        -1.0,
        0.0
      ]
    },
    {
      "bufferView": 0,
      "byteOffset": 2160,
      "componentType": 5126,
      "normalized": false,
      "count": 8,
      "type": "VEC3",
      "max": [
        5.1616740226745605,
        0.1500004082918167,
        4.453536987304688
      ],
      "min": [
        -5.1616740226745605,
        0.10000000149011612,
        -5.618556022644043
      ]
    },
    {
      "bufferView": 7,
      "byteOffset": 0,
      "componentType": 5123,
      "normalized": false,
      "count": 12,
      "type": "SCALAR"
    },
    {
      "bufferView": 0,
      "byteOffset": 1872,
      "componentType": 5126,
      "normalized": false,
      "count": 8,
      "type": "VEC3",
      "max": [
        0.0,
        -1.0,
        0.0
      ],
      "min": [
        0.0,
        -1.0,
        0.0
      ]
    },
    {
      "bufferView": 0,
      "byteOffset": 1968,
      "componentType": 5126,
      "normalized": false,
      "count": 8,
      "type": "VEC3",
      "max": [
        3.0507709980010986,
        -3.304859887975909e-07,
        -1.153844952583313
      ],
      "min": [
        0.004848240874707699,
        -3.304859887975909e-07,
        -2.053844928741455
      ]
    },
    {
      "bufferView": 1,
      "byteOffset": 768,
      "componentType": 5126,
      "normalized": false,
      "count": 8,
      "type": "VEC2",
      "max": [
        1.4706519842147827,
        0.8176299333572388
      ],
      "min": [
        0.21217460930347443,
        0.5533087849617004
      ]
    },
    {
      "bufferView": 8,
      "byteOffset": 0,
      "componentType": 5123,
      "normalized": false,
      "count": 12,
      "type": "SCALAR"
    },
    {
      "bufferView": 0,
      "byteOffset": 144,
      "componentType": 5126,
      "normalized": false,
      "count": 8,
      "type": "VEC3",
      "max": [
        0.0,
        -1.0,
        0.0
      ],
      "min": [
        0.0,
        -1.0,
        0.0
      ]
    },
    {
      "bufferView": 0,
      "byteOffset": 240,
      "componentType": 5126,
      "normalized": false,
      "count": 8,
      "type": "VEC3",
      "max": [
        3.0507709980010986,
        -3.304859887975909e-07,
        0.917368233203888
      ],
      "min": [
        0.004848240874707699,
        -3.304859887975909e-07,
        0.017368070781230927
      ]
    },
    {
      "bufferView": 1,
      "byteOffset": 704,
      "componentType": 5126,
      "normalized": false,
      "count": 8,
      "type": "VEC2",
      "max": [
        1.6069190502166748,
        0.3992651104927063
      ],
      "min": [
        0.986328125,
        0.180806577205658
      ]
    },
    {
      "bufferView": 9,
      "byteOffset": 0,
      "componentType": 5123,
      "normalized": false,
      "count": 18,
      "type": "SCALAR"
    },
    {
      "bufferView": 0,
      "byteOffset": 0,
      "componentType": 5126,
      "normalized": false,
      "count": 12,
      "type": "VEC3",
      "max": [
        1.8212499242054042e-07,
        1.0,
        0.0
      ],
      "min": [
        0.0,
        -1.0,
        0.0
      ]
    },
    {
      "bufferView": 0,
      "byteOffset": 3024,
      "componentType": 5126,
      "normalized": false,
      "count": 12,
      "type": "VEC3",
      "max": [
        3.0507709980010986,
        -2.533199960907951e-07,
        1.9702579975128172
      ],
      "min": [
        0.0048483009450137615,
        -0.10000029951334,
        1.0702580213546753
      ]
    },
    {
      "bufferView": 1,
      "byteOffset": 608,
      "componentType": 5126,
      "normalized": false,
      "count": 12,
      "type": "VEC2",
      "max": [
        0.7988584041595459,
        0.8225514888763428
      ],
      "min": [
        0.21217460930347443,
        0.5533087849617004
      ]
    },
    {
      "bufferView": 10,
      "byteOffset": 0,
      "componentType": 5123,
      "normalized": false,
      "count": 18,
      "type": "SCALAR"
    },
    {
      "bufferView": 0,
      "byteOffset": 3168,
      "componentType": 5126,
      "normalized": false,
      "count": 12,
      "type": "VEC3",
      "max": [
        0.0,
        1.0,
        0.0
      ],
      "min": [
        0.0,
        -1.0,
        0.0
      ]
    },
    {
      "bufferView": 0,
      "byteOffset": 3312,
      "componentType": 5126,
      "normalized": false,
      "count": 12,
      "type": "VEC3",
      "max": [
        3.0507709980010986,
        -3.304859887975909e-07,
        2.9946908950805664
      ],
      "min": [
        0.004848240874707699,
        -0.10000029951334,
        2.094691038131714
      ]
    },
    {
      "bufferView": 1,
      "byteOffset": 0,
      "componentType": 5126,
      "normalized": false,
      "count": 12,
      "type": "VEC2",
      "max": [
        0.7988584041595459,
        0.8225514888763428
      ],
      "min": [
        0.21217460930347443,
        0.5533087849617004
      ]
    },
    {
      "bufferView": 11,
      "byteOffset": 0,
      "componentType": 5123,
      "normalized": false,
      "count": 96,
      "type": "SCALAR"
    },
    {
      "bufferView": 0,
      "byteOffset": 336,
      "componentType": 5126,
      "normalized": false,
      "count": 64,
      "type": "VEC3",
      "max": [
        0.0,
        -1.0,
        0.0
      ],
      "min": [
        0.0,
        -1.0,
        0.0
      ]
    },
    {
      "bufferView": 0,
      "byteOffset": 1104,
      "componentType": 5126,
      "normalized": false,
      "count": 64,
      "type": "VEC3",
      "max": [
        4.654926776885986,
        -1.607359934041597e-07,
        3.960196018218994
      ],
      "min": [
        -4.567239761352539,
        -2.984949958317884e-07,
        -5.088231086730957
      ]
    },
    {
      "bufferView": 1,
      "byteOffset": 96,
      "componentType": 5126,
      "normalized": false,
      "count": 64,
      "type": "VEC2",
      "max": [
        0.9066631197929382,
        0.9319600462913512
      ],
      "min": [
        0.0020863409154117107,
        0.04991018772125244
      ]
    },
    {
      "bufferView": 11,
      "byteOffset": 192,
      "componentType": 5123,
      "normalized": false,
      "count": 60,
      "type": "SCALAR"
    }
  ],
  "asset": {
    "generator": "GDS lod baker 1",
    "copyright": "Copyright 2017 Analytical Graphics, Inc., CC-BY 4.0 https://creativecommons.org/licenses/by/4.0/ - Mesh and textures by Ed Mackey.",
    "version": "2.0"
  },
  "bufferViews": [
    {
      "buffer": 0,
      "byteOffset": 0,
      "byteLength": 3456,
      "byteStride": 12,
      "target": 34962
    },
    {
      "buffer": 0,
      "byteOffset": 3456,
      "byteLength": 1088,
      "byteStride": 8,
      "target": 34962
    },
    {
      "buffer": 0,
      "byteOffset": 4544,
      "byteLength": 24,
      "target": 34963
    },
    {
      "buffer": 0,
      "byteOffset": 4568,
      "byteLength": 24,
      "target": 34963
    },
    {
      "buffer": 0,
      "byteOffset": 4592,
      "byteLength": 24,
      "target": 34963
    },
    {
      "buffer": 0,
      "byteOffset": 4616,
      "byteLength": 24,
      "target": 34963
    },
    {
      "buffer": 0,
      "byteOffset": 4640,
      "byteLength": 24,
      "target": 34963
    },
    {
      "buffer": 0,
      "byteOffset": 4664,
      "byteLength": 24,
      "target": 34963
    },
    {
      "buffer": 0,
      "byteOffset": 4688,
      "byteLength": 24,
      "target": 34963
    },
    {
      "buffer": 0,
      "byteOffset": 4712,
      "byteLength": 36,
      "target": 34963
    },
    {
      "buffer": 0,
      "byteOffset": 4748,
      "byteLength": 36,
      "target": 34963
    },
    {
      "buffer": 0,
      "byteOffset": 4784,
      "byteLength": 312,
      "target": 34963
    }
  ],
  "buffers": [
    {
      "uri": "TextureSettingsTestLOD.bin",
      "byteLength": 5096
    }
  ],
  "extensionsUsed": [
    "NG2_mesh_lod"
  ],
  "images": [
    {
      "uri": "CheckAndX_V.png"
    },
    {
      "uri": "CheckAndX.png"
    },
    {
      "uri": "TextureTestLabels.png"
    }
  ],
  "materials": [
    {
      "pbrMetallicRoughness": {
        "baseColorFactor": [
          1.0,
          1.0,
          1.0,
          1.0
        ],
        "metallicFactor": 0.0,
        "roughnessFactor": 0.9,
        "baseColorTexture": {
          "index": 0,
          "texCoord": 0
        }
      },
      "emissiveFactor": [
        0.0,
        0.0,
        0.0
      ],
      "alphaMode": "OPAQUE",
      "doubleSided": false,
      "name": "TextureMirrorMaterialT"
    },
    {
      "pbrMetallicRoughness": {
        "baseColorFactor": [
          1.0,
          1.0,
          1.0,
          1.0
        ],
        "metallicFactor": 0.0,
        "roughnessFactor": 0.9,
        "baseColorTexture": {
          "index": 1,
          "texCoord": 0
        }
      },
      "emissiveFactor": [
        0.0,
        0.0,
        0.0
      ],
      "alphaMode": "OPAQUE",
      "doubleSided": false,
      "name": "TextureMirrorMaterialS"
    },
    {
      "pbrMetallicRoughness": {
        "baseColorFactor": [
          1.0,
          1.0,
          1.0,
          1.0
        ],
        "metallicFactor": 0.0,
        "roughnessFactor": 0.9,
        "baseColorTexture": {
          "index": 2,
          "texCoord": 0
        }
      },
      "emissiveFactor": [
        0.0,
        0.0,
        0.0
      ],
      "alphaMode": "OPAQUE",
      "doubleSided": false,
      "name": "TextureRepeatMaterialT"
    },
    {
      "pbrMetallicRoughness": {
        "baseColorFactor": [
          1.0,
          1.0,
          1.0,
          1.0
        ],
        "metallicFactor": 0.0,
        "roughnessFactor": 0.9,
        "baseColorTexture": {
          "index": 3,
          "texCoord": 0
        }
      },
      "emissiveFactor": [
        0.0,
        0.0,
        0.0
      ],
      "alphaMode": "OPAQUE",
      "doubleSided": false,
      "name": "TextureClampMaterialT"
    },
    {
      "pbrMetallicRoughness": {
        "baseColorFactor": [
          0.0891927033662796,
          0.17925620079040527,
          0.6399999856948853,
          1.0
        ],
        "metallicFactor": 0.0,
        "roughnessFactor": 0.9
      },
      "emissiveFactor": [
        0.0,
        0.0,
        0.0
      ],
      "alphaMode": "OPAQUE",
      "doubleSided": false,
      "name": "BackgroundMaterial"
    },
    {
      "pbrMetallicRoughness": {
        "baseColorFactor": [
          1.0,
          1.0,
          1.0,
          1.0
        ],
        "metallicFactor": 0.0,
        "roughnessFactor": 0.9,
        "baseColorTexture": {
          "index": 4,
          "texCoord": 0
        }
      },
      "emissiveFactor": [
        0.0,
        0.0,
        0.0
      ],
      "alphaMode": "OPAQUE",
      "doubleSided": false,
      "name": "TextureRepeatMaterialS"
    },
    {
      "pbrMetallicRoughness": {
        "baseColorFactor": [
          1.0,
          1.0,
          1.0,
          1.0
        ],
        "metallicFactor": 0.0,
        "roughnessFactor": 0.9,
        "baseColorTexture": {
          "index": 5,
          "texCoord": 0
        }
      },
      "emissiveFactor": [
        0.0,
        0.0,
        0.0
      ],
      "alphaMode": "OPAQUE",
      "doubleSided": false,
      "name": "TextureClampMaterialS"
    },
    {
      "pbrMetallicRoughness": {
        "baseColorFactor": [
          1.0,
          1.0,
          1.0,
          1.0
        ],
        "metallicFactor": 0.0,
        "roughnessFactor": 0.9,
        "baseColorTexture": {
          "index": 6,
          "texCoord": 0
        }
      },
      "emissiveFactor": [
        0.0,
        0.0,
        0.0
      ],
      "alphaMode": "OPAQUE",
      "doubleSided": true,
      "name": "DoubleSidedMaterial"
    },
    {
      "pbrMetallicRoughness": {
        "baseColorFactor": [
          1.0,
          1.0,
          1.0,
          1.0
        ],
        "metallicFactor": 0.0,
        "roughnessFactor": 0.9,
        "baseColorTexture": {
          "index": 7,
          "texCoord": 0
        }
      },
      "emissiveFactor": [
        0.0,
        0.0,
        0.0
      ],
      "alphaMode": "OPAQUE",
      "doubleSided": false,
      "name": "SingleSidedMaterial"
    },
    {
      "pbrMetallicRoughness": {
        "baseColorFactor": [
          1.0,
          1.0,
          1.0,
          1.0
        ],
        "metallicFactor": 0.0,
        "roughnessFactor": 0.9,
        "baseColorTexture": {
          "index": 8,
          "texCoord": 0
        }
      },
      "emissiveFactor": [
        0.0,
        0.0,
        0.0
      ],
      "alphaMode": "OPAQUE",
      "doubleSided": false,
      "name": "LabelMaterial"
    }
  ],
  "meshes": [
    {
      "primitives": [
        {
          "attributes": {
            "POSITION": 2,
            "NORMAL": 1,
            "TEXCOORD_0": 3
          },
          "indices": 0,
          "mode": 4,
          "material": 0
        }
      ],
      "name": "TextureMirrorMeshT"
    },
    {
      "primitives": [
        {
          "attributes": {
            "POSITION": 6,
            "NORMAL": 5,
            "TEXCOORD_0": 7
          },
          "indices": 4,
          "mode": 4,
          "material": 1
        }
      ],
      "name": "TextureMirrorMeshS"
    },
    {
      "primitives": [
        {
          "attributes": {
            "POSITION": 10,
            "NORMAL": 9,
            "TEXCOORD_0": 11
          },
          "indices": 8,
          "mode": 4,
          "material": 2
        }
      ],
      "name": "TextureRepeatMeshT"
    },
    {
      "primitives": [
        {
          "attributes": {
            "POSITION": 14,
            "NORMAL": 13,
            "TEXCOORD_0": 15
          },
          "indices": 12,
          "mode": 4,
          "material": 3
        }
      ],
      "name": "TextureClampMeshT"
    },
    {
      "primitives": [
        {
          "attributes": {
            "POSITION": 18,
            "NORMAL": 17
          },
          "indices": 16,
          "mode": 4,
          "material": 4
        }
      ],
      "name": "BackgroundMesh"
    },
    {
      "primitives": [
        {
          "attributes": {
            "POSITION": 21,
            "NORMAL": 20,
            "TEXCOORD_0": 22
          },
          "indices": 19,
          "mode": 4,
          "material": 5
        }
      ],
      "name": "TextureRepeatMeshS"
    },
    {
      "primitives": [
        {
          "attributes": {
            "POSITION": 25,
            "NORMAL": 24,
            "TEXCOORD_0": 26
          },
          "indices": 23,
          "mode": 4,
          "material": 6
        }
      ],
      "name": "TextureClampMeshS"
    },
    {
      "primitives": [
        {
          "attributes": {
            "POSITION": 29,
            "NORMAL": 28,
            "TEXCOORD_0": 30
          },
          "indices": 27,
          "mode": 4,
          "material": 7
        }
      ],
      "name": "DoubleSidedMesh"
    },
    {
      "primitives": [
        {
          "attributes": {
            "POSITION": 33,
            "NORMAL": 32,
            "TEXCOORD_0": 34
          },
          "indices": 31,
          "mode": 4,
          "material": 8
        }
      ],
      "name": "SingleSidedMesh"
    },
    {
      "primitives": [
        {
          "extensions": {
            "NG2_mesh_lod": {
              "levels": [
                {
                  "indices": 39,
                  "error": 0.45299
                }
              ]
            }
          },
          "attributes": {
            "POSITION": 37,
            "NORMAL": 36,
            "TEXCOORD_0": 38
          },
          "indices": 35,
          "mode": 4,
          "material": 9
        }
      ],
      "name": "LabelMesh"
    }
  ],
  "nodes": [
    {
      "children": [
        10,
        9,
        8,
        7,
        6,
        5,
        4,
        3,
        2,
        1
      ],
      "matrix": [
        1.0,
        0.0,
        0.0,
        0.0,
        0.0,
        0.0,
        -1.0,
        0.0,
        0.0,
        1.0,
        0.0,
        0.0,
        0.0,
        0.0,
        0.0,
        1.0
      ]
    },
    {
      "mesh": 0
    },
    {
      "mesh": 1
    },
    {
      "mesh": 2
    },
    {
      "mesh": 3
    },
    {
      "mesh": 4
    },
    {
      "mesh": 5
    },
    {
      "mesh": 6
    },
    {
      "mesh": 7
    },
    {
      "mesh": 8
    },
    {
      "mesh": 9
    }
  ],
  "samplers": [
    {
      "magFilter": 9729,
      "minFilter": 9986,
      "wrapS": 10497,
      "wrapT": 10497
    },
    {
      "magFilter": 9729,
      "minFilter": 9986,
      "wrapS": 10497,
      "wrapT": 33071
    },
    {
      "magFilter": 9729,
      "minFilter": 9986,
      "wrapS": 33071,
      "wrapT": 10497
    },
    {
      "magFilter": 9729,
      "minFilter": 9986,
      "wrapS": 10497,
      "wrapT": 33648
    },
    {
      "magFilter": 9729,
      "minFilter": 9986,
      "wrapS": 33648,
      "wrapT": 10497
    }
  ],
  "scene": 0,
  "scenes": [
    {
      "nodes": [
        0
      ]
    }
  ],
  "textures": [
    {
      "sampler": 3,
      "source": 0,
      "name": "TextureMirrorTextureT"
    },
    {
      "sampler": 4,
      "source": 1,
      "name": "TextureMirrorTextureS"
    },
    {
      "sampler": 2,
      "source": 0,
      "name": "TextureRepeatTextureT"
    },
    {
      "sampler": 1,
      "source": 0,
      "name": "TextureClampTextureT"
    },
    {
      "sampler": 1,
      "source": 1,
      "name": "TextureRepeatTextureS"
    },
    {
      "sampler": 2,
      "source": 1,
      "name": "TextureClampTextureS"
    },
    {
      "sampler": 0,
      "source": 1,
      "name": "DoubleSidedTexture"
    },
    {
      "sampler": 0,
      "source": 1,
      "name": "SingleSidedTexture"
    },
    {
      "sampler": 0,
      "source": 2,
      "name": "LabelTexture"
    }
  ]
}