{
  "accessors": [
    {
      "bufferView": 36,
      "byteOffset": 0,
      "componentType": 5121,
      "normalized": false,
      "count": 6,
      "type": "SCALAR"
    },
    {
      "bufferView": 0,
      "byteOffset": 0,
      "componentType": 5126,
      "normalized": false,
      "count": 4,
      "type": "VEC3",
      "max": [
        0.550000011920929,
        1.9699997901916504,
        -0.0
      ],
      "min": [
        -0.550000011920929,
        0.10000008344650269,
        -0.0
      ]
    },
    {
      "bufferView": 1,
      "byteOffset": 0,
      "componentType": 5126,
      "normalized": false,
      "count": 4,
      "type": "VEC3",
      "max": [
        -0.0,
        0.0,
        1.0
      ],
      "min": [
        -0.0,
        0.0,
        1.0
      ]
    },
    {
      "bufferView": 2,
      "byteOffset": 0,
      "componentType": 5126,
      "normalized": false,
      "count": 4,
      "type": "VEC4",
      "max": [
        1.0,
        0.0,
        -0.0,
        1.0
      ],
      "min": [
        1.0,
        0.0,
        -0.0,
        1.0
      ]
    },
    {
      "bufferView": 3,
      "byteOffset": 0,
      "componentType": 5126,
      "normalized": false,
      "count": 4,
      "type": "VEC2",
      "max": [
        0.675000011920929,
        0.9850000245496631
      ],
      "min": [
        0.1250002235174179,
        0.050000011920928955
      ]
    },
    {
      "bufferView": 37,
      "byteOffset": 0,
      "componentType": 5121,
      "normalized": false,
      "count": 6,
      "type": "SCALAR"
    },
    {
      "bufferView": 4,
      "byteOffset": 0,
      "componentType": 5126,
      "normalized": false,
      "count": 4,
      "type": "VEC3",
      "max": [
        0.550000011920929,
        1.9699997901916504,
        -0.0
      ],
      "min": [
        -0.550000011920929,
        0.10000008344650269,
        -0.0
      ]
    },
    {
      "bufferView": 5,
      "byteOffset": 0,
      "componentType": 5126,
      "normalized": false,
      "count": 4,
      "type": "VEC3",
      "max": [
        -0.0,
        0.0,
        1.0
      ],
      "min": [
        -0.0,
        0.0,
        1.0
      ]
    },
    {
      "bufferView": 6,
      "byteOffset": 0,
      "componentType": 5126,
      "normalized": false,
      "count": 4,
      "type": "VEC4",
      "max": [
        1.0,
        0.0,
        -0.0,
        1.0
      ],
      "min": [
        1.0,
        0.0,
        -0.0,
        1.0
      ]
    },
    {
      "bufferView": 7,
      "byteOffset": 0,
      "componentType": 5126,
      "normalized": false,
      "count": 4,
      "type": "VEC2",
      "max": [
        0.675000011920929,
        0.9850000245496631
      ],
      "min": [
        0.1250002235174179,
        0.050000011920928955
      ]
    },
    {
      "bufferView": 38,
      "byteOffset": 0,
      "componentType": 5121,
      "normalized": false,
      "count": 90,
      "type": "SCALAR"
    },
    {
      "bufferView": 8,
      "byteOffset": 0,
      "componentType": 5126,
      "normalized": false,
      "count": 72,
      "type": "VEC3",
      "max": [
        4.300000190734863,
        2.2995333671569824,
        0.550000011920929
      ],
      "min": [
        -4.300000190734863,
        -0.10000002384185791,
        -0.75
      ]
    },
    {
      "bufferView": 9,
      "byteOffset": 0,
      "componentType": 5126,
      "normalized": false,
      "count": 72,
      "type": "VEC3",
      "max": [
        1.0,
        1.0,
        1.0
      ],
      "min": [
        -1.0,
        -1.0,
        -1.0
      ]
    },
    {
      "bufferView": 10,
      "byteOffset": 0,
      "componentType": 5126,
      "normalized": false,
      "count": 72,
      "type": "VEC4",
      "max": [
        4.471359034141642e-07,
        1.0,
        1.0,
        1.0
      ],
      "min": [
        -9.737556183608831e-08,
        -1.0,
        -1.0,
        1.0
      ]
    },
    {
      "bufferView": 11,
      "byteOffset": 0,
      "componentType": 5126,
      "normalized": false,
      "count": 72,
      "type": "VEC2",
      "max": [
        0.9974293112754822,
        0.9976851856335998
      ],
      "min": [
        0.0025706912856549025,
        0.0023148059844970703
      ]
    },
    {
      "bufferView": 39,
      "byteOffset": 0,
      "componentType": 5121,
      "normalized": false,
      "count": 6,
      "type": "SCALAR"
    },
    {
      "bufferView": 12,
      "byteOffset": 0,
      "componentType": 5126,
      "normalized": false,
      "count": 4,
      "type": "VEC3",
      "max": [
        0.550000011920929,
        1.9699997901916504,
        -0.0
      ],
      "min": [
        -0.550000011920929,
        0.10000008344650269,
        -0.0
      ]
    },
    {
      "bufferView": 13,
      "byteOffset": 0,
      "componentType": 5126,
      "normalized": false,
      "count": 4,
      "type": "VEC3",
      "max": [
        -0.0,
        0.0,
        1.0
      ],
      "min": [
        -0.0,
        0.0,
        1.0
      ]
    },
    {
      "bufferView": 14,
      "byteOffset": 0,
      "componentType": 5126,
      "normalized": false,
      "count": 4,
      "type": "VEC4",
      "max": [
        1.0,
        0.0,
        -0.0,
        1.0
      ],
      "min": [
        1.0,
        0.0,
        -0.0,
        1.0
      ]
    },
    {
      "bufferView": 15,
      "byteOffset": 0,
      "componentType": 5126,
      "normalized": false,
      "count": 4,
      "type": "VEC2",
      "max": [
        0.675000011920929,
        0.9850000245496631
      ],
      "min": [
        0.1250002235174179,
        0.050000011920928955
      ]
    },
    {
      "bufferView": 40,
      "byteOffset": 0,
      "componentType": 5121,
      "normalized": false,
      "count": 9,
      "type": "SCALAR"
    },
    {
      "bufferView": 16,
      "byteOffset": 0,
      "componentType": 5126,
      "normalized": false,
      "count": 9,
      "type": "VEC3",
      "max": [
        3.0900001525878906,
        0.48338040709495544,
        -0.0
      ],
      "min": [
        0.0,
        -0.4815960228443146,
        -0.0
      ]
    },
    {
      "bufferView": 17,
      "byteOffset": 0,
      "componentType": 5126,
      "normalized": false,
      "count": 9,
      "type": "VEC3",
      "max": [
        -0.0,
        -0.0,
        1.0
      ],
      "min": [
        -0.0,
        -0.0,
        1.0
      ]
    },
    {
      "bufferView": 18,
      "byteOffset": 0,
      "componentType": 5126,
      "normalized": false,
      "count": 9,
      "type": "VEC4",
      "max": [
        0.9998476505279541,
        -0.017456788569688797,
        -0.0,
        1.0
      ],
      "min": [
        0.9998476505279541,
        -0.017456810921430588,
        -0.0,
        1.0
      ]
    },
    {
      "bufferView": 19,
      "byteOffset": 0,
      "componentType": 5126,
      "normalized": false,
      "count": 9,
      "type": "VEC2",
      "max": [
        0.8169060349464417,
        0.6157673895359039
      ],
      "min": [
        0.81337970495224,
        0.6086612045764923
      ]
    },
    {
      "bufferView": 41,
      "byteOffset": 0,
      "componentType": 5121,
      "normalized": false,
      "count": 48,
      "type": "SCALAR"
    },
    {
      "bufferView": 20,
      "byteOffset": 0,
      "componentType": 5126,
      "normalized": false,
      "count": 32,
      "type": "VEC3",
      "max": [
        3.2899999618530273,
        0.15600000321865082,
        0.009999990463256836
      ],
      "min": [
        -3.2899999618530273,
        -0.15600000321865082,
        -5.364418029785156e-07
      ]
    },
    {
      "bufferView": 21,
      "byteOffset": 0,
      "componentType": 5126,
      "normalized": false,
      "count": 32,
      "type": "VEC3",
      "max": [
        -0.0,
        0.0,
        1.0
      ],
      "min": [
        -0.0,
        0.0,
        1.0
      ]
    },
    {
      "bufferView": 22,
      "byteOffset": 0,
      "componentType": 5126,
      "normalized": false,
      "count": 32,
      "type": "VEC4",
      "max": [
        1.0,
        0.0,
        -0.0,
        1.0
      ],
      "min": [
        1.0,
        0.0,
        -0.0,
        1.0
      ]
    },
    {
      "bufferView": 23,
      "byteOffset": 0,
      "componentType": 5126,
      "normalized": false,
      "count": 32,
      "type": "VEC2",
      "max": [
        0.9825000166893005,
        0.7575000524520874
      ],
      "min": [
        0.7800000309944153,
        0.019777417182922363
      ]
    },
    {
      "bufferView": 42,
      "byteOffset": 0,
      "componentType": 5121,
      "normalized": false,
      "count": 6,
      "type": "SCALAR"
    },
    {
      "bufferView": 24,
      "byteOffset": 0,
      "componentType": 5126,
      "normalized": false,
      "count": 4,
      "type": "VEC3",
      "max": [
        0.550000011920929,
        1.9699997901916504,
        -0.0
      ],
      "min": [
        -0.550000011920929,
        0.10000008344650269,
        -0.0
      ]
    },
    {
      "bufferView": 25,
      "byteOffset": 0,
      "componentType": 5126,
      "normalized": false,
      "count": 4,
      "type": "VEC3",
      "max": [
        -0.0,
        0.0,
        1.0
      ],
      "min": [
        -0.0,
        0.0,
        1.0
      ]
    },
    {
      "bufferView": 26,
      "byteOffset": 0,
      "componentType": 5126,
      "normalized": false,
      "count": 4,
      "type": "VEC4",
      "max": [
        1.0,
        0.0,
        -0.0,
        1.0
      ],
      "min": [
        1.0,
        0.0,
        -0.0,
        1.0
      ]
    },
    {
      "bufferView": 27,
      "byteOffset": 0,
      "componentType": 5126,
      "normalized": false,
      "count": 4,
      "type": "VEC2",
      "max": [
        0.675000011920929,
        0.9850000245496631
      ],
      "min": [
        0.1250002235174179,
        0.050000011920928955
      ]
    },
    {
      "bufferView": 43,
      "byteOffset": 0,
      "componentType": 5121,
      "normalized": false,
      "count": 6,
      "type": "SCALAR"
    },
    {
      "bufferView": 28,
      "byteOffset": 0,
      "componentType": 5126,
      "normalized": false,
      "count": 4,
      "type": "VEC3",
      "max": [
        -0.9919999837875366,
        0.11400000005960464,
        0.009999999776482582
      ],
      "min": [
        -1.2080000638961792,
        -0.11400000005960464,
        0.009999999776482582
      ]
    },
    {
      "bufferView": 29,
      "byteOffset": 0,
      "componentType": 5126,
      "normalized": false,
      "count": 4,
      "type": "VEC3",
      "max": [
        -0.0,
        0.0,
        1.0
      ],
      "min": [
        -0.0,
        0.0,
        1.0
      ]
    },
    {
      "bufferView": 30,
      "byteOffset": 0,
      "componentType": 5126,
      "normalized": false,
      "count": 4,
      "type": "VEC4",
      "max": [
        1.0,
        0.0,
        -0.0,
        1.0
      ],
      "min": [
        1.0,
        0.0,
        -0.0,
        1.0
      ]
    },
    {
      "bufferView": 31,
      "byteOffset": 0,
      "componentType": 5126,
      "normalized": false,
      "count": 4,
      "type": "VEC2",
      "max": [
        0.9825000166893005,
        0.7575000524520874
      ],
      "min": [
        0.8924999237060547,
        0.6624999940395355
      ]
    },
    {
      "bufferView": 44,
      "byteOffset": 0,
      "componentType": 5121,
      "normalized": false,
      "count": 6,
      "type": "SCALAR"
    },
    {
      "bufferView": 32,
      "byteOffset": 0,
      "componentType": 5126,
      "normalized": false,
      "count": 4,
      "type": "VEC3",
      "max": [
        0.550000011920929,
        1.9699997901916504,
        -0.0
      ],
      "min": [
        -0.550000011920929,
        0.10000008344650269,
        -0.0
      ]
    },
    {
      "bufferView": 33,
      "byteOffset": 0,
      "componentType": 5126,
      "normalized": false,
      "count": 4,
      "type": "VEC3",
      "max": [
        -0.0,
        0.0,
        1.0
      ],
      "min": [
        -0.0,
        0.0,
        1.0
      ]
    },
    {
      "bufferView": 34,
      "byteOffset": 0,
      "componentType": 5126,
      "normalized": false,
      "count": 4,
      "type": "VEC4",
      "max": [
        1.0,
        0.0,
        -0.0,
        1.0
      ],
      "min": [
        1.0,
        0.0,
        -0.0,
        1.0
      ]
    },
    {
      "bufferView": 35,
      "byteOffset": 0,
      "componentType": 5126,
      "normalized": false,
      "count": 4,
      "type": "VEC2",
      "max": [
        0.675000011920929,
        0.9850000245496631
      ],
      "min": [
        0.1250002235174179,
        0.050000011920928955
      ]
    },
    {
      "bufferView": 41,
      "byteOffset": 48,
      "componentType": 5121,
      "normalized": false,
      "count": 30,
      "type": "SCALAR"
    }
  ],
  "asset": {
    "generator": "GDS lod baker 1",
    "copyright": "Copyright 2018 Analytical Graphics, Inc, CC-BY 4.0 https://creativecommons.org/licenses/by/4.0/ - Model and textures by Ed Mackey.",
    "version": "2.0"
  },
  "bufferViews": [
    {
      "buffer": 0,
      "byteOffset": 0,
      "byteLength": 48,
      "target": 34962
    },
    {
      "buffer": 0,
      "byteOffset": 48,
      "byteLength": 48,
      "target": 34962
    },
    {
      "buffer": 0,
      "byteOffset": 96,
      "byteLength": 64,
      "target": 34962
    },
    {
      "buffer": 0,
      "byteOffset": 160,
      "byteLength": 32,
      "target": 34962
    },
    {
      "buffer": 0,
      "byteOffset": 192,
      "byteLength": 48,
      "target": 34962
    },
    {
      "buffer": 0,
      "byteOffset": 240,
      "byteLength": 48,
      "target": 34962
    },
    {
      "buffer": 0,
      "byteOffset": 288,
      "byteLength": 64,
      "target": 34962
    },
    {
      "buffer": 0,
      "byteOffset": 352,
      "byteLength": 32,
      "target": 34962
    },
    {
      "buffer": 0,
      "byteOffset": 384,
      "byteLength": 864,
      "target": 34962
    },
    {
      "buffer": 0,
      "byteOffset": 1248,
      "byteLength": 864,
      "target": 34962
    },
    {
      "buffer": 0,
      "byteOffset": 2112,
      "byteLength": 1152,
      "target": 34962
    },
    {
      "buffer": 0,
      "byteOffset": 3264,
      "byteLength": 576,
      "target": 34962
    },
    {
      "buffer": 0,
      "byteOffset": 3840,
      "byteLength": 48,
      "target": 34962
    },
    {
      "buffer": 0,
      "byteOffset": 3888,
      "byteLength": 48,
      "target": 34962
    },
    {
      "buffer": 0,
      "byteOffset": 3936,
      "byteLength": 64,
      "target": 34962
    },
    {
      "buffer": 0,
      "byteOffset": 4000,
      "byteLength": 32,
      "target": 34962
    },
    {
      "buffer": 0,
      "byteOffset": 4032,
      "byteLength": 108,
      "target": 34962
    },
    {
      "buffer": 0,
      "byteOffset": 4140,
      "byteLength": 108,
      "target": 34962
    },
    {
      "buffer": 0,
      "byteOffset": 4248,
      "byteLength": 144,
      "target": 34962
    },
    {
      "buffer": 0,
      "byteOffset": 4392,
      "byteLength": 72,
      "target": 34962
    },
    {
      "buffer": 0,
      "byteOffset": 4464,
      "byteLength": 384,
      "target": 34962
    },
    {
      "buffer": 0,
      "byteOffset": 4848,
      "byteLength": 384,
      "target": 34962
    },
    {
      "buffer": 0,
      "byteOffset": 5232,
      "byteLength": 512,
      "target": 34962
    },
    {
      "buffer": 0,
      "byteOffset": 5744,
      "byteLength": 256,
      "target": 34962
    },
    {
      "buffer": 0,
      "byteOffset": 6000,
      "byteLength": 48,
      "target": 34962
    },
    {
      "buffer": 0,
      "byteOffset": 6048,
      "byteLength": 48,
      "target": 34962
    },
    {
      "buffer": 0,
      "byteOffset": 6096,
      "byteLength": 64,
      "target": 34962
    },
    {
      "buffer": 0,
      "byteOffset": 6160,
      "byteLength": 32,
      "target": 34962
    },
    {
      "buffer": 0,
      "byteOffset": 6192,
      "byteLength": 48,
      "target": 34962
    },
    {
      "buffer": 0,
      "byteOffset": 6240,
      "byteLength": 48,
      "target": 34962
    },
    {
      "buffer": 0,
      "byteOffset": 6288,
      "byteLength": 64,
      "target": 34962
    },
    {
      "buffer": 0,
      "byteOffset": 6352,
      "byteLength": 32,
      "target": 34962
    },
    {
      "buffer": 0,
      "byteOffset": 6384,
      "byteLength": 48,
      "target": 34962
    },
    {
      "buffer": 0,
      "byteOffset": 6432,
      "byteLength": 48,
      "target": 34962
    },
    {
      "buffer": 0,
      "byteOffset": 6480,
      "byteLength": 64,
      "target": 34962
    },
    {
      "buffer": 0,
      "byteOffset": 6544,
      "byteLength": 32,
      "target": 34962
    },
    {
      "buffer": 0,
      "byteOffset": 6576,
      "byteLength": 6,
      "target": 34963
    },
    {
      "buffer": 0,
      "byteOffset": 6584,
      "byteLength": 6,
      "target": 34963
    },
    {
      "buffer": 0,
      "byteOffset": 6592,
      "byteLength": 90,
      "target": 34963
    },
    {
      "buffer": 0,
      "byteOffset": 6684,
      "byteLength": 6,
      "target": 34963
    },
    {
      "buffer": 0,
      "byteOffset": 6692,
      "byteLength": 9,
      "target": 34963
    },
    {
      "buffer": 0,
      "byteOffset": 6704,
      "byteLength": 78,
      "target": 34963
    },
    {
      "buffer": 0,
      "byteOffset": 6784,
      "byteLength": 6,
      "target": 34963
    },
    {
      "buffer": 0,
      "byteOffset": 6792,
      "byteLength": 6,
      "target": 34963
    },
    {
      "buffer": 0,
      "byteOffset": 6800,
      "byteLength": 6,
      "target": 34963
    }
  ],
  "buffers": [
    {
      "uri": "AlphaBlendModeTestLOD.bin",
      "byteLength": 6806
    }
  ],
  "extensionsUsed": [
    "NG2_mesh_lod"
  ],
  "images": [
    {
      "uri": "MatBed_normal.jpg"
    },
    {
      "uri": "MatBed_occlusionRoughnessMetallic.jpg"
    },
    {
      "uri": "MatBed_baseColor.jpg"
    },
    {
      "uri": "AlphaBlendLabels.png"
    }
  ],
  "materials": [
    {
      "pbrMetallicRoughness": {
        "baseColorFactor": [
          1.0,
          1.0,
          1.0,
          1.0
        ],
        "metallicFactor": 1.0,
        "roughnessFactor": 1.0,
        "baseColorTexture": {
          "index": 2,
          "texCoord": 0
        },
        "metallicRoughnessTexture": {
          "index": 1,
          "texCoord": 0
        }
      },
      "normalTexture": {
        "index": 0,
        "scale": 1.0
      },
      "occlusionTexture": {
        "index": 1,
        "strength": 1.0
      },
      "emissiveFactor": [
        0.0,
        0.0,
        0.0
      ],
      "alphaMode": "OPAQUE",
      "doubleSided": false,
      "name": "MatBed"
    },
    {
      "pbrMetallicRoughness": {
        "baseColorFactor": [
          1.0,
          1.0,
          1.0,
          1.0
        ],
        "metallicFactor": 0.0,
        "roughnessFactor": 0.800000011920929,
        "baseColorTexture": {
          "index": 3,
          "texCoord": 0
        }
      },
      "emissiveFactor": [
        0.0,
        0.0,
        0.0
      ],
      "alphaMode": "BLEND",
      "doubleSided": true,
      "name": "MatBlend"
    },
    {
      "pbrMetallicRoughness": {
        "baseColorFactor": [
          1.0,
          1.0,
          1.0,
          1.0
        ],
        "metallicFactor": 0.0,
        "roughnessFactor": 0.800000011920929,
        "baseColorTexture": {
          "index": 3,
          "texCoord": 0
        }
      },
      "emissiveFactor": [
        0.0,
        0.0,
        0.0
      ],
      "alphaMode": "MASK",
      "alphaCutoff": 0.25,
      "doubleSided": true,
      "name": "MatCutoff25"
    },
    {
      "pbrMetallicRoughness": {
        "baseColorFactor": [
          1.0,
          1.0,
          1.0,
          1.0
        ],
        "metallicFactor": 0.0,
        "roughnessFactor": 0.800000011920929,
        "baseColorTexture": {
          "index": 3,
          "texCoord": 0
        }
      },
      "emissiveFactor": [
        0.0,
        0.0,
        0.0
      ],
      "alphaMode": "MASK",
      "alphaCutoff": 0.75,
      "doubleSided": true,
      "name": "MatCutoff75"
    },
    {
      "pbrMetallicRoughness": {
        "baseColorFactor": [
          1.0,
          1.0,
          1.0,
          1.0
        ],
        "metallicFactor": 0.0,
        "roughnessFactor": 0.800000011920929,
        "baseColorTexture": {
          "index": 3,
          "texCoord": 0
        }
      },
      "emissiveFactor": [
        0.0,
        0.0,
        0.0
      ],
      "alphaMode": "MASK",
      "doubleSided": true,
      "name": "MatCutoffDefault"
    },
    {
      "pbrMetallicRoughness": {
        "baseColorFactor": [
          1.0,
          1.0,
          1.0,
          1.0
        ],
        "metallicFactor": 0.0,
        "roughnessFactor": 0.800000011920929,
        "baseColorTexture": {
          "index": 3,
          "texCoord": 0
        }
      },
      "emissiveFactor": [
        0.0,
        0.0,
        0.0
      ],
      "alphaMode": "OPAQUE",
      "doubleSided": true,
      "name": "MatOpaque"
    }
  ],
  "meshes": [
    {
      "primitives": [
        {
          "attributes": {
            "POSITION": 1,
            "NORMAL": 2,
            "TANGENT": 3,
            "TEXCOORD_0": 4
          },
          "indices": 0,
          "mode": 4,
          "material": 2
        }
      ],
      "name": "TestCutoff25Mesh"
    },
    {
      "primitives": [
        {
          "attributes": {
            "POSITION": 6,
            "NORMAL": 7,
            "TANGENT": 8,
            "TEXCOORD_0": 9
          },
          "indices": 5,
          "mode": 4,
          "material": 3
        }
      ],
      "name": "TestCutoff75Mesh"
    },
    {
      "primitives": [
        {
          "attributes": {
            "POSITION": 11,
            "NORMAL": 12,
            "TANGENT": 13,
            "TEXCOORD_0": 14
          },
          "indices": 10,
          "mode": 4,
          "material": 0
        }
      ],
      "name": "BedMesh"
    },
    {
      "primitives": [
        {
          "attributes": {
            "POSITION": 16,
            "NORMAL": 17,
            "TANGENT": 18,
            "TEXCOORD_0": 19
          },
          "indices": 15,
          "mode": 4,
          "material": 1
        }
      ],
      "name": "TestBlendMesh"
    },
    {
      "primitives": [
        {
          "attributes": {
            "POSITION": 21,
            "NORMAL": 22,
            "TANGENT": 23,
            "TEXCOORD_0": 24
          },
          "indices": 20,
          "mode": 4,
          "material": 5
        }
      ],
      "name": "GreenArrowsMesh"
    },
    {
      "primitives": [
        {
          "extensions": {
            "NG2_mesh_lod": {
              "levels": [
                {
                  "indices": 45,
                  "error": 0.157035
                }
              ]
            }
          },
          "attributes": {
            "POSITION": 26,
            "NORMAL": 27,
            "TANGENT": 28,
            "TEXCOORD_0": 29
          },
          "indices": 25,
          "mode": 4,
          "material": 5
        }
      ],
      "name": "DecalOpaqueMesh"
    },
    {
      "primitives": [
        {
          "attributes": {
            "POSITION": 31,
            "NORMAL": 32,
            "TANGENT": 33,
            "TEXCOORD_0": 34
          },
          "indices": 30,
          "mode": 4,
          "material": 5
        }
      ],
      "name": "TestOpaqueMesh"
    },
    {
      "primitives": [
        {
          "attributes": {
            "POSITION": 36,
            "NORMAL": 37,
            "TANGENT": 38,
            "TEXCOORD_0": 39
          },
          "indices": 35,
          "mode": 4,
          "material": 1
        }
      ],
      "name": "DecalBlendMesh"
    },
    {
      "primitives": [
        {
          "attributes": {
            "POSITION": 41,
            "NORMAL": 42,
            "TANGENT": 43,
            "TEXCOORD_0": 44
          },
          "indices": 40,
          "mode": 4,
          "material": 4
        }
      ],
      "name": "TestCutoffDefaultMesh"
    }
  ],
  "nodes": [
    {
      "mesh": 2,
      "name": "Bed"
    },
    {
      "mesh": 7,
      "rotation": [
        -0.47185850143432617,
        0.0,
        -0.0,
        0.8816744089126587
      ],
      "translation": [
        0.0,
        0.0,
        0.4090209901332855
      ],
      "name": "DecalBlend"
    },
    {
      "mesh": 5,
      "rotation": [
        -0.47185850143432617,
        0.0,
        -0.0,
        0.8816744089126587
      ],
      "translation": [
        0.0,
        0.0,
        0.4090207517147064
      ],
      "name": "DecalOpaque"
    },
    {
      "mesh": 4,
      "translation": [
        0.5,
        1.068150520324707,
        0.004999999888241291
      ],
      "name": "GreenArrows"
    },
    {
      "mesh": 3,
      "translation": [
        -1.5,
        0.0,
        -0.0
      ],
      "name": "TestBlend"
    },
    {
      "mesh": 0,
      "name": "TestCutoff25"
    },
    {
      "mesh": 1,
      "translation": [
        3.0,
        0.0,
        -0.0
      ],
      "name": "TestCutoff75"
    },
    {
      "mesh": 8,
      "translation": [
        1.5,
        0.0,
        -0.0
      ],
      "name": "TestCutoffDefault"
    },
    {
      "mesh": 6,
      "translation": [
        -3.0,
        0.0,
        -0.0
      ],
      "name": "TestOpaque"
    }
  ],
  "samplers": [
    {
      "wrapS": 10497,
      "wrapT": 10497
    }
  ],
  "scene": 0,
  "scenes": [
    {
      "name": "Scene",
      "nodes": [
        3,
        1,
        2,
        6,
        7,
        5,
        4,
        8,
        0
      ]
    }
  ],
  "textures": [
    {
      "sampler": 0,
      "source": 0
    },
    {
      "sampler": 0,
      "source": 1
    },
    {
      "sampler": 0,
      "source": 2
    },
    {
      "sampler": 0,
      "source": 3
    }
  ]
}