{
  "accessors": [
    {
      "bufferView": 0,
      "byteOffset": 0,
      "componentType": 5126,
      "normalized": false,
      "count": 65536,
      "type": "VEC3",
      "max": [
        1.0,
        1.0,
        1.0
      ],
      "min": [
        -1.0,
        -1.0,
        -1.0
      ]
    },
    {
      "bufferView": 1,
      "byteOffset": 0,
      "componentType": 5126,
      "normalized": false,
      "count": 65536,
      "type": "VEC3",
      "max": [
        1.0,
        0.99993896,
        0.99999237
      ],
      "min": [
        -1.0,
        -1.0,
        -0.99999237
      ]
    },
    {
      "bufferView": 2,
      "byteOffset": 0,
      "componentType": 5126,
      "normalized": false,
      "count": 205,
      "type": "VEC3",
      "max": [
        1.0,
        1.0,
        0.99999994
      ],
      "min": [
        -0.99999994,
        -1.0,
        -0.99999994
      ]
    },
    {
      "bufferView": 2,
      "byteOffset": 0,
      "componentType": 5126,
      "normalized": false,
      "count": 205,
      "type": "VEC3"
    },
    {
      "bufferView": 6,
      "byteOffset": 0,
      "componentType": 5123,
      "normalized": false,
      "count": 960,
      "type": "SCALAR"
    },
    {
      "bufferView": 3,
      "byteOffset": 0,
      "componentType": 5121,
      "normalized": true,
      "count": 205,
      "type": "VEC4"
    },
    {
      "bufferView": 3,
      "byteOffset": 0,
      "componentType": 5121,
      "normalized": true,
      "count": 65536,
      "type": "VEC4"
    },
    {
      "bufferView": 4,
      "byteOffset": 0,
      "componentType": 5126,
      "normalized": false,
      "count": 4,
      "type": "VEC3",
      "max": [
        1.0,
        1.0,
        0.0
      ],
      "min": [
        0.0,
        0.0,
        0.0
      ]
    },
    {
      "bufferView": 5,
      "byteOffset": 0,
      "componentType": 5126,
      "normalized": false,
      "count": 4,
      "type": "VEC2"
    },
    {
      "bufferView": 7,
      "byteOffset": 0,
      "componentType": 5123,
      "normalized": false,
      "count": 6,
      "type": "SCALAR"
    },
    {
      "bufferView": 6,
      "byteOffset": 1920,
      "componentType": 5123,
      "normalized": false,
      "count": 240,
      "type": "SCALAR"
    }
  ],
  "asset": {
    "generator": "GDS lod baker 1",
    "version": "2.0"
  },
  "bufferViews": [
    {
      "buffer": 0,
      "byteOffset": 0,
      "byteLength": 786432
    },
    {
      "buffer": 0,
      "byteOffset": 786432,
      "byteLength": 786432
    },
    {
      "buffer": 0,
      "byteOffset": 1572864,
      "byteLength": 2460,
      "byteStride": 12
    },
    {
      "buffer": 0,
      "byteOffset": 1575324,
      "byteLength": 262144,
      "byteStride": 4
    },
    {
      "buffer": 0,
      "byteOffset": 1837468,
      "byteLength": 48
    },
    {
      "buffer": 0,
      "byteOffset": 1837516,
      "byteLength": 32
    },
    {
      "buffer": 0,
      "byteOffset": 1837548,
      "byteLength": 2400,
      "target": 34963
    },
    {
      "buffer": 0,
      "byteOffset": 1839948,
      "byteLength": 12,
      "target": 34963
    }
  ],
  "buffers": [
    {
      "uri": "PrimitiveModeNormalsTestLOD.bin",
      "byteLength": 1839960
    }
  ],
  "extensionsUsed": [
    "NG2_mesh_lod"
  ],
  "images": [
    {
      "uri": "Labels.png"
    }
  ],
  "materials": [
    {
      "pbrMetallicRoughness": {
        "baseColorFactor": [
          0.5,
          0.5,
          0.5,
          1.0
        ],
        "metallicFactor": 1.0,
        "roughnessFactor": 0.0
      },
      "emissiveFactor": [
        0.0,
        0.1,
        0.1
      ],
      "alphaMode": "OPAQUE",
      "doubleSided": false
    },
    {
      "pbrMetallicRoughness": {
        "baseColorFactor": [
          1.0,
          1.0,
          1.0,
          1.0
        ],
        "metallicFactor": 0.0,
        "roughnessFactor": 1.0,
        "baseColorTexture": {
          "index": 0,
          "texCoord": 0
        }
      },
      "emissiveFactor": [
        1.0,
        1.0,
        1.0
      ],
      "emissiveTexture": {
        "index": 0,
        "texCoord": 0
      },
      "alphaMode": "MASK",
      "doubleSided": true
    }
  ],
  "meshes": [
    {
      "primitives": [
        {
          "attributes": {
            "POSITION": 0
          },
          "mode": 0
        }
      ]
    },
    {
      "primitives": [
        {
          "attributes": {
            "POSITION": 1
          },
          "mode": 3
        }
      ]
    },
    {
      "primitives": [
        {
          "extensions": {
            "NG2_mesh_lod": {
              "levels": [
                {
                  "indices": 10,
                  "error": 0.08891
                }
              ]
            }
          },
          "attributes": {
            "POSITION": 2
          },
          "indices": 4,
          "mode": 4
        }
      ]
    },
    {
      "primitives": [
        {
          "attributes": {
            "POSITION": 0,
            "COLOR_0": 6
          },
          "mode": 0
        }
      ]
    },
    {
      "primitives": [
        {
          "attributes": {
            "POSITION": 1,
            "COLOR_0": 6
          },
          "mode": 3
        }
      ]
    },
    {
      "primitives": [
        {
          "extensions": {
            "NG2_mesh_lod": {
              "levels": [
                {
                  "indices": 10,
                  "error": 0.08891
                }
              ]
            }
          },
          "attributes": {
            "POSITION": 2,
            "COLOR_0": 5
          },
          "indices": 4,
          "mode": 4
        }
      ]
    },
    {
      "primitives": [
        {
          "attributes": {
            "POSITION": 0
          },
          "mode": 0,
          "material": 0
        }
      ]
    },
    {
      "primitives": [
        {
          "attributes": {
            "POSITION": 1
          },
          "mode": 3,
          "material": 0
        }
      ]
    },
    {
      "primitives": [
        {
          "extensions": {
            "NG2_mesh_lod": {
              "levels": [
                {
                  "indices": 10,
                  "error": 0.08891
                }
              ]
            }
          },
          "attributes": {
            "POSITION": 2
          },
          "indices": 4,
          "mode": 4,
          "material": 0
        }
      ]
    },
    {
      "primitives": [
        {
          "attributes": {
            "POSITION": 0,
            "COLOR_0": 6
          },
          "mode": 0,
          "material": 0
        }
      ]
    },
    {
      "primitives": [
        {
          "attributes": {
            "POSITION": 1,
            "COLOR_0": 6
          },
          "mode": 3,
          "material": 0
        }
      ]
    },
    {
      "primitives": [
        {
          "extensions": {
            "NG2_mesh_lod": {
              "levels": [
                {
                  "indices": 10,
                  "error": 0.08891
                }
              ]
            }
          },
          "attributes": {
            "POSITION": 2,
            "COLOR_0": 5
          },
          "indices": 4,
          "mode": 4,
          "material": 0
        }
      ]
    },
    {
      "primitives": [
        {
          "attributes": {
            "POSITION": 0,
            "NORMAL": 0
          },
          "mode": 0
        }
      ]
    },
    {
      "primitives": [
        {
          "attributes": {
            "POSITION": 1,
            "NORMAL": 1
          },
          "mode": 3
        }
      ]
    },
    {
      "primitives": [
        {
          "extensions": {
            "NG2_mesh_lod": {
              "levels": [
                {
                  "indices": 10,
                  "error": 0.08891
                }
              ]
            }
          },
          "attributes": {
            "POSITION": 2,
            "NORMAL": 3
          },
          "indices": 4,
          "mode": 4
        }
      ]
    },
    {
      "primitives": [
        {
          "attributes": {
            "POSITION": 0,
            "NORMAL": 0,
            "COLOR_0": 6
          },
          "mode": 0
        }
      ]
    },
    {
      "primitives": [
        {
          "attributes": {
            "POSITION": 1,
            "NORMAL": 1,
            "COLOR_0": 6
          },
          "mode": 3
        }
      ]
    },
    {
      "primitives": [
        {
          "extensions": {
            "NG2_mesh_lod": {
              "levels": [
                {
                  "indices": 10,
                  "error": 0.08891
                }
              ]
            }
          },
          "attributes": {
            "POSITION": 2,
            "NORMAL": 3,
            "COLOR_0": 5
          },
          "indices": 4,
          "mode": 4
        }
      ]
    },
    {
      "primitives": [
        {
          "attributes": {
            "POSITION": 0,
            "NORMAL": 0
          },
          "mode": 0,
          "material": 0
        }
      ]
    },
    {
      "primitives": [
        {
          "attributes": {
            "POSITION": 1,
            "NORMAL": 1
          },
          "mode": 3,
          "material": 0
        }
      ]
    },
    {
      "primitives": [
        {
          "extensions": {
            "NG2_mesh_lod": {
              "levels": [
                {
                  "indices": 10,
                  "error": 0.08891
                }
              ]
            }
          },
          "attributes": {
            "POSITION": 2,
            "NORMAL": 3
          },
          "indices": 4,
          "mode": 4,
          "material": 0
        }
      ]
    },
    {
      "primitives": [
        {
          "attributes": {
            "POSITION": 0,
            "NORMAL": 0,
            "COLOR_0": 6
          },
          "mode": 0,
          "material": 0
        }
      ]
    },
    {
      "primitives": [
        {
          "attributes": {
            "POSITION": 1,
            "NORMAL": 1,
            "COLOR_0": 6
          },
          "mode": 3,
          "material": 0
        }
      ]
    },
    {
      "primitives": [
        {
          "extensions": {
            "NG2_mesh_lod": {
              "levels": [
                {
                  "indices": 10,
                  "error": 0.08891
                }
              ]
            }
          },
          "attributes": {
            "POSITION": 2,
            "NORMAL": 3,
            "COLOR_0": 5
          },
          "indices": 4,
          "mode": 4,
          "material": 0
        }
      ]
    },
    {
      "primitives": [
        {
          "attributes": {
            "POSITION": 7,
            "TEXCOORD_0": 8
          },
          "indices": 9,
          "mode": 4,
          "material": 1
        }
      ]
    }
  ],
  "nodes": [
    {
      "mesh": 0,
      "translation": [
        -2.5,
        10.0,
        0.0
      ]
    },
    {
      "mesh": 1,
      "translation": [
        0.0,
        10.0,
        0.0
      ]
    },
    {
      "mesh": 2,
      "translation": [
        2.5,
        10.0,
        0.0
      ]
    },
    {
      "mesh": 3,
      "translation": [
        -2.5,
        7.0,
        0.0
      ]
    },
    {
      "mesh": 4,
      "translation": [
        0.0,
        7.0,
        0.0
      ]
    },
    {
      "mesh": 5,
      "translation": [
        2.5,
        7.0,
        0.0
      ]
    },
    {
      "mesh": 6,
      "translation": [
        -2.5,
        4.0,
        0.0
      ]
    },
    {
      "mesh": 7,
      "translation": [
        0.0,
        4.0,
        0.0
      ]
    },
    {
      "mesh": 8,
      "translation": [
        2.5,
        4.0,
        0.0
      ]
    },
    {
      "mesh": 9,
      "translation": [
        -2.5,
        1.0,
        0.0
      ]
    },
    {
      "mesh": 10,
      "translation": [
        0.0,
        1.0,
        0.0
      ]
    },
    {
      "mesh": 11,
      "translation": [
        2.5,
        1.0,
        0.0
      ]
    },
    {
      "mesh": 12,
      "translation": [
        -2.5,
        10.0,
        0.0
      ]
    },
    {
      "mesh": 13,
      "translation": [
        0.0,
        10.0,
        0.0
      ]
    },
    {
      "mesh": 14,
      "translation": [
        2.5,
        10.0,
        0.0
      ]
    },
    {
      "mesh": 15,
      "translation": [
        -2.5,
        7.0,
        0.0
      ]
    },
    {
      "mesh": 16,
      "translation": [
        0.0,
        7.0,
        0.0
      ]
    },
    {
      "mesh": 17,
      "translation": [
        2.5,
        7.0,
        0.0
      ]
    },
    {
      "mesh": 18,
      "translation": [
        -2.5,
        4.0,
        0.0
      ]
    },
    {
      "mesh": 19,
      "translation": [
        0.0,
        4.0,
        0.0
      ]
    },
    {
      "mesh": 20,
      "translation": [
        2.5,
        4.0,
        0.0
      ]
    },
    {
      "mesh": 21,
      "translation": [
        -2.5,
        1.0,
        0.0
      ]
    },
    {
      "mesh": 22,
      "translation": [
        0.0,
        1.0,
        0.0
      ]
    },
    {
      "mesh": 23,
      "translation": [
        2.5,
        1.0,
        0.0
      ]
    },
    {
      "translation": [
        -4.0,
        0.0,
        0.0
      ],
      "children": [
        0,
        1,
        2,
        3,
        4,
        5,
        6,
        7,
        8,
        9,
        10,
        11
      ]
    },
    {
      "translation": [
        4.0,
        0.0,
        0.0
      ],
      "children": [
        12,
        13,
        14,
        15,
        16,
        17,
        18,
        19,
        20,
        21,
        22,
        23
      ]
    },
    {
      "mesh": 24,
      "translation": [
        -12.5,
        0.0,
        -2.0
      ],
      "scale": [
        20.0,
        14.0,
        1.0
      ]
    },
    {
      "translation": [
        2.5,
        -7.0,
        0.5
      ],
      "children": [
        24,
        25,
        26
      ]
    }
  ],
  "samplers": [
    {
      "wrapS": 33071,
      "wrapT": 33071
    }
  ],
  "scene": 0,
  "scenes": [
    {
      "nodes": [
        27
      ]
    }
  ],
  "textures": [
    {
      "sampler": 0,
      "source": 0
    }
  ]
}