{
  "accessors": [
    {
      "bufferView": 6,
      "byteOffset": 0,
      "componentType": 5125,
      "normalized": false,
      "count": 49944,
      "type": "SCALAR"
    },
    {
      "bufferView": 0,
      "byteOffset": 0,
      "componentType": 5126,
      "normalized": false,
      "count": 49944,
      "type": "VEC3",
      "max": [
        0.05317942053079605,
        0.06970596313476562,
        0.053179413080215454
      ],
      "min": [
        -0.05317941680550575,
        0.002442633965983987,
        -0.07910969108343124
      ]
    },
    {
      "bufferView": 1,
      "byteOffset": 0,
      "componentType": 5126,
      "normalized": false,
      "count": 49944,
      "type": "VEC3"
    },
    {
      "bufferView": 2,
      "byteOffset": 0,
      "componentType": 5126,
      "normalized": false,
      "count": 49944,
      "type": "VEC2",
      "max": [
        0.9899702668190002,
        0.9900000095367432
      ],
      "min": [
        0.009999990463256836,
        0.003878176212310791
      ]
    },
    {
      "bufferView": 7,
      "byteOffset": 0,
      "componentType": 5125,
      "normalized": false,
      "count": 34608,
      "type": "SCALAR"
    },
    {
      "bufferView": 3,
      "byteOffset": 0,
      "componentType": 5126,
      "normalized": false,
      "count": 34608,
      "type": "VEC3",
      "max": [
        0.07430914789438248,
        0.015187043696641922,
        0.07430917769670486
      ],
      "min": [
        -0.07430917024612427,
        -0.0006779426475986838,
        -0.07430917769670486
      ]
    },
    {
      "bufferView": 4,
      "byteOffset": 0,
      "componentType": 5126,
      "normalized": false,
      "count": 34608,
      "type": "VEC3"
    },
    {
      "bufferView": 5,
      "byteOffset": 0,
      "componentType": 5126,
      "normalized": false,
      "count": 34608,
      "type": "VEC2",
      "max": [
        0.9887738227844238,
        0.9899942874908447
      ],
      "min": [
        0.010007113218307495,
        0.008173823356628418
      ]
    }
  ],
  "asset": {
    "generator": "GDS lod baker 1",
    "copyright": "CC0 public domain, model sourced from https://polyhaven.com/a/tea_set_01, edited by Eric Chadwick.",
    "version": "2.0"
  },
  "bufferViews": [
    {
      "buffer": 0,
      "byteOffset": 0,
      "byteLength": 599328,
      "target": 34962
    },
    {
      "buffer": 0,
      "byteOffset": 599328,
      "byteLength": 599328,
      "target": 34962
    },
    {
      "buffer": 0,
      "byteOffset": 1198656,
      "byteLength": 399552,
      "target": 34962
    },
    {
      "buffer": 0,
      "byteOffset": 1598208,
      "byteLength": 415296,
      "target": 34962
    },
    {
      "buffer": 0,
      "byteOffset": 2013504,
      "byteLength": 415296,
      "target": 34962
    },
    {
      "buffer": 0,
      "byteOffset": 2428800,
      "byteLength": 276864,
      "target": 34962
    },
    {
      "buffer": 0,
      "byteOffset": 2705664,
      "byteLength": 199776,
      "target": 34963
    },
    {
      "buffer": 0,
      "byteOffset": 2905440,
      "byteLength": 138432,
      "target": 34963
    }
  ],
  "buffers": [
    {
      "uri": "DiffuseTransmissionTeacupLOD.bin",
      "byteLength": 3043872
    }
  ],
  "extensionsUsed": [
    "KHR_materials_diffuse_transmission"
  ],
  "images": [
    {
      "uri": "teasaucer_basecolor.jpg"
    },
    {
      "uri": "teasaucer_normal.png"
    },
    {
      "uri": "teasaucer_ormt.png"
    },
    {
      "uri": "teacup_basecolor.jpg"
    },
    {
      "uri": "teacup_normal.png"
    },
    {
      "uri": "teacup_ormt.png"
    }
  ],
  "materials": [
    {
      "extensions": {
        "KHR_materials_diffuse_transmission": {
          "diffuseTransmissionFactor": 1.0,
          "diffuseTransmissionTexture": {
            "index": 2
          },
          "diffuseTransmissionColorFactor": [
            0.84,
            0.8,
            0.74
          ]
        }
      },
      "pbrMetallicRoughness": {
        "baseColorFactor": [
          1.0,
          1.0,
          1.0,
          1.0
        ],
        "metallicFactor": 1.0,
        "roughnessFactor": 1.0,
        "baseColorTexture": {
          "index": 0,
          "texCoord": 0
        },
        "metallicRoughnessTexture": {
          "index": 2,
          "texCoord": 0
        }
      },
      "normalTexture": {
        "index": 1,
        "scale": 1.0
      },
      "occlusionTexture": {
        "index": 2,
        "strength": 1.0
      },
      "emissiveFactor": [
        0.0,
        0.0,
        0.0
      ],
      "alphaMode": "OPAQUE",
      "doubleSided": false,
      "name": "tea_saucer"
    },
    {
      "extensions": {
        "KHR_materials_diffuse_transmission": {
          "diffuseTransmissionFactor": 1.0,
          "diffuseTransmissionTexture": {
            "index": 5
          },
          "diffuseTransmissionColorFactor": [
            0.84,
            0.8,
            0.74
          ]
        }
      },
      "pbrMetallicRoughness": {
        "baseColorFactor": [
          1.0,
          1.0,
          1.0,
          1.0
        ],
        "metallicFactor": 1.0,
        "roughnessFactor": 1.0,
        "baseColorTexture": {
          "index": 3,
          "texCoord": 0
        },
        "metallicRoughnessTexture": {
          "index": 5,
          "texCoord": 0
        }
      },
      "normalTexture": {
        "index": 4,
        "scale": 1.0
      },
      "occlusionTexture": {
        "index": 5,
        "strength": 1.0
      },
      "emissiveFactor": [
        0.0,
        0.0,
        0.0
      ],
      "alphaMode": "OPAQUE",
      "doubleSided": false,
      "name": "tea_cup"
    }
  ],
  "meshes": [
    {
      "primitives": [
        {
          "attributes": {
            "POSITION": 1,
            "NORMAL": 2,
            "TEXCOORD_0": 3
          },
          "indices": 0,
          "mode": 4,
          "material": 1
        }
      ],
      "name": "tea_cup"
    },
    {
      "primitives": [
        {
          "attributes": {
            "POSITION": 5,
            "NORMAL": 6,
            "TEXCOORD_0": 7
          },
          "indices": 4,
          "mode": 4,
          "material": 0
        }
      ],
      "name": "tea_saucer"
    }
  ],
  "nodes": [
    {
      "mesh": 0,
      "matrix": [
        1.0,
        0.0,
        0.0,
        0.0,
        0.0,
        1.0,
        4.371138828673793e-08,
        0.0,
        0.0,
        -4.371138828673793e-08,
        1.0,
        0.0,
        8.457805961370468e-06,
        0.0,
        -0.00030597392469644547,
        1.0
      ],
      "name": "tea_cup"
    },
    {
      "mesh": 1,
      "matrix": [
        1.0,
        0.0,
        0.0,
        0.0,
        0.0,
        1.0,
        4.371138828673793e-08,
        0.0,
        0.0,
        -4.371138828673793e-08,
        1.0,
        0.0,
        8.428003638982773e-06,
        0.0,
        7.516704499721527e-06,
        1.0
      ],
      "name": "tea_saucer"
    }
  ],
  "samplers": [
    {
      "wrapS": 10497,
      "wrapT": 10497
    },
    {
      "wrapS": 10497,
      "wrapT": 10497
    },
    {
      "wrapS": 10497,
      "wrapT": 10497
    },
    {
      "wrapS": 10497,
      "wrapT": 10497
    },
    {
      "wrapS": 10497,
      "wrapT": 10497
    },
    {
      "wrapS": 10497,
      "wrapT": 10497
    }
  ],
  "scene": 0,
  "scenes": [
    {
      "nodes": [
        0,
        1
      ]
    }
  ],
  "textures": [
    {
      "sampler": 0,
      "source": 0
    },
    {
      "sampler": 1,
      "source": 1
    },
    {
      "sampler": 2,
      "source": 2
    },
    {
      "sampler": 3,
      "source": 3
    },
    {
      "sampler": 4,
      "source": 4
    },
    {
      "sampler": 5,
      "source": 5
    }
  ]
}