{
  "accessors": [
    {
      "bufferView": 0,
      "byteOffset": 0,
      "componentType": 5126,
      "normalized": false,
      "count": 828,
      "type": "VEC3",
      "max": [
        0.4277999997138977,
        1.0579999685287476,
        0.4277999997138977
      ],
      "min": [
        -0.4277999997138977,
        -1.0579999685287476,
        -0.4277999997138977
      ]
    },
    {
      "bufferView": 1,
      "byteOffset": 0,
      "componentType": 5126,
      "normalized": false,
      "count": 828,
      "type": "VEC3"
    },
    {
      "bufferView": 2,
      "byteOffset": 0,
      "componentType": 5126,
      "normalized": false,
      "count": 828,
      "type": "VEC2"
    },
    {
      "bufferView": 15,
      "byteOffset": 0,
      "componentType": 5123,
      "normalized": false,
      "count": 2304,
      "type": "SCALAR"
    },
    {
      "bufferView": 3,
      "byteOffset": 0,
      "componentType": 5126,
      "normalized": false,
      "count": 2366,
      "type": "VEC3",
      "max": [
        2.437999963760376,
        1.3960000276565552,
        -0.2667999863624573
      ],
      "min": [
        -2.430910110473633,
        -1.3960000276565552,
        -2.5843698978424072
      ]
    },
    {
      "bufferView": 4,
      "byteOffset": 0,
      "componentType": 5126,
      "normalized": false,
      "count": 2366,
      "type": "VEC3"
    },
    {
      "bufferView": 5,
      "byteOffset": 0,
      "componentType": 5126,
      "normalized": false,
      "count": 2366,
      "type": "VEC2"
    },
    {
      "bufferView": 16,
      "byteOffset": 0,
      "componentType": 5123,
      "normalized": false,
      "count": 5232,
      "type": "SCALAR"
    },
    {
      "bufferView": 6,
      "byteOffset": 0,
      "componentType": 5126,
      "normalized": false,
      "count": 151,
      "type": "VEC3",
      "max": [
        1.6011799573898315,
        1.3960000276565552,
        -1.631850004196167
      ],
      "min": [
        0.22885000705718994,
        -1.3960000276565552,
        -2.3545401096343994
      ]
    },
    {
      "bufferView": 7,
      "byteOffset": 0,
      "componentType": 5126,
      "normalized": false,
      "count": 151,
      "type": "VEC3"
    },
    {
      "bufferView": 8,
      "byteOffset": 0,
      "componentType": 5126,
      "normalized": false,
      "count": 151,
      "type": "VEC2"
    },
    {
      "bufferView": 17,
      "byteOffset": 0,
      "componentType": 5123,
      "normalized": false,
      "count": 168,
      "type": "SCALAR"
    },
    {
      "bufferView": 9,
      "byteOffset": 0,
      "componentType": 5126,
      "normalized": false,
      "count": 650,
      "type": "VEC3",
      "max": [
        1.62267005443573,
        1.100000023841858,
        -1.5961999893188477
      ],
      "min": [
        0.1932000070810318,
        -1.1100000143051147,
        -2.3919999599456787
      ]
    },
    {
      "bufferView": 10,
      "byteOffset": 0,
      "componentType": 5126,
      "normalized": false,
      "count": 650,
      "type": "VEC3"
    },
    {
      "bufferView": 11,
      "byteOffset": 0,
      "componentType": 5126,
      "normalized": false,
      "count": 650,
      "type": "VEC2"
    },
    {
      "bufferView": 18,
      "byteOffset": 0,
      "componentType": 5123,
      "normalized": false,
      "count": 864,
      "type": "SCALAR"
    },
    {
      "bufferView": 12,
      "byteOffset": 0,
      "componentType": 5126,
      "normalized": false,
      "count": 31,
      "type": "SCALAR",
      "max": [
        1.25
      ],
      "min": [
        0.0
      ]
    },
    {
      "bufferView": 13,
      "byteOffset": 0,
      "componentType": 5126,
      "normalized": false,
      "count": 31,
      "type": "VEC4"
    },
    {
      "bufferView": 14,
      "byteOffset": 0,
      "componentType": 5126,
      "normalized": false,
      "count": 31,
      "type": "VEC4"
    },
    {
      "bufferView": 15,
      "byteOffset": 4608,
      "componentType": 5123,
      "normalized": false,
      "count": 1152,
      "type": "SCALAR"
    },
    {
      "bufferView": 15,
      "byteOffset": 6912,
      "componentType": 5123,
      "normalized": false,
      "count": 684,
      "type": "SCALAR"
    },
    {
      "bufferView": 16,
      "byteOffset": 10464,
      "componentType": 5123,
      "normalized": false,
      "count": 3120,
      "type": "SCALAR"
    },
    {
      "bufferView": 16,
      "byteOffset": 16704,
      "componentType": 5123,
      "normalized": false,
      "count": 2280,
      "type": "SCALAR"
    }
  ],
  "animations": [
    {
      "name": "Wheels",
      "channels": [
        {
          "sampler": 0,
          "target": {
            "node": 0,
            "path": "rotation"
          }
        },
        {
          "sampler": 1,
          "target": {
            "node": 2,
            "path": "rotation"
          }
        }
      ],
      "samplers": [
        {
          "input": 16,
          "interpolation": "LINEAR",
          "output": 17
        },
        {
          "input": 16,
          "interpolation": "LINEAR",
          "output": 18
        }
      ]
    }
  ],
  "asset": {
    "generator": "GDS lod baker 1",
    "version": "2.0"
  },
  "bufferViews": [
    {
      "buffer": 0,
      "byteOffset": 0,
      "byteLength": 9936
    },
    {
      "buffer": 0,
      "byteOffset": 9936,
      "byteLength": 9936
    },
    {
      "buffer": 0,
      "byteOffset": 19872,
      "byteLength": 6624
    },
    {
      "buffer": 0,
      "byteOffset": 26496,
      "byteLength": 28392
    },
    {
      "buffer": 0,
      "byteOffset": 54888,
      "byteLength": 28392
    },
    {
      "buffer": 0,
      "byteOffset": 83280,
      "byteLength": 18928
    },
    {
      "buffer": 0,
      "byteOffset": 102208,
      "byteLength": 1812
    },
    {
      "buffer": 0,
      "byteOffset": 104020,
      "byteLength": 1812
    },
    {
      "buffer": 0,
      "byteOffset": 105832,
      "byteLength": 1208
    },
    {
      "buffer": 0,
      "byteOffset": 107040,
      "byteLength": 7800
    },
    {
      "buffer": 0,
      "byteOffset": 114840,
      "byteLength": 7800
    },
    {
      "buffer": 0,
      "byteOffset": 122640,
      "byteLength": 5200
    },
    {
      "buffer": 0,
      "byteOffset": 127840,
      "byteLength": 124
    },
    {
      "buffer": 0,
      "byteOffset": 127964,
      "byteLength": 496
    },
    {
      "buffer": 0,
      "byteOffset": 128460,
      "byteLength": 496
    },
    {
      "buffer": 0,
      "byteOffset": 128956,
      "byteLength": 8280,
      "target": 34963
    },
    {
      "buffer": 0,
      "byteOffset": 137236,
      "byteLength": 21264,
      "target": 34963
    },
    {
      "buffer": 0,
      "byteOffset": 158500,
      "byteLength": 336,
      "target": 34963
    },
    {
      "buffer": 0,
      "byteOffset": 158836,
      "byteLength": 1728,
      "target": 34963
    }
  ],
  "buffers": [
    {
      "uri": "CesiumMilkTruckLOD.bin",
      "byteLength": 160564
    }
  ],
  "extensionsUsed": [
    "NG2_mesh_lod"
  ],
  "images": [
    {
      "uri": "CesiumMilkTruck.jpg",
      "name": "CesiumMilkTruck.jpg"
    }
  ],
  "materials": [
    {
      "pbrMetallicRoughness": {
        "baseColorFactor": [
          1.0,
          1.0,
          1.0,
          1.0
        ],
        "metallicFactor": 0.0,
        "roughnessFactor": 1.0,
        "baseColorTexture": {
          "index": 0,
          "texCoord": 0
        }
      },
      "emissiveFactor": [
        0.0,
        0.0,
        0.0
      ],
      "alphaMode": "OPAQUE",
      "doubleSided": false,
      "name": "wheels"
    },
    {
      "pbrMetallicRoughness": {
        "baseColorFactor": [
          1.0,
          1.0,
          1.0,
          1.0
        ],
        "metallicFactor": 0.0,
        "roughnessFactor": 1.0,
        "baseColorTexture": {
          "index": 1,
          "texCoord": 0
        }
      },
      "emissiveFactor": [
        0.0,
        0.0,
        0.0
      ],
      "alphaMode": "OPAQUE",
      "doubleSided": false,
      "name": "truck"
    },
    {
      "pbrMetallicRoughness": {
        "baseColorFactor": [
          0.0,
          0.04050629958510399,
          0.021240700036287308,
          1.0
        ],
        "metallicFactor": 0.0,
        "roughnessFactor": 1.0
      },
      "emissiveFactor": [
        0.0,
        0.0,
        0.0
      ],
      "alphaMode": "OPAQUE",
      "doubleSided": false,
      "name": "glass"
    },
    {
      "pbrMetallicRoughness": {
        "baseColorFactor": [
          0.06400000303983688,
          0.06400000303983688,
          0.06400000303983688,
          1.0
        ],
        "metallicFactor": 0.0,
        "roughnessFactor": 1.0
      },
      "emissiveFactor": [
        0.0,
        0.0,
        0.0
      ],
      "alphaMode": "OPAQUE",
      "doubleSided": false,
      "name": "window_trim"
    }
  ],
  "meshes": [
    {
      "primitives": [
        {
          "extensions": {
            "NG2_mesh_lod": {
              "levels": [
                {
                  "indices": 19,
                  "error": 0.018934
                },
                {
                  "indices": 20,
                  "error": 0.103163
                }
              ]
            }
          },
          "attributes": {
            "POSITION": 0,
            "NORMAL": 1,
            "TEXCOORD_0": 2
          },
          "indices": 3,
          "mode": 4,
          "material": 0
        }
      ],
      "name": "Wheels"
    },
    {
      "primitives": [
        {
          "extensions": {
            "NG2_mesh_lod": {
              "levels": [
                {
                  "indices": 21,
                  "error": 0.048151
                },
                {
                  "indices": 22,
                  "error": 0.23885
                }
              ]
            }
          },
          "attributes": {
            "POSITION": 4,
            "NORMAL": 5,
            "TEXCOORD_0": 6
          },
          "indices": 7,
          "mode": 4,
          "material": 1
        },
        {
          "attributes": {
            "POSITION": 8,
            "NORMAL": 9,
            "TEXCOORD_0": 10
          },
          "indices": 11,
          "mode": 4,
          "material": 2
        },
        {
          "attributes": {
            "POSITION": 12,
            "NORMAL": 13,
            "TEXCOORD_0": 14
          },
          "indices": 15,
          "mode": 4,
          "material": 3
        }
      ],
      "name": "Cesium_Milk_Truck"
    }
  ],
  "nodes": [
    {
      "mesh": 0,
      "rotation": [
        0.0,
        0.08848588913679123,
        0.0,
        -0.9960774183273315
      ],
      "name": "Wheels"
    },
    {
      "translation": [
        1.432669997215271,
        0.0,
        -0.4277220070362091
      ],
      "children": [
        0
      ],
      "name": "Node"
    },
    {
      "mesh": 0,
      "rotation": [
        0.0,
        0.08848588913679123,
        0.0,
        -0.9960774183273315
      ],
      "name": "Wheels.001"
    },
    {
      "translation": [
        -1.352329969406128,
        0.0,
        -0.4277220070362091
      ],
      "children": [
        2
      ],
      "name": "Node.001"
    },
    {
      "mesh": 1,
      "children": [
        1,
        3
      ],
      "name": "Cesium_Milk_Truck"
    },
    {
      "rotation": [
        0.4999999701976776,
        -0.5,
        0.5,
        0.4999999701976776
      ],
      "children": [
        4
      ],
      "name": "Yup2Zup"
    }
  ],
  "scene": 0,
  "scenes": [
    {
      "name": "Scene",
      "nodes": [
        5
      ]
    }
  ],
  "textures": [
    {
      "source": 0
    },
    {
      "source": 0
    }
  ]
}