{
  "accessors": [
    {
      "bufferView": 3,
      "byteOffset": 0,
      "componentType": 5123,
      "normalized": false,
      "count": 59040,
      "type": "SCALAR",
      "name": "accessorIndices"
    },
    {
      "bufferView": 0,
      "byteOffset": 0,
      "componentType": 5126,
      "normalized": false,
      "count": 10472,
      "type": "VEC3",
      "max": [
        0.10810829,
        0.356580257,
        0.190409869
      ],
      "min": [
        -0.07221258,
        0.104120225,
        -0.088394776
      ],
      "name": "accessorPositions"
    },
    {
      "bufferView": 1,
      "byteOffset": 0,
      "componentType": 5126,
      "normalized": false,
      "count": 10472,
      "type": "VEC4",
      "name": "accessorTangents"
    },
    {
      "bufferView": 0,
      "byteOffset": 125664,
      "componentType": 5126,
      "normalized": false,
      "count": 10472,
      "type": "VEC3",
      "name": "accessorNormals"
    },
    {
      "bufferView": 2,
      "byteOffset": 0,
      "componentType": 5126,
      "normalized": false,
      "count": 10472,
      "type": "VEC2",
      "name": "accessorUVs"
    },
    {
      "bufferView": 4,
      "byteOffset": 0,
      "componentType": 5123,
      "normalized": false,
      "count": 72534,
      "type": "SCALAR",
      "name": "accessorIndices"
    },
    {
      "bufferView": 0,
      "byteOffset": 251328,
      "componentType": 5126,
      "normalized": false,
      "count": 13638,
      "type": "VEC3",
      "max": [
        0.162940636,
        0.7025226,
        0.200029165
      ],
      "min": [
        -0.158857465,
        -2.14242937e-05,
        -0.171545789
      ],
      "name": "accessorPositions"
    },
    {
      "bufferView": 1,
      "byteOffset": 167552,
      "componentType": 5126,
      "normalized": false,
      "count": 13638,
      "type": "VEC4",
      "name": "accessorTangents"
    },
    {
      "bufferView": 0,
      "byteOffset": 414984,
      "componentType": 5126,
      "normalized": false,
      "count": 13638,
      "type": "VEC3",
      "name": "accessorNormals"
    },
    {
      "bufferView": 2,
      "byteOffset": 83776,
      "componentType": 5126,
      "normalized": false,
      "count": 13638,
      "type": "VEC2",
      "name": "accessorUVs"
    },
    {
      "bufferView": 5,
      "byteOffset": 0,
      "componentType": 5123,
      "normalized": false,
      "count": 24408,
      "type": "SCALAR",
      "name": "accessorIndices"
    },
    {
      "bufferView": 0,
      "byteOffset": 578640,
      "componentType": 5126,
      "normalized": false,
      "count": 4676,
      "type": "VEC3",
      "max": [
        0.140494063,
        0.61828655,
        0.147373646
      ],
      "min": [
        -0.140846014,
        0.440957,
        -0.107818365
      ],
      "name": "accessorPositions"
    },
    {
      "bufferView": 1,
      "byteOffset": 385760,
      "componentType": 5126,
      "normalized": false,
      "count": 4676,
      "type": "VEC4",
      "name": "accessorTangents"
    },
    {
      "bufferView": 0,
      "byteOffset": 634752,
      "componentType": 5126,
      "normalized": false,
      "count": 4676,
      "type": "VEC3",
      "name": "accessorNormals"
    },
    {
      "bufferView": 2,
      "byteOffset": 192880,
      "componentType": 5126,
      "normalized": false,
      "count": 4676,
      "type": "VEC2",
      "name": "accessorUVs"
    },
    {
      "bufferView": 6,
      "byteOffset": 0,
      "componentType": 5123,
      "normalized": false,
      "count": 60288,
      "type": "SCALAR",
      "name": "accessorIndices"
    },
    {
      "bufferView": 0,
      "byteOffset": 690864,
      "componentType": 5126,
      "normalized": false,
      "count": 13636,
      "type": "VEC3",
      "max": [
        0.132708371,
        0.6024364,
        0.199477077
      ],
      "min": [
        -0.203642711,
        0.02116075,
        -0.147512689
      ],
      "name": "accessorPositions"
    },
    {
      "bufferView": 1,
      "byteOffset": 460576,
      "componentType": 5126,
      "normalized": false,
      "count": 13636,
      "type": "VEC4",
      "name": "accessorTangents"
    },
    {
      "bufferView": 0,
      "byteOffset": 854496,
      "componentType": 5126,
      "normalized": false,
      "count": 13636,
      "type": "VEC3",
      "name": "accessorNormals"
    },
    {
      "bufferView": 2,
      "byteOffset": 230288,
      "componentType": 5126,
      "normalized": false,
      "count": 13636,
      "type": "VEC2",
      "name": "accessorUVs"
    },
    {
      "bufferView": 7,
      "byteOffset": 0,
      "componentType": 5123,
      "normalized": false,
      "count": 65688,
      "type": "SCALAR",
      "name": "accessorIndices"
    },
    {
      "bufferView": 0,
      "byteOffset": 1018128,
      "componentType": 5126,
      "normalized": false,
      "count": 12534,
      "type": "VEC3",
      "max": [
        0.124933377,
        0.716000438,
        0.129168555
      ],
      "min": [
        -0.125863016,
        0.2958266,
        -0.1541516
      ],
      "name": "accessorPositions"
    },
    {
      "bufferView": 1,
      "byteOffset": 678752,
      "componentType": 5126,
      "normalized": false,
      "count": 12534,
      "type": "VEC4",
      "name": "accessorTangents"
    },
    {
      "bufferView": 0,
      "byteOffset": 1168536,
      "componentType": 5126,
      "normalized": false,
      "count": 12534,
      "type": "VEC3",
      "name": "accessorNormals"
    },
    {
      "bufferView": 2,
      "byteOffset": 339376,
      "componentType": 5126,
      "normalized": false,
      "count": 12534,
      "type": "VEC2",
      "name": "accessorUVs"
    },
    {
      "bufferView": 8,
      "byteOffset": 0,
      "componentType": 5123,
      "normalized": false,
      "count": 2208,
      "type": "SCALAR",
      "name": "accessorIndices"
    },
    {
      "bufferView": 0,
      "byteOffset": 1318944,
      "componentType": 5126,
      "normalized": false,
      "count": 436,
      "type": "VEC3",
      "max": [
        0.101920746,
        0.5936986,
        0.152926728
      ],
      "min": [
        -0.101920947,
        0.5300429,
        0.090174824
      ],
      "name": "accessorPositions"
    },
    {
      "bufferView": 1,
      "byteOffset": 879296,
      "componentType": 5126,
      "normalized": false,
      "count": 436,
      "type": "VEC4",
      "name": "accessorTangents"
    },
    {
      "bufferView": 0,
      "byteOffset": 1324176,
      "componentType": 5126,
      "normalized": false,
      "count": 436,
      "type": "VEC3",
      "name": "accessorNormals"
    },
    {
      "bufferView": 2,
      "byteOffset": 439648,
      "componentType": 5126,
      "normalized": false,
      "count": 436,
      "type": "VEC2",
      "name": "accessorUVs"
    },
    {
      "bufferView": 3,
      "byteOffset": 118080,
      "componentType": 5123,
      "normalized": false,
      "count": 29520,
      "type": "SCALAR"
    },
    {
      "bufferView": 3,
      "byteOffset": 177120,
      "componentType": 5123,
      "normalized": false,
      "count": 14760,
      "type": "SCALAR"
    },
    {
      "bufferView": 4,
      "byteOffset": 145068,
      "componentType": 5123,
      "normalized": false,
      "count": 36264,
      "type": "SCALAR"
    },
    {
      "bufferView": 4,
      "byteOffset": 217596,
      "componentType": 5123,
      "normalized": false,
      "count": 18132,
      "type": "SCALAR"
    },
    {
      "bufferView": 5,
      "byteOffset": 48816,
      "componentType": 5123,
      "normalized": false,
      "count": 12204,
      "type": "SCALAR"
    },
    {
      "bufferView": 5,
      "byteOffset": 73224,
      "componentType": 5123,
      "normalized": false,
      "count": 6102,
      "type": "SCALAR"
    },
    {
      "bufferView": 6,
      "byteOffset": 120576,
      "componentType": 5123,
      "normalized": false,
      "count": 30144,
      "type": "SCALAR"
    },
    {
      "bufferView": 6,
      "byteOffset": 180864,
      "componentType": 5123,
      "normalized": false,
      "count": 15072,
      "type": "SCALAR"
    },
    {
      "bufferView": 7,
      "byteOffset": 131376,
      "componentType": 5123,
      "normalized": false,
      "count": 32844,
      "type": "SCALAR"
    },
    {
      "bufferView": 7,
      "byteOffset": 197064,
      "componentType": 5123,
      "normalized": false,
      "count": 16422,
      "type": "SCALAR"
    },
    {
      "bufferView": 8,
      "byteOffset": 4416,
      "componentType": 5123,
      "normalized": false,
      "count": 1104,
      "type": "SCALAR"
    },
    {
      "bufferView": 8,
      "byteOffset": 6624,
      "componentType": 5123,
      "normalized": false,
      "count": 552,
      "type": "SCALAR"
    }
  ],
  "asset": {
    "generator": "GDS lod baker 1",
    "version": "2.0"
  },
  "bufferViews": [
    {
      "buffer": 0,
      "byteOffset": 0,
      "byteLength": 1329408,
      "byteStride": 12,
      "name": "bufferViewFloatVec3"
    },
    {
      "buffer": 0,
      "byteOffset": 1329408,
      "byteLength": 886272,
      "byteStride": 16,
      "name": "bufferViewFloatVec4"
    },
    {
      "buffer": 0,
      "byteOffset": 2215680,
      "byteLength": 443136,
      "byteStride": 8,
      "name": "bufferViewFloatVec2"
    },
    {
      "buffer": 0,
      "byteOffset": 2658816,
      "byteLength": 206640,
      "target": 34963
    },
    {
      "buffer": 0,
      "byteOffset": 2865456,
      "byteLength": 253860,
      "target": 34963
    },
    {
      "buffer": 0,
      "byteOffset": 3119316,
      "byteLength": 85428,
      "target": 34963
    },
    {
      "buffer": 0,
      "byteOffset": 3204744,
      "byteLength": 211008,
      "target": 34963
    },
    {
      "buffer": 0,
      "byteOffset": 3415752,
      "byteLength": 229908,
      "target": 34963
    },
    {
      "buffer": 0,
      "byteOffset": 3645660,
      "byteLength": 7728,
      "target": 34963
    }
  ],
  "buffers": [
    {
      "uri": "FlightHelmetLOD.bin",
      "byteLength": 3653388
    }
  ],
  "extensionsUsed": [
    "KHR_materials_transmission",
    "NG2_mesh_lod"
  ],
  "images": [
    {
      "uri": "FlightHelmet_Materials_RubberWoodMat_Normal.png"
    },
    {
      "uri": "FlightHelmet_Materials_RubberWoodMat_OcclusionRoughMetal.png"
    },
    {
      "uri": "FlightHelmet_Materials_RubberWoodMat_BaseColor.png"
    },
    {
      "uri": "FlightHelmet_Materials_GlassPlasticMat_Normal.png"
    },
    {
      "uri": "FlightHelmet_Materials_GlassPlasticMat_OcclusionRoughMetal.png"
    },
    {
      "uri": "FlightHelmet_Materials_GlassPlasticMat_BaseColor.png"
    },
    {
      "uri": "FlightHelmet_Materials_MetalPartsMat_Normal.png"
    },
    {
      "uri": "FlightHelmet_Materials_MetalPartsMat_OcclusionRoughMetal.png"
    },
    {
      "uri": "FlightHelmet_Materials_MetalPartsMat_BaseColor.png"
    },
    {
      "uri": "FlightHelmet_Materials_LeatherPartsMat_Normal.png"
    },
    {
      "uri": "FlightHelmet_Materials_LeatherPartsMat_OcclusionRoughMetal.png"
    },
    {
      "uri": "FlightHelmet_Materials_LeatherPartsMat_BaseColor.png"
    },
    {
      "uri": "FlightHelmet_Materials_LensesMat_Normal.png"
    },
    {
      "uri": "FlightHelmet_Materials_LensesMat_OcclusionRoughMetal.png"
    },
    {
      "uri": "FlightHelmet_Materials_LensesMat_BaseColor.png"
    }
  ],
  "materials": [
    {
      "pbrMetallicRoughness": {
        "baseColorFactor": [
          1.0,
          1.0,
          1.0,
          1.0
        ],
        "metallicFactor": 1.0,
        "roughnessFactor": 1.0,
        "baseColorTexture": {
          "index": 2,
          "texCoord": 0
        },
        "metallicRoughnessTexture": {
          "index": 1,
          "texCoord": 0
        }
      },
      "normalTexture": {
        "index": 0,
        "scale": 1.0
      },
      "occlusionTexture": {
        "index": 1,
        "strength": 1.0
      },
      "emissiveFactor": [
        0.0,
        0.0,
        0.0
      ],
      "alphaMode": "OPAQUE",
      "doubleSided": true,
      "name": "HoseMat"
    },
    {
      "pbrMetallicRoughness": {
        "baseColorFactor": [
          1.0,
          1.0,
          1.0,
          1.0
        ],
        "metallicFactor": 1.0,
        "roughnessFactor": 1.0,
        "baseColorTexture": {
          "index": 2,
          "texCoord": 0
        },
        "metallicRoughnessTexture": {
          "index": 1,
          "texCoord": 0
        }
      },
      "normalTexture": {
        "index": 0,
        "scale": 1.0
      },
      "occlusionTexture": {
        "index": 1,
        "strength": 1.0
      },
      "emissiveFactor": [
        0.0,
        0.0,
        0.0
      ],
      "alphaMode": "OPAQUE",
      "doubleSided": false,
      "name": "RubberWoodMat"
    },
    {
      "pbrMetallicRoughness": {
        "baseColorFactor": [
          1.0,
          1.0,
          1.0,
          1.0
        ],
        "metallicFactor": 1.0,
        "roughnessFactor": 1.0,
        "baseColorTexture": {
          "index": 5,
          "texCoord": 0
        },
        "metallicRoughnessTexture": {
          "index": 4,
          "texCoord": 0
        }
      },
      "normalTexture": {
        "index": 3,
        "scale": 1.0
      },
      "occlusionTexture": {
        "index": 4,
        "strength": 1.0
      },
      "emissiveFactor": [
        0.0,
        0.0,
        0.0
      ],
      "alphaMode": "OPAQUE",
      "doubleSided": false,
      "name": "GlassPlasticMat"
    },
    {
      "pbrMetallicRoughness": {
        "baseColorFactor": [
          1.0,
          1.0,
          1.0,
          1.0
        ],
        "metallicFactor": 1.0,
        "roughnessFactor": 1.0,
        "baseColorTexture": {
          "index": 8,
          "texCoord": 0
        },
        "metallicRoughnessTexture": {
          "index": 7,
          "texCoord": 0
        }
      },
      "normalTexture": {
        "index": 6,
        "scale": 1.0
      },
      "occlusionTexture": {
        "index": 7,
        "strength": 1.0
      },
      "emissiveFactor": [
        0.0,
        0.0,
        0.0
      ],
      "alphaMode": "OPAQUE",
      "doubleSided": false,
      "name": "MetalPartsMat"
    },
    {
      "pbrMetallicRoughness": {
        "baseColorFactor": [
          1.0,
          1.0,
          1.0,
          1.0
        ],
        "metallicFactor": 1.0,
        "roughnessFactor": 1.0,
        "baseColorTexture": {
          "index": 11,
          "texCoord": 0
        },
        "metallicRoughnessTexture": {
          "index": 10,
          "texCoord": 0
        }
      },
      "normalTexture": {
        "index": 9,
        "scale": 1.0
      },
      "occlusionTexture": {
        "index": 10,
        "strength": 1.0
      },
      "emissiveFactor": [
        0.0,
        0.0,
        0.0
      ],
      "alphaMode": "OPAQUE",
      "doubleSided": false,
      "name": "LeatherPartsMat"
    },
    {
      "extensions": {
        "KHR_materials_transmission": {
          "transmissionFactor": 1
        }
      },
      "pbrMetallicRoughness": {
        "baseColorFactor": [
          1.0,
          1.0,
          1.0,
          1.0
        ],
        "metallicFactor": 1.0,
        "roughnessFactor": 1.0,
        "baseColorTexture": {
          "index": 14,
          "texCoord": 0
        },
        "metallicRoughnessTexture": {
          "index": 13,
          "texCoord": 0
        }
      },
      "normalTexture": {
        "index": 12,
        "scale": 1.0
      },
      "occlusionTexture": {
        "index": 13,
        "strength": 1.0
      },
      "emissiveFactor": [
        0.0,
        0.0,
        0.0
      ],
      "alphaMode": "OPAQUE",
      "doubleSided": false,
      "name": "LensesMat"
    }
  ],
  "meshes": [
    {
      "primitives": [
        {
          "extensions": {
            "NG2_mesh_lod": {
              "levels": [
                {
                  "indices": 30,
                  "error": 0.001806
                },
                {
                  "indices": 31,
                  "error": 0.003849
                }
              ]
            }
          },
          "attributes": {
            "POSITION": 1,
            "NORMAL": 3,
            "TANGENT": 2,
            "TEXCOORD_0": 4
          },
          "indices": 0,
          "mode": 4,
          "material": 0
        }
      ],
      "name": "Hose_low"
    },
    {
      "primitives": [
        {
          "extensions": {
            "NG2_mesh_lod": {
              "levels": [
                {
                  "indices": 32,
                  "error": 0.000765
                },
                {
                  "indices": 33,
                  "error": 0.00211
                }
              ]
            }
          },
          "attributes": {
            "POSITION": 6,
            "NORMAL": 8,
            "TANGENT": 7,
            "TEXCOORD_0": 9
          },
          "indices": 5,
          "mode": 4,
          "material": 1
        }
      ],
      "name": "RubberWood_low"
    },
    {
      "primitives": [
        {
          "extensions": {
            "NG2_mesh_lod": {
              "levels": [
                {
                  "indices": 34,
                  "error": 0.000987
                },
                {
                  "indices": 35,
                  "error": 0.002451
                }
              ]
            }
          },
          "attributes": {
            "POSITION": 11,
            "NORMAL": 13,
            "TANGENT": 12,
            "TEXCOORD_0": 14
          },
          "indices": 10,
          "mode": 4,
          "material": 2
        }
      ],
      "name": "GlassPlastic_low"
    },
    {
      "primitives": [
        {
          "extensions": {
            "NG2_mesh_lod": {
              "levels": [
                {
                  "indices": 36,
                  "error": 0.000737
                },
                {
                  "indices": 37,
                  "error": 0.002165
                }
              ]
            }
          },
          "attributes": {
            "POSITION": 16,
            "NORMAL": 18,
            "TANGENT": 17,
            "TEXCOORD_0": 19
          },
          "indices": 15,
          "mode": 4,
          "material": 3
        }
      ],
      "name": "MetalParts_low"
    },
    {
      "primitives": [
        {
          "extensions": {
            "NG2_mesh_lod": {
              "levels": [
                {
                  "indices": 38,
                  "error": 0.000502
                },
                {
                  "indices": 39,
                  "error": 0.001326
                }
              ]
            }
          },
          "attributes": {
            "POSITION": 21,
            "NORMAL": 23,
            "TANGENT": 22,
            "TEXCOORD_0": 24
          },
          "indices": 20,
          "mode": 4,
          "material": 4
        }
      ],
      "name": "LeatherParts_low"
    },
    {
      "primitives": [
        {
          "extensions": {
            "NG2_mesh_lod": {
              "levels": [
                {
                  "indices": 40,
                  "error": 0.001359
                },
                {
                  "indices": 41,
                  "error": 0.003484
                }
              ]
            }
          },
          "attributes": {
            "POSITION": 26,
            "NORMAL": 28,
            "TANGENT": 27,
            "TEXCOORD_0": 29
          },
          "indices": 25,
          "mode": 4,
          "material": 5
        }
      ],
      "name": "Lenses_low"
    }
  ],
  "nodes": [
    {
      "mesh": 0,
      "name": "Hose_low"
    },
    {
      "mesh": 1,
      "name": "RubberWood_low"
    },
    {
      "mesh": 2,
      "name": "GlassPlastic_low"
    },
    {
      "mesh": 3,
      "name": "MetalParts_low"
    },
    {
      "mesh": 4,
      "name": "LeatherParts_low"
    },
    {
      "mesh": 5,
      "name": "Lenses_low"
    }
  ],
  "samplers": [
    {
      "magFilter": 9729,
      "minFilter": 9987,
      "wrapS": 10497,
      "wrapT": 10497
    }
  ],
  "scene": 0,
  "scenes": [
    {
      "nodes": [
        0,
        1,
        2,
        3,
        4,
        5
      ]
    }
  ],
  "textures": [
    {
      "sampler": 0,
      "source": 0,
      "name": "FlightHelmet_Materials_RubberWoodMat_Normal.png"
    },
    {
      "sampler": 0,
      "source": 1,
      "name": "FlightHelmet_Materials_RubberWoodMat_OcclusionRoughMetal.png"
    },
    {
      "sampler": 0,
      "source": 2,
      "name": "FlightHelmet_Materials_RubberWoodMat_BaseColor.png"
    },
    {
      "sampler": 0,
      "source": 3,
      "name": "FlightHelmet_Materials_GlassPlasticMat_Normal.png"
    },
    {
      "sampler": 0,
      "source": 4,
      "name": "FlightHelmet_Materials_GlassPlasticMat_OcclusionRoughMetal.png"
    },
    {
      "sampler": 0,
      "source": 5,
      "name": "FlightHelmet_Materials_GlassPlasticMat_BaseColor.png"
    },
    {
      "sampler": 0,
      "source": 6,
      "name": "FlightHelmet_Materials_MetalPartsMat_Normal.png"
    },
    {
      "sampler": 0,
      "source": 7,
      "name": "FlightHelmet_Materials_MetalPartsMat_OcclusionRoughMetal.png"
    },
    {
      "sampler": 0,
      "source": 8,
      "name": "FlightHelmet_Materials_MetalPartsMat_BaseColor.png"
    },
    {
      "sampler": 0,
      "source": 9,
      "name": "FlightHelmet_Materials_LeatherPartsMat_Normal.png"
    },
    {
      "sampler": 0,
      "source": 10,
      "name": "FlightHelmet_Materials_LeatherPartsMat_OcclusionRoughMetal.png"
    },
    {
      "sampler": 0,
      "source": 11,
      "name": "FlightHelmet_Materials_LeatherPartsMat_BaseColor.png"
    },
    {
      "sampler": 0,
      "source": 12,
      "name": "FlightHelmet_Materials_LensesMat_Normal.png"
    },
    {
      "sampler": 0,
      "source": 13,
      "name": "FlightHelmet_Materials_LensesMat_OcclusionRoughMetal.png"
    },
    {
      "sampler": 0,
      "source": 14,
      "name": "FlightHelmet_Materials_LensesMat_BaseColor.png"
    }
  ]
}