{
  "accessors": [
    {
      "bufferView": 11,
      "byteOffset": 0,
      "componentType": 5123,
      "normalized": false,
      "count": 6,
      "type": "SCALAR"
    },
    {
      "bufferView": 12,
      "byteOffset": 0,
      "componentType": 5123,
      "normalized": false,
      "count": 72,
      "type": "SCALAR"
    },
    {
      "bufferView": 13,
      "byteOffset": 0,
      "componentType": 5123,
      "normalized": false,
      "count": 1944,
      "type": "SCALAR"
    },
    {
      "bufferView": 0,
      "byteOffset": 0,
      "componentType": 5126,
      "normalized": false,
      "count": 4,
      "type": "VEC3",
      "max": [
        0.10000002384185791,
        0.10000002384185791,
        0.0
      ],
      "min": [
        -0.10000002384185791,
        -0.10000002384185791,
        0.0
      ]
    },
    {
      "bufferView": 0,
      "byteOffset": 12,
      "componentType": 5126,
      "normalized": false,
      "count": 4,
      "type": "VEC3"
    },
    {
      "bufferView": 0,
      "byteOffset": 24,
      "componentType": 5126,
      "normalized": false,
      "count": 4,
      "type": "VEC2"
    },
    {
      "bufferView": 0,
      "byteOffset": 32,
      "componentType": 5126,
      "normalized": false,
      "count": 4,
      "type": "VEC2"
    },
    {
      "bufferView": 0,
      "byteOffset": 40,
      "componentType": 5126,
      "normalized": false,
      "count": 4,
      "type": "VEC4"
    },
    {
      "bufferView": 1,
      "byteOffset": 0,
      "componentType": 5126,
      "normalized": false,
      "count": 4,
      "type": "VEC2"
    },
    {
      "bufferView": 2,
      "byteOffset": 0,
      "componentType": 5126,
      "normalized": false,
      "count": 4,
      "type": "VEC2"
    },
    {
      "bufferView": 2,
      "byteOffset": 8,
      "componentType": 5126,
      "normalized": false,
      "count": 4,
      "type": "VEC4"
    },
    {
      "bufferView": 3,
      "byteOffset": 0,
      "componentType": 5126,
      "normalized": false,
      "count": 4,
      "type": "VEC3",
      "max": [
        0.9999999403953552,
        1.0,
        0.0
      ],
      "min": [
        -0.9999999403953552,
        -1.399999976158142,
        0.0
      ]
    },
    {
      "bufferView": 3,
      "byteOffset": 12,
      "componentType": 5126,
      "normalized": false,
      "count": 4,
      "type": "VEC3"
    },
    {
      "bufferView": 4,
      "byteOffset": 0,
      "componentType": 5126,
      "normalized": false,
      "count": 48,
      "type": "VEC3",
      "max": [
        0.8163908123970032,
        0.9983971118927002,
        0.0
      ],
      "min": [
        -0.9999999403953552,
        -1.3177802562713623,
        0.0
      ]
    },
    {
      "bufferView": 4,
      "byteOffset": 12,
      "componentType": 5126,
      "normalized": false,
      "count": 48,
      "type": "VEC3"
    },
    {
      "bufferView": 4,
      "byteOffset": 24,
      "componentType": 5126,
      "normalized": false,
      "count": 48,
      "type": "VEC2"
    },
    {
      "bufferView": 4,
      "byteOffset": 32,
      "componentType": 5126,
      "normalized": false,
      "count": 48,
      "type": "VEC4"
    },
    {
      "bufferView": 5,
      "byteOffset": 0,
      "componentType": 5126,
      "normalized": false,
      "count": 361,
      "type": "VEC3",
      "max": [
        0.10000002384185791,
        0.10000002384185791,
        0.035051580518484116
      ],
      "min": [
        -0.10000002384185791,
        -0.10000002384185791,
        -0.014266523532569408
      ]
    },
    {
      "bufferView": 5,
      "byteOffset": 12,
      "componentType": 5126,
      "normalized": false,
      "count": 361,
      "type": "VEC3"
    },
    {
      "bufferView": 5,
      "byteOffset": 24,
      "componentType": 5126,
      "normalized": false,
      "count": 361,
      "type": "VEC2"
    },
    {
      "bufferView": 5,
      "byteOffset": 32,
      "componentType": 5126,
      "normalized": false,
      "count": 361,
      "type": "VEC2"
    },
    {
      "bufferView": 5,
      "byteOffset": 40,
      "componentType": 5126,
      "normalized": false,
      "count": 361,
      "type": "VEC4"
    },
    {
      "bufferView": 6,
      "byteOffset": 0,
      "componentType": 5126,
      "normalized": false,
      "count": 361,
      "type": "VEC3",
      "max": [
        0.10000002384185791,
        0.10000002384185791,
        0.03505159914493561
      ],
      "min": [
        -0.10000002384185791,
        -0.10000002384185791,
        -0.014266500249505043
      ]
    },
    {
      "bufferView": 6,
      "byteOffset": 12,
      "componentType": 5126,
      "normalized": false,
      "count": 361,
      "type": "VEC3"
    },
    {
      "bufferView": 6,
      "byteOffset": 24,
      "componentType": 5126,
      "normalized": false,
      "count": 361,
      "type": "VEC2"
    },
    {
      "bufferView": 6,
      "byteOffset": 32,
      "componentType": 5126,
      "normalized": false,
      "count": 361,
      "type": "VEC4"
    },
    {
      "bufferView": 7,
      "byteOffset": 0,
      "componentType": 5126,
      "normalized": false,
      "count": 361,
      "type": "VEC3",
      "max": [
        0.10000002384185791,
        0.10000002384185791,
        0.03505159914493561
      ],
      "min": [
        -0.10000002384185791,
        -0.10000002384185791,
        -0.014266500249505043
      ]
    },
    {
      "bufferView": 7,
      "byteOffset": 12,
      "componentType": 5126,
      "normalized": false,
      "count": 361,
      "type": "VEC2"
    },
    {
      "bufferView": 7,
      "byteOffset": 20,
      "componentType": 5126,
      "normalized": false,
      "count": 361,
      "type": "VEC4"
    },
    {
      "bufferView": 8,
      "byteOffset": 0,
      "componentType": 5126,
      "normalized": false,
      "count": 361,
      "type": "VEC3",
      "max": [
        0.10000002384185791,
        0.10000002384185791,
        0.03505159914493561
      ],
      "min": [
        -0.10000002384185791,
        -0.10000002384185791,
        -0.014266500249505043
      ]
    },
    {
      "bufferView": 8,
      "byteOffset": 12,
      "componentType": 5126,
      "normalized": false,
      "count": 361,
      "type": "VEC4"
    },
    {
      "bufferView": 9,
      "byteOffset": 0,
      "componentType": 5126,
      "normalized": false,
      "count": 361,
      "type": "VEC3",
      "max": [
        0.10000002384185791,
        0.10000002384185791,
        0.03505159914493561
      ],
      "min": [
        -0.10000002384185791,
        -0.10000002384185791,
        -0.014266500249505043
      ]
    },
    {
      "bufferView": 9,
      "byteOffset": 12,
      "componentType": 5126,
      "normalized": false,
      "count": 361,
      "type": "VEC4"
    },
    {
      "bufferView": 10,
      "byteOffset": 0,
      "componentType": 5126,
      "normalized": false,
      "count": 361,
      "type": "VEC3",
      "max": [
        0.10000002384185791,
        0.10000002384185791,
        0.03505159914493561
      ],
      "min": [
        -0.10000002384185791,
        -0.10000002384185791,
        -0.014266500249505043
      ]
    },
    {
      "bufferView": 10,
      "byteOffset": 12,
      "componentType": 5126,
      "normalized": false,
      "count": 361,
      "type": "VEC4"
    },
    {
      "bufferView": 13,
      "byteOffset": 3888,
      "componentType": 5123,
      "normalized": false,
      "count": 972,
      "type": "SCALAR"
    },
    {
      "bufferView": 13,
      "byteOffset": 5832,
      "componentType": 5123,
      "normalized": false,
      "count": 486,
      "type": "SCALAR"
    }
  ],
  "asset": {
    "generator": "GDS lod baker 1",
    "copyright": "Copyright 2020 Analytical Graphics, Inc, CC-BY 4.0 https://creativecommons.org/licenses/by/4.0/ - Model and textures by Ed Mackey.",
    "version": "2.0"
  },
  "bufferViews": [
    {
      "buffer": 0,
      "byteOffset": 0,
      "byteLength": 224,
      "byteStride": 56,
      "target": 34962
    },
    {
      "buffer": 0,
      "byteOffset": 224,
      "byteLength": 32,
      "byteStride": 8,
      "target": 34962
    },
    {
      "buffer": 0,
      "byteOffset": 256,
      "byteLength": 96,
      "byteStride": 24,
      "target": 34962
    },
    {
      "buffer": 0,
      "byteOffset": 352,
      "byteLength": 96,
      "byteStride": 24,
      "target": 34962
    },
    {
      "buffer": 0,
      "byteOffset": 448,
      "byteLength": 2304,
      "byteStride": 48,
      "target": 34962
    },
    {
      "buffer": 0,
      "byteOffset": 2752,
      "byteLength": 20216,
      "byteStride": 56,
      "target": 34962
    },
    {
      "buffer": 0,
      "byteOffset": 22968,
      "byteLength": 17328,
      "byteStride": 48,
      "target": 34962
    },
    {
      "buffer": 0,
      "byteOffset": 40296,
      "byteLength": 12996,
      "byteStride": 36,
      "target": 34962
    },
    {
      "buffer": 0,
      "byteOffset": 53292,
      "byteLength": 10108,
      "byteStride": 28,
      "target": 34962
    },
    {
      "buffer": 0,
      "byteOffset": 63400,
      "byteLength": 10108,
      "byteStride": 28,
      "target": 34962
    },
    {
      "buffer": 0,
      "byteOffset": 73508,
      "byteLength": 10108,
      "byteStride": 28,
      "target": 34962
    },
    {
      "buffer": 0,
      "byteOffset": 83616,
      "byteLength": 12,
      "target": 34963
    },
    {
      "buffer": 0,
      "byteOffset": 83628,
      "byteLength": 144,
      "target": 34963
    },
    {
      "buffer": 0,
      "byteOffset": 83772,
      "byteLength": 6804,
      "target": 34963
    }
  ],
  "buffers": [
    {
      "uri": "TextureTransformMultiTestLOD.bin",
      "byteLength": 90576
    }
  ],
  "extensionsUsed": [
    "KHR_materials_clearcoat",
    "KHR_materials_unlit",
    "KHR_texture_transform",
    "NG2_mesh_lod"
  ],
  "extensionsRequired": [
    "KHR_texture_transform"
  ],
  "images": [
    {
      "uri": "TestMap.png",
      "mimeType": "image/png",
      "name": "TestMap"
    },
    {
      "uri": "TTMT_Labels.png",
      "mimeType": "image/png",
      "name": "TTMT_Labels"
    },
    {
      "uri": "TestMap_Normal.png",
      "mimeType": "image/png",
      "name": "TestMap_Normal"
    },
    {
      "uri": "TestMap-1.png",
      "mimeType": "image/png",
      "name": "TestMap"
    }
  ],
  "materials": [
    {
      "pbrMetallicRoughness": {
        "baseColorFactor": [
          1.0,
          1.0,
          1.0,
          1.0
        ],
        "metallicFactor": 0.0,
        "roughnessFactor": 1.0,
        "baseColorTexture": {
          "extensions": {
            "KHR_texture_transform": {
              "offset": [
                0.7049999535083774,
                0.28500004152502995
              ],
              "rotation": 1.5707963705062866,
              "scale": [
                0.3499999940395355,
                0.3499999940395355
              ]
            }
          },
          "index": 0,
          "texCoord": 0
        }
      },
      "emissiveFactor": [
        0.0,
        0.0,
        0.0
      ],
      "alphaMode": "OPAQUE",
      "doubleSided": false,
      "name": "BaseColorTest0Mat"
    },
    {
      "pbrMetallicRoughness": {
        "baseColorFactor": [
          1.0,
          1.0,
          1.0,
          1.0
        ],
        "metallicFactor": 0.0,
        "roughnessFactor": 1.0,
        "baseColorTexture": {
          "extensions": {
            "KHR_texture_transform": {
              "offset": [
                0.7049999535083774,
                0.28500004152502995
              ],
              "rotation": 1.5707963705062866,
              "scale": [
                0.3499999940395355,
                0.3499999940395355
              ]
            }
          },
          "index": 0,
          "texCoord": 1
        }
      },
      "emissiveFactor": [
        0.0,
        0.0,
        0.0
      ],
      "alphaMode": "OPAQUE",
      "doubleSided": false,
      "name": "BaseColorTest1Mat"
    },
    {
      "pbrMetallicRoughness": {
        "baseColorFactor": [
          1.0,
          1.0,
          1.0,
          1.0
        ],
        "metallicFactor": 0.0,
        "roughnessFactor": 1.0,
        "baseColorTexture": {
          "index": 0,
          "texCoord": 0
        }
      },
      "emissiveFactor": [
        0.0,
        0.0,
        0.0
      ],
      "alphaMode": "OPAQUE",
      "doubleSided": false,
      "name": "BaseColorSampleMat"
    },
    {
      "pbrMetallicRoughness": {
        "baseColorFactor": [
          0.007408552337437868,
          0.07486194372177124,
          0.4639684557914734,
          1.0
        ],
        "metallicFactor": 0.0,
        "roughnessFactor": 1.0
      },
      "emissiveFactor": [
        0.0,
        0.0,
        0.0
      ],
      "alphaMode": "OPAQUE",
      "doubleSided": true,
      "name": "BackgroundMat"
    },
    {
      "pbrMetallicRoughness": {
        "baseColorFactor": [
          1.0,
          1.0,
          1.0,
          1.0
        ],
        "metallicFactor": 0.0,
        "roughnessFactor": 1.0,
        "baseColorTexture": {
          "index": 1,
          "texCoord": 0
        }
      },
      "emissiveFactor": [
        0.0,
        0.0,
        0.0
      ],
      "alphaMode": "OPAQUE",
      "doubleSided": true,
      "name": "LabelMat"
    },
    {
      "pbrMetallicRoughness": {
        "baseColorFactor": [
          0.0,
          0.15000000596046448,
          0.0,
          1.0
        ],
        "metallicFactor": 0.0,
        "roughnessFactor": 1.0
      },
      "emissiveFactor": [
        1.0,
        1.0,
        1.0
      ],
      "emissiveTexture": {
        "extensions": {
          "KHR_texture_transform": {
            "offset": [
              0.7049999535083774,
              0.28500004152502995
            ],
            "rotation": 1.5707963705062866,
            "scale": [
              0.3499999940395355,
              0.3499999940395355
            ]
          }
        },
        "index": 0,
        "texCoord": 0
      },
      "alphaMode": "OPAQUE",
      "doubleSided": false,
      "name": "EmissionTest0Mat"
    },
    {
      "pbrMetallicRoughness": {
        "baseColorFactor": [
          0.0,
          0.15000000596046448,
          0.0,
          1.0
        ],
        "metallicFactor": 0.0,
        "roughnessFactor": 1.0
      },
      "emissiveFactor": [
        1.0,
        1.0,
        1.0
      ],
      "emissiveTexture": {
        "extensions": {
          "KHR_texture_transform": {
            "offset": [
              0.7049999535083774,
              0.28500004152502995
            ],
            "rotation": 1.5707963705062866,
            "scale": [
              0.3499999940395355,
              0.3499999940395355
            ]
          }
        },
        "index": 0,
        "texCoord": 1
      },
      "alphaMode": "OPAQUE",
      "doubleSided": false,
      "name": "EmissionTest1Mat"
    },
    {
      "pbrMetallicRoughness": {
        "baseColorFactor": [
          0.0,
          0.15000000596046448,
          0.0,
          1.0
        ],
        "metallicFactor": 0.0,
        "roughnessFactor": 1.0
      },
      "emissiveFactor": [
        1.0,
        1.0,
        1.0
      ],
      "emissiveTexture": {
        "index": 0,
        "texCoord": 0
      },
      "alphaMode": "OPAQUE",
      "doubleSided": false,
      "name": "EmissionSampleMat"
    },
    {
      "pbrMetallicRoughness": {
        "baseColorFactor": [
          0.800000011920929,
          0.800000011920929,
          0.800000011920929,
          1.0
        ],
        "metallicFactor": 0.0,
        "roughnessFactor": 0.10000000149011612
      },
      "normalTexture": {
        "extensions": {
          "KHR_texture_transform": {
            "offset": [
              0.7049999535083774,
              0.28500004152502995
            ],
            "rotation": 1.5707963705062866,
            "scale": [
              0.3499999940395355,
              0.3499999940395355
            ]
          }
        },
        "index": 2,
        "scale": 1.0
      },
      "emissiveFactor": [
        0.0,
        0.0,
        0.0
      ],
      "alphaMode": "OPAQUE",
      "doubleSided": false,
      "name": "NormalTest0Mat"
    },
    {
      "pbrMetallicRoughness": {
        "baseColorFactor": [
          0.800000011920929,
          0.800000011920929,
          0.800000011920929,
          1.0
        ],
        "metallicFactor": 0.0,
        "roughnessFactor": 0.10000000149011612
      },
      "normalTexture": {
        "extensions": {
          "KHR_texture_transform": {
            "offset": [
              0.7049999535083774,
              0.28500004152502995
            ],
            "rotation": 1.5707963705062866,
            "scale": [
              0.3499999940395355,
              0.3499999940395355
            ]
          }
        },
        "index": 2,
        "texCoord": 1,
        "scale": 1.0
      },
      "emissiveFactor": [
        0.0,
        0.0,
        0.0
      ],
      "alphaMode": "OPAQUE",
      "doubleSided": false,
      "name": "NormalTest1Mat"
    },
    {
      "pbrMetallicRoughness": {
        "baseColorFactor": [
          0.800000011920929,
          0.800000011920929,
          0.800000011920929,
          1.0
        ],
        "metallicFactor": 0.0,
        "roughnessFactor": 0.10000000149011612
      },
      "normalTexture": {
        "index": 2,
        "scale": 1.0
      },
      "emissiveFactor": [
        0.0,
        0.0,
        0.0
      ],
      "alphaMode": "OPAQUE",
      "doubleSided": false,
      "name": "NormalSampleMat"
    },
    {
      "pbrMetallicRoughness": {
        "baseColorFactor": [
          0.800000011920929,
          0.800000011920929,
          0.800000011920929,
          1.0
        ],
        "metallicFactor": 1.0,
        "roughnessFactor": 1.0,
        "metallicRoughnessTexture": {
          "extensions": {
            "KHR_texture_transform": {
              "offset": [
                0.7049999535083774,
                0.28500004152502995
              ],
              "rotation": 1.5707963705062866,
              "scale": [
                0.3499999940395355,
                0.3499999940395355
              ]
            }
          },
          "index": 0,
          "texCoord": 0
        }
      },
      "emissiveFactor": [
        0.0,
        0.0,
        0.0
      ],
      "alphaMode": "OPAQUE",
      "doubleSided": false,
      "name": "MetalRoughTest0Mat"
    },
    {
      "pbrMetallicRoughness": {
        "baseColorFactor": [
          0.800000011920929,
          0.800000011920929,
          0.800000011920929,
          1.0
        ],
        "metallicFactor": 1.0,
        "roughnessFactor": 1.0,
        "metallicRoughnessTexture": {
          "extensions": {
            "KHR_texture_transform": {
              "offset": [
                0.7049999535083774,
                0.28500004152502995
              ],
              "rotation": 1.5707963705062866,
              "scale": [
                0.3499999940395355,
                0.3499999940395355
              ]
            }
          },
          "index": 0,
          "texCoord": 1
        }
      },
      "emissiveFactor": [
        0.0,
        0.0,
        0.0
      ],
      "alphaMode": "OPAQUE",
      "doubleSided": false,
      "name": "MetalRoughTest1Mat"
    },
    {
      "pbrMetallicRoughness": {
        "baseColorFactor": [
          0.800000011920929,
          0.800000011920929,
          0.800000011920929,
          1.0
        ],
        "metallicFactor": 1.0,
        "roughnessFactor": 1.0,
        "metallicRoughnessTexture": {
          "index": 0,
          "texCoord": 0
        }
      },
      "emissiveFactor": [
        0.0,
        0.0,
        0.0
      ],
      "alphaMode": "OPAQUE",
      "doubleSided": false,
      "name": "MetalRoughSampleMat"
    },
    {
      "pbrMetallicRoughness": {
        "baseColorFactor": [
          0.800000011920929,
          0.800000011920929,
          0.800000011920929,
          1.0
        ],
        "metallicFactor": 0.0,
        "roughnessFactor": 1.0
      },
      "occlusionTexture": {
        "extensions": {
          "KHR_texture_transform": {
            "offset": [
              0.7049999535083774,
              0.28500004152502995
            ],
            "rotation": 1.5707963705062866,
            "scale": [
              0.3499999940395355,
              0.3499999940395355
            ]
          }
        },
        "index": 0,
        "strength": 1.0
      },
      "emissiveFactor": [
        0.0,
        0.0,
        0.0
      ],
      "alphaMode": "OPAQUE",
      "doubleSided": false,
      "name": "OcclusionTest0Mat"
    },
    {
      "pbrMetallicRoughness": {
        "baseColorFactor": [
          0.800000011920929,
          0.800000011920929,
          0.800000011920929,
          1.0
        ],
        "metallicFactor": 0.0,
        "roughnessFactor": 1.0
      },
      "occlusionTexture": {
        "extensions": {
          "KHR_texture_transform": {
            "offset": [
              0.7049999535083774,
              0.28500004152502995
            ],
            "rotation": 1.5707963705062866,
            "scale": [
              0.3499999940395355,
              0.3499999940395355
            ]
          }
        },
        "index": 0,
        "texCoord": 1,
        "strength": 1.0
      },
      "emissiveFactor": [
        0.0,
        0.0,
        0.0
      ],
      "alphaMode": "OPAQUE",
      "doubleSided": false,
      "name": "OcclusionTest1Mat"
    },
    {
      "pbrMetallicRoughness": {
        "baseColorFactor": [
          0.800000011920929,
          0.800000011920929,
          0.800000011920929,
          1.0
        ],
        "metallicFactor": 0.0,
        "roughnessFactor": 1.0
      },
      "occlusionTexture": {
        "index": 0,
        "strength": 1.0
      },
      "emissiveFactor": [
        0.0,
        0.0,
        0.0
      ],
      "alphaMode": "OPAQUE",
      "doubleSided": false,
      "name": "OcclusionSampleMat"
    },
    {
      "extensions": {
        "KHR_materials_unlit": {}
      },
      "pbrMetallicRoughness": {
        "baseColorFactor": [
          1.0,
          1.0,
          1.0,
          1.0
        ],
        "metallicFactor": 1.0,
        "roughnessFactor": 1.0,
        "baseColorTexture": {
          "extensions": {
            "KHR_texture_transform": {
              "offset": [
                0.7049999535083774,
                0.28500004152502995
              ],
              "rotation": 1.5707963705062866,
              "scale": [
                0.3499999940395355,
                0.3499999940395355
              ]
            }
          },
          "index": 0,
          "texCoord": 0
        }
      },
      "emissiveFactor": [
        0.0,
        0.0,
        0.0
      ],
      "alphaMode": "OPAQUE",
      "doubleSided": false,
      "name": "UnlitTest0Mat"
    },
    {
      "extensions": {
        "KHR_materials_unlit": {}
      },
      "pbrMetallicRoughness": {
        "baseColorFactor": [
          1.0,
          1.0,
          1.0,
          1.0
        ],
        "metallicFactor": 1.0,
        "roughnessFactor": 1.0,
        "baseColorTexture": {
          "extensions": {
            "KHR_texture_transform": {
              "offset": [
                0.7049999535083774,
                0.28500004152502995
              ],
              "rotation": 1.5707963705062866,
              "scale": [
                0.3499999940395355,
                0.3499999940395355
              ]
            }
          },
          "index": 0,
          "texCoord": 1
        }
      },
      "emissiveFactor": [
        0.0,
        0.0,
        0.0
      ],
      "alphaMode": "OPAQUE",
      "doubleSided": false,
      "name": "UnlitTest1Mat"
    },
    {
      "extensions": {
        "KHR_materials_unlit": {}
      },
      "pbrMetallicRoughness": {
        "baseColorFactor": [
          1.0,
          1.0,
          1.0,
          1.0
        ],
        "metallicFactor": 1.0,
        "roughnessFactor": 1.0,
        "baseColorTexture": {
          "index": 0,
          "texCoord": 0
        }
      },
      "emissiveFactor": [
        0.0,
        0.0,
        0.0
      ],
      "alphaMode": "OPAQUE",
      "doubleSided": false,
      "name": "UnlitSampleMat"
    },
    {
      "extensions": {
        "KHR_materials_clearcoat": {
          "clearcoatFactor": 1,
          "clearcoatRoughnessFactor": 0.029999999329447746,
          "clearcoatTexture": {
            "index": 0,
            "extensions": {
              "KHR_texture_transform": {
                "offset": [
                  0.7049999535083774,
                  0.28500004152502995
                ],
                "rotation": 1.5707963705062866,
                "scale": [
                  0.3499999940395355,
                  0.3499999940395355
                ]
              }
            }
          }
        }
      },
      "pbrMetallicRoughness": {
        "baseColorFactor": [
          0.0040703266859054565,
          0.030168700963258743,
          0.16859287023544312,
          1.0
        ],
        "metallicFactor": 1.0,
        "roughnessFactor": 1.0
      },
      "emissiveFactor": [
        0.0,
        0.0,
        0.0
      ],
      "alphaMode": "OPAQUE",
      "doubleSided": false,
      "name": "ClearcoatTest0Mat"
    },
    {
      "extensions": {
        "KHR_materials_clearcoat": {
          "clearcoatFactor": 1,
          "clearcoatRoughnessFactor": 0.029999999329447746,
          "clearcoatTexture": {
            "index": 0,
            "texCoord": 1,
            "extensions": {
              "KHR_texture_transform": {
                "offset": [
                  0.7049999535083774,
                  0.28500004152502995
                ],
                "rotation": 1.5707963705062866,
                "scale": [
                  0.3499999940395355,
                  0.3499999940395355
                ]
              }
            }
          }
        }
      },
      "pbrMetallicRoughness": {
        "baseColorFactor": [
          0.0040703266859054565,
          0.030168700963258743,
          0.16859287023544312,
          1.0
        ],
        "metallicFactor": 1.0,
        "roughnessFactor": 1.0
      },
      "emissiveFactor": [
        0.0,
        0.0,
        0.0
      ],
      "alphaMode": "OPAQUE",
      "doubleSided": false,
      "name": "ClearcoatTest1Mat"
    },
    {
      "extensions": {
        "KHR_materials_clearcoat": {
          "clearcoatFactor": 1,
          "clearcoatRoughnessFactor": 0.029999999329447746,
          "clearcoatTexture": {
            "index": 0
          }
        }
      },
      "pbrMetallicRoughness": {
        "baseColorFactor": [
          0.0040703266859054565,
          0.030168700963258743,
          0.16859287023544312,
          1.0
        ],
        "metallicFactor": 1.0,
        "roughnessFactor": 1.0
      },
      "emissiveFactor": [
        0.0,
        0.0,
        0.0
      ],
      "alphaMode": "OPAQUE",
      "doubleSided": false,
      "name": "ClearcoatSampleMat"
    },
    {
      "extensions": {
        "KHR_materials_clearcoat": {
          "clearcoatFactor": 1,
          "clearcoatRoughnessFactor": 1,
          "clearcoatRoughnessTexture": {
            "index": 3,
            "extensions": {
              "KHR_texture_transform": {
                "offset": [
                  0.7049999535083774,
                  0.28500004152502995
                ],
                "rotation": 1.5707963705062866,
                "scale": [
                  0.3499999940395355,
                  0.3499999940395355
                ]
              }
            }
          }
        }
      },
      "pbrMetallicRoughness": {
        "baseColorFactor": [
          0.0040703266859054565,
          0.030168700963258743,
          0.16859287023544312,
          1.0
        ],
        "metallicFactor": 1.0,
        "roughnessFactor": 1.0
      },
      "emissiveFactor": [
        0.0,
        0.0,
        0.0
      ],
      "alphaMode": "OPAQUE",
      "doubleSided": false,
      "name": "ClearcoatRoughTest0Mat"
    },
    {
      "extensions": {
        "KHR_materials_clearcoat": {
          "clearcoatFactor": 1,
          "clearcoatRoughnessFactor": 1,
          "clearcoatRoughnessTexture": {
            "index": 3,
            "texCoord": 1,
            "extensions": {
              "KHR_texture_transform": {
                "offset": [
                  0.7049999535083774,
                  0.28500004152502995
                ],
                "rotation": 1.5707963705062866,
                "scale": [
                  0.3499999940395355,
                  0.3499999940395355
                ]
              }
            }
          }
        }
      },
      "pbrMetallicRoughness": {
        "baseColorFactor": [
          0.0040703266859054565,
          0.030168700963258743,
          0.16859287023544312,
          1.0
        ],
        "metallicFactor": 1.0,
        "roughnessFactor": 1.0
      },
      "emissiveFactor": [
        0.0,
        0.0,
        0.0
      ],
      "alphaMode": "OPAQUE",
      "doubleSided": false,
      "name": "ClearcoatRoughTest1Mat"
    },
    {
      "extensions": {
        "KHR_materials_clearcoat": {
          "clearcoatFactor": 1,
          "clearcoatRoughnessFactor": 1,
          "clearcoatRoughnessTexture": {
            "index": 3
          }
        }
      },
      "pbrMetallicRoughness": {
        "baseColorFactor": [
          0.0040703266859054565,
          0.030168700963258743,
          0.16859287023544312,
          1.0
        ],
        "metallicFactor": 1.0,
        "roughnessFactor": 1.0
      },
      "emissiveFactor": [
        0.0,
        0.0,
        0.0
      ],
      "alphaMode": "OPAQUE",
      "doubleSided": false,
      "name": "ClearcoatRoughSampleMat"
    },
    {
      "extensions": {
        "KHR_materials_clearcoat": {
          "clearcoatFactor": 1,
          "clearcoatRoughnessFactor": 0.029999999329447746,
          "clearcoatNormalTexture": {
            "index": 2,
            "extensions": {
              "KHR_texture_transform": {
                "offset": [
                  0.7049999535083774,
                  0.28500004152502995
                ],
                "rotation": 1.5707963705062866,
                "scale": [
                  0.3499999940395355,
                  0.3499999940395355
                ]
              }
            }
          }
        }
      },
      "pbrMetallicRoughness": {
        "baseColorFactor": [
          0.0040703266859054565,
          0.030168700963258743,
          0.16859287023544312,
          1.0
        ],
        "metallicFactor": 1.0,
        "roughnessFactor": 1.0
      },
      "emissiveFactor": [
        0.0,
        0.0,
        0.0
      ],
      "alphaMode": "OPAQUE",
      "doubleSided": false,
      "name": "ClearcoatNormalTest0Mat"
    },
    {
      "extensions": {
        "KHR_materials_clearcoat": {
          "clearcoatFactor": 1,
          "clearcoatRoughnessFactor": 0.029999999329447746,
          "clearcoatNormalTexture": {
            "index": 2,
            "texCoord": 1,
            "extensions": {
              "KHR_texture_transform": {
                "offset": [
                  0.7049999535083774,
                  0.28500004152502995
                ],
                "rotation": 1.5707963705062866,
                "scale": [
                  0.3499999940395355,
                  0.3499999940395355
                ]
              }
            }
          }
        }
      },
      "pbrMetallicRoughness": {
        "baseColorFactor": [
          0.0040703266859054565,
          0.030168700963258743,
          0.16859287023544312,
          1.0
        ],
        "metallicFactor": 1.0,
        "roughnessFactor": 1.0
      },
      "emissiveFactor": [
        0.0,
        0.0,
        0.0
      ],
      "alphaMode": "OPAQUE",
      "doubleSided": false,
      "name": "ClearcoatNormalTest1Mat"
    },
    {
      "extensions": {
        "KHR_materials_clearcoat": {
          "clearcoatFactor": 1,
          "clearcoatRoughnessFactor": 0.029999999329447746,
          "clearcoatNormalTexture": {
            "index": 2
          }
        }
      },
      "pbrMetallicRoughness": {
        "baseColorFactor": [
          0.0040703266859054565,
          0.030168700963258743,
          0.16859287023544312,
          1.0
        ],
        "metallicFactor": 1.0,
        "roughnessFactor": 1.0
      },
      "emissiveFactor": [
        0.0,
        0.0,
        0.0
      ],
      "alphaMode": "OPAQUE",
      "doubleSided": false,
      "name": "ClearcoatNormalSampleMat"
    }
  ],
  "meshes": [
    {
      "primitives": [
        {
          "attributes": {
            "POSITION": 3,
            "NORMAL": 4,
            "TANGENT": 7,
            "TEXCOORD_0": 5,
            "TEXCOORD_1": 6
          },
          "indices": 0,
          "mode": 4,
          "material": 0
        }
      ],
      "name": "BaseColorUV0"
    },
    {
      "primitives": [
        {
          "attributes": {
            "POSITION": 3,
            "NORMAL": 4,
            "TANGENT": 7,
            "TEXCOORD_0": 8,
            "TEXCOORD_1": 5
          },
          "indices": 0,
          "mode": 4,
          "material": 1
        }
      ],
      "name": "BaseColorUV1"
    },
    {
      "primitives": [
        {
          "attributes": {
            "POSITION": 3,
            "NORMAL": 4,
            "TANGENT": 10,
            "TEXCOORD_0": 9
          },
          "indices": 0,
          "mode": 4,
          "material": 2
        }
      ],
      "name": "BaseColorSample"
    },
    {
      "primitives": [
        {
          "attributes": {
            "POSITION": 11,
            "NORMAL": 12
          },
          "indices": 0,
          "mode": 4,
          "material": 3
        }
      ],
      "name": "BackgroundMesh"
    },
    {
      "primitives": [
        {
          "attributes": {
            "POSITION": 13,
            "NORMAL": 14,
            "TANGENT": 16,
            "TEXCOORD_0": 15
          },
          "indices": 1,
          "mode": 4,
          "material": 4
        }
      ],
      "name": "LabelMesh"
    },
    {
      "primitives": [
        {
          "attributes": {
            "POSITION": 3,
            "NORMAL": 4,
            "TANGENT": 7,
            "TEXCOORD_0": 5,
            "TEXCOORD_1": 6
          },
          "indices": 0,
          "mode": 4,
          "material": 5
        }
      ],
      "name": "EmissionUV0"
    },
    {
      "primitives": [
        {
          "attributes": {
            "POSITION": 3,
            "NORMAL": 4,
            "TANGENT": 7,
            "TEXCOORD_0": 8,
            "TEXCOORD_1": 5
          },
          "indices": 0,
          "mode": 4,
          "material": 6
        }
      ],
      "name": "EmissionUV1"
    },
    {
      "primitives": [
        {
          "attributes": {
            "POSITION": 3,
            "NORMAL": 4,
            "TANGENT": 10,
            "TEXCOORD_0": 9
          },
          "indices": 0,
          "mode": 4,
          "material": 7
        }
      ],
      "name": "EmissionSample"
    },
    {
      "primitives": [
        {
          "attributes": {
            "POSITION": 3,
            "NORMAL": 4,
            "TANGENT": 7,
            "TEXCOORD_0": 5,
            "TEXCOORD_1": 6
          },
          "indices": 0,
          "mode": 4,
          "material": 8
        }
      ],
      "name": "NormalUV0"
    },
    {
      "primitives": [
        {
          "attributes": {
            "POSITION": 3,
            "NORMAL": 4,
            "TANGENT": 7,
            "TEXCOORD_0": 8,
            "TEXCOORD_1": 5
          },
          "indices": 0,
          "mode": 4,
          "material": 9
        }
      ],
      "name": "NormalUV1"
    },
    {
      "primitives": [
        {
          "attributes": {
            "POSITION": 3,
            "NORMAL": 4,
            "TANGENT": 10,
            "TEXCOORD_0": 9
          },
          "indices": 0,
          "mode": 4,
          "material": 10
        }
      ],
      "name": "NormalSample"
    },
    {
      "primitives": [
        {
          "attributes": {
            "POSITION": 3,
            "NORMAL": 4,
            "TANGENT": 7,
            "TEXCOORD_0": 5,
            "TEXCOORD_1": 6
          },
          "indices": 0,
          "mode": 4,
          "material": 11
        }
      ],
      "name": "MetalRoughUV0"
    },
    {
      "primitives": [
        {
          "attributes": {
            "POSITION": 3,
            "NORMAL": 4,
            "TANGENT": 7,
            "TEXCOORD_0": 8,
            "TEXCOORD_1": 5
          },
          "indices": 0,
          "mode": 4,
          "material": 12
        }
      ],
      "name": "MetalRoughUV1"
    },
    {
      "primitives": [
        {
          "attributes": {
            "POSITION": 3,
            "NORMAL": 4,
            "TANGENT": 10,
            "TEXCOORD_0": 9
          },
          "indices": 0,
          "mode": 4,
          "material": 13
        }
      ],
      "name": "MetalRoughSample"
    },
    {
      "primitives": [
        {
          "attributes": {
            "POSITION": 3,
            "NORMAL": 4,
            "TANGENT": 7,
            "TEXCOORD_0": 5,
            "TEXCOORD_1": 6
          },
          "indices": 0,
          "mode": 4,
          "material": 14
        }
      ],
      "name": "OcclusionUV0"
    },
    {
      "primitives": [
        {
          "attributes": {
            "POSITION": 3,
            "NORMAL": 4,
            "TANGENT": 7,
            "TEXCOORD_0": 8,
            "TEXCOORD_1": 5
          },
          "indices": 0,
          "mode": 4,
          "material": 15
        }
      ],
      "name": "OcclusionUV1"
    },
    {
      "primitives": [
        {
          "attributes": {
            "POSITION": 3,
            "NORMAL": 4,
            "TANGENT": 10,
            "TEXCOORD_0": 9
          },
          "indices": 0,
          "mode": 4,
          "material": 16
        }
      ],
      "name": "OcclusionSample"
    },
    {
      "primitives": [
        {
          "attributes": {
            "POSITION": 3,
            "NORMAL": 4,
            "TANGENT": 7,
            "TEXCOORD_0": 5,
            "TEXCOORD_1": 6
          },
          "indices": 0,
          "mode": 4,
          "material": 17
        }
      ],
      "name": "UnlitUV0"
    },
    {
      "primitives": [
        {
          "attributes": {
            "POSITION": 3,
            "NORMAL": 4,
            "TANGENT": 7,
            "TEXCOORD_0": 8,
            "TEXCOORD_1": 5
          },
          "indices": 0,
          "mode": 4,
          "material": 18
        }
      ],
      "name": "UnlitUV1"
    },
    {
      "primitives": [
        {
          "attributes": {
            "POSITION": 3,
            "NORMAL": 4,
            "TANGENT": 10,
            "TEXCOORD_0": 9
          },
          "indices": 0,
          "mode": 4,
          "material": 19
        }
      ],
      "name": "UnlitSample"
    },
    {
      "primitives": [
        {
          "extensions": {
            "NG2_mesh_lod": {
              "levels": [
                {
                  "indices": 35,
                  "error": 0.000439
                },
                {
                  "indices": 36,
                  "error": 0.001482
                }
              ]
            }
          },
          "attributes": {
            "POSITION": 17,
            "NORMAL": 18,
            "TANGENT": 21,
            "TEXCOORD_0": 19,
            "TEXCOORD_1": 20
          },
          "indices": 2,
          "mode": 4,
          "material": 20
        }
      ],
      "name": "ClearcoatUV0"
    },
    {
      "primitives": [
        {
          "extensions": {
            "NG2_mesh_lod": {
              "levels": [
                {
                  "indices": 35,
                  "error": 0.000439
                },
                {
                  "indices": 36,
                  "error": 0.001482
                }
              ]
            }
          },
          "attributes": {
            "POSITION": 22,
            "NORMAL": 23,
            "TANGENT": 25,
            "TEXCOORD_0": 24,
            "TEXCOORD_1": 19
          },
          "indices": 2,
          "mode": 4,
          "material": 21
        }
      ],
      "name": "ClearcoatUV1"
    },
    {
      "primitives": [
        {
          "extensions": {
            "NG2_mesh_lod": {
              "levels": [
                {
                  "indices": 35,
                  "error": 0.000439
                },
                {
                  "indices": 36,
                  "error": 0.001482
                }
              ]
            }
          },
          "attributes": {
            "POSITION": 26,
            "NORMAL": 23,
            "TANGENT": 28,
            "TEXCOORD_0": 27
          },
          "indices": 2,
          "mode": 4,
          "material": 22
        }
      ],
      "name": "ClearcoatSample"
    },
    {
      "primitives": [
        {
          "extensions": {
            "NG2_mesh_lod": {
              "levels": [
                {
                  "indices": 35,
                  "error": 0.000439
                },
                {
                  "indices": 36,
                  "error": 0.001482
                }
              ]
            }
          },
          "attributes": {
            "POSITION": 29,
            "NORMAL": 23,
            "TANGENT": 30,
            "TEXCOORD_0": 19,
            "TEXCOORD_1": 20
          },
          "indices": 2,
          "mode": 4,
          "material": 23
        }
      ],
      "name": "ClearcoarRoughUV0"
    },
    {
      "primitives": [
        {
          "extensions": {
            "NG2_mesh_lod": {
              "levels": [
                {
                  "indices": 35,
                  "error": 0.000439
                },
                {
                  "indices": 36,
                  "error": 0.001482
                }
              ]
            }
          },
          "attributes": {
            "POSITION": 31,
            "NORMAL": 23,
            "TANGENT": 32,
            "TEXCOORD_0": 24,
            "TEXCOORD_1": 19
          },
          "indices": 2,
          "mode": 4,
          "material": 24
        }
      ],
      "name": "ClearcoatRoughUV1"
    },
    {
      "primitives": [
        {
          "extensions": {
            "NG2_mesh_lod": {
              "levels": [
                {
                  "indices": 35,
                  "error": 0.000439
                },
                {
                  "indices": 36,
                  "error": 0.001482
                }
              ]
            }
          },
          "attributes": {
            "POSITION": 33,
            "NORMAL": 23,
            "TANGENT": 34,
            "TEXCOORD_0": 27
          },
          "indices": 2,
          "mode": 4,
          "material": 25
        }
      ],
      "name": "ClearcoatRoughSample"
    },
    {
      "primitives": [
        {
          "attributes": {
            "POSITION": 3,
            "NORMAL": 4,
            "TANGENT": 7,
            "TEXCOORD_0": 5,
            "TEXCOORD_1": 6
          },
          "indices": 0,
          "mode": 4,
          "material": 26
        }
      ],
      "name": "ClearcoatNormalUV0"
    },
    {
      "primitives": [
        {
          "attributes": {
            "POSITION": 3,
            "NORMAL": 4,
            "TANGENT": 7,
            "TEXCOORD_0": 8,
            "TEXCOORD_1": 5
          },
          "indices": 0,
          "mode": 4,
          "material": 27
        }
      ],
      "name": "ClearcoatNormalUV1"
    },
    {
      "primitives": [
        {
          "attributes": {
            "POSITION": 3,
            "NORMAL": 4,
            "TANGENT": 10,
            "TEXCOORD_0": 9
          },
          "indices": 0,
          "mode": 4,
          "material": 28
        }
      ],
      "name": "ClearcoatNormalSample"
    }
  ],
  "nodes": [
    {
      "mesh": 0,
      "translation": [
        0.10000000149011612,
        0.75,
        0.0
      ],
      "name": "BaseColorUV0"
    },
    {
      "mesh": 1,
      "translation": [
        0.3499999940395355,
        0.75,
        0.0
      ],
      "name": "BaseColorUV1"
    },
    {
      "mesh": 2,
      "translation": [
        0.6000000238418579,
        0.75,
        0.0
      ],
      "name": "BaseColorSample"
    },
    {
      "mesh": 3,
      "translation": [
        0.0,
        0.0,
        -0.02500000037252903
      ],
      "name": "Background"
    },
    {
      "mesh": 4,
      "name": "Labels"
    },
    {
      "mesh": 5,
      "translation": [
        0.10000000149011612,
        0.5,
        0.0
      ],
      "name": "EmissionUV0"
    },
    {
      "mesh": 6,
      "translation": [
        0.3499999940395355,
        0.5,
        0.0
      ],
      "name": "EmissionUV1"
    },
    {
      "mesh": 7,
      "translation": [
        0.6000000238418579,
        0.5,
        0.0
      ],
      "name": "EmissionSample"
    },
    {
      "mesh": 8,
      "translation": [
        0.10000000149011612,
        0.25,
        0.0
      ],
      "name": "NormalUV0"
    },
    {
      "mesh": 9,
      "translation": [
        0.3499999940395355,
        0.25,
        0.0
      ],
      "name": "NormalUV1"
    },
    {
      "mesh": 10,
      "translation": [
        0.6000000238418579,
        0.25,
        0.0
      ],
      "name": "NormalSample"
    },
    {
      "mesh": 11,
      "translation": [
        0.10000000149011612,
        0.0,
        0.0
      ],
      "name": "MetalRoughUV0"
    },
    {
      "mesh": 12,
      "translation": [
        0.3499999940395355,
        0.0,
        0.0
      ],
      "name": "MetalRoughUV1"
    },
    {
      "mesh": 13,
      "translation": [
        0.6000000238418579,
        0.0,
        0.0
      ],
      "name": "MetalRoughSample"
    },
    {
      "mesh": 14,
      "translation": [
        0.10000000149011612,
        -0.25,
        0.0
      ],
      "name": "OcclusionUV0"
    },
    {
      "mesh": 15,
      "translation": [
        0.3499999940395355,
        -0.25,
        0.0
      ],
      "name": "OcclusionUV1"
    },
    {
      "mesh": 16,
      "translation": [
        0.6000000238418579,
        -0.25,
        0.0
      ],
      "name": "OcclusionSample"
    },
    {
      "mesh": 17,
      "translation": [
        0.10000000149011612,
        -0.5,
        0.0
      ],
      "name": "UnlitUV0"
    },
    {
      "mesh": 18,
      "translation": [
        0.3499999940395355,
        -0.5,
        0.0
      ],
      "name": "UnlitUV1"
    },
    {
      "mesh": 19,
      "translation": [
        0.6000000238418579,
        -0.5,
        0.0
      ],
      "name": "UnlitSample"
    },
    {
      "mesh": 20,
      "translation": [
        0.10000000149011612,
        -0.75,
        0.0
      ],
      "name": "ClearcoatUV0"
    },
    {
      "mesh": 21,
      "translation": [
        0.3499999940395355,
        -0.75,
        0.0
      ],
      "name": "ClearcoatUV1"
    },
    {
      "mesh": 22,
      "translation": [
        0.6000000238418579,
        -0.75,
        0.0
      ],
      "name": "ClearcoatSample"
    },
    {
      "mesh": 23,
      "translation": [
        0.10000000149011612,
        -1.0,
        0.0
      ],
      "name": "ClearcoatRoughUV0"
    },
    {
      "mesh": 24,
      "translation": [
        0.3499999940395355,
        -1.0,
        0.0
      ],
      "name": "ClearcoatRoughUV1"
    },
    {
      "mesh": 25,
      "translation": [
        0.6000000238418579,
        -1.0,
        0.0
      ],
      "name": "ClearcoatRoughSample"
    },
    {
      "mesh": 26,
      "translation": [
        0.10000000149011612,
        -1.25,
        0.0
      ],
      "name": "ClearcoatNormalUV0"
    },
    {
      "mesh": 27,
      "translation": [
        0.3499999940395355,
        -1.25,
        0.0
      ],
      "name": "ClearcoatNormalUV1"
    },
    {
      "mesh": 28,
      "translation": [
        0.6000000238418579,
        -1.25,
        0.0
      ],
      "name": "ClearcoatNormalSample"
    }
  ],
  "samplers": [
    {
      "wrapS": 10497,
      "wrapT": 10497
    }
  ],
  "scene": 0,
  "scenes": [
    {
      "name": "Scene",
      "nodes": [
        0,
        1,
        2,
        3,
        4,
        5,
        6,
        7,
        8,
        9,
        10,
        11,
        12,
        13,
        14,
        15,
        16,
        17,
        18,
        19,
        20,
        21,
        22,
        23,
        24,
        25,
        26,
        27,
        28
      ]
    }
  ],
  "textures": [
    {
      "sampler": 0,
      "source": 0
    },
    {
      "sampler": 0,
      "source": 1
    },
    {
      "sampler": 0,
      "source": 2
    },
    {
      "sampler": 0,
      "source": 3
    }
  ]
}