{
  "accessors": [
    {
      "bufferView": 2,
      "byteOffset": 0,
      "componentType": 5123,
      "normalized": false,
      "count": 5082,
      "type": "SCALAR",
      "name": "accessorIndices"
    },
    {
      "bufferView": 0,
      "byteOffset": 0,
      "componentType": 5126,
      "normalized": false,
      "count": 1006,
      "type": "VEC3",
      "max": [
        0.0707887039,
        0.27212593,
        0.0707886741
      ],
      "min": [
        -0.0707887039,
        0.0,
        -0.0707887262
      ],
      "name": "accessorPositions"
    },
    {
      "bufferView": 0,
      "byteOffset": 12072,
      "componentType": 5126,
      "normalized": false,
      "count": 1006,
      "type": "VEC3",
      "name": "accessorNormals"
    },
    {
      "bufferView": 1,
      "byteOffset": 0,
      "componentType": 5126,
      "normalized": false,
      "count": 1006,
      "type": "VEC2",
      "name": "accessorUVs"
    },
    {
      "bufferView": 3,
      "byteOffset": 0,
      "componentType": 5123,
      "normalized": false,
      "count": 7296,
      "type": "SCALAR",
      "name": "accessorIndices"
    },
    {
      "bufferView": 0,
      "byteOffset": 24144,
      "componentType": 5126,
      "normalized": false,
      "count": 1380,
      "type": "VEC3",
      "max": [
        0.09516754,
        0.09516747,
        -0.09550226
      ],
      "min": [
        -0.09516754,
        -0.0951675251,
        -0.3065758
      ],
      "name": "accessorPositions"
    },
    {
      "bufferView": 0,
      "byteOffset": 40704,
      "componentType": 5126,
      "normalized": false,
      "count": 1380,
      "type": "VEC3",
      "name": "accessorNormals"
    },
    {
      "bufferView": 1,
      "byteOffset": 8048,
      "componentType": 5126,
      "normalized": false,
      "count": 1380,
      "type": "VEC2",
      "name": "accessorUVs"
    },
    {
      "bufferView": 2,
      "byteOffset": 10164,
      "componentType": 5123,
      "normalized": false,
      "count": 2538,
      "type": "SCALAR"
    },
    {
      "bufferView": 2,
      "byteOffset": 15240,
      "componentType": 5123,
      "normalized": false,
      "count": 1266,
      "type": "SCALAR"
    },
    {
      "bufferView": 3,
      "byteOffset": 14592,
      "componentType": 5123,
      "normalized": false,
      "count": 3648,
      "type": "SCALAR"
    },
    {
      "bufferView": 3,
      "byteOffset": 21888,
      "componentType": 5123,
      "normalized": false,
      "count": 1824,
      "type": "SCALAR"
    }
  ],
  "asset": {
    "generator": "GDS lod baker 1",
    "copyright": "(C) 2023, Wayfair LLC. License: CC BY 4.0 International",
    "version": "2.0"
  },
  "bufferViews": [
    {
      "buffer": 0,
      "byteOffset": 0,
      "byteLength": 57264,
      "byteStride": 12,
      "target": 34962,
      "name": "bufferViewFloatVec3"
    },
    {
      "buffer": 0,
      "byteOffset": 57264,
      "byteLength": 19088,
      "byteStride": 8,
      "target": 34962,
      "name": "bufferViewFloatVec2"
    },
    {
      "buffer": 0,
      "byteOffset": 76352,
      "byteLength": 17772,
      "target": 34963
    },
    {
      "buffer": 0,
      "byteOffset": 94124,
      "byteLength": 25536,
      "target": 34963
    }
  ],
  "buffers": [
    {
      "uri": "GlassHurricaneCandleHolderLOD.bin",
      "byteLength": 119660
    }
  ],
  "extensionsUsed": [
    "KHR_materials_transmission",
    "KHR_materials_volume",
    "NG2_mesh_lod"
  ],
  "images": [
    {
      "uri": "GlassHurricaneCandleHolder_orm.png"
    },
    {
      "uri": "GlassHurricaneCandleHolder_basecolor.png"
    },
    {
      "uri": "GlassHurricaneCandleHolder_thickness.png"
    }
  ],
  "materials": [
    {
      "pbrMetallicRoughness": {
        "baseColorFactor": [
          1.0,
          1.0,
          1.0,
          1.0
        ],
        "metallicFactor": 1.0,
        "roughnessFactor": 1.0,
        "baseColorTexture": {
          "index": 1,
          "texCoord": 0
        },
        "metallicRoughnessTexture": {
          "index": 0,
          "texCoord": 0
        }
      },
      "occlusionTexture": {
        "index": 0,
        "strength": 1.0
      },
      "emissiveFactor": [
        0.0,
        0.0,
        0.0
      ],
      "alphaMode": "OPAQUE",
      "doubleSided": false,
      "name": "GlassHurricaneCandleHolder-opaque"
    },
    {
      "extensions": {
        "KHR_materials_transmission": {
          "transmissionFactor": 1
        },
        "KHR_materials_volume": {
          "thicknessFactor": 0.1,
          "thicknessTexture": {
            "index": 2
          },
          "attenuationColor": [
            0.8,
            0.95,
            1.0
          ],
          "attenuationDistance": 0.001
        }
      },
      "pbrMetallicRoughness": {
        "baseColorFactor": [
          1.0,
          1.0,
          1.0,
          1.0
        ],
        "metallicFactor": 1.0,
        "roughnessFactor": 1.0,
        "baseColorTexture": {
          "index": 1,
          "texCoord": 0
        },
        "metallicRoughnessTexture": {
          "index": 0,
          "texCoord": 0
        }
      },
      "occlusionTexture": {
        "index": 0,
        "strength": 1.0
      },
      "emissiveFactor": [
        0.0,
        0.0,
        0.0
      ],
      "alphaMode": "OPAQUE",
      "doubleSided": false,
      "name": "GlassHurricaneCandleHolder-glass"
    }
  ],
  "meshes": [
    {
      "primitives": [
        {
          "extensions": {
            "NG2_mesh_lod": {
              "levels": [
                {
                  "indices": 8,
                  "error": 0.001547
                },
                {
                  "indices": 9,
                  "error": 0.005521
                }
              ]
            }
          },
          "attributes": {
            "POSITION": 1,
            "NORMAL": 2,
            "TEXCOORD_0": 3
          },
          "indices": 0,
          "mode": 4,
          "material": 0
        }
      ],
      "name": "GlassHurricaneCandleHolder-opaque"
    },
    {
      "primitives": [
        {
          "extensions": {
            "NG2_mesh_lod": {
              "levels": [
                {
                  "indices": 10,
                  "error": 0.001753
                },
                {
                  "indices": 11,
                  "error": 0.003167
                }
              ]
            }
          },
          "attributes": {
            "POSITION": 5,
            "NORMAL": 6,
            "TEXCOORD_0": 7
          },
          "indices": 4,
          "mode": 4,
          "material": 1
        }
      ],
      "name": "GlassHurricaneCandleHolder-glass"
    }
  ],
  "nodes": [
    {
      "mesh": 0,
      "name": "GlassHurricaneCandleHolder-opaque"
    },
    {
      "mesh": 1,
      "rotation": [
        0.7071068,
        0.0,
        0.0,
        0.7071067
      ],
      "name": "GlassHurricaneCandleHolder-glass"
    }
  ],
  "samplers": [
    {
      "magFilter": 9729,
      "minFilter": 9987,
      "wrapS": 10497,
      "wrapT": 10497
    }
  ],
  "scene": 0,
  "scenes": [
    {
      "nodes": [
        0,
        1
      ]
    }
  ],
  "textures": [
    {
      "sampler": 0,
      "source": 0,
      "name": "GlassHurricaneCandleHolder_orm.png"
    },
    {
      "sampler": 0,
      "source": 1,
      "name": "GlassHurricaneCandleHolder_basecolor.png"
    },
    {
      "sampler": 0,
      "source": 2,
      "name": "GlassHurricaneCandleHolder_thickness.png"
    }
  ]
}