{
  "extensions": {
    "KHR_lights_punctual": {
      "lights": [
        {
          "type": "directional",
          "intensity": 3
        }
      ]
    },
    "KHR_materials_variants": {
      "variants": [
        {
          "name": "Champagne"
        },
        {
          "name": "Navy"
        },
        {
          "name": "Gray"
        },
        {
          "name": "Black"
        },
        {
          "name": "Pale Pink"
        }
      ]
    }
  },
  "accessors": [
    {
      "bufferView": 2,
      "byteOffset": 0,
      "componentType": 5123,
      "normalized": false,
      "count": 918,
      "type": "SCALAR",
      "name": "accessorIndices"
    },
    {
      "bufferView": 0,
      "byteOffset": 0,
      "componentType": 5126,
      "normalized": false,
      "count": 342,
      "type": "VEC3",
      "max": [
        0.967309833,
        0.228355348,
        0.392912269
      ],
      "min": [
        -1.07995892,
        4.544779e-05,
        -0.62551266
      ],
      "name": "accessorPositions"
    },
    {
      "bufferView": 0,
      "byteOffset": 4104,
      "componentType": 5126,
      "normalized": false,
      "count": 342,
      "type": "VEC3",
      "name": "accessorNormals"
    },
    {
      "bufferView": 1,
      "byteOffset": 0,
      "componentType": 5126,
      "normalized": false,
      "count": 342,
      "type": "VEC2",
      "name": "accessorUVs"
    },
    {
      "bufferView": 3,
      "byteOffset": 0,
      "componentType": 5123,
      "normalized": false,
      "count": 9726,
      "type": "SCALAR",
      "name": "accessorIndices"
    },
    {
      "bufferView": 0,
      "byteOffset": 8208,
      "componentType": 5126,
      "normalized": false,
      "count": 2092,
      "type": "VEC3",
      "max": [
        1.07446992,
        0.7875869,
        0.382825553
      ],
      "min": [
        -1.11397314,
        0.211583689,
        -0.6070921
      ],
      "name": "accessorPositions"
    },
    {
      "bufferView": 0,
      "byteOffset": 33312,
      "componentType": 5126,
      "normalized": false,
      "count": 2092,
      "type": "VEC3",
      "name": "accessorNormals"
    },
    {
      "bufferView": 1,
      "byteOffset": 2736,
      "componentType": 5126,
      "normalized": false,
      "count": 2092,
      "type": "VEC2",
      "name": "accessorUVs"
    },
    {
      "bufferView": 4,
      "byteOffset": 0,
      "componentType": 5123,
      "normalized": false,
      "count": 1944,
      "type": "SCALAR",
      "name": "accessorIndices"
    },
    {
      "bufferView": 0,
      "byteOffset": 58416,
      "componentType": 5126,
      "normalized": false,
      "count": 684,
      "type": "VEC3",
      "max": [
        0.969506,
        0.0342675373,
        0.3951283
      ],
      "min": [
        -1.08214879,
        4.544779e-05,
        -0.627700269
      ],
      "name": "accessorPositions"
    },
    {
      "bufferView": 0,
      "byteOffset": 66624,
      "componentType": 5126,
      "normalized": false,
      "count": 684,
      "type": "VEC3",
      "name": "accessorNormals"
    },
    {
      "bufferView": 1,
      "byteOffset": 19472,
      "componentType": 5126,
      "normalized": false,
      "count": 684,
      "type": "VEC2",
      "name": "accessorUVs"
    },
    {
      "bufferView": 2,
      "byteOffset": 1836,
      "componentType": 5123,
      "normalized": false,
      "count": 648,
      "type": "SCALAR"
    },
    {
      "bufferView": 2,
      "byteOffset": 3132,
      "componentType": 5123,
      "normalized": false,
      "count": 432,
      "type": "SCALAR"
    },
    {
      "bufferView": 3,
      "byteOffset": 19452,
      "componentType": 5123,
      "normalized": false,
      "count": 4860,
      "type": "SCALAR"
    },
    {
      "bufferView": 3,
      "byteOffset": 29172,
      "componentType": 5123,
      "normalized": false,
      "count": 2430,
      "type": "SCALAR"
    },
    {
      "bufferView": 4,
      "byteOffset": 3888,
      "componentType": 5123,
      "normalized": false,
      "count": 1182,
      "type": "SCALAR"
    }
  ],
  "asset": {
    "generator": "GDS lod baker 1",
    "copyright": "(c) 2021 Wayfair, CC BY 4.0.",
    "version": "2.0"
  },
  "bufferViews": [
    {
      "buffer": 0,
      "byteOffset": 0,
      "byteLength": 74832,
      "byteStride": 12,
      "name": "bufferViewFloatVec3"
    },
    {
      "buffer": 0,
      "byteOffset": 74832,
      "byteLength": 24944,
      "byteStride": 8,
      "name": "bufferViewFloatVec2"
    },
    {
      "buffer": 0,
      "byteOffset": 99776,
      "byteLength": 3996,
      "target": 34963
    },
    {
      "buffer": 0,
      "byteOffset": 103772,
      "byteLength": 34032,
      "target": 34963
    },
    {
      "buffer": 0,
      "byteOffset": 137804,
      "byteLength": 6252,
      "target": 34963
    }
  ],
  "buffers": [
    {
      "uri": "GlamVelvetSofaLOD.bin",
      "byteLength": 144056
    }
  ],
  "extensionsUsed": [
    "KHR_texture_transform",
    "KHR_materials_sheen",
    "KHR_materials_specular",
    "KHR_materials_variants",
    "KHR_lights_punctual",
    "NG2_mesh_lod"
  ],
  "extensionsRequired": [
    "KHR_texture_transform"
  ],
  "images": [
    {
      "uri": "GlamVelvetSofa_occlusion.png"
    },
    {
      "uri": "GlamVelvetSofa_normal.png"
    }
  ],
  "materials": [
    {
      "pbrMetallicRoughness": {
        "baseColorFactor": [
          0.02,
          0.02,
          0.02,
          1.0
        ],
        "metallicFactor": 0.0,
        "roughnessFactor": 0.4
      },
      "occlusionTexture": {
        "index": 0,
        "strength": 1.0
      },
      "emissiveFactor": [
        0.0,
        0.0,
        0.0
      ],
      "alphaMode": "OPAQUE",
      "doubleSided": false,
      "name": "GlamVelvetSofa_legs"
    },
    {
      "pbrMetallicRoughness": {
        "baseColorFactor": [
          1.0,
          0.8,
          0.7,
          1.0
        ],
        "metallicFactor": 1.0,
        "roughnessFactor": 0.4
      },
      "occlusionTexture": {
        "index": 0,
        "strength": 1.0
      },
      "emissiveFactor": [
        0.0,
        0.0,
        0.0
      ],
      "alphaMode": "OPAQUE",
      "doubleSided": false,
      "name": "GlamVelvetSofa_feet"
    },
    {
      "extensions": {
        "KHR_materials_specular": {
          "specularColorFactor": [
            0,
            0,
            0
          ]
        },
        "KHR_materials_sheen": {
          "sheenColorFactor": [
            0.9,
            0.7,
            0.6
          ],
          "sheenRoughnessFactor": 0.6
        }
      },
      "pbrMetallicRoughness": {
        "baseColorFactor": [
          0.075,
          0.06,
          0.04,
          1.0
        ],
        "metallicFactor": 0.0,
        "roughnessFactor": 0.7
      },
      "normalTexture": {
        "extensions": {
          "KHR_texture_transform": {
            "rotation": 0,
            "scale": [
              5,
              5
            ],
            "texCoord": 0
          }
        },
        "index": 1,
        "scale": 0.5
      },
      "occlusionTexture": {
        "index": 0,
        "strength": 1.0
      },
      "emissiveFactor": [
        0.0,
        0.0,
        0.0
      ],
      "alphaMode": "OPAQUE",
      "doubleSided": false,
      "name": "GlamVelvetSofa_fabric_champagne"
    },
    {
      "extensions": {
        "KHR_materials_specular": {
          "specularColorFactor": [
            0.1,
            0.34,
            1
          ]
        },
        "KHR_materials_sheen": {
          "sheenColorFactor": [
            0.05,
            0.17,
            0.5
          ],
          "sheenRoughnessFactor": 0.6
        }
      },
      "pbrMetallicRoughness": {
        "baseColorFactor": [
          0.01,
          0.01,
          0.01,
          1.0
        ],
        "metallicFactor": 0.0,
        "roughnessFactor": 0.7
      },
      "normalTexture": {
        "extensions": {
          "KHR_texture_transform": {
            "rotation": 0.36,
            "scale": [
              5,
              5
            ],
            "texCoord": 0
          }
        },
        "index": 1,
        "scale": 0.75
      },
      "occlusionTexture": {
        "index": 0,
        "strength": 1.0
      },
      "emissiveFactor": [
        0.0,
        0.0,
        0.0
      ],
      "alphaMode": "OPAQUE",
      "doubleSided": false,
      "name": "GlamVelvetSofa_fabric_navy"
    },
    {
      "extensions": {
        "KHR_materials_specular": {
          "specularColorFactor": [
            0,
            0,
            0
          ]
        },
        "KHR_materials_sheen": {
          "sheenColorFactor": [
            0.85,
            0.9,
            1
          ],
          "sheenRoughnessFactor": 1
        }
      },
      "pbrMetallicRoughness": {
        "baseColorFactor": [
          0.25,
          0.25,
          0.225,
          1.0
        ],
        "metallicFactor": 0.0,
        "roughnessFactor": 1.0
      },
      "normalTexture": {
        "extensions": {
          "KHR_texture_transform": {
            "rotation": 1.5,
            "scale": [
              5,
              5
            ],
            "texCoord": 0
          }
        },
        "index": 1,
        "scale": 0.3
      },
      "occlusionTexture": {
        "index": 0,
        "strength": 1.0
      },
      "emissiveFactor": [
        0.0,
        0.0,
        0.0
      ],
      "alphaMode": "OPAQUE",
      "doubleSided": false,
      "name": "GlamVelvetSofa_fabric_gray"
    },
    {
      "extensions": {
        "KHR_materials_specular": {
          "specularColorFactor": [
            0.12,
            0.12,
            0.13
          ]
        },
        "KHR_materials_sheen": {
          "sheenColorFactor": [
            0.12,
            0.12,
            0.13
          ],
          "sheenRoughnessFactor": 0.3
        }
      },
      "pbrMetallicRoughness": {
        "baseColorFactor": [
          0.01,
          0.01,
          0.01,
          1.0
        ],
        "metallicFactor": 0.0,
        "roughnessFactor": 0.5
      },
      "normalTexture": {
        "extensions": {
          "KHR_texture_transform": {
            "rotation": 2,
            "scale": [
              5,
              5
            ],
            "texCoord": 0
          }
        },
        "index": 1,
        "scale": 0.4
      },
      "occlusionTexture": {
        "index": 0,
        "strength": 1.0
      },
      "emissiveFactor": [
        0.0,
        0.0,
        0.0
      ],
      "alphaMode": "OPAQUE",
      "doubleSided": false,
      "name": "GlamVelvetSofa_fabric_black"
    },
    {
      "extensions": {
        "KHR_materials_specular": {
          "specularColorFactor": [
            1,
            0.9,
            0.9
          ]
        },
        "KHR_materials_sheen": {
          "sheenColorFactor": [
            1,
            0.9,
            0.9
          ],
          "sheenRoughnessFactor": 0.85
        }
      },
      "pbrMetallicRoughness": {
        "baseColorFactor": [
          0.76,
          0.53,
          0.54,
          1.0
        ],
        "metallicFactor": 0.0,
        "roughnessFactor": 0.75
      },
      "normalTexture": {
        "extensions": {
          "KHR_texture_transform": {
            "rotation": 2.5,
            "scale": [
              5,
              5
            ],
            "texCoord": 0
          }
        },
        "index": 1,
        "scale": 0.2
      },
      "occlusionTexture": {
        "index": 0,
        "strength": 1.0
      },
      "emissiveFactor": [
        0.0,
        0.0,
        0.0
      ],
      "alphaMode": "OPAQUE",
      "doubleSided": false,
      "name": "GlamVelvetSofa_fabric_palepink"
    }
  ],
  "meshes": [
    {
      "primitives": [
        {
          "extensions": {
            "NG2_mesh_lod": {
              "levels": [
                {
                  "indices": 12,
                  "error": 0.013329
                },
                {
                  "indices": 13,
                  "error": 0.099654
                }
              ]
            }
          },
          "attributes": {
            "POSITION": 1,
            "NORMAL": 2,
            "TEXCOORD_0": 3
          },
          "indices": 0,
          "mode": 4,
          "material": 0
        }
      ],
      "name": "GlamVelvetSofa_legs"
    },
    {
      "primitives": [
        {
          "extensions": {
            "KHR_materials_variants": {
              "mappings": [
                {
                  "material": 2,
                  "variants": [
                    0
                  ]
                },
                {
                  "material": 3,
                  "variants": [
                    1
                  ]
                },
                {
                  "material": 4,
                  "variants": [
                    2
                  ]
                },
                {
                  "material": 5,
                  "variants": [
                    3
                  ]
                },
                {
                  "material": 6,
                  "variants": [
                    4
                  ]
                }
              ]
            },
            "NG2_mesh_lod": {
              "levels": [
                {
                  "indices": 14,
                  "error": 0.006197
                },
                {
                  "indices": 15,
                  "error": 0.017351
                }
              ]
            }
          },
          "attributes": {
            "POSITION": 5,
            "NORMAL": 6,
            "TEXCOORD_0": 7
          },
          "indices": 4,
          "mode": 4,
          "material": 3
        }
      ],
      "name": "GlamVelvetSofa_fabric"
    },
    {
      "primitives": [
        {
          "extensions": {
            "NG2_mesh_lod": {
              "levels": [
                {
                  "indices": 16,
                  "error": 0.013223
                }
              ]
            }
          },
          "attributes": {
            "POSITION": 9,
            "NORMAL": 10,
            "TEXCOORD_0": 11
          },
          "indices": 8,
          "mode": 4,
          "material": 1
        }
      ],
      "name": "GlamVelvetSofa_feet"
    }
  ],
  "nodes": [
    {
      "mesh": 0,
      "name": "GlamVelvetSofa_legs"
    },
    {
      "mesh": 1,
      "name": "GlamVelvetSofa_fabric"
    },
    {
      "mesh": 2,
      "name": "GlamVelvetSofa_feet"
    },
    {
      "extensions": {
        "KHR_lights_punctual": {
          "light": 0
        }
      },
      "rotation": [
        -0.13959079166529637,
        -0.6590063691119785,
        -0.12632793024247307,
        0.7281938412213848
      ],
      "translation": [
        0.0,
        0.0,
        0.0
      ],
      "scale": [
        1.0,
        1.0,
        1.0
      ],
      "name": "Key Light"
    }
  ],
  "samplers": [
    {
      "magFilter": 9729,
      "minFilter": 9987,
      "wrapS": 10497,
      "wrapT": 10497
    }
  ],
  "scene": 0,
  "scenes": [
    {
      "nodes": [
        0,
        1,
        2,
        3
      ]
    }
  ],
  "textures": [
    {
      "sampler": 0,
      "source": 0,
      "name": "GlamVelvetSofa_occlusion.png"
    },
    {
      "sampler": 0,
      "source": 1,
      "name": "GlamVelvetSofa_normal.png"
    }
  ]
}