{
  "accessors": [
    {
      "bufferView": 5,
      "byteOffset": 0,
      "componentType": 5123,
      "normalized": false,
      "count": 9216,
      "type": "SCALAR"
    },
    {
      "bufferView": 0,
      "byteOffset": 0,
      "componentType": 5126,
      "normalized": false,
      "count": 1538,
      "type": "VEC3",
      "max": [
        0.5000792145729065,
        0.4901543855667114,
        0.5000792145729065
      ],
      "min": [
        -0.5000792145729065,
        -0.4901544749736786,
        -0.5000792145729065
      ]
    },
    {
      "bufferView": 1,
      "byteOffset": 0,
      "componentType": 5126,
      "normalized": false,
      "count": 1538,
      "type": "VEC3",
      "max": [
        1.0,
        1.0,
        1.0
      ],
      "min": [
        -1.0,
        -1.0,
        -1.0
      ]
    },
    {
      "bufferView": 6,
      "byteOffset": 0,
      "componentType": 5123,
      "normalized": false,
      "count": 9216,
      "type": "SCALAR"
    },
    {
      "bufferView": 2,
      "byteOffset": 0,
      "componentType": 5126,
      "normalized": false,
      "count": 1728,
      "type": "VEC3",
      "max": [
        0.5000792145729065,
        0.4901543855667114,
        0.5000792145729065
      ],
      "min": [
        -0.5000792145729065,
        -0.4901544749736786,
        -0.5000792145729065
      ]
    },
    {
      "bufferView": 3,
      "byteOffset": 0,
      "componentType": 5126,
      "normalized": false,
      "count": 1728,
      "type": "VEC2",
      "max": [
        0.9995999336242676,
        1.0
      ],
      "min": [
        0.0,
        0.0
      ]
    },
    {
      "bufferView": 4,
      "byteOffset": 0,
      "componentType": 5126,
      "normalized": false,
      "count": 1728,
      "type": "VEC3",
      "max": [
        1.0,
        1.0,
        1.0
      ],
      "min": [
        -1.0,
        -1.0,
        -1.0
      ]
    },
    {
      "bufferView": 5,
      "byteOffset": 18432,
      "componentType": 5123,
      "normalized": false,
      "count": 4608,
      "type": "SCALAR"
    },
    {
      "bufferView": 5,
      "byteOffset": 27648,
      "componentType": 5123,
      "normalized": false,
      "count": 2304,
      "type": "SCALAR"
    },
    {
      "bufferView": 6,
      "byteOffset": 18432,
      "componentType": 5123,
      "normalized": false,
      "count": 4608,
      "type": "SCALAR"
    },
    {
      "bufferView": 6,
      "byteOffset": 27648,
      "componentType": 5123,
      "normalized": false,
      "count": 2304,
      "type": "SCALAR"
    }
  ],
  "asset": {
    "generator": "GDS lod baker 1",
    "copyright": "Asset CC0, created by Eric Chadwick and DGG. glTF logo \u00a9 2017, Khronos Group.",
    "version": "2.0"
  },
  "bufferViews": [
    {
      "buffer": 0,
      "byteOffset": 0,
      "byteLength": 18456,
      "byteStride": 12,
      "target": 34962
    },
    {
      "buffer": 0,
      "byteOffset": 18456,
      "byteLength": 18456,
      "byteStride": 12,
      "target": 34962
    },
    {
      "buffer": 0,
      "byteOffset": 36912,
      "byteLength": 20736,
      "byteStride": 12,
      "target": 34962
    },
    {
      "buffer": 0,
      "byteOffset": 57648,
      "byteLength": 13824,
      "byteStride": 8,
      "target": 34962
    },
    {
      "buffer": 0,
      "byteOffset": 71472,
      "byteLength": 20736,
      "byteStride": 12,
      "target": 34962
    },
    {
      "buffer": 0,
      "byteOffset": 92208,
      "byteLength": 32256,
      "target": 34963
    },
    {
      "buffer": 0,
      "byteOffset": 124464,
      "byteLength": 32256,
      "target": 34963
    }
  ],
  "buffers": [
    {
      "uri": "CompareNormalLOD.bin",
      "byteLength": 156720
    }
  ],
  "extensionsUsed": [
    "NG2_mesh_lod"
  ],
  "images": [
    {
      "uri": "Compare_Normal_img0.jpg"
    }
  ],
  "materials": [
    {
      "pbrMetallicRoughness": {
        "baseColorFactor": [
          0.501960813999176,
          0.4392157196998596,
          0.3529411852359772,
          1.0
        ],
        "metallicFactor": 0.0,
        "roughnessFactor": 0.25
      },
      "emissiveFactor": [
        0.0,
        0.0,
        0.0
      ],
      "alphaMode": "OPAQUE",
      "doubleSided": false,
      "name": "Wicker no Normal"
    },
    {
      "pbrMetallicRoughness": {
        "baseColorFactor": [
          0.501960813999176,
          0.4431372880935669,
          0.3529411852359772,
          1.0
        ],
        "metallicFactor": 0.0,
        "roughnessFactor": 0.25
      },
      "normalTexture": {
        "index": 0,
        "scale": 1.0
      },
      "emissiveFactor": [
        0.0,
        0.0,
        0.0
      ],
      "alphaMode": "OPAQUE",
      "doubleSided": false,
      "name": "Wicker with Normal"
    }
  ],
  "meshes": [
    {
      "primitives": [
        {
          "extensions": {
            "NG2_mesh_lod": {
              "levels": [
                {
                  "indices": 7,
                  "error": 0.003236
                },
                {
                  "indices": 8,
                  "error": 0.005393
                }
              ]
            }
          },
          "attributes": {
            "POSITION": 1,
            "NORMAL": 2
          },
          "indices": 0,
          "mode": 4,
          "material": 0
        }
      ],
      "name": "Sphere001"
    },
    {
      "primitives": [
        {
          "extensions": {
            "NG2_mesh_lod": {
              "levels": [
                {
                  "indices": 9,
                  "error": 0.003233
                },
                {
                  "indices": 10,
                  "error": 0.005558
                }
              ]
            }
          },
          "attributes": {
            "POSITION": 4,
            "NORMAL": 6,
            "TEXCOORD_0": 5
          },
          "indices": 3,
          "mode": 4,
          "material": 1
        }
      ],
      "name": "Sphere002"
    }
  ],
  "nodes": [
    {
      "mesh": 0,
      "matrix": [
        1.0,
        0.0,
        0.0,
        0.0,
        0.0,
        1.0,
        4.3711388286737935e-08,
        0.0,
        0.0,
        -4.3711388286737935e-08,
        1.0,
        0.0,
        -0.550000011920929,
        0.0,
        0.0,
        1.0
      ],
      "name": "Sphere001"
    },
    {
      "mesh": 1,
      "matrix": [
        1.0,
        0.0,
        0.0,
        0.0,
        0.0,
        1.0,
        4.3711388286737935e-08,
        0.0,
        0.0,
        -4.3711388286737935e-08,
        1.0,
        0.0,
        0.550000011920929,
        0.0,
        0.0,
        1.0
      ],
      "name": "Sphere002"
    }
  ],
  "scene": 0,
  "scenes": [
    {
      "nodes": [
        0,
        1
      ]
    }
  ],
  "textures": [
    {
      "source": 0
    }
  ]
}