{
  "accessors": [
    {
      "bufferView": 29,
      "byteOffset": 0,
      "componentType": 5125,
      "normalized": false,
      "count": 6,
      "type": "SCALAR"
    },
    {
      "bufferView": 0,
      "byteOffset": 0,
      "componentType": 5126,
      "normalized": false,
      "count": 6,
      "type": "VEC3",
      "max": [
        7.736067771911621,
        0.8990932703018188,
        6.563443183898926
      ],
      "min": [
        -5.516267776489258,
        0.8990923166275024,
        -0.008820891380310059
      ]
    },
    {
      "bufferView": 1,
      "byteOffset": 0,
      "componentType": 5126,
      "normalized": false,
      "count": 6,
      "type": "VEC3"
    },
    {
      "bufferView": 2,
      "byteOffset": 0,
      "componentType": 5126,
      "normalized": false,
      "count": 6,
      "type": "VEC2",
      "max": [
        6.502115726470947,
        -1.4998087882995605
      ],
      "min": [
        0.4990740716457367,
        -4.50092077255249
      ]
    },
    {
      "bufferView": 30,
      "byteOffset": 0,
      "componentType": 5125,
      "normalized": false,
      "count": 3840,
      "type": "SCALAR"
    },
    {
      "bufferView": 3,
      "byteOffset": 0,
      "componentType": 5126,
      "normalized": false,
      "count": 3840,
      "type": "VEC3",
      "max": [
        0.9999998807907104,
        1.0,
        1.0
      ],
      "min": [
        -0.9999998807907104,
        -1.0,
        -1.0
      ]
    },
    {
      "bufferView": 4,
      "byteOffset": 0,
      "componentType": 5126,
      "normalized": false,
      "count": 3840,
      "type": "VEC3"
    },
    {
      "bufferView": 31,
      "byteOffset": 0,
      "componentType": 5125,
      "normalized": false,
      "count": 3840,
      "type": "SCALAR"
    },
    {
      "bufferView": 5,
      "byteOffset": 0,
      "componentType": 5126,
      "normalized": false,
      "count": 3840,
      "type": "VEC3",
      "max": [
        0.9999998807907104,
        1.0,
        1.0
      ],
      "min": [
        -0.9999998807907104,
        -1.0,
        -1.0
      ]
    },
    {
      "bufferView": 6,
      "byteOffset": 0,
      "componentType": 5126,
      "normalized": false,
      "count": 3840,
      "type": "VEC3"
    },
    {
      "bufferView": 32,
      "byteOffset": 0,
      "componentType": 5125,
      "normalized": false,
      "count": 3840,
      "type": "SCALAR"
    },
    {
      "bufferView": 7,
      "byteOffset": 0,
      "componentType": 5126,
      "normalized": false,
      "count": 3840,
      "type": "VEC3",
      "max": [
        0.9999998807907104,
        1.0,
        1.0
      ],
      "min": [
        -0.9999998807907104,
        -1.0,
        -1.0
      ]
    },
    {
      "bufferView": 8,
      "byteOffset": 0,
      "componentType": 5126,
      "normalized": false,
      "count": 3840,
      "type": "VEC3"
    },
    {
      "bufferView": 33,
      "byteOffset": 0,
      "componentType": 5125,
      "normalized": false,
      "count": 3840,
      "type": "SCALAR"
    },
    {
      "bufferView": 9,
      "byteOffset": 0,
      "componentType": 5126,
      "normalized": false,
      "count": 3840,
      "type": "VEC3",
      "max": [
        0.9999998807907104,
        1.0,
        1.0
      ],
      "min": [
        -0.9999998807907104,
        -1.0,
        -1.0
      ]
    },
    {
      "bufferView": 10,
      "byteOffset": 0,
      "componentType": 5126,
      "normalized": false,
      "count": 3840,
      "type": "VEC3"
    },
    {
      "bufferView": 34,
      "byteOffset": 0,
      "componentType": 5125,
      "normalized": false,
      "count": 3840,
      "type": "SCALAR"
    },
    {
      "bufferView": 11,
      "byteOffset": 0,
      "componentType": 5126,
      "normalized": false,
      "count": 3840,
      "type": "VEC3",
      "max": [
        0.9999998807907104,
        1.0,
        1.0
      ],
      "min": [
        -0.9999998807907104,
        -1.0,
        -1.0
      ]
    },
    {
      "bufferView": 12,
      "byteOffset": 0,
      "componentType": 5126,
      "normalized": false,
      "count": 3840,
      "type": "VEC3"
    },
    {
      "bufferView": 35,
      "byteOffset": 0,
      "componentType": 5125,
      "normalized": false,
      "count": 3840,
      "type": "SCALAR"
    },
    {
      "bufferView": 13,
      "byteOffset": 0,
      "componentType": 5126,
      "normalized": false,
      "count": 3840,
      "type": "VEC3",
      "max": [
        0.9999998807907104,
        1.0,
        1.0
      ],
      "min": [
        -0.9999998807907104,
        -1.0,
        -1.0
      ]
    },
    {
      "bufferView": 14,
      "byteOffset": 0,
      "componentType": 5126,
      "normalized": false,
      "count": 3840,
      "type": "VEC3"
    },
    {
      "bufferView": 36,
      "byteOffset": 0,
      "componentType": 5125,
      "normalized": false,
      "count": 3840,
      "type": "SCALAR"
    },
    {
      "bufferView": 15,
      "byteOffset": 0,
      "componentType": 5126,
      "normalized": false,
      "count": 3840,
      "type": "VEC3",
      "max": [
        0.9999998807907104,
        1.0,
        1.0
      ],
      "min": [
        -0.9999998807907104,
        -1.0,
        -1.0
      ]
    },
    {
      "bufferView": 16,
      "byteOffset": 0,
      "componentType": 5126,
      "normalized": false,
      "count": 3840,
      "type": "VEC3"
    },
    {
      "bufferView": 37,
      "byteOffset": 0,
      "componentType": 5125,
      "normalized": false,
      "count": 3840,
      "type": "SCALAR"
    },
    {
      "bufferView": 17,
      "byteOffset": 0,
      "componentType": 5126,
      "normalized": false,
      "count": 3840,
      "type": "VEC3",
      "max": [
        0.9999998807907104,
        1.0,
        1.0
      ],
      "min": [
        -0.9999998807907104,
        -1.0,
        -1.0
      ]
    },
    {
      "bufferView": 18,
      "byteOffset": 0,
      "componentType": 5126,
      "normalized": false,
      "count": 3840,
      "type": "VEC3"
    },
    {
      "bufferView": 38,
      "byteOffset": 0,
      "componentType": 5125,
      "normalized": false,
      "count": 48,
      "type": "SCALAR"
    },
    {
      "bufferView": 19,
      "byteOffset": 0,
      "componentType": 5126,
      "normalized": false,
      "count": 48,
      "type": "VEC3",
      "max": [
        6.164374828338623,
        0.08086015284061432,
        8.695708274841309
      ],
      "min": [
        -11.049251556396484,
        0.08085854351520538,
        1.82464599609375
      ]
    },
    {
      "bufferView": 20,
      "byteOffset": 0,
      "componentType": 5126,
      "normalized": false,
      "count": 48,
      "type": "VEC3"
    },
    {
      "bufferView": 39,
      "byteOffset": 0,
      "componentType": 5125,
      "normalized": false,
      "count": 1548,
      "type": "SCALAR"
    },
    {
      "bufferView": 21,
      "byteOffset": 0,
      "componentType": 5126,
      "normalized": false,
      "count": 1548,
      "type": "VEC3",
      "max": [
        5.979801654815674,
        -5.817128112539649e-07,
        8.547215461730957
      ],
      "min": [
        -3.617697238922119,
        -5.817128112539649e-07,
        7.002676010131836
      ]
    },
    {
      "bufferView": 22,
      "byteOffset": 0,
      "componentType": 5126,
      "normalized": false,
      "count": 1548,
      "type": "VEC3"
    },
    {
      "bufferView": 40,
      "byteOffset": 0,
      "componentType": 5125,
      "normalized": false,
      "count": 1944,
      "type": "SCALAR"
    },
    {
      "bufferView": 23,
      "byteOffset": 0,
      "componentType": 5126,
      "normalized": false,
      "count": 1944,
      "type": "VEC3",
      "max": [
        -5.907878875732422,
        0.0,
        4.540128707885742
      ],
      "min": [
        -10.896379470825195,
        0.0,
        1.9825491905212402
      ]
    },
    {
      "bufferView": 24,
      "byteOffset": 0,
      "componentType": 5126,
      "normalized": false,
      "count": 1944,
      "type": "VEC3"
    },
    {
      "bufferView": 41,
      "byteOffset": 0,
      "componentType": 5125,
      "normalized": false,
      "count": 3840,
      "type": "SCALAR"
    },
    {
      "bufferView": 25,
      "byteOffset": 0,
      "componentType": 5126,
      "normalized": false,
      "count": 3840,
      "type": "VEC3",
      "max": [
        0.9999998807907104,
        1.0,
        1.0
      ],
      "min": [
        -0.9999998807907104,
        -1.0,
        -1.0
      ]
    },
    {
      "bufferView": 26,
      "byteOffset": 0,
      "componentType": 5126,
      "normalized": false,
      "count": 3840,
      "type": "VEC3"
    },
    {
      "bufferView": 42,
      "byteOffset": 0,
      "componentType": 5125,
      "normalized": false,
      "count": 3840,
      "type": "SCALAR"
    },
    {
      "bufferView": 27,
      "byteOffset": 0,
      "componentType": 5126,
      "normalized": false,
      "count": 3840,
      "type": "VEC3",
      "max": [
        0.9999998807907104,
        1.0,
        1.0
      ],
      "min": [
        -0.9999998807907104,
        -1.0,
        -1.0
      ]
    },
    {
      "bufferView": 28,
      "byteOffset": 0,
      "componentType": 5126,
      "normalized": false,
      "count": 3840,
      "type": "VEC3"
    },
    {
      "bufferView": 38,
      "byteOffset": 192,
      "componentType": 5125,
      "normalized": false,
      "count": 18,
      "type": "SCALAR"
    },
    {
      "bufferView": 39,
      "byteOffset": 6192,
      "componentType": 5125,
      "normalized": false,
      "count": 186,
      "type": "SCALAR"
    },
    {
      "bufferView": 40,
      "byteOffset": 7776,
      "componentType": 5125,
      "normalized": false,
      "count": 360,
      "type": "SCALAR"
    }
  ],
  "asset": {
    "generator": "GDS lod baker 1",
    "copyright": "CC0 public domain, asset created by Eric Chadwick",
    "version": "2.0"
  },
  "bufferViews": [
    {
      "buffer": 0,
      "byteOffset": 0,
      "byteLength": 72,
      "target": 34962
    },
    {
      "buffer": 0,
      "byteOffset": 72,
      "byteLength": 72,
      "target": 34962
    },
    {
      "buffer": 0,
      "byteOffset": 144,
      "byteLength": 48,
      "target": 34962
    },
    {
      "buffer": 0,
      "byteOffset": 192,
      "byteLength": 46080,
      "target": 34962
    },
    {
      "buffer": 0,
      "byteOffset": 46272,
      "byteLength": 46080,
      "target": 34962
    },
    {
      "buffer": 0,
      "byteOffset": 92352,
      "byteLength": 46080,
      "target": 34962
    },
    {
      "buffer": 0,
      "byteOffset": 138432,
      "byteLength": 46080,
      "target": 34962
    },
    {
      "buffer": 0,
      "byteOffset": 184512,
      "byteLength": 46080,
      "target": 34962
    },
    {
      "buffer": 0,
      "byteOffset": 230592,
      "byteLength": 46080,
      "target": 34962
    },
    {
      "buffer": 0,
      "byteOffset": 276672,
      "byteLength": 46080,
      "target": 34962
    },
    {
      "buffer": 0,
      "byteOffset": 322752,
      "byteLength": 46080,
      "target": 34962
    },
    {
      "buffer": 0,
      "byteOffset": 368832,
      "byteLength": 46080,
      "target": 34962
    },
    {
      "buffer": 0,
      "byteOffset": 414912,
      "byteLength": 46080,
      "target": 34962
    },
    {
      "buffer": 0,
      "byteOffset": 460992,
      "byteLength": 46080,
      "target": 34962
    },
    {
      "buffer": 0,
      "byteOffset": 507072,
      "byteLength": 46080,
      "target": 34962
    },
    {
      "buffer": 0,
      "byteOffset": 553152,
      "byteLength": 46080,
      "target": 34962
    },
    {
      "buffer": 0,
      "byteOffset": 599232,
      "byteLength": 46080,
      "target": 34962
    },
    {
      "buffer": 0,
      "byteOffset": 645312,
      "byteLength": 46080,
      "target": 34962
    },
    {
      "buffer": 0,
      "byteOffset": 691392,
      "byteLength": 46080,
      "target": 34962
    },
    {
      "buffer": 0,
      "byteOffset": 737472,
      "byteLength": 576,
      "target": 34962
    },
    {
      "buffer": 0,
      "byteOffset": 738048,
      "byteLength": 576,
      "target": 34962
    },
    {
      "buffer": 0,
      "byteOffset": 738624,
      "byteLength": 18576,
      "target": 34962
    },
    {
      "buffer": 0,
      "byteOffset": 757200,
      "byteLength": 18576,
      "target": 34962
    },
    {
      "buffer": 0,
      "byteOffset": 775776,
      "byteLength": 23328,
      "target": 34962
    },
    {
      "buffer": 0,
      "byteOffset": 799104,
      "byteLength": 23328,
      "target": 34962
    },
    {
      "buffer": 0,
      "byteOffset": 822432,
      "byteLength": 46080,
      "target": 34962
    },
    {
      "buffer": 0,
      "byteOffset": 868512,
      "byteLength": 46080,
      "target": 34962
    },
    {
      "buffer": 0,
      "byteOffset": 914592,
      "byteLength": 46080,
      "target": 34962
    },
    {
      "buffer": 0,
      "byteOffset": 960672,
      "byteLength": 46080,
      "target": 34962
    },
    {
      "buffer": 0,
      "byteOffset": 1006752,
      "byteLength": 24,
      "target": 34963
    },
    {
      "buffer": 0,
      "byteOffset": 1006776,
      "byteLength": 15360,
      "target": 34963
    },
    {
      "buffer": 0,
      "byteOffset": 1022136,
      "byteLength": 15360,
      "target": 34963
    },
    {
      "buffer": 0,
      "byteOffset": 1037496,
      "byteLength": 15360,
      "target": 34963
    },
    {
      "buffer": 0,
      "byteOffset": 1052856,
      "byteLength": 15360,
      "target": 34963
    },
    {
      "buffer": 0,
      "byteOffset": 1068216,
      "byteLength": 15360,
      "target": 34963
    },
    {
      "buffer": 0,
      "byteOffset": 1083576,
      "byteLength": 15360,
      "target": 34963
    },
    {
      "buffer": 0,
      "byteOffset": 1098936,
      "byteLength": 15360,
      "target": 34963
    },
    {
      "buffer": 0,
      "byteOffset": 1114296,
      "byteLength": 15360,
      "target": 34963
    },
    {
      "buffer": 0,
      "byteOffset": 1129656,
      "byteLength": 264,
      "target": 34963
    },
    {
      "buffer": 0,
      "byteOffset": 1129920,
      "byteLength": 6936,
      "target": 34963
    },
    {
      "buffer": 0,
      "byteOffset": 1136856,
      "byteLength": 9216,
      "target": 34963
    },
    {
      "buffer": 0,
      "byteOffset": 1146072,
      "byteLength": 15360,
      "target": 34963
    },
    {
      "buffer": 0,
      "byteOffset": 1161432,
      "byteLength": 15360,
      "target": 34963
    }
  ],
  "buffers": [
    {
      "uri": "TransmissionThinwallTestGridLOD.bin",
      "byteLength": 1176792
    }
  ],
  "extensionsUsed": [
    "KHR_materials_transmission",
    "KHR_materials_volume",
    "KHR_materials_ior",
    "NG2_mesh_lod"
  ],
  "images": [
    {
      "uri": "checker.png"
    }
  ],
  "materials": [
    {
      "pbrMetallicRoughness": {
        "baseColorFactor": [
          1.0,
          1.0,
          1.0,
          1.0
        ],
        "metallicFactor": 0.0,
        "roughnessFactor": 0.5,
        "baseColorTexture": {
          "index": 0,
          "texCoord": 0
        }
      },
      "emissiveFactor": [
        0.0,
        0.0,
        0.0
      ],
      "alphaMode": "OPAQUE",
      "doubleSided": false,
      "name": "Backdrop"
    },
    {
      "pbrMetallicRoughness": {
        "baseColorFactor": [
          0.0,
          0.0,
          0.0,
          1.0
        ],
        "metallicFactor": 0.0,
        "roughnessFactor": 1.0
      },
      "emissiveFactor": [
        0.0,
        0.0,
        0.0
      ],
      "alphaMode": "OPAQUE",
      "doubleSided": false,
      "name": "Text"
    },
    {
      "pbrMetallicRoughness": {
        "baseColorFactor": [
          1.0,
          1.0,
          1.0,
          1.0
        ],
        "metallicFactor": 0.0,
        "roughnessFactor": 1.0
      },
      "emissiveFactor": [
        0.0,
        0.0,
        0.0
      ],
      "alphaMode": "OPAQUE",
      "doubleSided": false,
      "name": "Text Backdrop"
    },
    {
      "extensions": {
        "KHR_materials_ior": {
          "ior": 1.0
        },
        "KHR_materials_transmission": {
          "transmissionFactor": 1.0
        }
      },
      "pbrMetallicRoughness": {
        "baseColorFactor": [
          1.0,
          1.0,
          1.0,
          1.0
        ],
        "metallicFactor": 0.0,
        "roughnessFactor": 0.0
      },
      "emissiveFactor": [
        0.0,
        0.0,
        0.0
      ],
      "alphaMode": "OPAQUE",
      "doubleSided": false,
      "name": "ThinWall_IOR1.00"
    },
    {
      "extensions": {
        "KHR_materials_ior": {
          "ior": 1.33
        },
        "KHR_materials_transmission": {
          "transmissionFactor": 1.0
        }
      },
      "pbrMetallicRoughness": {
        "baseColorFactor": [
          1.0,
          1.0,
          1.0,
          1.0
        ],
        "metallicFactor": 0.0,
        "roughnessFactor": 0.0
      },
      "emissiveFactor": [
        0.0,
        0.0,
        0.0
      ],
      "alphaMode": "OPAQUE",
      "doubleSided": false,
      "name": "ThinWall_IOR1.33"
    },
    {
      "extensions": {
        "KHR_materials_transmission": {
          "transmissionFactor": 1.0
        }
      },
      "pbrMetallicRoughness": {
        "baseColorFactor": [
          1.0,
          1.0,
          1.0,
          1.0
        ],
        "metallicFactor": 0.0,
        "roughnessFactor": 0.0
      },
      "emissiveFactor": [
        0.0,
        0.0,
        0.0
      ],
      "alphaMode": "OPAQUE",
      "doubleSided": false,
      "name": "ThinWall_IOR1.50"
    },
    {
      "extensions": {
        "KHR_materials_ior": {
          "ior": 1.75999
        },
        "KHR_materials_transmission": {
          "transmissionFactor": 1.0
        }
      },
      "pbrMetallicRoughness": {
        "baseColorFactor": [
          1.0,
          1.0,
          1.0,
          1.0
        ],
        "metallicFactor": 0.0,
        "roughnessFactor": 0.0
      },
      "emissiveFactor": [
        0.0,
        0.0,
        0.0
      ],
      "alphaMode": "OPAQUE",
      "doubleSided": false,
      "name": "ThinWall_IOR1.76"
    },
    {
      "extensions": {
        "KHR_materials_ior": {
          "ior": 2.42
        },
        "KHR_materials_transmission": {
          "transmissionFactor": 1.0
        }
      },
      "pbrMetallicRoughness": {
        "baseColorFactor": [
          1.0,
          1.0,
          1.0,
          1.0
        ],
        "metallicFactor": 0.0,
        "roughnessFactor": 0.0
      },
      "emissiveFactor": [
        0.0,
        0.0,
        0.0
      ],
      "alphaMode": "OPAQUE",
      "doubleSided": false,
      "name": "ThinWall_IOR2.42"
    },
    {
      "extensions": {
        "KHR_materials_ior": {
          "ior": 2.42
        },
        "KHR_materials_transmission": {
          "transmissionFactor": 1.0
        },
        "KHR_materials_volume": {
          "thicknessFactor": 1.0
        }
      },
      "pbrMetallicRoughness": {
        "baseColorFactor": [
          1.0,
          1.0,
          1.0,
          1.0
        ],
        "metallicFactor": 0.0,
        "roughnessFactor": 0.0
      },
      "emissiveFactor": [
        0.0,
        0.0,
        0.0
      ],
      "alphaMode": "OPAQUE",
      "doubleSided": false,
      "name": "Volume_IOR2.42"
    },
    {
      "extensions": {
        "KHR_materials_ior": {
          "ior": 1.75999
        },
        "KHR_materials_transmission": {
          "transmissionFactor": 1.0
        },
        "KHR_materials_volume": {
          "thicknessFactor": 1.0
        }
      },
      "pbrMetallicRoughness": {
        "baseColorFactor": [
          1.0,
          1.0,
          1.0,
          1.0
        ],
        "metallicFactor": 0.0,
        "roughnessFactor": 0.0
      },
      "emissiveFactor": [
        0.0,
        0.0,
        0.0
      ],
      "alphaMode": "OPAQUE",
      "doubleSided": false,
      "name": "Volume_IOR1.76"
    },
    {
      "extensions": {
        "KHR_materials_transmission": {
          "transmissionFactor": 1.0
        },
        "KHR_materials_volume": {
          "thicknessFactor": 1.0
        }
      },
      "pbrMetallicRoughness": {
        "baseColorFactor": [
          1.0,
          1.0,
          1.0,
          1.0
        ],
        "metallicFactor": 0.0,
        "roughnessFactor": 0.0
      },
      "emissiveFactor": [
        0.0,
        0.0,
        0.0
      ],
      "alphaMode": "OPAQUE",
      "doubleSided": false,
      "name": "Volume_IOR1.50"
    },
    {
      "extensions": {
        "KHR_materials_ior": {
          "ior": 1.33
        },
        "KHR_materials_transmission": {
          "transmissionFactor": 1.0
        },
        "KHR_materials_volume": {
          "thicknessFactor": 1.0
        }
      },
      "pbrMetallicRoughness": {
        "baseColorFactor": [
          1.0,
          1.0,
          1.0,
          1.0
        ],
        "metallicFactor": 0.0,
        "roughnessFactor": 0.0
      },
      "emissiveFactor": [
        0.0,
        0.0,
        0.0
      ],
      "alphaMode": "OPAQUE",
      "doubleSided": false,
      "name": "Volume_IOR1.33"
    },
    {
      "extensions": {
        "KHR_materials_ior": {
          "ior": 1.0
        },
        "KHR_materials_transmission": {
          "transmissionFactor": 1.0
        },
        "KHR_materials_volume": {
          "thicknessFactor": 1.0
        }
      },
      "pbrMetallicRoughness": {
        "baseColorFactor": [
          1.0,
          1.0,
          1.0,
          1.0
        ],
        "metallicFactor": 0.0,
        "roughnessFactor": 0.0
      },
      "emissiveFactor": [
        0.0,
        0.0,
        0.0
      ],
      "alphaMode": "OPAQUE",
      "doubleSided": false,
      "name": "Volume_IOR1.00"
    }
  ],
  "meshes": [
    {
      "primitives": [
        {
          "attributes": {
            "POSITION": 1,
            "NORMAL": 2,
            "TEXCOORD_0": 3
          },
          "indices": 0,
          "mode": 4,
          "material": 0
        }
      ],
      "name": "CheckerBackdrop"
    },
    {
      "primitives": [
        {
          "attributes": {
            "POSITION": 5,
            "NORMAL": 6
          },
          "indices": 4,
          "mode": 4,
          "material": 3
        }
      ],
      "name": "ThinWall_IOR1.00"
    },
    {
      "primitives": [
        {
          "attributes": {
            "POSITION": 8,
            "NORMAL": 9
          },
          "indices": 7,
          "mode": 4,
          "material": 4
        }
      ],
      "name": "ThinWall_IOR1.33"
    },
    {
      "primitives": [
        {
          "attributes": {
            "POSITION": 11,
            "NORMAL": 12
          },
          "indices": 10,
          "mode": 4,
          "material": 5
        }
      ],
      "name": "ThinWall_IOR1.50"
    },
    {
      "primitives": [
        {
          "attributes": {
            "POSITION": 14,
            "NORMAL": 15
          },
          "indices": 13,
          "mode": 4,
          "material": 6
        }
      ],
      "name": "ThinWall_IOR1.76"
    },
    {
      "primitives": [
        {
          "attributes": {
            "POSITION": 17,
            "NORMAL": 18
          },
          "indices": 16,
          "mode": 4,
          "material": 12
        }
      ],
      "name": "Volume_IOR1.00"
    },
    {
      "primitives": [
        {
          "attributes": {
            "POSITION": 20,
            "NORMAL": 21
          },
          "indices": 19,
          "mode": 4,
          "material": 11
        }
      ],
      "name": "Volume_IOR1.33"
    },
    {
      "primitives": [
        {
          "attributes": {
            "POSITION": 23,
            "NORMAL": 24
          },
          "indices": 22,
          "mode": 4,
          "material": 10
        }
      ],
      "name": "Volume_IOR1.50"
    },
    {
      "primitives": [
        {
          "attributes": {
            "POSITION": 26,
            "NORMAL": 27
          },
          "indices": 25,
          "mode": 4,
          "material": 9
        }
      ],
      "name": "Volume_IOR1.76"
    },
    {
      "primitives": [
        {
          "extensions": {
            "NG2_mesh_lod": {
              "levels": [
                {
                  "indices": 43,
                  "error": 0.72808
                }
              ]
            }
          },
          "attributes": {
            "POSITION": 29,
            "NORMAL": 30
          },
          "indices": 28,
          "mode": 4,
          "material": 2
        }
      ],
      "name": "TextBackdrop"
    },
    {
      "primitives": [
        {
          "extensions": {
            "NG2_mesh_lod": {
              "levels": [
                {
                  "indices": 44,
                  "error": 0.268658
                }
              ]
            }
          },
          "attributes": {
            "POSITION": 32,
            "NORMAL": 33
          },
          "indices": 31,
          "mode": 4,
          "material": 1
        }
      ],
      "name": "TextXaxis"
    },
    {
      "primitives": [
        {
          "extensions": {
            "NG2_mesh_lod": {
              "levels": [
                {
                  "indices": 45,
                  "error": 0.236903
                }
              ]
            }
          },
          "attributes": {
            "POSITION": 35,
            "NORMAL": 36
          },
          "indices": 34,
          "mode": 4,
          "material": 1
        }
      ],
      "name": "TextYaxis"
    },
    {
      "primitives": [
        {
          "attributes": {
            "POSITION": 38,
            "NORMAL": 39
          },
          "indices": 37,
          "mode": 4,
          "material": 7
        }
      ],
      "name": "ThinWall_IOR2.42"
    },
    {
      "primitives": [
        {
          "attributes": {
            "POSITION": 41,
            "NORMAL": 42
          },
          "indices": 40,
          "mode": 4,
          "material": 8
        }
      ],
      "name": "Volume_IOR2.42"
    }
  ],
  "nodes": [
    {
      "mesh": 0,
      "matrix": [
        1.0,
        0.0,
        0.0,
        0.0,
        0.0,
        0.0,
        -1.0,
        0.0,
        0.0,
        1.0,
        0.0,
        0.0,
        0.0,
        0.0,
        0.0,
        1.0
      ],
      "name": "CheckerBackdrop"
    },
    {
      "mesh": 1,
      "matrix": [
        1.0,
        0.0,
        0.0,
        0.0,
        0.0,
        0.0,
        -1.0,
        0.0,
        0.0,
        1.0,
        0.0,
        0.0,
        -3.300614595413208,
        4.400000095367432,
        0.35051628947257996,
        1.0
      ],
      "name": "ThinWall_IOR1.00"
    },
    {
      "mesh": 2,
      "matrix": [
        1.0,
        0.0,
        0.0,
        0.0,
        0.0,
        0.0,
        -1.0,
        0.0,
        0.0,
        1.0,
        0.0,
        0.0,
        -1.1006138324737549,
        4.400000095367432,
        0.35051625967025757,
        1.0
      ],
      "name": "ThinWall_IOR1.33"
    },
    {
      "mesh": 3,
      "matrix": [
        1.0,
        0.0,
        0.0,
        0.0,
        0.0,
        0.0,
        -1.0,
        0.0,
        0.0,
        1.0,
        0.0,
        0.0,
        1.0993871688842773,
        4.400000095367432,
        0.3505162000656128,
        1.0
      ],
      "name": "ThinWall_IOR1.50"
    },
    {
      "mesh": 4,
      "matrix": [
        1.0,
        0.0,
        0.0,
        0.0,
        0.0,
        0.0,
        -1.0,
        0.0,
        0.0,
        1.0,
        0.0,
        0.0,
        3.2993879318237305,
        4.400000095367432,
        0.3505161702632904,
        1.0
      ],
      "name": "ThinWall_IOR1.76"
    },
    {
      "mesh": 5,
      "matrix": [
        1.0,
        0.0,
        0.0,
        0.0,
        0.0,
        0.0,
        -1.0,
        0.0,
        0.0,
        1.0,
        0.0,
        0.0,
        -3.300614833831787,
        2.200000286102295,
        0.350516140460968,
        1.0
      ],
      "name": "Volume_IOR1.00"
    },
    {
      "mesh": 6,
      "matrix": [
        1.0,
        0.0,
        0.0,
        0.0,
        0.0,
        0.0,
        -1.0,
        0.0,
        0.0,
        1.0,
        0.0,
        0.0,
        -1.100614070892334,
        2.200000286102295,
        0.35051611065864563,
        1.0
      ],
      "name": "Volume_IOR1.33"
    },
    {
      "mesh": 7,
      "matrix": [
        1.0,
        0.0,
        0.0,
        0.0,
        0.0,
        0.0,
        -1.0,
        0.0,
        0.0,
        1.0,
        0.0,
        0.0,
        1.0993868112564087,
        2.200000286102295,
        0.35051608085632324,
        1.0
      ],
      "name": "Volume_IOR1.50"
    },
    {
      "mesh": 8,
      "matrix": [
        1.0,
        0.0,
        0.0,
        0.0,
        0.0,
        0.0,
        -1.0,
        0.0,
        0.0,
        1.0,
        0.0,
        0.0,
        3.2993876934051514,
        2.200000286102295,
        0.35051602125167847,
        1.0
      ],
      "name": "Volume_IOR1.76"
    },
    {
      "mesh": 9,
      "matrix": [
        1.0,
        0.0,
        0.0,
        0.0,
        0.0,
        0.0,
        -1.0,
        0.0,
        0.0,
        1.0,
        0.0,
        0.0,
        0.0,
        0.0,
        0.0,
        1.0
      ],
      "name": "TextBackdrop"
    },
    {
      "mesh": 10,
      "matrix": [
        1.0,
        0.0,
        0.0,
        0.0,
        0.0,
        0.0,
        -0.9999998807907104,
        0.0,
        0.0,
        0.9999998807907104,
        0.0,
        0.0,
        0.0,
        1.9073486328125e-06,
        1.1368683772161603e-13,
        1.0
      ],
      "name": "TextXaxis"
    },
    {
      "mesh": 11,
      "matrix": [
        1.0,
        0.0,
        0.0,
        0.0,
        0.0,
        0.0,
        -0.9999998807907104,
        0.0,
        0.0,
        0.9999998807907104,
        0.0,
        0.0,
        0.0,
        9.5367431640625e-07,
        0.0,
        1.0
      ],
      "name": "TextYaxis"
    },
    {
      "mesh": 12,
      "matrix": [
        1.0,
        0.0,
        0.0,
        0.0,
        0.0,
        0.0,
        -1.0,
        0.0,
        0.0,
        1.0,
        0.0,
        0.0,
        5.529480457305908,
        4.400000095367432,
        0.3505161702632904,
        1.0
      ],
      "name": "ThinWall_IOR2.42"
    },
    {
      "mesh": 13,
      "matrix": [
        1.0,
        0.0,
        0.0,
        0.0,
        0.0,
        0.0,
        -1.0,
        0.0,
        0.0,
        1.0,
        0.0,
        0.0,
        5.529480457305908,
        2.200000286102295,
        0.35051602125167847,
        1.0
      ],
      "name": "Volume_IOR2.42"
    }
  ],
  "samplers": [
    {
      "wrapS": 10497,
      "wrapT": 10497
    }
  ],
  "scene": 0,
  "scenes": [
    {
      "nodes": [
        0,
        1,
        2,
        3,
        4,
        5,
        6,
        7,
        8,
        9,
        10,
        11,
        12,
        13
      ]
    }
  ],
  "textures": [
    {
      "sampler": 0,
      "source": 0
    }
  ]
}