{
  "extensions": {
    "KHR_materials_variants": {
      "variants": [
        {
          "name": "midnight"
        },
        {
          "name": "beach"
        },
        {
          "name": "street"
        }
      ]
    }
  },
  "accessors": [
    {
      "bufferView": 0,
      "byteOffset": 0,
      "componentType": 5126,
      "normalized": false,
      "count": 13540,
      "type": "VEC3",
      "max": [
        0.999809980392456,
        0.9999020099639891,
        0.9999240040779114
      ],
      "min": [
        -0.999970018863678,
        -1.0,
        -0.9999949932098388
      ]
    },
    {
      "bufferView": 1,
      "byteOffset": 0,
      "componentType": 5126,
      "normalized": false,
      "count": 13540,
      "type": "VEC3",
      "max": [
        1.0000001192092896,
        0.5139704942703247,
        0.38874176144599915
      ],
      "min": [
        -1.0,
        -0.5139704942703247,
        -0.38874176144599915
      ]
    },
    {
      "bufferView": 2,
      "byteOffset": 0,
      "componentType": 5126,
      "normalized": false,
      "count": 13540,
      "type": "VEC2",
      "max": [
        0.9980469942092896,
        0.9980469942092896
      ],
      "min": [
        0.001952999969944358,
        0.03520399332046509
      ]
    },
    {
      "bufferView": 3,
      "byteOffset": 0,
      "componentType": 5125,
      "normalized": false,
      "count": 68100,
      "type": "SCALAR"
    },
    {
      "bufferView": 3,
      "byteOffset": 272400,
      "componentType": 5125,
      "normalized": false,
      "count": 34050,
      "type": "SCALAR"
    },
    {
      "bufferView": 3,
      "byteOffset": 408600,
      "componentType": 5125,
      "normalized": false,
      "count": 17022,
      "type": "SCALAR"
    }
  ],
  "asset": {
    "generator": "GDS lod baker 1",
    "version": "2.0"
  },
  "bufferViews": [
    {
      "buffer": 0,
      "byteOffset": 0,
      "byteLength": 162480,
      "byteStride": 12,
      "target": 34962
    },
    {
      "buffer": 0,
      "byteOffset": 162480,
      "byteLength": 162480,
      "byteStride": 12,
      "target": 34962
    },
    {
      "buffer": 0,
      "byteOffset": 324960,
      "byteLength": 108320,
      "byteStride": 8,
      "target": 34962
    },
    {
      "buffer": 0,
      "byteOffset": 433280,
      "byteLength": 476688,
      "target": 34963
    }
  ],
  "buffers": [
    {
      "uri": "MaterialsVariantsShoeLOD.bin",
      "byteLength": 909968
    }
  ],
  "extensionsUsed": [
    "KHR_materials_variants",
    "NG2_mesh_lod"
  ],
  "images": [
    {
      "uri": "occlusionRougnessMetalness.jpg",
      "mimeType": "image/jpeg"
    },
    {
      "uri": "diffuseMidnight.jpg",
      "mimeType": "image/jpeg"
    },
    {
      "uri": "normal.jpg",
      "mimeType": "image/jpeg"
    },
    {
      "uri": "diffuseBeach.jpg",
      "mimeType": "image/jpeg"
    },
    {
      "uri": "diffuseStreet.jpg",
      "mimeType": "image/jpeg"
    }
  ],
  "materials": [
    {
      "pbrMetallicRoughness": {
        "baseColorFactor": [
          1.0,
          1.0,
          1.0,
          1.0
        ],
        "metallicFactor": 1.0,
        "roughnessFactor": 1.0,
        "baseColorTexture": {
          "index": 1,
          "texCoord": 0
        },
        "metallicRoughnessTexture": {
          "index": 0,
          "texCoord": 0
        }
      },
      "normalTexture": {
        "index": 2,
        "texCoord": 0,
        "scale": 1.0
      },
      "occlusionTexture": {
        "index": 0,
        "texCoord": 0,
        "strength": 1.0
      },
      "emissiveFactor": [
        0.0,
        0.0,
        0.0
      ],
      "alphaMode": "OPAQUE",
      "doubleSided": false,
      "name": "phong1SG"
    },
    {
      "pbrMetallicRoughness": {
        "baseColorFactor": [
          1.0,
          1.0,
          1.0,
          1.0
        ],
        "metallicFactor": 1.0,
        "roughnessFactor": 1.0,
        "baseColorTexture": {
          "index": 3,
          "texCoord": 0
        },
        "metallicRoughnessTexture": {
          "index": 0,
          "texCoord": 0
        }
      },
      "normalTexture": {
        "index": 2,
        "texCoord": 0,
        "scale": 1.0
      },
      "occlusionTexture": {
        "index": 0,
        "texCoord": 0,
        "strength": 1.0
      },
      "emissiveFactor": [
        0.0,
        0.0,
        0.0
      ],
      "alphaMode": "OPAQUE",
      "doubleSided": false,
      "name": "phong1SG"
    },
    {
      "pbrMetallicRoughness": {
        "baseColorFactor": [
          1.0,
          1.0,
          1.0,
          1.0
        ],
        "metallicFactor": 1.0,
        "roughnessFactor": 1.0,
        "baseColorTexture": {
          "index": 4,
          "texCoord": 0
        },
        "metallicRoughnessTexture": {
          "index": 0,
          "texCoord": 0
        }
      },
      "normalTexture": {
        "index": 2,
        "texCoord": 0,
        "scale": 1.0
      },
      "occlusionTexture": {
        "index": 0,
        "texCoord": 0,
        "strength": 1.0
      },
      "emissiveFactor": [
        0.0,
        0.0,
        0.0
      ],
      "alphaMode": "OPAQUE",
      "doubleSided": false,
      "name": "phong1SG"
    }
  ],
  "meshes": [
    {
      "primitives": [
        {
          "extensions": {
            "KHR_materials_variants": {
              "mappings": [
                {
                  "material": 0,
                  "variants": [
                    0
                  ]
                },
                {
                  "material": 1,
                  "variants": [
                    1
                  ]
                },
                {
                  "material": 2,
                  "variants": [
                    2
                  ]
                }
              ]
            },
            "NG2_mesh_lod": {
              "levels": [
                {
                  "indices": 4,
                  "error": 0.00239
                },
                {
                  "indices": 5,
                  "error": 0.006888
                }
              ]
            }
          },
          "attributes": {
            "POSITION": 1,
            "NORMAL": 0,
            "TEXCOORD_0": 2
          },
          "indices": 3,
          "mode": 4,
          "material": 0
        }
      ],
      "name": "shoe"
    }
  ],
  "nodes": [
    {
      "extras": {
        "name": "Shoe"
      },
      "mesh": 0,
      "name": "Shoe"
    },
    {
      "extras": {
        "name": "g Shoe"
      },
      "children": [
        0
      ],
      "name": "g_Shoe"
    },
    {
      "extras": {
        "name": "Shoe.obj"
      },
      "children": [
        1
      ],
      "matrix": [
        0.14893949,
        0.0,
        0.0,
        0.0,
        0.0,
        0.14893949,
        0.0,
        0.0,
        0.0,
        0.0,
        0.14893949,
        0.0,
        0.0016104877,
        0.07590251,
        0.0048509985,
        1.0
      ],
      "name": "Shoeobj"
    }
  ],
  "samplers": [
    {
      "magFilter": 9729,
      "minFilter": 9985,
      "wrapS": 10497,
      "wrapT": 10497
    },
    {
      "magFilter": 9729,
      "minFilter": 9985,
      "wrapS": 10497,
      "wrapT": 10497
    },
    {
      "magFilter": 9729,
      "minFilter": 9985,
      "wrapS": 10497,
      "wrapT": 10497
    }
  ],
  "scene": 0,
  "scenes": [
    {
      "name": "Scene",
      "nodes": [
        2
      ]
    }
  ],
  "textures": [
    {
      "sampler": 0,
      "source": 0
    },
    {
      "sampler": 1,
      "source": 1
    },
    {
      "sampler": 2,
      "source": 2
    },
    {
      "sampler": 0,
      "source": 3
    },
    {
      "sampler": 0,
      "source": 4
    }
  ]
}