{
  "accessors": [
    {
      "bufferView": 0,
      "byteOffset": 0,
      "componentType": 5126,
      "normalized": false,
      "count": 2549,
      "type": "VEC2"
    },
    {
      "bufferView": 1,
      "byteOffset": 0,
      "componentType": 5126,
      "normalized": false,
      "count": 2549,
      "type": "VEC3"
    },
    {
      "bufferView": 2,
      "byteOffset": 0,
      "componentType": 5126,
      "normalized": false,
      "count": 2549,
      "type": "VEC4"
    },
    {
      "bufferView": 3,
      "byteOffset": 0,
      "componentType": 5126,
      "normalized": false,
      "count": 2549,
      "type": "VEC3",
      "max": [
        0.05445001,
        0.130220339,
        0.0544500239
      ],
      "min": [
        -0.05445001,
        -0.130220339,
        -0.0544500239
      ]
    },
    {
      "bufferView": 4,
      "byteOffset": 0,
      "componentType": 5123,
      "normalized": false,
      "count": 13530,
      "type": "SCALAR"
    },
    {
      "bufferView": 4,
      "byteOffset": 27060,
      "componentType": 5123,
      "normalized": false,
      "count": 6762,
      "type": "SCALAR"
    },
    {
      "bufferView": 4,
      "byteOffset": 40584,
      "componentType": 5123,
      "normalized": false,
      "count": 3378,
      "type": "SCALAR"
    }
  ],
  "asset": {
    "generator": "GDS lod baker 1",
    "version": "2.0"
  },
  "bufferViews": [
    {
      "buffer": 0,
      "byteOffset": 0,
      "byteLength": 20392
    },
    {
      "buffer": 0,
      "byteOffset": 20392,
      "byteLength": 30588
    },
    {
      "buffer": 0,
      "byteOffset": 50980,
      "byteLength": 40784
    },
    {
      "buffer": 0,
      "byteOffset": 91764,
      "byteLength": 30588
    },
    {
      "buffer": 0,
      "byteOffset": 122352,
      "byteLength": 47340,
      "target": 34963
    }
  ],
  "buffers": [
    {
      "uri": "WaterBottleLOD.bin",
      "byteLength": 169692
    }
  ],
  "extensionsUsed": [
    "NG2_mesh_lod"
  ],
  "images": [
    {
      "uri": "WaterBottle_baseColor.png"
    },
    {
      "uri": "WaterBottle_occlusionRoughnessMetallic.png"
    },
    {
      "uri": "WaterBottle_normal.png"
    },
    {
      "uri": "WaterBottle_emissive.png"
    }
  ],
  "materials": [
    {
      "pbrMetallicRoughness": {
        "baseColorFactor": [
          1.0,
          1.0,
          1.0,
          1.0
        ],
        "metallicFactor": 1.0,
        "roughnessFactor": 1.0,
        "baseColorTexture": {
          "index": 0,
          "texCoord": 0
        },
        "metallicRoughnessTexture": {
          "index": 1,
          "texCoord": 0
        }
      },
      "normalTexture": {
        "index": 2,
        "scale": 1.0
      },
      "occlusionTexture": {
        "index": 1,
        "strength": 1.0
      },
      "emissiveFactor": [
        1.0,
        1.0,
        1.0
      ],
      "emissiveTexture": {
        "index": 3,
        "texCoord": 0
      },
      "alphaMode": "OPAQUE",
      "doubleSided": false,
      "name": "BottleMat"
    }
  ],
  "meshes": [
    {
      "primitives": [
        {
          "extensions": {
            "NG2_mesh_lod": {
              "levels": [
                {
                  "indices": 5,
                  "error": 0.000581
                },
                {
                  "indices": 6,
                  "error": 0.001833
                }
              ]
            }
          },
          "attributes": {
            "POSITION": 3,
            "NORMAL": 1,
            "TANGENT": 2,
            "TEXCOORD_0": 0
          },
          "indices": 4,
          "mode": 4,
          "material": 0
        }
      ],
      "name": "WaterBottle"
    }
  ],
  "nodes": [
    {
      "mesh": 0,
      "rotation": [
        0.0,
        1.0,
        0.0,
        0.0
      ],
      "name": "WaterBottle"
    }
  ],
  "scene": 0,
  "scenes": [
    {
      "nodes": [
        0
      ]
    }
  ],
  "textures": [
    {
      "source": 0
    },
    {
      "source": 1
    },
    {
      "source": 2
    },
    {
      "source": 3
    }
  ]
}