{
  "accessors": [
    {
      "bufferView": 0,
      "byteOffset": 0,
      "componentType": 5126,
      "normalized": false,
      "count": 40,
      "type": "VEC3",
      "max": [
        0.2536306083202362,
        0.2532276511192322,
        0.0
      ],
      "min": [
        -0.2536306083202362,
        -0.2545476257801056,
        -0.0010000221664085984
      ]
    },
    {
      "bufferView": 1,
      "byteOffset": 0,
      "componentType": 5126,
      "normalized": false,
      "count": 40,
      "type": "VEC3"
    },
    {
      "bufferView": 2,
      "byteOffset": 0,
      "componentType": 5126,
      "normalized": false,
      "count": 40,
      "type": "VEC2"
    },
    {
      "bufferView": 12,
      "byteOffset": 0,
      "componentType": 5123,
      "normalized": false,
      "count": 60,
      "type": "SCALAR"
    },
    {
      "bufferView": 3,
      "byteOffset": 0,
      "componentType": 5126,
      "normalized": false,
      "count": 7866,
      "type": "VEC3",
      "max": [
        0.49000006914138794,
        0.050000011920928955,
        0.02252579852938652
      ],
      "min": [
        -0.49000000953674316,
        -0.050000011920928955,
        -0.0071332501247525215
      ]
    },
    {
      "bufferView": 4,
      "byteOffset": 0,
      "componentType": 5126,
      "normalized": false,
      "count": 7866,
      "type": "VEC3"
    },
    {
      "bufferView": 5,
      "byteOffset": 0,
      "componentType": 5126,
      "normalized": false,
      "count": 7866,
      "type": "VEC2"
    },
    {
      "bufferView": 13,
      "byteOffset": 0,
      "componentType": 5123,
      "normalized": false,
      "count": 38880,
      "type": "SCALAR"
    },
    {
      "bufferView": 6,
      "byteOffset": 0,
      "componentType": 5126,
      "normalized": false,
      "count": 8,
      "type": "VEC3",
      "max": [
        1.0,
        0.44999998807907104,
        0.25
      ],
      "min": [
        -1.0,
        -0.44999998807907104,
        -0.25
      ]
    },
    {
      "bufferView": 7,
      "byteOffset": 0,
      "componentType": 5126,
      "normalized": false,
      "count": 8,
      "type": "VEC3"
    },
    {
      "bufferView": 8,
      "byteOffset": 0,
      "componentType": 5126,
      "normalized": false,
      "count": 8,
      "type": "VEC2"
    },
    {
      "bufferView": 14,
      "byteOffset": 0,
      "componentType": 5123,
      "normalized": false,
      "count": 12,
      "type": "SCALAR"
    },
    {
      "bufferView": 9,
      "byteOffset": 0,
      "componentType": 5126,
      "normalized": false,
      "count": 16,
      "type": "VEC3",
      "max": [
        0.6876577734947205,
        0.3463990092277527,
        -0.004254668951034546
      ],
      "min": [
        -0.2854940891265869,
        0.28022873401641846,
        -0.005745113827288151
      ]
    },
    {
      "bufferView": 10,
      "byteOffset": 0,
      "componentType": 5126,
      "normalized": false,
      "count": 16,
      "type": "VEC3"
    },
    {
      "bufferView": 11,
      "byteOffset": 0,
      "componentType": 5126,
      "normalized": false,
      "count": 16,
      "type": "VEC2"
    },
    {
      "bufferView": 15,
      "byteOffset": 0,
      "componentType": 5123,
      "normalized": false,
      "count": 24,
      "type": "SCALAR"
    },
    {
      "bufferView": 13,
      "byteOffset": 77760,
      "componentType": 5123,
      "normalized": false,
      "count": 19440,
      "type": "SCALAR"
    },
    {
      "bufferView": 13,
      "byteOffset": 116640,
      "componentType": 5123,
      "normalized": false,
      "count": 9720,
      "type": "SCALAR"
    }
  ],
  "asset": {
    "generator": "GDS lod baker 1",
    "copyright": "CC-BY 4.0 Copyright 2021 Analytical Graphics, Inc. Model and Textures by Ed Mackey.",
    "version": "2.0"
  },
  "bufferViews": [
    {
      "buffer": 0,
      "byteOffset": 0,
      "byteLength": 480
    },
    {
      "buffer": 0,
      "byteOffset": 480,
      "byteLength": 480
    },
    {
      "buffer": 0,
      "byteOffset": 960,
      "byteLength": 320
    },
    {
      "buffer": 0,
      "byteOffset": 1280,
      "byteLength": 94392
    },
    {
      "buffer": 0,
      "byteOffset": 95672,
      "byteLength": 94392
    },
    {
      "buffer": 0,
      "byteOffset": 190064,
      "byteLength": 62928
    },
    {
      "buffer": 0,
      "byteOffset": 252992,
      "byteLength": 96
    },
    {
      "buffer": 0,
      "byteOffset": 253088,
      "byteLength": 96
    },
    {
      "buffer": 0,
      "byteOffset": 253184,
      "byteLength": 64
    },
    {
      "buffer": 0,
      "byteOffset": 253248,
      "byteLength": 192
    },
    {
      "buffer": 0,
      "byteOffset": 253440,
      "byteLength": 192
    },
    {
      "buffer": 0,
      "byteOffset": 253632,
      "byteLength": 128
    },
    {
      "buffer": 0,
      "byteOffset": 253760,
      "byteLength": 120,
      "target": 34963
    },
    {
      "buffer": 0,
      "byteOffset": 253880,
      "byteLength": 136080,
      "target": 34963
    },
    {
      "buffer": 0,
      "byteOffset": 389960,
      "byteLength": 24,
      "target": 34963
    },
    {
      "buffer": 0,
      "byteOffset": 389984,
      "byteLength": 48,
      "target": 34963
    }
  ],
  "buffers": [
    {
      "uri": "TransmissionRoughnessTestLOD.bin",
      "byteLength": 390032
    }
  ],
  "extensionsUsed": [
    "KHR_materials_transmission",
    "KHR_materials_ior",
    "KHR_materials_volume",
    "NG2_mesh_lod"
  ],
  "images": [
    {
      "uri": "IOR_Labels.png",
      "mimeType": "image/png",
      "name": "IOR_Labels"
    },
    {
      "uri": "RoughnessGrid.png",
      "mimeType": "image/png",
      "name": "RoughnessGrid"
    },
    {
      "uri": "RoughnessGrid-1.png",
      "mimeType": "image/png",
      "name": "RoughnessGrid"
    },
    {
      "uri": "GridWithDetails.png",
      "mimeType": "image/png",
      "name": "GridWithDetails"
    },
    {
      "uri": "SmoothVsRough.png",
      "mimeType": "image/png",
      "name": "SmoothVsRough"
    }
  ],
  "materials": [
    {
      "pbrMetallicRoughness": {
        "baseColorFactor": [
          1.0,
          1.0,
          1.0,
          1.0
        ],
        "metallicFactor": 0.0,
        "roughnessFactor": 0.800000011920929,
        "baseColorTexture": {
          "index": 0,
          "texCoord": 0
        }
      },
      "emissiveFactor": [
        0.0,
        0.0,
        0.0
      ],
      "alphaMode": "OPAQUE",
      "doubleSided": false,
      "name": "LabelMat"
    },
    {
      "extensions": {
        "KHR_materials_transmission": {
          "transmissionFactor": 1
        },
        "KHR_materials_ior": {
          "ior": 1.0
        },
        "KHR_materials_volume": {
          "thicknessFactor": 0.005
        }
      },
      "pbrMetallicRoughness": {
        "baseColorFactor": [
          0.5,
          0.699999988079071,
          0.8999999761581421,
          1.0
        ],
        "metallicFactor": 1.0,
        "roughnessFactor": 1.0,
        "metallicRoughnessTexture": {
          "index": 1,
          "texCoord": 0
        }
      },
      "emissiveFactor": [
        0.0,
        0.0,
        0.0
      ],
      "alphaMode": "OPAQUE",
      "doubleSided": false,
      "name": "Mat_IOR_1.0"
    },
    {
      "extensions": {
        "KHR_materials_transmission": {
          "transmissionFactor": 1
        },
        "KHR_materials_ior": {
          "ior": 1.33
        },
        "KHR_materials_volume": {
          "thicknessFactor": 0.005
        }
      },
      "pbrMetallicRoughness": {
        "baseColorFactor": [
          0.5,
          0.699999988079071,
          0.8999999761581421,
          1.0
        ],
        "metallicFactor": 1.0,
        "roughnessFactor": 1.0,
        "metallicRoughnessTexture": {
          "index": 2,
          "texCoord": 0
        }
      },
      "emissiveFactor": [
        0.0,
        0.0,
        0.0
      ],
      "alphaMode": "OPAQUE",
      "doubleSided": false,
      "name": "Mat_IOR_1.33"
    },
    {
      "extensions": {
        "KHR_materials_transmission": {
          "transmissionFactor": 1
        },
        "KHR_materials_volume": {
          "thicknessFactor": 0.005
        }
      },
      "pbrMetallicRoughness": {
        "baseColorFactor": [
          0.5,
          0.699999988079071,
          0.8999999761581421,
          1.0
        ],
        "metallicFactor": 1.0,
        "roughnessFactor": 1.0,
        "metallicRoughnessTexture": {
          "index": 3,
          "texCoord": 0
        }
      },
      "emissiveFactor": [
        0.0,
        0.0,
        0.0
      ],
      "alphaMode": "OPAQUE",
      "doubleSided": false,
      "name": "Mat_IOR_1.50"
    },
    {
      "extensions": {
        "KHR_materials_transmission": {
          "transmissionFactor": 1
        },
        "KHR_materials_ior": {
          "ior": 1.76
        },
        "KHR_materials_volume": {
          "thicknessFactor": 0.005
        }
      },
      "pbrMetallicRoughness": {
        "baseColorFactor": [
          0.5,
          0.699999988079071,
          0.8999999761581421,
          1.0
        ],
        "metallicFactor": 1.0,
        "roughnessFactor": 1.0,
        "metallicRoughnessTexture": {
          "index": 4,
          "texCoord": 0
        }
      },
      "emissiveFactor": [
        0.0,
        0.0,
        0.0
      ],
      "alphaMode": "OPAQUE",
      "doubleSided": false,
      "name": "Mat_IOR_1.76"
    },
    {
      "extensions": {
        "KHR_materials_transmission": {
          "transmissionFactor": 1
        },
        "KHR_materials_ior": {
          "ior": 2.42
        },
        "KHR_materials_volume": {
          "thicknessFactor": 0.005
        }
      },
      "pbrMetallicRoughness": {
        "baseColorFactor": [
          0.5,
          0.699999988079071,
          0.8999999761581421,
          1.0
        ],
        "metallicFactor": 1.0,
        "roughnessFactor": 1.0,
        "metallicRoughnessTexture": {
          "index": 5,
          "texCoord": 0
        }
      },
      "emissiveFactor": [
        0.0,
        0.0,
        0.0
      ],
      "alphaMode": "OPAQUE",
      "doubleSided": false,
      "name": "Mat_IOR_2.42"
    },
    {
      "pbrMetallicRoughness": {
        "baseColorFactor": [
          0.800000011920929,
          0.800000011920929,
          0.800000011920929,
          1.0
        ],
        "metallicFactor": 1.0,
        "roughnessFactor": 1.0,
        "metallicRoughnessTexture": {
          "index": 6,
          "texCoord": 0
        }
      },
      "emissiveFactor": [
        0.0,
        0.0,
        0.0
      ],
      "alphaMode": "OPAQUE",
      "doubleSided": false,
      "name": "Mat_Opaque"
    },
    {
      "pbrMetallicRoughness": {
        "baseColorFactor": [
          1.0,
          1.0,
          1.0,
          1.0
        ],
        "metallicFactor": 0.0,
        "roughnessFactor": 0.5,
        "baseColorTexture": {
          "index": 7,
          "texCoord": 0
        }
      },
      "emissiveFactor": [
        0.0,
        0.0,
        0.0
      ],
      "alphaMode": "OPAQUE",
      "doubleSided": false,
      "name": "FlatBackdrop"
    },
    {
      "pbrMetallicRoughness": {
        "baseColorFactor": [
          1.0,
          1.0,
          1.0,
          1.0
        ],
        "metallicFactor": 0.0,
        "roughnessFactor": 0.800000011920929,
        "baseColorTexture": {
          "index": 8,
          "texCoord": 0
        }
      },
      "emissiveFactor": [
        0.0,
        0.0,
        0.0
      ],
      "alphaMode": "OPAQUE",
      "doubleSided": true,
      "name": "SmoothVsRough"
    }
  ],
  "meshes": [
    {
      "primitives": [
        {
          "attributes": {
            "POSITION": 0,
            "NORMAL": 1,
            "TEXCOORD_0": 2
          },
          "indices": 3,
          "mode": 4,
          "material": 0
        }
      ],
      "name": "Labels"
    },
    {
      "primitives": [
        {
          "extensions": {
            "NG2_mesh_lod": {
              "levels": [
                {
                  "indices": 16,
                  "error": 0.000224
                },
                {
                  "indices": 17,
                  "error": 0.000566
                }
              ]
            }
          },
          "attributes": {
            "POSITION": 4,
            "NORMAL": 5,
            "TEXCOORD_0": 6
          },
          "indices": 7,
          "mode": 4,
          "material": 1
        }
      ],
      "name": "RoughnessSamples"
    },
    {
      "primitives": [
        {
          "extensions": {
            "NG2_mesh_lod": {
              "levels": [
                {
                  "indices": 16,
                  "error": 0.000224
                },
                {
                  "indices": 17,
                  "error": 0.000566
                }
              ]
            }
          },
          "attributes": {
            "POSITION": 4,
            "NORMAL": 5,
            "TEXCOORD_0": 6
          },
          "indices": 7,
          "mode": 4,
          "material": 2
        }
      ],
      "name": "RoughnessSamples"
    },
    {
      "primitives": [
        {
          "extensions": {
            "NG2_mesh_lod": {
              "levels": [
                {
                  "indices": 16,
                  "error": 0.000224
                },
                {
                  "indices": 17,
                  "error": 0.000566
                }
              ]
            }
          },
          "attributes": {
            "POSITION": 4,
            "NORMAL": 5,
            "TEXCOORD_0": 6
          },
          "indices": 7,
          "mode": 4,
          "material": 3
        }
      ],
      "name": "RoughnessSamples"
    },
    {
      "primitives": [
        {
          "extensions": {
            "NG2_mesh_lod": {
              "levels": [
                {
                  "indices": 16,
                  "error": 0.000224
                },
                {
                  "indices": 17,
                  "error": 0.000566
                }
              ]
            }
          },
          "attributes": {
            "POSITION": 4,
            "NORMAL": 5,
            "TEXCOORD_0": 6
          },
          "indices": 7,
          "mode": 4,
          "material": 4
        }
      ],
      "name": "RoughnessSamples"
    },
    {
      "primitives": [
        {
          "extensions": {
            "NG2_mesh_lod": {
              "levels": [
                {
                  "indices": 16,
                  "error": 0.000224
                },
                {
                  "indices": 17,
                  "error": 0.000566
                }
              ]
            }
          },
          "attributes": {
            "POSITION": 4,
            "NORMAL": 5,
            "TEXCOORD_0": 6
          },
          "indices": 7,
          "mode": 4,
          "material": 5
        }
      ],
      "name": "RoughnessSamples"
    },
    {
      "primitives": [
        {
          "extensions": {
            "NG2_mesh_lod": {
              "levels": [
                {
                  "indices": 16,
                  "error": 0.000224
                },
                {
                  "indices": 17,
                  "error": 0.000566
                }
              ]
            }
          },
          "attributes": {
            "POSITION": 4,
            "NORMAL": 5,
            "TEXCOORD_0": 6
          },
          "indices": 7,
          "mode": 4,
          "material": 6
        }
      ],
      "name": "RoughnessSamples"
    },
    {
      "primitives": [
        {
          "attributes": {
            "POSITION": 8,
            "NORMAL": 9,
            "TEXCOORD_0": 10
          },
          "indices": 11,
          "mode": 4,
          "material": 7
        }
      ],
      "name": "Flat Backdrop Mesh"
    },
    {
      "primitives": [
        {
          "attributes": {
            "POSITION": 12,
            "NORMAL": 13,
            "TEXCOORD_0": 14
          },
          "indices": 15,
          "mode": 4,
          "material": 8
        }
      ],
      "name": "SmoothRoughLabels"
    }
  ],
  "nodes": [
    {
      "mesh": 0,
      "translation": [
        -0.550000011920929,
        0.0,
        0.0
      ],
      "name": "Labels"
    },
    {
      "mesh": 1,
      "translation": [
        0.0,
        -0.2199999988079071,
        0.0
      ],
      "name": "IOR_1.0"
    },
    {
      "mesh": 2,
      "translation": [
        0.0,
        -0.10999999940395355,
        0.0
      ],
      "name": "IOR_1.33"
    },
    {
      "mesh": 3,
      "name": "IOR_1.50"
    },
    {
      "mesh": 4,
      "translation": [
        0.0,
        0.10999999940395355,
        0.0
      ],
      "name": "IOR_1.76"
    },
    {
      "mesh": 5,
      "translation": [
        0.0,
        0.2199999988079071,
        0.0
      ],
      "name": "IOR_2.42"
    },
    {
      "mesh": 6,
      "translation": [
        0.0,
        -0.33000001311302185,
        0.0
      ],
      "name": "Opaque"
    },
    {
      "translation": [
        0.20000000298023224,
        0.0,
        0.0
      ],
      "children": [
        1,
        2,
        3,
        4,
        5,
        6
      ],
      "name": "SampleRoot"
    },
    {
      "mesh": 7,
      "translation": [
        0.0,
        0.0,
        0.10000000149011612
      ],
      "name": "Flat Backdrop"
    },
    {
      "mesh": 8,
      "name": "SmoothRoughLabels"
    }
  ],
  "samplers": [
    {
      "magFilter": 9729,
      "minFilter": 9986,
      "wrapS": 10497,
      "wrapT": 10497
    }
  ],
  "scene": 0,
  "scenes": [
    {
      "name": "Scene",
      "nodes": [
        0,
        7,
        8,
        9
      ]
    }
  ],
  "textures": [
    {
      "sampler": 0,
      "source": 0
    },
    {
      "sampler": 0,
      "source": 1
    },
    {
      "sampler": 0,
      "source": 1
    },
    {
      "sampler": 0,
      "source": 1
    },
    {
      "sampler": 0,
      "source": 1
    },
    {
      "sampler": 0,
      "source": 1
    },
    {
      "sampler": 0,
      "source": 2
    },
    {
      "sampler": 0,
      "source": 3
    },
    {
      "sampler": 0,
      "source": 4
    }
  ]
}