{
  "accessors": [
    {
      "bufferView": 5,
      "byteOffset": 0,
      "componentType": 5125,
      "normalized": false,
      "count": 36,
      "type": "SCALAR"
    },
    {
      "bufferView": 0,
      "byteOffset": 0,
      "componentType": 5126,
      "normalized": false,
      "count": 24,
      "type": "VEC3",
      "max": [
        1.0,
        1.0,
        1.0
      ],
      "min": [
        0.0,
        0.0,
        0.0
      ]
    },
    {
      "bufferView": 1,
      "byteOffset": 0,
      "componentType": 5126,
      "normalized": false,
      "count": 24,
      "type": "VEC3",
      "max": [
        1.0,
        1.0,
        1.0
      ],
      "min": [
        -1.0,
        -1.0,
        -1.0
      ]
    },
    {
      "bufferView": 2,
      "byteOffset": 0,
      "componentType": 5126,
      "normalized": false,
      "count": 125,
      "type": "VEC3",
      "max": [
        10.0,
        10.0,
        10.0
      ],
      "min": [
        0.0,
        0.0,
        0.0
      ]
    },
    {
      "bufferView": 3,
      "byteOffset": 0,
      "componentType": 5126,
      "normalized": false,
      "count": 125,
      "type": "VEC4",
      "max": [
        0.7071068,
        0.7071068,
        0.7071068,
        1.0
      ],
      "min": [
        0.0,
        0.0,
        0.0,
        0.5
      ]
    },
    {
      "bufferView": 4,
      "byteOffset": 0,
      "componentType": 5126,
      "normalized": false,
      "count": 125,
      "type": "VEC3",
      "max": [
        2.0,
        2.0,
        2.0
      ],
      "min": [
        1.0,
        1.0,
        1.0
      ]
    }
  ],
  "asset": {
    "generator": "GDS lod baker 1",
    "version": "2.0"
  },
  "bufferViews": [
    {
      "buffer": 0,
      "byteOffset": 0,
      "byteLength": 288,
      "target": 34962,
      "name": "attribute"
    },
    {
      "buffer": 0,
      "byteOffset": 288,
      "byteLength": 288,
      "target": 34962,
      "name": "attribute"
    },
    {
      "buffer": 0,
      "byteOffset": 576,
      "byteLength": 1500,
      "name": "additional"
    },
    {
      "buffer": 0,
      "byteOffset": 2076,
      "byteLength": 2000,
      "name": "additional"
    },
    {
      "buffer": 0,
      "byteOffset": 4076,
      "byteLength": 1500,
      "name": "additional"
    },
    {
      "buffer": 0,
      "byteOffset": 5576,
      "byteLength": 144,
      "target": 34963
    }
  ],
  "buffers": [
    {
      "uri": "SimpleInstancingLOD.bin",
      "byteLength": 5720
    }
  ],
  "extensionsUsed": [
    "EXT_mesh_gpu_instancing"
  ],
  "meshes": [
    {
      "primitives": [
        {
          "attributes": {
            "POSITION": 1,
            "NORMAL": 2
          },
          "indices": 0,
          "mode": 4
        }
      ]
    }
  ],
  "nodes": [
    {
      "extensions": {
        "EXT_mesh_gpu_instancing": {
          "attributes": {
            "TRANSLATION": 3,
            "ROTATION": 4,
            "SCALE": 5
          }
        }
      },
      "mesh": 0
    }
  ],
  "scene": 0,
  "scenes": [
    {
      "nodes": [
        0
      ]
    }
  ]
}