{
  "accessors": [
    {
      "bufferView": 2,
      "byteOffset": 0,
      "componentType": 5123,
      "normalized": false,
      "count": 184320,
      "type": "SCALAR"
    },
    {
      "bufferView": 0,
      "byteOffset": 5389968,
      "componentType": 5126,
      "normalized": false,
      "count": 31332,
      "type": "VEC3",
      "max": [
        0.9999999403953552,
        1.0,
        1.0
      ],
      "min": [
        -0.9999999403953552,
        -1.0,
        -1.0
      ]
    },
    {
      "bufferView": 0,
      "byteOffset": 5765952,
      "componentType": 5126,
      "normalized": false,
      "count": 31332,
      "type": "VEC3",
      "max": [
        -8.0,
        9.0,
        10.0
      ],
      "min": [
        -10.0,
        -1.0,
        -7.0
      ]
    },
    {
      "bufferView": 1,
      "byteOffset": 1796656,
      "componentType": 5126,
      "normalized": false,
      "count": 31332,
      "type": "VEC2",
      "max": [
        0.1278132051229477,
        0.7597609758377075
      ],
      "min": [
        0.03436123952269554,
        0.013921022415161133
      ]
    },
    {
      "bufferView": 3,
      "byteOffset": 0,
      "componentType": 5123,
      "normalized": false,
      "count": 368640,
      "type": "SCALAR"
    },
    {
      "bufferView": 0,
      "byteOffset": 0,
      "componentType": 5126,
      "normalized": false,
      "count": 62664,
      "type": "VEC3",
      "max": [
        0.9999999403953552,
        1.0,
        1.0
      ],
      "min": [
        -0.9999999403953552,
        -1.0,
        -1.0
      ]
    },
    {
      "bufferView": 0,
      "byteOffset": 751968,
      "componentType": 5126,
      "normalized": false,
      "count": 62664,
      "type": "VEC3",
      "max": [
        -2.0,
        9.0,
        10.0
      ],
      "min": [
        -7.0,
        -1.0,
        -7.0
      ]
    },
    {
      "bufferView": 1,
      "byteOffset": 0,
      "componentType": 5126,
      "normalized": false,
      "count": 62664,
      "type": "VEC2",
      "max": [
        0.4161497056484223,
        0.7597609758377075
      ],
      "min": [
        0.15740810334682465,
        0.012456059455871582
      ]
    },
    {
      "bufferView": 4,
      "byteOffset": 0,
      "componentType": 5123,
      "normalized": false,
      "count": 368640,
      "type": "SCALAR"
    },
    {
      "bufferView": 0,
      "byteOffset": 3886032,
      "componentType": 5126,
      "normalized": false,
      "count": 62664,
      "type": "VEC3",
      "max": [
        0.9999999403953552,
        1.0,
        1.0
      ],
      "min": [
        -0.9999999403953552,
        -1.0,
        -1.0
      ]
    },
    {
      "bufferView": 0,
      "byteOffset": 4638000,
      "componentType": 5126,
      "normalized": false,
      "count": 62664,
      "type": "VEC3",
      "max": [
        4.0,
        9.0,
        10.0
      ],
      "min": [
        -1.0,
        -1.0,
        -7.0
      ]
    },
    {
      "bufferView": 1,
      "byteOffset": 1295344,
      "componentType": 5126,
      "normalized": false,
      "count": 62664,
      "type": "VEC2",
      "max": [
        0.7028239369392395,
        0.7636672854423523
      ],
      "min": [
        0.4482637047767639,
        0.015471160411834717
      ]
    },
    {
      "bufferView": 5,
      "byteOffset": 0,
      "componentType": 5123,
      "normalized": false,
      "count": 368640,
      "type": "SCALAR"
    },
    {
      "bufferView": 0,
      "byteOffset": 2382096,
      "componentType": 5126,
      "normalized": false,
      "count": 62664,
      "type": "VEC3",
      "max": [
        0.9999999403953552,
        1.0,
        1.0
      ],
      "min": [
        -0.9999999403953552,
        -1.0,
        -1.0
      ]
    },
    {
      "bufferView": 0,
      "byteOffset": 3134064,
      "componentType": 5126,
      "normalized": false,
      "count": 62664,
      "type": "VEC3",
      "max": [
        10.0,
        9.0,
        10.0
      ],
      "min": [
        5.0,
        -1.0,
        -7.0
      ]
    },
    {
      "bufferView": 1,
      "byteOffset": 794032,
      "componentType": 5126,
      "normalized": false,
      "count": 62664,
      "type": "VEC2",
      "max": [
        0.9852716326713562,
        0.7671433687210083
      ],
      "min": [
        0.7233805060386658,
        0.016381680965423584
      ]
    },
    {
      "bufferView": 6,
      "byteOffset": 0,
      "componentType": 5123,
      "normalized": false,
      "count": 215088,
      "type": "SCALAR"
    },
    {
      "bufferView": 0,
      "byteOffset": 1503936,
      "componentType": 5126,
      "normalized": false,
      "count": 36590,
      "type": "VEC3",
      "max": [
        0.9999999403953552,
        1.0,
        1.0
      ],
      "min": [
        -0.9999999403953552,
        -1.0,
        -1.0
      ]
    },
    {
      "bufferView": 0,
      "byteOffset": 1943016,
      "componentType": 5126,
      "normalized": false,
      "count": 36590,
      "type": "VEC3",
      "max": [
        11.874730110168455,
        9.0,
        10.969940185546877
      ],
      "min": [
        -12.186589241027832,
        -1.0,
        -12.35944938659668
      ]
    },
    {
      "bufferView": 1,
      "byteOffset": 501312,
      "componentType": 5126,
      "normalized": false,
      "count": 36590,
      "type": "VEC2",
      "max": [
        0.9869875311851501,
        0.9988328814506532
      ],
      "min": [
        0.0013856289442628624,
        0.016568005084991455
      ]
    },
    {
      "bufferView": 2,
      "byteOffset": 368640,
      "componentType": 5123,
      "normalized": false,
      "count": 92160,
      "type": "SCALAR"
    },
    {
      "bufferView": 2,
      "byteOffset": 552960,
      "componentType": 5123,
      "normalized": false,
      "count": 46080,
      "type": "SCALAR"
    },
    {
      "bufferView": 3,
      "byteOffset": 737280,
      "componentType": 5123,
      "normalized": false,
      "count": 184320,
      "type": "SCALAR"
    },
    {
      "bufferView": 3,
      "byteOffset": 1105920,
      "componentType": 5123,
      "normalized": false,
      "count": 92160,
      "type": "SCALAR"
    },
    {
      "bufferView": 4,
      "byteOffset": 737280,
      "componentType": 5123,
      "normalized": false,
      "count": 184320,
      "type": "SCALAR"
    },
    {
      "bufferView": 4,
      "byteOffset": 1105920,
      "componentType": 5123,
      "normalized": false,
      "count": 92160,
      "type": "SCALAR"
    },
    {
      "bufferView": 5,
      "byteOffset": 737280,
      "componentType": 5123,
      "normalized": false,
      "count": 184320,
      "type": "SCALAR"
    },
    {
      "bufferView": 5,
      "byteOffset": 1105920,
      "componentType": 5123,
      "normalized": false,
      "count": 92160,
      "type": "SCALAR"
    },
    {
      "bufferView": 6,
      "byteOffset": 430176,
      "componentType": 5123,
      "normalized": false,
      "count": 107544,
      "type": "SCALAR"
    },
    {
      "bufferView": 6,
      "byteOffset": 645264,
      "componentType": 5123,
      "normalized": false,
      "count": 53772,
      "type": "SCALAR"
    }
  ],
  "asset": {
    "generator": "GDS lod baker 1",
    "copyright": "Copyright 2017 Analytical Graphics, Inc, CC-BY 4.0 https://creativecommons.org/licenses/by/4.0/ - Model and textures by Ed Mackey.",
    "version": "2.0"
  },
  "bufferViews": [
    {
      "buffer": 0,
      "byteOffset": 0,
      "byteLength": 6141936,
      "byteStride": 12,
      "target": 34962
    },
    {
      "buffer": 0,
      "byteOffset": 6141936,
      "byteLength": 2047312,
      "byteStride": 8,
      "target": 34962
    },
    {
      "buffer": 0,
      "byteOffset": 8189248,
      "byteLength": 645120,
      "target": 34963
    },
    {
      "buffer": 0,
      "byteOffset": 8834368,
      "byteLength": 1290240,
      "target": 34963
    },
    {
      "buffer": 0,
      "byteOffset": 10124608,
      "byteLength": 1290240,
      "target": 34963
    },
    {
      "buffer": 0,
      "byteOffset": 11414848,
      "byteLength": 1290240,
      "target": 34963
    },
    {
      "buffer": 0,
      "byteOffset": 12705088,
      "byteLength": 752808,
      "target": 34963
    }
  ],
  "buffers": [
    {
      "uri": "MetalRoughSpheresLOD.bin",
      "byteLength": 13457896
    }
  ],
  "extensionsUsed": [
    "NG2_mesh_lod"
  ],
  "images": [
    {
      "uri": "Spheres_BaseColor.png"
    },
    {
      "uri": "Spheres_MetalRough.png"
    }
  ],
  "materials": [
    {
      "pbrMetallicRoughness": {
        "baseColorFactor": [
          1.0,
          1.0,
          1.0,
          1.0
        ],
        "metallicFactor": 1.0,
        "roughnessFactor": 1.0,
        "baseColorTexture": {
          "index": 0,
          "texCoord": 0
        },
        "metallicRoughnessTexture": {
          "index": 1,
          "texCoord": 0
        }
      },
      "emissiveFactor": [
        0.0,
        0.0,
        0.0
      ],
      "alphaMode": "OPAQUE",
      "doubleSided": false
    }
  ],
  "meshes": [
    {
      "primitives": [
        {
          "extensions": {
            "NG2_mesh_lod": {
              "levels": [
                {
                  "indices": 20,
                  "error": 0.003951
                },
                {
                  "indices": 21,
                  "error": 0.006554
                }
              ]
            }
          },
          "attributes": {
            "POSITION": 2,
            "NORMAL": 1,
            "TEXCOORD_0": 3
          },
          "indices": 0,
          "mode": 4,
          "material": 0
        }
      ],
      "name": "Spheres.004"
    },
    {
      "primitives": [
        {
          "extensions": {
            "NG2_mesh_lod": {
              "levels": [
                {
                  "indices": 22,
                  "error": 0.003951
                },
                {
                  "indices": 23,
                  "error": 0.00656
                }
              ]
            }
          },
          "attributes": {
            "POSITION": 6,
            "NORMAL": 5,
            "TEXCOORD_0": 7
          },
          "indices": 4,
          "mode": 4,
          "material": 0
        }
      ],
      "name": "Spheres.003"
    },
    {
      "primitives": [
        {
          "extensions": {
            "NG2_mesh_lod": {
              "levels": [
                {
                  "indices": 24,
                  "error": 0.003951
                },
                {
                  "indices": 25,
                  "error": 0.006562
                }
              ]
            }
          },
          "attributes": {
            "POSITION": 10,
            "NORMAL": 9,
            "TEXCOORD_0": 11
          },
          "indices": 8,
          "mode": 4,
          "material": 0
        }
      ],
      "name": "Spheres.002"
    },
    {
      "primitives": [
        {
          "extensions": {
            "NG2_mesh_lod": {
              "levels": [
                {
                  "indices": 26,
                  "error": 0.003951
                },
                {
                  "indices": 27,
                  "error": 0.006562
                }
              ]
            }
          },
          "attributes": {
            "POSITION": 14,
            "NORMAL": 13,
            "TEXCOORD_0": 15
          },
          "indices": 12,
          "mode": 4,
          "material": 0
        }
      ],
      "name": "Spheres.001"
    },
    {
      "primitives": [
        {
          "extensions": {
            "NG2_mesh_lod": {
              "levels": [
                {
                  "indices": 28,
                  "error": 0.003885
                },
                {
                  "indices": 29,
                  "error": 0.006727
                }
              ]
            }
          },
          "attributes": {
            "POSITION": 18,
            "NORMAL": 17,
            "TEXCOORD_0": 19
          },
          "indices": 16,
          "mode": 4,
          "material": 0
        }
      ],
      "name": "Spheres"
    }
  ],
  "nodes": [
    {
      "children": [
        5,
        4,
        3,
        2,
        1
      ],
      "matrix": [
        0.4,
        0.0,
        0.0,
        0.0,
        0.0,
        0.0,
        -0.4,
        0.0,
        0.0,
        0.4,
        0.0,
        0.0,
        0.0,
        0.0,
        0.0,
        1.0
      ]
    },
    {
      "mesh": 0
    },
    {
      "mesh": 1
    },
    {
      "mesh": 2
    },
    {
      "mesh": 3
    },
    {
      "mesh": 4
    }
  ],
  "samplers": [
    {
      "magFilter": 9729,
      "minFilter": 9986,
      "wrapS": 33071,
      "wrapT": 33071
    }
  ],
  "scene": 0,
  "scenes": [
    {
      "nodes": [
        0
      ]
    }
  ],
  "textures": [
    {
      "sampler": 0,
      "source": 0
    },
    {
      "sampler": 0,
      "source": 1
    }
  ]
}