{
  "accessors": [
    {
      "bufferView": 48,
      "byteOffset": 0,
      "componentType": 5125,
      "normalized": false,
      "count": 6,
      "type": "SCALAR"
    },
    {
      "bufferView": 0,
      "byteOffset": 0,
      "componentType": 5126,
      "normalized": false,
      "count": 6,
      "type": "VEC3",
      "max": [
        0.2761881351470947,
        0.04495471343398094,
        0.32817214727401733
      ],
      "min": [
        -0.27581340074539185,
        0.04495461657643318,
        -0.32905420660972595
      ]
    },
    {
      "bufferView": 1,
      "byteOffset": 0,
      "componentType": 5126,
      "normalized": false,
      "count": 6,
      "type": "VEC3"
    },
    {
      "bufferView": 2,
      "byteOffset": 0,
      "componentType": 5126,
      "normalized": false,
      "count": 6,
      "type": "VEC2",
      "max": [
        5.499986171722412,
        1.5013034343719482
      ],
      "min": [
        0.499073326587677,
        -4.50092077255249
      ]
    },
    {
      "bufferView": 49,
      "byteOffset": 0,
      "componentType": 5125,
      "normalized": false,
      "count": 3840,
      "type": "SCALAR"
    },
    {
      "bufferView": 3,
      "byteOffset": 0,
      "componentType": 5126,
      "normalized": false,
      "count": 3840,
      "type": "VEC3",
      "max": [
        0.04999999701976776,
        0.05000000074505806,
        0.05000000074505806
      ],
      "min": [
        -0.05000000074505806,
        -0.05000000074505806,
        -0.05000000074505806
      ]
    },
    {
      "bufferView": 4,
      "byteOffset": 0,
      "componentType": 5126,
      "normalized": false,
      "count": 3840,
      "type": "VEC3"
    },
    {
      "bufferView": 50,
      "byteOffset": 0,
      "componentType": 5125,
      "normalized": false,
      "count": 3840,
      "type": "SCALAR"
    },
    {
      "bufferView": 5,
      "byteOffset": 0,
      "componentType": 5126,
      "normalized": false,
      "count": 3840,
      "type": "VEC3",
      "max": [
        0.04999999701976776,
        0.05000000074505806,
        0.05000000074505806
      ],
      "min": [
        -0.05000000074505806,
        -0.05000000074505806,
        -0.05000000074505806
      ]
    },
    {
      "bufferView": 6,
      "byteOffset": 0,
      "componentType": 5126,
      "normalized": false,
      "count": 3840,
      "type": "VEC3"
    },
    {
      "bufferView": 51,
      "byteOffset": 0,
      "componentType": 5125,
      "normalized": false,
      "count": 3840,
      "type": "SCALAR"
    },
    {
      "bufferView": 7,
      "byteOffset": 0,
      "componentType": 5126,
      "normalized": false,
      "count": 3840,
      "type": "VEC3",
      "max": [
        0.04999999701976776,
        0.05000000074505806,
        0.05000000074505806
      ],
      "min": [
        -0.05000000074505806,
        -0.05000000074505806,
        -0.05000000074505806
      ]
    },
    {
      "bufferView": 8,
      "byteOffset": 0,
      "componentType": 5126,
      "normalized": false,
      "count": 3840,
      "type": "VEC3"
    },
    {
      "bufferView": 52,
      "byteOffset": 0,
      "componentType": 5125,
      "normalized": false,
      "count": 3840,
      "type": "SCALAR"
    },
    {
      "bufferView": 9,
      "byteOffset": 0,
      "componentType": 5126,
      "normalized": false,
      "count": 3840,
      "type": "VEC3",
      "max": [
        0.04999999701976776,
        0.05000000074505806,
        0.05000000074505806
      ],
      "min": [
        -0.05000000074505806,
        -0.05000000074505806,
        -0.05000000074505806
      ]
    },
    {
      "bufferView": 10,
      "byteOffset": 0,
      "componentType": 5126,
      "normalized": false,
      "count": 3840,
      "type": "VEC3"
    },
    {
      "bufferView": 53,
      "byteOffset": 0,
      "componentType": 5125,
      "normalized": false,
      "count": 3840,
      "type": "SCALAR"
    },
    {
      "bufferView": 11,
      "byteOffset": 0,
      "componentType": 5126,
      "normalized": false,
      "count": 3840,
      "type": "VEC3",
      "max": [
        0.04999999701976776,
        0.05000000074505806,
        0.05000000074505806
      ],
      "min": [
        -0.05000000074505806,
        -0.05000000074505806,
        -0.05000000074505806
      ]
    },
    {
      "bufferView": 12,
      "byteOffset": 0,
      "componentType": 5126,
      "normalized": false,
      "count": 3840,
      "type": "VEC3"
    },
    {
      "bufferView": 54,
      "byteOffset": 0,
      "componentType": 5125,
      "normalized": false,
      "count": 3840,
      "type": "SCALAR"
    },
    {
      "bufferView": 13,
      "byteOffset": 0,
      "componentType": 5126,
      "normalized": false,
      "count": 3840,
      "type": "VEC3",
      "max": [
        0.04999999701976776,
        0.05000000074505806,
        0.05000000074505806
      ],
      "min": [
        -0.05000000074505806,
        -0.05000000074505806,
        -0.05000000074505806
      ]
    },
    {
      "bufferView": 14,
      "byteOffset": 0,
      "componentType": 5126,
      "normalized": false,
      "count": 3840,
      "type": "VEC3"
    },
    {
      "bufferView": 55,
      "byteOffset": 0,
      "componentType": 5125,
      "normalized": false,
      "count": 3840,
      "type": "SCALAR"
    },
    {
      "bufferView": 15,
      "byteOffset": 0,
      "componentType": 5126,
      "normalized": false,
      "count": 3840,
      "type": "VEC3",
      "max": [
        0.04999999701976776,
        0.05000000074505806,
        0.05000000074505806
      ],
      "min": [
        -0.05000000074505806,
        -0.05000000074505806,
        -0.05000000074505806
      ]
    },
    {
      "bufferView": 16,
      "byteOffset": 0,
      "componentType": 5126,
      "normalized": false,
      "count": 3840,
      "type": "VEC3"
    },
    {
      "bufferView": 56,
      "byteOffset": 0,
      "componentType": 5125,
      "normalized": false,
      "count": 3840,
      "type": "SCALAR"
    },
    {
      "bufferView": 17,
      "byteOffset": 0,
      "componentType": 5126,
      "normalized": false,
      "count": 3840,
      "type": "VEC3",
      "max": [
        0.04999999701976776,
        0.05000000074505806,
        0.05000000074505806
      ],
      "min": [
        -0.05000000074505806,
        -0.05000000074505806,
        -0.05000000074505806
      ]
    },
    {
      "bufferView": 18,
      "byteOffset": 0,
      "componentType": 5126,
      "normalized": false,
      "count": 3840,
      "type": "VEC3"
    },
    {
      "bufferView": 57,
      "byteOffset": 0,
      "componentType": 5125,
      "normalized": false,
      "count": 3840,
      "type": "SCALAR"
    },
    {
      "bufferView": 19,
      "byteOffset": 0,
      "componentType": 5126,
      "normalized": false,
      "count": 3840,
      "type": "VEC3",
      "max": [
        0.04999999701976776,
        0.05000000074505806,
        0.05000000074505806
      ],
      "min": [
        -0.05000000074505806,
        -0.05000000074505806,
        -0.05000000074505806
      ]
    },
    {
      "bufferView": 20,
      "byteOffset": 0,
      "componentType": 5126,
      "normalized": false,
      "count": 3840,
      "type": "VEC3"
    },
    {
      "bufferView": 58,
      "byteOffset": 0,
      "componentType": 5125,
      "normalized": false,
      "count": 3840,
      "type": "SCALAR"
    },
    {
      "bufferView": 21,
      "byteOffset": 0,
      "componentType": 5126,
      "normalized": false,
      "count": 3840,
      "type": "VEC3",
      "max": [
        0.04999999701976776,
        0.05000000074505806,
        0.05000000074505806
      ],
      "min": [
        -0.05000000074505806,
        -0.05000000074505806,
        -0.05000000074505806
      ]
    },
    {
      "bufferView": 22,
      "byteOffset": 0,
      "componentType": 5126,
      "normalized": false,
      "count": 3840,
      "type": "VEC3"
    },
    {
      "bufferView": 59,
      "byteOffset": 0,
      "componentType": 5125,
      "normalized": false,
      "count": 3840,
      "type": "SCALAR"
    },
    {
      "bufferView": 23,
      "byteOffset": 0,
      "componentType": 5126,
      "normalized": false,
      "count": 3840,
      "type": "VEC3",
      "max": [
        0.04999999701976776,
        0.05000000074505806,
        0.05000000074505806
      ],
      "min": [
        -0.05000000074505806,
        -0.05000000074505806,
        -0.05000000074505806
      ]
    },
    {
      "bufferView": 24,
      "byteOffset": 0,
      "componentType": 5126,
      "normalized": false,
      "count": 3840,
      "type": "VEC3"
    },
    {
      "bufferView": 60,
      "byteOffset": 0,
      "componentType": 5125,
      "normalized": false,
      "count": 3840,
      "type": "SCALAR"
    },
    {
      "bufferView": 25,
      "byteOffset": 0,
      "componentType": 5126,
      "normalized": false,
      "count": 3840,
      "type": "VEC3",
      "max": [
        0.04999999701976776,
        0.05000000074505806,
        0.05000000074505806
      ],
      "min": [
        -0.05000000074505806,
        -0.05000000074505806,
        -0.05000000074505806
      ]
    },
    {
      "bufferView": 26,
      "byteOffset": 0,
      "componentType": 5126,
      "normalized": false,
      "count": 3840,
      "type": "VEC3"
    },
    {
      "bufferView": 61,
      "byteOffset": 0,
      "componentType": 5125,
      "normalized": false,
      "count": 3840,
      "type": "SCALAR"
    },
    {
      "bufferView": 27,
      "byteOffset": 0,
      "componentType": 5126,
      "normalized": false,
      "count": 3840,
      "type": "VEC3",
      "max": [
        0.04999999701976776,
        0.05000000074505806,
        0.05000000074505806
      ],
      "min": [
        -0.05000000074505806,
        -0.05000000074505806,
        -0.05000000074505806
      ]
    },
    {
      "bufferView": 28,
      "byteOffset": 0,
      "componentType": 5126,
      "normalized": false,
      "count": 3840,
      "type": "VEC3"
    },
    {
      "bufferView": 62,
      "byteOffset": 0,
      "componentType": 5125,
      "normalized": false,
      "count": 3840,
      "type": "SCALAR"
    },
    {
      "bufferView": 29,
      "byteOffset": 0,
      "componentType": 5126,
      "normalized": false,
      "count": 3840,
      "type": "VEC3",
      "max": [
        0.04999999701976776,
        0.05000000074505806,
        0.05000000074505806
      ],
      "min": [
        -0.05000000074505806,
        -0.05000000074505806,
        -0.05000000074505806
      ]
    },
    {
      "bufferView": 30,
      "byteOffset": 0,
      "componentType": 5126,
      "normalized": false,
      "count": 3840,
      "type": "VEC3"
    },
    {
      "bufferView": 63,
      "byteOffset": 0,
      "componentType": 5125,
      "normalized": false,
      "count": 3840,
      "type": "SCALAR"
    },
    {
      "bufferView": 31,
      "byteOffset": 0,
      "componentType": 5126,
      "normalized": false,
      "count": 3840,
      "type": "VEC3",
      "max": [
        0.04999999701976776,
        0.05000000074505806,
        0.05000000074505806
      ],
      "min": [
        -0.05000000074505806,
        -0.05000000074505806,
        -0.05000000074505806
      ]
    },
    {
      "bufferView": 32,
      "byteOffset": 0,
      "componentType": 5126,
      "normalized": false,
      "count": 3840,
      "type": "VEC3"
    },
    {
      "bufferView": 64,
      "byteOffset": 0,
      "componentType": 5125,
      "normalized": false,
      "count": 3840,
      "type": "SCALAR"
    },
    {
      "bufferView": 33,
      "byteOffset": 0,
      "componentType": 5126,
      "normalized": false,
      "count": 3840,
      "type": "VEC3",
      "max": [
        0.04999999701976776,
        0.05000000074505806,
        0.05000000074505806
      ],
      "min": [
        -0.05000000074505806,
        -0.05000000074505806,
        -0.05000000074505806
      ]
    },
    {
      "bufferView": 34,
      "byteOffset": 0,
      "componentType": 5126,
      "normalized": false,
      "count": 3840,
      "type": "VEC3"
    },
    {
      "bufferView": 65,
      "byteOffset": 0,
      "componentType": 5125,
      "normalized": false,
      "count": 3840,
      "type": "SCALAR"
    },
    {
      "bufferView": 35,
      "byteOffset": 0,
      "componentType": 5126,
      "normalized": false,
      "count": 3840,
      "type": "VEC3",
      "max": [
        0.04999999701976776,
        0.05000000074505806,
        0.05000000074505806
      ],
      "min": [
        -0.05000000074505806,
        -0.05000000074505806,
        -0.05000000074505806
      ]
    },
    {
      "bufferView": 36,
      "byteOffset": 0,
      "componentType": 5126,
      "normalized": false,
      "count": 3840,
      "type": "VEC3"
    },
    {
      "bufferView": 66,
      "byteOffset": 0,
      "componentType": 5125,
      "normalized": false,
      "count": 3840,
      "type": "SCALAR"
    },
    {
      "bufferView": 37,
      "byteOffset": 0,
      "componentType": 5126,
      "normalized": false,
      "count": 3840,
      "type": "VEC3",
      "max": [
        0.04999999701976776,
        0.05000000074505806,
        0.05000000074505806
      ],
      "min": [
        -0.05000000074505806,
        -0.05000000074505806,
        -0.05000000074505806
      ]
    },
    {
      "bufferView": 38,
      "byteOffset": 0,
      "componentType": 5126,
      "normalized": false,
      "count": 3840,
      "type": "VEC3"
    },
    {
      "bufferView": 67,
      "byteOffset": 0,
      "componentType": 5125,
      "normalized": false,
      "count": 3840,
      "type": "SCALAR"
    },
    {
      "bufferView": 39,
      "byteOffset": 0,
      "componentType": 5126,
      "normalized": false,
      "count": 3840,
      "type": "VEC3",
      "max": [
        0.04999999701976776,
        0.05000000074505806,
        0.05000000074505806
      ],
      "min": [
        -0.05000000074505806,
        -0.05000000074505806,
        -0.05000000074505806
      ]
    },
    {
      "bufferView": 40,
      "byteOffset": 0,
      "componentType": 5126,
      "normalized": false,
      "count": 3840,
      "type": "VEC3"
    },
    {
      "bufferView": 68,
      "byteOffset": 0,
      "componentType": 5125,
      "normalized": false,
      "count": 3840,
      "type": "SCALAR"
    },
    {
      "bufferView": 41,
      "byteOffset": 0,
      "componentType": 5126,
      "normalized": false,
      "count": 3840,
      "type": "VEC3",
      "max": [
        0.04999999701976776,
        0.05000000074505806,
        0.05000000074505806
      ],
      "min": [
        -0.05000000074505806,
        -0.05000000074505806,
        -0.05000000074505806
      ]
    },
    {
      "bufferView": 42,
      "byteOffset": 0,
      "componentType": 5126,
      "normalized": false,
      "count": 3840,
      "type": "VEC3"
    },
    {
      "bufferView": 69,
      "byteOffset": 0,
      "componentType": 5125,
      "normalized": false,
      "count": 15975,
      "type": "SCALAR"
    },
    {
      "bufferView": 43,
      "byteOffset": 0,
      "componentType": 5126,
      "normalized": false,
      "count": 15975,
      "type": "VEC3",
      "max": [
        0.22722432017326355,
        -0.017528198659420013,
        0.41507068276405334
      ],
      "min": [
        -0.4048495590686798,
        -0.017528222873806953,
        -0.22208347916603088
      ]
    },
    {
      "bufferView": 44,
      "byteOffset": 0,
      "componentType": 5126,
      "normalized": false,
      "count": 15975,
      "type": "VEC3"
    },
    {
      "bufferView": 70,
      "byteOffset": 0,
      "componentType": 5125,
      "normalized": false,
      "count": 54,
      "type": "SCALAR"
    },
    {
      "bufferView": 45,
      "byteOffset": 0,
      "componentType": 5126,
      "normalized": false,
      "count": 54,
      "type": "VEC3",
      "max": [
        0.23158764839172363,
        -0.01499994844198227,
        0.4225093126296997
      ],
      "min": [
        -0.41163840889930725,
        -0.015000037848949432,
        -0.2303129881620407
      ]
    },
    {
      "bufferView": 46,
      "byteOffset": 0,
      "componentType": 5126,
      "normalized": false,
      "count": 54,
      "type": "VEC3"
    },
    {
      "bufferView": 47,
      "byteOffset": 0,
      "componentType": 5126,
      "normalized": false,
      "count": 54,
      "type": "VEC2",
      "max": [
        0.9391007423400879,
        -3.3251123428344727
      ],
      "min": [
        -0.2766435742378235,
        -3.59622859954834
      ]
    },
    {
      "bufferView": 69,
      "byteOffset": 63900,
      "componentType": 5125,
      "normalized": false,
      "count": 5208,
      "type": "SCALAR"
    },
    {
      "bufferView": 69,
      "byteOffset": 84732,
      "componentType": 5125,
      "normalized": false,
      "count": 1578,
      "type": "SCALAR"
    }
  ],
  "asset": {
    "generator": "GDS lod baker 1",
    "copyright": "CC0 public domain, asset created by Eric Chadwick",
    "version": "2.0"
  },
  "bufferViews": [
    {
      "buffer": 0,
      "byteOffset": 0,
      "byteLength": 72,
      "target": 34962
    },
    {
      "buffer": 0,
      "byteOffset": 72,
      "byteLength": 72,
      "target": 34962
    },
    {
      "buffer": 0,
      "byteOffset": 144,
      "byteLength": 48,
      "target": 34962
    },
    {
      "buffer": 0,
      "byteOffset": 192,
      "byteLength": 46080,
      "target": 34962
    },
    {
      "buffer": 0,
      "byteOffset": 46272,
      "byteLength": 46080,
      "target": 34962
    },
    {
      "buffer": 0,
      "byteOffset": 92352,
      "byteLength": 46080,
      "target": 34962
    },
    {
      "buffer": 0,
      "byteOffset": 138432,
      "byteLength": 46080,
      "target": 34962
    },
    {
      "buffer": 0,
      "byteOffset": 184512,
      "byteLength": 46080,
      "target": 34962
    },
    {
      "buffer": 0,
      "byteOffset": 230592,
      "byteLength": 46080,
      "target": 34962
    },
    {
      "buffer": 0,
      "byteOffset": 276672,
      "byteLength": 46080,
      "target": 34962
    },
    {
      "buffer": 0,
      "byteOffset": 322752,
      "byteLength": 46080,
      "target": 34962
    },
    {
      "buffer": 0,
      "byteOffset": 368832,
      "byteLength": 46080,
      "target": 34962
    },
    {
      "buffer": 0,
      "byteOffset": 414912,
      "byteLength": 46080,
      "target": 34962
    },
    {
      "buffer": 0,
      "byteOffset": 460992,
      "byteLength": 46080,
      "target": 34962
    },
    {
      "buffer": 0,
      "byteOffset": 507072,
      "byteLength": 46080,
      "target": 34962
    },
    {
      "buffer": 0,
      "byteOffset": 553152,
      "byteLength": 46080,
      "target": 34962
    },
    {
      "buffer": 0,
      "byteOffset": 599232,
      "byteLength": 46080,
      "target": 34962
    },
    {
      "buffer": 0,
      "byteOffset": 645312,
      "byteLength": 46080,
      "target": 34962
    },
    {
      "buffer": 0,
      "byteOffset": 691392,
      "byteLength": 46080,
      "target": 34962
    },
    {
      "buffer": 0,
      "byteOffset": 737472,
      "byteLength": 46080,
      "target": 34962
    },
    {
      "buffer": 0,
      "byteOffset": 783552,
      "byteLength": 46080,
      "target": 34962
    },
    {
      "buffer": 0,
      "byteOffset": 829632,
      "byteLength": 46080,
      "target": 34962
    },
    {
      "buffer": 0,
      "byteOffset": 875712,
      "byteLength": 46080,
      "target": 34962
    },
    {
      "buffer": 0,
      "byteOffset": 921792,
      "byteLength": 46080,
      "target": 34962
    },
    {
      "buffer": 0,
      "byteOffset": 967872,
      "byteLength": 46080,
      "target": 34962
    },
    {
      "buffer": 0,
      "byteOffset": 1013952,
      "byteLength": 46080,
      "target": 34962
    },
    {
      "buffer": 0,
      "byteOffset": 1060032,
      "byteLength": 46080,
      "target": 34962
    },
    {
      "buffer": 0,
      "byteOffset": 1106112,
      "byteLength": 46080,
      "target": 34962
    },
    {
      "buffer": 0,
      "byteOffset": 1152192,
      "byteLength": 46080,
      "target": 34962
    },
    {
      "buffer": 0,
      "byteOffset": 1198272,
      "byteLength": 46080,
      "target": 34962
    },
    {
      "buffer": 0,
      "byteOffset": 1244352,
      "byteLength": 46080,
      "target": 34962
    },
    {
      "buffer": 0,
      "byteOffset": 1290432,
      "byteLength": 46080,
      "target": 34962
    },
    {
      "buffer": 0,
      "byteOffset": 1336512,
      "byteLength": 46080,
      "target": 34962
    },
    {
      "buffer": 0,
      "byteOffset": 1382592,
      "byteLength": 46080,
      "target": 34962
    },
    {
      "buffer": 0,
      "byteOffset": 1428672,
      "byteLength": 46080,
      "target": 34962
    },
    {
      "buffer": 0,
      "byteOffset": 1474752,
      "byteLength": 46080,
      "target": 34962
    },
    {
      "buffer": 0,
      "byteOffset": 1520832,
      "byteLength": 46080,
      "target": 34962
    },
    {
      "buffer": 0,
      "byteOffset": 1566912,
      "byteLength": 46080,
      "target": 34962
    },
    {
      "buffer": 0,
      "byteOffset": 1612992,
      "byteLength": 46080,
      "target": 34962
    },
    {
      "buffer": 0,
      "byteOffset": 1659072,
      "byteLength": 46080,
      "target": 34962
    },
    {
      "buffer": 0,
      "byteOffset": 1705152,
      "byteLength": 46080,
      "target": 34962
    },
    {
      "buffer": 0,
      "byteOffset": 1751232,
      "byteLength": 46080,
      "target": 34962
    },
    {
      "buffer": 0,
      "byteOffset": 1797312,
      "byteLength": 46080,
      "target": 34962
    },
    {
      "buffer": 0,
      "byteOffset": 1843392,
      "byteLength": 191700,
      "target": 34962
    },
    {
      "buffer": 0,
      "byteOffset": 2035092,
      "byteLength": 191700,
      "target": 34962
    },
    {
      "buffer": 0,
      "byteOffset": 2226792,
      "byteLength": 648,
      "target": 34962
    },
    {
      "buffer": 0,
      "byteOffset": 2227440,
      "byteLength": 648,
      "target": 34962
    },
    {
      "buffer": 0,
      "byteOffset": 2228088,
      "byteLength": 432,
      "target": 34962
    },
    {
      "buffer": 0,
      "byteOffset": 2228520,
      "byteLength": 24,
      "target": 34963
    },
    {
      "buffer": 0,
      "byteOffset": 2228544,
      "byteLength": 15360,
      "target": 34963
    },
    {
      "buffer": 0,
      "byteOffset": 2243904,
      "byteLength": 15360,
      "target": 34963
    },
    {
      "buffer": 0,
      "byteOffset": 2259264,
      "byteLength": 15360,
      "target": 34963
    },
    {
      "buffer": 0,
      "byteOffset": 2274624,
      "byteLength": 15360,
      "target": 34963
    },
    {
      "buffer": 0,
      "byteOffset": 2289984,
      "byteLength": 15360,
      "target": 34963
    },
    {
      "buffer": 0,
      "byteOffset": 2305344,
      "byteLength": 15360,
      "target": 34963
    },
    {
      "buffer": 0,
      "byteOffset": 2320704,
      "byteLength": 15360,
      "target": 34963
    },
    {
      "buffer": 0,
      "byteOffset": 2336064,
      "byteLength": 15360,
      "target": 34963
    },
    {
      "buffer": 0,
      "byteOffset": 2351424,
      "byteLength": 15360,
      "target": 34963
    },
    {
      "buffer": 0,
      "byteOffset": 2366784,
      "byteLength": 15360,
      "target": 34963
    },
    {
      "buffer": 0,
      "byteOffset": 2382144,
      "byteLength": 15360,
      "target": 34963
    },
    {
      "buffer": 0,
      "byteOffset": 2397504,
      "byteLength": 15360,
      "target": 34963
    },
    {
      "buffer": 0,
      "byteOffset": 2412864,
      "byteLength": 15360,
      "target": 34963
    },
    {
      "buffer": 0,
      "byteOffset": 2428224,
      "byteLength": 15360,
      "target": 34963
    },
    {
      "buffer": 0,
      "byteOffset": 2443584,
      "byteLength": 15360,
      "target": 34963
    },
    {
      "buffer": 0,
      "byteOffset": 2458944,
      "byteLength": 15360,
      "target": 34963
    },
    {
      "buffer": 0,
      "byteOffset": 2474304,
      "byteLength": 15360,
      "target": 34963
    },
    {
      "buffer": 0,
      "byteOffset": 2489664,
      "byteLength": 15360,
      "target": 34963
    },
    {
      "buffer": 0,
      "byteOffset": 2505024,
      "byteLength": 15360,
      "target": 34963
    },
    {
      "buffer": 0,
      "byteOffset": 2520384,
      "byteLength": 15360,
      "target": 34963
    },
    {
      "buffer": 0,
      "byteOffset": 2535744,
      "byteLength": 91044,
      "target": 34963
    },
    {
      "buffer": 0,
      "byteOffset": 2626788,
      "byteLength": 216,
      "target": 34963
    }
  ],
  "buffers": [
    {
      "uri": "IORTestGridLOD.bin",
      "byteLength": 2627004
    }
  ],
  "extensionsUsed": [
    "KHR_materials_transmission",
    "KHR_materials_volume",
    "KHR_materials_specular",
    "KHR_materials_ior",
    "NG2_mesh_lod"
  ],
  "images": [
    {
      "uri": "checker.png"
    }
  ],
  "materials": [
    {
      "pbrMetallicRoughness": {
        "baseColorFactor": [
          1.0,
          1.0,
          1.0,
          1.0
        ],
        "metallicFactor": 1.0,
        "roughnessFactor": 1.0,
        "baseColorTexture": {
          "index": 0,
          "texCoord": 0
        }
      },
      "emissiveFactor": [
        0.0,
        0.0,
        0.0
      ],
      "alphaMode": "OPAQUE",
      "doubleSided": false,
      "name": "Backdrop"
    },
    {
      "extensions": {
        "KHR_materials_ior": {
          "ior": 1.0
        },
        "KHR_materials_specular": {
          "specularColorFactor": [
            1.0,
            1.0,
            1.0
          ],
          "specularFactor": 0.25
        },
        "KHR_materials_transmission": {
          "transmissionFactor": 0.0
        },
        "KHR_materials_volume": {
          "thicknessFactor": 0.1
        }
      },
      "pbrMetallicRoughness": {
        "baseColorFactor": [
          0.0,
          0.0,
          0.0,
          1.0
        ],
        "metallicFactor": 0.0,
        "roughnessFactor": 0.0
      },
      "emissiveFactor": [
        0.0,
        0.0,
        0.0
      ],
      "alphaMode": "OPAQUE",
      "doubleSided": false,
      "name": "IOR1.0_Black_R0_M0_T0_S0.25"
    },
    {
      "extensions": {
        "KHR_materials_ior": {
          "ior": 1.33
        },
        "KHR_materials_specular": {
          "specularColorFactor": [
            1.0,
            1.0,
            1.0
          ],
          "specularFactor": 0.25
        },
        "KHR_materials_transmission": {
          "transmissionFactor": 0.0
        },
        "KHR_materials_volume": {
          "thicknessFactor": 0.1
        }
      },
      "pbrMetallicRoughness": {
        "baseColorFactor": [
          0.0,
          0.0,
          0.0,
          1.0
        ],
        "metallicFactor": 0.0,
        "roughnessFactor": 0.0
      },
      "emissiveFactor": [
        0.0,
        0.0,
        0.0
      ],
      "alphaMode": "OPAQUE",
      "doubleSided": false,
      "name": "IOR1.33_Black_R0_M0_T0_S0.25"
    },
    {
      "extensions": {
        "KHR_materials_specular": {
          "specularColorFactor": [
            1.0,
            1.0,
            1.0
          ],
          "specularFactor": 0.25
        },
        "KHR_materials_transmission": {
          "transmissionFactor": 0.0
        },
        "KHR_materials_volume": {
          "thicknessFactor": 0.1
        }
      },
      "pbrMetallicRoughness": {
        "baseColorFactor": [
          0.0,
          0.0,
          0.0,
          1.0
        ],
        "metallicFactor": 0.0,
        "roughnessFactor": 0.0
      },
      "emissiveFactor": [
        0.0,
        0.0,
        0.0
      ],
      "alphaMode": "OPAQUE",
      "doubleSided": false,
      "name": "IOR1.5_Black_R0_M0_T0_S0.25"
    },
    {
      "extensions": {
        "KHR_materials_ior": {
          "ior": 1.76
        },
        "KHR_materials_specular": {
          "specularColorFactor": [
            1.0,
            1.0,
            1.0
          ],
          "specularFactor": 0.25
        },
        "KHR_materials_transmission": {
          "transmissionFactor": 0.0
        },
        "KHR_materials_volume": {
          "thicknessFactor": 0.1
        }
      },
      "pbrMetallicRoughness": {
        "baseColorFactor": [
          0.0,
          0.0,
          0.0,
          1.0
        ],
        "metallicFactor": 0.0,
        "roughnessFactor": 0.0
      },
      "emissiveFactor": [
        0.0,
        0.0,
        0.0
      ],
      "alphaMode": "OPAQUE",
      "doubleSided": false,
      "name": "IOR1.76_Black_R0_M0_T0_S0.25"
    },
    {
      "extensions": {
        "KHR_materials_ior": {
          "ior": 2.42
        },
        "KHR_materials_specular": {
          "specularColorFactor": [
            1.0,
            1.0,
            1.0
          ],
          "specularFactor": 0.25
        },
        "KHR_materials_transmission": {
          "transmissionFactor": 0.0
        },
        "KHR_materials_volume": {
          "thicknessFactor": 0.1
        }
      },
      "pbrMetallicRoughness": {
        "baseColorFactor": [
          0.0,
          0.0,
          0.0,
          1.0
        ],
        "metallicFactor": 0.0,
        "roughnessFactor": 0.0
      },
      "emissiveFactor": [
        0.0,
        0.0,
        0.0
      ],
      "alphaMode": "OPAQUE",
      "doubleSided": false,
      "name": "IOR2.42_Black_R0_M0_T0_S0.25"
    },
    {
      "extensions": {
        "KHR_materials_ior": {
          "ior": 2.42
        },
        "KHR_materials_specular": {
          "specularColorFactor": [
            1.0,
            1.0,
            1.0
          ],
          "specularFactor": 1.0
        },
        "KHR_materials_transmission": {
          "transmissionFactor": 0.0
        },
        "KHR_materials_volume": {
          "thicknessFactor": 0.1
        }
      },
      "pbrMetallicRoughness": {
        "baseColorFactor": [
          0.0,
          0.0,
          0.0,
          1.0
        ],
        "metallicFactor": 0.0,
        "roughnessFactor": 0.0
      },
      "emissiveFactor": [
        0.0,
        0.0,
        0.0
      ],
      "alphaMode": "OPAQUE",
      "doubleSided": false,
      "name": "IOR2.42_Black_R0_M0_T0_S1"
    },
    {
      "extensions": {
        "KHR_materials_ior": {
          "ior": 1.76
        },
        "KHR_materials_specular": {
          "specularColorFactor": [
            1.0,
            1.0,
            1.0
          ],
          "specularFactor": 1.0
        },
        "KHR_materials_transmission": {
          "transmissionFactor": 0.0
        },
        "KHR_materials_volume": {
          "thicknessFactor": 0.1
        }
      },
      "pbrMetallicRoughness": {
        "baseColorFactor": [
          0.0,
          0.0,
          0.0,
          1.0
        ],
        "metallicFactor": 0.0,
        "roughnessFactor": 0.0
      },
      "emissiveFactor": [
        0.0,
        0.0,
        0.0
      ],
      "alphaMode": "OPAQUE",
      "doubleSided": false,
      "name": "IOR1.76_Black_R0_M0_T0_S1"
    },
    {
      "extensions": {
        "KHR_materials_specular": {
          "specularColorFactor": [
            1.0,
            1.0,
            1.0
          ],
          "specularFactor": 1.0
        },
        "KHR_materials_transmission": {
          "transmissionFactor": 0.0
        },
        "KHR_materials_volume": {
          "thicknessFactor": 0.1
        }
      },
      "pbrMetallicRoughness": {
        "baseColorFactor": [
          0.0,
          0.0,
          0.0,
          1.0
        ],
        "metallicFactor": 0.0,
        "roughnessFactor": 0.0
      },
      "emissiveFactor": [
        0.0,
        0.0,
        0.0
      ],
      "alphaMode": "OPAQUE",
      "doubleSided": false,
      "name": "IOR1.5_Black_R0_M0_T0_S1"
    },
    {
      "extensions": {
        "KHR_materials_ior": {
          "ior": 1.33
        },
        "KHR_materials_specular": {
          "specularColorFactor": [
            1.0,
            1.0,
            1.0
          ],
          "specularFactor": 1.0
        },
        "KHR_materials_transmission": {
          "transmissionFactor": 0.0
        },
        "KHR_materials_volume": {
          "thicknessFactor": 0.1
        }
      },
      "pbrMetallicRoughness": {
        "baseColorFactor": [
          0.0,
          0.0,
          0.0,
          1.0
        ],
        "metallicFactor": 0.0,
        "roughnessFactor": 0.0
      },
      "emissiveFactor": [
        0.0,
        0.0,
        0.0
      ],
      "alphaMode": "OPAQUE",
      "doubleSided": false,
      "name": "IOR1.33_Black_R0_M0_T0_S1"
    },
    {
      "extensions": {
        "KHR_materials_ior": {
          "ior": 1.0
        },
        "KHR_materials_specular": {
          "specularColorFactor": [
            1.0,
            1.0,
            1.0
          ],
          "specularFactor": 1.0
        },
        "KHR_materials_transmission": {
          "transmissionFactor": 0.0
        },
        "KHR_materials_volume": {
          "thicknessFactor": 0.1
        }
      },
      "pbrMetallicRoughness": {
        "baseColorFactor": [
          0.0,
          0.0,
          0.0,
          1.0
        ],
        "metallicFactor": 0.0,
        "roughnessFactor": 0.0
      },
      "emissiveFactor": [
        0.0,
        0.0,
        0.0
      ],
      "alphaMode": "OPAQUE",
      "doubleSided": false,
      "name": "IOR1.0_Black_R0_M0_T0_S1"
    },
    {
      "pbrMetallicRoughness": {
        "baseColorFactor": [
          0.0,
          0.0,
          0.0,
          1.0
        ],
        "metallicFactor": 1.0,
        "roughnessFactor": 1.0
      },
      "emissiveFactor": [
        0.0,
        0.0,
        0.0
      ],
      "alphaMode": "OPAQUE",
      "doubleSided": false,
      "name": "Text"
    },
    {
      "extensions": {
        "KHR_materials_ior": {
          "ior": 2.42
        },
        "KHR_materials_specular": {
          "specularColorFactor": [
            1.0,
            1.0,
            1.0
          ],
          "specularFactor": 0.25
        },
        "KHR_materials_transmission": {
          "transmissionFactor": 1.0
        },
        "KHR_materials_volume": {
          "thicknessFactor": 0.1
        }
      },
      "pbrMetallicRoughness": {
        "baseColorFactor": [
          1.0,
          1.0,
          1.0,
          1.0
        ],
        "metallicFactor": 0.0,
        "roughnessFactor": 0.0
      },
      "emissiveFactor": [
        0.0,
        0.0,
        0.0
      ],
      "alphaMode": "OPAQUE",
      "doubleSided": false,
      "name": "IOR2.42_White_R0_M0_T1_S0.25"
    },
    {
      "extensions": {
        "KHR_materials_ior": {
          "ior": 1.76
        },
        "KHR_materials_specular": {
          "specularColorFactor": [
            1.0,
            1.0,
            1.0
          ],
          "specularFactor": 0.25
        },
        "KHR_materials_transmission": {
          "transmissionFactor": 1.0
        },
        "KHR_materials_volume": {
          "thicknessFactor": 0.1
        }
      },
      "pbrMetallicRoughness": {
        "baseColorFactor": [
          1.0,
          1.0,
          1.0,
          1.0
        ],
        "metallicFactor": 0.0,
        "roughnessFactor": 0.0
      },
      "emissiveFactor": [
        0.0,
        0.0,
        0.0
      ],
      "alphaMode": "OPAQUE",
      "doubleSided": false,
      "name": "IOR1.76_White_R0_M0_T1_S0.25"
    },
    {
      "extensions": {
        "KHR_materials_specular": {
          "specularColorFactor": [
            1.0,
            1.0,
            1.0
          ],
          "specularFactor": 0.25
        },
        "KHR_materials_transmission": {
          "transmissionFactor": 1.0
        },
        "KHR_materials_volume": {
          "thicknessFactor": 0.1
        }
      },
      "pbrMetallicRoughness": {
        "baseColorFactor": [
          1.0,
          1.0,
          1.0,
          1.0
        ],
        "metallicFactor": 0.0,
        "roughnessFactor": 0.0
      },
      "emissiveFactor": [
        0.0,
        0.0,
        0.0
      ],
      "alphaMode": "OPAQUE",
      "doubleSided": false,
      "name": "IOR1.5_White_R0_M0_T1_S0.25"
    },
    {
      "extensions": {
        "KHR_materials_ior": {
          "ior": 1.33
        },
        "KHR_materials_specular": {
          "specularColorFactor": [
            1.0,
            1.0,
            1.0
          ],
          "specularFactor": 0.25
        },
        "KHR_materials_transmission": {
          "transmissionFactor": 1.0
        },
        "KHR_materials_volume": {
          "thicknessFactor": 0.1
        }
      },
      "pbrMetallicRoughness": {
        "baseColorFactor": [
          1.0,
          1.0,
          1.0,
          1.0
        ],
        "metallicFactor": 0.0,
        "roughnessFactor": 0.0
      },
      "emissiveFactor": [
        0.0,
        0.0,
        0.0
      ],
      "alphaMode": "OPAQUE",
      "doubleSided": false,
      "name": "IOR1.33_White_R0_M0_T1_S0.25"
    },
    {
      "extensions": {
        "KHR_materials_ior": {
          "ior": 1.0
        },
        "KHR_materials_specular": {
          "specularColorFactor": [
            1.0,
            1.0,
            1.0
          ],
          "specularFactor": 0.25
        },
        "KHR_materials_transmission": {
          "transmissionFactor": 1.0
        },
        "KHR_materials_volume": {
          "thicknessFactor": 0.1
        }
      },
      "pbrMetallicRoughness": {
        "baseColorFactor": [
          1.0,
          1.0,
          1.0,
          1.0
        ],
        "metallicFactor": 0.0,
        "roughnessFactor": 0.0
      },
      "emissiveFactor": [
        0.0,
        0.0,
        0.0
      ],
      "alphaMode": "OPAQUE",
      "doubleSided": false,
      "name": "IOR1.0_White_R0_M0_T1_S0.25"
    },
    {
      "extensions": {
        "KHR_materials_ior": {
          "ior": 2.42
        },
        "KHR_materials_specular": {
          "specularColorFactor": [
            1.0,
            1.0,
            1.0
          ],
          "specularFactor": 1.0
        },
        "KHR_materials_transmission": {
          "transmissionFactor": 1.0
        },
        "KHR_materials_volume": {
          "thicknessFactor": 0.1
        }
      },
      "pbrMetallicRoughness": {
        "baseColorFactor": [
          1.0,
          1.0,
          1.0,
          1.0
        ],
        "metallicFactor": 0.0,
        "roughnessFactor": 0.0
      },
      "emissiveFactor": [
        0.0,
        0.0,
        0.0
      ],
      "alphaMode": "OPAQUE",
      "doubleSided": false,
      "name": "IOR2.42_White_R0_M0_T1_S1"
    },
    {
      "extensions": {
        "KHR_materials_ior": {
          "ior": 1.76
        },
        "KHR_materials_specular": {
          "specularColorFactor": [
            1.0,
            1.0,
            1.0
          ],
          "specularFactor": 1.0
        },
        "KHR_materials_transmission": {
          "transmissionFactor": 1.0
        },
        "KHR_materials_volume": {
          "thicknessFactor": 0.1
        }
      },
      "pbrMetallicRoughness": {
        "baseColorFactor": [
          1.0,
          1.0,
          1.0,
          1.0
        ],
        "metallicFactor": 0.0,
        "roughnessFactor": 0.0
      },
      "emissiveFactor": [
        0.0,
        0.0,
        0.0
      ],
      "alphaMode": "OPAQUE",
      "doubleSided": false,
      "name": "IOR1.76_White_R0_M0_T1_S1"
    },
    {
      "extensions": {
        "KHR_materials_specular": {
          "specularColorFactor": [
            1.0,
            1.0,
            1.0
          ],
          "specularFactor": 1.0
        },
        "KHR_materials_transmission": {
          "transmissionFactor": 1.0
        },
        "KHR_materials_volume": {
          "thicknessFactor": 0.1
        }
      },
      "pbrMetallicRoughness": {
        "baseColorFactor": [
          1.0,
          1.0,
          1.0,
          1.0
        ],
        "metallicFactor": 0.0,
        "roughnessFactor": 0.0
      },
      "emissiveFactor": [
        0.0,
        0.0,
        0.0
      ],
      "alphaMode": "OPAQUE",
      "doubleSided": false,
      "name": "IOR1.5_White_R0_M0_T1_S1"
    },
    {
      "extensions": {
        "KHR_materials_ior": {
          "ior": 1.33
        },
        "KHR_materials_specular": {
          "specularColorFactor": [
            1.0,
            1.0,
            1.0
          ],
          "specularFactor": 1.0
        },
        "KHR_materials_transmission": {
          "transmissionFactor": 1.0
        },
        "KHR_materials_volume": {
          "thicknessFactor": 0.1
        }
      },
      "pbrMetallicRoughness": {
        "baseColorFactor": [
          1.0,
          1.0,
          1.0,
          1.0
        ],
        "metallicFactor": 0.0,
        "roughnessFactor": 0.0
      },
      "emissiveFactor": [
        0.0,
        0.0,
        0.0
      ],
      "alphaMode": "OPAQUE",
      "doubleSided": false,
      "name": "IOR1.33_White_R0_M0_T1_S1"
    },
    {
      "extensions": {
        "KHR_materials_ior": {
          "ior": 1.0
        },
        "KHR_materials_specular": {
          "specularColorFactor": [
            1.0,
            1.0,
            1.0
          ],
          "specularFactor": 1.0
        },
        "KHR_materials_transmission": {
          "transmissionFactor": 1.0
        },
        "KHR_materials_volume": {
          "thicknessFactor": 0.1
        }
      },
      "pbrMetallicRoughness": {
        "baseColorFactor": [
          1.0,
          1.0,
          1.0,
          1.0
        ],
        "metallicFactor": 0.0,
        "roughnessFactor": 0.0
      },
      "emissiveFactor": [
        0.0,
        0.0,
        0.0
      ],
      "alphaMode": "OPAQUE",
      "doubleSided": false,
      "name": "IOR1.0_White_R0_M0_T1_S1"
    },
    {
      "pbrMetallicRoughness": {
        "baseColorFactor": [
          1.0,
          1.0,
          1.0,
          1.0
        ],
        "metallicFactor": 1.0,
        "roughnessFactor": 1.0
      },
      "emissiveFactor": [
        0.0,
        0.0,
        0.0
      ],
      "alphaMode": "OPAQUE",
      "doubleSided": true,
      "name": "Text Backdrop"
    }
  ],
  "meshes": [
    {
      "primitives": [
        {
          "attributes": {
            "POSITION": 1,
            "NORMAL": 2,
            "TEXCOORD_0": 3
          },
          "indices": 0,
          "mode": 4,
          "material": 0
        }
      ],
      "name": "Backdrop"
    },
    {
      "primitives": [
        {
          "attributes": {
            "POSITION": 5,
            "NORMAL": 6
          },
          "indices": 4,
          "mode": 4,
          "material": 5
        }
      ],
      "name": "IOR2.42_Black_R0_M0_T0_S0.25"
    },
    {
      "primitives": [
        {
          "attributes": {
            "POSITION": 8,
            "NORMAL": 9
          },
          "indices": 7,
          "mode": 4,
          "material": 6
        }
      ],
      "name": "IOR2.42_Black_R0_M0_T0_S1"
    },
    {
      "primitives": [
        {
          "attributes": {
            "POSITION": 11,
            "NORMAL": 12
          },
          "indices": 10,
          "mode": 4,
          "material": 12
        }
      ],
      "name": "IOR2.42_White_R0_M0_T1_S0.25"
    },
    {
      "primitives": [
        {
          "attributes": {
            "POSITION": 14,
            "NORMAL": 15
          },
          "indices": 13,
          "mode": 4,
          "material": 17
        }
      ],
      "name": "IOR2.42_White_R0_M0_T1_S1"
    },
    {
      "primitives": [
        {
          "attributes": {
            "POSITION": 17,
            "NORMAL": 18
          },
          "indices": 16,
          "mode": 4,
          "material": 4
        }
      ],
      "name": "IOR1.76_Black_R0_M0_T0_S0.25"
    },
    {
      "primitives": [
        {
          "attributes": {
            "POSITION": 20,
            "NORMAL": 21
          },
          "indices": 19,
          "mode": 4,
          "material": 7
        }
      ],
      "name": "IOR1.76_Black_R0_M0_T0_S1"
    },
    {
      "primitives": [
        {
          "attributes": {
            "POSITION": 23,
            "NORMAL": 24
          },
          "indices": 22,
          "mode": 4,
          "material": 13
        }
      ],
      "name": "IOR1.76_White_R0_M0_T1_S0.25"
    },
    {
      "primitives": [
        {
          "attributes": {
            "POSITION": 26,
            "NORMAL": 27
          },
          "indices": 25,
          "mode": 4,
          "material": 18
        }
      ],
      "name": "IOR1.76_White_R0_M0_T1_S1"
    },
    {
      "primitives": [
        {
          "attributes": {
            "POSITION": 29,
            "NORMAL": 30
          },
          "indices": 28,
          "mode": 4,
          "material": 3
        }
      ],
      "name": "IOR1.5_Black_R0_M0_T0_S0.25"
    },
    {
      "primitives": [
        {
          "attributes": {
            "POSITION": 32,
            "NORMAL": 33
          },
          "indices": 31,
          "mode": 4,
          "material": 8
        }
      ],
      "name": "IOR1.5_Black_R0_M0_T0_S1"
    },
    {
      "primitives": [
        {
          "attributes": {
            "POSITION": 35,
            "NORMAL": 36
          },
          "indices": 34,
          "mode": 4,
          "material": 14
        }
      ],
      "name": "IOR1.5_White_R0_M0_T1_S0.25"
    },
    {
      "primitives": [
        {
          "attributes": {
            "POSITION": 38,
            "NORMAL": 39
          },
          "indices": 37,
          "mode": 4,
          "material": 19
        }
      ],
      "name": "IOR1.5_White_R0_M0_T1_S1"
    },
    {
      "primitives": [
        {
          "attributes": {
            "POSITION": 41,
            "NORMAL": 42
          },
          "indices": 40,
          "mode": 4,
          "material": 2
        }
      ],
      "name": "IOR1.33_Black_R0_M0_T0_S0.25"
    },
    {
      "primitives": [
        {
          "attributes": {
            "POSITION": 44,
            "NORMAL": 45
          },
          "indices": 43,
          "mode": 4,
          "material": 9
        }
      ],
      "name": "IOR1.33_Black_R0_M0_T0_S1"
    },
    {
      "primitives": [
        {
          "attributes": {
            "POSITION": 47,
            "NORMAL": 48
          },
          "indices": 46,
          "mode": 4,
          "material": 15
        }
      ],
      "name": "IOR1.33_White_R0_M0_T1_S0.25"
    },
    {
      "primitives": [
        {
          "attributes": {
            "POSITION": 50,
            "NORMAL": 51
          },
          "indices": 49,
          "mode": 4,
          "material": 20
        }
      ],
      "name": "IOR1.33_White_R0_M0_T1_S1"
    },
    {
      "primitives": [
        {
          "attributes": {
            "POSITION": 53,
            "NORMAL": 54
          },
          "indices": 52,
          "mode": 4,
          "material": 1
        }
      ],
      "name": "IOR1.0_Black_R0_M0_T0_S0.25"
    },
    {
      "primitives": [
        {
          "attributes": {
            "POSITION": 56,
            "NORMAL": 57
          },
          "indices": 55,
          "mode": 4,
          "material": 10
        }
      ],
      "name": "IOR1.0_Black_R0_M0_T0_S1"
    },
    {
      "primitives": [
        {
          "attributes": {
            "POSITION": 59,
            "NORMAL": 60
          },
          "indices": 58,
          "mode": 4,
          "material": 16
        }
      ],
      "name": "IOR1.0_White_R0_M0_T1_S0.25"
    },
    {
      "primitives": [
        {
          "attributes": {
            "POSITION": 62,
            "NORMAL": 63
          },
          "indices": 61,
          "mode": 4,
          "material": 21
        }
      ],
      "name": "IOR1.0_White_R0_M0_T1_S1"
    },
    {
      "primitives": [
        {
          "extensions": {
            "NG2_mesh_lod": {
              "levels": [
                {
                  "indices": 71,
                  "error": 0.005531
                },
                {
                  "indices": 72,
                  "error": 0.006698
                }
              ]
            }
          },
          "attributes": {
            "POSITION": 65,
            "NORMAL": 66
          },
          "indices": 64,
          "mode": 4,
          "material": 11
        }
      ],
      "name": "Text"
    },
    {
      "primitives": [
        {
          "attributes": {
            "POSITION": 68,
            "NORMAL": 69,
            "TEXCOORD_0": 70
          },
          "indices": 67,
          "mode": 4,
          "material": 22
        }
      ],
      "name": "Text Backdrop"
    }
  ],
  "nodes": [
    {
      "mesh": 0,
      "rotation": [
        0.7071067690849304,
        -0.0,
        -0.0,
        -0.7071067690849304
      ],
      "translation": [
        0.0,
        0.0,
        0.0
      ],
      "scale": [
        1.0,
        1.0,
        1.0
      ],
      "name": "Backdrop"
    },
    {
      "mesh": 1,
      "rotation": [
        0.7071067690849304,
        -0.0,
        -0.0,
        -0.7071067690849304
      ],
      "translation": [
        -0.16503073275089264,
        0.2199999988079071,
        0.017525814473628998
      ],
      "scale": [
        1.0,
        1.0,
        1.0
      ],
      "name": "IOR2.42_Black_R0_M0_T0_S0.25"
    },
    {
      "mesh": 2,
      "rotation": [
        0.7071067690849304,
        -0.0,
        -0.0,
        -0.7071067690849304
      ],
      "translation": [
        -0.055030688643455505,
        0.2199999988079071,
        0.01752581261098385
      ],
      "scale": [
        1.0,
        1.0,
        1.0
      ],
      "name": "IOR2.42_Black_R0_M0_T0_S1"
    },
    {
      "mesh": 3,
      "rotation": [
        0.7071067690849304,
        -0.0,
        -0.0,
        -0.7071067690849304
      ],
      "translation": [
        0.05496935546398163,
        0.2199999988079071,
        0.0175258107483387
      ],
      "scale": [
        1.0,
        1.0,
        1.0
      ],
      "name": "IOR2.42_White_R0_M0_T1_S0.25"
    },
    {
      "mesh": 4,
      "rotation": [
        0.7071067690849304,
        -0.0,
        -0.0,
        -0.7071067690849304
      ],
      "translation": [
        0.16496939957141876,
        0.2199999988079071,
        0.01752580888569355
      ],
      "scale": [
        1.0,
        1.0,
        1.0
      ],
      "name": "IOR2.42_White_R0_M0_T1_S1"
    },
    {
      "mesh": 5,
      "rotation": [
        0.7071067690849304,
        -0.0,
        -0.0,
        -0.7071067690849304
      ],
      "translation": [
        -0.16503074765205383,
        0.11000001430511475,
        0.0175258070230484
      ],
      "scale": [
        1.0,
        1.0,
        1.0
      ],
      "name": "IOR1.76_Black_R0_M0_T0_S0.25"
    },
    {
      "mesh": 6,
      "rotation": [
        0.7071067690849304,
        -0.0,
        -0.0,
        -0.7071067690849304
      ],
      "translation": [
        -0.0550307035446167,
        0.11000001430511475,
        0.01752580516040325
      ],
      "scale": [
        1.0,
        1.0,
        1.0
      ],
      "name": "IOR1.76_Black_R0_M0_T0_S1"
    },
    {
      "mesh": 7,
      "rotation": [
        0.7071067690849304,
        -0.0,
        -0.0,
        -0.7071067690849304
      ],
      "translation": [
        0.054969340562820435,
        0.11000001430511475,
        0.017525803297758102
      ],
      "scale": [
        1.0,
        1.0,
        1.0
      ],
      "name": "IOR1.76_White_R0_M0_T1_S0.25"
    },
    {
      "mesh": 8,
      "rotation": [
        0.7071067690849304,
        -0.0,
        -0.0,
        -0.7071067690849304
      ],
      "translation": [
        0.16496938467025757,
        0.11000001430511475,
        0.017525801435112953
      ],
      "scale": [
        1.0,
        1.0,
        1.0
      ],
      "name": "IOR1.76_White_R0_M0_T1_S1"
    },
    {
      "mesh": 9,
      "rotation": [
        0.7071067690849304,
        -0.0,
        -0.0,
        -0.7071067690849304
      ],
      "translation": [
        -0.16503076255321503,
        2.9802322387695312e-08,
        0.017525799572467804
      ],
      "scale": [
        1.0,
        1.0,
        1.0
      ],
      "name": "IOR1.5_Black_R0_M0_T0_S0.25"
    },
    {
      "mesh": 10,
      "rotation": [
        0.7071067690849304,
        -0.0,
        -0.0,
        -0.7071067690849304
      ],
      "translation": [
        -0.05503071844577789,
        2.9802322387695312e-08,
        0.017525797709822655
      ],
      "scale": [
        1.0,
        1.0,
        1.0
      ],
      "name": "IOR1.5_Black_R0_M0_T0_S1"
    },
    {
      "mesh": 11,
      "rotation": [
        0.7071067690849304,
        -0.0,
        -0.0,
        -0.7071067690849304
      ],
      "translation": [
        0.05496932566165924,
        2.9802322387695312e-08,
        0.017525795847177505
      ],
      "scale": [
        1.0,
        1.0,
        1.0
      ],
      "name": "IOR1.5_White_R0_M0_T1_S0.25"
    },
    {
      "mesh": 12,
      "rotation": [
        0.7071067690849304,
        -0.0,
        -0.0,
        -0.7071067690849304
      ],
      "translation": [
        0.16496936976909637,
        2.9802322387695312e-08,
        0.017525793984532356
      ],
      "scale": [
        1.0,
        1.0,
        1.0
      ],
      "name": "IOR1.5_White_R0_M0_T1_S1"
    },
    {
      "mesh": 13,
      "rotation": [
        0.7071067690849304,
        -0.0,
        -0.0,
        -0.7071067690849304
      ],
      "translation": [
        -0.16503077745437622,
        -0.10999995470046997,
        0.017525792121887207
      ],
      "scale": [
        1.0,
        1.0,
        1.0
      ],
      "name": "IOR1.33_Black_R0_M0_T0_S0.25"
    },
    {
      "mesh": 14,
      "rotation": [
        0.7071067690849304,
        -0.0,
        -0.0,
        -0.7071067690849304
      ],
      "translation": [
        -0.05503073334693909,
        -0.10999995470046997,
        0.017525790259242058
      ],
      "scale": [
        1.0,
        1.0,
        1.0
      ],
      "name": "IOR1.33_Black_R0_M0_T0_S1"
    },
    {
      "mesh": 15,
      "rotation": [
        0.7071067690849304,
        -0.0,
        -0.0,
        -0.7071067690849304
      ],
      "translation": [
        0.05496931076049805,
        -0.10999995470046997,
        0.01752578839659691
      ],
      "scale": [
        1.0,
        1.0,
        1.0
      ],
      "name": "IOR1.33_White_R0_M0_T1_S0.25"
    },
    {
      "mesh": 16,
      "rotation": [
        0.7071067690849304,
        -0.0,
        -0.0,
        -0.7071067690849304
      ],
      "translation": [
        0.16496935486793518,
        -0.10999995470046997,
        0.01752578653395176
      ],
      "scale": [
        1.0,
        1.0,
        1.0
      ],
      "name": "IOR1.33_White_R0_M0_T1_S1"
    },
    {
      "mesh": 17,
      "rotation": [
        0.7071067690849304,
        -0.0,
        -0.0,
        -0.7071067690849304
      ],
      "translation": [
        -0.16503079235553741,
        -0.21999993920326233,
        0.01752578467130661
      ],
      "scale": [
        1.0,
        1.0,
        1.0
      ],
      "name": "IOR1.0_Black_R0_M0_T0_S0.25"
    },
    {
      "mesh": 18,
      "rotation": [
        0.7071067690849304,
        -0.0,
        -0.0,
        -0.7071067690849304
      ],
      "translation": [
        -0.05503074824810028,
        -0.21999993920326233,
        0.01752578280866146
      ],
      "scale": [
        1.0,
        1.0,
        1.0
      ],
      "name": "IOR1.0_Black_R0_M0_T0_S1"
    },
    {
      "mesh": 19,
      "rotation": [
        0.7071067690849304,
        -0.0,
        -0.0,
        -0.7071067690849304
      ],
      "translation": [
        0.05496929585933685,
        -0.21999993920326233,
        0.01752578094601631
      ],
      "scale": [
        1.0,
        1.0,
        1.0
      ],
      "name": "IOR1.0_White_R0_M0_T1_S0.25"
    },
    {
      "mesh": 20,
      "rotation": [
        0.7071067690849304,
        -0.0,
        -0.0,
        -0.7071067690849304
      ],
      "translation": [
        0.164969339966774,
        -0.21999993920326233,
        0.017525779083371162
      ],
      "scale": [
        1.0,
        1.0,
        1.0
      ],
      "name": "IOR1.0_White_R0_M0_T1_S1"
    },
    {
      "mesh": 21,
      "rotation": [
        0.7071067690849304,
        -0.0,
        -0.0,
        -0.7071067690849304
      ],
      "translation": [
        0.0,
        0.0,
        0.0
      ],
      "scale": [
        1.0,
        1.0,
        1.0
      ],
      "name": "Text"
    },
    {
      "mesh": 22,
      "rotation": [
        0.7071067690849304,
        -0.0,
        -0.0,
        -0.7071067690849304
      ],
      "translation": [
        0.0,
        0.0,
        0.0
      ],
      "scale": [
        1.0,
        1.0,
        1.0
      ],
      "name": "Text Backdrop"
    }
  ],
  "samplers": [
    {
      "wrapS": 10497,
      "wrapT": 10497
    }
  ],
  "scene": 0,
  "scenes": [
    {
      "nodes": [
        0,
        1,
        2,
        3,
        4,
        5,
        6,
        7,
        8,
        9,
        10,
        11,
        12,
        13,
        14,
        15,
        16,
        17,
        18,
        19,
        20,
        21,
        22
      ]
    }
  ],
  "textures": [
    {
      "sampler": 0,
      "source": 0
    }
  ]
}