{
  "accessors": [
    {
      "bufferView": 7,
      "byteOffset": 0,
      "componentType": 5123,
      "normalized": false,
      "count": 564,
      "type": "SCALAR"
    },
    {
      "bufferView": 0,
      "byteOffset": 0,
      "componentType": 5123,
      "normalized": false,
      "count": 160,
      "type": "VEC4",
      "max": [
        1.0,
        1.0,
        0.0,
        0.0
      ],
      "min": [
        0.0,
        0.0,
        0.0,
        0.0
      ]
    },
    {
      "bufferView": 1,
      "byteOffset": 0,
      "componentType": 5126,
      "normalized": false,
      "count": 160,
      "type": "VEC3",
      "max": [
        0.9999632239341736,
        0.9999632239341736,
        1.0
      ],
      "min": [
        -0.9999632239341736,
        -0.9999632239341736,
        -1.0
      ]
    },
    {
      "bufferView": 1,
      "byteOffset": 1920,
      "componentType": 5126,
      "normalized": false,
      "count": 160,
      "type": "VEC3",
      "max": [
        1.0,
        1.0,
        4.575077056884766
      ],
      "min": [
        -1.0,
        -0.9999995827674866,
        -4.575077056884766
      ]
    },
    {
      "bufferView": 2,
      "byteOffset": 0,
      "componentType": 5126,
      "normalized": false,
      "count": 160,
      "type": "VEC4",
      "max": [
        1.0,
        0.26139819622039795,
        0.0,
        0.0
      ],
      "min": [
        0.738601803779602,
        0.0,
        0.0,
        0.0
      ]
    },
    {
      "bufferView": 3,
      "byteOffset": 0,
      "componentType": 5126,
      "normalized": false,
      "count": 50,
      "type": "SCALAR",
      "max": [
        2.083333015441895
      ],
      "min": [
        0.04166661947965622
      ]
    },
    {
      "bufferView": 4,
      "byteOffset": 0,
      "componentType": 5126,
      "normalized": false,
      "count": 50,
      "type": "VEC3",
      "max": [
        -3.4530497493474865e-14,
        0.027977529913187027,
        4.187077045440674
      ],
      "min": [
        -3.047870116013041e-13,
        0.027977488934993744,
        4.187077045440674
      ]
    },
    {
      "bufferView": 5,
      "byteOffset": 0,
      "componentType": 5126,
      "normalized": false,
      "count": 50,
      "type": "VEC4",
      "max": [
        0.2953396439552307,
        0.0002899225219152868,
        4.162090377207717e-12,
        -0.9553922414779664
      ],
      "min": [
        -4.6566102085421335e-09,
        0.0002769898856058717,
        -8.562587754568085e-05,
        -0.9999999403953552
      ]
    },
    {
      "bufferView": 4,
      "byteOffset": 600,
      "componentType": 5126,
      "normalized": false,
      "count": 50,
      "type": "VEC3",
      "max": [
        1.0000001192092896,
        1.0000001192092896,
        1.0
      ],
      "min": [
        0.9999999403953552,
        0.9999998211860656,
        0.9999998211860656
      ]
    },
    {
      "bufferView": 6,
      "byteOffset": 0,
      "componentType": 5126,
      "normalized": false,
      "count": 2,
      "type": "MAT4",
      "max": [
        0.0,
        1.0,
        0.0,
        0.0,
        -0.9999998211860656,
        0.0,
        0.0005798449856229126,
        0.0,
        0.0005798449856229126,
        0.0,
        1.0,
        0.0,
        0.0,
        1.3597299641787688e-07,
        4.1803297996521,
        1.0
      ],
      "min": [
        0.0,
        1.0,
        0.0,
        0.0,
        -1.0,
        0.0,
        0.0,
        0.0,
        0.0,
        0.0,
        0.9999998211860656,
        0.0,
        -3.912100055458723e-06,
        -0.02797728031873703,
        -0.006746708881109953,
        1.0
      ]
    },
    {
      "bufferView": 7,
      "byteOffset": 1128,
      "componentType": 5123,
      "normalized": false,
      "count": 282,
      "type": "SCALAR"
    },
    {
      "bufferView": 7,
      "byteOffset": 1692,
      "componentType": 5123,
      "normalized": false,
      "count": 138,
      "type": "SCALAR"
    }
  ],
  "animations": [
    {
      "channels": [
        {
          "sampler": 0,
          "target": {
            "node": 4,
            "path": "translation"
          }
        },
        {
          "sampler": 1,
          "target": {
            "node": 4,
            "path": "rotation"
          }
        },
        {
          "sampler": 2,
          "target": {
            "node": 4,
            "path": "scale"
          }
        }
      ],
      "samplers": [
        {
          "input": 5,
          "interpolation": "LINEAR",
          "output": 6
        },
        {
          "input": 5,
          "interpolation": "LINEAR",
          "output": 7
        },
        {
          "input": 5,
          "interpolation": "LINEAR",
          "output": 8
        }
      ]
    }
  ],
  "asset": {
    "generator": "GDS lod baker 1",
    "version": "2.0"
  },
  "bufferViews": [
    {
      "buffer": 0,
      "byteOffset": 0,
      "byteLength": 1280,
      "byteStride": 8,
      "target": 34962
    },
    {
      "buffer": 0,
      "byteOffset": 1280,
      "byteLength": 3840,
      "byteStride": 12,
      "target": 34962
    },
    {
      "buffer": 0,
      "byteOffset": 5120,
      "byteLength": 2560,
      "byteStride": 16,
      "target": 34962
    },
    {
      "buffer": 0,
      "byteOffset": 7680,
      "byteLength": 200
    },
    {
      "buffer": 0,
      "byteOffset": 7880,
      "byteLength": 1200
    },
    {
      "buffer": 0,
      "byteOffset": 9080,
      "byteLength": 800
    },
    {
      "buffer": 0,
      "byteOffset": 9880,
      "byteLength": 128
    },
    {
      "buffer": 0,
      "byteOffset": 10008,
      "byteLength": 1968,
      "target": 34963
    }
  ],
  "buffers": [
    {
      "uri": "RiggedSimpleLOD.bin",
      "byteLength": 11976
    }
  ],
  "extensionsUsed": [
    "NG2_mesh_lod"
  ],
  "materials": [
    {
      "pbrMetallicRoughness": {
        "baseColorFactor": [
          0.27963539958000183,
          0.6399999856948853,
          0.21094390749931335,
          1.0
        ],
        "metallicFactor": 0.0,
        "roughnessFactor": 1.0
      },
      "emissiveFactor": [
        0.0,
        0.0,
        0.0
      ],
      "alphaMode": "OPAQUE",
      "doubleSided": false,
      "name": "Material_001-effect"
    }
  ],
  "meshes": [
    {
      "primitives": [
        {
          "extensions": {
            "NG2_mesh_lod": {
              "levels": [
                {
                  "indices": 10,
                  "error": 0.056335
                },
                {
                  "indices": 11,
                  "error": 0.177984
                }
              ]
            }
          },
          "attributes": {
            "POSITION": 3,
            "NORMAL": 2,
            "JOINTS_0": 1,
            "WEIGHTS_0": 4
          },
          "indices": 0,
          "mode": 4,
          "material": 0
        }
      ],
      "name": "Cylinder"
    }
  ],
  "nodes": [
    {
      "children": [
        1
      ],
      "matrix": [
        1.0,
        0.0,
        0.0,
        0.0,
        0.0,
        0.0,
        -1.0,
        0.0,
        0.0,
        1.0,
        0.0,
        0.0,
        0.0,
        0.0,
        0.0,
        1.0
      ],
      "name": "Z_UP"
    },
    {
      "children": [
        3,
        2
      ],
      "matrix": [
        -4.371139894487897e-08,
        -1.0,
        0.0,
        0.0,
        1.0,
        -4.371139894487897e-08,
        0.0,
        0.0,
        0.0,
        0.0,
        1.0,
        0.0,
        0.0,
        0.0,
        0.0,
        1.0
      ],
      "name": "Armature"
    },
    {
      "mesh": 0,
      "skin": 0,
      "name": "Cylinder"
    },
    {
      "children": [
        4
      ],
      "matrix": [
        1.0,
        0.0,
        0.0,
        0.0,
        0.0,
        1.0,
        0.0,
        0.0,
        0.0,
        0.0,
        1.0,
        0.0,
        0.0,
        -1.3597299641787688e-07,
        -4.1803297996521,
        1.0
      ],
      "name": "Bone"
    },
    {
      "rotation": [
        -0.0,
        0.0002899225219152868,
        -0.0,
        -0.9999999403953552
      ],
      "translation": [
        1.2150299863455947e-11,
        0.02797747030854225,
        4.187077045440674
      ],
      "name": "Bone.001"
    }
  ],
  "scene": 0,
  "scenes": [
    {
      "nodes": [
        0
      ]
    }
  ],
  "skins": [
    {
      "inverseBindMatrices": 9,
      "skeleton": 3,
      "joints": [
        3,
        4
      ],
      "name": "Armature"
    }
  ]
}