{
  "extensions": {
    "KHR_lights_punctual": {
      "lights": [
        {
          "color": [
            1,
            1,
            1
          ],
          "intensity": 512.25,
          "type": "directional",
          "name": "directional_light_1"
        },
        {
          "color": [
            1,
            1,
            1
          ],
          "intensity": 1500.0000192775694,
          "type": "point",
          "name": "LEDlight"
        }
      ]
    }
  },
  "accessors": [
    {
      "bufferView": 0,
      "byteOffset": 0,
      "componentType": 5126,
      "normalized": false,
      "count": 42410,
      "type": "VEC3",
      "max": [
        0.17887236177921295,
        0.3229837119579315,
        0.08853071182966232
      ],
      "min": [
        -0.17888708412647247,
        -9.185620729112998e-05,
        -0.08847066015005112
      ]
    },
    {
      "bufferView": 1,
      "byteOffset": 0,
      "componentType": 5126,
      "normalized": false,
      "count": 42410,
      "type": "VEC3"
    },
    {
      "bufferView": 2,
      "byteOffset": 0,
      "componentType": 5126,
      "normalized": false,
      "count": 42410,
      "type": "VEC2"
    },
    {
      "bufferView": 18,
      "byteOffset": 0,
      "componentType": 5123,
      "normalized": false,
      "count": 168693,
      "type": "SCALAR"
    },
    {
      "bufferView": 3,
      "byteOffset": 0,
      "componentType": 5126,
      "normalized": false,
      "count": 17056,
      "type": "VEC3",
      "max": [
        0.05938415601849556,
        0.10025971382856369,
        0.05775526538491249
      ],
      "min": [
        -0.05938415601849556,
        0.0,
        -0.05776388570666313
      ]
    },
    {
      "bufferView": 4,
      "byteOffset": 0,
      "componentType": 5126,
      "normalized": false,
      "count": 17056,
      "type": "VEC3"
    },
    {
      "bufferView": 5,
      "byteOffset": 0,
      "componentType": 5126,
      "normalized": false,
      "count": 17056,
      "type": "VEC2"
    },
    {
      "bufferView": 19,
      "byteOffset": 0,
      "componentType": 5123,
      "normalized": false,
      "count": 86346,
      "type": "SCALAR"
    },
    {
      "bufferView": 6,
      "byteOffset": 0,
      "componentType": 5126,
      "normalized": false,
      "count": 112,
      "type": "VEC3",
      "max": [
        0.6650174856185913,
        0.006784732453525066,
        0.6651774644851685
      ],
      "min": [
        -0.6648319959640503,
        0.0002849790034815669,
        -0.6653220653533936
      ]
    },
    {
      "bufferView": 7,
      "byteOffset": 0,
      "componentType": 5126,
      "normalized": false,
      "count": 112,
      "type": "VEC3"
    },
    {
      "bufferView": 8,
      "byteOffset": 0,
      "componentType": 5126,
      "normalized": false,
      "count": 112,
      "type": "VEC2"
    },
    {
      "bufferView": 20,
      "byteOffset": 0,
      "componentType": 5123,
      "normalized": false,
      "count": 330,
      "type": "SCALAR"
    },
    {
      "bufferView": 9,
      "byteOffset": 0,
      "componentType": 5126,
      "normalized": false,
      "count": 17502,
      "type": "VEC3",
      "max": [
        0.028869753703475,
        0.16722369194030762,
        0.03252800554037094
      ],
      "min": [
        -0.028886547312140465,
        0.0,
        -0.03249888867139816
      ]
    },
    {
      "bufferView": 10,
      "byteOffset": 0,
      "componentType": 5126,
      "normalized": false,
      "count": 17502,
      "type": "VEC3"
    },
    {
      "bufferView": 11,
      "byteOffset": 0,
      "componentType": 5126,
      "normalized": false,
      "count": 17502,
      "type": "VEC2"
    },
    {
      "bufferView": 21,
      "byteOffset": 0,
      "componentType": 5123,
      "normalized": false,
      "count": 88224,
      "type": "SCALAR"
    },
    {
      "bufferView": 12,
      "byteOffset": 0,
      "componentType": 5126,
      "normalized": false,
      "count": 3940,
      "type": "VEC3",
      "max": [
        0.23638392984867096,
        0.23649939894676208,
        0.1200229749083519
      ],
      "min": [
        -0.0035798102617263794,
        0.014319299720227718,
        -0.11994076520204544
      ]
    },
    {
      "bufferView": 13,
      "byteOffset": 0,
      "componentType": 5126,
      "normalized": false,
      "count": 3940,
      "type": "VEC3"
    },
    {
      "bufferView": 14,
      "byteOffset": 0,
      "componentType": 5126,
      "normalized": false,
      "count": 3940,
      "type": "VEC2"
    },
    {
      "bufferView": 22,
      "byteOffset": 0,
      "componentType": 5123,
      "normalized": false,
      "count": 21696,
      "type": "SCALAR"
    },
    {
      "bufferView": 15,
      "byteOffset": 0,
      "componentType": 5126,
      "normalized": false,
      "count": 8121,
      "type": "VEC3",
      "max": [
        0.18649734556674957,
        0.0194003414362669,
        0.06990543752908707
      ],
      "min": [
        0.046537742018699646,
        0.0,
        -0.07005417346954346
      ]
    },
    {
      "bufferView": 16,
      "byteOffset": 0,
      "componentType": 5126,
      "normalized": false,
      "count": 8121,
      "type": "VEC3"
    },
    {
      "bufferView": 17,
      "byteOffset": 0,
      "componentType": 5126,
      "normalized": false,
      "count": 8121,
      "type": "VEC2"
    },
    {
      "bufferView": 23,
      "byteOffset": 0,
      "componentType": 5123,
      "normalized": false,
      "count": 23790,
      "type": "SCALAR"
    },
    {
      "bufferView": 18,
      "byteOffset": 337386,
      "componentType": 5123,
      "normalized": false,
      "count": 84345,
      "type": "SCALAR"
    },
    {
      "bufferView": 18,
      "byteOffset": 506076,
      "componentType": 5123,
      "normalized": false,
      "count": 42171,
      "type": "SCALAR"
    },
    {
      "bufferView": 19,
      "byteOffset": 172692,
      "componentType": 5123,
      "normalized": false,
      "count": 43170,
      "type": "SCALAR"
    },
    {
      "bufferView": 19,
      "byteOffset": 259032,
      "componentType": 5123,
      "normalized": false,
      "count": 21582,
      "type": "SCALAR"
    },
    {
      "bufferView": 20,
      "byteOffset": 660,
      "componentType": 5123,
      "normalized": false,
      "count": 138,
      "type": "SCALAR"
    },
    {
      "bufferView": 21,
      "byteOffset": 176448,
      "componentType": 5123,
      "normalized": false,
      "count": 44112,
      "type": "SCALAR"
    },
    {
      "bufferView": 21,
      "byteOffset": 264672,
      "componentType": 5123,
      "normalized": false,
      "count": 22056,
      "type": "SCALAR"
    },
    {
      "bufferView": 22,
      "byteOffset": 43392,
      "componentType": 5123,
      "normalized": false,
      "count": 10848,
      "type": "SCALAR"
    },
    {
      "bufferView": 22,
      "byteOffset": 65088,
      "componentType": 5123,
      "normalized": false,
      "count": 5424,
      "type": "SCALAR"
    },
    {
      "bufferView": 23,
      "byteOffset": 47580,
      "componentType": 5123,
      "normalized": false,
      "count": 11892,
      "type": "SCALAR"
    },
    {
      "bufferView": 23,
      "byteOffset": 71364,
      "componentType": 5123,
      "normalized": false,
      "count": 7380,
      "type": "SCALAR"
    }
  ],
  "asset": {
    "generator": "GDS lod baker 1",
    "copyright": "Copyright \u00a9 Inter IKEA Systems B.V. 2024",
    "version": "2.0"
  },
  "bufferViews": [
    {
      "buffer": 0,
      "byteOffset": 0,
      "byteLength": 508920,
      "target": 34962
    },
    {
      "buffer": 0,
      "byteOffset": 508920,
      "byteLength": 508920,
      "target": 34962
    },
    {
      "buffer": 0,
      "byteOffset": 1017840,
      "byteLength": 339280,
      "target": 34962
    },
    {
      "buffer": 0,
      "byteOffset": 1357120,
      "byteLength": 204672,
      "target": 34962
    },
    {
      "buffer": 0,
      "byteOffset": 1561792,
      "byteLength": 204672,
      "target": 34962
    },
    {
      "buffer": 0,
      "byteOffset": 1766464,
      "byteLength": 136448,
      "target": 34962
    },
    {
      "buffer": 0,
      "byteOffset": 1902912,
      "byteLength": 1344,
      "target": 34962
    },
    {
      "buffer": 0,
      "byteOffset": 1904256,
      "byteLength": 1344,
      "target": 34962
    },
    {
      "buffer": 0,
      "byteOffset": 1905600,
      "byteLength": 896,
      "target": 34962
    },
    {
      "buffer": 0,
      "byteOffset": 1906496,
      "byteLength": 210024,
      "target": 34962
    },
    {
      "buffer": 0,
      "byteOffset": 2116520,
      "byteLength": 210024,
      "target": 34962
    },
    {
      "buffer": 0,
      "byteOffset": 2326544,
      "byteLength": 140016,
      "target": 34962
    },
    {
      "buffer": 0,
      "byteOffset": 2466560,
      "byteLength": 47280,
      "target": 34962
    },
    {
      "buffer": 0,
      "byteOffset": 2513840,
      "byteLength": 47280,
      "target": 34962
    },
    {
      "buffer": 0,
      "byteOffset": 2561120,
      "byteLength": 31520,
      "target": 34962
    },
    {
      "buffer": 0,
      "byteOffset": 2592640,
      "byteLength": 97452,
      "target": 34962
    },
    {
      "buffer": 0,
      "byteOffset": 2690092,
      "byteLength": 97452,
      "target": 34962
    },
    {
      "buffer": 0,
      "byteOffset": 2787544,
      "byteLength": 64968,
      "target": 34962
    },
    {
      "buffer": 0,
      "byteOffset": 2852512,
      "byteLength": 590418,
      "target": 34963
    },
    {
      "buffer": 0,
      "byteOffset": 3442932,
      "byteLength": 302196,
      "target": 34963
    },
    {
      "buffer": 0,
      "byteOffset": 3745128,
      "byteLength": 936,
      "target": 34963
    },
    {
      "buffer": 0,
      "byteOffset": 3746064,
      "byteLength": 308784,
      "target": 34963
    },
    {
      "buffer": 0,
      "byteOffset": 4054848,
      "byteLength": 75936,
      "target": 34963
    },
    {
      "buffer": 0,
      "byteOffset": 4130784,
      "byteLength": 86124,
      "target": 34963
    }
  ],
  "buffers": [
    {
      "uri": "PlaysetLightTestLOD.bin",
      "byteLength": 4216908
    }
  ],
  "cameras": [
    {
      "perspective": {
        "aspectRatio": 1.7777777777777777,
        "yfov": 0.39959651231765747,
        "zfar": 1000.0,
        "znear": 0.10000000149011612
      },
      "type": "perspective",
      "name": "Camera.001"
    }
  ],
  "extensionsUsed": [
    "KHR_lights_punctual",
    "KHR_materials_emissive_strength",
    "NG2_mesh_lod"
  ],
  "extensionsRequired": [
    "KHR_lights_punctual",
    "KHR_materials_emissive_strength"
  ],
  "images": [
    {
      "uri": "PlaysetLightTest_img00.png",
      "name": "Image_1"
    },
    {
      "uri": "PlaysetLightTest_img01.png",
      "name": "Image_3"
    },
    {
      "uri": "PlaysetLightTest_img02.png",
      "name": "Image_0"
    },
    {
      "uri": "PlaysetLightTest_img03.png",
      "name": "Image_2"
    },
    {
      "uri": "PlaysetLightTest_img04.png",
      "name": "material0_normal"
    },
    {
      "uri": "PlaysetLightTest_img05.png",
      "name": "material0_occlusion"
    },
    {
      "uri": "PlaysetLightTest_img06.png",
      "name": "material0_basecolor"
    },
    {
      "uri": "PlaysetLightTest_img07.png",
      "name": "material0_metallic_roughness"
    },
    {
      "uri": "PlaysetLightTest_img08.jpg",
      "name": "Normals_0"
    },
    {
      "uri": "PlaysetLightTest_img09.jpg",
      "name": "Metalness_0"
    },
    {
      "uri": "PlaysetLightTest_img10.jpg",
      "name": "Basecolor_0"
    },
    {
      "uri": "PlaysetLightTest_img11.png",
      "name": "material0_normal"
    },
    {
      "uri": "PlaysetLightTest_img12.png",
      "name": "material0_occlusion"
    },
    {
      "uri": "PlaysetLightTest_img13.png",
      "name": "material0_basecolor"
    },
    {
      "uri": "PlaysetLightTest_img14.png",
      "name": "material0_metallic_roughness"
    },
    {
      "uri": "PlaysetLightTest_img15.png",
      "name": "material0_normal"
    },
    {
      "uri": "PlaysetLightTest_img16.png",
      "name": "material0_occlusion"
    },
    {
      "uri": "PlaysetLightTest_img17.png",
      "name": "material0_basecolor"
    },
    {
      "uri": "PlaysetLightTest_img18.png",
      "name": "material0_metallic_roughness"
    }
  ],
  "materials": [
    {
      "pbrMetallicRoughness": {
        "baseColorFactor": [
          1.0,
          1.0,
          1.0,
          1.0
        ],
        "metallicFactor": 1.0,
        "roughnessFactor": 1.0,
        "baseColorTexture": {
          "index": 2,
          "texCoord": 0
        },
        "metallicRoughnessTexture": {
          "index": 3,
          "texCoord": 0
        }
      },
      "normalTexture": {
        "index": 0,
        "scale": 1.0
      },
      "occlusionTexture": {
        "index": 1,
        "strength": 1.0
      },
      "emissiveFactor": [
        0.0,
        0.0,
        0.0
      ],
      "alphaMode": "OPAQUE",
      "doubleSided": false,
      "name": "Material_0.001"
    },
    {
      "pbrMetallicRoughness": {
        "baseColorFactor": [
          1.0,
          1.0,
          1.0,
          1.0
        ],
        "metallicFactor": 1.0,
        "roughnessFactor": 1.0,
        "baseColorTexture": {
          "index": 6,
          "texCoord": 0
        },
        "metallicRoughnessTexture": {
          "index": 7,
          "texCoord": 0
        }
      },
      "normalTexture": {
        "index": 4,
        "scale": 1.0
      },
      "occlusionTexture": {
        "index": 5,
        "strength": 1.0
      },
      "emissiveFactor": [
        0.0,
        0.0,
        0.0
      ],
      "alphaMode": "OPAQUE",
      "doubleSided": false,
      "name": "Material_0.002"
    },
    {
      "pbrMetallicRoughness": {
        "baseColorFactor": [
          1.0,
          1.0,
          1.0,
          1.0
        ],
        "metallicFactor": 1.0,
        "roughnessFactor": 1.0,
        "baseColorTexture": {
          "index": 10,
          "texCoord": 0
        },
        "metallicRoughnessTexture": {
          "index": 9,
          "texCoord": 0
        }
      },
      "normalTexture": {
        "index": 8,
        "scale": 1.0
      },
      "occlusionTexture": {
        "index": 9,
        "strength": 1.0
      },
      "emissiveFactor": [
        0.0,
        0.0,
        0.0
      ],
      "alphaMode": "OPAQUE",
      "doubleSided": false,
      "name": "SimplygonCastMaterial.002"
    },
    {
      "pbrMetallicRoughness": {
        "baseColorFactor": [
          1.0,
          1.0,
          1.0,
          1.0
        ],
        "metallicFactor": 1.0,
        "roughnessFactor": 1.0,
        "baseColorTexture": {
          "index": 13,
          "texCoord": 0
        },
        "metallicRoughnessTexture": {
          "index": 14,
          "texCoord": 0
        }
      },
      "normalTexture": {
        "index": 11,
        "scale": 1.0
      },
      "occlusionTexture": {
        "index": 12,
        "strength": 1.0
      },
      "emissiveFactor": [
        0.0,
        0.0,
        0.0
      ],
      "alphaMode": "OPAQUE",
      "doubleSided": false,
      "name": "Material_0"
    },
    {
      "extensions": {
        "KHR_materials_emissive_strength": {
          "emissiveStrength": 1500
        }
      },
      "pbrMetallicRoughness": {
        "baseColorFactor": [
          0.800000011920929,
          0.800000011920929,
          0.800000011920929,
          1.0
        ],
        "metallicFactor": 0.0,
        "roughnessFactor": 0.5
      },
      "emissiveFactor": [
        1.0,
        1.0,
        1.0
      ],
      "alphaMode": "OPAQUE",
      "doubleSided": false,
      "name": "emissive"
    },
    {
      "pbrMetallicRoughness": {
        "baseColorFactor": [
          1.0,
          1.0,
          1.0,
          1.0
        ],
        "metallicFactor": 0.0,
        "roughnessFactor": 1.0,
        "baseColorTexture": {
          "index": 17,
          "texCoord": 0
        },
        "metallicRoughnessTexture": {
          "index": 18,
          "texCoord": 0
        }
      },
      "normalTexture": {
        "index": 15,
        "scale": 1.0
      },
      "occlusionTexture": {
        "index": 16,
        "strength": 1.0
      },
      "emissiveFactor": [
        0.0,
        0.0,
        0.0
      ],
      "alphaMode": "OPAQUE",
      "doubleSided": false,
      "name": "Material_0.3065"
    }
  ],
  "meshes": [
    {
      "primitives": [
        {
          "extensions": {
            "NG2_mesh_lod": {
              "levels": [
                {
                  "indices": 24,
                  "error": 0.00063
                },
                {
                  "indices": 25,
                  "error": 0.001482
                }
              ]
            }
          },
          "attributes": {
            "POSITION": 0,
            "NORMAL": 1,
            "TEXCOORD_0": 2
          },
          "indices": 3,
          "mode": 4,
          "material": 0
        }
      ],
      "name": "Mesh_0.001"
    },
    {
      "primitives": [
        {
          "extensions": {
            "NG2_mesh_lod": {
              "levels": [
                {
                  "indices": 26,
                  "error": 7.8e-05
                },
                {
                  "indices": 27,
                  "error": 0.000219
                }
              ]
            }
          },
          "attributes": {
            "POSITION": 4,
            "NORMAL": 5,
            "TEXCOORD_0": 6
          },
          "indices": 7,
          "mode": 4,
          "material": 1
        }
      ],
      "name": "Mesh_0.002"
    },
    {
      "primitives": [
        {
          "extensions": {
            "NG2_mesh_lod": {
              "levels": [
                {
                  "indices": 28,
                  "error": 0.061375
                }
              ]
            }
          },
          "attributes": {
            "POSITION": 8,
            "NORMAL": 9,
            "TEXCOORD_0": 10
          },
          "indices": 11,
          "mode": 4,
          "material": 2
        }
      ],
      "name": "ProcessedGeometry"
    },
    {
      "primitives": [
        {
          "extensions": {
            "NG2_mesh_lod": {
              "levels": [
                {
                  "indices": 29,
                  "error": 0.000102
                },
                {
                  "indices": 30,
                  "error": 0.000243
                }
              ]
            }
          },
          "attributes": {
            "POSITION": 12,
            "NORMAL": 13,
            "TEXCOORD_0": 14
          },
          "indices": 15,
          "mode": 4,
          "material": 3
        }
      ],
      "name": "Mesh_0"
    },
    {
      "primitives": [
        {
          "extensions": {
            "NG2_mesh_lod": {
              "levels": [
                {
                  "indices": 31,
                  "error": 0.000242
                },
                {
                  "indices": 32,
                  "error": 0.000662
                }
              ]
            }
          },
          "attributes": {
            "POSITION": 16,
            "NORMAL": 17,
            "TEXCOORD_0": 18
          },
          "indices": 19,
          "mode": 4,
          "material": 4
        }
      ],
      "name": "Mesh_0.003"
    },
    {
      "primitives": [
        {
          "extensions": {
            "NG2_mesh_lod": {
              "levels": [
                {
                  "indices": 33,
                  "error": 0.000145
                },
                {
                  "indices": 34,
                  "error": 0.006731
                }
              ]
            }
          },
          "attributes": {
            "POSITION": 20,
            "NORMAL": 21,
            "TEXCOORD_0": 22
          },
          "indices": 23,
          "mode": 4,
          "material": 5
        }
      ],
      "name": "Mesh_0.3065"
    }
  ],
  "nodes": [
    {
      "extensions": {
        "KHR_lights_punctual": {
          "light": 0
        }
      },
      "rotation": [
        -0.0024513383395969868,
        0.49826356768608093,
        0.7071025967597961,
        0.5017303228378296
      ],
      "translation": [
        0.6517573595046997,
        0.7440021634101868,
        0.6551325917243958
      ],
      "name": "light1"
    },
    {
      "children": [
        0
      ],
      "name": "lights"
    },
    {
      "mesh": 0,
      "rotation": [
        0.0,
        -0.2892938256263733,
        0.0,
        0.9572403430938721
      ],
      "translation": [
        0.4518204927444458,
        0.004607812035828829,
        -0.487223744392395
      ],
      "name": "abacus"
    },
    {
      "mesh": 1,
      "translation": [
        -0.005720794200897217,
        0.0,
        0.5211869478225708
      ],
      "name": "ball"
    },
    {
      "rotation": [
        -0.2283487170934677,
        -0.003398478962481022,
        -0.0007970705628395081,
        0.9735732078552246
      ],
      "translation": [
        -0.0059530967846512794,
        1.1229039430618286,
        2.203146457672119
      ],
      "camera": 0,
      "name": "Camera"
    },
    {
      "mesh": 2,
      "name": "carpet"
    },
    {
      "mesh": 3,
      "rotation": [
        0.07086607068777084,
        -0.27921947836875916,
        -0.6912404298782349,
        0.6627225279808044
      ],
      "translation": [
        -0.08564350754022598,
        0.026569407433271408,
        -0.05498848482966423
      ],
      "name": "giraffe"
    },
    {
      "extensions": {
        "KHR_lights_punctual": {
          "light": 1
        }
      },
      "rotation": [
        -0.6537771821022034,
        0.26939821243286133,
        0.26939821243286133,
        0.6537771821022034
      ],
      "translation": [
        0.11650010943412781,
        0.12385834008455276,
        0.0009290575981140137
      ],
      "name": "LEDlight"
    },
    {
      "mesh": 4,
      "children": [
        7
      ],
      "name": "lamp_emissive"
    },
    {
      "mesh": 5,
      "rotation": [
        0.0,
        -0.3809865713119507,
        0.0,
        0.9245806932449341
      ],
      "translation": [
        -0.5848581790924072,
        0.003981150221079588,
        -0.6097322702407837
      ],
      "children": [
        8
      ],
      "name": "lamp"
    },
    {
      "children": [
        2,
        3,
        4,
        5,
        6,
        9
      ],
      "name": "scene"
    }
  ],
  "samplers": [
    {
      "magFilter": 9729,
      "minFilter": 9987,
      "wrapS": 33071,
      "wrapT": 33071
    },
    {
      "magFilter": 9729,
      "minFilter": 9987,
      "wrapS": 10497,
      "wrapT": 10497
    }
  ],
  "scene": 0,
  "scenes": [
    {
      "name": "Scene",
      "nodes": [
        1,
        10
      ]
    }
  ],
  "textures": [
    {
      "sampler": 0,
      "source": 0
    },
    {
      "sampler": 0,
      "source": 1
    },
    {
      "sampler": 0,
      "source": 2
    },
    {
      "sampler": 1,
      "source": 3
    },
    {
      "sampler": 0,
      "source": 4
    },
    {
      "sampler": 0,
      "source": 5
    },
    {
      "sampler": 0,
      "source": 6
    },
    {
      "sampler": 1,
      "source": 7
    },
    {
      "sampler": 1,
      "source": 8
    },
    {
      "sampler": 1,
      "source": 9
    },
    {
      "sampler": 1,
      "source": 10
    },
    {
      "sampler": 0,
      "source": 11
    },
    {
      "sampler": 0,
      "source": 12
    },
    {
      "sampler": 0,
      "source": 13
    },
    {
      "sampler": 1,
      "source": 14
    },
    {
      "sampler": 0,
      "source": 15
    },
    {
      "sampler": 0,
      "source": 16
    },
    {
      "sampler": 0,
      "source": 17
    },
    {
      "sampler": 1,
      "source": 18
    }
  ]
}